<svg id="svg" version="1.1" xmlns="http://www.w3.org/2000/svg" xmlns:xlink="http://www.w3.org/1999/xlink" width="400" height="400" viewBox="0, 0, 400,400"><g id="svgg"><path id="path0" d="M206.400 167.033 C 205.850 167.123,203.240 167.375,200.600 167.592 C 193.679 168.160,189.068 168.941,184.200 170.370 C 179.615 171.715,175.680 172.919,175.000 173.185 C 170.981 174.759,161.086 179.740,160.071 180.700 C 159.781 180.975,159.392 181.200,159.208 181.200 C 158.892 181.200,150.030 187.432,149.600 187.956 C 149.490 188.090,148.525 188.904,147.455 189.763 C 142.343 193.873,131.234 206.548,130.070 209.597 C 129.944 209.929,129.516 210.549,129.120 210.975 C 128.724 211.402,128.400 211.987,128.400 212.275 C 128.400 212.564,128.175 212.800,127.900 212.800 C 127.625 212.800,128.840 213.718,130.600 214.840 C 133.337 216.585,137.749 219.733,138.400 220.404 C 138.510 220.518,139.590 221.417,140.800 222.403 C 144.068 225.064,150.157 231.388,152.734 234.799 C 153.980 236.448,155.225 238.036,155.500 238.327 C 155.775 238.619,156.000 239.011,156.000 239.200 C 156.000 239.389,156.235 239.781,156.522 240.071 C 156.810 240.362,157.485 241.410,158.022 242.400 C 158.560 243.390,159.090 244.290,159.200 244.400 C 159.880 245.080,163.600 252.397,163.600 253.055 C 163.600 253.355,163.780 253.600,164.000 253.600 C 164.220 253.600,164.400 253.872,164.400 254.205 C 164.400 254.538,164.608 255.213,164.862 255.705 C 165.856 257.626,166.000 258.016,166.000 258.771 C 166.000 259.201,166.180 259.664,166.400 259.800 C 168.262 260.951,165.435 267.446,162.307 269.204 C 158.219 271.502,150.400 268.641,150.400 264.848 C 150.400 264.337,145.995 254.335,145.622 254.000 C 145.236 253.652,143.960 251.429,143.729 250.700 C 143.607 250.315,143.348 250.000,143.153 250.000 C 142.959 250.000,142.800 249.730,142.800 249.400 C 142.800 249.070,142.659 248.800,142.486 248.800 C 142.314 248.800,141.880 248.305,141.521 247.700 C 141.163 247.095,140.474 246.150,139.990 245.600 C 139.506 245.050,138.635 243.974,138.055 243.208 C 136.460 241.104,132.571 237.322,128.176 233.600 C 126.325 232.033,120.917 228.400,120.435 228.400 C 120.196 228.400,119.999 228.265,119.999 228.100 C 119.998 227.935,119.008 227.350,117.800 226.800 C 116.592 226.250,115.602 225.665,115.601 225.500 C 115.601 225.335,115.358 225.200,115.061 225.200 C 114.765 225.200,114.000 224.950,113.361 224.644 C 108.726 222.423,105.003 221.301,96.400 219.534 C 92.849 218.805,77.472 218.806,74.200 219.535 C 72.115 220.001,68.483 220.904,62.100 222.545 C 61.165 222.785,60.400 223.121,60.400 223.291 C 60.400 223.461,60.128 223.600,59.795 223.600 C 59.462 223.600,58.877 223.773,58.495 223.984 C 58.113 224.195,56.540 224.950,55.000 225.661 C 53.460 226.372,52.110 227.054,52.000 227.177 C 51.890 227.300,51.395 227.625,50.900 227.900 C 48.665 229.141,48.192 229.443,47.445 230.100 C 47.007 230.485,46.413 230.800,46.125 230.800 C 45.836 230.800,45.600 230.941,45.600 231.114 C 45.600 231.286,45.096 231.725,44.481 232.089 C 41.330 233.950,32.846 242.335,30.002 246.400 C 29.463 247.170,28.731 248.118,28.375 248.507 C 28.019 248.895,27.474 249.705,27.165 250.307 C 26.855 250.908,26.511 251.490,26.401 251.600 C 24.959 253.037,20.345 263.432,19.122 268.000 C 15.086 283.068,15.344 296.023,19.960 310.000 C 21.307 314.078,25.674 323.284,26.872 324.569 C 27.272 324.999,27.600 325.587,27.600 325.875 C 27.600 326.164,27.741 326.400,27.914 326.400 C 28.086 326.400,28.525 326.895,28.889 327.500 C 30.699 330.510,38.832 339.270,41.600 341.191 C 42.370 341.725,43.291 342.486,43.647 342.881 C 44.003 343.276,44.464 343.600,44.671 343.600 C 44.879 343.600,45.398 343.915,45.825 344.300 C 47.384 345.708,53.840 349.324,57.800 351.007 C 58.680 351.381,59.923 351.938,60.561 352.244 C 61.200 352.550,62.045 352.800,62.438 352.800 C 62.831 352.800,63.264 352.980,63.400 353.200 C 63.536 353.420,64.076 353.600,64.600 353.600 C 65.124 353.600,65.664 353.780,65.800 354.000 C 65.936 354.220,66.656 354.400,67.400 354.400 C 68.144 354.400,68.852 354.561,68.974 354.758 C 69.095 354.955,69.961 355.229,70.897 355.368 C 71.834 355.506,73.770 355.821,75.200 356.067 C 77.038 356.383,101.285 356.557,157.982 356.659 C 210.446 356.754,238.302 356.942,238.562 357.202 C 238.781 357.421,239.270 357.600,239.648 357.600 C 240.573 357.600,244.000 361.071,244.000 362.008 C 244.000 362.418,244.180 362.864,244.400 363.000 C 244.620 363.136,244.800 363.867,244.800 364.624 L 244.800 366.000 252.000 366.000 L 259.200 366.000 259.200 364.600 C 259.200 363.830,259.380 363.200,259.600 363.200 C 259.820 363.200,260.000 362.764,260.000 362.232 C 260.000 361.066,263.299 357.600,264.408 357.600 C 264.818 357.600,265.264 357.420,265.400 357.200 C 265.536 356.980,266.526 356.800,267.600 356.800 C 268.674 356.800,269.664 356.980,269.800 357.200 C 269.936 357.420,270.382 357.600,270.792 357.600 C 271.759 357.600,275.200 361.041,275.200 362.008 C 275.200 362.418,275.380 362.864,275.600 363.000 C 275.820 363.136,276.000 363.867,276.000 364.624 L 276.000 366.000 283.200 366.000 L 290.400 366.000 290.400 364.995 C 290.400 364.442,290.559 363.677,290.753 363.295 C 290.948 362.913,291.352 362.060,291.651 361.400 C 292.344 359.875,294.741 357.600,295.655 357.600 C 296.039 357.600,296.464 357.420,296.600 357.200 C 296.755 356.950,300.796 356.800,307.400 356.800 C 314.004 356.800,318.045 356.650,318.200 356.400 C 318.336 356.180,319.326 356.000,320.400 356.000 C 321.474 356.000,322.464 355.820,322.600 355.600 C 322.736 355.380,323.341 355.200,323.944 355.200 C 324.547 355.200,325.211 355.051,325.420 354.870 C 325.629 354.688,326.610 354.289,327.600 353.983 C 330.097 353.212,335.349 350.415,337.664 348.624 C 338.249 348.171,339.149 347.479,339.664 347.087 C 342.516 344.915,346.704 340.207,348.993 336.600 C 350.492 334.238,352.800 329.476,352.800 328.745 C 352.800 328.335,352.960 328.000,353.155 328.000 C 353.350 328.000,353.609 327.505,353.730 326.900 C 354.284 324.148,354.483 323.347,354.799 322.600 C 355.940 319.905,355.894 305.276,354.742 304.564 C 354.554 304.448,354.400 303.971,354.400 303.505 C 354.400 297.612,344.643 282.624,338.408 278.941 C 337.744 278.549,337.200 278.086,337.200 277.914 C 337.200 277.741,337.007 277.600,336.772 277.600 C 336.537 277.600,335.592 277.098,334.672 276.484 C 333.186 275.493,330.517 274.125,328.200 273.168 C 322.069 270.636,310.606 269.729,303.610 271.224 C 300.868 271.810,295.018 273.722,294.867 274.082 C 294.793 274.257,294.388 274.400,293.967 274.400 C 293.545 274.400,293.200 274.580,293.200 274.800 C 293.200 275.020,292.840 275.200,292.400 275.200 C 291.960 275.200,291.600 275.359,291.600 275.553 C 291.600 275.748,291.285 276.010,290.900 276.136 C 290.515 276.262,289.430 276.823,288.489 277.382 C 283.111 280.581,276.400 276.594,276.400 270.200 C 276.400 266.572,277.998 264.100,281.600 262.156 C 282.370 261.740,283.090 261.310,283.200 261.200 C 283.678 260.722,285.239 260.000,285.795 260.000 C 286.128 260.000,286.400 259.820,286.400 259.600 C 286.400 259.380,286.760 259.200,287.200 259.200 C 287.640 259.200,288.000 259.020,288.000 258.800 C 288.000 258.580,288.349 258.400,288.776 258.400 C 289.203 258.400,289.664 258.220,289.800 258.000 C 289.936 257.780,290.487 257.600,291.024 257.600 C 291.561 257.600,292.000 257.420,292.000 257.200 C 292.000 256.980,292.439 256.800,292.976 256.800 C 293.513 256.800,294.064 256.620,294.200 256.400 C 294.336 256.180,294.966 256.000,295.600 256.000 C 296.234 256.000,296.864 255.820,297.000 255.600 C 297.136 255.380,297.856 255.200,298.600 255.200 C 299.344 255.200,300.064 255.020,300.200 254.800 C 300.336 254.580,301.172 254.400,302.058 254.400 L 303.668 254.400 303.458 251.900 C 302.652 242.291,298.813 228.629,294.750 220.904 C 294.117 219.702,293.600 218.467,293.600 218.159 C 293.600 217.852,293.465 217.599,293.300 217.597 C 293.135 217.595,292.802 217.190,292.560 216.697 C 291.330 214.192,290.128 212.121,289.500 211.425 C 289.115 210.998,288.800 210.428,288.800 210.158 C 288.800 209.888,288.655 209.607,288.477 209.533 C 288.299 209.460,287.548 208.500,286.808 207.400 C 282.467 200.948,273.747 191.891,267.000 186.829 C 264.580 185.013,262.283 183.274,261.895 182.964 C 261.508 182.654,261.093 182.400,260.973 182.400 C 260.854 182.400,259.731 181.710,258.478 180.867 C 257.225 180.023,255.615 179.079,254.900 178.769 C 254.185 178.459,253.600 178.069,253.600 177.902 C 253.600 177.736,253.240 177.600,252.800 177.600 C 252.360 177.600,252.000 177.420,252.000 177.200 C 252.000 176.980,251.640 176.800,251.200 176.800 C 250.760 176.800,250.400 176.664,250.400 176.498 C 250.400 176.331,249.815 175.956,249.100 175.664 C 246.263 174.505,245.695 174.276,243.100 173.241 C 241.242 172.501,237.343 171.226,235.800 170.855 C 234.920 170.643,233.210 170.211,232.000 169.894 C 229.636 169.276,226.259 168.560,224.000 168.197 C 220.134 167.576,207.977 166.772,206.400 167.033 " stroke="none" fill="#a4ccfc" fill-rule="evenodd"></path><path id="path1" d="M229.231 26.927 C 225.164 29.007,223.549 34.458,225.360 39.992 C 225.712 41.069,226.000 42.311,226.000 42.752 C 226.000 43.192,226.180 43.664,226.400 43.800 C 226.620 43.936,226.800 44.577,226.800 45.224 C 226.800 45.871,226.980 46.400,227.200 46.400 C 227.420 46.400,227.600 47.019,227.600 47.776 C 227.600 48.533,227.780 49.264,228.000 49.400 C 228.220 49.536,228.400 50.177,228.400 50.824 C 228.400 51.471,228.580 52.000,228.800 52.000 C 229.020 52.000,229.200 52.619,229.200 53.376 C 229.200 54.133,229.380 54.864,229.600 55.000 C 229.820 55.136,230.000 55.676,230.000 56.200 C 230.000 56.724,230.180 57.264,230.400 57.400 C 230.620 57.536,230.800 58.267,230.800 59.024 C 230.800 59.781,230.980 60.400,231.200 60.400 C 231.420 60.400,231.600 60.760,231.600 61.200 C 231.600 61.640,231.780 62.000,232.000 62.000 C 232.220 62.000,232.400 62.278,232.400 62.618 C 232.400 63.418,234.182 65.200,234.982 65.200 C 235.322 65.200,235.600 65.380,235.600 65.600 C 235.600 65.820,236.140 66.000,236.800 66.000 C 237.460 66.000,238.000 66.180,238.000 66.400 C 238.000 66.620,238.619 66.800,239.376 66.800 C 240.133 66.800,240.864 66.620,241.000 66.400 C 241.136 66.180,241.748 66.000,242.360 66.000 C 243.620 66.000,247.200 62.923,247.200 61.840 C 247.200 61.488,247.380 61.200,247.600 61.200 C 247.835 61.200,248.000 59.800,248.000 57.800 C 248.000 55.800,247.835 54.400,247.600 54.400 C 247.380 54.400,247.200 53.871,247.200 53.224 C 247.200 52.577,247.020 51.936,246.800 51.800 C 246.580 51.664,246.400 50.933,246.400 50.176 C 246.400 49.419,246.220 48.800,246.000 48.800 C 245.780 48.800,245.600 48.271,245.600 47.624 C 245.600 46.977,245.420 46.336,245.200 46.200 C 244.980 46.064,244.800 45.434,244.800 44.800 C 244.800 44.166,244.620 43.536,244.400 43.400 C 244.180 43.264,244.000 42.724,244.000 42.200 C 244.000 41.676,243.820 41.136,243.600 41.000 C 243.380 40.864,243.200 40.133,243.200 39.376 C 243.200 38.619,243.020 38.000,242.800 38.000 C 242.580 38.000,242.400 37.460,242.400 36.800 C 242.400 36.140,242.220 35.600,242.000 35.600 C 241.780 35.600,241.596 34.925,241.591 34.100 C 241.557 28.283,234.541 24.212,229.231 26.927 M326.800 38.400 C 326.800 38.620,326.614 38.800,326.387 38.800 C 325.742 38.800,323.200 41.501,323.200 42.187 C 323.200 42.524,323.020 42.800,322.800 42.800 C 322.580 42.800,322.400 43.070,322.400 43.400 C 322.400 43.730,322.220 44.000,322.000 44.000 C 321.780 44.000,321.600 44.360,321.600 44.800 C 321.600 45.240,321.420 45.600,321.200 45.600 C 320.980 45.600,320.800 45.878,320.800 46.217 C 320.800 46.556,320.440 47.220,320.000 47.692 C 319.560 48.164,319.200 48.787,319.200 49.075 C 319.200 49.364,319.020 49.600,318.800 49.600 C 318.580 49.600,318.400 49.960,318.400 50.400 C 318.400 50.840,318.220 51.200,318.000 51.200 C 317.780 51.200,317.600 51.560,317.600 52.000 C 317.600 52.440,317.420 52.800,317.200 52.800 C 316.980 52.800,316.800 53.078,316.800 53.417 C 316.800 53.756,316.440 54.420,316.000 54.892 C 315.560 55.364,315.200 55.987,315.200 56.275 C 315.200 56.564,315.020 56.800,314.800 56.800 C 314.580 56.800,314.400 57.160,314.400 57.600 C 314.400 58.040,314.254 58.400,314.075 58.400 C 313.896 58.400,313.502 59.030,313.200 59.800 C 312.898 60.570,312.548 61.200,312.423 61.200 C 312.298 61.200,311.960 61.785,311.671 62.500 C 311.383 63.215,310.979 64.113,310.774 64.495 C 310.301 65.374,310.287 68.589,310.753 69.505 C 310.948 69.887,311.336 70.692,311.617 71.293 C 312.112 72.352,312.792 73.148,314.270 74.400 C 316.600 76.373,326.000 74.793,326.000 72.429 C 326.000 72.193,326.180 72.000,326.400 72.000 C 326.620 72.000,326.800 71.730,326.800 71.400 C 326.800 71.070,326.980 70.800,327.200 70.800 C 327.420 70.800,327.600 70.440,327.600 70.000 C 327.600 69.560,327.780 69.200,328.000 69.200 C 328.220 69.200,328.400 68.840,328.400 68.400 C 328.400 67.960,328.580 67.600,328.800 67.600 C 329.020 67.600,329.200 67.364,329.200 67.075 C 329.200 66.787,329.560 66.164,330.000 65.692 C 330.440 65.220,330.800 64.556,330.800 64.217 C 330.800 63.878,330.980 63.600,331.200 63.600 C 331.420 63.600,331.600 63.240,331.600 62.800 C 331.600 62.360,331.780 62.000,332.000 62.000 C 332.220 62.000,332.400 61.640,332.400 61.200 C 332.400 60.760,332.580 60.400,332.800 60.400 C 333.020 60.400,333.200 60.164,333.200 59.875 C 333.200 59.587,333.515 59.002,333.901 58.575 C 334.286 58.149,335.051 56.900,335.601 55.800 C 336.150 54.700,336.735 53.740,336.900 53.667 C 337.065 53.593,337.200 53.265,337.200 52.938 C 337.200 52.611,337.479 52.064,337.820 51.723 C 338.160 51.382,338.543 50.585,338.670 49.952 C 338.796 49.318,339.058 48.800,339.250 48.800 C 339.820 48.800,339.649 44.214,339.022 42.715 C 338.304 40.997,336.294 38.800,335.440 38.800 C 335.088 38.800,334.800 38.620,334.800 38.400 C 334.800 38.160,333.200 38.000,330.800 38.000 C 328.400 38.000,326.800 38.160,326.800 38.400 M265.062 77.073 C 264.883 77.253,262.906 77.530,260.668 77.689 C 254.428 78.133,252.000 78.443,252.000 78.797 C 252.000 78.974,251.235 79.219,250.300 79.341 C 246.937 79.780,245.600 80.094,245.600 80.444 C 245.600 80.640,244.970 80.800,244.200 80.800 C 243.430 80.800,242.800 80.980,242.800 81.200 C 242.800 81.420,242.361 81.600,241.824 81.600 C 241.287 81.600,240.736 81.780,240.600 82.000 C 240.464 82.220,240.003 82.400,239.576 82.400 C 239.149 82.400,238.800 82.580,238.800 82.800 C 238.800 83.020,238.260 83.200,237.600 83.200 C 236.940 83.200,236.400 83.380,236.400 83.600 C 236.400 83.820,236.040 84.000,235.600 84.000 C 235.160 84.000,234.800 84.180,234.800 84.400 C 234.800 84.620,234.440 84.800,234.000 84.800 C 233.560 84.800,233.200 84.980,233.200 85.200 C 233.200 85.420,232.840 85.600,232.400 85.600 C 231.960 85.600,231.600 85.780,231.600 86.000 C 231.600 86.220,231.240 86.400,230.800 86.400 C 230.360 86.400,230.000 86.580,230.000 86.800 C 230.000 87.020,229.640 87.200,229.200 87.200 C 228.760 87.200,228.400 87.380,228.400 87.600 C 228.400 87.820,228.164 88.000,227.875 88.000 C 227.587 88.000,226.964 88.360,226.492 88.800 C 226.020 89.240,225.446 89.600,225.217 89.600 C 224.988 89.600,224.800 89.780,224.800 90.000 C 224.800 90.220,224.506 90.400,224.147 90.400 C 223.788 90.400,223.203 90.733,222.847 91.141 C 222.491 91.548,221.570 92.203,220.800 92.597 C 220.030 92.990,219.310 93.430,219.200 93.575 C 219.090 93.720,218.370 94.279,217.600 94.817 C 215.930 95.984,204.400 107.663,204.400 108.188 C 204.400 108.393,203.416 109.651,202.500 110.616 C 202.225 110.906,202.000 111.336,202.000 111.571 C 202.000 111.807,201.850 112.000,201.668 112.000 C 201.485 112.000,201.080 112.495,200.768 113.100 C 200.455 113.705,199.885 114.549,199.500 114.975 C 199.115 115.402,198.800 115.987,198.800 116.275 C 198.800 116.564,198.620 116.800,198.400 116.800 C 198.180 116.800,198.000 117.160,198.000 117.600 C 198.000 118.040,197.820 118.400,197.600 118.400 C 197.380 118.400,197.200 118.760,197.200 119.200 C 197.200 119.640,197.065 120.000,196.899 120.000 C 196.734 120.000,196.214 120.765,195.744 121.700 C 194.071 125.028,192.400 128.756,192.400 129.161 C 192.400 129.745,191.249 133.267,190.787 134.095 C 190.574 134.477,190.400 135.332,190.400 135.995 C 190.400 136.658,190.220 137.200,190.000 137.200 C 189.780 137.200,189.600 137.920,189.600 138.800 C 189.600 139.680,189.420 140.400,189.200 140.400 C 188.980 140.400,188.800 141.199,188.800 142.176 C 188.800 143.153,188.620 144.064,188.400 144.200 C 188.180 144.336,188.000 145.596,188.000 147.000 C 188.000 148.404,187.820 149.664,187.600 149.800 C 187.380 149.936,187.200 150.409,187.200 150.852 C 187.200 152.150,186.208 152.800,184.229 152.800 C 183.223 152.800,182.400 152.980,182.400 153.200 C 182.400 153.420,181.781 153.600,181.024 153.600 C 180.267 153.600,179.536 153.780,179.400 154.000 C 179.264 154.220,178.623 154.400,177.976 154.400 C 177.329 154.400,176.800 154.580,176.800 154.800 C 176.800 155.020,176.361 155.200,175.824 155.200 C 175.287 155.200,174.736 155.380,174.600 155.600 C 174.464 155.820,173.834 156.000,173.200 156.000 C 172.566 156.000,171.936 156.180,171.800 156.400 C 171.664 156.620,171.203 156.800,170.776 156.800 C 170.349 156.800,170.000 156.980,170.000 157.200 C 170.000 157.420,169.475 157.600,168.833 157.600 C 168.192 157.600,167.607 157.735,167.533 157.900 C 167.460 158.065,166.410 158.525,165.200 158.922 C 162.687 159.747,159.464 161.256,159.267 161.700 C 159.193 161.865,158.788 162.000,158.367 162.000 C 157.945 162.000,157.600 162.180,157.600 162.400 C 157.600 162.620,157.240 162.800,156.800 162.800 C 156.360 162.800,156.000 162.980,156.000 163.200 C 156.000 163.420,155.640 163.600,155.200 163.600 C 154.760 163.600,154.400 163.780,154.400 164.000 C 154.400 164.220,154.164 164.400,153.875 164.400 C 153.587 164.400,152.964 164.760,152.492 165.200 C 152.020 165.640,151.356 166.000,151.017 166.000 C 150.678 166.000,150.400 166.150,150.400 166.332 C 150.400 166.515,149.905 166.920,149.300 167.232 C 148.695 167.545,147.851 168.115,147.425 168.500 C 146.998 168.885,146.479 169.200,146.271 169.200 C 146.064 169.200,145.603 169.516,145.247 169.903 C 144.891 170.289,144.105 170.860,143.500 171.170 C 142.895 171.481,142.400 171.885,142.400 172.068 C 142.400 172.250,142.202 172.400,141.960 172.400 C 141.719 172.400,141.042 172.913,140.455 173.541 C 139.869 174.168,138.813 174.980,138.108 175.344 C 136.310 176.274,123.200 189.470,123.200 190.350 C 123.200 190.527,122.480 191.407,121.600 192.305 C 120.720 193.203,120.000 194.043,120.000 194.172 C 120.000 194.302,119.460 194.972,118.800 195.663 C 118.140 196.354,117.600 197.122,117.600 197.371 C 117.600 197.620,117.240 198.083,116.800 198.400 C 116.360 198.717,116.000 199.257,116.000 199.600 C 116.000 199.943,115.640 200.483,115.200 200.800 C 114.760 201.117,114.400 201.697,114.400 202.088 C 114.400 202.480,114.220 202.800,114.000 202.800 C 113.780 202.800,113.600 203.025,113.600 203.300 C 113.599 204.098,111.522 206.278,111.313 205.700 C 111.214 205.425,110.529 205.200,109.790 205.200 C 109.052 205.200,108.336 205.020,108.200 204.800 C 108.064 204.580,107.333 204.400,106.576 204.400 C 105.819 204.400,105.200 204.220,105.200 204.000 C 105.200 203.780,104.401 203.600,103.424 203.600 C 102.447 203.600,101.536 203.420,101.400 203.200 C 101.264 202.980,100.083 202.800,98.776 202.800 C 97.459 202.800,96.400 202.622,96.400 202.400 C 96.400 202.143,92.400 202.000,85.200 202.000 C 78.000 202.000,74.000 202.143,74.000 202.400 C 74.000 202.622,72.933 202.800,71.600 202.800 C 70.267 202.800,69.200 202.978,69.200 203.200 C 69.200 203.420,68.300 203.600,67.200 203.600 C 66.100 203.600,65.200 203.780,65.200 204.000 C 65.200 204.220,64.480 204.400,63.600 204.400 C 62.720 204.400,62.000 204.580,62.000 204.800 C 62.000 205.020,61.460 205.200,60.800 205.200 C 60.140 205.200,59.600 205.380,59.600 205.600 C 59.600 205.820,59.161 206.000,58.624 206.000 C 58.087 206.000,57.536 206.180,57.400 206.400 C 57.264 206.620,56.713 206.800,56.176 206.800 C 55.639 206.800,55.200 206.980,55.200 207.200 C 55.200 207.420,54.660 207.600,54.000 207.600 C 53.340 207.600,52.800 207.757,52.800 207.950 C 52.800 208.143,52.222 208.416,51.516 208.557 C 50.060 208.848,43.470 211.977,43.267 212.474 C 43.193 212.653,42.878 212.800,42.567 212.800 C 42.255 212.800,42.000 212.980,42.000 213.200 C 42.000 213.420,41.640 213.600,41.200 213.600 C 40.760 213.600,40.400 213.750,40.400 213.932 C 40.400 214.115,39.905 214.520,39.300 214.832 C 38.695 215.145,37.851 215.715,37.425 216.100 C 36.998 216.485,36.453 216.800,36.213 216.800 C 35.973 216.800,35.517 217.160,35.200 217.600 C 34.883 218.040,34.375 218.400,34.072 218.400 C 33.769 218.400,33.017 218.940,32.400 219.600 C 31.783 220.260,31.081 220.800,30.840 220.800 C 30.598 220.800,30.400 220.980,30.400 221.200 C 30.400 221.420,30.204 221.600,29.965 221.600 C 29.410 221.600,18.400 232.701,18.400 233.261 C 18.400 233.491,17.860 234.183,17.200 234.800 C 16.540 235.417,16.000 236.120,16.000 236.364 C 16.000 236.608,15.460 237.372,14.800 238.063 C 14.140 238.754,13.600 239.562,13.600 239.859 C 13.600 240.157,13.442 240.400,13.249 240.400 C 13.055 240.400,12.673 240.940,12.400 241.600 C 12.127 242.260,11.745 242.800,11.551 242.800 C 11.358 242.800,11.200 242.971,11.200 243.180 C 11.200 243.389,10.570 244.604,9.801 245.880 C 9.032 247.156,8.402 248.515,8.401 248.900 C 8.400 249.285,8.220 249.600,8.000 249.600 C 7.780 249.600,7.600 249.960,7.600 250.400 C 7.600 250.840,7.420 251.200,7.200 251.200 C 6.980 251.200,6.800 251.740,6.800 252.400 C 6.800 253.060,6.620 253.600,6.400 253.600 C 6.180 253.600,6.000 253.960,6.000 254.400 C 6.000 254.840,5.820 255.200,5.600 255.200 C 5.380 255.200,5.200 255.549,5.200 255.976 C 5.200 256.403,5.020 256.864,4.800 257.000 C 4.580 257.136,4.400 257.687,4.400 258.224 C 4.400 258.761,4.220 259.200,4.000 259.200 C 3.780 259.200,3.600 259.639,3.600 260.176 C 3.600 260.713,3.420 261.264,3.200 261.400 C 2.980 261.536,2.800 262.267,2.800 263.024 C 2.800 263.781,2.620 264.400,2.400 264.400 C 2.180 264.400,2.000 265.120,2.000 266.000 C 2.000 266.880,1.820 267.600,1.600 267.600 C 1.380 267.600,1.200 268.305,1.200 269.167 C 1.200 270.064,0.987 270.804,0.700 270.900 C 0.311 271.030,0.200 274.729,0.200 287.600 C 0.200 300.471,0.311 304.170,0.700 304.300 C 0.999 304.400,1.200 305.176,1.200 306.233 C 1.200 307.205,1.380 308.000,1.600 308.000 C 1.820 308.000,2.000 308.720,2.000 309.600 C 2.000 310.480,2.180 311.200,2.400 311.200 C 2.620 311.200,2.800 311.740,2.800 312.400 C 2.800 313.060,2.980 313.600,3.200 313.600 C 3.420 313.600,3.600 314.140,3.600 314.800 C 3.600 315.460,3.780 316.000,4.000 316.000 C 4.220 316.000,4.400 316.540,4.400 317.200 C 4.400 317.860,4.580 318.400,4.800 318.400 C 5.020 318.400,5.200 318.749,5.200 319.176 C 5.200 319.603,5.380 320.064,5.600 320.200 C 5.820 320.336,6.000 320.887,6.000 321.424 C 6.000 321.961,6.180 322.400,6.400 322.400 C 6.620 322.400,6.800 322.760,6.800 323.200 C 6.800 323.640,6.980 324.000,7.200 324.000 C 7.420 324.000,7.600 324.270,7.600 324.600 C 7.600 324.930,7.780 325.200,8.000 325.200 C 8.220 325.200,8.400 325.502,8.400 325.870 C 8.400 326.768,11.201 332.400,11.648 332.400 C 11.841 332.400,12.000 332.760,12.000 333.200 C 12.000 333.640,12.150 334.000,12.332 334.000 C 12.515 334.000,12.919 334.495,13.230 335.100 C 13.540 335.705,14.111 336.491,14.497 336.847 C 14.884 337.203,15.203 337.653,15.207 337.847 C 15.217 338.315,16.994 340.508,19.100 342.650 C 20.035 343.601,20.800 344.547,20.800 344.753 C 20.800 345.145,27.391 352.000,27.768 352.000 C 27.888 352.000,28.831 352.810,29.865 353.800 C 30.898 354.790,31.867 355.600,32.017 355.600 C 32.168 355.600,32.901 356.135,33.646 356.789 C 34.391 357.442,35.495 358.184,36.100 358.437 C 36.705 358.690,37.200 359.055,37.200 359.249 C 37.200 359.442,37.520 359.600,37.912 359.600 C 38.303 359.600,38.883 359.960,39.200 360.400 C 39.517 360.840,40.097 361.200,40.488 361.200 C 40.880 361.200,41.200 361.380,41.200 361.600 C 41.200 361.820,41.470 362.000,41.800 362.000 C 42.130 362.000,42.400 362.180,42.400 362.400 C 42.400 362.620,42.670 362.800,43.000 362.800 C 43.330 362.800,43.600 362.980,43.600 363.200 C 43.600 363.420,43.945 363.600,44.367 363.600 C 44.788 363.600,45.193 363.735,45.267 363.900 C 45.488 364.399,48.822 366.000,49.638 366.000 C 50.057 366.000,50.400 366.180,50.400 366.400 C 50.400 366.620,50.760 366.800,51.200 366.800 C 51.640 366.800,52.000 366.980,52.000 367.200 C 52.000 367.420,52.349 367.600,52.776 367.600 C 53.203 367.600,53.664 367.780,53.800 368.000 C 53.936 368.220,54.487 368.400,55.024 368.400 C 55.561 368.400,56.000 368.580,56.000 368.800 C 56.000 369.020,56.540 369.200,57.200 369.200 C 57.860 369.200,58.400 369.380,58.400 369.600 C 58.400 369.820,58.929 370.000,59.576 370.000 C 60.223 370.000,60.864 370.180,61.000 370.400 C 61.136 370.620,61.766 370.800,62.400 370.800 C 63.034 370.800,63.664 370.980,63.800 371.200 C 63.936 371.420,64.656 371.600,65.400 371.600 C 66.144 371.600,66.864 371.780,67.000 372.000 C 67.136 372.220,68.227 372.400,69.424 372.400 C 70.621 372.400,71.600 372.567,71.600 372.771 C 71.600 373.723,237.611 374.549,238.558 373.602 C 238.779 373.381,239.289 373.200,239.691 373.200 C 240.574 373.200,244.000 369.869,244.000 369.011 C 244.000 368.675,244.180 368.400,244.400 368.400 C 245.010 368.400,244.877 366.254,244.213 365.376 C 243.890 364.949,243.620 364.077,243.613 363.438 C 243.598 362.092,242.169 360.061,240.301 358.728 L 239.000 357.800 157.400 357.572 C 98.943 357.408,75.346 357.216,74.200 356.894 C 73.320 356.648,71.610 356.239,70.400 355.986 C 65.367 354.933,58.543 352.495,53.491 349.945 C 33.364 339.785,20.439 321.642,16.039 297.376 C 15.502 294.414,15.458 281.192,15.976 278.531 C 16.182 277.469,16.563 275.340,16.822 273.800 C 17.730 268.391,23.440 253.476,25.167 252.000 C 25.296 251.890,25.642 251.331,25.937 250.758 C 27.676 247.378,34.368 239.516,38.757 235.697 C 43.237 231.799,43.831 231.319,44.841 230.778 C 45.341 230.511,46.110 229.956,46.550 229.546 C 46.991 229.136,47.587 228.800,47.875 228.800 C 48.164 228.800,48.401 228.665,48.403 228.500 C 48.405 228.335,48.810 227.998,49.303 227.752 C 49.796 227.506,51.910 226.420,54.000 225.339 C 73.220 215.402,99.424 215.539,117.500 225.671 C 121.062 227.668,121.919 228.186,124.169 229.702 C 135.655 237.443,144.449 248.313,150.185 261.861 C 152.323 266.909,153.501 268.295,156.244 268.992 C 162.980 270.702,167.517 264.607,164.758 257.553 C 158.888 242.551,148.664 229.026,136.200 219.779 C 132.570 217.086,128.936 214.682,127.900 214.290 C 123.914 212.780,141.788 192.058,154.800 183.103 C 158.577 180.504,159.970 179.653,163.800 177.608 C 164.900 177.021,166.160 176.343,166.600 176.102 C 177.685 170.030,193.705 166.410,209.523 166.403 C 218.574 166.400,220.489 166.612,231.544 168.841 C 238.086 170.160,249.231 174.517,255.800 178.325 C 260.081 180.806,261.376 181.631,264.600 183.932 C 272.196 189.353,279.696 196.530,284.567 203.037 C 285.869 204.777,287.444 206.864,288.067 207.677 C 288.690 208.489,289.200 209.266,289.200 209.404 C 289.200 209.543,289.740 210.441,290.400 211.400 C 291.060 212.359,291.600 213.337,291.600 213.572 C 291.600 213.807,291.759 214.000,291.953 214.000 C 292.148 214.000,292.407 214.315,292.530 214.700 C 292.652 215.085,293.360 216.480,294.101 217.800 C 298.099 224.916,302.134 236.962,303.548 246.000 C 304.997 255.271,305.104 254.544,302.200 255.217 C 294.084 257.100,292.332 257.685,286.600 260.427 C 281.963 262.645,279.492 264.279,278.489 265.790 C 273.628 273.108,282.029 280.984,289.400 276.021 C 312.994 260.134,347.925 274.263,355.113 302.600 C 356.232 307.012,356.400 308.417,356.400 313.375 C 356.400 319.058,355.700 323.782,354.381 327.000 C 354.200 327.440,353.818 328.520,353.530 329.400 C 351.278 336.291,344.591 344.815,337.600 349.707 C 333.478 352.591,324.855 356.400,322.447 356.400 C 321.952 356.400,321.185 356.594,320.741 356.831 C 320.258 357.090,315.257 357.382,308.268 357.560 C 298.811 357.800,296.373 357.977,295.400 358.490 C 293.407 359.543,291.600 362.028,291.600 363.718 C 291.600 364.229,291.336 364.996,291.013 365.424 C 290.342 366.311,290.202 368.000,290.800 368.000 C 291.020 368.000,291.203 368.405,291.207 368.900 C 291.215 369.992,294.408 373.200,295.487 373.200 C 295.901 373.200,296.426 373.386,296.653 373.613 C 297.189 374.149,317.134 373.852,321.000 373.250 C 322.540 373.010,324.655 372.703,325.700 372.567 C 326.745 372.431,327.600 372.158,327.600 371.960 C 327.600 371.762,328.219 371.600,328.976 371.600 C 329.733 371.600,330.464 371.420,330.600 371.200 C 330.736 370.980,331.276 370.800,331.800 370.800 C 332.324 370.800,332.864 370.620,333.000 370.400 C 333.136 370.180,333.597 370.000,334.024 370.000 C 334.451 370.000,334.800 369.820,334.800 369.600 C 334.800 369.380,335.135 369.200,335.544 369.200 C 336.346 369.200,341.313 366.795,341.533 366.300 C 341.607 366.135,341.972 366.000,342.345 366.000 C 342.718 366.000,343.283 365.640,343.600 365.200 C 343.917 364.760,344.457 364.400,344.800 364.400 C 345.143 364.400,345.683 364.040,346.000 363.600 C 346.317 363.160,346.825 362.800,347.128 362.800 C 347.431 362.800,348.183 362.260,348.800 361.600 C 349.417 360.940,350.127 360.400,350.379 360.400 C 350.630 360.400,351.261 359.995,351.779 359.500 C 356.239 355.244,358.776 352.585,359.245 351.677 C 359.550 351.085,360.295 350.123,360.900 349.540 C 361.505 348.956,362.000 348.231,362.000 347.928 C 362.000 347.625,362.360 347.117,362.800 346.800 C 363.240 346.483,363.600 345.903,363.600 345.512 C 363.600 345.120,363.780 344.800,364.000 344.800 C 364.220 344.800,364.400 344.522,364.400 344.183 C 364.400 343.844,364.760 343.180,365.200 342.708 C 365.640 342.236,366.000 341.613,366.000 341.325 C 366.000 341.036,366.180 340.800,366.400 340.800 C 366.620 340.800,366.800 340.451,366.800 340.024 C 366.800 339.597,366.980 339.136,367.200 339.000 C 367.420 338.864,367.600 338.403,367.600 337.976 C 367.600 337.549,367.780 337.200,368.000 337.200 C 368.220 337.200,368.400 336.851,368.400 336.424 C 368.400 335.997,368.580 335.536,368.800 335.400 C 369.020 335.264,369.200 334.713,369.200 334.176 C 369.200 333.639,369.380 333.200,369.600 333.200 C 369.820 333.200,370.000 332.671,370.000 332.024 C 370.000 331.377,370.180 330.736,370.400 330.600 C 370.620 330.464,370.800 329.733,370.800 328.976 C 370.800 328.219,370.980 327.600,371.200 327.600 C 371.420 327.600,371.600 326.715,371.600 325.633 C 371.600 324.552,371.792 323.603,372.027 323.524 C 372.315 323.428,372.455 320.184,372.455 313.600 C 372.455 307.016,372.315 303.772,372.027 303.676 C 371.792 303.597,371.600 302.648,371.600 301.567 C 371.600 300.485,371.420 299.600,371.200 299.600 C 370.980 299.600,370.800 298.880,370.800 298.000 C 370.800 297.120,370.620 296.400,370.400 296.400 C 370.180 296.400,370.000 295.860,370.000 295.200 C 370.000 294.540,369.820 294.000,369.600 294.000 C 369.380 294.000,369.200 293.550,369.200 293.000 C 369.200 292.450,369.020 292.000,368.800 292.000 C 368.580 292.000,368.400 291.460,368.400 290.800 C 368.400 290.140,368.220 289.600,368.000 289.600 C 367.780 289.600,367.600 289.240,367.600 288.800 C 367.600 288.360,367.420 288.000,367.200 288.000 C 366.980 288.000,366.800 287.640,366.800 287.200 C 366.800 286.760,366.620 286.400,366.400 286.400 C 366.180 286.400,366.000 286.040,366.000 285.600 C 366.000 285.160,365.841 284.800,365.647 284.800 C 365.452 284.800,365.193 284.485,365.071 284.100 C 364.783 283.191,363.588 281.247,362.700 280.242 C 362.315 279.806,362.000 279.253,362.000 279.013 C 362.000 278.773,361.640 278.317,361.200 278.000 C 360.760 277.683,360.400 277.277,360.400 277.097 C 360.400 276.755,360.218 276.543,356.392 272.426 C 355.076 271.011,354.000 269.706,354.000 269.526 C 354.000 269.347,353.821 269.200,353.602 269.200 C 353.383 269.200,352.285 268.300,351.161 267.200 C 350.038 266.100,348.933 265.200,348.706 265.200 C 348.479 265.200,348.003 264.884,347.647 264.497 C 347.291 264.111,346.505 263.540,345.900 263.230 C 345.295 262.919,344.800 262.515,344.800 262.332 C 344.800 262.150,344.455 262.000,344.033 262.000 C 343.612 262.000,343.207 261.842,343.133 261.649 C 342.928 261.108,337.324 258.400,336.410 258.400 C 335.964 258.400,335.600 258.220,335.600 258.000 C 335.600 257.780,335.240 257.600,334.800 257.600 C 334.360 257.600,334.000 257.420,334.000 257.200 C 334.000 256.980,333.460 256.800,332.800 256.800 C 332.140 256.800,331.600 256.620,331.600 256.400 C 331.600 256.180,331.060 256.000,330.400 256.000 C 329.740 256.000,329.200 255.820,329.200 255.600 C 329.200 255.380,328.480 255.200,327.600 255.200 C 326.720 255.200,326.000 255.020,326.000 254.800 C 326.000 254.580,325.046 254.400,323.880 254.400 C 321.234 254.400,320.800 253.969,320.800 251.344 C 320.800 250.191,320.620 249.136,320.400 249.000 C 320.180 248.864,320.000 247.604,320.000 246.200 C 320.000 244.796,319.820 243.536,319.600 243.400 C 319.380 243.264,319.200 242.173,319.200 240.976 C 319.200 239.779,319.020 238.800,318.800 238.800 C 318.580 238.800,318.400 238.080,318.400 237.200 C 318.400 236.320,318.220 235.600,318.000 235.600 C 317.780 235.600,317.600 234.880,317.600 234.000 C 317.600 233.120,317.420 232.400,317.200 232.400 C 316.980 232.400,316.800 231.781,316.800 231.024 C 316.800 230.267,316.620 229.536,316.400 229.400 C 316.180 229.264,316.000 228.724,316.000 228.200 C 316.000 227.676,315.820 227.136,315.600 227.000 C 315.096 226.688,315.072 225.200,315.571 225.200 C 315.776 225.200,316.181 224.969,316.471 224.687 C 316.762 224.405,317.630 223.737,318.400 223.202 C 319.170 222.668,320.277 221.729,320.860 221.115 C 321.444 220.502,322.041 220.000,322.188 220.000 C 322.590 220.000,330.000 212.461,330.000 212.051 C 330.000 211.856,330.720 210.955,331.600 210.048 C 332.480 209.141,333.200 208.308,333.200 208.196 C 333.200 208.084,333.740 207.428,334.400 206.737 C 335.060 206.046,335.600 205.238,335.600 204.941 C 335.600 204.643,335.750 204.400,335.932 204.400 C 336.115 204.400,336.520 203.905,336.832 203.300 C 337.144 202.695,337.489 202.110,337.599 202.000 C 337.851 201.749,338.694 200.273,339.770 198.200 C 340.226 197.320,340.718 196.510,340.863 196.399 C 341.008 196.289,341.253 195.524,341.408 194.699 C 341.562 193.875,341.849 193.200,342.045 193.200 C 342.240 193.200,342.400 192.840,342.400 192.400 C 342.400 191.960,342.580 191.600,342.800 191.600 C 343.020 191.600,343.200 191.240,343.200 190.800 C 343.200 190.360,343.380 190.000,343.600 190.000 C 343.820 190.000,344.000 189.550,344.000 189.000 C 344.000 188.450,344.180 188.000,344.400 188.000 C 344.620 188.000,344.800 187.460,344.800 186.800 C 344.800 186.140,344.980 185.600,345.200 185.600 C 345.420 185.600,345.600 185.060,345.600 184.400 C 345.600 183.740,345.780 183.200,346.000 183.200 C 346.220 183.200,346.400 182.660,346.400 182.000 C 346.400 181.340,346.580 180.800,346.800 180.800 C 347.020 180.800,347.200 180.080,347.200 179.200 C 347.200 178.320,347.380 177.600,347.600 177.600 C 347.820 177.600,348.000 176.801,348.000 175.824 C 348.000 174.847,348.180 173.936,348.400 173.800 C 348.620 173.664,348.800 172.584,348.800 171.400 C 348.800 170.216,348.980 169.136,349.200 169.000 C 349.449 168.846,349.600 164.996,349.600 158.776 C 349.600 152.392,349.456 148.800,349.200 148.800 C 348.974 148.800,348.800 147.667,348.800 146.200 C 348.800 144.733,348.626 143.600,348.400 143.600 C 348.180 143.600,348.000 142.801,348.000 141.824 C 348.000 140.847,347.820 139.936,347.600 139.800 C 347.380 139.664,347.200 138.944,347.200 138.200 C 347.200 137.456,347.020 136.736,346.800 136.600 C 346.580 136.464,346.400 135.823,346.400 135.176 C 346.400 134.529,346.220 134.000,346.000 134.000 C 345.780 134.000,345.600 133.460,345.600 132.800 C 345.600 132.140,345.420 131.600,345.200 131.600 C 344.980 131.600,344.800 131.161,344.800 130.624 C 344.800 130.087,344.620 129.536,344.400 129.400 C 344.180 129.264,344.000 128.803,344.000 128.376 C 344.000 127.949,343.820 127.600,343.600 127.600 C 343.380 127.600,343.200 127.150,343.200 126.600 C 343.200 126.050,343.020 125.600,342.800 125.600 C 342.580 125.600,342.400 125.240,342.400 124.800 C 342.400 124.360,342.220 124.000,342.000 124.000 C 341.780 124.000,341.600 123.693,341.600 123.318 C 341.600 122.461,338.750 116.800,338.319 116.800 C 338.143 116.800,338.000 116.440,338.000 116.000 C 338.000 115.560,337.820 115.200,337.600 115.200 C 337.380 115.200,337.200 114.964,337.200 114.675 C 337.200 114.387,336.840 113.764,336.400 113.292 C 335.960 112.820,335.600 112.246,335.600 112.017 C 335.600 111.788,335.420 111.600,335.200 111.600 C 334.980 111.600,334.800 111.370,334.800 111.088 C 334.800 110.807,334.440 110.317,334.000 110.000 C 333.560 109.683,333.200 109.269,333.200 109.080 C 333.200 108.892,332.480 108.046,331.600 107.200 C 330.720 106.354,330.000 105.480,330.000 105.256 C 330.000 104.525,319.065 94.000,318.305 94.000 C 318.119 94.000,317.569 93.628,317.083 93.174 C 316.597 92.719,315.615 92.069,314.900 91.728 C 314.185 91.387,313.600 90.949,313.600 90.754 C 313.600 90.559,313.280 90.400,312.888 90.400 C 312.497 90.400,311.917 90.040,311.600 89.600 C 311.283 89.160,310.703 88.800,310.312 88.800 C 309.920 88.800,309.600 88.654,309.600 88.475 C 309.600 88.296,308.970 87.902,308.200 87.600 C 307.430 87.298,306.800 86.904,306.800 86.725 C 306.800 86.546,306.440 86.400,306.000 86.400 C 305.560 86.400,305.200 86.220,305.200 86.000 C 305.200 85.780,304.840 85.600,304.400 85.600 C 303.960 85.600,303.600 85.420,303.600 85.200 C 303.600 84.980,303.240 84.800,302.800 84.800 C 302.360 84.800,302.000 84.620,302.000 84.400 C 302.000 84.180,301.640 84.000,301.200 84.000 C 300.760 84.000,300.400 83.820,300.400 83.600 C 300.400 83.380,299.961 83.200,299.424 83.200 C 298.887 83.200,298.336 83.020,298.200 82.800 C 298.064 82.580,297.603 82.400,297.176 82.400 C 296.749 82.400,296.400 82.220,296.400 82.000 C 296.400 81.780,295.860 81.600,295.200 81.600 C 294.540 81.600,294.000 81.420,294.000 81.200 C 294.000 80.980,293.471 80.800,292.824 80.800 C 292.177 80.800,291.536 80.620,291.400 80.400 C 291.264 80.180,290.634 80.000,290.000 80.000 C 289.366 80.000,288.736 79.820,288.600 79.600 C 288.464 79.380,287.654 79.200,286.800 79.200 C 285.946 79.200,285.136 79.020,285.000 78.800 C 284.864 78.580,283.899 78.400,282.856 78.400 C 281.813 78.400,280.789 78.232,280.580 78.026 C 280.371 77.820,278.400 77.553,276.200 77.432 C 274.000 77.311,270.667 77.108,268.793 76.980 C 266.920 76.851,265.241 76.894,265.062 77.073 M152.000 88.400 C 152.000 88.620,151.722 88.800,151.382 88.800 C 150.497 88.800,149.005 90.414,148.035 92.422 C 147.153 94.247,146.843 98.800,147.600 98.800 C 147.820 98.800,148.000 99.215,148.000 99.722 C 148.000 100.804,150.418 103.600,151.354 103.600 C 151.709 103.600,152.000 103.745,152.000 103.921 C 152.000 104.098,152.897 104.683,153.994 105.221 C 155.090 105.760,155.990 106.335,155.994 106.500 C 155.997 106.665,156.360 106.800,156.800 106.800 C 157.240 106.800,157.602 106.935,157.605 107.100 C 157.608 107.265,158.778 107.940,160.205 108.600 C 161.632 109.260,162.800 109.935,162.800 110.100 C 162.800 110.265,163.160 110.400,163.600 110.400 C 164.040 110.400,164.400 110.580,164.400 110.800 C 164.400 111.020,164.760 111.200,165.200 111.200 C 165.640 111.200,166.000 111.380,166.000 111.600 C 166.000 111.820,166.270 112.000,166.600 112.000 C 166.930 112.000,167.200 112.180,167.200 112.400 C 167.200 112.620,167.470 112.800,167.800 112.800 C 168.130 112.800,168.400 112.980,168.400 113.200 C 168.400 113.420,168.760 113.600,169.200 113.600 C 169.640 113.600,170.000 113.780,170.000 114.000 C 170.000 114.220,170.360 114.400,170.800 114.400 C 171.240 114.400,171.600 114.580,171.600 114.800 C 171.600 115.020,171.960 115.200,172.400 115.200 C 172.840 115.200,173.200 115.380,173.200 115.600 C 173.200 115.839,174.733 116.000,177.000 116.000 C 179.267 116.000,180.800 115.839,180.800 115.600 C 180.800 115.380,181.078 115.200,181.418 115.200 C 182.218 115.200,184.000 113.418,184.000 112.618 C 184.000 112.278,184.180 112.000,184.400 112.000 C 184.620 112.000,184.800 111.651,184.800 111.224 C 184.800 110.797,184.980 110.336,185.200 110.200 C 185.420 110.064,185.600 108.984,185.600 107.800 C 185.600 106.616,185.420 105.536,185.200 105.400 C 184.980 105.264,184.800 104.803,184.800 104.376 C 184.800 103.949,184.620 103.600,184.400 103.600 C 184.180 103.600,184.000 103.322,184.000 102.982 C 184.000 102.182,182.218 100.400,181.418 100.400 C 181.078 100.400,180.800 100.220,180.800 100.000 C 180.800 99.780,180.440 99.600,180.000 99.600 C 179.560 99.600,179.200 99.442,179.200 99.249 C 179.200 99.055,178.660 98.673,178.000 98.400 C 177.340 98.127,176.800 97.745,176.800 97.551 C 176.800 97.358,176.440 97.200,176.000 97.200 C 175.560 97.200,175.200 97.064,175.200 96.898 C 175.200 96.731,174.615 96.341,173.900 96.030 C 173.185 95.719,172.510 95.346,172.400 95.201 C 172.235 94.984,167.409 92.453,163.703 90.639 C 163.210 90.398,162.805 90.065,162.803 89.900 C 162.801 89.735,162.440 89.600,162.000 89.600 C 161.560 89.600,161.200 89.420,161.200 89.200 C 161.200 88.980,160.840 88.800,160.400 88.800 C 159.960 88.800,159.600 88.620,159.600 88.400 C 159.600 88.161,158.067 88.000,155.800 88.000 C 153.533 88.000,152.000 88.161,152.000 88.400 M277.694 93.977 C 278.632 94.185,280.390 94.552,281.600 94.794 C 284.790 95.431,287.801 96.269,290.200 97.187 C 300.453 101.110,308.037 105.974,315.200 113.222 C 317.600 115.650,322.800 122.094,322.800 122.640 C 322.800 122.770,323.139 123.354,323.553 123.938 C 334.586 139.492,336.676 164.791,328.514 184.000 C 327.308 186.839,323.742 193.637,323.272 193.994 C 323.122 194.107,322.730 194.684,322.400 195.275 C 321.295 197.256,315.473 204.047,313.023 206.214 C 307.771 210.858,307.427 211.056,306.914 209.720 C 306.167 207.773,300.690 199.271,297.436 195.008 C 293.791 190.231,293.455 189.855,287.400 183.785 C 281.806 178.176,280.983 177.422,277.600 174.810 C 276.610 174.046,275.710 173.311,275.600 173.177 C 275.238 172.735,268.148 168.074,265.073 166.256 C 260.901 163.789,253.307 160.124,249.200 158.596 C 248.210 158.227,247.040 157.774,246.600 157.589 C 246.160 157.404,245.080 157.036,244.200 156.771 C 243.320 156.506,242.240 156.159,241.800 156.000 C 240.901 155.675,238.980 155.115,236.600 154.484 C 235.144 154.098,233.860 153.830,228.400 152.775 C 223.617 151.851,219.935 151.515,212.300 151.307 L 204.000 151.081 204.000 149.724 C 204.000 146.903,205.686 140.273,207.794 134.800 C 214.033 118.610,227.859 104.777,244.600 97.977 C 245.781 97.498,249.937 96.177,252.000 95.626 C 252.990 95.362,254.353 94.978,255.028 94.773 C 255.704 94.568,256.874 94.387,257.628 94.372 C 258.383 94.356,259.360 94.189,259.800 94.000 C 260.896 93.529,275.583 93.510,277.694 93.977 M389.800 114.800 C 389.664 115.020,389.023 115.200,388.376 115.200 C 387.729 115.200,387.200 115.380,387.200 115.600 C 387.200 115.820,386.480 116.000,385.600 116.000 C 384.720 116.000,384.000 116.180,384.000 116.400 C 384.000 116.620,383.460 116.800,382.800 116.800 C 382.140 116.800,381.600 116.980,381.600 117.200 C 381.600 117.420,380.981 117.600,380.224 117.600 C 379.467 117.600,378.736 117.780,378.600 118.000 C 378.464 118.220,377.924 118.400,377.400 118.400 C 376.876 118.400,376.336 118.580,376.200 118.800 C 376.064 119.020,375.333 119.200,374.576 119.200 C 373.819 119.200,373.200 119.380,373.200 119.600 C 373.200 119.820,372.660 120.000,372.000 120.000 C 371.340 120.000,370.800 120.180,370.800 120.400 C 370.800 120.620,370.080 120.800,369.200 120.800 C 368.320 120.800,367.600 120.980,367.600 121.200 C 367.600 121.420,367.060 121.600,366.400 121.600 C 365.740 121.600,365.200 121.780,365.200 122.000 C 365.200 122.220,364.922 122.400,364.582 122.400 C 362.114 122.400,358.792 131.359,360.800 132.600 C 361.020 132.736,361.200 133.161,361.200 133.545 C 361.200 134.455,363.719 137.200,364.554 137.200 C 364.909 137.200,365.200 137.380,365.200 137.600 C 365.200 137.820,365.729 138.000,366.376 138.000 C 367.023 138.000,367.664 138.180,367.800 138.400 C 367.936 138.620,368.566 138.800,369.200 138.800 C 369.834 138.800,370.464 138.620,370.600 138.400 C 370.736 138.180,371.467 138.000,372.224 138.000 C 372.981 138.000,373.600 137.840,373.600 137.644 C 373.600 137.448,374.230 137.178,375.000 137.044 C 375.770 136.910,377.030 136.690,377.800 136.556 C 378.570 136.422,379.200 136.152,379.200 135.956 C 379.200 135.760,379.819 135.600,380.576 135.600 C 381.333 135.600,382.064 135.420,382.200 135.200 C 382.336 134.980,382.977 134.800,383.624 134.800 C 384.271 134.800,384.800 134.620,384.800 134.400 C 384.800 134.180,385.329 134.000,385.976 134.000 C 386.623 134.000,387.264 133.820,387.400 133.600 C 387.536 133.380,388.089 133.200,388.629 133.200 C 389.169 133.200,389.923 133.042,390.305 132.849 C 391.472 132.260,393.808 131.600,394.728 131.600 C 395.208 131.600,395.600 131.420,395.600 131.200 C 395.600 130.980,395.876 130.800,396.213 130.800 C 396.551 130.800,397.487 130.140,398.293 129.333 C 401.304 126.323,400.344 116.000,397.053 116.000 C 396.694 116.000,396.400 115.820,396.400 115.600 C 396.400 115.380,396.051 115.200,395.624 115.200 C 395.197 115.200,394.736 115.020,394.600 114.800 C 394.464 114.580,393.384 114.400,392.200 114.400 C 391.016 114.400,389.936 114.580,389.800 114.800 M355.600 202.000 C 355.283 202.440,354.718 202.800,354.345 202.800 C 353.972 202.800,353.428 203.340,353.136 204.000 C 352.844 204.660,352.469 205.200,352.302 205.200 C 352.136 205.200,352.000 205.740,352.000 206.400 C 352.000 207.060,351.820 207.600,351.600 207.600 C 351.380 207.600,351.200 208.410,351.200 209.400 C 351.200 210.390,351.380 211.200,351.600 211.200 C 351.820 211.200,352.000 211.740,352.000 212.400 C 352.000 213.060,352.180 213.600,352.400 213.600 C 352.620 213.600,352.800 213.894,352.800 214.253 C 352.800 214.984,354.725 216.799,355.500 216.800 C 355.775 216.800,356.000 216.980,356.000 217.200 C 356.000 217.420,356.360 217.600,356.800 217.600 C 357.240 217.600,357.600 217.780,357.600 218.000 C 357.600 218.220,357.793 218.400,358.028 218.400 C 358.263 218.400,359.208 218.911,360.128 219.535 C 361.048 220.159,362.385 220.923,363.100 221.232 C 363.815 221.542,364.400 221.931,364.400 222.098 C 364.400 222.264,364.745 222.400,365.167 222.400 C 365.588 222.400,365.993 222.557,366.067 222.749 C 366.247 223.221,370.219 225.200,370.987 225.200 C 371.324 225.200,371.600 225.380,371.600 225.600 C 371.600 225.820,371.920 226.000,372.312 226.000 C 372.703 226.000,373.283 226.360,373.600 226.800 C 373.917 227.240,374.497 227.600,374.888 227.600 C 375.280 227.600,375.601 227.735,375.603 227.900 C 375.605 228.065,376.091 228.425,376.683 228.700 C 377.976 229.301,384.800 229.385,384.800 228.800 C 384.800 228.580,385.076 228.400,385.413 228.400 C 386.197 228.400,388.800 225.815,388.800 225.037 C 388.800 224.713,388.980 224.336,389.200 224.200 C 391.335 222.881,388.023 213.600,385.418 213.600 C 385.078 213.600,384.800 213.442,384.800 213.249 C 384.800 213.055,384.260 212.673,383.600 212.400 C 382.940 212.127,382.400 211.745,382.400 211.551 C 382.400 211.358,382.040 211.200,381.600 211.200 C 381.160 211.200,380.800 211.020,380.800 210.800 C 380.800 210.580,380.440 210.400,380.000 210.400 C 379.560 210.400,379.200 210.220,379.200 210.000 C 379.200 209.780,378.917 209.600,378.571 209.600 C 378.226 209.600,377.673 209.330,377.343 209.000 C 377.013 208.670,376.396 208.400,375.971 208.400 C 375.547 208.400,375.200 208.254,375.200 208.075 C 375.200 207.896,374.570 207.502,373.800 207.200 C 373.030 206.898,372.400 206.504,372.400 206.325 C 372.400 206.146,372.122 206.000,371.783 206.000 C 371.444 206.000,370.780 205.640,370.308 205.200 C 369.836 204.760,369.213 204.400,368.925 204.400 C 368.636 204.400,368.400 204.220,368.400 204.000 C 368.400 203.780,368.040 203.600,367.600 203.600 C 367.160 203.600,366.800 203.420,366.800 203.200 C 366.800 202.980,366.440 202.800,366.000 202.800 C 365.560 202.800,365.200 202.620,365.200 202.400 C 365.200 202.180,364.840 202.000,364.400 202.000 C 363.960 202.000,363.600 201.820,363.600 201.600 C 363.600 200.747,356.238 201.115,355.600 202.000 M266.600 357.888 C 264.478 358.267,263.976 358.472,262.851 359.419 C 261.455 360.593,260.400 362.506,260.400 363.861 C 260.400 364.378,260.020 365.180,259.556 365.644 C 258.875 366.325,258.793 366.654,259.131 367.344 C 259.361 367.815,259.669 368.622,259.814 369.138 C 260.199 370.504,263.126 373.200,264.225 373.200 C 264.735 373.200,265.264 373.380,265.400 373.600 C 265.536 373.820,266.526 374.000,267.600 374.000 C 268.674 374.000,269.664 373.820,269.800 373.600 C 269.936 373.380,270.443 373.200,270.926 373.200 C 272.050 373.200,275.200 370.253,275.200 369.201 C 275.200 368.760,275.380 368.400,275.600 368.400 C 276.188 368.400,276.060 366.355,275.400 365.200 C 275.086 364.650,274.822 363.792,274.814 363.294 C 274.766 360.232,270.223 357.242,266.600 357.888 " stroke="none" fill="#040505" fill-rule="evenodd"></path><path id="path2" d="M259.800 94.419 C 243.829 97.382,233.317 102.580,223.138 112.549 C 216.887 118.671,208.000 132.213,208.000 135.617 C 208.000 135.960,207.851 136.411,207.670 136.620 C 206.770 137.654,203.809 150.075,204.336 150.602 C 204.444 150.711,207.484 150.800,211.090 150.800 C 214.696 150.800,218.941 150.978,220.523 151.195 C 222.106 151.413,224.840 151.790,226.600 152.034 C 253.524 155.766,280.305 171.839,297.860 194.800 C 301.302 199.302,305.646 206.049,306.841 208.747 C 307.516 210.272,307.667 210.283,309.303 208.921 C 320.187 199.867,329.040 185.642,331.535 173.200 C 331.778 171.990,332.198 170.010,332.469 168.800 C 332.768 167.467,332.963 163.527,332.963 158.800 C 332.963 154.073,332.768 150.133,332.469 148.800 C 332.198 147.590,331.778 145.610,331.535 144.400 C 326.716 120.363,306.468 100.558,281.200 95.166 C 276.522 94.168,263.589 93.716,259.800 94.419 " stroke="none" fill="#faca6b" fill-rule="evenodd"></path><path id="path3" d="M200.000 167.062 C 195.833 167.344,187.595 168.933,182.400 170.455 C 181.630 170.681,180.503 170.962,179.895 171.079 C 179.287 171.196,178.680 171.471,178.545 171.689 C 178.402 171.921,178.612 171.998,179.050 171.875 C 179.462 171.759,181.060 171.298,182.600 170.850 C 189.399 168.873,193.048 168.212,200.600 167.592 C 203.240 167.375,205.850 167.135,206.400 167.059 C 207.619 166.889,202.508 166.892,200.000 167.062 M212.200 166.992 C 212.420 167.099,214.850 167.364,217.600 167.582 C 223.982 168.086,226.834 168.544,232.000 169.894 C 236.271 171.011,237.308 171.226,237.500 171.033 C 237.607 170.926,237.178 170.726,236.547 170.587 C 235.916 170.448,234.950 170.187,234.400 170.006 C 233.181 169.604,230.545 169.003,227.600 168.456 C 226.390 168.231,224.410 167.861,223.200 167.634 C 220.895 167.203,211.507 166.654,212.200 166.992 M239.000 171.783 C 240.751 172.539,242.247 172.949,241.893 172.576 C 241.532 172.196,238.782 171.200,238.200 171.239 C 237.980 171.253,238.340 171.498,239.000 171.783 M176.400 172.400 C 175.867 172.745,175.867 172.788,176.400 172.788 C 176.730 172.788,177.270 172.613,177.600 172.400 C 178.133 172.055,178.133 172.012,177.600 172.012 C 177.270 172.012,176.730 172.187,176.400 172.400 M162.661 178.646 C 161.594 179.201,160.808 179.742,160.914 179.847 C 161.111 180.044,163.900 178.611,164.580 177.962 C 165.160 177.409,164.775 177.546,162.661 178.646 M253.603 177.890 C 253.607 178.255,255.665 179.269,255.908 179.025 C 256.000 178.934,255.518 178.571,254.837 178.219 C 254.157 177.867,253.601 177.719,253.603 177.890 M256.400 179.311 C 256.400 179.514,260.687 182.400,260.989 182.400 C 261.100 182.400,261.508 182.654,261.895 182.964 C 264.990 185.441,271.247 189.946,270.637 189.259 C 269.693 188.194,264.552 184.271,261.600 182.362 C 258.297 180.227,256.400 179.114,256.400 179.311 M156.195 182.707 C 151.120 186.120,150.028 186.929,150.013 187.292 C 150.006 187.452,151.979 186.159,154.398 184.419 C 156.817 182.679,159.157 181.141,159.598 181.001 C 160.039 180.861,160.400 180.578,160.400 180.373 C 160.400 179.854,160.621 179.731,156.195 182.707 M147.166 189.635 L 145.000 191.672 147.200 189.941 C 148.410 188.990,149.475 188.163,149.567 188.105 C 149.658 188.047,149.643 187.910,149.532 187.799 C 149.422 187.689,148.357 188.515,147.166 189.635 M271.600 190.088 C 271.600 190.223,273.554 192.283,275.942 194.667 C 280.470 199.185,284.981 204.504,287.012 207.718 C 287.665 208.752,288.351 209.599,288.535 209.599 C 289.502 209.601,280.684 198.621,276.168 194.200 C 273.075 191.171,271.600 189.844,271.600 190.088 M142.591 193.609 C 141.512 194.704,140.763 195.600,140.926 195.600 C 141.330 195.600,144.918 191.984,144.714 191.781 C 144.625 191.692,143.669 192.514,142.591 193.609 M137.149 199.595 C 133.701 203.446,126.408 213.733,129.063 211.000 C 129.491 210.560,129.944 209.929,130.070 209.597 C 130.405 208.720,135.346 202.209,137.886 199.300 C 139.086 197.925,139.974 196.800,139.859 196.800 C 139.745 196.800,138.525 198.058,137.149 199.595 M288.822 210.200 C 288.827 210.729,289.942 212.191,290.169 211.965 C 290.266 211.868,290.002 211.341,289.582 210.794 C 289.161 210.247,288.820 209.980,288.822 210.200 M290.408 212.488 C 290.398 212.847,291.948 215.667,292.438 216.180 C 292.637 216.389,292.800 216.433,292.800 216.279 C 292.800 215.899,290.417 212.123,290.408 212.488 M128.400 214.000 C 128.950 214.430,129.537 214.786,129.704 214.791 C 130.062 214.802,133.043 216.860,137.078 219.882 C 142.412 223.877,152.054 233.708,153.935 237.070 C 154.158 237.468,154.439 237.694,154.560 237.573 C 155.203 236.931,145.513 226.250,140.800 222.405 C 139.590 221.419,138.510 220.518,138.400 220.404 C 137.803 219.788,133.422 216.644,130.930 215.043 C 128.010 213.168,126.585 212.580,128.400 214.000 M76.800 218.779 C 74.093 219.104,70.235 219.792,69.200 220.135 C 68.870 220.244,68.084 220.447,67.453 220.586 C 66.822 220.725,66.400 220.933,66.514 221.048 C 66.629 221.163,67.866 220.992,69.262 220.668 C 70.658 220.345,72.880 219.837,74.200 219.540 C 75.809 219.178,79.433 219.000,85.200 219.000 C 93.657 219.000,95.035 219.140,101.538 220.662 C 102.934 220.989,104.171 221.163,104.286 221.048 C 104.400 220.933,103.978 220.727,103.347 220.591 C 102.716 220.454,101.300 220.151,100.200 219.916 C 99.100 219.681,97.570 219.328,96.800 219.130 C 94.921 218.648,80.063 218.387,76.800 218.779 M293.600 218.539 C 293.600 218.966,294.914 221.219,295.071 221.062 C 295.277 220.856,294.095 218.400,293.790 218.400 C 293.685 218.400,293.600 218.462,293.600 218.539 M62.804 221.918 C 61.816 222.258,61.193 222.598,61.418 222.673 C 61.644 222.748,62.812 222.461,64.014 222.034 C 65.216 221.607,65.840 221.268,65.400 221.280 C 64.960 221.291,63.792 221.579,62.804 221.918 M105.400 221.600 C 106.501 222.073,106.892 222.073,106.600 221.600 C 106.464 221.380,105.958 221.213,105.476 221.228 C 104.631 221.255,104.629 221.269,105.400 221.600 M56.800 224.400 C 56.030 224.822,55.513 225.174,55.651 225.183 C 56.065 225.211,58.800 224.005,58.800 223.795 C 58.800 223.446,58.225 223.620,56.800 224.400 M115.603 225.490 C 115.607 225.855,117.665 226.869,117.908 226.625 C 118.000 226.534,117.518 226.171,116.837 225.819 C 116.157 225.467,115.601 225.319,115.603 225.490 M50.072 227.843 C 49.122 228.412,48.437 228.970,48.549 229.083 C 48.662 229.195,49.287 228.908,49.939 228.444 C 50.590 227.980,51.321 227.600,51.562 227.600 C 51.803 227.600,52.000 227.420,52.000 227.200 C 52.000 226.673,52.057 226.654,50.072 227.843 M297.745 227.755 C 300.547 235.523,301.968 240.977,302.731 246.879 C 302.893 248.133,303.172 249.303,303.350 249.479 C 303.992 250.113,302.631 242.378,301.189 237.200 C 299.787 232.163,299.697 231.868,298.901 229.699 C 298.478 228.543,297.983 227.463,297.802 227.299 C 297.621 227.134,297.595 227.340,297.745 227.755 M121.200 228.506 C 121.200 228.590,122.505 229.545,124.100 230.629 C 125.695 231.713,127.530 233.050,128.178 233.600 C 130.874 235.888,133.091 237.912,134.890 239.727 C 135.941 240.786,136.800 241.493,136.800 241.297 C 136.800 240.881,132.842 237.055,129.400 234.144 C 126.718 231.876,121.200 228.082,121.200 228.506 M46.794 230.018 C 46.247 230.439,45.980 230.780,46.200 230.778 C 46.729 230.773,48.191 229.658,47.965 229.431 C 47.868 229.334,47.341 229.598,46.794 230.018 M42.800 232.825 C 37.281 237.107,27.150 248.000,28.687 248.000 C 28.874 248.000,29.325 247.496,29.689 246.881 C 31.663 243.538,41.138 234.063,44.481 232.089 C 45.096 231.725,45.600 231.286,45.600 231.114 C 45.600 230.650,45.612 230.643,42.800 232.825 M155.437 239.000 C 155.797 239.550,156.157 240.000,156.237 240.000 C 156.317 240.000,156.178 239.550,155.927 239.000 C 155.677 238.450,155.316 238.000,155.127 238.000 C 154.937 238.000,155.076 238.450,155.437 239.000 M157.037 241.400 C 157.397 241.950,157.757 242.400,157.837 242.400 C 157.917 242.400,157.778 241.950,157.527 241.400 C 157.277 240.850,156.916 240.400,156.727 240.400 C 156.537 240.400,156.676 240.850,157.037 241.400 M137.200 241.847 C 137.200 242.307,139.776 245.574,140.149 245.588 C 140.515 245.601,140.149 245.063,138.310 242.886 C 137.699 242.163,137.200 241.696,137.200 241.847 M160.186 246.700 C 160.535 247.415,160.906 248.000,161.010 248.000 C 161.408 248.000,161.152 247.363,160.367 246.400 L 159.552 245.400 160.186 246.700 M141.268 247.352 C 141.781 248.143,142.347 248.792,142.527 248.795 C 142.899 248.801,141.382 246.559,140.749 246.169 C 140.522 246.028,140.755 246.560,141.268 247.352 M162.017 250.300 C 162.026 250.465,162.378 251.230,162.800 252.000 C 163.721 253.682,163.865 253.055,162.971 251.261 C 162.367 250.052,161.981 249.663,162.017 250.300 M303.674 252.100 L 303.600 254.400 302.024 254.400 C 301.157 254.400,300.333 254.584,300.194 254.809 C 299.909 255.271,303.179 254.897,303.723 254.406 C 303.900 254.246,303.979 253.144,303.897 251.957 L 303.748 249.800 303.674 252.100 M143.618 250.600 C 143.618 250.820,143.970 251.450,144.400 252.000 C 144.830 252.550,145.182 252.820,145.182 252.600 C 145.182 252.380,144.830 251.750,144.400 251.200 C 143.970 250.650,143.618 250.380,143.618 250.600 M24.986 253.300 L 24.352 254.600 25.167 253.600 C 25.952 252.637,26.208 252.000,25.810 252.000 C 25.706 252.000,25.335 252.585,24.986 253.300 M164.448 255.700 C 165.980 259.551,165.946 259.484,165.975 258.695 C 165.999 258.013,165.855 257.625,164.862 255.705 C 164.608 255.213,164.400 254.538,164.400 254.205 C 164.400 253.872,164.223 253.600,164.006 253.600 C 163.789 253.600,163.988 254.545,164.448 255.700 M146.125 254.900 C 146.241 255.175,147.250 257.423,148.368 259.895 C 149.486 262.367,150.400 264.600,150.400 264.857 C 150.400 268.642,158.225 271.499,162.307 269.204 C 165.477 267.422,168.258 260.948,166.357 259.774 C 166.048 259.583,166.000 259.889,166.198 260.790 C 167.157 265.155,163.166 269.627,158.290 269.653 C 154.121 269.674,152.139 267.958,149.916 262.400 C 148.432 258.693,146.407 254.400,146.141 254.400 C 146.016 254.400,146.009 254.625,146.125 254.900 M296.990 255.616 C 296.821 255.889,297.123 255.938,297.866 255.760 C 299.399 255.392,299.544 255.200,298.290 255.200 C 297.717 255.200,297.132 255.387,296.990 255.616 M294.190 256.416 C 294.021 256.689,294.323 256.738,295.066 256.560 C 296.599 256.192,296.744 256.000,295.490 256.000 C 294.917 256.000,294.332 256.187,294.190 256.416 M21.823 259.406 C 20.960 261.472,21.074 261.706,22.047 259.862 C 22.493 259.016,22.765 258.232,22.652 258.119 C 22.539 258.006,22.166 258.585,21.823 259.406 M20.225 263.491 C 19.846 264.541,19.375 265.850,19.179 266.400 C 17.921 269.935,16.400 277.507,17.170 276.400 C 17.400 276.070,17.591 275.273,17.594 274.628 C 17.597 273.984,17.768 272.904,17.973 272.228 C 18.178 271.553,18.561 270.190,18.825 269.200 C 19.088 268.210,19.730 266.155,20.252 264.633 C 20.773 263.111,21.135 261.802,21.057 261.724 C 20.979 261.646,20.605 262.441,20.225 263.491 M278.991 264.051 C 278.006 264.959,277.200 265.891,277.200 266.123 C 277.200 266.355,277.844 265.792,278.631 264.872 C 279.418 263.952,280.318 263.200,280.631 263.200 C 280.944 263.200,281.200 263.020,281.200 262.800 C 281.200 262.135,280.861 262.328,278.991 264.051 M276.667 267.067 C 276.520 267.213,276.411 267.708,276.425 268.167 C 276.449 268.933,276.482 268.923,276.834 268.042 C 277.226 267.063,277.144 266.589,276.667 267.067 M307.200 270.232 C 304.099 270.589,299.827 271.560,300.111 271.844 C 300.205 271.939,301.524 271.716,303.041 271.349 C 305.999 270.635,315.910 270.360,320.000 270.879 C 321.691 271.094,321.923 271.068,321.000 270.767 C 319.730 270.353,309.570 269.959,307.200 270.232 M323.000 271.600 C 324.196 272.114,325.195 272.114,324.400 271.600 C 324.070 271.387,323.440 271.222,323.000 271.234 L 322.200 271.256 323.000 271.600 M276.428 272.276 C 276.413 272.758,276.580 273.264,276.800 273.400 C 277.273 273.692,277.273 273.301,276.800 272.200 C 276.469 271.429,276.455 271.431,276.428 272.276 M298.000 272.400 C 297.467 272.745,297.467 272.788,298.000 272.788 C 298.330 272.788,298.870 272.613,299.200 272.400 C 299.733 272.055,299.733 272.012,299.200 272.012 C 298.870 272.012,298.330 272.187,298.000 272.400 M277.200 274.250 C 277.200 274.470,277.778 275.179,278.485 275.825 C 279.191 276.471,279.506 276.642,279.185 276.205 C 278.105 274.737,277.200 273.846,277.200 274.250 M333.200 275.337 C 333.200 275.577,336.341 277.602,336.691 277.587 C 336.861 277.580,336.640 277.297,336.200 276.957 C 335.244 276.218,333.200 275.115,333.200 275.337 M288.200 277.049 C 286.615 277.830,285.728 278.005,283.923 277.893 C 282.671 277.816,281.737 277.898,281.847 278.076 C 282.277 278.772,286.749 278.415,288.288 277.562 C 291.223 275.936,291.164 275.588,288.200 277.049 M16.276 280.542 C 16.097 282.491,16.039 284.172,16.146 284.279 C 16.477 284.610,16.863 281.106,16.728 279.000 C 16.619 277.298,16.552 277.528,16.276 280.542 M337.205 277.880 C 337.208 278.056,337.838 278.607,338.605 279.104 C 340.403 280.268,340.400 280.000,338.600 278.627 C 337.830 278.040,337.202 277.703,337.205 277.880 M340.400 280.121 C 340.400 280.524,344.817 284.917,345.019 284.715 C 345.107 284.627,344.104 283.490,342.790 282.190 C 341.475 280.889,340.400 279.958,340.400 280.121 M346.430 286.838 C 349.102 290.212,352.800 296.829,352.800 298.238 C 352.800 298.521,352.999 298.876,353.243 299.026 C 353.899 299.432,353.356 297.915,351.516 294.200 C 349.884 290.905,346.058 285.218,345.466 285.207 C 345.283 285.203,345.716 285.937,346.430 286.838 M15.701 287.800 C 15.705 288.680,15.787 288.993,15.883 288.495 C 15.979 287.998,15.975 287.278,15.875 286.895 C 15.775 286.513,15.696 286.920,15.701 287.800 M16.266 294.600 C 16.392 296.580,16.565 298.275,16.648 298.367 C 16.954 298.702,16.710 292.970,16.377 292.000 C 16.168 291.388,16.124 292.395,16.266 294.600 M17.044 300.400 C 17.184 301.390,17.562 303.190,17.884 304.400 C 18.206 305.610,18.612 307.140,18.787 307.800 C 19.624 310.958,21.550 315.783,21.853 315.480 C 21.966 315.367,21.809 314.763,21.503 314.137 C 21.037 313.184,19.736 309.219,17.971 303.372 C 17.767 302.696,17.597 301.616,17.594 300.972 C 17.591 300.327,17.408 299.530,17.188 299.200 C 16.908 298.780,16.865 299.140,17.044 300.400 M353.634 300.200 C 353.622 300.640,353.787 301.270,354.000 301.600 C 354.514 302.395,354.514 301.396,354.000 300.200 L 353.656 299.400 353.634 300.200 M354.400 303.310 C 354.400 303.883,354.587 304.468,354.816 304.610 C 355.089 304.779,355.138 304.477,354.960 303.734 C 354.592 302.201,354.400 302.056,354.400 303.310 M355.297 307.400 C 355.296 308.500,355.432 309.940,355.600 310.600 L 355.905 311.800 355.923 310.400 C 355.933 309.630,355.797 308.190,355.620 307.200 L 355.300 305.400 355.297 307.400 M355.393 317.714 C 355.244 318.913,355.198 320.233,355.292 320.647 C 355.387 321.061,355.606 320.177,355.780 318.682 C 355.955 317.187,356.000 315.867,355.882 315.748 C 355.763 315.630,355.543 316.514,355.393 317.714 M22.011 316.054 C 21.983 316.724,24.773 322.161,25.018 321.915 C 25.107 321.826,24.470 320.414,23.601 318.776 C 22.732 317.139,22.016 315.914,22.011 316.054 M354.667 322.667 C 354.520 322.813,354.415 323.398,354.434 323.967 C 354.468 324.981,354.475 324.979,354.821 323.820 C 355.185 322.603,355.131 322.202,354.667 322.667 M26.645 325.012 C 27.010 325.569,27.386 325.947,27.482 325.851 C 27.719 325.614,26.684 324.000,26.295 324.000 C 26.122 324.000,26.280 324.456,26.645 325.012 M353.873 325.753 C 353.723 326.145,353.611 326.766,353.625 327.133 C 353.642 327.575,353.781 327.474,354.037 326.834 C 354.249 326.303,354.361 325.682,354.285 325.454 C 354.209 325.227,354.024 325.361,353.873 325.753 M28.875 328.261 C 30.330 330.305,35.970 336.716,37.949 338.575 C 39.818 340.330,39.459 339.441,37.500 337.461 C 33.395 333.314,30.075 329.473,28.889 327.500 C 28.525 326.895,28.075 326.400,27.889 326.400 C 27.703 326.400,28.146 327.238,28.875 328.261 M351.364 332.275 C 349.899 335.315,347.219 339.412,345.170 341.739 C 343.501 343.635,343.316 344.338,344.918 342.696 C 347.477 340.073,353.265 330.732,352.689 330.155 C 352.576 330.042,351.979 330.996,351.364 332.275 M42.000 341.930 C 42.989 342.812,43.866 343.468,43.947 343.386 C 44.159 343.174,43.219 342.318,41.600 341.249 C 40.425 340.474,40.489 340.583,42.000 341.930 M45.194 344.382 C 45.741 344.802,46.268 345.066,46.365 344.969 C 46.591 344.742,45.129 343.627,44.600 343.622 C 44.380 343.620,44.647 343.961,45.194 344.382 M340.930 345.912 C 337.926 348.652,334.733 350.779,330.798 352.659 C 329.180 353.432,328.312 353.767,325.843 354.572 C 325.426 354.708,325.179 354.912,325.293 355.026 C 325.900 355.633,333.886 351.795,337.682 349.072 C 340.850 346.799,344.012 343.993,343.383 344.012 C 343.173 344.018,342.069 344.873,340.930 345.912 M46.800 345.344 C 46.800 345.651,50.511 347.891,54.022 349.704 C 57.657 351.582,61.377 353.010,60.987 352.379 C 60.858 352.171,60.581 352.000,60.372 352.000 C 59.551 352.000,51.559 348.141,49.600 346.799 C 48.289 345.900,46.800 345.127,46.800 345.344 M62.600 353.351 C 64.467 354.158,66.108 354.499,65.810 354.016 C 65.668 353.787,65.124 353.600,64.600 353.600 C 64.076 353.600,63.536 353.420,63.400 353.200 C 63.264 352.980,62.758 352.807,62.276 352.816 C 61.531 352.829,61.580 352.909,62.600 353.351 M67.400 354.800 C 68.511 355.278,69.295 355.278,69.000 354.800 C 68.864 354.580,68.268 354.413,67.676 354.428 C 66.715 354.453,66.686 354.493,67.400 354.800 M69.633 355.347 C 69.725 355.428,70.520 355.614,71.400 355.762 C 72.546 355.954,72.830 355.914,72.400 355.621 C 71.860 355.253,69.232 354.993,69.633 355.347 M322.590 355.616 C 322.421 355.889,322.723 355.938,323.466 355.760 C 324.999 355.392,325.144 355.200,323.890 355.200 C 323.317 355.200,322.732 355.387,322.590 355.616 M73.633 356.146 C 73.725 356.226,74.790 356.410,76.000 356.555 C 77.533 356.739,78.018 356.697,77.600 356.416 C 77.062 356.054,73.230 355.793,73.633 356.146 M318.194 356.409 C 318.027 356.679,318.531 356.728,319.671 356.554 C 321.956 356.203,322.110 356.000,320.090 356.000 C 319.187 356.000,318.333 356.184,318.194 356.409 M103.200 357.096 C 161.440 357.366,238.704 357.369,238.538 357.100 C 238.436 356.935,202.948 356.843,159.676 356.897 C 116.404 356.950,90.990 357.040,103.200 357.096 M265.462 357.100 C 265.360 357.265,266.322 357.400,267.600 357.400 C 268.878 357.400,269.840 357.265,269.738 357.100 C 269.636 356.935,268.674 356.800,267.600 356.800 C 266.526 356.800,265.564 356.935,265.462 357.100 M296.661 357.100 C 296.559 357.265,299.653 357.353,303.537 357.295 C 315.021 357.124,316.037 356.959,306.124 356.877 C 301.022 356.835,296.763 356.935,296.661 357.100 M240.176 358.213 C 240.604 358.536,241.133 358.800,241.353 358.800 C 241.573 358.800,241.404 358.536,240.976 358.213 C 240.549 357.890,240.020 357.625,239.800 357.625 C 239.580 357.625,239.749 357.890,240.176 358.213 M263.029 358.209 C 262.605 358.529,262.338 358.871,262.435 358.969 C 262.532 359.066,263.059 358.802,263.606 358.382 C 264.153 357.961,264.420 357.620,264.200 357.622 C 263.980 357.624,263.453 357.888,263.029 358.209 M271.376 358.213 C 271.804 358.536,272.333 358.800,272.553 358.800 C 272.773 358.800,272.604 358.536,272.176 358.213 C 271.749 357.890,271.220 357.625,271.000 357.625 C 270.780 357.625,270.949 357.890,271.376 358.213 M293.478 358.954 C 292.665 359.699,292.000 360.454,292.000 360.632 C 292.000 360.811,292.585 360.405,293.300 359.731 C 294.015 359.057,294.960 358.307,295.400 358.065 C 295.992 357.739,296.038 357.621,295.578 357.612 C 295.236 357.605,294.291 358.209,293.478 358.954 M243.111 361.174 C 243.482 361.820,243.864 362.270,243.960 362.174 C 244.205 361.928,243.133 360.000,242.751 360.000 C 242.578 360.000,242.740 360.528,243.111 361.174 M260.400 360.999 C 259.637 362.426,260.080 362.584,260.889 361.174 C 261.260 360.528,261.422 360.000,261.249 360.000 C 261.076 360.000,260.694 360.450,260.400 360.999 M244.028 363.276 C 244.096 364.544,244.742 365.454,244.772 364.324 C 244.787 363.732,244.620 363.136,244.400 363.000 C 244.180 362.864,244.013 362.988,244.028 363.276 M275.228 363.076 C 275.318 364.115,275.944 364.996,275.972 364.124 C 275.987 363.642,275.820 363.136,275.600 363.000 C 275.380 362.864,275.213 362.898,275.228 363.076 M259.206 364.300 C 259.211 365.157,259.298 365.268,259.600 364.800 C 260.106 364.017,260.106 363.200,259.600 363.200 C 259.380 363.200,259.203 363.695,259.206 364.300 M290.692 363.442 C 290.531 363.602,290.405 364.108,290.412 364.567 C 290.423 365.336,290.456 365.345,290.840 364.685 C 291.288 363.916,291.173 362.960,290.692 363.442 " stroke="none" fill="#84a5d2" fill-rule="evenodd"></path><path id="path4" d="M259.846 93.952 C 259.431 94.115,262.302 94.169,266.226 94.072 C 288.898 93.510,308.360 103.154,321.396 121.410 C 325.085 126.576,329.459 135.679,330.616 140.600 C 330.772 141.260,330.976 141.591,331.071 141.335 C 331.378 140.507,328.114 131.722,326.356 128.645 C 326.119 128.230,325.561 127.240,325.116 126.445 C 324.670 125.650,323.967 124.522,323.553 123.938 C 323.139 123.354,322.800 122.770,322.800 122.640 C 322.800 122.094,317.600 115.650,315.200 113.222 C 308.037 105.974,300.453 101.110,290.200 97.187 C 287.801 96.269,284.790 95.431,281.600 94.794 C 280.390 94.552,278.632 94.185,277.694 93.977 C 275.704 93.537,260.956 93.516,259.846 93.952 M254.800 94.828 C 254.250 95.016,253.284 95.276,252.653 95.405 C 252.022 95.534,251.586 95.719,251.685 95.818 C 251.783 95.916,253.469 95.651,255.432 95.228 C 258.001 94.675,258.552 94.463,257.400 94.472 C 256.520 94.479,255.350 94.639,254.800 94.828 M247.313 96.969 C 244.951 97.797,243.158 98.820,245.134 98.212 C 248.174 97.276,251.284 96.062,250.600 96.078 C 250.160 96.088,248.681 96.489,247.313 96.969 M238.989 100.528 C 224.910 107.802,213.269 120.592,207.794 134.800 C 205.664 140.331,203.746 147.951,204.100 149.483 C 204.192 149.877,204.394 149.300,204.550 148.200 C 205.223 143.451,207.271 136.771,209.586 131.772 C 216.042 117.831,226.222 107.448,240.400 100.343 C 242.490 99.296,243.930 98.443,243.600 98.447 C 243.270 98.451,241.195 99.388,238.989 100.528 M331.376 143.000 C 331.642 145.212,332.374 148.907,332.588 149.121 C 333.013 149.546,332.717 147.333,331.983 144.600 C 331.570 143.060,331.297 142.340,331.376 143.000 M332.970 158.000 C 332.949 164.672,332.782 167.362,332.224 170.000 C 331.270 174.512,331.071 176.277,331.797 173.800 C 333.337 168.543,334.028 158.049,333.258 151.600 C 333.111 150.362,332.984 153.160,332.970 158.000 M203.999 150.900 C 204.000 151.065,206.385 151.201,209.300 151.202 C 212.215 151.204,216.130 151.319,218.000 151.458 C 219.939 151.603,221.259 151.561,221.072 151.361 C 220.670 150.931,203.998 150.481,203.999 150.900 M223.400 152.023 C 224.280 152.205,225.630 152.343,226.400 152.330 L 227.800 152.305 226.600 152.000 C 225.940 151.832,224.590 151.694,223.600 151.693 L 221.800 151.692 223.400 152.023 M228.600 152.800 C 229.040 152.989,229.940 153.138,230.600 153.132 C 231.770 153.121,231.775 153.112,230.800 152.800 C 229.333 152.330,227.506 152.330,228.600 152.800 M232.600 153.600 C 233.040 153.789,233.850 153.944,234.400 153.944 C 235.312 153.944,235.329 153.913,234.600 153.600 C 234.160 153.411,233.350 153.256,232.800 153.256 C 231.888 153.256,231.871 153.287,232.600 153.600 M236.600 154.347 C 237.978 154.948,240.232 155.601,240.828 155.572 C 241.143 155.556,240.764 155.309,239.986 155.022 C 238.284 154.395,235.385 153.817,236.600 154.347 M241.800 156.000 C 241.936 156.220,242.388 156.400,242.805 156.400 C 243.221 156.400,244.066 156.602,244.681 156.850 C 246.424 157.551,247.261 157.874,249.200 158.596 C 255.990 161.123,264.391 165.553,271.643 170.429 C 275.717 173.168,276.435 173.322,272.697 170.654 C 267.674 167.070,258.567 161.889,254.400 160.245 C 253.410 159.854,252.060 159.284,251.400 158.978 C 247.496 157.168,241.342 155.259,241.800 156.000 M198.600 166.811 C 197.720 166.975,199.610 167.015,202.800 166.900 C 205.990 166.786,208.675 166.626,208.767 166.546 C 209.073 166.278,200.224 166.509,198.600 166.811 M209.233 166.544 C 209.325 166.624,212.100 166.785,215.400 166.901 C 219.051 167.031,220.774 166.983,219.800 166.780 C 218.259 166.458,208.893 166.250,209.233 166.544 M192.800 167.600 C 191.895 167.890,191.933 167.920,193.200 167.920 C 193.970 167.920,195.050 167.776,195.600 167.600 C 196.505 167.310,196.467 167.280,195.200 167.280 C 194.430 167.280,193.350 167.424,192.800 167.600 M222.800 167.600 C 223.350 167.776,224.430 167.920,225.200 167.920 C 226.467 167.920,226.505 167.890,225.600 167.600 C 225.050 167.424,223.970 167.280,223.200 167.280 C 221.933 167.280,221.895 167.310,222.800 167.600 M188.800 168.400 L 187.800 168.720 188.800 168.720 C 189.350 168.720,190.250 168.576,190.800 168.400 L 191.800 168.080 190.800 168.080 C 190.250 168.080,189.350 168.224,188.800 168.400 M227.400 168.400 C 227.840 168.589,228.650 168.744,229.200 168.744 C 230.112 168.744,230.129 168.713,229.400 168.400 C 228.960 168.211,228.150 168.056,227.600 168.056 C 226.688 168.056,226.671 168.087,227.400 168.400 M182.400 169.976 C 176.305 171.792,170.021 174.228,166.600 176.102 C 166.160 176.343,164.900 177.021,163.800 177.608 C 155.539 182.020,149.837 186.250,142.261 193.586 C 133.408 202.158,125.598 213.418,127.900 214.290 C 128.936 214.682,132.570 217.086,136.200 219.779 C 146.673 227.549,155.597 238.289,161.402 250.109 C 162.674 252.700,163.792 254.742,163.886 254.647 C 164.106 254.427,159.904 245.951,158.821 244.430 C 158.369 243.795,158.000 243.159,158.000 243.016 C 158.000 242.760,155.171 238.483,154.177 237.238 C 145.999 226.986,136.185 218.066,129.052 214.403 C 127.272 213.489,127.347 213.094,130.094 208.912 C 134.473 202.245,142.382 193.299,147.536 189.186 C 148.491 188.424,149.751 187.382,150.336 186.871 C 155.324 182.515,168.910 174.972,176.400 172.400 C 177.170 172.136,178.160 171.778,178.600 171.605 C 179.040 171.433,180.210 171.066,181.200 170.792 C 182.190 170.517,183.540 170.141,184.200 169.958 C 186.986 169.182,187.794 168.863,187.000 168.854 C 186.560 168.848,184.490 169.354,182.400 169.976 M231.600 169.183 C 232.150 169.359,233.410 169.729,234.400 170.005 C 237.455 170.857,240.966 172.019,241.695 172.419 C 242.077 172.629,242.574 172.800,242.799 172.800 C 243.677 172.800,253.690 177.526,257.000 179.503 C 266.696 185.293,273.623 191.031,280.801 199.222 C 284.789 203.772,285.195 204.300,288.522 209.276 C 290.095 211.628,291.448 213.485,291.529 213.404 C 291.611 213.323,291.120 212.446,290.439 211.456 C 289.757 210.466,289.200 209.543,289.200 209.404 C 289.200 209.266,288.690 208.489,288.067 207.677 C 287.444 206.864,285.869 204.777,284.567 203.037 C 279.696 196.530,272.196 189.353,264.600 183.932 C 261.376 181.631,260.081 180.806,255.800 178.325 C 250.507 175.257,242.325 171.831,235.801 169.952 C 232.302 168.944,228.914 168.324,231.600 169.183 M275.609 173.053 C 275.613 173.244,276.288 173.878,277.109 174.461 C 279.962 176.492,281.833 178.186,287.400 183.776 C 293.458 189.859,293.794 190.236,297.436 195.008 C 300.690 199.271,306.167 207.773,306.914 209.720 C 307.279 210.670,308.003 210.568,309.400 209.369 C 310.060 208.803,311.557 207.514,312.728 206.505 C 315.783 203.871,323.169 195.035,322.704 194.571 C 322.590 194.457,321.635 195.586,320.582 197.082 C 318.497 200.044,308.725 210.000,307.903 210.000 C 307.624 210.000,307.142 209.415,306.832 208.700 C 306.523 207.985,305.799 206.680,305.223 205.800 C 304.647 204.920,303.949 203.750,303.673 203.200 C 301.756 199.390,293.611 189.178,288.019 183.573 C 282.659 178.201,275.588 172.207,275.609 173.053 M329.823 179.300 C 328.727 182.640,325.150 190.314,323.578 192.700 C 323.107 193.415,322.889 194.000,323.094 194.000 C 323.436 194.000,324.715 191.783,327.016 187.200 C 329.218 182.812,331.700 176.000,331.096 176.000 C 330.992 176.000,330.419 177.485,329.823 179.300 M294.288 219.300 C 295.731 222.215,297.091 225.050,297.310 225.600 C 298.193 227.823,298.365 228.276,299.027 230.109 C 299.406 231.159,299.801 231.932,299.906 231.827 C 300.216 231.517,297.255 224.121,295.091 219.800 C 293.990 217.600,292.888 215.396,292.644 214.903 C 292.400 214.410,292.079 214.005,291.931 214.003 C 291.783 214.001,292.844 216.385,294.288 219.300 M76.624 218.347 C 75.977 218.486,79.919 218.600,85.383 218.600 C 90.847 218.600,94.616 218.475,93.759 218.323 C 91.835 217.981,78.238 218.001,76.624 218.347 M68.200 219.977 C 62.604 221.416,58.781 222.859,54.001 225.335 C 51.910 226.418,49.796 227.506,49.303 227.752 C 48.810 227.998,48.405 228.335,48.403 228.500 C 48.401 228.665,48.164 228.800,47.875 228.800 C 47.587 228.800,46.991 229.136,46.550 229.546 C 46.110 229.956,45.341 230.511,44.841 230.778 C 43.831 231.319,43.237 231.799,38.757 235.697 C 34.368 239.516,27.676 247.378,25.937 250.758 C 25.642 251.331,25.296 251.890,25.167 252.000 C 22.976 253.873,16.320 272.341,16.446 276.200 C 16.478 277.176,16.556 277.065,16.861 275.600 C 21.434 253.646,33.739 236.660,52.400 226.541 C 57.474 223.789,64.457 221.194,70.000 220.001 C 73.894 219.162,74.772 218.885,73.600 218.863 C 73.050 218.853,70.620 219.354,68.200 219.977 M97.000 219.178 C 97.660 219.347,99.190 219.698,100.400 219.959 C 103.105 220.542,105.539 221.189,106.600 221.605 C 107.040 221.778,108.030 222.136,108.800 222.400 C 117.729 225.466,126.956 231.365,134.563 238.873 C 136.083 240.373,137.428 241.600,137.553 241.600 C 138.606 241.600,128.523 232.637,124.169 229.702 C 121.919 228.186,121.062 227.668,117.500 225.671 C 113.635 223.505,106.568 220.914,100.885 219.579 C 97.708 218.833,94.245 218.476,97.000 219.178 M300.153 233.200 C 300.676 235.800,302.175 240.874,302.305 240.484 C 302.479 239.963,300.851 233.663,300.320 232.800 C 300.053 232.366,300.007 232.476,300.153 233.200 M302.468 242.000 C 302.487 243.650,303.117 245.356,303.132 243.800 C 303.138 243.140,302.989 242.240,302.800 241.800 C 302.487 241.073,302.457 241.091,302.468 242.000 M138.436 243.100 C 142.753 247.917,147.106 255.250,150.012 262.600 C 151.469 266.287,152.338 267.530,154.236 268.642 C 160.118 272.089,167.686 266.730,166.059 260.270 C 165.558 258.279,164.071 254.762,164.028 255.467 C 164.013 255.724,164.360 256.774,164.800 257.800 C 167.641 264.428,162.867 270.674,156.244 268.992 C 153.501 268.295,152.323 266.909,150.185 261.861 C 146.767 253.789,139.388 242.000,137.754 242.000 C 137.587 242.000,137.894 242.495,138.436 243.100 M303.287 246.400 C 303.291 247.170,303.432 248.340,303.600 249.000 C 303.890 250.142,303.906 250.122,303.913 248.600 C 303.917 247.720,303.776 246.550,303.600 246.000 C 303.311 245.098,303.280 245.137,303.287 246.400 M303.963 252.900 C 303.870 253.945,303.936 254.800,304.110 254.800 C 304.651 254.800,304.786 253.856,304.452 252.400 L 304.131 251.000 303.963 252.900 M298.800 255.516 C 297.178 255.918,296.531 256.215,297.079 256.305 C 297.563 256.385,298.316 256.259,298.753 256.025 C 299.190 255.791,300.054 255.587,300.674 255.572 C 301.293 255.556,302.160 255.389,302.600 255.200 C 303.996 254.600,301.733 254.788,298.800 255.516 M292.000 257.560 C 288.309 258.938,282.001 261.999,281.200 262.800 C 281.090 262.910,280.648 263.195,280.218 263.432 C 272.406 267.750,278.914 281.318,287.000 277.573 C 287.567 277.311,287.305 277.271,286.100 277.437 C 277.207 278.660,273.571 268.331,281.146 263.364 C 284.050 261.461,290.425 258.464,293.900 257.369 C 295.055 257.006,296.000 256.639,296.000 256.554 C 296.000 256.207,294.842 256.498,292.000 257.560 M303.600 270.376 C 298.314 271.473,291.443 274.281,288.800 276.423 C 288.250 276.869,289.690 276.272,292.000 275.097 C 296.181 272.971,299.410 271.762,303.600 270.754 C 306.594 270.034,318.282 270.030,321.200 270.747 C 335.173 274.184,345.424 282.107,351.546 294.200 C 352.437 295.960,353.174 297.177,353.183 296.904 C 353.192 296.631,352.501 295.072,351.647 293.441 C 342.483 275.940,322.653 266.420,303.600 270.376 M15.882 279.150 C 15.727 279.893,15.625 281.873,15.655 283.550 L 15.710 286.600 16.056 282.800 C 16.427 278.726,16.342 276.950,15.882 279.150 M15.640 292.433 C 15.662 294.285,15.830 296.250,16.013 296.800 C 16.206 297.381,16.251 296.041,16.119 293.600 C 15.843 288.478,15.586 287.852,15.640 292.433 M353.430 298.400 C 353.607 298.950,354.153 300.840,354.646 302.600 C 355.155 304.423,355.553 305.335,355.570 304.719 C 355.587 304.124,355.439 303.224,355.242 302.719 C 355.045 302.213,354.653 300.990,354.372 300.000 C 354.091 299.010,353.692 298.020,353.485 297.800 C 353.250 297.549,353.230 297.773,353.430 298.400 M16.480 299.400 C 16.480 300.060,16.624 301.050,16.800 301.600 C 17.111 302.572,17.120 302.567,17.120 301.400 C 17.120 300.740,16.976 299.750,16.800 299.200 C 16.489 298.228,16.480 298.233,16.480 299.400 M17.256 303.400 C 17.256 303.840,17.411 304.560,17.600 305.000 L 17.944 305.800 17.944 305.000 C 17.944 304.560,17.789 303.840,17.600 303.400 L 17.256 302.600 17.256 303.400 M18.012 306.600 C 18.012 307.040,18.187 307.670,18.400 308.000 C 18.721 308.497,18.788 308.462,18.788 307.800 C 18.788 307.360,18.613 306.730,18.400 306.400 C 18.079 305.903,18.012 305.938,18.012 306.600 M355.899 311.813 C 356.071 317.509,355.366 323.418,354.130 326.638 C 353.962 327.075,354.020 327.235,354.286 327.071 C 354.518 326.927,354.810 326.313,354.936 325.705 C 355.061 325.097,355.370 323.700,355.621 322.600 C 356.215 320.001,356.567 308.092,356.088 306.813 C 355.846 306.168,355.781 307.901,355.899 311.813 M18.800 309.244 C 18.800 314.915,30.593 332.730,39.434 340.414 C 44.556 344.865,56.293 352.240,57.050 351.483 C 57.143 351.390,55.600 350.487,53.622 349.476 C 44.097 344.607,34.919 336.682,28.692 327.948 C 27.079 325.685,22.800 318.590,22.800 318.178 C 22.800 318.091,22.268 316.858,21.617 315.437 C 20.966 314.016,20.136 311.942,19.771 310.827 C 19.128 308.863,18.800 308.327,18.800 309.244 M353.197 329.073 C 350.452 337.760,341.098 348.138,332.107 352.475 C 330.710 353.148,329.646 353.779,329.743 353.876 C 331.029 355.162,343.142 345.895,347.357 340.400 C 350.583 336.194,354.576 328.442,353.877 327.743 C 353.768 327.635,353.463 328.233,353.197 329.073 M57.600 351.737 C 57.600 351.999,63.246 354.087,63.437 353.896 C 63.543 353.790,62.353 353.230,60.792 352.652 C 57.906 351.582,57.600 351.494,57.600 351.737 M64.102 354.235 C 64.231 354.364,64.936 354.619,65.668 354.800 C 66.401 354.982,68.044 355.416,69.320 355.765 C 70.595 356.114,72.125 356.379,72.720 356.354 C 73.519 356.319,73.592 356.262,73.000 356.133 C 72.560 356.038,70.438 355.519,68.284 354.980 C 64.105 353.934,63.735 353.868,64.102 354.235 M327.874 354.259 C 327.732 354.401,326.217 354.932,324.508 355.438 C 322.798 355.943,321.850 356.362,322.400 356.368 C 323.425 356.380,328.575 354.758,329.062 354.271 C 329.211 354.122,329.063 354.000,328.733 354.000 C 328.403 354.000,328.017 354.117,327.874 354.259 M74.800 356.896 C 75.590 357.293,92.974 357.441,157.400 357.599 L 239.000 357.800 240.283 358.715 C 240.988 359.218,242.041 360.208,242.622 360.915 L 243.678 362.200 242.939 360.851 C 242.533 360.109,241.480 359.029,240.600 358.451 L 239.000 357.400 158.000 357.153 C 113.450 357.018,76.280 356.791,75.400 356.649 C 73.926 356.413,73.878 356.432,74.800 356.896 M317.000 356.815 C 315.680 356.979,310.730 357.137,306.000 357.165 C 295.422 357.230,292.295 358.414,291.378 362.707 C 291.250 363.308,290.977 364.213,290.772 364.719 C 290.238 366.038,290.334 366.320,291.013 365.424 C 291.336 364.996,291.600 364.229,291.600 363.718 C 291.600 362.028,293.407 359.543,295.400 358.490 C 296.373 357.977,298.813 357.800,308.280 357.559 C 315.123 357.385,320.258 357.089,320.680 356.843 C 321.541 356.342,320.857 356.337,317.000 356.815 M265.425 357.467 C 262.966 358.166,260.631 360.696,259.992 363.353 C 259.827 364.039,259.567 364.960,259.413 365.400 C 259.139 366.189,259.144 366.189,259.767 365.424 C 260.115 364.996,260.400 364.229,260.400 363.718 C 260.400 362.037,262.213 359.533,264.166 358.517 C 268.166 356.438,274.753 359.393,274.814 363.294 C 274.828 364.204,275.959 366.584,275.986 365.760 C 276.028 364.435,274.512 360.923,273.400 359.772 C 271.504 357.809,267.893 356.766,265.425 357.467 M243.639 363.400 C 243.632 364.060,243.890 364.949,244.213 365.376 C 244.931 366.326,244.931 366.255,244.221 364.000 C 243.718 362.403,243.652 362.335,243.639 363.400 " stroke="none" fill="#4c647c" fill-rule="evenodd"></path></g></svg>