<svg id="svg" version="1.1" xmlns="http://www.w3.org/2000/svg" xmlns:xlink="http://www.w3.org/1999/xlink" width="400" height="400" viewBox="0, 0, 400,400"><g id="svgg"><path id="path0" d="M214.400 80.400 C 214.400 80.635,213.000 80.800,211.000 80.800 C 209.000 80.800,207.600 80.965,207.600 81.200 C 207.600 81.422,206.533 81.600,205.200 81.600 C 203.867 81.600,202.800 81.778,202.800 82.000 C 202.800 82.220,201.900 82.400,200.800 82.400 C 199.700 82.400,198.800 82.580,198.800 82.800 C 198.800 83.020,198.091 83.200,197.224 83.200 C 196.357 83.200,195.536 83.380,195.400 83.600 C 195.264 83.820,194.634 84.000,194.000 84.000 C 193.366 84.000,192.736 84.180,192.600 84.400 C 192.464 84.620,191.733 84.800,190.976 84.800 C 190.219 84.800,189.600 84.980,189.600 85.200 C 189.600 85.420,189.060 85.600,188.400 85.600 C 187.740 85.600,187.200 85.780,187.200 86.000 C 187.200 86.220,186.660 86.400,186.000 86.400 C 185.340 86.400,184.800 86.580,184.800 86.800 C 184.800 87.020,184.361 87.200,183.824 87.200 C 183.287 87.200,182.736 87.380,182.600 87.600 C 182.464 87.820,182.003 88.000,181.576 88.000 C 181.149 88.000,180.800 88.180,180.800 88.400 C 180.800 88.620,180.361 88.800,179.824 88.800 C 179.287 88.800,178.736 88.980,178.600 89.200 C 178.464 89.420,178.003 89.600,177.576 89.600 C 177.149 89.600,176.800 89.736,176.800 89.902 C 176.800 90.204,176.029 90.591,173.000 91.813 C 169.798 93.104,169.200 93.401,169.200 93.698 C 169.200 93.864,168.840 94.000,168.400 94.000 C 167.960 94.000,167.600 94.180,167.600 94.400 C 167.600 94.620,167.240 94.800,166.800 94.800 C 166.360 94.800,166.000 94.959,166.000 95.153 C 166.000 95.348,165.685 95.607,165.300 95.729 C 164.613 95.946,162.394 97.205,162.000 97.601 C 161.890 97.711,161.305 98.056,160.700 98.368 C 160.095 98.680,159.600 99.085,159.600 99.268 C 159.600 99.450,159.370 99.600,159.088 99.600 C 158.807 99.600,158.317 99.960,158.000 100.400 C 157.683 100.840,157.143 101.200,156.800 101.200 C 156.457 101.200,155.917 101.560,155.600 102.000 C 155.283 102.440,154.793 102.800,154.512 102.800 C 154.231 102.800,153.259 103.520,152.352 104.400 C 151.445 105.280,150.539 106.000,150.338 106.000 C 150.138 106.000,149.343 106.630,148.573 107.400 C 147.803 108.170,146.992 108.800,146.770 108.800 C 146.234 108.800,134.000 121.102,134.000 121.641 C 134.000 121.873,133.280 122.754,132.400 123.600 C 131.520 124.446,130.800 125.243,130.800 125.372 C 130.800 125.501,130.313 126.154,129.717 126.823 C 129.121 127.491,127.953 129.065,127.122 130.319 C 126.290 131.574,125.428 132.817,125.205 133.083 C 124.982 133.349,124.800 133.804,124.800 134.095 C 124.800 134.386,124.440 134.883,124.000 135.200 C 123.560 135.517,123.200 136.097,123.200 136.488 C 123.200 136.880,123.020 137.200,122.800 137.200 C 122.580 137.200,122.400 137.478,122.400 137.818 C 122.400 138.158,121.958 138.878,121.418 139.418 C 120.424 140.412,119.200 140.733,119.200 140.000 C 119.200 139.780,118.671 139.600,118.024 139.600 C 117.377 139.600,116.736 139.420,116.600 139.200 C 116.464 138.980,115.733 138.800,114.976 138.800 C 114.219 138.800,113.600 138.620,113.600 138.400 C 113.600 138.180,112.700 138.000,111.600 138.000 C 110.500 138.000,109.600 137.820,109.600 137.600 C 109.600 137.380,108.711 137.200,107.624 137.200 C 106.537 137.200,105.536 137.020,105.400 136.800 C 105.264 136.580,103.543 136.400,101.576 136.400 C 99.459 136.400,98.000 136.237,98.000 136.000 C 98.000 135.749,95.533 135.600,91.400 135.600 C 87.267 135.600,84.800 135.749,84.800 136.000 C 84.800 136.239,83.267 136.400,81.000 136.400 C 78.733 136.400,77.200 136.561,77.200 136.800 C 77.200 137.020,76.300 137.200,75.200 137.200 C 74.100 137.200,73.200 137.380,73.200 137.600 C 73.200 137.820,72.300 138.000,71.200 138.000 C 70.100 138.000,69.200 138.180,69.200 138.400 C 69.200 138.620,68.480 138.800,67.600 138.800 C 66.720 138.800,66.000 138.980,66.000 139.200 C 66.000 139.420,65.460 139.600,64.800 139.600 C 64.140 139.600,63.600 139.780,63.600 140.000 C 63.600 140.220,63.060 140.400,62.400 140.400 C 61.740 140.400,61.200 140.580,61.200 140.800 C 61.200 141.020,60.919 141.200,60.575 141.200 C 59.726 141.200,55.892 142.433,55.420 142.858 C 55.211 143.046,54.716 143.200,54.320 143.200 C 53.924 143.200,53.600 143.380,53.600 143.600 C 53.600 143.820,53.355 144.000,53.056 144.000 C 52.399 144.000,47.455 146.476,47.267 146.900 C 47.193 147.065,46.788 147.200,46.367 147.200 C 45.945 147.200,45.600 147.336,45.600 147.502 C 45.600 147.669,45.094 148.029,44.475 148.303 C 43.856 148.576,42.964 149.160,42.492 149.600 C 42.020 150.040,41.396 150.400,41.105 150.400 C 40.814 150.400,40.317 150.760,40.000 151.200 C 39.683 151.640,39.175 152.000,38.872 152.000 C 38.569 152.000,37.817 152.540,37.200 153.200 C 36.583 153.860,35.863 154.400,35.600 154.400 C 35.337 154.400,34.644 154.902,34.060 155.515 C 33.477 156.129,32.370 157.055,31.600 157.573 C 29.919 158.705,20.800 167.902,20.800 168.466 C 20.800 168.684,20.080 169.554,19.200 170.400 C 18.320 171.246,17.600 172.182,17.600 172.480 C 17.600 172.779,17.240 173.283,16.800 173.600 C 16.360 173.917,16.000 174.392,16.000 174.655 C 16.000 174.918,15.855 175.193,15.677 175.267 C 15.227 175.452,12.800 179.056,12.800 179.539 C 12.800 179.756,12.637 179.993,12.438 180.067 C 11.913 180.260,8.400 187.233,8.400 188.082 C 8.400 188.477,8.220 188.800,8.000 188.800 C 7.780 188.800,7.600 189.160,7.600 189.600 C 7.600 190.040,7.420 190.400,7.200 190.400 C 6.980 190.400,6.800 190.760,6.800 191.200 C 6.800 191.640,6.620 192.000,6.400 192.000 C 6.180 192.000,6.000 192.450,6.000 193.000 C 6.000 193.550,5.820 194.000,5.600 194.000 C 5.380 194.000,5.200 194.439,5.200 194.976 C 5.200 195.513,5.020 196.064,4.800 196.200 C 4.580 196.336,4.400 196.887,4.400 197.424 C 4.400 197.961,4.220 198.400,4.000 198.400 C 3.780 198.400,3.600 198.929,3.600 199.576 C 3.600 200.223,3.420 200.864,3.200 201.000 C 2.980 201.136,2.800 201.777,2.800 202.424 C 2.800 203.071,2.620 203.600,2.400 203.600 C 2.180 203.600,2.000 204.320,2.000 205.200 C 2.000 206.080,1.820 206.800,1.600 206.800 C 1.380 206.800,1.200 207.574,1.200 208.520 C 1.200 209.466,0.975 210.465,0.700 210.740 C -0.028 211.468,-0.028 244.458,0.700 244.700 C 1.010 244.803,1.200 245.616,1.200 246.833 C 1.200 247.915,1.380 248.800,1.600 248.800 C 1.820 248.800,2.000 249.520,2.000 250.400 C 2.000 251.280,2.180 252.000,2.400 252.000 C 2.620 252.000,2.800 252.619,2.800 253.376 C 2.800 254.133,2.980 254.864,3.200 255.000 C 3.420 255.136,3.600 255.687,3.600 256.224 C 3.600 256.761,3.780 257.200,4.000 257.200 C 4.220 257.200,4.400 257.740,4.400 258.400 C 4.400 259.060,4.580 259.600,4.800 259.600 C 5.020 259.600,5.200 259.960,5.200 260.400 C 5.200 260.840,5.380 261.200,5.600 261.200 C 5.820 261.200,6.000 261.740,6.000 262.400 C 6.000 263.060,6.180 263.600,6.400 263.600 C 6.620 263.600,6.800 263.960,6.800 264.400 C 6.800 264.840,6.980 265.200,7.200 265.200 C 7.420 265.200,7.600 265.472,7.600 265.805 C 7.600 266.138,7.751 266.723,7.936 267.105 C 10.205 271.802,11.426 274.235,11.595 274.400 C 11.709 274.510,12.056 275.095,12.368 275.700 C 12.680 276.305,13.085 276.800,13.268 276.800 C 13.450 276.800,13.600 277.120,13.600 277.512 C 13.600 277.903,13.960 278.483,14.400 278.800 C 14.840 279.117,15.200 279.657,15.200 280.000 C 15.200 280.343,15.560 280.883,16.000 281.200 C 16.440 281.517,16.800 281.985,16.800 282.240 C 16.800 282.495,17.520 283.445,18.400 284.352 C 19.280 285.259,20.000 286.170,20.000 286.377 C 20.000 286.900,32.728 299.600,33.253 299.600 C 33.487 299.600,34.183 300.140,34.800 300.800 C 35.417 301.460,36.120 302.000,36.364 302.000 C 36.608 302.000,37.372 302.540,38.063 303.200 C 38.754 303.860,39.562 304.400,39.859 304.400 C 40.157 304.400,40.400 304.558,40.400 304.751 C 40.400 304.945,40.940 305.327,41.600 305.600 C 42.260 305.873,42.800 306.255,42.800 306.449 C 42.800 306.642,42.984 306.800,43.208 306.800 C 43.432 306.800,44.329 307.250,45.200 307.800 C 46.071 308.350,47.058 308.800,47.392 308.800 C 47.726 308.800,48.000 308.980,48.000 309.200 C 48.000 309.420,48.360 309.600,48.800 309.600 C 49.240 309.600,49.600 309.780,49.600 310.000 C 49.600 310.220,49.960 310.400,50.400 310.400 C 50.840 310.400,51.200 310.580,51.200 310.800 C 51.200 311.020,51.560 311.200,52.000 311.200 C 52.440 311.200,52.800 311.380,52.800 311.600 C 52.800 311.820,53.160 312.000,53.600 312.000 C 54.040 312.000,54.400 312.180,54.400 312.400 C 54.400 312.620,54.940 312.800,55.600 312.800 C 56.260 312.800,56.800 312.980,56.800 313.200 C 56.800 313.420,57.160 313.600,57.600 313.600 C 58.040 313.600,58.400 313.780,58.400 314.000 C 58.400 314.220,58.839 314.400,59.376 314.400 C 59.913 314.400,60.464 314.580,60.600 314.800 C 60.736 315.020,61.287 315.200,61.824 315.200 C 62.361 315.200,62.800 315.380,62.800 315.600 C 62.800 315.820,63.329 316.000,63.976 316.000 C 64.623 316.000,65.264 316.180,65.400 316.400 C 65.536 316.620,66.267 316.800,67.024 316.800 C 67.781 316.800,68.400 316.980,68.400 317.200 C 68.400 317.420,69.120 317.600,70.000 317.600 C 70.880 317.600,71.600 317.780,71.600 318.000 C 71.600 318.220,72.579 318.400,73.776 318.400 C 74.973 318.400,76.064 318.580,76.200 318.800 C 76.336 319.020,77.596 319.200,79.000 319.200 C 80.404 319.200,81.664 319.380,81.800 319.600 C 82.142 320.154,253.058 320.154,253.400 319.600 C 253.536 319.380,253.921 319.200,254.255 319.200 C 255.224 319.200,257.934 316.103,258.384 314.482 C 258.917 312.561,258.910 312.453,258.200 311.743 C 257.870 311.413,257.600 310.703,257.600 310.166 C 257.600 309.027,256.993 307.843,255.610 306.285 C 253.430 303.827,259.940 304.000,169.859 304.000 C 113.651 304.000,86.354 303.864,84.021 303.571 C 70.333 301.857,59.158 297.791,48.624 290.694 C 47.291 289.795,46.110 288.955,46.000 288.827 C 45.890 288.700,44.950 287.966,43.912 287.197 C 41.044 285.075,32.822 276.557,30.592 273.400 C 29.505 271.860,28.477 270.540,28.307 270.467 C 28.138 270.393,28.000 270.158,28.000 269.945 C 28.000 269.731,27.312 268.531,26.472 267.278 C 14.314 249.154,12.059 219.146,21.297 198.400 C 23.966 192.405,29.191 183.358,30.768 182.000 C 30.895 181.890,31.707 180.900,32.572 179.800 C 38.401 172.381,48.151 164.584,57.577 159.802 C 59.241 158.958,60.280 158.490,63.800 156.996 C 79.415 150.369,103.738 150.438,119.400 157.156 C 137.098 164.746,150.052 176.324,158.162 191.800 C 158.623 192.680,159.090 193.490,159.201 193.600 C 159.311 193.710,159.603 194.250,159.850 194.800 C 160.097 195.350,160.664 196.610,161.111 197.600 C 161.558 198.590,162.223 200.210,162.588 201.200 C 163.678 204.154,164.987 205.812,166.962 206.740 C 173.469 209.799,179.654 203.090,176.771 196.100 C 176.567 195.605,176.248 194.795,176.063 194.300 C 173.526 187.520,166.620 175.954,161.201 169.407 C 158.326 165.934,149.075 157.161,146.243 155.223 C 145.779 154.906,145.310 154.543,145.200 154.417 C 144.877 154.045,139.565 150.592,137.500 149.411 C 136.455 148.813,135.600 148.084,135.600 147.791 C 135.600 147.259,139.430 140.778,139.968 140.400 C 140.125 140.290,140.859 139.300,141.600 138.200 C 142.341 137.100,143.052 136.110,143.179 136.000 C 143.307 135.890,144.211 134.810,145.188 133.600 C 149.929 127.729,158.318 119.933,164.800 115.371 C 166.010 114.520,167.090 113.728,167.200 113.612 C 167.310 113.495,167.850 113.141,168.400 112.824 C 168.950 112.508,170.570 111.532,172.000 110.656 C 180.390 105.518,191.440 101.111,201.600 98.850 C 202.590 98.630,203.850 98.338,204.400 98.202 C 212.892 96.100,230.860 95.585,239.800 97.187 C 240.900 97.384,243.060 97.755,244.600 98.011 C 246.140 98.266,247.940 98.627,248.600 98.811 C 249.260 98.995,250.520 99.333,251.400 99.563 C 259.743 101.738,268.447 105.227,275.300 109.143 C 276.125 109.614,277.475 110.382,278.300 110.849 C 287.398 115.996,300.716 127.744,306.800 135.988 C 307.350 136.733,308.176 137.806,308.635 138.371 C 312.335 142.933,321.200 158.816,321.200 160.886 C 321.200 161.191,321.363 161.611,321.562 161.820 C 322.071 162.354,325.200 171.743,325.200 172.736 C 325.200 173.185,325.380 173.664,325.600 173.800 C 325.820 173.936,326.000 174.656,326.000 175.400 C 326.000 176.144,326.157 176.850,326.348 176.968 C 326.540 177.086,326.810 178.042,326.948 179.092 C 327.086 180.141,327.383 182.080,327.607 183.400 C 328.384 187.979,328.556 192.770,327.949 192.950 C 327.647 193.040,326.320 193.326,325.000 193.586 C 317.471 195.072,308.659 198.484,302.896 202.145 C 294.047 207.769,301.279 220.297,310.400 215.142 C 313.005 213.670,316.995 211.654,318.400 211.101 C 318.950 210.884,319.713 210.548,320.095 210.353 C 320.477 210.159,321.141 210.000,321.571 210.000 C 322.001 210.000,322.452 209.840,322.573 209.644 C 322.694 209.449,323.379 209.186,324.096 209.061 C 324.813 208.936,326.390 208.634,327.600 208.390 C 345.085 204.864,365.180 212.807,375.188 227.200 C 375.723 227.970,376.269 228.690,376.400 228.800 C 376.792 229.128,378.909 232.855,379.924 235.000 C 392.856 262.351,377.443 295.257,348.400 302.301 C 342.020 303.849,339.964 304.000,325.315 304.000 C 313.077 304.000,310.736 304.093,309.672 304.624 C 307.907 305.505,305.600 308.321,305.600 309.596 C 305.600 310.174,305.336 310.996,305.013 311.424 C 304.345 312.306,304.195 314.400,304.800 314.400 C 305.020 314.400,305.200 314.672,305.200 315.005 C 305.200 316.294,306.795 318.400,307.771 318.400 C 308.117 318.400,308.400 318.536,308.400 318.702 C 308.400 319.864,310.914 320.015,327.444 319.843 C 344.515 319.665,349.600 319.418,349.600 318.766 C 349.600 318.565,350.320 318.400,351.200 318.400 C 352.080 318.400,352.800 318.220,352.800 318.000 C 352.800 317.780,353.419 317.600,354.176 317.600 C 354.933 317.600,355.664 317.420,355.800 317.200 C 355.936 316.980,356.487 316.800,357.024 316.800 C 357.561 316.800,358.000 316.620,358.000 316.400 C 358.000 316.180,358.439 316.000,358.976 316.000 C 359.513 316.000,360.064 315.820,360.200 315.600 C 360.336 315.380,360.797 315.200,361.224 315.200 C 361.651 315.200,362.000 315.020,362.000 314.800 C 362.000 314.580,362.360 314.400,362.800 314.400 C 363.240 314.400,363.600 314.220,363.600 314.000 C 363.600 313.780,363.960 313.600,364.400 313.600 C 364.840 313.600,365.200 313.420,365.200 313.200 C 365.200 312.980,365.560 312.800,366.000 312.800 C 366.440 312.800,366.800 312.620,366.800 312.400 C 366.800 312.180,367.160 312.000,367.600 312.000 C 368.040 312.000,368.400 311.820,368.400 311.600 C 368.400 311.380,368.720 311.200,369.112 311.200 C 369.503 311.200,370.083 310.840,370.400 310.400 C 370.717 309.960,371.297 309.600,371.688 309.600 C 372.080 309.600,372.400 309.432,372.400 309.227 C 372.400 309.022,372.739 308.746,373.153 308.615 C 373.568 308.483,374.466 307.841,375.150 307.188 C 375.833 306.535,376.569 306.000,376.785 306.000 C 377.305 306.000,387.200 296.092,387.200 295.570 C 387.200 295.347,387.650 294.714,388.200 294.164 C 388.750 293.614,389.200 293.005,389.200 292.810 C 389.200 292.616,389.427 292.219,389.705 291.929 C 390.492 291.105,391.600 289.274,391.600 288.797 C 391.600 288.560,391.960 287.980,392.400 287.508 C 392.840 287.036,393.200 286.413,393.200 286.125 C 393.200 285.836,393.380 285.600,393.600 285.600 C 393.820 285.600,394.000 285.240,394.000 284.800 C 394.000 284.360,394.180 284.000,394.400 284.000 C 394.620 284.000,394.800 283.651,394.800 283.224 C 394.800 282.797,394.980 282.336,395.200 282.200 C 395.420 282.064,395.600 281.513,395.600 280.976 C 395.600 280.439,395.780 280.000,396.000 280.000 C 396.220 280.000,396.400 279.640,396.400 279.200 C 396.400 278.760,396.580 278.400,396.800 278.400 C 397.020 278.400,397.200 277.860,397.200 277.200 C 397.200 276.540,397.380 276.000,397.600 276.000 C 397.820 276.000,398.000 275.370,398.000 274.600 C 398.000 273.830,398.180 273.200,398.400 273.200 C 398.620 273.200,398.800 272.495,398.800 271.633 C 398.800 270.736,399.013 269.996,399.300 269.900 C 399.687 269.771,399.800 266.551,399.800 255.600 C 399.800 244.649,399.687 241.429,399.300 241.300 C 399.013 241.204,398.800 240.464,398.800 239.567 C 398.800 238.705,398.620 238.000,398.400 238.000 C 398.180 238.000,398.000 237.460,398.000 236.800 C 398.000 236.140,397.820 235.600,397.600 235.600 C 397.380 235.600,397.200 235.060,397.200 234.400 C 397.200 233.740,397.020 233.200,396.800 233.200 C 396.580 233.200,396.400 232.761,396.400 232.224 C 396.400 231.687,396.220 231.136,396.000 231.000 C 395.780 230.864,395.600 230.403,395.600 229.976 C 395.600 229.549,395.420 229.200,395.200 229.200 C 394.980 229.200,394.800 228.840,394.800 228.400 C 394.800 227.960,394.620 227.600,394.400 227.600 C 394.180 227.600,394.000 227.240,394.000 226.800 C 394.000 226.360,393.820 226.000,393.600 226.000 C 393.380 226.000,393.200 225.730,393.200 225.400 C 393.200 225.070,393.020 224.800,392.800 224.800 C 392.580 224.800,392.400 224.440,392.400 224.000 C 392.400 223.560,392.234 223.200,392.032 223.200 C 391.829 223.200,391.545 222.660,391.400 222.000 C 391.255 221.340,390.983 220.800,390.795 220.800 C 390.607 220.800,390.338 220.434,390.196 219.987 C 390.054 219.540,389.502 218.738,388.969 218.205 C 388.436 217.672,388.000 217.083,388.000 216.897 C 388.000 216.149,379.851 207.600,379.138 207.600 C 378.918 207.600,378.046 206.880,377.200 206.000 C 376.354 205.120,375.561 204.400,375.436 204.400 C 375.210 204.400,373.988 203.453,372.984 202.500 C 372.694 202.225,372.264 202.000,372.029 202.000 C 371.793 202.000,371.600 201.820,371.600 201.600 C 371.600 201.380,371.280 201.200,370.888 201.200 C 370.497 201.200,369.917 200.840,369.600 200.400 C 369.283 199.960,368.703 199.600,368.312 199.600 C 367.920 199.600,367.600 199.420,367.600 199.200 C 367.600 198.980,367.240 198.800,366.800 198.800 C 366.360 198.800,366.000 198.620,366.000 198.400 C 366.000 198.180,365.640 198.000,365.200 198.000 C 364.760 198.000,364.400 197.820,364.400 197.600 C 364.400 197.380,364.040 197.200,363.600 197.200 C 363.160 197.200,362.800 197.020,362.800 196.800 C 362.800 196.580,362.451 196.400,362.024 196.400 C 361.597 196.400,361.136 196.220,361.000 196.000 C 360.864 195.780,360.313 195.600,359.776 195.600 C 359.239 195.600,358.800 195.420,358.800 195.200 C 358.800 194.980,358.438 194.800,357.995 194.800 C 357.552 194.800,356.877 194.638,356.495 194.439 C 356.113 194.240,355.035 193.880,354.100 193.639 C 353.165 193.398,351.725 193.027,350.900 192.816 C 350.075 192.604,348.365 192.321,347.100 192.187 L 344.800 191.942 344.800 190.371 C 344.800 189.507,344.620 188.800,344.400 188.800 C 344.165 188.800,344.000 187.408,344.000 185.424 C 344.000 183.567,343.820 181.936,343.600 181.800 C 343.380 181.664,343.200 180.573,343.200 179.376 C 343.200 178.179,343.020 177.200,342.800 177.200 C 342.580 177.200,342.400 176.478,342.400 175.595 C 342.400 174.712,342.229 173.677,342.020 173.295 C 341.810 172.913,341.528 171.568,341.392 170.306 C 341.255 169.045,340.977 167.909,340.772 167.783 C 340.567 167.656,340.400 167.171,340.400 166.705 C 340.400 165.804,339.735 163.461,339.151 162.305 C 338.958 161.923,338.800 161.259,338.800 160.829 C 338.800 160.399,338.620 159.936,338.400 159.800 C 338.180 159.664,338.000 159.113,338.000 158.576 C 338.000 158.039,337.820 157.600,337.600 157.600 C 337.380 157.600,337.200 157.240,337.200 156.800 C 337.200 156.360,337.020 156.000,336.800 156.000 C 336.580 156.000,336.400 155.460,336.400 154.800 C 336.400 154.140,336.220 153.600,336.000 153.600 C 335.780 153.600,335.600 153.240,335.600 152.800 C 335.600 152.360,335.420 152.000,335.200 152.000 C 334.980 152.000,334.800 151.640,334.800 151.200 C 334.800 150.760,334.620 150.400,334.400 150.400 C 334.180 150.400,334.000 150.057,334.000 149.638 C 334.000 148.822,332.399 145.488,331.900 145.267 C 331.735 145.193,331.600 144.788,331.600 144.367 C 331.600 143.945,331.420 143.600,331.200 143.600 C 330.980 143.600,330.800 143.330,330.800 143.000 C 330.800 142.670,330.620 142.400,330.400 142.400 C 330.180 142.400,330.000 142.130,330.000 141.800 C 330.000 141.470,329.820 141.200,329.600 141.200 C 329.380 141.200,329.200 140.840,329.200 140.400 C 329.200 139.960,329.020 139.600,328.800 139.600 C 328.580 139.600,328.400 139.280,328.400 138.888 C 328.400 138.497,328.040 137.917,327.600 137.600 C 327.160 137.283,326.800 136.703,326.800 136.312 C 326.800 135.920,326.633 135.600,326.429 135.600 C 326.225 135.600,325.740 134.880,325.352 134.000 C 324.964 133.120,324.501 132.400,324.323 132.400 C 324.145 132.400,324.000 132.164,324.000 131.875 C 324.000 131.587,323.667 130.994,323.261 130.557 C 322.854 130.121,322.449 129.574,322.361 129.343 C 322.149 128.788,319.782 125.912,317.900 123.921 C 317.075 123.049,316.400 122.172,316.400 121.974 C 316.400 121.425,303.366 108.400,302.817 108.400 C 302.553 108.400,301.646 107.680,300.800 106.800 C 299.954 105.920,299.051 105.200,298.792 105.200 C 298.533 105.200,297.817 104.660,297.200 104.000 C 296.583 103.340,295.831 102.800,295.528 102.800 C 295.225 102.800,294.717 102.440,294.400 102.000 C 294.083 101.560,293.543 101.200,293.200 101.200 C 292.857 101.200,292.317 100.840,292.000 100.400 C 291.683 99.960,291.276 99.600,291.095 99.600 C 290.914 99.600,290.380 99.240,289.908 98.800 C 289.436 98.360,288.813 98.000,288.525 98.000 C 288.236 98.000,288.000 97.820,288.000 97.600 C 288.000 97.380,287.764 97.200,287.475 97.200 C 287.187 97.200,286.564 96.840,286.092 96.400 C 285.620 95.960,284.956 95.600,284.617 95.600 C 284.278 95.600,284.000 95.420,284.000 95.200 C 284.000 94.980,283.640 94.800,283.200 94.800 C 282.760 94.800,282.397 94.665,282.393 94.500 C 282.390 94.335,281.265 93.680,279.893 93.044 C 278.522 92.408,277.087 91.733,276.705 91.544 C 276.323 91.355,275.738 91.200,275.405 91.200 C 275.072 91.200,274.800 91.020,274.800 90.800 C 274.800 90.580,274.440 90.400,274.000 90.400 C 273.560 90.400,273.200 90.220,273.200 90.000 C 273.200 89.780,272.851 89.600,272.424 89.600 C 271.997 89.600,271.536 89.420,271.400 89.200 C 271.264 88.980,270.713 88.800,270.176 88.800 C 269.639 88.800,269.200 88.620,269.200 88.400 C 269.200 88.180,268.851 88.000,268.424 88.000 C 267.997 88.000,267.536 87.820,267.400 87.600 C 267.264 87.380,266.713 87.200,266.176 87.200 C 265.639 87.200,265.200 87.020,265.200 86.800 C 265.200 86.580,264.660 86.400,264.000 86.400 C 263.340 86.400,262.800 86.220,262.800 86.000 C 262.800 85.780,262.260 85.600,261.600 85.600 C 260.940 85.600,260.400 85.420,260.400 85.200 C 260.400 84.980,259.781 84.800,259.024 84.800 C 258.267 84.800,257.536 84.620,257.400 84.400 C 257.264 84.180,256.623 84.000,255.976 84.000 C 255.329 84.000,254.800 83.820,254.800 83.600 C 254.800 83.380,253.990 83.200,253.000 83.200 C 252.010 83.200,251.200 83.020,251.200 82.800 C 251.200 82.580,250.300 82.400,249.200 82.400 C 248.100 82.400,247.200 82.220,247.200 82.000 C 247.200 81.780,246.221 81.600,245.024 81.600 C 243.827 81.600,242.736 81.420,242.600 81.200 C 242.464 80.980,240.833 80.800,238.976 80.800 C 236.992 80.800,235.600 80.635,235.600 80.400 C 235.600 80.143,231.800 80.000,225.000 80.000 C 218.200 80.000,214.400 80.143,214.400 80.400 M277.777 305.027 C 275.954 306.208,274.400 308.368,274.400 309.718 C 274.400 310.229,274.136 310.996,273.813 311.424 C 273.145 312.306,272.995 314.400,273.600 314.400 C 273.820 314.400,274.000 314.672,274.000 315.005 C 274.000 316.143,275.577 318.400,276.371 318.400 C 276.607 318.400,276.800 318.580,276.800 318.800 C 276.800 319.020,277.160 319.200,277.600 319.200 C 278.040 319.200,278.400 319.380,278.400 319.600 C 278.400 319.831,279.659 320.000,281.376 320.000 C 283.013 320.000,284.464 319.820,284.600 319.600 C 284.736 319.380,285.124 319.200,285.463 319.200 C 286.401 319.200,289.600 315.612,289.600 314.560 C 289.600 314.058,289.780 313.536,290.000 313.400 C 290.610 313.023,290.477 312.000,289.818 312.000 C 289.461 312.000,289.131 311.421,288.965 310.500 C 287.977 305.046,282.147 302.193,277.777 305.027 " stroke="none" fill="#040405" fill-rule="evenodd"></path><path id="path1" d="M219.800 97.045 C 209.306 97.428,195.396 100.440,185.800 104.405 C 184.209 105.063,174.595 109.763,174.400 109.979 C 174.290 110.100,173.770 110.442,173.245 110.738 C 172.720 111.033,171.654 111.633,170.876 112.069 C 170.099 112.506,168.391 113.614,167.081 114.532 C 165.771 115.449,164.317 116.463,163.849 116.784 C 163.041 117.339,160.415 119.432,157.804 121.600 C 157.142 122.150,154.701 124.490,152.381 126.800 C 148.740 130.424,147.157 132.188,144.000 136.138 C 143.670 136.551,143.188 137.113,142.929 137.387 C 142.064 138.301,136.400 147.092,136.400 147.520 C 136.400 147.752,137.525 148.622,138.900 149.453 C 149.470 155.838,160.400 166.244,167.415 176.598 C 170.798 181.592,175.905 191.558,177.254 195.800 C 177.534 196.680,177.907 197.571,178.082 197.780 C 178.540 198.328,178.474 201.907,178.000 202.200 C 177.780 202.336,177.600 202.797,177.600 203.224 C 177.600 203.651,177.420 204.000,177.200 204.000 C 176.980 204.000,176.800 204.242,176.800 204.538 C 176.800 206.079,172.999 208.000,169.950 208.000 C 166.800 208.000,163.314 205.661,162.590 203.063 C 162.458 202.589,162.199 201.840,162.016 201.400 C 159.684 195.816,157.943 192.345,155.599 188.606 C 155.050 187.729,154.420 186.707,154.200 186.335 C 148.532 176.744,135.875 165.654,124.200 160.047 C 121.550 158.774,120.770 158.432,118.400 157.500 C 117.850 157.284,117.087 156.948,116.705 156.753 C 116.323 156.559,115.659 156.400,115.229 156.400 C 114.799 156.400,114.349 156.241,114.229 156.046 C 114.108 155.851,113.513 155.593,112.905 155.471 C 112.297 155.349,110.990 155.047,110.000 154.800 C 98.249 151.864,84.551 151.864,72.800 154.800 C 71.810 155.047,70.503 155.349,69.895 155.471 C 69.287 155.593,68.692 155.851,68.571 156.046 C 68.451 156.241,68.001 156.400,67.571 156.400 C 67.141 156.400,66.477 156.559,66.095 156.753 C 65.713 156.948,64.950 157.284,64.400 157.500 C 22.033 174.157,3.108 225.346,25.138 263.700 C 25.612 264.525,26.374 265.861,26.832 266.669 C 27.740 268.273,30.800 272.879,31.171 273.200 C 31.298 273.310,32.449 274.696,33.730 276.280 C 37.529 280.979,48.118 290.400,49.602 290.400 C 49.821 290.400,50.000 290.568,50.000 290.773 C 50.000 290.978,50.359 291.260,50.798 291.399 C 51.236 291.538,51.821 291.866,52.098 292.126 C 52.556 292.558,53.402 293.028,57.600 295.182 C 63.874 298.401,70.061 300.469,78.373 302.125 C 82.568 302.960,83.234 302.968,167.600 303.183 C 245.735 303.383,252.698 303.454,253.808 304.063 C 256.277 305.417,257.504 307.095,258.372 310.300 L 258.832 312.000 266.016 312.000 C 272.589 312.000,273.201 311.940,273.206 311.300 C 273.289 301.641,286.973 300.638,289.580 310.100 L 290.104 312.000 297.202 312.000 L 304.300 312.000 304.540 310.800 C 305.061 308.197,306.392 306.044,308.302 304.718 L 310.200 303.400 326.800 303.160 C 344.343 302.905,345.107 302.830,351.600 300.723 C 354.670 299.726,361.650 296.403,362.400 295.581 C 362.510 295.460,363.230 294.923,364.000 294.386 C 367.326 292.070,371.113 288.512,373.267 285.681 C 374.220 284.428,375.279 283.092,375.621 282.711 C 376.217 282.047,376.859 280.942,379.173 276.600 C 384.123 267.313,385.323 252.469,381.976 241.943 C 378.741 231.769,372.303 222.938,363.800 217.011 C 360.178 214.486,353.898 211.200,352.694 211.200 C 352.338 211.200,351.936 211.020,351.800 210.800 C 351.664 210.580,351.124 210.400,350.600 210.400 C 350.076 210.400,349.536 210.220,349.400 210.000 C 349.264 209.780,348.544 209.600,347.800 209.600 C 347.056 209.600,346.352 209.446,346.236 209.259 C 345.461 208.004,331.614 207.977,326.700 209.220 C 323.164 210.115,321.746 210.512,320.900 210.846 C 320.405 211.041,319.595 211.357,319.100 211.549 C 317.310 212.244,314.143 213.826,311.400 215.395 C 301.998 220.773,293.109 209.619,301.246 202.653 C 303.008 201.145,312.932 196.000,314.079 196.000 C 314.449 196.000,314.864 195.820,315.000 195.600 C 315.136 195.380,315.676 195.200,316.200 195.200 C 316.724 195.200,317.251 195.041,317.371 194.846 C 317.492 194.651,318.087 194.390,318.695 194.264 C 319.303 194.139,320.700 193.836,321.800 193.592 C 322.900 193.348,324.700 193.025,325.800 192.874 L 327.800 192.600 327.753 190.600 C 327.702 188.460,327.107 183.984,326.396 180.400 C 326.156 179.190,325.859 177.524,325.737 176.697 C 325.615 175.871,325.355 175.095,325.158 174.974 C 324.961 174.852,324.800 174.371,324.800 173.905 C 324.800 173.438,324.624 172.504,324.409 171.828 C 322.339 165.330,321.989 164.347,321.153 162.705 C 320.959 162.323,320.800 161.807,320.800 161.558 C 320.800 160.184,312.514 144.523,310.912 142.871 C 310.631 142.581,310.400 142.189,310.400 142.000 C 310.400 141.811,310.169 141.419,309.887 141.129 C 309.605 140.838,308.932 139.970,308.393 139.200 C 305.062 134.448,297.814 126.534,292.600 121.957 C 289.579 119.305,281.641 113.477,279.155 112.084 C 276.080 110.363,275.794 110.193,275.600 109.979 C 275.425 109.785,266.353 105.332,264.200 104.383 C 261.966 103.398,254.468 101.021,250.400 100.009 C 246.184 98.959,244.430 98.632,237.400 97.588 C 234.668 97.182,224.575 96.870,219.800 97.045 " stroke="none" fill="#a3cbfb" fill-rule="evenodd"></path><path id="path2" d="M218.600 96.777 C 216.334 96.904,219.196 97.002,225.200 97.004 C 232.176 97.006,234.432 96.920,231.800 96.751 C 227.219 96.457,224.258 96.463,218.600 96.777 M210.200 97.600 C 208.839 97.844,208.779 97.892,209.800 97.920 C 210.460 97.939,211.720 97.805,212.600 97.623 C 214.693 97.190,212.602 97.170,210.200 97.600 M237.400 97.585 C 238.622 97.911,241.870 98.120,241.567 97.853 C 241.475 97.772,240.230 97.607,238.800 97.485 C 237.162 97.346,236.644 97.382,237.400 97.585 M205.200 98.400 C 203.843 98.686,203.837 98.695,205.000 98.707 C 205.660 98.715,206.650 98.576,207.200 98.400 C 208.512 97.980,207.196 97.980,205.200 98.400 M244.033 98.544 C 244.125 98.624,245.010 98.796,246.000 98.927 C 247.202 99.086,247.534 99.047,247.000 98.810 C 246.236 98.472,243.686 98.243,244.033 98.544 M199.800 99.619 C 199.242 99.871,199.485 99.907,200.600 99.738 C 201.480 99.604,202.275 99.428,202.367 99.347 C 202.710 99.044,200.568 99.271,199.800 99.619 M252.000 100.400 C 253.368 100.838,254.419 100.838,253.400 100.400 C 252.960 100.211,252.240 100.062,251.800 100.068 C 251.157 100.077,251.196 100.143,252.000 100.400 M194.200 101.200 C 193.696 101.417,193.622 101.544,194.000 101.544 C 194.330 101.544,194.960 101.389,195.400 101.200 C 195.904 100.983,195.978 100.856,195.600 100.856 C 195.270 100.856,194.640 101.011,194.200 101.200 M171.800 111.200 C 171.140 111.637,170.780 111.992,171.000 111.988 C 171.401 111.982,173.576 110.423,173.200 110.412 C 173.090 110.408,172.460 110.763,171.800 111.200 M277.600 111.164 C 278.150 111.614,278.780 111.983,279.000 111.985 C 279.428 111.988,278.705 111.434,277.400 110.760 C 276.869 110.485,276.936 110.621,277.600 111.164 M167.493 113.814 C 166.672 114.372,166.000 114.915,166.000 115.020 C 166.000 115.125,166.720 114.735,167.600 114.153 C 168.997 113.228,169.470 112.800,169.093 112.800 C 169.034 112.800,168.314 113.256,167.493 113.814 M283.200 114.530 C 283.200 114.617,284.955 115.980,287.100 117.561 C 289.245 119.141,290.280 119.801,289.400 119.029 C 287.686 117.524,283.200 114.269,283.200 114.530 M164.200 116.250 C 163.481 116.862,163.334 117.105,163.833 116.857 C 164.566 116.493,165.941 115.176,165.549 115.214 C 165.467 115.222,164.860 115.688,164.200 116.250 M157.454 121.455 C 156.823 121.997,156.373 122.506,156.454 122.586 C 156.534 122.666,157.116 122.288,157.746 121.745 C 158.377 121.203,158.827 120.694,158.746 120.614 C 158.666 120.534,158.084 120.912,157.454 121.455 M291.234 120.666 C 291.252 120.850,292.693 122.225,294.435 123.723 C 297.718 126.545,304.685 134.014,306.158 136.289 C 306.621 137.005,307.147 137.592,307.327 137.595 C 307.855 137.603,304.197 133.140,300.214 128.918 C 296.409 124.885,291.174 120.075,291.234 120.666 M151.787 126.813 C 149.602 129.006,147.926 130.800,148.063 130.800 C 148.367 130.800,156.021 123.088,155.869 122.935 C 155.808 122.875,153.972 124.620,151.787 126.813 M145.818 133.400 C 144.784 134.610,144.087 135.590,144.269 135.578 C 144.603 135.555,148.183 131.200,147.867 131.200 C 147.774 131.200,146.851 132.190,145.818 133.400 M308.496 139.395 C 308.993 140.162,309.544 140.792,309.720 140.795 C 309.897 140.798,309.560 140.170,308.973 139.400 C 307.600 137.600,307.332 137.597,308.496 139.395 M139.928 141.100 C 139.156 142.007,137.482 144.800,137.711 144.800 C 137.808 144.800,138.544 143.810,139.347 142.600 C 140.810 140.397,141.046 139.786,139.928 141.100 M310.473 142.200 C 310.723 142.750,311.084 143.200,311.273 143.200 C 311.463 143.200,311.324 142.750,310.963 142.200 C 310.603 141.650,310.243 141.200,310.163 141.200 C 310.083 141.200,310.222 141.650,310.473 142.200 M312.124 144.600 C 312.462 145.260,313.038 146.160,313.404 146.600 C 313.770 147.040,313.665 146.680,313.170 145.800 C 312.080 143.858,311.264 142.922,312.124 144.600 M136.646 146.186 C 135.730 147.584,135.840 148.202,137.100 148.747 L 138.200 149.222 137.200 148.434 C 136.208 147.652,136.206 147.637,136.923 146.423 C 137.785 144.964,137.568 144.779,136.646 146.186 M314.600 148.800 C 314.941 149.460,315.311 150.000,315.421 150.000 C 315.531 150.000,315.341 149.460,315.000 148.800 C 314.659 148.140,314.289 147.600,314.179 147.600 C 314.069 147.600,314.259 148.140,314.600 148.800 M138.600 149.468 C 138.820 149.686,140.440 150.820,142.200 151.989 C 143.960 153.158,146.210 154.759,147.200 155.547 C 148.190 156.334,148.739 156.652,148.420 156.252 C 148.101 155.853,146.391 154.501,144.620 153.248 C 141.336 150.924,137.878 148.753,138.600 149.468 M317.084 153.386 C 317.897 155.028,318.627 156.307,318.706 156.227 C 318.885 156.049,316.065 150.400,315.798 150.400 C 315.693 150.400,316.271 151.744,317.084 153.386 M81.800 152.800 C 80.070 153.240,81.957 153.255,84.400 152.820 L 86.200 152.500 84.600 152.497 C 83.720 152.496,82.460 152.632,81.800 152.800 M98.400 152.820 C 100.843 153.255,102.730 153.240,101.000 152.800 C 100.340 152.632,99.080 152.496,98.200 152.497 L 96.600 152.500 98.400 152.820 M77.000 153.600 L 76.200 153.944 77.000 153.944 C 77.440 153.944,78.160 153.789,78.600 153.600 L 79.400 153.256 78.600 153.256 C 78.160 153.256,77.440 153.411,77.000 153.600 M104.200 153.600 C 104.640 153.789,105.360 153.944,105.800 153.944 L 106.600 153.944 105.800 153.600 C 105.360 153.411,104.640 153.256,104.200 153.256 L 103.400 153.256 104.200 153.600 M319.091 157.500 C 319.586 158.802,320.395 160.203,320.398 159.761 C 320.400 159.263,319.224 156.800,318.983 156.800 C 318.896 156.800,318.945 157.115,319.091 157.500 M153.000 160.400 C 154.083 161.500,155.060 162.400,155.170 162.400 C 155.280 162.400,154.483 161.500,153.400 160.400 C 152.317 159.300,151.340 158.400,151.230 158.400 C 151.120 158.400,151.917 159.300,153.000 160.400 M54.200 162.000 C 53.540 162.437,53.180 162.792,53.400 162.788 C 53.801 162.782,55.976 161.223,55.600 161.212 C 55.490 161.208,54.860 161.563,54.200 162.000 M127.200 161.365 C 127.200 161.475,128.437 162.287,129.949 163.170 C 131.461 164.053,134.206 165.869,136.049 167.205 C 137.892 168.541,138.770 169.079,138.000 168.401 C 135.529 166.224,127.200 160.799,127.200 161.365 M49.378 164.980 C 47.630 166.180,45.570 167.723,44.800 168.411 C 44.013 169.114,44.450 168.887,45.800 167.893 C 47.120 166.921,49.235 165.441,50.500 164.606 C 52.535 163.262,53.092 162.800,52.678 162.800 C 52.611 162.800,51.126 163.781,49.378 164.980 M158.200 165.600 C 159.283 166.700,160.260 167.600,160.370 167.600 C 160.480 167.600,159.683 166.700,158.600 165.600 C 157.517 164.500,156.540 163.600,156.430 163.600 C 156.320 163.600,157.117 164.500,158.200 165.600 M160.800 168.346 C 160.800 168.570,160.965 168.855,161.167 168.980 C 161.369 169.104,162.584 170.592,163.867 172.285 C 165.150 173.979,166.438 175.642,166.730 175.982 C 167.927 177.379,166.589 175.327,164.654 172.800 C 161.669 168.900,160.800 167.896,160.800 168.346 M39.474 172.844 C 37.563 174.620,36.000 176.208,36.000 176.373 C 36.000 176.537,37.035 175.657,38.300 174.417 C 39.565 173.177,41.208 171.668,41.950 171.065 C 42.693 170.461,43.221 169.888,43.125 169.791 C 43.028 169.695,41.385 171.068,39.474 172.844 M139.634 169.854 C 139.652 170.044,140.372 170.806,141.234 171.546 C 142.095 172.287,142.785 172.737,142.766 172.546 C 142.748 172.356,142.028 171.594,141.166 170.854 C 140.305 170.113,139.615 169.663,139.634 169.854 M324.006 170.633 C 324.009 171.055,324.195 171.670,324.418 172.000 C 324.715 172.438,324.752 172.276,324.556 171.400 C 324.227 169.929,323.998 169.610,324.006 170.633 M146.249 176.200 C 147.970 178.180,149.428 179.875,149.489 179.967 C 149.550 180.058,149.679 180.054,149.776 179.958 C 149.872 179.861,148.414 178.166,146.535 176.191 L 143.119 172.600 146.249 176.200 M324.828 173.876 C 324.813 174.358,324.980 174.864,325.200 175.000 C 325.673 175.292,325.673 174.901,325.200 173.800 C 324.869 173.029,324.855 173.031,324.828 173.876 M325.634 177.000 C 325.622 177.440,325.787 178.070,326.000 178.400 C 326.514 179.195,326.514 178.196,326.000 177.000 L 325.656 176.200 325.634 177.000 M33.376 179.355 C 30.990 182.237,28.247 186.000,28.532 186.000 C 28.642 186.000,29.409 185.055,30.236 183.900 C 31.063 182.745,32.629 180.756,33.716 179.479 C 34.802 178.203,35.626 177.102,35.546 177.034 C 35.466 176.965,34.489 178.010,33.376 179.355 M169.324 180.200 C 169.662 180.860,170.238 181.760,170.604 182.200 C 170.970 182.640,170.865 182.280,170.370 181.400 C 169.280 179.458,168.464 178.522,169.324 180.200 M326.446 180.800 C 326.427 181.350,326.587 182.070,326.800 182.400 C 327.294 183.164,327.294 182.342,326.800 180.800 L 326.480 179.800 326.446 180.800 M151.433 182.500 C 153.057 184.772,154.391 186.305,153.782 185.200 C 153.179 184.104,150.378 180.400,150.153 180.400 C 150.032 180.400,150.607 181.345,151.433 182.500 M327.287 185.800 C 327.283 186.460,327.424 187.450,327.600 188.000 L 327.920 189.000 327.913 188.000 C 327.909 187.450,327.768 186.460,327.600 185.800 L 327.295 184.600 327.287 185.800 M154.400 186.520 C 154.400 186.904,156.445 190.000,156.699 190.000 C 156.878 190.000,156.241 188.919,154.939 187.011 C 154.642 186.577,154.400 186.356,154.400 186.520 M156.809 190.700 C 156.814 190.865,157.185 191.450,157.633 192.000 L 158.448 193.000 157.814 191.700 C 157.211 190.465,156.789 190.045,156.809 190.700 M323.600 193.206 C 323.178 193.482,323.415 193.523,324.400 193.342 C 326.125 193.025,326.451 192.798,325.167 192.806 C 324.635 192.809,323.930 192.989,323.600 193.206 M320.000 194.000 C 319.467 194.345,319.467 194.388,320.000 194.388 C 320.330 194.388,320.870 194.213,321.200 194.000 C 321.733 193.655,321.733 193.612,321.200 193.612 C 320.870 193.612,320.330 193.787,320.000 194.000 M177.800 200.000 C 177.800 201.278,177.935 202.240,178.100 202.138 C 178.265 202.036,178.400 201.074,178.400 200.000 C 178.400 198.926,178.265 197.964,178.100 197.862 C 177.935 197.760,177.800 198.722,177.800 200.000 M301.936 202.117 C 300.050 203.555,298.389 205.749,298.420 206.759 C 298.431 207.112,298.812 206.634,299.266 205.697 C 300.054 204.071,301.054 203.014,303.217 201.521 C 303.757 201.148,304.079 200.833,303.931 200.821 C 303.783 200.809,302.885 201.393,301.936 202.117 M162.400 202.515 C 162.400 203.085,163.355 204.800,163.673 204.800 C 163.863 204.800,163.709 204.305,163.330 203.700 C 162.432 202.264,162.400 202.223,162.400 202.515 M175.850 205.250 C 174.927 206.328,175.250 206.650,176.200 205.600 C 176.601 205.157,176.845 204.712,176.743 204.610 C 176.641 204.507,176.239 204.796,175.850 205.250 M167.000 207.600 C 167.136 207.820,167.642 207.987,168.124 207.972 C 168.969 207.945,168.971 207.931,168.200 207.600 C 167.099 207.127,166.708 207.127,167.000 207.600 M18.249 208.215 C 18.112 208.573,18.015 209.166,18.034 209.533 C 18.053 209.900,18.227 209.669,18.421 209.020 C 18.798 207.758,18.665 207.133,18.249 208.215 M329.800 208.400 L 328.200 208.686 329.800 208.696 C 330.680 208.701,331.940 208.568,332.600 208.400 L 333.800 208.095 332.600 208.104 C 331.940 208.109,330.680 208.242,329.800 208.400 M340.600 208.400 C 341.260 208.568,342.430 208.706,343.200 208.707 L 344.600 208.708 343.000 208.377 C 340.845 207.931,338.834 207.951,340.600 208.400 M325.400 209.200 L 324.600 209.544 325.400 209.566 C 325.840 209.578,326.470 209.413,326.800 209.200 C 327.595 208.686,326.596 208.686,325.400 209.200 M346.190 209.184 C 346.332 209.413,346.917 209.600,347.490 209.600 C 348.744 209.600,348.599 209.408,347.066 209.040 C 346.323 208.862,346.021 208.911,346.190 209.184 M17.456 211.284 C 17.321 211.788,17.227 212.560,17.246 213.000 C 17.265 213.440,17.445 213.098,17.646 212.240 C 18.036 210.578,17.870 209.740,17.456 211.284 M315.689 212.665 C 314.968 213.020,314.443 213.377,314.524 213.457 C 314.695 213.628,317.200 212.424,317.200 212.171 C 317.200 211.929,317.147 211.946,315.689 212.665 M357.957 213.414 C 358.924 213.967,359.796 214.337,359.896 214.237 C 360.089 214.044,357.050 212.397,356.516 212.405 C 356.342 212.407,356.991 212.862,357.957 213.414 M311.600 214.884 C 310.390 215.586,308.410 216.395,307.200 216.681 L 305.000 217.201 306.928 217.004 C 308.567 216.837,314.000 214.349,314.000 213.766 C 314.000 213.501,313.913 213.542,311.600 214.884 M300.000 214.146 C 300.000 214.256,300.540 214.730,301.200 215.200 C 301.860 215.670,302.400 215.964,302.400 215.854 C 302.400 215.744,301.860 215.270,301.200 214.800 C 300.540 214.330,300.000 214.036,300.000 214.146 M360.600 214.672 C 361.457 215.506,366.513 218.906,366.240 218.464 C 366.081 218.207,364.927 217.308,363.675 216.468 C 361.048 214.703,360.008 214.095,360.600 214.672 M16.514 217.800 C 16.517 218.900,16.595 219.303,16.687 218.695 C 16.779 218.086,16.777 217.186,16.682 216.695 C 16.587 216.203,16.511 216.700,16.514 217.800 M370.011 222.204 C 371.875 224.186,373.482 225.755,373.582 225.689 C 373.682 225.623,372.157 224.001,370.193 222.085 L 366.622 218.600 370.011 222.204 M16.101 221.400 C 16.105 222.280,16.187 222.593,16.283 222.095 C 16.379 221.598,16.375 220.878,16.275 220.495 C 16.175 220.113,16.096 220.520,16.101 221.400 M15.751 228.000 C 15.751 230.530,15.816 231.565,15.896 230.300 C 15.975 229.035,15.975 226.965,15.896 225.700 C 15.816 224.435,15.751 225.470,15.751 228.000 M375.785 229.100 C 376.402 230.035,376.983 230.800,377.076 230.800 C 377.364 230.800,375.833 228.366,375.232 227.869 C 374.920 227.611,375.168 228.165,375.785 229.100 M16.093 234.000 C 16.085 234.770,16.216 236.390,16.383 237.600 C 16.648 239.516,16.690 239.593,16.709 238.200 C 16.720 237.320,16.590 235.700,16.418 234.600 C 16.169 232.997,16.104 232.878,16.093 234.000 M17.228 242.833 C 17.244 243.365,17.419 244.160,17.619 244.600 C 17.871 245.158,17.907 244.915,17.738 243.800 C 17.455 241.943,17.187 241.436,17.228 242.833 M383.073 246.400 C 383.204 247.390,383.376 248.275,383.456 248.367 C 383.757 248.714,383.528 246.164,383.190 245.400 C 382.953 244.866,382.914 245.198,383.073 246.400 M18.068 246.200 C 18.062 246.640,18.211 247.360,18.400 247.800 C 18.838 248.819,18.838 247.768,18.400 246.400 C 18.143 245.596,18.077 245.557,18.068 246.200 M383.800 255.800 C 383.800 259.522,383.923 261.822,384.077 260.958 C 384.434 258.948,384.434 252.652,384.077 250.642 C 383.923 249.778,383.800 252.078,383.800 255.800 M383.040 264.840 C 382.893 265.757,382.852 266.585,382.947 266.680 C 383.042 266.776,383.246 266.110,383.400 265.200 C 383.554 264.290,383.596 263.462,383.493 263.360 C 383.390 263.257,383.187 263.923,383.040 264.840 M25.786 265.500 C 26.135 266.215,26.506 266.800,26.610 266.800 C 27.008 266.800,26.752 266.163,25.967 265.200 L 25.152 264.200 25.786 265.500 M27.467 268.406 C 27.859 269.070,28.598 270.105,29.110 270.706 C 29.621 271.308,29.375 270.765,28.563 269.500 C 27.024 267.103,26.228 266.307,27.467 268.406 M382.200 268.400 C 382.050 268.873,382.017 269.350,382.127 269.460 C 382.237 269.570,382.450 269.273,382.600 268.800 C 382.750 268.327,382.783 267.850,382.673 267.740 C 382.563 267.630,382.350 267.927,382.200 268.400 M34.276 277.400 C 36.251 279.775,41.131 284.631,41.289 284.378 C 41.350 284.280,39.423 282.220,37.007 279.800 C 34.591 277.380,33.362 276.300,34.276 277.400 M377.814 279.035 C 377.441 279.604,377.205 280.138,377.289 280.222 C 377.373 280.307,377.758 279.841,378.144 279.188 C 379.006 277.728,378.748 277.609,377.814 279.035 M373.433 285.424 C 372.571 286.627,370.906 288.518,369.733 289.628 C 368.560 290.737,367.600 291.764,367.600 291.909 C 367.600 292.054,368.598 291.189,369.817 289.986 C 372.277 287.560,375.836 283.189,375.327 283.219 C 375.147 283.230,374.295 284.222,373.433 285.424 M43.663 286.508 C 46.449 288.734,49.392 290.815,47.943 289.534 C 46.181 287.976,42.044 284.800,41.777 284.800 C 41.639 284.800,42.488 285.568,43.663 286.508 M50.400 291.363 C 50.400 291.443,50.850 291.803,51.400 292.163 C 51.950 292.524,52.400 292.663,52.400 292.473 C 52.400 292.284,51.950 291.923,51.400 291.673 C 50.850 291.422,50.400 291.283,50.400 291.363 M363.611 294.620 C 362.847 295.159,362.432 295.600,362.689 295.600 C 362.946 295.600,363.660 295.156,364.278 294.613 C 365.708 293.354,365.399 293.358,363.611 294.620 M56.000 294.579 C 56.000 294.689,56.540 295.059,57.200 295.400 C 57.860 295.741,58.400 295.931,58.400 295.821 C 58.400 295.711,57.860 295.341,57.200 295.000 C 56.540 294.659,56.000 294.469,56.000 294.579 M356.400 298.800 C 355.190 299.439,354.380 299.962,354.600 299.962 C 354.820 299.962,355.990 299.439,357.200 298.800 C 358.410 298.161,359.220 297.638,359.000 297.638 C 358.780 297.638,357.610 298.161,356.400 298.800 M69.800 300.400 C 70.240 300.589,70.870 300.744,71.200 300.744 C 71.578 300.744,71.504 300.617,71.000 300.400 C 70.560 300.211,69.930 300.056,69.600 300.056 C 69.222 300.056,69.296 300.183,69.800 300.400 M72.600 301.200 C 73.040 301.389,73.760 301.538,74.200 301.532 C 74.843 301.523,74.804 301.457,74.000 301.200 C 72.632 300.762,71.581 300.762,72.600 301.200 M347.000 302.000 C 345.911 302.277,345.893 302.307,346.800 302.325 C 347.350 302.335,348.160 302.189,348.600 302.000 C 349.586 301.576,348.666 301.576,347.000 302.000 M77.700 302.276 C 78.085 302.376,78.715 302.376,79.100 302.276 C 79.485 302.175,79.170 302.093,78.400 302.093 C 77.630 302.093,77.315 302.175,77.700 302.276 M83.100 303.089 C 83.815 303.178,84.985 303.178,85.700 303.089 C 86.415 303.001,85.830 302.928,84.400 302.928 C 82.970 302.928,82.385 303.001,83.100 303.089 M340.900 303.087 C 341.505 303.178,342.495 303.178,343.100 303.087 C 343.705 302.995,343.210 302.920,342.000 302.920 C 340.790 302.920,340.295 302.995,340.900 303.087 M103.800 303.495 C 143.038 303.743,253.165 303.777,252.324 303.540 C 251.816 303.397,214.500 303.305,169.400 303.335 C 124.300 303.366,94.780 303.438,103.800 303.495 M280.433 303.349 C 280.525 303.431,281.500 303.601,282.600 303.728 C 283.949 303.884,284.274 303.849,283.600 303.620 C 282.601 303.280,280.118 303.068,280.433 303.349 M318.500 303.499 C 322.405 303.565,328.795 303.565,332.700 303.499 C 336.605 303.434,333.410 303.380,325.600 303.380 C 317.790 303.380,314.595 303.434,318.500 303.499 M253.800 304.252 C 254.020 304.445,254.912 305.232,255.783 306.001 C 256.653 306.770,257.103 307.040,256.783 306.600 C 256.462 306.160,255.930 305.572,255.600 305.293 C 254.917 304.716,253.187 303.716,253.800 304.252 M285.000 304.244 C 285.220 304.441,286.099 305.232,286.953 306.001 C 288.212 307.135,288.386 307.210,287.870 306.396 C 287.521 305.844,286.642 305.054,285.917 304.640 C 285.193 304.225,284.780 304.047,285.000 304.244 M275.538 306.017 C 274.692 306.906,274.007 307.941,274.016 308.317 C 274.026 308.752,274.256 308.564,274.648 307.800 C 274.986 307.140,275.827 306.105,276.516 305.500 C 277.206 304.895,277.614 304.400,277.423 304.400 C 277.232 304.400,276.384 305.128,275.538 306.017 M307.185 305.561 C 306.423 306.200,305.890 306.787,306.000 306.866 C 306.110 306.945,306.824 306.423,307.586 305.705 C 309.305 304.087,309.052 303.996,307.185 305.561 M273.449 309.815 C 273.312 310.173,273.215 310.766,273.234 311.133 C 273.253 311.500,273.427 311.269,273.621 310.620 C 273.998 309.358,273.865 308.733,273.449 309.815 M304.629 310.229 C 304.481 310.815,304.438 311.372,304.532 311.466 C 304.627 311.560,304.824 311.158,304.971 310.571 C 305.119 309.985,305.162 309.428,305.068 309.334 C 304.973 309.240,304.776 309.642,304.629 310.229 M289.234 310.200 C 289.222 310.640,289.387 311.270,289.600 311.600 C 290.114 312.395,290.114 311.396,289.600 310.200 L 289.256 309.400 289.234 310.200 " stroke="none" fill="#667fa0" fill-rule="evenodd"></path><path id="path3" d="M220.500 96.676 C 220.885 96.776,221.515 96.776,221.900 96.676 C 222.285 96.575,221.970 96.493,221.200 96.493 C 220.430 96.493,220.115 96.575,220.500 96.676 M90.307 152.290 C 91.026 152.379,92.106 152.377,92.707 152.286 C 93.308 152.195,92.720 152.122,91.400 152.124 C 90.080 152.126,89.588 152.201,90.307 152.290 " stroke="none" fill="#4e647e" fill-rule="evenodd"></path><path id="path4" d="M218.200 96.357 C 217.320 96.491,220.470 96.600,225.200 96.600 C 229.930 96.600,232.990 96.478,232.000 96.330 C 229.814 96.001,220.417 96.020,218.200 96.357 M210.200 97.220 C 209.661 97.465,210.054 97.505,211.400 97.341 C 212.500 97.207,213.475 97.031,213.567 96.949 C 213.917 96.636,210.961 96.874,210.200 97.220 M237.800 97.200 C 238.460 97.368,239.360 97.514,239.800 97.525 L 240.600 97.544 239.800 97.200 C 239.360 97.011,238.460 96.865,237.800 96.875 L 236.600 96.895 237.800 97.200 M205.400 98.019 C 204.842 98.271,205.085 98.307,206.200 98.138 C 207.080 98.004,207.875 97.828,207.967 97.747 C 208.310 97.444,206.168 97.671,205.400 98.019 M243.200 98.000 C 243.750 98.176,244.560 98.320,245.000 98.320 C 245.633 98.320,245.592 98.254,244.800 98.000 C 244.250 97.824,243.440 97.680,243.000 97.680 C 242.367 97.680,242.408 97.746,243.200 98.000 M201.800 98.800 C 201.296 99.017,201.222 99.144,201.600 99.144 C 201.930 99.144,202.560 98.989,203.000 98.800 C 203.504 98.583,203.578 98.456,203.200 98.456 C 202.870 98.456,202.240 98.611,201.800 98.800 M188.200 102.800 C 186.660 103.437,185.594 103.968,185.831 103.979 C 186.256 104.000,191.243 102.070,191.567 101.760 C 191.982 101.362,190.780 101.733,188.200 102.800 M261.368 103.017 C 262.670 103.558,263.930 103.992,264.168 103.983 C 264.406 103.974,263.534 103.524,262.232 102.983 C 260.930 102.442,259.670 102.008,259.432 102.017 C 259.194 102.026,260.066 102.476,261.368 103.017 M264.800 104.189 C 264.800 104.506,267.700 105.633,267.928 105.405 C 268.041 105.292,268.035 105.200,267.916 105.200 C 267.796 105.200,267.046 104.928,266.249 104.595 C 265.452 104.262,264.800 104.079,264.800 104.189 M174.700 109.029 C 173.205 109.840,173.296 110.178,174.800 109.400 C 175.460 109.059,176.000 108.694,176.000 108.590 C 176.000 108.332,175.957 108.347,174.700 109.029 M162.800 116.849 C 161.406 118.071,161.405 118.072,162.688 117.219 C 163.396 116.748,164.082 116.191,164.212 115.981 C 164.597 115.357,164.277 115.554,162.800 116.849 M285.744 115.909 C 286.060 116.421,288.400 118.153,288.400 117.875 C 288.400 117.776,287.739 117.191,286.932 116.575 C 286.124 115.959,285.589 115.659,285.744 115.909 M290.833 120.100 C 290.925 120.155,291.540 120.650,292.200 121.200 L 293.400 122.200 292.430 121.100 C 291.897 120.495,291.282 120.000,291.064 120.000 C 290.845 120.000,290.742 120.045,290.833 120.100 M152.200 126.000 C 149.567 128.640,147.503 130.800,147.613 130.800 C 147.723 130.800,149.967 128.640,152.600 126.000 C 155.233 123.360,157.297 121.200,157.187 121.200 C 157.077 121.200,154.833 123.360,152.200 126.000 M297.800 126.400 C 300.212 128.820,302.276 130.800,302.386 130.800 C 302.496 130.800,300.612 128.820,298.200 126.400 C 295.788 123.980,293.724 122.000,293.614 122.000 C 293.504 122.000,295.388 123.980,297.800 126.400 M304.001 133.000 C 304.551 133.660,305.045 134.275,305.100 134.367 C 305.155 134.458,305.288 134.445,305.396 134.338 C 305.504 134.230,305.009 133.615,304.297 132.971 L 303.003 131.800 304.001 133.000 M308.975 139.332 C 309.591 140.139,310.176 140.800,310.275 140.800 C 310.553 140.800,308.821 138.460,308.309 138.144 C 308.059 137.989,308.359 138.524,308.975 139.332 M139.224 141.318 C 138.923 141.803,138.415 142.605,138.093 143.100 C 137.771 143.595,137.595 144.000,137.701 144.000 C 137.983 144.000,140.086 140.753,139.915 140.581 C 139.835 140.502,139.524 140.833,139.224 141.318 M311.818 143.500 C 313.556 146.192,314.400 147.364,314.400 147.087 C 314.400 146.705,311.550 142.400,311.297 142.400 C 311.193 142.400,311.428 142.895,311.818 143.500 M136.495 145.823 C 135.365 147.548,135.366 148.258,136.500 148.808 C 137.312 149.202,137.332 149.189,136.700 148.678 C 135.788 147.940,135.817 147.380,136.844 145.939 C 137.308 145.287,137.621 144.687,137.539 144.606 C 137.457 144.524,136.988 145.072,136.495 145.823 M137.600 149.379 C 137.600 149.489,138.140 149.859,138.800 150.200 C 139.460 150.541,140.000 150.731,140.000 150.621 C 140.000 150.511,139.460 150.141,138.800 149.800 C 138.140 149.459,137.600 149.269,137.600 149.379 M316.200 150.800 C 316.541 151.460,316.911 152.000,317.021 152.000 C 317.131 152.000,316.941 151.460,316.600 150.800 C 316.259 150.140,315.889 149.600,315.779 149.600 C 315.669 149.600,315.859 150.140,316.200 150.800 M84.900 152.291 C 85.725 152.378,87.075 152.378,87.900 152.291 C 88.725 152.205,88.050 152.134,86.400 152.134 C 84.750 152.134,84.075 152.205,84.900 152.291 M94.900 152.291 C 95.725 152.378,97.075 152.378,97.900 152.291 C 98.725 152.205,98.050 152.134,96.400 152.134 C 94.750 152.134,94.075 152.205,94.900 152.291 M75.200 153.600 C 74.396 153.857,74.357 153.923,75.000 153.932 C 75.440 153.938,76.160 153.789,76.600 153.600 C 77.619 153.162,76.568 153.162,75.200 153.600 M106.200 153.600 C 106.640 153.789,107.360 153.938,107.800 153.932 C 108.443 153.923,108.404 153.857,107.600 153.600 C 106.232 153.162,105.181 153.162,106.200 153.600 M71.600 154.400 C 70.796 154.657,70.757 154.723,71.400 154.732 C 71.840 154.738,72.560 154.589,73.000 154.400 C 74.019 153.962,72.968 153.962,71.600 154.400 M109.800 154.400 C 110.240 154.589,110.960 154.738,111.400 154.732 C 112.043 154.723,112.004 154.657,111.200 154.400 C 109.832 153.962,108.781 153.962,109.800 154.400 M67.894 155.485 C 66.845 155.835,66.060 156.194,66.150 156.283 C 66.332 156.465,70.400 155.194,70.400 154.954 C 70.400 154.707,69.921 154.809,67.894 155.485 M64.100 156.812 C 62.761 157.351,63.011 157.624,64.400 157.140 C 65.060 156.910,65.600 156.649,65.600 156.561 C 65.600 156.324,65.113 156.405,64.100 156.812 M149.222 157.500 C 149.234 157.665,149.819 158.238,150.522 158.774 L 151.800 159.749 150.625 158.474 C 149.403 157.149,149.185 156.997,149.222 157.500 M152.000 159.631 C 152.000 159.922,159.713 167.620,159.859 167.474 C 159.922 167.411,158.180 165.572,155.987 163.387 C 153.794 161.202,152.000 159.512,152.000 159.631 M48.944 164.769 C 48.253 165.190,47.565 165.733,47.416 165.974 C 47.192 166.337,49.775 164.758,50.356 164.177 C 50.747 163.787,50.133 164.044,48.944 164.769 M132.400 164.124 C 132.400 164.217,133.165 164.798,134.100 165.415 C 135.035 166.032,135.589 166.280,135.331 165.968 C 134.834 165.367,132.400 163.836,132.400 164.124 M160.834 169.047 C 161.365 169.733,161.880 170.223,161.979 170.135 C 162.077 170.047,161.643 169.486,161.013 168.888 L 159.869 167.800 160.834 169.047 M39.320 172.700 C 36.428 175.523,36.219 175.778,38.562 173.624 C 43.570 169.020,43.797 168.800,43.548 168.800 C 43.420 168.800,41.517 170.555,39.320 172.700 M324.644 171.400 C 324.973 172.871,325.202 173.190,325.194 172.167 C 325.191 171.745,325.005 171.130,324.782 170.800 C 324.485 170.362,324.448 170.524,324.644 171.400 M163.140 171.916 C 163.633 172.609,164.244 173.304,164.497 173.460 C 164.750 173.617,164.554 173.177,164.060 172.484 C 163.567 171.791,162.956 171.096,162.703 170.940 C 162.450 170.783,162.646 171.223,163.140 171.916 M145.224 174.569 C 146.887 176.346,149.293 179.105,150.569 180.700 C 151.846 182.295,152.972 183.600,153.072 183.600 C 153.533 183.600,149.040 178.280,145.800 174.992 C 142.649 171.793,142.577 171.740,145.224 174.569 M166.000 175.800 C 166.681 176.790,167.328 177.600,167.438 177.600 C 167.548 177.600,167.081 176.790,166.400 175.800 C 165.719 174.810,165.072 174.000,164.962 174.000 C 164.852 174.000,165.319 174.810,166.000 175.800 M326.352 178.087 C 326.537 179.198,326.593 179.255,326.719 178.454 C 326.801 177.933,326.703 177.343,326.501 177.141 C 326.279 176.919,326.221 177.293,326.352 178.087 M33.201 178.998 C 32.686 179.548,32.339 180.064,32.432 180.146 C 32.524 180.228,33.019 179.778,33.530 179.147 C 34.676 177.735,34.474 177.644,33.201 178.998 M327.293 182.800 C 327.293 183.570,327.375 183.885,327.476 183.500 C 327.576 183.115,327.576 182.485,327.476 182.100 C 327.375 181.715,327.293 182.030,327.293 182.800 M328.114 188.600 C 328.117 189.700,328.195 190.103,328.287 189.495 C 328.379 188.886,328.377 187.986,328.282 187.495 C 328.187 187.003,328.111 187.500,328.114 188.600 M173.478 188.595 C 173.844 189.362,174.214 189.919,174.301 189.832 C 174.484 189.649,173.270 187.200,172.996 187.200 C 172.895 187.200,173.112 187.828,173.478 188.595 M26.214 188.635 C 25.841 189.204,25.605 189.738,25.689 189.822 C 25.773 189.907,26.158 189.441,26.544 188.788 C 27.406 187.328,27.148 187.209,26.214 188.635 M323.400 193.600 C 322.311 193.877,322.293 193.907,323.200 193.925 C 323.750 193.935,324.560 193.789,325.000 193.600 C 325.986 193.176,325.066 193.176,323.400 193.600 M320.000 194.400 C 319.176 194.664,319.141 194.726,319.800 194.754 C 320.240 194.773,320.870 194.613,321.200 194.400 C 321.901 193.947,321.414 193.947,320.000 194.400 M177.377 199.747 C 177.396 201.991,177.464 202.272,177.748 201.282 C 177.951 200.576,177.941 199.428,177.725 198.535 C 177.387 197.138,177.356 197.246,177.377 199.747 M309.600 198.200 C 309.050 198.514,308.780 198.772,309.000 198.772 C 309.220 198.772,309.850 198.514,310.400 198.200 C 310.950 197.886,311.220 197.628,311.000 197.628 C 310.780 197.628,310.150 197.886,309.600 198.200 M20.779 199.455 C 20.558 200.036,20.452 200.585,20.543 200.676 C 20.633 200.767,20.899 200.292,21.133 199.620 C 21.653 198.128,21.339 197.982,20.779 199.455 M306.700 199.627 C 305.875 200.063,305.200 200.508,305.200 200.618 C 305.200 200.727,305.920 200.449,306.800 200.000 C 307.680 199.551,308.400 199.097,308.400 198.992 C 308.400 198.730,308.397 198.731,306.700 199.627 M303.200 201.636 C 302.536 202.179,302.469 202.315,303.000 202.040 C 304.305 201.366,305.028 200.812,304.600 200.815 C 304.380 200.817,303.750 201.186,303.200 201.636 M163.203 203.338 C 163.198 203.974,164.854 206.001,165.728 206.428 C 166.566 206.837,166.564 206.825,165.685 206.114 C 165.182 205.707,164.418 204.840,163.988 204.187 C 163.557 203.534,163.204 203.152,163.203 203.338 M175.426 205.113 C 174.015 206.803,173.988 206.875,175.160 205.800 C 176.271 204.782,177.488 203.170,177.114 203.213 C 177.051 203.220,176.292 204.075,175.426 205.113 M298.447 208.726 C 298.402 209.990,299.917 214.216,300.284 213.849 C 300.380 213.753,300.157 213.090,299.788 212.376 C 299.418 211.662,298.976 210.250,298.805 209.239 C 298.535 207.643,298.488 207.575,298.447 208.726 M331.600 207.844 C 333.742 208.110,344.079 208.205,343.167 207.950 C 342.635 207.801,339.590 207.689,336.400 207.700 C 333.210 207.711,331.050 207.776,331.600 207.844 M325.600 208.818 C 325.162 209.115,325.324 209.152,326.200 208.956 C 327.671 208.627,327.990 208.398,326.967 208.406 C 326.545 208.409,325.930 208.595,325.600 208.818 M345.233 208.543 C 345.325 208.621,346.030 208.801,346.800 208.942 C 347.785 209.123,348.022 209.082,347.600 208.806 C 347.058 208.450,344.837 208.203,345.233 208.543 M16.622 213.822 C 16.472 214.625,16.428 215.362,16.526 215.460 C 16.624 215.557,16.827 214.981,16.978 214.178 C 17.128 213.375,17.172 212.638,17.074 212.540 C 16.976 212.443,16.773 213.019,16.622 213.822 M363.344 215.909 C 363.660 216.421,366.000 218.153,366.000 217.875 C 366.000 217.776,365.339 217.191,364.532 216.575 C 363.724 215.959,363.189 215.659,363.344 215.909 M15.785 219.385 C 15.630 220.623,15.590 221.723,15.695 221.829 C 15.801 221.934,16.007 221.001,16.154 219.754 C 16.300 218.507,16.341 217.407,16.243 217.310 C 16.146 217.212,15.939 218.146,15.785 219.385 M366.759 218.520 C 367.406 219.334,371.200 222.562,371.200 222.297 C 371.200 222.200,370.075 221.151,368.700 219.968 C 367.325 218.784,366.452 218.132,366.759 218.520 M371.200 222.925 C 371.200 222.994,371.773 223.579,372.474 224.225 L 373.749 225.400 372.774 224.122 C 371.947 223.037,371.200 222.469,371.200 222.925 M377.960 231.800 C 378.634 233.105,379.188 233.828,379.185 233.400 C 379.183 233.180,378.814 232.550,378.364 232.000 C 377.821 231.336,377.685 231.269,377.960 231.800 M15.647 234.833 C 15.673 235.585,15.841 236.740,16.020 237.400 C 16.235 238.189,16.270 237.778,16.123 236.200 C 15.877 233.555,15.573 232.681,15.647 234.833 M17.256 244.800 C 17.256 245.130,17.411 245.760,17.600 246.200 C 17.817 246.704,17.944 246.778,17.944 246.400 C 17.944 246.070,17.789 245.440,17.600 245.000 C 17.383 244.496,17.256 244.422,17.256 244.800 M384.493 255.600 C 384.493 256.370,384.575 256.685,384.676 256.300 C 384.776 255.915,384.776 255.285,384.676 254.900 C 384.575 254.515,384.493 254.830,384.493 255.600 M20.428 254.892 C 20.382 255.365,21.686 258.448,21.858 258.275 C 21.945 258.188,21.666 257.325,21.237 256.358 C 20.808 255.391,20.444 254.731,20.428 254.892 M383.840 262.440 C 383.693 263.357,383.652 264.185,383.747 264.280 C 383.842 264.376,384.046 263.710,384.200 262.800 C 384.354 261.890,384.396 261.062,384.293 260.960 C 384.190 260.857,383.987 261.523,383.840 262.440 M24.815 264.600 C 24.817 264.820,25.186 265.450,25.636 266.000 C 26.179 266.664,26.315 266.731,26.040 266.200 C 25.366 264.895,24.812 264.172,24.815 264.600 M31.596 274.794 C 32.290 275.671,33.067 276.518,33.323 276.676 C 33.578 276.834,33.093 276.116,32.245 275.081 C 31.397 274.047,30.620 273.200,30.518 273.200 C 30.416 273.200,30.901 273.918,31.596 274.794 M379.675 276.219 C 378.470 278.700,378.605 279.047,379.846 276.661 C 380.401 275.594,380.787 274.653,380.703 274.570 C 380.619 274.486,380.157 275.228,379.675 276.219 M37.400 281.200 C 39.592 283.400,41.475 285.200,41.585 285.200 C 41.695 285.200,39.992 283.400,37.800 281.200 C 35.608 279.000,33.725 277.200,33.615 277.200 C 33.505 277.200,35.208 279.000,37.400 281.200 M378.153 279.300 C 376.776 281.636,376.686 281.835,377.387 281.000 C 378.200 280.032,378.900 278.800,378.638 278.800 C 378.533 278.800,378.315 279.025,378.153 279.300 M374.575 284.668 C 373.959 285.476,373.659 286.011,373.909 285.856 C 374.421 285.540,376.153 283.200,375.875 283.200 C 375.776 283.200,375.191 283.861,374.575 284.668 M369.988 289.900 L 367.400 292.600 370.100 290.012 C 371.585 288.588,372.800 287.373,372.800 287.312 C 372.800 287.017,372.393 287.392,369.988 289.900 M46.033 288.930 C 46.125 289.001,46.830 289.466,47.600 289.963 L 49.000 290.866 47.800 289.835 C 47.140 289.268,46.435 288.803,46.233 288.802 C 46.032 288.801,45.942 288.858,46.033 288.930 M51.200 292.364 C 51.750 292.814,52.380 293.183,52.600 293.185 C 53.028 293.188,52.305 292.634,51.000 291.960 C 50.469 291.685,50.536 291.821,51.200 292.364 M363.800 295.050 C 363.081 295.662,362.934 295.905,363.433 295.657 C 364.166 295.293,365.541 293.976,365.149 294.014 C 365.067 294.022,364.460 294.488,363.800 295.050 M56.000 294.996 C 56.000 295.270,58.449 296.484,58.632 296.301 C 58.719 296.214,58.162 295.844,57.395 295.478 C 56.628 295.112,56.000 294.895,56.000 294.996 M74.600 302.000 C 75.040 302.189,75.670 302.344,76.000 302.344 C 76.378 302.344,76.304 302.217,75.800 302.000 C 75.360 301.811,74.730 301.656,74.400 301.656 C 74.022 301.656,74.096 301.783,74.600 302.000 M78.600 302.781 C 79.368 303.129,81.510 303.356,81.167 303.053 C 81.075 302.972,80.280 302.796,79.400 302.662 C 78.285 302.493,78.042 302.529,78.600 302.781 M345.400 302.800 C 344.896 303.017,344.822 303.144,345.200 303.144 C 345.530 303.144,346.160 302.989,346.600 302.800 C 347.104 302.583,347.178 302.456,346.800 302.456 C 346.470 302.456,345.840 302.611,345.400 302.800 M85.041 303.677 C 85.898 303.829,123.590 303.922,168.800 303.883 C 214.010 303.845,245.960 303.766,239.800 303.708 C 212.673 303.453,83.633 303.427,85.041 303.677 M326.400 303.600 L 311.800 303.815 326.200 303.860 C 334.120 303.885,341.140 303.768,341.800 303.600 C 342.814 303.342,342.845 303.302,342.000 303.340 C 341.450 303.365,334.430 303.482,326.400 303.600 M254.400 304.925 C 254.400 304.994,254.985 305.579,255.700 306.225 L 257.000 307.400 255.825 306.100 C 254.730 304.888,254.400 304.616,254.400 304.925 M286.825 306.231 C 287.581 307.128,288.281 307.797,288.380 307.717 C 288.479 307.638,287.860 306.904,287.005 306.087 L 285.450 304.600 286.825 306.231 M308.000 305.313 C 307.670 305.581,307.137 306.160,306.815 306.600 C 306.494 307.040,306.809 306.871,307.515 306.225 C 308.667 305.172,309.000 304.775,308.700 304.813 C 308.645 304.820,308.330 305.045,308.000 305.313 M273.684 310.700 C 273.281 312.047,273.294 312.121,273.817 311.424 C 274.326 310.746,274.639 309.200,274.267 309.200 C 274.194 309.200,273.932 309.875,273.684 310.700 M304.928 310.700 C 304.514 312.028,304.525 312.111,305.030 311.424 C 305.508 310.773,305.839 309.200,305.498 309.200 C 305.442 309.200,305.185 309.875,304.928 310.700 " stroke="none" fill="#495c74" fill-rule="evenodd"></path></g></svg>