<svg id="svg" version="1.1" xmlns="http://www.w3.org/2000/svg" xmlns:xlink="http://www.w3.org/1999/xlink" width="400" height="400" viewBox="0, 0, 400,400"><g id="svgg"><path id="path0" d="M88.000 4.000 C 88.000 4.220,87.100 4.400,86.000 4.400 C 84.900 4.400,84.000 4.580,84.000 4.800 C 84.000 5.020,83.280 5.200,82.400 5.200 C 81.520 5.200,80.800 5.380,80.800 5.600 C 80.800 5.820,80.361 6.000,79.824 6.000 C 79.287 6.000,78.736 6.180,78.600 6.400 C 78.464 6.620,78.003 6.800,77.576 6.800 C 77.149 6.800,76.800 6.980,76.800 7.200 C 76.800 7.420,76.440 7.600,76.000 7.600 C 75.560 7.600,75.200 7.780,75.200 8.000 C 75.200 8.220,74.975 8.401,74.700 8.402 C 74.219 8.403,71.660 9.624,69.622 10.824 C 69.084 11.141,68.221 11.805,67.704 12.300 C 67.187 12.795,66.588 13.200,66.372 13.200 C 65.779 13.200,59.476 19.730,58.799 21.047 C 58.473 21.681,57.889 22.491,57.503 22.847 C 57.116 23.203,56.800 23.774,56.800 24.116 C 56.800 24.812,55.121 25.458,52.400 25.808 C 49.623 26.166,46.773 26.995,44.705 28.047 C 44.323 28.241,43.738 28.400,43.405 28.400 C 43.072 28.400,42.800 28.580,42.800 28.800 C 42.800 29.020,42.564 29.200,42.275 29.200 C 41.987 29.200,41.364 29.560,40.892 30.000 C 40.420 30.440,39.796 30.800,39.505 30.800 C 39.214 30.800,38.717 31.160,38.400 31.600 C 38.083 32.040,37.602 32.400,37.331 32.400 C 36.689 32.400,30.800 38.289,30.800 38.931 C 30.800 39.202,30.440 39.683,30.000 40.000 C 29.560 40.317,29.200 40.897,29.200 41.288 C 29.200 41.680,29.048 42.000,28.863 42.000 C 28.541 42.000,27.577 43.790,26.280 46.800 C 25.364 48.924,24.805 51.234,24.802 52.900 C 24.801 53.725,24.620 54.400,24.400 54.400 C 24.153 54.400,24.000 56.467,24.000 59.800 C 24.000 63.133,24.153 65.200,24.400 65.200 C 24.620 65.200,24.800 66.004,24.800 66.986 C 24.800 68.703,25.603 71.842,26.413 73.295 C 26.626 73.677,26.800 74.262,26.800 74.595 C 26.800 74.928,26.980 75.200,27.200 75.200 C 27.420 75.200,27.600 75.560,27.600 76.000 C 27.600 76.440,27.780 76.800,28.000 76.800 C 28.220 76.800,28.400 77.036,28.400 77.325 C 28.400 77.613,28.760 78.236,29.200 78.708 C 29.640 79.180,30.000 79.739,30.000 79.950 C 30.000 80.548,37.489 88.000,38.089 88.000 C 38.383 88.000,38.883 88.360,39.200 88.800 C 39.517 89.240,40.020 89.600,40.317 89.600 C 40.614 89.600,41.133 89.876,41.470 90.213 C 41.807 90.549,42.874 91.037,43.841 91.295 C 44.808 91.554,45.600 91.909,45.600 92.083 C 45.600 92.257,46.140 92.400,46.800 92.400 C 47.460 92.400,48.000 92.580,48.000 92.800 C 48.000 93.020,48.720 93.200,49.600 93.200 C 50.480 93.200,51.200 93.380,51.200 93.600 C 51.200 93.864,67.200 94.000,98.400 94.000 C 129.600 94.000,145.600 93.864,145.600 93.600 C 145.600 93.380,146.219 93.200,146.976 93.200 C 147.733 93.200,148.464 93.020,148.600 92.800 C 148.736 92.580,149.197 92.400,149.624 92.400 C 150.051 92.400,150.400 92.220,150.400 92.000 C 150.400 91.780,150.718 91.600,151.106 91.600 C 152.029 91.600,154.680 90.174,156.219 88.849 C 156.889 88.272,157.924 87.442,158.519 87.005 C 159.113 86.568,159.600 85.983,159.600 85.705 C 159.600 85.427,159.780 85.200,160.000 85.200 C 160.220 85.200,160.400 85.018,160.400 84.796 C 160.400 84.574,160.940 83.828,161.600 83.137 C 162.260 82.446,162.800 81.638,162.800 81.341 C 162.800 81.043,162.980 80.800,163.200 80.800 C 163.420 80.800,163.600 80.440,163.600 80.000 C 163.600 79.560,163.780 79.200,164.000 79.200 C 164.220 79.200,164.400 78.840,164.400 78.400 C 164.400 77.960,164.580 77.600,164.800 77.600 C 165.020 77.600,165.200 77.060,165.200 76.400 C 165.200 75.740,165.380 75.200,165.600 75.200 C 165.820 75.200,166.000 74.570,166.000 73.800 C 166.000 73.030,166.180 72.400,166.400 72.400 C 166.648 72.400,166.800 70.267,166.800 66.800 C 166.800 63.333,166.648 61.200,166.400 61.200 C 166.180 61.200,166.000 60.570,166.000 59.800 C 166.000 59.030,165.820 58.400,165.600 58.400 C 165.380 58.400,165.200 57.860,165.200 57.200 C 165.200 56.540,165.020 56.000,164.800 56.000 C 164.580 56.000,164.400 55.640,164.400 55.200 C 164.400 54.760,164.220 54.400,164.000 54.400 C 163.780 54.400,163.600 54.040,163.600 53.600 C 163.600 53.160,163.420 52.800,163.200 52.800 C 162.980 52.800,162.800 52.480,162.800 52.088 C 162.800 51.697,162.440 51.117,162.000 50.800 C 161.560 50.483,161.200 49.993,161.200 49.712 C 161.200 49.430,161.020 49.200,160.800 49.200 C 160.580 49.200,160.400 49.014,160.400 48.787 C 160.400 47.879,153.718 42.400,152.612 42.400 C 152.305 42.400,149.881 41.386,148.705 40.766 C 148.323 40.565,147.468 40.400,146.805 40.400 C 146.142 40.400,145.600 40.220,145.600 40.000 C 145.600 39.778,144.536 39.600,143.208 39.600 C 140.921 39.600,140.805 39.552,140.584 38.500 C 140.089 36.147,138.585 31.604,138.300 31.602 C 138.135 31.601,138.000 31.328,138.000 30.995 C 138.000 30.662,137.841 30.077,137.647 29.695 C 137.452 29.313,137.064 28.508,136.783 27.907 C 136.502 27.305,135.941 26.458,135.536 26.023 C 135.131 25.589,134.800 24.996,134.800 24.705 C 134.800 24.414,134.440 23.917,134.000 23.600 C 133.560 23.283,133.200 22.775,133.200 22.472 C 133.200 22.169,132.704 21.444,132.098 20.860 C 131.493 20.277,130.368 18.960,129.598 17.933 C 128.829 16.907,127.724 15.783,127.142 15.436 C 126.561 15.089,125.454 14.174,124.682 13.402 C 123.911 12.631,123.164 12.000,123.023 12.000 C 122.882 12.000,122.380 11.640,121.908 11.200 C 121.436 10.760,120.813 10.400,120.525 10.400 C 120.236 10.400,120.000 10.253,120.000 10.074 C 120.000 9.676,117.399 8.400,116.586 8.400 C 116.264 8.400,116.000 8.220,116.000 8.000 C 116.000 7.780,115.640 7.600,115.200 7.600 C 114.760 7.600,114.400 7.420,114.400 7.200 C 114.400 6.980,113.860 6.800,113.200 6.800 C 112.540 6.800,112.000 6.620,112.000 6.400 C 112.000 6.180,111.460 6.000,110.800 6.000 C 110.140 6.000,109.600 5.820,109.600 5.600 C 109.600 5.380,109.060 5.200,108.400 5.200 C 107.740 5.200,107.200 5.020,107.200 4.800 C 107.200 4.580,106.390 4.400,105.400 4.400 C 104.410 4.400,103.600 4.220,103.600 4.000 C 103.600 3.747,100.733 3.600,95.800 3.600 C 90.867 3.600,88.000 3.747,88.000 4.000 M100.767 16.835 C 115.836 19.325,126.561 30.881,128.592 46.813 C 129.163 51.291,131.160 52.571,137.400 52.459 C 154.818 52.146,160.483 72.721,145.000 80.061 L 142.600 81.199 98.800 81.195 C 62.201 81.192,54.694 81.098,53.136 80.626 C 28.944 73.284,34.387 38.400,59.724 38.400 C 62.198 38.400,64.066 37.384,65.390 35.319 C 65.836 34.625,66.870 32.989,67.689 31.683 C 74.514 20.808,88.047 14.733,100.767 16.835 M284.238 57.939 C 284.123 58.125,282.104 58.387,279.753 58.520 C 277.402 58.653,275.289 58.951,275.059 59.181 C 274.829 59.411,274.057 59.600,273.344 59.600 C 272.631 59.600,271.936 59.780,271.800 60.000 C 271.664 60.220,271.023 60.400,270.376 60.400 C 269.729 60.400,269.200 60.580,269.200 60.800 C 269.200 61.020,268.761 61.200,268.224 61.200 C 267.687 61.200,267.136 61.380,267.000 61.600 C 266.864 61.820,266.403 62.000,265.976 62.000 C 265.549 62.000,265.200 62.180,265.200 62.400 C 265.200 62.620,264.948 62.800,264.641 62.800 C 264.333 62.800,263.028 63.366,261.741 64.059 C 260.453 64.751,258.996 65.516,258.503 65.759 C 258.010 66.001,257.605 66.335,257.603 66.500 C 257.601 66.665,257.280 66.800,256.888 66.800 C 256.497 66.800,255.917 67.160,255.600 67.600 C 255.283 68.040,254.775 68.400,254.472 68.400 C 254.169 68.400,253.417 68.940,252.800 69.600 C 252.183 70.260,251.495 70.800,251.271 70.800 C 250.672 70.800,242.000 79.312,242.000 79.900 C 242.000 80.175,241.820 80.400,241.600 80.400 C 241.380 80.400,241.200 80.630,241.200 80.912 C 241.200 81.193,240.840 81.683,240.400 82.000 C 239.960 82.317,239.600 82.857,239.600 83.200 C 239.600 83.543,239.240 84.083,238.800 84.400 C 238.360 84.717,238.000 85.257,238.000 85.600 C 238.000 85.943,237.640 86.483,237.200 86.800 C 236.760 87.117,236.400 87.697,236.400 88.088 C 236.400 88.480,236.220 88.800,236.000 88.800 C 235.780 88.800,235.600 89.160,235.600 89.600 C 235.600 90.040,235.420 90.400,235.200 90.400 C 234.980 90.400,234.800 90.760,234.800 91.200 C 234.800 91.640,234.665 92.001,234.500 92.003 C 234.141 92.007,233.200 93.944,233.200 94.680 C 233.200 94.966,233.020 95.200,232.800 95.200 C 232.580 95.200,232.400 95.650,232.400 96.200 C 232.400 96.750,232.220 97.200,232.000 97.200 C 231.780 97.200,231.600 97.740,231.600 98.400 C 231.600 99.060,231.420 99.600,231.200 99.600 C 230.980 99.600,230.800 100.129,230.800 100.776 C 230.800 101.423,230.620 102.064,230.400 102.200 C 230.180 102.336,230.000 103.056,230.000 103.800 C 230.000 104.544,229.820 105.264,229.600 105.400 C 229.380 105.536,229.200 106.357,229.200 107.224 L 229.200 108.800 226.424 108.800 C 224.897 108.800,223.536 108.980,223.400 109.200 C 223.264 109.420,222.591 109.600,221.905 109.600 C 220.662 109.600,218.426 110.182,217.105 110.849 C 216.723 111.042,216.138 111.200,215.805 111.200 C 215.472 111.200,215.200 111.380,215.200 111.600 C 215.200 111.820,214.947 112.000,214.638 112.000 C 213.972 112.000,210.659 113.668,210.467 114.100 C 210.393 114.265,210.118 114.400,209.855 114.400 C 209.592 114.400,209.117 114.760,208.800 115.200 C 208.483 115.640,207.982 116.000,207.687 116.000 C 207.065 116.000,200.400 122.668,200.400 123.290 C 200.400 123.519,200.085 123.999,199.700 124.357 C 199.315 124.716,198.758 125.436,198.462 125.959 C 198.167 126.482,197.582 127.520,197.162 128.267 C 196.743 129.014,196.400 129.889,196.400 130.212 C 196.400 130.535,196.220 130.800,196.000 130.800 C 195.780 130.800,195.600 131.072,195.600 131.405 C 195.600 131.738,195.442 132.323,195.249 132.705 C 194.582 134.026,194.000 136.262,194.000 137.505 C 194.000 138.191,193.820 138.864,193.600 139.000 C 193.361 139.147,193.200 141.730,193.200 145.400 C 193.200 149.070,193.361 151.653,193.600 151.800 C 193.820 151.936,194.000 152.746,194.000 153.600 C 194.000 154.454,194.180 155.264,194.400 155.400 C 194.620 155.536,194.800 156.177,194.800 156.824 C 194.800 157.471,194.947 158.000,195.128 158.000 C 195.308 158.000,195.700 158.900,196.000 160.000 C 196.300 161.100,196.692 162.000,196.872 162.000 C 197.053 162.000,197.200 162.236,197.200 162.525 C 197.200 162.813,197.560 163.436,198.000 163.908 C 198.440 164.380,198.800 165.044,198.800 165.383 C 198.800 165.722,198.950 166.000,199.132 166.000 C 199.315 166.000,199.720 166.494,200.032 167.098 C 200.763 168.512,207.467 175.200,208.153 175.200 C 208.441 175.200,209.002 175.560,209.400 176.000 C 209.798 176.440,210.366 176.800,210.662 176.800 C 210.958 176.800,211.200 176.980,211.200 177.200 C 211.200 177.420,211.560 177.600,212.000 177.600 C 212.440 177.600,212.800 177.780,212.800 178.000 C 212.800 178.220,213.160 178.400,213.600 178.400 C 214.040 178.400,214.400 178.580,214.400 178.800 C 214.400 179.020,214.760 179.200,215.200 179.200 C 215.640 179.200,216.000 179.380,216.000 179.600 C 216.000 179.820,216.540 180.000,217.200 180.000 C 217.860 180.000,218.400 180.180,218.400 180.400 C 218.400 180.620,219.120 180.800,220.000 180.800 C 220.880 180.800,221.600 180.980,221.600 181.200 C 221.600 181.465,242.992 181.600,284.976 181.600 C 326.796 181.600,348.437 181.464,348.600 181.200 C 348.736 180.980,349.557 180.800,350.424 180.800 C 351.291 180.800,352.000 180.620,352.000 180.400 C 352.000 180.180,352.540 180.000,353.200 180.000 C 353.860 180.000,354.400 179.820,354.400 179.600 C 354.400 179.380,354.839 179.200,355.376 179.200 C 355.913 179.200,356.464 179.020,356.600 178.800 C 356.736 178.580,357.197 178.400,357.624 178.400 C 358.051 178.400,358.400 178.220,358.400 178.000 C 358.400 177.780,358.810 177.600,359.312 177.600 C 359.813 177.600,360.483 177.240,360.800 176.800 C 361.117 176.360,361.697 176.000,362.088 176.000 C 362.480 176.000,362.800 175.820,362.800 175.600 C 362.800 175.380,363.147 175.200,363.571 175.200 C 363.996 175.200,364.613 174.930,364.943 174.600 C 365.273 174.270,365.709 174.000,365.912 174.000 C 366.115 174.000,366.846 173.460,367.537 172.800 C 368.228 172.140,368.942 171.600,369.124 171.600 C 369.642 171.600,375.200 165.753,375.200 165.208 C 375.200 164.940,375.740 164.217,376.400 163.600 C 377.060 162.983,377.600 162.231,377.600 161.928 C 377.600 161.625,377.960 161.117,378.400 160.800 C 378.840 160.483,379.200 159.903,379.200 159.512 C 379.200 159.120,379.346 158.800,379.525 158.800 C 379.704 158.800,380.098 158.170,380.400 157.400 C 380.702 156.630,381.096 156.000,381.275 156.000 C 381.454 156.000,381.600 155.640,381.600 155.200 C 381.600 154.760,381.780 154.400,382.000 154.400 C 382.220 154.400,382.400 153.961,382.400 153.424 C 382.400 152.887,382.580 152.336,382.800 152.200 C 383.020 152.064,383.200 151.524,383.200 151.000 C 383.200 150.476,383.380 149.936,383.600 149.800 C 383.820 149.664,384.000 149.023,384.000 148.376 C 384.000 147.729,384.180 147.200,384.400 147.200 C 384.620 147.200,384.800 146.300,384.800 145.200 C 384.800 144.100,384.980 143.200,385.200 143.200 C 385.453 143.200,385.600 140.408,385.600 135.624 C 385.600 131.004,385.444 127.951,385.200 127.800 C 384.980 127.664,384.800 126.753,384.800 125.776 C 384.800 124.799,384.620 124.000,384.400 124.000 C 384.180 124.000,384.000 123.471,384.000 122.824 C 384.000 122.177,383.820 121.536,383.600 121.400 C 383.380 121.264,383.200 120.713,383.200 120.176 C 383.200 119.639,383.020 119.200,382.800 119.200 C 382.580 119.200,382.400 118.660,382.400 118.000 C 382.400 117.340,382.220 116.800,382.000 116.800 C 381.780 116.800,381.600 116.440,381.600 116.000 C 381.600 115.560,381.420 115.200,381.200 115.200 C 380.980 115.200,380.800 114.840,380.800 114.400 C 380.800 113.960,380.620 113.600,380.400 113.600 C 380.180 113.600,380.000 113.240,380.000 112.800 C 380.000 112.360,379.820 112.000,379.600 112.000 C 379.380 112.000,379.200 111.730,379.200 111.400 C 379.200 111.070,379.020 110.800,378.800 110.800 C 378.580 110.800,378.400 110.530,378.400 110.200 C 378.400 109.870,378.220 109.600,378.000 109.600 C 377.780 109.600,377.600 109.414,377.600 109.187 C 377.600 108.959,376.970 108.143,376.200 107.373 C 375.430 106.603,374.800 105.806,374.800 105.601 C 374.800 105.115,370.403 100.400,369.949 100.400 C 369.758 100.400,368.859 99.680,367.952 98.800 C 367.045 97.920,366.138 97.200,365.935 97.200 C 365.732 97.200,365.180 96.840,364.708 96.400 C 364.236 95.960,363.613 95.600,363.325 95.600 C 363.036 95.600,362.800 95.420,362.800 95.200 C 362.800 94.980,362.440 94.800,362.000 94.800 C 361.560 94.800,361.200 94.620,361.200 94.400 C 361.200 94.180,360.840 94.000,360.400 94.000 C 359.960 94.000,359.600 93.849,359.600 93.665 C 359.600 93.481,358.565 92.994,357.300 92.583 C 356.035 92.172,354.829 91.693,354.620 91.518 C 354.411 91.343,353.556 91.200,352.720 91.200 C 351.884 91.200,351.200 91.020,351.200 90.800 C 351.200 90.580,350.480 90.400,349.600 90.400 C 348.720 90.400,348.000 90.220,348.000 90.000 C 348.000 89.774,346.854 89.600,345.363 89.600 C 343.062 89.600,342.698 89.498,342.516 88.800 C 342.401 88.360,342.148 88.000,341.953 88.000 C 341.759 88.000,341.600 87.653,341.600 87.229 C 341.600 86.804,341.375 86.219,341.100 85.929 C 340.825 85.638,340.345 84.905,340.032 84.300 C 339.720 83.695,339.315 83.200,339.132 83.200 C 338.950 83.200,338.800 82.973,338.800 82.696 C 338.800 81.685,329.276 71.600,328.321 71.600 C 328.101 71.600,327.417 71.060,326.800 70.400 C 326.183 69.740,325.481 69.200,325.240 69.200 C 324.998 69.200,324.800 69.050,324.800 68.868 C 324.800 68.685,324.305 68.280,323.700 67.968 C 323.095 67.655,322.251 67.085,321.825 66.700 C 321.398 66.315,320.813 66.000,320.525 66.000 C 320.236 66.000,320.000 65.820,320.000 65.600 C 320.000 65.380,319.640 65.200,319.200 65.200 C 318.760 65.200,318.400 65.020,318.400 64.800 C 318.400 64.580,318.040 64.400,317.600 64.400 C 317.160 64.400,316.800 64.220,316.800 64.000 C 316.800 63.780,316.440 63.600,316.000 63.600 C 315.560 63.600,315.200 63.420,315.200 63.200 C 315.200 62.980,314.840 62.800,314.400 62.800 C 313.960 62.800,313.600 62.620,313.600 62.400 C 313.600 62.180,313.238 62.000,312.795 62.000 C 312.352 62.000,311.632 61.820,311.195 61.600 C 310.758 61.380,310.042 61.020,309.605 60.800 C 309.168 60.580,308.536 60.400,308.200 60.400 C 307.864 60.400,307.277 60.241,306.895 60.047 C 305.448 59.313,302.057 58.718,298.100 58.505 C 295.845 58.384,294.000 58.131,294.000 57.943 C 294.000 57.497,284.513 57.494,284.238 57.939 M109.683 63.467 C 105.558 65.500,105.511 71.654,109.602 73.953 C 112.004 75.303,132.401 75.259,134.419 73.899 C 138.226 71.334,138.226 66.266,134.419 63.701 C 132.633 62.498,112.045 62.303,109.683 63.467 M299.000 71.773 C 304.759 73.058,310.283 75.249,313.872 77.672 C 314.792 78.292,315.645 78.800,315.769 78.800 C 318.123 78.800,328.116 89.715,331.463 95.943 C 334.493 101.582,335.651 102.393,340.674 102.398 C 361.466 102.417,377.144 124.156,371.253 144.800 C 371.034 145.570,370.720 146.650,370.555 147.200 C 368.457 154.220,360.862 162.402,353.102 166.001 C 346.639 168.998,351.468 168.800,284.846 168.800 L 225.277 168.800 222.445 167.842 C 205.822 162.218,200.716 139.578,213.537 128.347 C 216.225 125.992,216.808 125.583,219.129 124.425 C 223.300 122.344,224.132 122.195,231.134 122.277 L 237.667 122.354 239.434 120.587 C 240.888 119.133,241.202 118.554,241.214 117.311 C 241.231 115.454,242.195 109.105,242.748 107.200 C 242.972 106.430,243.322 105.170,243.526 104.400 C 249.407 82.216,275.922 66.621,299.000 71.773 M228.346 144.861 C 224.310 147.202,224.340 152.870,228.402 155.153 C 230.552 156.362,281.624 156.496,283.972 155.299 C 288.135 153.176,288.242 147.248,284.158 144.907 L 282.600 144.013 256.200 144.016 C 230.081 144.018,229.785 144.027,228.346 144.861 M156.600 205.600 C 156.452 205.840,153.796 206.000,149.976 206.000 C 145.992 206.000,143.600 206.150,143.600 206.400 C 143.600 206.622,142.533 206.800,141.200 206.800 C 139.867 206.800,138.800 206.978,138.800 207.200 C 138.800 207.420,137.900 207.600,136.800 207.600 C 135.700 207.600,134.800 207.755,134.800 207.944 C 134.800 208.133,133.815 208.390,132.612 208.514 C 130.565 208.725,128.188 209.326,126.800 209.982 C 126.470 210.138,125.345 210.515,124.300 210.820 C 123.255 211.125,122.400 211.515,122.400 211.687 C 122.400 211.859,121.860 212.000,121.200 212.000 C 120.540 212.000,120.000 212.180,120.000 212.400 C 120.000 212.620,119.640 212.800,119.200 212.800 C 118.760 212.800,118.400 212.980,118.400 213.200 C 118.400 213.420,118.148 213.600,117.841 213.600 C 117.533 213.600,116.255 214.140,115.000 214.800 C 113.745 215.460,112.467 216.000,112.159 216.000 C 111.852 216.000,111.600 216.180,111.600 216.400 C 111.600 216.620,111.330 216.800,111.000 216.800 C 110.670 216.800,110.400 216.946,110.400 217.125 C 110.400 217.304,109.770 217.698,109.000 218.000 C 108.230 218.302,107.600 218.696,107.600 218.875 C 107.600 219.054,107.364 219.200,107.075 219.200 C 106.787 219.200,106.164 219.560,105.692 220.000 C 105.220 220.440,104.596 220.800,104.305 220.800 C 104.014 220.800,103.517 221.160,103.200 221.600 C 102.883 222.040,102.420 222.400,102.171 222.400 C 101.922 222.400,101.154 222.940,100.463 223.600 C 99.772 224.260,99.027 224.800,98.807 224.800 C 98.399 224.800,97.024 225.877,95.359 227.500 C 94.852 227.995,94.336 228.400,94.214 228.400 C 93.839 228.400,84.800 237.567,84.800 237.948 C 84.800 238.143,84.125 239.011,83.300 239.877 C 80.725 242.578,76.000 249.084,76.000 249.929 C 76.000 250.134,75.730 250.526,75.400 250.800 C 75.070 251.074,74.800 251.636,74.800 252.049 C 74.800 252.462,74.620 252.800,74.400 252.800 C 74.180 252.800,74.000 253.160,74.000 253.600 C 74.000 254.040,73.865 254.401,73.700 254.401 C 73.535 254.402,72.950 255.392,72.400 256.600 C 71.850 257.808,71.265 258.798,71.100 258.799 C 70.935 258.799,70.800 259.160,70.800 259.600 C 70.800 260.040,70.620 260.400,70.400 260.400 C 70.180 260.400,70.000 260.760,70.000 261.200 C 70.000 261.640,69.820 262.000,69.600 262.000 C 69.380 262.000,69.200 262.349,69.200 262.776 C 69.200 263.203,69.020 263.664,68.800 263.800 C 68.580 263.936,68.400 264.487,68.400 265.024 C 68.400 265.561,68.220 266.000,68.000 266.000 C 67.780 266.000,67.600 266.540,67.600 267.200 C 67.600 267.860,67.420 268.400,67.200 268.400 C 66.980 268.400,66.800 268.839,66.800 269.376 C 66.800 269.913,66.620 270.464,66.400 270.600 C 66.180 270.736,66.000 271.377,66.000 272.024 C 66.000 272.671,65.820 273.200,65.600 273.200 C 65.380 273.200,65.200 273.729,65.200 274.376 C 65.200 275.023,65.020 275.664,64.800 275.800 C 64.580 275.936,64.400 276.757,64.400 277.624 C 64.400 278.491,64.220 279.200,64.000 279.200 C 63.780 279.200,63.600 280.100,63.600 281.200 C 63.600 282.300,63.420 283.200,63.200 283.200 C 62.980 283.200,62.800 284.100,62.800 285.200 L 62.800 287.200 56.200 287.200 C 52.067 287.200,49.600 287.349,49.600 287.600 C 49.600 287.820,48.801 288.000,47.824 288.000 C 46.847 288.000,45.936 288.180,45.800 288.400 C 45.664 288.620,45.023 288.800,44.376 288.800 C 43.729 288.800,43.200 288.980,43.200 289.200 C 43.200 289.420,42.750 289.600,42.200 289.600 C 41.650 289.600,41.200 289.780,41.200 290.000 C 41.200 290.220,40.660 290.400,40.000 290.400 C 39.340 290.400,38.800 290.580,38.800 290.800 C 38.800 291.020,38.558 291.200,38.261 291.200 C 37.760 291.200,35.917 291.957,34.305 292.826 C 33.923 293.032,33.338 293.200,33.005 293.200 C 32.672 293.200,32.400 293.380,32.400 293.600 C 32.400 293.820,32.164 294.000,31.875 294.000 C 31.587 294.000,31.002 294.315,30.575 294.700 C 30.149 295.085,29.305 295.655,28.700 295.968 C 28.095 296.280,27.600 296.685,27.600 296.868 C 27.600 297.050,27.427 297.200,27.215 297.200 C 26.346 297.200,16.000 307.481,16.000 308.344 C 16.000 308.527,15.640 309.002,15.200 309.400 C 14.760 309.798,14.400 310.284,14.400 310.479 C 14.400 310.674,14.040 311.220,13.600 311.692 C 13.160 312.164,12.800 312.787,12.800 313.075 C 12.800 313.364,12.620 313.600,12.400 313.600 C 12.180 313.600,12.000 313.960,12.000 314.400 C 12.000 314.840,11.820 315.200,11.600 315.200 C 11.380 315.200,11.200 315.560,11.200 316.000 C 11.200 316.440,11.020 316.800,10.800 316.800 C 10.580 316.800,10.400 317.160,10.400 317.600 C 10.400 318.040,10.260 318.400,10.089 318.400 C 9.712 318.400,8.400 322.687,8.400 323.920 C 8.400 324.404,8.220 324.800,8.000 324.800 C 7.780 324.800,7.600 325.340,7.600 326.000 C 7.600 326.660,7.420 327.200,7.200 327.200 C 6.980 327.200,6.800 328.010,6.800 329.000 C 6.800 329.990,6.620 330.800,6.400 330.800 C 6.144 330.800,6.000 334.333,6.000 340.600 C 6.000 346.867,6.144 350.400,6.400 350.400 C 6.620 350.400,6.800 351.199,6.800 352.176 C 6.800 353.153,6.980 354.064,7.200 354.200 C 7.420 354.336,7.600 354.977,7.600 355.624 C 7.600 356.271,7.780 356.800,8.000 356.800 C 8.220 356.800,8.400 357.106,8.400 357.480 C 8.400 358.562,9.745 362.800,10.089 362.800 C 10.260 362.800,10.400 363.160,10.400 363.600 C 10.400 364.040,10.580 364.400,10.800 364.400 C 11.020 364.400,11.200 364.760,11.200 365.200 C 11.200 365.640,11.380 366.000,11.600 366.000 C 11.820 366.000,12.000 366.360,12.000 366.800 C 12.000 367.240,12.180 367.600,12.400 367.600 C 12.620 367.600,12.800 367.836,12.800 368.125 C 12.800 368.413,13.115 368.998,13.500 369.425 C 13.885 369.851,14.455 370.695,14.768 371.300 C 15.080 371.905,15.485 372.400,15.668 372.400 C 15.850 372.400,16.000 372.593,16.000 372.829 C 16.000 373.737,26.295 384.000,27.206 384.000 C 27.423 384.000,27.600 384.150,27.600 384.332 C 27.600 384.515,28.095 384.920,28.700 385.232 C 29.305 385.545,30.149 386.115,30.575 386.500 C 31.002 386.885,31.587 387.200,31.875 387.200 C 32.164 387.200,32.400 387.380,32.400 387.600 C 32.400 387.820,32.760 388.000,33.200 388.000 C 33.640 388.000,34.000 388.180,34.000 388.400 C 34.000 388.620,34.360 388.800,34.800 388.800 C 35.240 388.800,35.600 388.980,35.600 389.200 C 35.600 389.420,35.960 389.600,36.400 389.600 C 36.840 389.600,37.200 389.740,37.200 389.911 C 37.200 390.255,41.438 391.600,42.520 391.600 C 42.894 391.600,43.200 391.780,43.200 392.000 C 43.200 392.220,43.830 392.400,44.600 392.400 C 45.370 392.400,46.000 392.580,46.000 392.800 C 46.000 393.020,46.810 393.200,47.800 393.200 C 48.790 393.200,49.600 393.380,49.600 393.600 C 49.600 393.859,54.392 394.000,63.176 394.000 C 71.796 394.000,76.843 394.146,77.000 394.400 C 77.343 394.954,245.600 394.954,245.600 394.400 C 245.600 394.165,246.992 394.000,248.976 394.000 C 250.833 394.000,252.464 393.820,252.600 393.600 C 252.736 393.380,253.557 393.200,254.424 393.200 C 255.291 393.200,256.000 393.020,256.000 392.800 C 256.000 392.580,256.630 392.400,257.400 392.400 C 258.170 392.400,258.800 392.220,258.800 392.000 C 258.800 391.780,259.196 391.600,259.680 391.600 C 260.913 391.600,265.200 390.288,265.200 389.911 C 265.200 389.740,265.436 389.600,265.725 389.600 C 266.192 389.600,268.781 388.519,270.400 387.648 C 271.903 386.839,273.017 386.183,273.200 385.999 C 273.310 385.889,273.868 385.558,274.439 385.264 C 275.011 384.970,275.984 384.296,276.602 383.765 C 277.219 383.234,277.854 382.800,278.012 382.800 C 278.170 382.800,278.987 382.170,279.828 381.400 C 280.669 380.630,281.492 380.000,281.657 380.000 C 282.222 380.000,291.600 370.645,291.600 370.082 C 291.600 369.774,292.140 369.017,292.800 368.400 C 293.460 367.783,294.000 367.031,294.000 366.728 C 294.000 366.425,294.360 365.917,294.800 365.600 C 295.240 365.283,295.600 364.743,295.600 364.400 C 295.600 364.057,295.960 363.517,296.400 363.200 C 296.840 362.883,297.200 362.303,297.200 361.912 C 297.200 361.520,297.380 361.200,297.600 361.200 C 297.820 361.200,298.000 360.840,298.000 360.400 C 298.000 359.960,298.180 359.600,298.400 359.600 C 298.620 359.600,298.800 359.330,298.800 359.000 C 298.800 358.670,298.935 358.399,299.100 358.397 C 299.459 358.393,300.400 356.456,300.400 355.720 C 300.400 355.434,300.580 355.200,300.800 355.200 C 301.020 355.200,301.200 354.840,301.200 354.400 C 301.200 353.960,301.380 353.600,301.600 353.600 C 301.820 353.600,302.000 353.251,302.000 352.824 C 302.000 352.397,302.180 351.936,302.400 351.800 C 302.620 351.664,302.800 351.113,302.800 350.576 C 302.800 350.039,302.980 349.600,303.200 349.600 C 303.420 349.600,303.600 349.060,303.600 348.400 C 303.600 347.740,303.780 347.200,304.000 347.200 C 304.220 347.200,304.400 346.671,304.400 346.024 C 304.400 345.377,304.561 344.748,304.758 344.626 C 305.098 344.416,305.317 343.360,305.823 339.500 C 305.945 338.565,306.204 337.440,306.397 337.000 C 306.865 335.934,307.306 330.344,307.311 325.400 C 307.315 321.858,307.122 319.558,306.168 311.800 C 306.033 310.700,305.760 309.629,305.561 309.420 C 305.363 309.211,305.200 308.457,305.200 307.744 C 305.200 307.031,305.020 306.336,304.800 306.200 C 304.580 306.064,304.400 305.423,304.400 304.776 C 304.400 304.129,304.220 303.600,304.000 303.600 C 303.780 303.600,303.600 303.060,303.600 302.400 C 303.600 301.740,303.420 301.200,303.200 301.200 C 302.980 301.200,302.800 300.761,302.800 300.224 C 302.800 299.687,302.620 299.136,302.400 299.000 C 302.180 298.864,302.000 298.403,302.000 297.976 C 302.000 297.549,301.820 297.200,301.600 297.200 C 301.380 297.200,301.200 296.840,301.200 296.400 C 301.200 295.960,301.020 295.600,300.800 295.600 C 300.580 295.600,300.400 295.366,300.400 295.080 C 300.400 294.344,299.459 292.407,299.100 292.403 C 298.935 292.401,298.800 292.130,298.800 291.800 C 298.800 291.470,298.620 291.200,298.400 291.200 C 298.180 291.200,298.000 290.840,298.000 290.400 C 298.000 289.960,297.820 289.600,297.600 289.600 C 297.380 289.600,297.200 289.280,297.200 288.888 C 297.200 288.497,296.840 287.917,296.400 287.600 C 295.960 287.283,295.600 286.743,295.600 286.400 C 295.600 286.057,295.240 285.517,294.800 285.200 C 294.360 284.883,294.000 284.375,294.000 284.072 C 294.000 283.769,293.487 283.042,292.859 282.455 C 292.232 281.869,291.437 280.852,291.092 280.195 C 290.419 278.912,283.007 271.600,282.379 271.600 C 282.171 271.600,281.259 270.880,280.352 270.000 C 279.445 269.120,278.495 268.400,278.240 268.400 C 277.985 268.400,277.517 268.040,277.200 267.600 C 276.883 267.160,276.386 266.800,276.095 266.800 C 275.804 266.800,275.180 266.440,274.708 266.000 C 274.236 265.560,273.344 264.976,272.725 264.703 C 272.106 264.429,271.600 264.069,271.600 263.902 C 271.600 263.736,271.240 263.600,270.800 263.600 C 270.360 263.600,270.000 263.420,270.000 263.200 C 270.000 262.980,269.640 262.800,269.200 262.800 C 268.760 262.800,268.400 262.620,268.400 262.400 C 268.400 262.180,268.040 262.000,267.600 262.000 C 267.160 262.000,266.800 261.820,266.800 261.600 C 266.800 261.380,266.528 261.200,266.195 261.200 C 265.862 261.200,265.277 261.041,264.895 260.847 C 262.382 259.568,258.701 258.400,257.186 258.400 C 256.534 258.400,256.000 258.220,256.000 258.000 C 256.000 257.780,255.280 257.600,254.400 257.600 C 253.520 257.600,252.800 257.420,252.800 257.200 C 252.800 256.980,251.900 256.800,250.800 256.800 C 249.700 256.800,248.800 256.620,248.800 256.400 C 248.800 256.157,247.000 256.000,244.200 256.000 C 239.867 256.000,239.600 255.954,239.600 255.200 C 239.600 254.760,239.420 254.400,239.200 254.400 C 238.980 254.400,238.800 254.040,238.800 253.600 C 238.800 253.160,238.620 252.800,238.400 252.800 C 238.180 252.800,238.000 252.564,238.000 252.275 C 238.000 251.987,237.640 251.364,237.200 250.892 C 236.760 250.420,236.400 249.756,236.400 249.417 C 236.400 249.078,236.250 248.800,236.068 248.800 C 235.885 248.800,235.481 248.305,235.170 247.700 C 234.860 247.095,234.333 246.330,234.000 246.000 C 233.667 245.670,233.140 244.905,232.830 244.300 C 232.519 243.695,232.115 243.200,231.932 243.200 C 231.750 243.200,231.600 243.006,231.600 242.769 C 231.600 242.531,230.880 241.646,230.000 240.800 C 229.120 239.954,228.400 239.097,228.400 238.895 C 228.400 238.693,227.635 237.708,226.700 236.707 C 220.108 229.649,220.688 230.205,216.592 227.000 C 215.748 226.340,214.833 225.575,214.558 225.300 C 214.282 225.025,213.847 224.800,213.589 224.800 C 213.332 224.800,212.617 224.260,212.000 223.600 C 211.383 222.940,210.657 222.400,210.386 222.400 C 210.116 222.400,209.603 222.084,209.247 221.697 C 208.891 221.311,208.108 220.742,207.507 220.433 C 206.905 220.125,206.058 219.541,205.623 219.136 C 205.189 218.731,204.556 218.400,204.217 218.400 C 203.878 218.400,203.600 218.220,203.600 218.000 C 203.600 217.780,203.240 217.600,202.800 217.600 C 202.360 217.600,202.000 217.439,202.000 217.242 C 202.000 216.803,195.527 213.600,194.639 213.600 C 194.288 213.600,194.000 213.420,194.000 213.200 C 194.000 212.980,193.640 212.800,193.200 212.800 C 192.760 212.800,192.400 212.620,192.400 212.400 C 192.400 212.180,192.038 212.000,191.595 212.000 C 191.152 212.000,190.477 211.841,190.095 211.647 C 188.855 211.016,187.433 210.463,185.800 209.975 C 184.920 209.713,183.776 209.336,183.258 209.138 C 182.740 208.941,181.255 208.668,179.958 208.533 C 178.661 208.397,177.600 208.132,177.600 207.943 C 177.600 207.754,176.700 207.600,175.600 207.600 C 174.500 207.600,173.600 207.420,173.600 207.200 C 173.600 206.978,172.533 206.800,171.200 206.800 C 169.867 206.800,168.800 206.622,168.800 206.400 C 168.800 206.153,166.733 206.000,163.400 206.000 C 160.067 206.000,158.000 205.847,158.000 205.600 C 158.000 205.380,157.741 205.200,157.424 205.200 C 157.107 205.200,156.736 205.380,156.600 205.600 M162.709 218.807 C 173.131 219.602,185.382 223.019,193.200 227.311 C 193.970 227.734,195.320 228.467,196.200 228.940 C 197.080 229.413,197.890 229.890,198.000 230.000 C 198.110 230.110,198.725 230.494,199.366 230.854 C 204.802 233.904,213.544 241.540,218.570 247.627 C 223.029 253.028,225.301 256.446,228.791 263.006 C 231.372 267.857,232.387 268.587,236.400 268.479 C 255.031 267.976,273.811 277.691,284.188 293.200 C 287.070 297.508,290.074 303.565,291.229 307.400 C 291.494 308.280,291.852 309.360,292.025 309.800 C 293.140 312.637,293.777 318.160,293.777 325.000 C 293.777 331.840,293.140 337.363,292.025 340.200 C 291.852 340.640,291.494 341.720,291.229 342.600 C 290.743 344.213,290.636 344.495,289.402 347.400 C 286.146 355.066,281.216 361.704,273.905 368.267 C 269.108 372.573,259.158 377.829,252.600 379.520 C 251.720 379.747,250.280 380.152,249.400 380.421 C 245.950 381.474,60.066 382.200,53.633 381.185 C 44.547 379.751,36.386 375.564,30.150 369.137 C 27.787 366.702,23.200 360.563,23.200 359.836 C 23.200 359.726,22.671 358.503,22.023 357.118 C 15.053 342.201,18.655 323.526,30.803 311.600 C 40.661 301.922,50.242 299.057,68.200 300.416 C 72.401 300.734,74.343 299.013,74.880 294.498 C 75.410 290.044,75.945 286.317,76.359 284.200 C 80.446 263.301,92.357 245.254,110.483 232.500 C 111.499 231.785,112.454 231.200,112.604 231.200 C 112.754 231.200,113.354 230.861,113.938 230.447 C 116.933 228.324,125.637 224.000,126.916 224.000 C 127.204 224.000,127.611 223.849,127.820 223.664 C 128.320 223.222,135.451 221.054,139.000 220.265 C 146.254 218.652,154.241 218.161,162.709 218.807 M59.840 357.365 C 55.909 359.658,55.538 364.771,59.112 367.400 C 60.199 368.199,122.216 368.934,126.309 368.196 C 131.615 367.240,132.528 360.076,127.689 357.360 L 125.979 356.400 93.689 356.428 L 61.400 356.455 59.840 357.365 M141.000 357.387 C 136.548 359.980,136.973 366.179,141.726 367.975 C 143.563 368.669,151.040 368.514,152.653 367.748 C 157.166 365.606,156.795 358.952,152.051 356.965 C 149.719 355.988,142.959 356.246,141.000 357.387 " stroke="none" fill="#040404" fill-rule="evenodd"></path><path id="path1" d="M147.600 219.793 C 141.398 220.528,138.966 221.019,132.400 222.862 C 131.630 223.079,130.592 223.355,130.094 223.476 C 129.596 223.597,129.090 223.854,128.970 224.048 C 128.851 224.241,128.324 224.400,127.800 224.400 C 127.276 224.400,126.736 224.580,126.600 224.800 C 126.464 225.020,126.003 225.200,125.576 225.200 C 125.149 225.200,124.800 225.380,124.800 225.600 C 124.800 225.820,124.451 226.000,124.024 226.000 C 123.597 226.000,123.136 226.180,123.000 226.400 C 122.864 226.620,122.418 226.800,122.010 226.800 C 121.601 226.800,121.207 226.935,121.133 227.100 C 121.060 227.265,120.100 227.848,119.000 228.395 C 117.900 228.942,116.910 229.482,116.800 229.595 C 116.690 229.708,116.195 230.025,115.700 230.300 C 113.440 231.555,112.997 231.832,112.487 232.300 C 112.188 232.575,111.789 232.800,111.600 232.800 C 111.411 232.800,111.019 233.031,110.729 233.313 C 110.438 233.595,109.570 234.262,108.800 234.795 C 97.847 242.375,86.785 256.345,81.952 268.700 C 81.197 270.631,80.692 271.829,80.353 272.495 C 80.159 272.877,80.000 273.541,80.000 273.971 C 80.000 274.401,79.820 274.864,79.600 275.000 C 79.380 275.136,79.200 275.676,79.200 276.200 C 79.200 276.724,79.020 277.264,78.800 277.400 C 78.580 277.536,78.400 278.256,78.400 279.000 C 78.400 279.744,78.239 280.452,78.042 280.574 C 77.684 280.795,77.363 282.446,76.948 286.200 C 76.826 287.300,76.563 288.371,76.363 288.580 C 76.163 288.789,76.000 290.443,76.000 292.256 C 76.000 294.069,75.820 295.664,75.600 295.800 C 75.380 295.936,75.200 296.481,75.200 297.010 C 75.200 300.318,71.098 301.817,64.367 300.970 C 57.469 300.101,52.822 300.632,45.600 303.111 C 43.950 303.678,41.970 304.497,41.200 304.932 C 40.430 305.367,39.143 306.079,38.340 306.514 C 37.537 306.950,36.428 307.687,35.876 308.153 C 35.324 308.619,34.101 309.630,33.160 310.400 C 31.305 311.917,29.060 314.244,28.058 315.691 C 27.711 316.191,27.135 316.918,26.778 317.307 C 26.420 317.695,25.874 318.505,25.565 319.107 C 25.255 319.708,24.907 320.290,24.793 320.400 C 23.960 321.198,21.590 326.938,20.665 330.400 C 18.597 338.132,18.942 344.981,21.902 355.000 C 22.196 355.993,25.253 362.127,25.591 362.400 C 25.727 362.510,26.277 363.230,26.812 364.000 C 28.994 367.138,32.901 371.046,36.000 373.192 C 36.770 373.725,37.490 374.260,37.600 374.381 C 38.540 375.412,44.729 378.195,48.200 379.148 C 49.080 379.390,50.610 379.815,51.600 380.094 C 54.434 380.891,244.342 380.546,248.000 379.737 C 249.430 379.421,251.279 379.056,252.110 378.927 C 252.940 378.798,253.716 378.536,253.833 378.346 C 253.951 378.156,254.476 378.000,255.000 378.000 C 255.524 378.000,256.064 377.820,256.200 377.600 C 256.336 377.380,256.887 377.200,257.424 377.200 C 257.961 377.200,258.400 377.020,258.400 376.800 C 258.400 376.580,258.645 376.400,258.944 376.400 C 259.601 376.400,264.545 373.924,264.733 373.500 C 264.807 373.335,265.046 373.200,265.265 373.200 C 268.596 373.200,281.304 360.584,285.614 353.000 C 287.636 349.442,288.800 347.089,288.800 346.559 C 288.800 346.252,288.980 346.000,289.200 346.000 C 289.420 346.000,289.600 345.561,289.600 345.024 C 289.600 344.487,289.780 343.936,290.000 343.800 C 290.220 343.664,290.400 343.124,290.400 342.600 C 290.400 342.076,290.580 341.536,290.800 341.400 C 291.020 341.264,291.200 340.634,291.200 340.000 C 291.200 339.366,291.380 338.736,291.600 338.600 C 291.820 338.464,292.000 337.679,292.000 336.856 C 292.000 336.033,292.162 335.189,292.361 334.980 C 293.505 333.775,293.505 316.225,292.361 315.020 C 292.162 314.811,292.000 313.967,292.000 313.144 C 292.000 312.321,291.820 311.536,291.600 311.400 C 291.380 311.264,291.200 310.634,291.200 310.000 C 291.200 309.366,291.020 308.736,290.800 308.600 C 290.580 308.464,290.400 308.001,290.400 307.571 C 290.400 307.141,290.241 306.477,290.047 306.095 C 289.852 305.713,289.518 304.950,289.303 304.400 C 286.900 298.240,281.864 290.665,276.800 285.595 C 273.418 282.210,266.324 276.800,265.265 276.800 C 265.046 276.800,264.807 276.664,264.733 276.498 C 264.614 276.228,260.247 274.008,258.200 273.177 C 252.546 270.882,243.374 269.200,236.510 269.200 C 231.682 269.200,230.577 268.426,228.062 263.278 C 227.210 261.535,225.948 259.287,225.257 258.282 C 224.565 257.278,224.000 256.278,224.000 256.061 C 224.000 255.844,223.855 255.607,223.677 255.533 C 223.499 255.460,222.748 254.500,222.008 253.400 C 215.632 243.921,203.347 233.059,194.300 228.901 C 193.475 228.522,192.800 228.074,192.800 227.906 C 192.800 227.738,192.440 227.600,192.000 227.600 C 191.560 227.600,191.200 227.420,191.200 227.200 C 191.200 226.980,190.935 226.800,190.612 226.800 C 190.289 226.800,189.434 226.481,188.712 226.092 C 187.990 225.702,186.680 225.150,185.800 224.865 C 184.184 224.342,183.420 224.054,181.600 223.284 C 181.050 223.051,180.150 222.775,179.600 222.670 C 179.050 222.565,177.610 222.207,176.400 221.873 C 168.070 219.577,156.493 218.741,147.600 219.793 M128.083 356.500 C 132.731 359.163,132.911 365.272,128.431 368.290 L 127.082 369.200 93.841 369.199 C 61.821 369.197,60.554 369.169,59.346 368.433 C 54.723 365.613,54.763 359.383,59.424 356.524 C 60.578 355.815,126.849 355.792,128.083 356.500 M152.926 356.454 C 156.626 358.377,157.777 364.280,154.995 367.062 C 152.572 369.485,143.297 370.264,140.369 368.290 C 135.926 365.297,136.055 359.327,140.624 356.524 C 141.656 355.890,151.731 355.833,152.926 356.454 " stroke="none" fill="#e3e3e3" fill-rule="evenodd"></path><path id="path2" d="M90.400 17.441 C 83.477 18.718,77.622 21.650,72.999 26.156 C 70.070 29.011,66.800 33.311,66.800 34.309 C 66.800 36.546,62.186 39.200,58.298 39.200 C 42.822 39.200,32.302 58.068,40.866 70.462 C 41.270 71.046,41.603 71.676,41.608 71.862 C 41.617 72.281,46.564 77.200,46.977 77.200 C 47.142 77.200,47.754 77.527,48.338 77.927 C 48.922 78.327,50.390 79.079,51.600 79.597 L 53.800 80.539 95.800 80.866 C 124.956 81.094,138.595 81.064,140.400 80.770 C 145.267 79.977,149.856 76.952,151.504 73.452 C 151.777 72.874,152.221 71.930,152.491 71.356 C 153.387 69.452,153.088 63.300,151.988 61.000 C 149.326 55.436,145.015 53.117,137.200 53.046 C 130.394 52.984,128.662 51.740,127.944 46.400 C 127.672 44.381,127.316 42.585,126.557 39.400 C 126.400 38.740,125.940 37.610,125.535 36.888 C 125.131 36.166,124.800 35.311,124.800 34.988 C 124.800 34.665,124.620 34.400,124.400 34.400 C 124.180 34.400,124.000 34.213,124.000 33.984 C 124.000 32.658,119.087 26.658,116.041 24.264 C 109.136 18.840,98.361 15.972,90.400 17.441 M135.793 64.131 C 138.935 67.142,138.205 72.633,134.399 74.600 C 132.843 75.405,110.901 75.493,109.517 74.700 C 104.793 71.993,104.737 65.592,109.414 62.880 C 109.953 62.568,113.937 62.421,122.093 62.412 L 133.986 62.400 135.793 64.131 M283.678 71.540 C 283.171 71.683,285.771 71.800,289.456 71.800 C 293.141 71.800,295.626 71.686,294.978 71.547 C 293.422 71.214,284.854 71.208,283.678 71.540 M279.200 72.400 C 278.436 72.894,279.258 72.894,280.800 72.400 L 281.800 72.080 280.800 72.046 C 280.250 72.027,279.530 72.187,279.200 72.400 M296.833 72.147 C 296.925 72.228,297.720 72.414,298.600 72.562 C 299.746 72.754,300.030 72.714,299.600 72.421 C 299.060 72.053,296.432 71.793,296.833 72.147 M260.360 81.140 C 255.499 84.824,249.770 91.621,247.211 96.742 C 246.733 97.700,246.501 98.385,246.696 98.264 C 246.891 98.143,247.487 97.180,248.020 96.122 C 248.553 95.065,249.100 94.110,249.235 94.000 C 249.370 93.890,249.715 93.350,250.003 92.800 C 251.431 90.066,257.951 83.075,260.742 81.285 C 261.324 80.912,262.149 80.290,262.575 79.903 C 264.040 78.575,262.917 79.202,260.360 81.140 M316.800 80.287 C 316.800 80.474,317.295 80.921,317.900 81.279 C 318.505 81.637,320.238 83.116,321.751 84.565 C 324.878 87.560,325.879 88.130,323.183 85.382 C 321.036 83.192,316.800 79.811,316.800 80.287 M329.618 94.200 C 329.618 94.420,329.970 95.050,330.400 95.600 C 330.830 96.150,331.182 96.420,331.182 96.200 C 331.182 95.980,330.830 95.350,330.400 94.800 C 329.970 94.250,329.618 93.980,329.618 94.200 M331.271 97.038 C 331.378 97.237,331.767 98.060,332.136 98.867 C 333.575 102.017,335.658 102.959,342.086 103.367 C 344.223 103.503,346.293 103.715,346.686 103.837 C 347.284 104.024,347.301 103.995,346.785 103.658 C 346.447 103.437,344.006 103.085,341.359 102.877 C 335.391 102.406,332.000 100.506,332.000 97.632 C 332.000 97.420,331.792 97.119,331.538 96.962 C 331.284 96.805,331.164 96.839,331.271 97.038 M348.600 104.400 C 349.701 104.873,350.092 104.873,349.800 104.400 C 349.664 104.180,349.158 104.013,348.676 104.028 C 347.831 104.055,347.829 104.069,348.600 104.400 M356.400 108.000 C 356.950 108.430,357.580 108.782,357.800 108.782 C 358.020 108.782,357.750 108.430,357.200 108.000 C 356.650 107.570,356.020 107.218,355.800 107.218 C 355.580 107.218,355.850 107.570,356.400 108.000 M242.846 108.667 C 242.821 108.924,242.684 109.464,242.541 109.867 C 242.340 110.436,242.394 110.497,242.779 110.142 C 243.052 109.891,243.189 109.351,243.084 108.942 C 242.979 108.534,242.872 108.410,242.846 108.667 M358.400 109.068 C 358.400 109.256,358.895 109.762,359.500 110.192 C 362.668 112.442,366.728 117.598,368.666 121.833 C 369.681 124.048,370.286 124.804,369.599 122.997 C 368.576 120.308,365.712 115.784,363.459 113.300 C 361.810 111.484,358.400 108.630,358.400 109.068 M241.864 114.934 C 241.682 116.217,241.630 117.363,241.748 117.481 C 242.109 117.843,242.463 115.809,242.325 114.162 C 242.203 112.705,242.172 112.757,241.864 114.934 M240.180 120.832 C 240.033 121.070,239.347 121.610,238.656 122.031 C 237.965 122.452,237.622 122.798,237.894 122.799 C 238.406 122.800,241.213 120.432,240.724 120.412 C 240.572 120.405,240.327 120.595,240.180 120.832 M227.907 122.690 C 228.626 122.779,229.706 122.777,230.307 122.686 C 230.908 122.595,230.320 122.522,229.000 122.524 C 227.680 122.526,227.188 122.601,227.907 122.690 M223.200 123.200 C 222.667 123.545,222.667 123.588,223.200 123.588 C 223.530 123.588,224.070 123.413,224.400 123.200 C 224.933 122.855,224.933 122.812,224.400 122.812 C 224.070 122.812,223.530 122.987,223.200 123.200 M234.705 123.083 C 235.202 123.179,235.922 123.175,236.305 123.075 C 236.687 122.975,236.280 122.896,235.400 122.901 C 234.520 122.905,234.207 122.987,234.705 123.083 M370.028 125.076 C 370.013 125.558,370.180 126.064,370.400 126.200 C 370.873 126.492,370.873 126.101,370.400 125.000 C 370.069 124.229,370.055 124.231,370.028 125.076 M213.478 129.078 C 212.227 130.320,211.263 131.397,211.338 131.471 C 211.412 131.545,212.492 130.586,213.739 129.339 C 214.986 128.092,215.949 127.016,215.880 126.947 C 215.811 126.877,214.730 127.837,213.478 129.078 M370.800 128.110 C 370.800 128.683,370.987 129.268,371.216 129.410 C 371.489 129.579,371.538 129.277,371.360 128.534 C 370.992 127.001,370.800 126.856,370.800 128.110 M371.753 135.800 C 371.753 138.440,371.818 139.468,371.897 138.084 C 371.975 136.701,371.974 134.541,371.895 133.284 C 371.816 132.028,371.752 133.160,371.753 135.800 M207.400 139.200 C 207.250 139.673,207.217 140.150,207.327 140.260 C 207.437 140.370,207.650 140.073,207.800 139.600 C 207.950 139.127,207.983 138.650,207.873 138.540 C 207.763 138.430,207.550 138.727,207.400 139.200 M371.092 141.842 C 370.931 142.002,370.811 142.598,370.825 143.167 L 370.851 144.200 371.237 143.234 C 371.653 142.194,371.567 141.367,371.092 141.842 M206.937 145.400 C 206.939 147.160,207.009 147.830,207.093 146.889 C 207.178 145.949,207.177 144.509,207.091 143.689 C 207.005 142.870,206.936 143.640,206.937 145.400 M284.431 144.510 C 285.174 145.010,286.190 146.026,286.690 146.769 C 287.191 147.511,287.600 147.952,287.600 147.748 C 287.600 146.894,285.812 144.755,284.518 144.063 C 283.058 143.282,283.006 143.549,284.431 144.510 M370.267 145.067 C 370.120 145.213,370.011 145.708,370.025 146.167 C 370.049 146.933,370.082 146.923,370.434 146.042 C 370.826 145.063,370.744 144.589,370.267 145.067 M287.709 150.000 C 287.709 150.990,287.787 151.395,287.882 150.900 C 287.978 150.405,287.978 149.595,287.882 149.100 C 287.787 148.605,287.709 149.010,287.709 150.000 M368.229 150.400 C 367.883 151.060,367.338 152.095,367.019 152.700 C 366.699 153.305,365.521 154.970,364.402 156.400 L 362.366 159.000 364.210 157.000 C 365.908 155.158,368.278 151.578,368.911 149.900 C 369.332 148.785,368.917 149.089,368.229 150.400 M286.778 153.098 C 285.874 154.901,285.887 155.079,286.820 153.683 C 287.304 152.959,287.617 152.283,287.515 152.182 C 287.413 152.080,287.081 152.492,286.778 153.098 M227.076 155.100 C 228.300 156.312,229.556 156.900,229.000 156.000 C 228.864 155.780,228.548 155.600,228.298 155.600 C 228.048 155.600,227.376 155.195,226.803 154.700 C 226.231 154.205,226.354 154.385,227.076 155.100 M284.200 155.627 C 282.855 156.489,283.039 156.638,284.581 155.936 C 285.142 155.680,285.600 155.320,285.600 155.136 C 285.600 154.718,285.643 154.703,284.200 155.627 M212.018 160.300 C 215.118 163.862,222.151 168.382,223.107 167.426 C 223.221 167.312,222.974 167.118,222.557 166.995 C 219.950 166.224,215.752 163.612,213.754 161.518 C 211.505 159.160,210.274 158.297,212.018 160.300 M360.095 160.782 C 359.597 161.197,358.967 161.616,358.695 161.714 C 358.423 161.811,358.301 162.001,358.425 162.137 C 358.549 162.273,359.269 161.854,360.025 161.208 C 360.781 160.561,361.310 160.031,361.200 160.030 C 361.090 160.028,360.593 160.366,360.095 160.782 M354.189 164.530 C 353.755 164.822,352.410 165.425,351.200 165.870 C 349.990 166.315,348.370 166.929,347.600 167.234 C 346.445 167.691,337.666 167.826,297.400 168.007 L 248.600 168.226 297.400 168.212 L 346.200 168.198 348.800 167.276 C 351.574 166.292,355.600 164.453,355.600 164.171 C 355.600 163.844,354.973 164.004,354.189 164.530 M223.633 167.749 C 223.725 167.831,224.700 168.007,225.800 168.141 C 227.146 168.305,227.539 168.265,227.000 168.020 C 226.239 167.674,223.283 167.436,223.633 167.749 M233.300 168.699 C 236.105 168.768,240.695 168.768,243.500 168.699 C 246.305 168.630,244.010 168.574,238.400 168.574 C 232.790 168.574,230.495 168.630,233.300 168.699 M150.100 219.076 C 150.485 219.176,151.115 219.176,151.500 219.076 C 151.885 218.975,151.570 218.893,150.800 218.893 C 150.030 218.893,149.715 218.975,150.100 219.076 M213.000 242.400 C 214.750 244.160,216.271 245.600,216.381 245.600 C 216.491 245.600,215.150 244.160,213.400 242.400 C 211.650 240.640,210.129 239.200,210.019 239.200 C 209.909 239.200,211.250 240.640,213.000 242.400 M98.388 243.100 L 95.800 245.800 98.500 243.212 C 101.008 240.807,101.383 240.400,101.088 240.400 C 101.027 240.400,99.812 241.615,98.388 243.100 M241.300 269.076 C 241.685 269.176,242.315 269.176,242.700 269.076 C 243.085 268.975,242.770 268.893,242.000 268.893 C 241.230 268.893,240.915 268.975,241.300 269.076 M75.693 291.200 C 75.693 291.970,75.775 292.285,75.876 291.900 C 75.976 291.515,75.976 290.885,75.876 290.500 C 75.775 290.115,75.693 290.430,75.693 291.200 M55.900 300.282 C 56.395 300.378,57.205 300.378,57.700 300.282 C 58.195 300.187,57.790 300.109,56.800 300.109 C 55.810 300.109,55.405 300.187,55.900 300.282 M61.100 300.282 C 61.595 300.378,62.405 300.378,62.900 300.282 C 63.395 300.187,62.990 300.109,62.000 300.109 C 61.010 300.109,60.605 300.187,61.100 300.282 M67.900 301.082 C 68.395 301.178,69.205 301.178,69.700 301.082 C 70.195 300.987,69.790 300.909,68.800 300.909 C 67.810 300.909,67.405 300.987,67.900 301.082 M30.581 312.100 L 29.000 313.800 30.700 312.219 C 31.635 311.349,32.400 310.584,32.400 310.519 C 32.400 310.216,32.052 310.519,30.581 312.100 M18.901 337.400 C 18.905 338.280,18.987 338.593,19.083 338.095 C 19.179 337.598,19.175 336.878,19.075 336.495 C 18.975 336.113,18.896 336.520,18.901 337.400 M18.893 344.000 C 18.893 344.770,18.975 345.085,19.076 344.700 C 19.176 344.315,19.176 343.685,19.076 343.300 C 18.975 342.915,18.893 343.230,18.893 344.000 M77.270 356.300 C 86.219 356.360,100.979 356.360,110.070 356.300 C 119.162 356.240,111.840 356.191,93.800 356.191 C 75.760 356.191,68.322 356.240,77.270 356.300 M144.500 356.296 C 145.765 356.375,147.835 356.375,149.100 356.296 C 150.365 356.216,149.330 356.151,146.800 356.151 C 144.270 356.151,143.235 356.216,144.500 356.296 M152.835 356.900 C 152.928 356.955,153.633 357.540,154.402 358.200 L 155.800 359.400 154.625 358.100 C 153.979 357.385,153.274 356.800,153.058 356.800 C 152.843 356.800,152.743 356.845,152.835 356.900 M56.101 362.600 C 56.105 363.480,56.187 363.793,56.283 363.295 C 56.379 362.798,56.375 362.078,56.275 361.695 C 56.175 361.313,56.096 361.720,56.101 362.600 M30.600 369.200 C 32.128 370.740,33.469 372.000,33.579 372.000 C 33.689 372.000,32.528 370.740,31.000 369.200 C 29.472 367.660,28.131 366.400,28.021 366.400 C 27.911 366.400,29.072 367.660,30.600 369.200 M169.300 381.100 C 182.885 381.158,205.115 381.158,218.700 381.100 C 232.285 381.042,221.170 380.994,194.000 380.994 C 166.830 380.994,155.715 381.042,169.300 381.100 " stroke="none" fill="#8b8b93" fill-rule="evenodd"></path><path id="path3" d="M283.400 71.988 C 282.300 72.171,280.360 72.454,279.088 72.617 C 277.817 72.781,276.681 73.069,276.565 73.257 C 276.448 73.446,276.001 73.600,275.571 73.600 C 275.141 73.600,274.477 73.759,274.095 73.953 C 273.713 74.148,272.860 74.529,272.200 74.800 C 271.540 75.071,270.687 75.452,270.305 75.647 C 269.923 75.841,269.338 76.000,269.005 76.000 C 268.672 76.000,268.400 76.146,268.400 76.325 C 268.400 76.504,267.770 76.898,267.000 77.200 C 266.230 77.502,265.600 77.852,265.600 77.977 C 265.600 78.102,265.094 78.429,264.475 78.703 C 263.856 78.976,263.001 79.517,262.575 79.903 C 262.149 80.290,261.324 80.912,260.742 81.285 C 257.951 83.075,251.431 90.066,250.003 92.800 C 249.715 93.350,249.372 93.890,249.239 94.000 C 249.107 94.110,248.735 94.740,248.414 95.400 C 248.092 96.060,247.507 97.078,247.114 97.662 C 246.721 98.246,246.400 99.011,246.400 99.362 C 246.400 99.713,246.220 100.000,246.000 100.000 C 245.780 100.000,245.600 100.349,245.600 100.776 C 245.600 101.203,245.420 101.664,245.200 101.800 C 244.980 101.936,244.800 102.487,244.800 103.024 C 244.800 103.561,244.620 104.000,244.400 104.000 C 244.180 104.000,244.000 104.529,244.000 105.176 C 244.000 105.823,243.820 106.464,243.600 106.600 C 243.380 106.736,243.200 107.521,243.200 108.344 C 243.200 109.167,243.033 110.011,242.829 110.220 C 242.625 110.429,242.373 112.040,242.269 113.800 C 241.785 122.008,240.261 123.263,231.228 122.897 C 226.200 122.693,224.623 122.880,221.800 124.012 C 218.946 125.157,218.400 125.427,218.400 125.698 C 218.400 125.864,218.137 126.000,217.815 126.000 C 217.084 126.000,211.200 131.595,211.200 132.290 C 211.200 132.570,211.020 132.800,210.800 132.800 C 210.580 132.800,210.400 133.070,210.400 133.400 C 210.400 133.730,210.220 134.000,210.000 134.000 C 209.780 134.000,209.600 134.360,209.600 134.800 C 209.600 135.240,209.420 135.600,209.200 135.600 C 208.980 135.600,208.800 135.872,208.800 136.205 C 208.800 136.538,208.642 137.123,208.449 137.505 C 207.232 139.915,206.632 148.954,207.573 150.705 C 207.779 151.087,208.178 152.255,208.461 153.300 C 208.743 154.345,209.115 155.200,209.287 155.200 C 209.459 155.200,209.600 155.560,209.600 156.000 C 209.600 156.440,209.780 156.800,210.000 156.800 C 210.220 156.800,210.400 157.054,210.400 157.365 C 210.400 160.193,220.278 166.988,225.600 167.820 C 227.675 168.145,340.683 168.074,344.000 167.746 C 348.685 167.283,356.056 164.260,358.729 161.705 C 359.019 161.427,359.396 161.200,359.565 161.200 C 360.084 161.200,363.109 158.061,364.901 155.662 C 366.739 153.202,367.320 152.261,368.520 149.800 C 368.949 148.920,369.458 147.887,369.650 147.505 C 369.843 147.123,370.000 146.459,370.000 146.029 C 370.000 145.599,370.180 145.136,370.400 145.000 C 370.620 144.864,370.800 144.144,370.800 143.400 C 370.800 142.656,370.980 141.936,371.200 141.800 C 371.438 141.653,371.600 139.137,371.600 135.600 C 371.600 132.063,371.438 129.547,371.200 129.400 C 370.980 129.264,370.800 128.544,370.800 127.800 C 370.800 127.056,370.620 126.336,370.400 126.200 C 370.180 126.064,370.000 125.635,370.000 125.247 C 370.000 124.239,367.827 119.890,365.920 117.082 C 364.029 114.298,358.616 108.800,357.765 108.800 C 357.644 108.800,356.792 108.287,355.872 107.660 C 352.218 105.168,345.407 103.232,340.200 103.206 C 335.909 103.184,333.470 101.747,331.801 98.258 C 330.247 95.011,328.372 91.941,326.406 89.425 C 325.129 87.792,319.058 81.961,317.956 81.310 C 317.320 80.935,316.800 80.486,316.800 80.314 C 316.800 80.141,316.530 80.000,316.200 80.000 C 315.870 80.000,315.600 79.820,315.600 79.600 C 315.600 79.380,315.330 79.200,315.000 79.200 C 314.670 79.200,314.400 79.020,314.400 78.800 C 314.400 78.580,314.145 78.400,313.833 78.400 C 313.522 78.400,313.207 78.265,313.133 78.100 C 312.941 77.668,309.628 76.000,308.962 76.000 C 308.653 76.000,308.400 75.853,308.400 75.672 C 308.400 75.492,307.489 75.096,306.375 74.793 C 305.261 74.490,304.260 74.097,304.151 73.921 C 304.042 73.744,303.543 73.600,303.043 73.600 C 302.543 73.600,301.999 73.465,301.834 73.301 C 300.819 72.286,287.370 71.328,283.400 71.988 M284.526 144.063 C 286.442 145.077,288.000 147.741,288.000 150.000 C 288.000 152.259,286.442 154.923,284.526 155.937 C 283.889 156.275,276.156 156.400,255.958 156.400 L 228.263 156.400 226.531 154.593 C 223.876 151.821,223.916 148.147,226.632 145.432 L 228.463 143.600 256.058 143.600 C 276.180 143.600,283.889 143.725,284.526 144.063 M154.115 219.096 C 155.388 219.176,157.368 219.175,158.515 219.094 C 159.662 219.014,158.620 218.949,156.200 218.950 C 153.780 218.951,152.842 219.016,154.115 219.096 M149.505 219.483 C 150.002 219.579,150.722 219.575,151.105 219.475 C 151.487 219.375,151.080 219.296,150.200 219.301 C 149.320 219.305,149.007 219.387,149.505 219.483 M161.300 219.476 C 161.685 219.576,162.315 219.576,162.700 219.476 C 163.085 219.375,162.770 219.293,162.000 219.293 C 161.230 219.293,160.915 219.375,161.300 219.476 M143.400 219.990 C 142.917 220.192,143.551 220.238,145.000 220.107 C 146.320 219.987,147.475 219.824,147.567 219.745 C 147.907 219.449,144.170 219.669,143.400 219.990 M164.433 219.744 C 164.525 219.823,165.770 219.986,167.200 220.106 C 168.760 220.237,169.400 220.195,168.800 220.002 C 167.812 219.684,164.111 219.465,164.433 219.744 M170.033 220.544 C 170.125 220.623,171.100 220.791,172.200 220.918 C 173.487 221.067,173.915 221.026,173.400 220.803 C 172.636 220.472,169.686 220.245,170.033 220.544 M135.800 221.600 C 135.508 222.073,135.899 222.073,137.000 221.600 C 137.771 221.269,137.769 221.255,136.924 221.228 C 136.442 221.213,135.936 221.380,135.800 221.600 M175.400 221.600 C 175.840 221.789,176.470 221.944,176.800 221.944 C 177.178 221.944,177.104 221.817,176.600 221.600 C 176.160 221.411,175.530 221.256,175.200 221.256 C 174.822 221.256,174.896 221.383,175.400 221.600 M196.400 229.964 C 196.950 230.414,197.580 230.783,197.800 230.785 C 198.228 230.788,197.505 230.234,196.200 229.560 C 195.669 229.285,195.736 229.421,196.400 229.964 M114.200 230.800 C 113.540 231.237,113.180 231.592,113.400 231.588 C 113.801 231.582,115.976 230.023,115.600 230.012 C 115.490 230.008,114.860 230.363,114.200 230.800 M111.600 232.420 L 110.600 233.222 111.700 232.747 C 112.305 232.485,112.800 232.120,112.800 231.936 C 112.800 231.479,112.745 231.502,111.600 232.420 M107.200 235.561 C 105.770 236.636,104.240 237.936,103.800 238.451 C 103.360 238.966,103.990 238.567,105.200 237.563 C 106.410 236.560,108.117 235.258,108.993 234.670 C 109.869 234.081,110.409 233.602,110.193 233.604 C 109.977 233.606,108.630 234.487,107.200 235.561 M203.600 234.525 C 203.600 234.624,204.261 235.209,205.068 235.825 C 205.876 236.441,206.411 236.741,206.256 236.491 C 205.940 235.979,203.600 234.247,203.600 234.525 M206.929 237.071 C 207.084 237.330,207.974 238.121,208.906 238.829 C 210.487 240.030,210.520 240.039,209.397 238.958 C 207.801 237.421,206.578 236.486,206.929 237.071 M99.000 242.800 C 97.029 244.780,95.593 246.376,95.808 246.348 C 96.203 246.295,103.110 239.200,102.767 239.200 C 102.666 239.200,100.971 240.820,99.000 242.800 M215.234 245.001 C 216.023 245.880,217.264 247.230,217.992 248.000 L 219.316 249.400 218.093 247.800 C 217.421 246.920,216.180 245.570,215.335 244.801 L 213.800 243.401 215.234 245.001 M222.068 253.550 C 222.801 254.669,223.546 255.589,223.725 255.593 C 224.067 255.600,221.661 252.085,221.077 251.724 C 220.890 251.608,221.336 252.430,222.068 253.550 M88.873 255.000 C 88.622 255.550,88.483 256.000,88.563 256.000 C 88.643 256.000,89.003 255.550,89.363 255.000 C 89.724 254.450,89.863 254.000,89.673 254.000 C 89.484 254.000,89.123 254.450,88.873 255.000 M86.953 258.100 C 85.576 260.436,85.486 260.635,86.187 259.800 C 87.000 258.832,87.700 257.600,87.438 257.600 C 87.333 257.600,87.115 257.825,86.953 258.100 M83.986 263.501 C 83.145 265.187,83.140 265.200,83.347 265.200 C 83.605 265.200,84.842 262.708,84.669 262.536 C 84.595 262.462,84.288 262.896,83.986 263.501 M229.273 265.800 C 229.523 266.350,229.884 266.800,230.073 266.800 C 230.263 266.800,230.124 266.350,229.763 265.800 C 229.403 265.250,229.043 264.800,228.963 264.800 C 228.883 264.800,229.022 265.250,229.273 265.800 M232.000 268.558 C 232.550 268.896,233.540 269.157,234.200 269.140 C 235.379 269.109,235.376 269.103,234.000 268.808 C 233.230 268.643,232.240 268.381,231.800 268.226 C 231.276 268.042,231.345 268.156,232.000 268.558 M236.691 269.089 C 237.401 269.177,238.661 269.179,239.491 269.092 C 240.321 269.005,239.740 268.933,238.200 268.931 C 236.660 268.929,235.981 269.000,236.691 269.089 M241.700 269.476 C 242.085 269.576,242.715 269.576,243.100 269.476 C 243.485 269.375,243.170 269.293,242.400 269.293 C 241.630 269.293,241.315 269.375,241.700 269.476 M244.433 269.744 C 244.525 269.823,245.590 269.989,246.800 270.112 C 248.169 270.251,248.698 270.208,248.200 269.996 C 247.433 269.670,244.089 269.447,244.433 269.744 M249.233 270.543 C 249.325 270.621,250.030 270.801,250.800 270.942 C 251.785 271.123,252.022 271.082,251.600 270.806 C 251.058 270.450,248.837 270.203,249.233 270.543 M78.046 279.067 C 78.021 279.324,77.884 279.864,77.741 280.267 C 77.540 280.836,77.594 280.897,77.979 280.542 C 78.252 280.291,78.389 279.751,78.284 279.342 C 78.179 278.934,78.072 278.810,78.046 279.067 M269.800 279.480 C 270.020 279.688,271.010 280.446,272.000 281.165 L 273.800 282.472 272.400 281.208 C 271.174 280.101,268.756 278.494,269.800 279.480 M77.029 283.029 C 76.881 283.615,76.851 284.184,76.961 284.294 C 77.071 284.404,77.281 284.015,77.429 283.429 C 77.576 282.842,77.606 282.273,77.496 282.163 C 77.386 282.053,77.176 282.442,77.029 283.029 M274.841 283.700 C 274.937 283.755,275.912 284.610,277.007 285.600 L 279.000 287.400 277.217 285.500 C 276.236 284.455,275.261 283.600,275.050 283.600 C 274.839 283.600,274.745 283.645,274.841 283.700 M76.454 286.867 C 76.425 287.234,76.284 287.864,76.141 288.267 C 75.941 288.833,75.995 288.896,76.375 288.546 C 76.646 288.297,76.787 287.667,76.688 287.146 C 76.590 286.626,76.484 286.500,76.454 286.867 M279.200 287.864 C 279.200 288.082,279.695 288.697,280.300 289.230 L 281.400 290.200 280.400 289.000 C 279.850 288.340,279.355 287.725,279.300 287.633 C 279.245 287.542,279.200 287.645,279.200 287.864 M283.749 294.139 C 285.097 296.188,286.428 298.209,286.706 298.632 C 286.984 299.054,286.912 298.770,286.547 298.000 C 285.773 296.370,282.179 290.958,281.656 290.635 C 281.460 290.513,282.402 292.090,283.749 294.139 M75.667 293.467 C 75.630 294.164,75.484 295.064,75.341 295.467 C 75.143 296.028,75.197 296.095,75.568 295.753 C 75.852 295.492,75.988 294.658,75.895 293.753 C 75.752 292.373,75.727 292.342,75.667 293.467 M55.300 300.676 C 55.685 300.776,56.315 300.776,56.700 300.676 C 57.085 300.575,56.770 300.493,56.000 300.493 C 55.230 300.493,54.915 300.575,55.300 300.676 M61.905 300.683 C 62.402 300.779,63.122 300.775,63.505 300.675 C 63.887 300.575,63.480 300.496,62.600 300.501 C 61.720 300.505,61.407 300.587,61.905 300.683 M51.900 301.082 C 52.395 301.178,53.205 301.178,53.700 301.082 C 54.195 300.987,53.790 300.909,52.800 300.909 C 51.810 300.909,51.405 300.987,51.900 301.082 M65.105 301.083 C 65.602 301.179,66.322 301.175,66.705 301.075 C 67.087 300.975,66.680 300.896,65.800 300.901 C 64.920 300.905,64.607 300.987,65.105 301.083 M49.200 301.600 C 48.376 301.864,48.341 301.926,49.000 301.954 C 49.440 301.973,50.070 301.813,50.400 301.600 C 51.101 301.147,50.614 301.147,49.200 301.600 M44.500 303.034 C 43.785 303.346,43.200 303.690,43.200 303.798 C 43.200 303.976,46.376 302.851,46.767 302.535 C 47.195 302.188,45.662 302.526,44.500 303.034 M39.200 305.600 C 38.650 306.030,38.380 306.382,38.600 306.382 C 38.820 306.382,39.450 306.030,40.000 305.600 C 40.550 305.170,40.820 304.818,40.600 304.818 C 40.380 304.818,39.750 305.170,39.200 305.600 M32.171 310.903 L 31.000 312.197 32.200 311.199 C 32.860 310.649,33.475 310.155,33.567 310.100 C 33.658 310.045,33.645 309.912,33.538 309.804 C 33.430 309.696,32.815 310.191,32.171 310.903 M29.375 313.700 L 28.200 315.000 29.500 313.825 C 30.712 312.730,30.984 312.400,30.675 312.400 C 30.606 312.400,30.021 312.985,29.375 313.700 M292.028 313.876 C 292.013 314.358,292.180 314.864,292.400 315.000 C 292.873 315.292,292.873 314.901,292.400 313.800 C 292.069 313.029,292.055 313.031,292.028 313.876 M292.875 319.200 C 292.865 319.970,293.011 320.960,293.200 321.400 C 293.657 322.464,293.657 320.797,293.200 319.000 L 292.895 317.800 292.875 319.200 M293.089 328.800 C 292.936 329.350,292.827 330.340,292.846 331.000 C 292.877 332.092,292.914 332.058,293.252 330.611 C 293.675 328.806,293.531 327.211,293.089 328.800 M20.649 329.015 C 20.512 329.373,20.415 329.966,20.434 330.333 C 20.453 330.700,20.627 330.469,20.821 329.820 C 21.198 328.558,21.065 327.933,20.649 329.015 M19.701 333.800 C 19.705 334.680,19.787 334.993,19.883 334.495 C 19.979 333.998,19.975 333.278,19.875 332.895 C 19.775 332.513,19.696 332.920,19.701 333.800 M292.267 335.067 C 292.120 335.213,292.011 335.708,292.025 336.167 C 292.049 336.933,292.082 336.923,292.434 336.042 C 292.826 335.063,292.744 334.589,292.267 335.067 M19.301 337.000 C 19.305 337.880,19.387 338.193,19.483 337.695 C 19.579 337.198,19.575 336.478,19.475 336.095 C 19.375 335.713,19.296 336.120,19.301 337.000 M18.830 340.433 C 18.846 341.405,19.012 343.010,19.198 344.000 C 19.443 345.308,19.476 344.870,19.317 342.400 C 19.081 338.748,18.781 337.536,18.830 340.433 M19.606 347.633 C 19.609 348.385,19.777 349.261,19.979 349.579 C 20.216 349.954,20.265 349.530,20.118 348.379 C 19.835 346.170,19.598 345.825,19.606 347.633 M20.468 351.000 C 20.462 351.440,20.611 352.160,20.800 352.600 C 21.238 353.619,21.238 352.568,20.800 351.200 C 20.543 350.396,20.477 350.357,20.468 351.000 M286.214 351.835 C 285.841 352.404,285.605 352.938,285.689 353.022 C 285.773 353.107,286.158 352.641,286.544 351.988 C 287.406 350.528,287.148 350.409,286.214 351.835 M283.296 356.611 C 282.166 358.267,281.413 359.516,281.623 359.386 C 282.174 359.045,285.822 353.600,285.499 353.600 C 285.418 353.600,284.426 354.955,283.296 356.611 M131.152 360.887 C 131.337 361.998,131.393 362.055,131.519 361.254 C 131.601 360.733,131.503 360.143,131.301 359.941 C 131.079 359.719,131.021 360.093,131.152 360.887 M137.354 360.177 C 137.232 360.494,137.203 361.079,137.289 361.477 C 137.387 361.928,137.524 361.712,137.654 360.900 C 137.871 359.538,137.730 359.196,137.354 360.177 M280.001 360.998 C 279.486 361.548,279.139 362.064,279.232 362.146 C 279.324 362.228,279.819 361.778,280.330 361.147 C 281.476 359.735,281.274 359.644,280.001 360.998 M276.800 364.600 C 275.828 365.590,275.123 366.400,275.233 366.400 C 275.343 366.400,276.228 365.590,277.200 364.600 C 278.172 363.610,278.877 362.800,278.767 362.800 C 278.657 362.800,277.772 363.610,276.800 364.600 M131.246 363.667 C 131.221 364.034,131.096 364.664,130.970 365.067 C 130.752 365.762,130.763 365.763,131.197 365.087 C 131.448 364.696,131.573 364.066,131.473 363.687 C 131.311 363.068,131.288 363.066,131.246 363.667 M137.206 363.833 C 137.209 364.255,137.395 364.870,137.618 365.200 C 137.915 365.638,137.952 365.476,137.756 364.600 C 137.427 363.129,137.198 362.810,137.206 363.833 M155.437 365.800 C 155.076 366.350,154.937 366.800,155.127 366.800 C 155.316 366.800,155.677 366.350,155.927 365.800 C 156.178 365.250,156.317 364.800,156.237 364.800 C 156.157 364.800,155.797 365.250,155.437 365.800 M27.600 365.725 C 27.600 365.794,28.173 366.379,28.874 367.025 L 30.149 368.200 29.174 366.922 C 28.347 365.837,27.600 365.269,27.600 365.725 M57.601 366.938 C 59.687 369.314,57.856 369.200,93.800 369.200 C 129.744 369.200,127.913 369.314,129.999 366.938 L 130.997 365.800 129.799 366.851 C 127.497 368.870,128.789 368.800,93.800 368.800 C 58.811 368.800,60.103 368.870,57.801 366.851 L 56.603 365.800 57.601 366.938 M138.800 366.953 C 140.596 368.971,141.505 369.208,147.080 369.114 L 152.200 369.028 147.400 368.916 C 141.519 368.778,141.187 368.704,139.307 367.109 C 137.942 365.950,137.894 365.936,138.800 366.953 M273.170 367.900 L 272.200 369.000 273.400 368.000 C 274.060 367.450,274.675 366.955,274.767 366.900 C 274.858 366.845,274.755 366.800,274.536 366.800 C 274.318 366.800,273.703 367.295,273.170 367.900 M269.731 370.365 C 266.234 372.894,265.778 373.247,266.400 372.949 C 267.493 372.424,271.546 369.611,271.799 369.202 C 272.151 368.633,272.040 368.695,269.731 370.365 M32.487 370.605 C 33.304 371.460,34.038 372.079,34.117 371.980 C 34.197 371.881,33.528 371.181,32.631 370.425 L 31.000 369.050 32.487 370.605 M50.400 379.982 C 50.730 380.205,51.345 380.391,51.767 380.394 C 52.790 380.402,52.471 380.173,51.000 379.844 C 50.124 379.648,49.962 379.685,50.400 379.982 M246.800 380.000 C 245.996 380.257,245.957 380.323,246.600 380.332 C 247.040 380.338,247.760 380.189,248.200 380.000 C 249.219 379.562,248.168 379.562,246.800 380.000 M56.222 380.943 C 57.350 381.135,99.212 381.111,151.022 380.890 L 243.800 380.494 149.000 380.547 C 94.762 380.577,55.065 380.747,56.222 380.943 " stroke="none" fill="#acacb4" fill-rule="evenodd"></path><path id="path4" d="M89.600 17.001 C 80.201 18.901,72.452 24.094,67.689 31.683 C 66.870 32.989,65.836 34.625,65.390 35.319 C 64.066 37.384,62.198 38.400,59.724 38.400 C 48.232 38.400,37.362 47.939,37.647 57.773 L 37.695 59.400 38.058 57.400 C 40.037 46.519,48.176 39.200,58.298 39.200 C 62.186 39.200,66.800 36.546,66.800 34.309 C 66.800 33.312,70.068 29.012,72.991 26.163 C 84.491 14.955,103.126 14.118,116.001 24.233 C 119.083 26.655,124.000 32.648,124.000 33.984 C 124.000 34.213,124.180 34.400,124.400 34.400 C 124.620 34.400,124.800 34.665,124.800 34.988 C 124.800 35.311,125.131 36.166,125.535 36.888 C 125.940 37.610,126.400 38.740,126.557 39.400 C 127.316 42.585,127.672 44.381,127.944 46.400 C 128.662 51.740,130.394 52.984,137.200 53.046 C 145.015 53.117,149.326 55.436,151.988 61.000 C 153.088 63.300,153.387 69.452,152.491 71.356 C 152.221 71.930,151.777 72.874,151.504 73.452 C 149.944 76.766,145.691 79.738,141.209 80.649 L 139.000 81.097 140.800 81.148 C 148.288 81.360,155.619 71.413,153.550 63.846 C 151.402 55.993,146.166 52.301,137.400 52.459 C 131.160 52.571,129.163 51.291,128.592 46.813 C 126.022 26.647,108.427 13.194,89.600 17.001 M37.661 62.400 C 37.523 68.046,42.994 76.007,49.052 78.973 C 53.763 81.280,52.333 81.198,86.600 81.107 L 118.200 81.022 86.000 80.807 L 53.800 80.592 51.600 79.623 C 50.390 79.091,48.922 78.327,48.338 77.927 C 47.754 77.527,47.124 77.197,46.938 77.192 C 46.519 77.183,41.600 72.236,41.600 71.823 C 41.600 71.658,41.271 71.046,40.868 70.462 C 39.837 68.965,38.540 65.391,38.089 62.800 L 37.705 60.600 37.661 62.400 M109.414 62.880 C 104.737 65.592,104.793 71.993,109.517 74.700 C 110.901 75.493,132.843 75.405,134.399 74.600 C 136.018 73.763,137.603 71.553,137.582 70.162 C 137.566 69.048,137.542 69.063,137.020 70.526 C 135.566 74.605,134.879 74.800,121.974 74.800 C 111.648 74.800,111.034 74.758,109.602 73.953 C 106.566 72.247,105.628 68.788,107.386 65.787 C 109.075 62.905,109.589 62.800,121.980 62.800 C 134.878 62.800,135.566 62.995,137.020 67.074 L 137.565 68.600 137.582 67.231 C 137.597 66.119,137.261 65.538,135.793 64.131 L 133.986 62.400 122.093 62.412 C 113.937 62.421,109.953 62.568,109.414 62.880 M281.780 71.359 C 263.352 74.875,247.790 88.317,243.526 104.400 C 243.322 105.170,242.972 106.430,242.748 107.200 C 242.195 109.105,241.231 115.454,241.214 117.311 C 241.202 118.554,240.888 119.133,239.434 120.587 L 237.667 122.354 231.134 122.277 C 224.132 122.195,223.300 122.344,219.129 124.425 C 216.808 125.583,216.225 125.992,213.537 128.347 C 203.893 136.794,204.157 153.907,214.071 163.039 C 217.464 166.165,223.499 168.846,226.938 168.757 C 228.386 168.719,228.239 168.647,225.800 168.197 C 204.119 164.198,199.692 134.274,219.385 124.833 C 223.971 122.635,224.191 122.594,231.057 122.689 C 240.077 122.813,241.090 122.045,241.990 114.400 C 244.015 97.194,253.293 83.860,268.724 75.981 C 270.416 75.117,272.027 74.408,272.305 74.405 C 272.583 74.402,273.123 74.238,273.505 74.039 C 274.506 73.519,279.317 72.305,283.024 71.637 C 298.076 68.924,320.303 78.278,327.415 90.318 C 327.832 91.023,328.314 91.600,328.486 91.600 C 328.659 91.600,328.800 91.793,328.800 92.028 C 328.800 92.263,329.301 93.208,329.913 94.128 C 330.526 95.048,331.561 96.855,332.213 98.144 C 334.163 101.996,335.384 102.580,342.200 102.921 C 344.462 103.034,345.679 102.984,345.000 102.808 C 344.340 102.635,342.540 102.472,341.000 102.445 C 335.561 102.349,334.526 101.643,331.463 95.943 C 328.116 89.715,318.123 78.800,315.769 78.800 C 315.645 78.800,314.792 78.292,313.872 77.672 C 306.033 72.382,291.451 69.513,281.780 71.359 M346.800 103.600 C 347.130 103.813,347.850 103.978,348.400 103.966 C 349.316 103.946,349.333 103.915,348.600 103.600 C 347.416 103.091,346.013 103.091,346.800 103.600 M349.774 104.357 C 349.924 104.601,350.297 104.800,350.602 104.800 C 352.539 104.800,360.063 109.699,363.097 112.936 C 371.914 122.343,374.703 138.465,369.325 148.937 C 369.004 149.563,368.829 150.162,368.936 150.270 C 369.519 150.853,371.645 144.255,372.385 139.567 C 373.037 135.434,372.829 132.528,371.517 127.400 C 369.101 117.960,362.709 110.146,353.728 105.651 C 350.873 104.222,349.390 103.737,349.774 104.357 M228.503 144.175 C 223.602 146.886,223.623 153.357,228.541 155.810 C 230.740 156.907,282.412 156.669,284.398 155.553 C 288.636 153.171,288.653 147.355,284.431 144.510 L 283.082 143.600 256.241 143.639 C 235.685 143.669,229.190 143.795,228.503 144.175 M284.158 144.907 C 288.242 147.248,288.135 153.176,283.972 155.299 C 281.624 156.496,230.552 156.362,228.402 155.153 C 224.340 152.870,224.310 147.202,228.346 144.861 C 229.785 144.027,230.081 144.018,256.200 144.016 L 282.600 144.013 284.158 144.907 M367.299 152.882 C 363.927 158.845,356.373 164.738,349.000 167.156 C 347.680 167.589,346.887 167.956,347.237 167.971 C 349.287 168.063,356.378 164.671,359.598 162.059 C 363.526 158.872,369.412 151.679,368.686 150.953 C 368.582 150.849,367.958 151.717,367.299 152.882 M296.200 168.400 L 248.200 168.605 296.600 168.674 C 323.220 168.713,345.360 168.589,345.800 168.400 C 346.464 168.115,346.396 168.068,345.400 168.126 C 344.740 168.164,322.600 168.287,296.200 168.400 M154.100 218.694 C 155.145 218.776,156.855 218.776,157.900 218.694 C 158.945 218.612,158.090 218.544,156.000 218.544 C 153.910 218.544,153.055 218.612,154.100 218.694 M145.200 219.200 C 143.563 219.454,143.527 219.483,144.800 219.510 C 145.570 219.527,147.010 219.397,148.000 219.220 C 150.397 218.794,147.928 218.776,145.200 219.200 M164.000 219.220 C 164.990 219.397,166.520 219.530,167.400 219.517 C 168.959 219.494,168.948 219.485,167.000 219.182 C 164.136 218.735,161.469 218.770,164.000 219.220 M139.664 220.073 C 138.709 220.287,138.004 220.537,138.096 220.630 C 138.281 220.814,142.899 220.025,143.167 219.763 C 143.445 219.490,141.504 219.662,139.664 220.073 M170.000 219.980 C 170.999 220.320,173.482 220.532,173.167 220.251 C 173.075 220.169,172.100 219.999,171.000 219.872 C 169.651 219.716,169.326 219.751,170.000 219.980 M174.800 220.860 C 180.397 222.583,182.553 223.180,182.690 223.043 C 182.896 222.837,176.604 220.924,174.800 220.645 L 173.400 220.429 174.800 220.860 M132.675 221.876 C 130.957 222.431,129.628 222.961,129.722 223.056 C 129.816 223.150,130.686 222.958,131.655 222.629 C 132.624 222.300,134.403 221.766,135.608 221.442 C 136.814 221.118,137.350 220.856,136.800 220.861 C 136.250 220.865,134.394 221.322,132.675 221.876 M184.226 223.765 C 186.244 224.644,187.526 224.859,185.800 224.029 C 184.920 223.606,183.930 223.253,183.600 223.245 C 183.270 223.238,183.552 223.472,184.226 223.765 M124.900 224.634 C 124.185 224.946,123.600 225.290,123.600 225.398 C 123.600 225.576,126.776 224.451,127.167 224.135 C 127.595 223.788,126.062 224.126,124.900 224.634 M189.740 226.046 C 191.027 226.710,192.164 227.170,192.266 227.068 C 192.449 226.884,188.136 224.782,187.652 224.819 C 187.513 224.830,188.453 225.382,189.740 226.046 M120.000 226.860 C 116.623 228.687,116.623 229.070,120.000 227.395 C 123.340 225.737,123.580 225.585,122.767 225.635 C 122.455 225.654,121.210 226.205,120.000 226.860 M192.800 227.393 C 192.800 227.500,193.700 228.043,194.800 228.600 C 197.315 229.875,197.421 229.616,194.950 228.234 C 193.027 227.160,192.800 227.071,192.800 227.393 M198.620 230.732 C 198.829 230.914,200.440 232.022,202.200 233.193 C 208.323 237.267,214.884 243.361,219.580 249.336 C 220.731 250.801,221.769 252.000,221.885 252.000 C 222.479 252.000,216.292 244.809,212.738 241.368 C 208.776 237.531,205.858 235.138,201.815 232.410 C 199.209 230.651,197.501 229.754,198.620 230.732 M110.322 232.526 C 109.289 233.227,108.434 233.937,108.422 234.104 C 108.410 234.271,109.390 233.751,110.600 232.947 C 111.810 232.144,112.800 231.422,112.800 231.343 C 112.800 230.993,112.067 231.342,110.322 232.526 M106.385 235.632 L 105.000 236.863 106.288 236.013 C 107.430 235.259,108.293 234.400,107.908 234.400 C 107.832 234.400,107.147 234.954,106.385 235.632 M100.972 240.147 C 99.007 241.981,96.509 244.543,95.421 245.841 C 94.163 247.342,94.890 246.733,97.422 244.165 C 99.610 241.946,102.181 239.457,103.136 238.634 C 104.090 237.811,104.798 237.065,104.708 236.975 C 104.619 236.886,102.937 238.313,100.972 240.147 M92.161 249.522 C 89.342 253.145,83.393 262.726,83.744 263.077 C 83.892 263.226,86.000 259.729,86.000 259.334 C 86.000 259.022,90.916 251.798,92.284 250.100 C 93.037 249.165,93.507 248.410,93.327 248.422 C 93.147 248.434,92.623 248.929,92.161 249.522 M224.654 256.476 C 225.714 258.168,226.634 259.500,226.697 259.436 C 226.875 259.258,224.057 254.682,223.350 254.000 C 223.008 253.670,223.595 254.784,224.654 256.476 M227.833 261.892 C 228.447 263.043,229.014 263.919,229.094 263.839 C 229.267 263.666,227.698 260.771,227.121 260.200 C 226.899 259.980,227.219 260.742,227.833 261.892 M229.897 265.599 C 230.747 267.191,232.912 268.808,234.159 268.782 C 234.684 268.771,234.398 268.551,233.400 268.197 C 231.857 267.650,231.445 267.298,229.875 265.178 C 229.211 264.281,229.212 264.315,229.897 265.599 M81.872 266.619 C 80.932 268.589,81.064 268.924,82.047 267.062 C 82.493 266.216,82.787 265.454,82.701 265.367 C 82.614 265.281,82.241 265.844,81.872 266.619 M237.100 268.689 C 237.815 268.778,238.985 268.778,239.700 268.689 C 240.415 268.601,239.830 268.528,238.400 268.528 C 236.970 268.528,236.385 268.601,237.100 268.689 M244.200 269.200 C 244.860 269.368,246.030 269.506,246.800 269.507 L 248.200 269.508 246.600 269.177 C 244.445 268.731,242.434 268.751,244.200 269.200 M249.000 269.981 C 249.768 270.329,251.910 270.556,251.567 270.253 C 251.475 270.172,250.680 269.996,249.800 269.862 C 248.685 269.693,248.442 269.729,249.000 269.981 M252.600 270.755 C 253.040 270.939,254.210 271.364,255.200 271.700 C 256.190 272.035,257.990 272.703,259.200 273.184 C 260.410 273.664,261.220 273.892,261.000 273.690 C 260.458 273.192,254.494 270.922,253.000 270.644 C 252.135 270.483,252.023 270.515,252.600 270.755 M78.200 276.400 C 78.050 276.873,78.017 277.350,78.127 277.460 C 78.237 277.570,78.450 277.273,78.600 276.800 C 78.750 276.327,78.783 275.850,78.673 275.740 C 78.563 275.630,78.350 275.927,78.200 276.400 M265.200 276.020 C 266.587 276.961,267.378 277.235,266.400 276.436 C 265.850 275.986,265.220 275.617,265.000 275.615 C 264.780 275.613,264.870 275.796,265.200 276.020 M77.449 279.015 C 77.312 279.373,77.215 279.966,77.234 280.333 C 77.253 280.700,77.427 280.469,77.621 279.820 C 77.998 278.558,77.865 277.933,77.449 279.015 M270.169 279.149 C 270.559 279.782,272.801 281.299,272.795 280.927 C 272.792 280.747,272.143 280.181,271.352 279.668 C 270.560 279.155,270.028 278.922,270.169 279.149 M277.211 285.431 C 279.528 287.834,281.920 290.430,282.527 291.200 C 283.134 291.970,283.460 292.240,283.251 291.800 C 282.610 290.450,277.416 284.702,275.146 282.831 C 273.672 281.615,274.318 282.429,277.211 285.431 M76.649 282.215 C 76.512 282.573,76.418 283.346,76.440 283.933 C 76.473 284.791,76.552 284.695,76.846 283.440 C 77.222 281.839,77.095 281.053,76.649 282.215 M75.849 286.215 C 75.712 286.573,75.622 287.616,75.650 288.533 C 75.698 290.131,75.713 290.110,76.018 288.002 C 76.347 285.734,76.285 285.081,75.849 286.215 M74.993 292.914 C 74.844 294.113,74.795 295.433,74.885 295.847 C 74.975 296.261,75.189 295.371,75.360 293.869 C 75.531 292.366,75.579 291.046,75.468 290.935 C 75.357 290.824,75.143 291.714,74.993 292.914 M284.585 294.300 C 285.202 295.235,285.783 296.000,285.876 296.000 C 286.164 296.000,284.633 293.566,284.032 293.069 C 283.720 292.811,283.968 293.365,284.585 294.300 M286.600 297.600 C 286.941 298.260,287.311 298.800,287.421 298.800 C 287.531 298.800,287.341 298.260,287.000 297.600 C 286.659 296.940,286.289 296.400,286.179 296.400 C 286.069 296.400,286.259 296.940,286.600 297.600 M74.400 297.103 C 74.400 297.342,73.911 298.137,73.314 298.869 C 72.421 299.964,72.392 300.059,73.151 299.404 C 74.229 298.475,74.965 297.231,74.632 296.899 C 74.505 296.771,74.400 296.863,74.400 297.103 M52.200 300.400 L 51.000 300.705 52.200 300.713 C 52.860 300.717,53.850 300.576,54.400 300.400 L 55.400 300.080 54.400 300.087 C 53.850 300.091,52.860 300.232,52.200 300.400 M64.400 300.400 C 64.950 300.576,66.030 300.717,66.800 300.714 L 68.200 300.708 66.600 300.377 C 64.463 299.935,62.996 299.950,64.400 300.400 M48.600 301.200 L 47.800 301.544 48.600 301.566 C 49.040 301.578,49.670 301.413,50.000 301.200 C 50.795 300.686,49.796 300.686,48.600 301.200 M44.400 302.552 C 40.382 304.228,34.811 307.448,34.803 308.099 C 34.802 308.264,35.655 307.794,36.700 307.055 C 38.670 305.663,43.416 303.257,46.200 302.241 C 47.080 301.919,47.530 301.651,47.200 301.645 C 46.870 301.639,45.610 302.047,44.400 302.552 M31.083 311.300 C 29.469 312.895,27.914 314.560,27.628 315.000 C 27.341 315.440,27.912 314.919,28.895 313.841 C 29.878 312.764,31.564 311.106,32.641 310.157 C 33.719 309.207,34.469 308.424,34.308 308.415 C 34.148 308.407,32.697 309.705,31.083 311.300 M291.840 310.666 C 292.208 312.199,292.400 312.344,292.400 311.090 C 292.400 310.517,292.213 309.932,291.984 309.790 C 291.711 309.621,291.662 309.923,291.840 310.666 M292.650 314.000 C 292.975 316.241,293.202 316.560,293.194 314.767 C 293.191 314.015,293.008 313.130,292.788 312.800 C 292.509 312.381,292.467 312.742,292.650 314.000 M25.414 317.900 C 24.647 318.945,24.015 319.965,24.010 320.167 C 24.004 320.368,24.056 320.458,24.123 320.367 C 25.483 318.531,27.152 316.000,27.003 316.000 C 26.896 316.000,26.180 316.855,25.414 317.900 M293.400 325.000 C 293.400 329.536,293.517 332.832,293.660 332.324 C 293.803 331.816,293.920 328.520,293.920 325.000 C 293.920 321.480,293.803 318.184,293.660 317.676 C 293.517 317.168,293.400 320.464,293.400 325.000 M22.221 323.700 C 21.491 325.295,20.782 327.050,20.645 327.600 L 20.396 328.600 20.868 327.600 C 22.522 324.097,23.919 320.800,23.748 320.800 C 23.638 320.800,22.951 322.105,22.221 323.700 M19.679 330.707 C 19.421 331.748,19.121 333.410,19.013 334.400 L 18.816 336.200 19.215 334.600 C 20.112 331.003,20.477 329.144,20.317 328.983 C 20.224 328.890,19.937 329.666,19.679 330.707 M292.859 334.800 C 292.820 335.350,292.689 336.250,292.567 336.800 C 292.376 337.662,292.408 337.702,292.797 337.091 C 293.046 336.702,293.177 335.802,293.089 335.091 C 292.964 334.087,292.913 334.022,292.859 334.800 M292.054 338.467 C 292.025 338.834,291.884 339.464,291.741 339.867 C 291.541 340.433,291.595 340.496,291.975 340.146 C 292.246 339.897,292.387 339.267,292.288 338.746 C 292.190 338.226,292.084 338.100,292.054 338.467 M18.514 340.600 C 18.517 341.700,18.595 342.103,18.687 341.495 C 18.779 340.886,18.777 339.986,18.682 339.495 C 18.587 339.003,18.511 339.500,18.514 340.600 M18.988 347.070 C 19.142 348.209,19.525 349.919,19.840 350.870 C 20.188 351.920,20.331 352.128,20.205 351.400 C 19.376 346.606,19.127 345.395,18.932 345.210 C 18.809 345.095,18.835 345.932,18.988 347.070 M286.614 352.235 C 286.241 352.804,286.027 353.361,286.139 353.472 C 286.250 353.583,286.629 353.118,286.981 352.437 C 287.759 350.933,287.544 350.815,286.614 352.235 M20.587 353.600 C 20.990 355.008,22.513 358.420,22.669 358.264 C 22.815 358.118,20.836 353.111,20.510 352.800 C 20.395 352.690,20.429 353.050,20.587 353.600 M284.585 355.700 C 283.968 356.635,283.720 357.189,284.032 356.931 C 284.633 356.434,286.164 354.000,285.876 354.000 C 285.783 354.000,285.202 354.765,284.585 355.700 M59.181 357.301 C 57.871 358.184,56.109 360.643,56.504 361.037 C 56.613 361.146,57.049 360.570,57.472 359.755 C 57.894 358.940,58.832 357.956,59.556 357.568 C 61.089 356.745,61.495 356.400,60.926 356.400 C 60.702 356.400,59.916 356.806,59.181 357.301 M126.498 356.631 C 126.625 356.759,127.325 357.182,128.054 357.573 C 128.840 357.994,129.745 358.999,130.278 360.042 C 130.773 361.009,131.182 361.530,131.187 361.200 C 131.204 360.166,129.663 358.026,128.304 357.198 C 127.089 356.457,125.974 356.107,126.498 356.631 M140.496 357.198 C 139.137 358.026,137.596 360.166,137.613 361.200 C 137.618 361.530,138.027 361.009,138.522 360.042 C 139.055 358.999,139.960 357.994,140.746 357.573 C 142.255 356.764,142.697 356.399,142.167 356.401 C 141.965 356.402,141.213 356.761,140.496 357.198 M154.025 358.201 C 156.715 361.349,156.498 364.859,153.463 367.291 C 152.988 367.671,152.794 367.986,153.030 367.991 C 154.108 368.013,156.400 364.393,156.400 362.669 C 156.400 361.182,155.394 359.110,154.135 358.001 L 153.000 357.003 154.025 358.201 M282.226 359.100 C 281.362 360.205,281.293 360.390,281.963 359.804 C 282.765 359.104,283.823 357.600,283.514 357.600 C 283.451 357.600,282.872 358.275,282.226 359.100 M23.081 359.400 C 24.085 362.507,31.126 370.830,34.800 373.253 C 36.583 374.428,36.587 374.429,35.223 373.320 C 30.368 369.370,27.689 366.233,23.311 359.367 C 22.838 358.624,22.831 358.625,23.081 359.400 M276.992 364.891 C 274.797 367.141,273.616 368.446,274.369 367.791 C 276.756 365.715,281.535 360.800,281.167 360.800 C 281.067 360.800,279.188 362.641,276.992 364.891 M56.593 364.400 C 56.754 364.950,57.144 365.670,57.460 366.000 C 57.877 366.435,57.848 366.216,57.356 365.200 C 56.489 363.412,56.222 363.133,56.593 364.400 M129.194 366.607 C 127.482 368.429,127.135 368.446,92.738 368.320 C 74.774 368.254,60.284 368.332,60.538 368.494 C 60.792 368.656,75.735 368.791,93.746 368.794 C 129.833 368.801,128.346 368.900,129.926 366.370 C 130.581 365.320,130.324 365.404,129.194 366.607 M138.813 366.272 C 140.152 368.417,149.480 370.005,151.864 368.494 C 152.118 368.332,150.437 368.262,148.126 368.337 C 142.797 368.512,141.525 368.261,139.727 366.682 C 138.686 365.768,138.425 365.651,138.813 366.272 M271.200 370.035 L 269.800 371.248 271.295 370.324 C 272.117 369.816,272.792 369.265,272.795 369.100 C 272.802 368.664,272.738 368.702,271.200 370.035 M265.800 373.600 C 265.140 374.037,264.780 374.392,265.000 374.388 C 265.401 374.382,267.576 372.823,267.200 372.812 C 267.090 372.808,266.460 373.163,265.800 373.600 M36.800 374.501 C 36.800 374.755,39.896 376.800,40.280 376.800 C 40.444 376.800,40.223 376.558,39.789 376.261 C 37.881 374.959,36.800 374.322,36.800 374.501 M40.800 376.965 C 40.800 377.209,43.231 378.400,43.728 378.400 C 43.951 378.400,44.049 378.316,43.946 378.213 C 43.633 377.900,40.800 376.777,40.800 376.965 M257.200 377.648 C 255.990 378.099,254.550 378.617,254.000 378.800 C 253.450 378.982,253.270 379.144,253.600 379.160 C 254.301 379.193,257.059 378.274,257.459 377.874 C 257.610 377.723,258.053 377.600,258.443 377.600 C 258.833 377.600,259.264 377.420,259.400 377.200 C 259.711 376.696,259.809 376.677,257.200 377.648 M44.627 378.737 C 44.832 378.915,45.810 379.293,46.800 379.577 C 47.790 379.861,49.050 380.241,49.600 380.422 C 50.674 380.776,55.267 381.312,54.600 381.006 C 54.380 380.905,53.210 380.650,52.000 380.440 C 49.854 380.067,48.422 379.708,45.627 378.840 C 44.872 378.606,44.422 378.560,44.627 378.737 M250.400 379.682 C 249.410 379.899,247.340 380.321,245.800 380.620 C 243.140 381.136,243.110 381.154,245.200 380.973 C 247.585 380.767,250.922 380.104,252.200 379.581 C 253.237 379.157,252.642 379.191,250.400 379.682 M94.532 381.500 C 116.274 381.557,151.734 381.557,173.332 381.500 C 194.929 381.443,177.140 381.396,133.800 381.396 C 90.460 381.396,72.789 381.443,94.532 381.500 " stroke="none" fill="#5f5e61" fill-rule="evenodd"></path></g></svg>