<svg id="svg" version="1.1" xmlns="http://www.w3.org/2000/svg" xmlns:xlink="http://www.w3.org/1999/xlink" width="400" height="400" viewBox="0, 0, 400,400"><g id="svgg"><path id="path0" d="M212.200 31.200 C 212.064 31.420,210.613 31.600,208.976 31.600 C 207.339 31.600,206.000 31.763,206.000 31.963 C 206.000 32.163,205.055 32.427,203.900 32.550 C 199.463 33.023,198.000 33.293,198.000 33.640 C 198.000 33.838,197.280 34.000,196.400 34.000 C 195.520 34.000,194.800 34.180,194.800 34.400 C 194.800 34.620,194.170 34.800,193.400 34.800 C 192.630 34.800,192.000 34.980,192.000 35.200 C 192.000 35.420,191.471 35.600,190.824 35.600 C 190.177 35.600,189.536 35.780,189.400 36.000 C 189.264 36.220,188.533 36.400,187.776 36.400 C 187.019 36.400,186.400 36.580,186.400 36.800 C 186.400 37.020,185.950 37.200,185.400 37.200 C 184.850 37.200,184.400 37.380,184.400 37.600 C 184.400 37.820,183.950 38.000,183.400 38.000 C 182.850 38.000,182.400 38.180,182.400 38.400 C 182.400 38.620,181.860 38.800,181.200 38.800 C 180.540 38.800,180.000 38.980,180.000 39.200 C 180.000 39.420,179.640 39.600,179.200 39.600 C 178.760 39.600,178.400 39.780,178.400 40.000 C 178.400 40.220,178.051 40.400,177.624 40.400 C 177.197 40.400,176.736 40.580,176.600 40.800 C 176.464 41.020,176.003 41.200,175.576 41.200 C 175.149 41.200,174.800 41.380,174.800 41.600 C 174.800 41.820,174.485 42.000,174.100 42.001 C 173.715 42.002,171.780 42.833,169.800 43.848 C 167.820 44.864,165.796 45.898,165.303 46.147 C 164.810 46.396,164.405 46.735,164.403 46.900 C 164.401 47.065,164.040 47.200,163.600 47.200 C 163.160 47.200,162.800 47.380,162.800 47.600 C 162.800 47.820,162.530 48.000,162.200 48.000 C 161.870 48.000,161.600 48.180,161.600 48.400 C 161.600 48.620,161.330 48.800,161.000 48.800 C 160.670 48.800,160.400 48.980,160.400 49.200 C 160.400 49.420,160.170 49.600,159.888 49.600 C 159.607 49.600,159.117 49.960,158.800 50.400 C 158.483 50.840,157.943 51.200,157.600 51.200 C 157.257 51.200,156.717 51.560,156.400 52.000 C 156.083 52.440,155.631 52.800,155.396 52.800 C 155.160 52.800,154.172 53.520,153.200 54.400 C 152.228 55.280,151.272 56.000,151.076 56.000 C 150.881 56.000,150.217 56.540,149.600 57.200 C 148.983 57.860,148.346 58.400,148.183 58.400 C 147.778 58.400,143.532 62.009,142.851 62.931 C 142.550 63.340,140.165 65.823,137.551 68.449 C 134.938 71.075,132.800 73.392,132.800 73.598 C 132.800 73.805,132.170 74.603,131.400 75.373 C 130.630 76.143,130.000 76.871,130.000 76.990 C 130.000 77.110,129.460 77.772,128.800 78.463 C 128.140 79.154,127.600 79.962,127.600 80.259 C 127.600 80.557,127.458 80.800,127.284 80.800 C 127.110 80.800,126.442 81.700,125.800 82.800 C 125.158 83.900,124.490 84.800,124.316 84.800 C 124.142 84.800,124.000 85.160,124.000 85.600 C 124.000 86.040,123.820 86.400,123.600 86.400 C 123.380 86.400,123.200 86.720,123.200 87.112 C 123.200 87.503,122.840 88.083,122.400 88.400 C 121.960 88.717,121.600 89.220,121.600 89.517 C 121.600 90.329,120.306 91.518,120.099 90.896 C 120.008 90.623,119.419 90.400,118.790 90.400 C 118.162 90.400,117.536 90.220,117.400 90.000 C 117.264 89.780,116.533 89.600,115.776 89.600 C 115.019 89.600,114.400 89.420,114.400 89.200 C 114.400 88.980,113.680 88.800,112.800 88.800 C 111.920 88.800,111.200 88.620,111.200 88.400 C 111.200 88.180,110.221 88.000,109.024 88.000 C 107.827 88.000,106.736 87.820,106.600 87.600 C 106.464 87.380,105.013 87.200,103.376 87.200 C 101.659 87.200,100.400 87.031,100.400 86.800 C 100.400 86.545,97.133 86.400,91.400 86.400 C 85.667 86.400,82.400 86.545,82.400 86.800 C 82.400 87.031,81.141 87.200,79.424 87.200 C 77.787 87.200,76.336 87.380,76.200 87.600 C 76.064 87.820,75.074 88.000,74.000 88.000 C 72.926 88.000,71.936 88.180,71.800 88.400 C 71.664 88.620,70.843 88.800,69.976 88.800 C 69.109 88.800,68.400 88.980,68.400 89.200 C 68.400 89.420,67.781 89.600,67.024 89.600 C 66.267 89.600,65.536 89.780,65.400 90.000 C 65.264 90.220,64.623 90.400,63.976 90.400 C 63.329 90.400,62.800 90.580,62.800 90.800 C 62.800 91.020,62.519 91.200,62.175 91.200 C 61.326 91.200,57.492 92.433,57.020 92.858 C 56.811 93.046,56.397 93.200,56.101 93.200 C 55.804 93.200,54.816 93.560,53.906 94.000 C 52.995 94.440,52.014 94.800,51.725 94.800 C 51.436 94.800,51.200 94.980,51.200 95.200 C 51.200 95.420,50.840 95.600,50.400 95.600 C 49.960 95.600,49.600 95.780,49.600 96.000 C 49.600 96.220,49.255 96.400,48.833 96.400 C 48.412 96.400,48.007 96.535,47.933 96.700 C 47.766 97.076,45.636 98.375,44.700 98.671 C 44.315 98.793,44.000 99.052,44.000 99.247 C 44.000 99.441,43.813 99.600,43.584 99.600 C 43.110 99.600,40.669 101.245,40.467 101.700 C 40.393 101.865,40.105 102.000,39.826 102.000 C 39.547 102.000,38.754 102.540,38.063 103.200 C 37.372 103.860,36.608 104.400,36.364 104.400 C 36.120 104.400,35.417 104.940,34.800 105.600 C 34.183 106.260,33.523 106.800,33.332 106.800 C 32.823 106.800,29.325 109.873,27.010 112.354 C 25.904 113.538,23.875 115.650,22.500 117.046 C 21.125 118.443,20.000 119.768,20.000 119.992 C 20.000 120.216,19.280 121.141,18.400 122.048 C 17.520 122.955,16.800 123.905,16.800 124.160 C 16.800 124.415,16.440 124.883,16.000 125.200 C 15.560 125.517,15.200 125.924,15.200 126.105 C 15.200 126.286,14.840 126.820,14.400 127.292 C 13.960 127.764,13.600 128.387,13.600 128.675 C 13.600 128.964,13.455 129.200,13.279 129.200 C 13.102 129.200,12.517 130.097,11.979 131.194 C 11.440 132.290,10.865 133.190,10.700 133.194 C 10.535 133.197,10.400 133.560,10.400 134.000 C 10.400 134.440,10.220 134.800,10.000 134.800 C 9.780 134.800,9.600 135.160,9.600 135.600 C 9.600 136.040,9.422 136.400,9.205 136.400 C 8.987 136.400,8.694 137.120,8.554 138.000 C 8.413 138.880,8.141 139.600,7.949 139.600 C 7.757 139.600,7.600 139.960,7.600 140.400 C 7.600 140.840,7.420 141.200,7.200 141.200 C 6.980 141.200,6.800 141.560,6.800 142.000 C 6.800 142.440,6.620 142.800,6.400 142.800 C 6.180 142.800,6.000 143.250,6.000 143.800 C 6.000 144.350,5.820 144.800,5.600 144.800 C 5.380 144.800,5.200 145.160,5.200 145.600 C 5.200 146.040,5.020 146.400,4.800 146.400 C 4.580 146.400,4.400 146.940,4.400 147.600 C 4.400 148.260,4.220 148.800,4.000 148.800 C 3.780 148.800,3.600 149.340,3.600 150.000 C 3.600 150.660,3.420 151.200,3.200 151.200 C 2.980 151.200,2.800 151.920,2.800 152.800 C 2.800 153.680,2.620 154.400,2.400 154.400 C 2.180 154.400,2.000 155.120,2.000 156.000 C 2.000 156.880,1.820 157.600,1.600 157.600 C 1.380 157.600,1.200 158.395,1.200 159.367 C 1.200 160.424,0.999 161.200,0.700 161.300 C -0.030 161.543,-0.030 195.257,0.700 195.500 C 1.010 195.603,1.200 196.416,1.200 197.633 C 1.200 198.715,1.380 199.600,1.600 199.600 C 1.820 199.600,2.000 200.320,2.000 201.200 C 2.000 202.080,2.180 202.800,2.400 202.800 C 2.620 202.800,2.800 203.329,2.800 203.976 C 2.800 204.623,2.980 205.264,3.200 205.400 C 3.420 205.536,3.600 206.177,3.600 206.824 C 3.600 207.471,3.780 208.000,4.000 208.000 C 4.220 208.000,4.400 208.439,4.400 208.976 C 4.400 209.513,4.580 210.064,4.800 210.200 C 5.020 210.336,5.200 210.797,5.200 211.224 C 5.200 211.651,5.380 212.000,5.600 212.000 C 5.820 212.000,6.000 212.540,6.000 213.200 C 6.000 213.860,6.180 214.400,6.400 214.400 C 6.620 214.400,6.800 214.760,6.800 215.200 C 6.800 215.640,6.980 216.000,7.200 216.000 C 7.420 216.000,7.600 216.360,7.600 216.800 C 7.600 217.240,7.780 217.600,8.000 217.600 C 8.220 217.600,8.400 217.897,8.400 218.260 C 8.400 218.885,10.312 223.172,10.782 223.600 C 10.903 223.710,11.256 224.295,11.568 224.900 C 11.880 225.505,12.285 226.000,12.468 226.000 C 12.650 226.000,12.800 226.360,12.800 226.800 C 12.800 227.240,12.950 227.600,13.132 227.600 C 13.315 227.600,13.720 228.095,14.032 228.700 C 14.345 229.305,14.915 230.149,15.300 230.575 C 15.685 231.002,16.000 231.547,16.000 231.787 C 16.000 232.027,16.360 232.483,16.800 232.800 C 17.240 233.117,17.600 233.585,17.600 233.840 C 17.600 234.095,18.320 235.045,19.200 235.952 C 20.080 236.859,20.800 237.689,20.800 237.796 C 20.800 238.076,22.048 239.563,23.114 240.552 C 23.616 241.018,24.426 241.831,24.914 242.357 C 27.705 245.371,30.372 247.939,31.600 248.794 C 32.370 249.330,33.477 250.271,34.060 250.885 C 34.644 251.498,35.274 252.000,35.460 252.001 C 35.647 252.001,36.430 252.541,37.200 253.200 C 37.970 253.859,38.743 254.399,38.917 254.399 C 39.091 254.400,39.620 254.760,40.092 255.200 C 40.564 255.640,41.187 256.000,41.475 256.000 C 41.764 256.000,42.000 256.151,42.000 256.335 C 42.000 256.519,43.395 257.374,45.100 258.235 C 46.805 259.096,48.290 259.890,48.400 260.000 C 48.878 260.478,50.439 261.200,50.995 261.200 C 51.328 261.200,51.600 261.380,51.600 261.600 C 51.600 261.820,52.050 262.000,52.600 262.000 C 53.150 262.000,53.600 262.180,53.600 262.400 C 53.600 262.620,53.960 262.800,54.400 262.800 C 54.840 262.800,55.200 262.980,55.200 263.200 C 55.200 263.420,55.560 263.600,56.000 263.600 C 56.440 263.600,56.800 263.780,56.800 264.000 C 56.800 264.220,57.340 264.400,58.000 264.400 C 58.660 264.400,59.200 264.580,59.200 264.800 C 59.200 265.020,59.650 265.200,60.200 265.200 C 60.750 265.200,61.200 265.380,61.200 265.600 C 61.200 265.820,61.740 266.000,62.400 266.000 C 63.060 266.000,63.600 266.180,63.600 266.400 C 63.600 266.620,64.140 266.800,64.800 266.800 C 65.460 266.800,66.000 266.980,66.000 267.200 C 66.000 267.420,66.720 267.600,67.600 267.600 C 68.480 267.600,69.200 267.780,69.200 268.000 C 69.200 268.220,69.909 268.400,70.776 268.400 C 71.643 268.400,72.464 268.580,72.600 268.800 C 72.736 269.020,73.827 269.200,75.024 269.200 C 76.221 269.200,77.200 269.367,77.200 269.572 C 77.200 270.242,84.228 270.454,112.500 270.633 C 127.845 270.731,140.400 270.922,140.400 271.058 C 140.400 271.195,140.085 271.599,139.700 271.957 C 138.723 272.867,138.000 274.243,138.000 275.195 C 138.000 275.638,137.820 276.000,137.600 276.000 C 137.380 276.000,137.200 276.799,137.200 277.776 C 137.200 278.753,137.380 279.664,137.600 279.800 C 137.820 279.936,138.000 280.491,138.000 281.034 C 138.000 282.141,141.174 285.600,142.189 285.600 C 142.525 285.600,142.800 285.780,142.800 286.000 C 142.800 286.262,150.733 286.400,165.800 286.400 C 180.867 286.400,188.800 286.538,188.800 286.800 C 188.800 287.020,188.620 287.200,188.400 287.200 C 188.180 287.200,188.000 287.740,188.000 288.400 C 188.000 289.060,187.820 289.600,187.600 289.600 C 187.380 289.600,187.200 290.140,187.200 290.800 C 187.200 291.460,187.020 292.000,186.800 292.000 C 186.580 292.000,186.400 292.450,186.400 293.000 C 186.400 293.550,186.220 294.000,186.000 294.000 C 185.780 294.000,185.600 294.349,185.600 294.776 C 185.600 295.203,185.420 295.664,185.200 295.800 C 184.980 295.936,184.800 296.487,184.800 297.024 C 184.800 297.561,184.620 298.000,184.400 298.000 C 184.180 298.000,184.000 298.540,184.000 299.200 C 184.000 299.860,183.820 300.400,183.600 300.400 C 183.380 300.400,183.200 300.749,183.200 301.176 C 183.200 301.603,183.020 302.064,182.800 302.200 C 182.580 302.336,182.400 302.887,182.400 303.424 C 182.400 303.961,182.220 304.400,182.000 304.400 C 181.780 304.400,181.600 304.940,181.600 305.600 C 181.600 306.260,181.420 306.800,181.200 306.800 C 180.980 306.800,180.800 307.239,180.800 307.776 C 180.800 308.313,180.620 308.864,180.400 309.000 C 180.180 309.136,180.000 309.597,180.000 310.024 C 180.000 310.451,179.820 310.800,179.600 310.800 C 179.380 310.800,179.200 311.239,179.200 311.776 C 179.200 312.313,179.020 312.864,178.800 313.000 C 178.580 313.136,178.400 313.672,178.400 314.190 C 178.400 314.709,178.260 315.193,178.088 315.267 C 177.735 315.417,174.800 324.124,174.800 325.020 C 174.800 325.339,174.620 325.600,174.400 325.600 C 174.180 325.600,174.000 326.050,174.000 326.600 C 174.000 327.150,173.820 327.600,173.600 327.600 C 173.380 327.600,173.200 328.140,173.200 328.800 C 173.200 329.460,173.020 330.000,172.800 330.000 C 172.580 330.000,172.400 330.349,172.400 330.776 C 172.400 331.203,172.220 331.664,172.000 331.800 C 171.780 331.936,171.600 332.487,171.600 333.024 C 171.600 333.561,171.420 334.000,171.200 334.000 C 170.980 334.000,170.800 334.540,170.800 335.200 C 170.800 335.860,170.620 336.400,170.400 336.400 C 170.180 336.400,170.000 336.839,170.000 337.376 C 170.000 337.913,169.820 338.464,169.600 338.600 C 169.380 338.736,169.200 339.197,169.200 339.624 C 169.200 340.051,169.020 340.400,168.800 340.400 C 168.580 340.400,168.400 340.839,168.400 341.376 C 168.400 341.913,168.220 342.464,168.000 342.600 C 167.780 342.736,167.600 343.287,167.600 343.824 C 167.600 344.361,167.420 344.800,167.200 344.800 C 166.980 344.800,166.800 345.250,166.800 345.800 C 166.800 346.350,166.620 346.800,166.400 346.800 C 166.180 346.800,166.000 347.250,166.000 347.800 C 166.000 348.350,165.820 348.800,165.600 348.800 C 165.380 348.800,165.200 349.340,165.200 350.000 C 165.200 350.660,165.020 351.200,164.800 351.200 C 164.580 351.200,164.400 351.562,164.400 352.005 C 164.400 352.448,164.220 353.168,164.000 353.605 C 163.780 354.042,163.420 354.758,163.200 355.195 C 162.980 355.632,162.800 356.352,162.800 356.795 C 162.800 357.238,162.620 357.600,162.400 357.600 C 161.609 357.600,161.931 363.453,162.808 365.014 C 163.836 366.845,165.386 368.400,166.182 368.400 C 166.522 368.400,166.800 368.580,166.800 368.800 C 166.800 369.634,173.761 369.282,174.708 368.400 C 175.180 367.960,175.767 367.600,176.012 367.600 C 176.581 367.600,177.600 366.589,177.600 366.025 C 177.600 365.787,178.140 365.028,178.800 364.337 C 179.460 363.646,180.000 362.878,180.000 362.629 C 180.000 362.380,180.360 361.917,180.800 361.600 C 181.240 361.283,181.600 360.775,181.600 360.472 C 181.600 360.169,182.140 359.417,182.800 358.800 C 183.460 358.183,184.000 357.521,184.000 357.328 C 184.000 357.135,184.360 356.717,184.800 356.400 C 185.240 356.083,185.600 355.638,185.601 355.412 C 185.601 355.185,186.141 354.370,186.800 353.600 C 187.459 352.830,187.999 352.057,187.999 351.882 C 188.000 351.707,188.450 351.114,189.000 350.564 C 189.550 350.014,190.000 349.419,190.000 349.243 C 190.000 348.961,190.447 348.349,191.993 346.517 C 192.217 346.251,192.400 345.796,192.400 345.505 C 192.400 345.214,192.760 344.717,193.200 344.400 C 193.640 344.083,194.000 343.620,194.000 343.371 C 194.000 343.122,194.540 342.354,195.200 341.663 C 195.860 340.972,196.400 340.314,196.400 340.200 C 196.400 340.086,196.940 339.428,197.600 338.737 C 198.260 338.046,198.800 337.278,198.800 337.029 C 198.800 336.780,199.160 336.317,199.600 336.000 C 200.040 335.683,200.400 335.175,200.400 334.872 C 200.400 334.569,200.940 333.817,201.600 333.200 C 202.260 332.583,202.800 331.873,202.800 331.621 C 202.800 331.370,203.250 330.714,203.800 330.164 C 204.350 329.614,204.800 329.000,204.800 328.800 C 204.800 328.600,205.250 327.986,205.800 327.436 C 206.350 326.886,206.800 326.276,206.800 326.080 C 206.800 325.884,207.155 325.402,207.590 325.009 C 208.024 324.616,208.493 323.937,208.632 323.500 C 208.771 323.062,209.405 322.159,210.042 321.493 C 210.679 320.827,211.200 320.126,211.200 319.937 C 211.200 319.748,211.740 319.028,212.400 318.337 C 213.060 317.646,213.600 316.878,213.600 316.629 C 213.600 316.380,213.960 315.917,214.400 315.600 C 214.840 315.283,215.200 314.775,215.200 314.472 C 215.200 314.169,215.740 313.417,216.400 312.800 C 217.060 312.183,217.600 311.473,217.600 311.221 C 217.600 310.970,218.037 310.327,218.571 309.793 C 219.105 309.259,219.864 308.277,220.257 307.611 C 220.651 306.945,221.114 306.400,221.286 306.400 C 221.459 306.400,221.600 306.130,221.600 305.800 C 221.600 305.470,221.735 305.199,221.900 305.197 C 222.065 305.196,222.648 304.521,223.196 303.697 C 223.744 302.874,224.298 302.110,224.427 302.000 C 224.555 301.890,225.007 301.170,225.430 300.400 C 225.854 299.630,226.515 298.709,226.900 298.353 C 227.285 297.997,227.600 297.484,227.600 297.214 C 227.600 296.943,228.140 296.217,228.800 295.600 C 229.460 294.983,230.000 294.284,230.000 294.046 C 230.000 293.808,230.449 293.116,230.997 292.507 C 232.892 290.404,233.999 288.999,234.000 288.696 C 234.000 288.529,234.540 287.828,235.200 287.137 C 235.860 286.446,236.400 285.720,236.400 285.522 C 236.400 285.325,236.850 284.714,237.400 284.164 C 237.950 283.614,238.400 283.020,238.400 282.844 C 238.400 282.668,238.850 282.001,239.400 281.362 C 239.949 280.723,240.399 280.052,240.400 279.871 C 240.400 279.691,240.625 279.292,240.900 278.985 C 242.102 277.645,242.400 277.206,242.400 276.777 C 242.400 276.526,242.940 275.817,243.600 275.200 C 244.260 274.583,244.800 273.921,244.800 273.728 C 244.800 273.535,245.160 273.117,245.600 272.800 C 246.040 272.483,246.400 271.903,246.400 271.512 C 246.400 270.839,247.525 270.800,267.162 270.800 C 287.913 270.800,287.925 270.799,289.659 269.900 C 291.737 268.822,293.200 267.466,293.200 266.618 C 293.200 266.278,293.406 266.000,293.658 266.000 C 294.908 266.000,293.371 259.341,291.601 257.092 C 289.652 254.615,289.629 254.612,273.300 254.478 C 256.992 254.344,257.476 254.426,259.153 252.062 C 261.836 248.280,262.262 245.721,260.700 242.784 C 258.393 238.447,258.084 238.400,231.823 238.400 C 207.988 238.400,209.469 238.558,210.450 236.119 C 210.697 235.503,211.078 234.550,211.296 234.000 C 211.515 233.450,211.852 232.687,212.047 232.305 C 212.241 231.923,212.400 231.336,212.400 231.000 C 212.400 230.664,212.559 230.077,212.753 229.695 C 213.229 228.760,213.818 227.293,214.400 225.600 C 214.664 224.830,215.025 223.840,215.201 223.400 C 215.591 222.427,216.188 220.817,220.607 208.800 C 222.508 203.630,224.211 199.040,224.391 198.600 C 224.572 198.160,224.936 197.170,225.200 196.400 C 225.464 195.630,225.843 194.595,226.040 194.100 C 226.238 193.605,226.562 192.795,226.760 192.300 C 226.957 191.805,227.336 190.770,227.600 190.000 C 227.864 189.230,228.224 188.240,228.400 187.800 C 228.576 187.360,228.936 186.370,229.200 185.600 C 229.464 184.830,229.843 183.795,230.040 183.300 C 230.238 182.805,230.562 181.995,230.760 181.500 C 230.957 181.005,231.336 179.970,231.600 179.200 C 231.864 178.430,232.225 177.440,232.401 177.000 C 232.578 176.560,233.086 175.210,233.530 174.000 C 233.974 172.790,234.892 170.321,235.569 168.513 C 238.287 161.256,235.598 155.600,229.430 155.600 C 227.262 155.600,222.800 158.120,222.800 159.344 C 222.800 159.467,221.675 161.082,220.300 162.933 C 218.925 164.783,216.911 167.535,215.824 169.049 C 214.738 170.562,212.926 173.060,211.799 174.600 C 207.794 180.070,205.928 182.613,205.193 183.600 C 204.784 184.150,201.462 188.740,197.811 193.800 C 194.161 198.860,190.952 203.270,190.681 203.600 C 190.410 203.930,189.746 204.830,189.205 205.600 C 188.664 206.370,188.079 207.180,187.904 207.400 C 187.729 207.620,186.474 209.330,185.116 211.200 C 183.757 213.070,181.659 215.950,180.453 217.600 C 173.197 227.527,172.366 228.669,170.164 231.732 C 169.084 233.235,166.834 236.310,165.164 238.567 C 163.495 240.823,161.527 243.553,160.791 244.634 C 160.055 245.715,159.339 246.690,159.200 246.800 C 159.061 246.910,158.341 247.900,157.601 249.000 C 156.861 250.100,155.625 251.778,154.855 252.730 L 153.455 254.460 117.827 254.307 C 91.104 254.193,81.650 254.029,80.000 253.651 C 78.790 253.374,76.810 252.965,75.600 252.741 C 71.880 252.054,69.962 251.553,65.600 250.127 C 60.560 248.480,50.497 243.668,50.067 242.700 C 49.993 242.535,49.712 242.400,49.442 242.400 C 49.172 242.400,48.602 242.080,48.175 241.689 C 47.749 241.298,46.770 240.536,46.000 239.995 C 19.426 221.328,9.111 181.045,22.391 147.800 C 23.878 144.079,26.121 139.515,27.228 137.961 C 27.652 137.365,28.000 136.759,28.000 136.616 C 28.000 136.347,31.161 131.554,31.572 131.200 C 31.700 131.090,32.330 130.280,32.973 129.400 C 34.881 126.786,41.961 119.921,45.400 117.350 C 48.264 115.209,49.463 114.435,53.800 111.926 C 56.326 110.465,62.551 107.600,63.201 107.600 C 63.426 107.600,63.923 107.423,64.305 107.207 C 67.048 105.655,78.105 103.425,86.506 102.729 C 119.116 100.028,151.208 120.957,162.808 152.490 C 166.176 161.646,179.277 158.585,177.402 149.080 C 176.327 143.628,167.640 127.273,163.337 122.600 C 162.932 122.159,162.092 121.120,161.472 120.290 C 156.785 114.017,146.242 105.080,137.100 99.629 C 135.202 98.497,135.201 98.506,137.646 94.637 C 143.422 85.497,151.632 76.381,160.541 69.217 C 164.041 66.402,169.724 62.400,170.220 62.400 C 170.361 62.400,170.975 62.045,171.585 61.610 C 172.594 60.892,175.997 59.011,179.600 57.180 C 184.840 54.517,194.399 51.042,199.400 49.983 C 200.280 49.796,201.810 49.452,202.800 49.217 C 213.781 46.614,230.625 46.099,241.200 48.044 C 248.688 49.420,247.859 49.231,254.400 51.052 C 261.633 53.066,273.109 58.063,277.872 61.273 C 278.792 61.893,279.657 62.400,279.794 62.400 C 281.689 62.400,295.555 73.971,301.626 80.619 C 311.127 91.022,319.229 104.549,323.059 116.400 C 323.379 117.390,323.791 118.560,323.975 119.000 C 324.158 119.440,324.530 120.610,324.801 121.600 C 325.071 122.590,325.433 123.850,325.604 124.400 C 325.891 125.325,326.351 127.481,327.225 132.000 C 328.142 136.739,328.400 138.729,328.400 141.049 L 328.400 143.564 326.900 143.803 C 317.614 145.282,306.191 149.802,301.402 153.892 C 297.038 157.620,298.381 164.419,303.916 166.618 C 306.481 167.637,308.320 167.166,313.600 164.136 C 315.166 163.237,322.536 160.362,325.000 159.688 C 329.992 158.323,330.926 158.211,337.400 158.206 C 343.824 158.200,347.854 158.669,349.695 159.635 C 350.077 159.836,350.741 160.000,351.171 160.000 C 351.601 160.000,352.064 160.180,352.200 160.400 C 352.336 160.620,352.752 160.802,353.124 160.805 C 356.463 160.830,373.200 173.462,373.200 175.957 C 373.200 176.169,373.434 176.581,373.719 176.871 C 380.803 184.086,385.748 202.832,383.785 215.032 C 380.735 233.986,369.004 246.287,347.400 253.185 C 344.221 254.200,342.622 255.478,341.603 257.820 C 340.716 259.855,340.135 264.400,340.761 264.400 C 341.002 264.400,341.200 264.672,341.200 265.003 C 341.200 265.838,343.099 267.891,344.533 268.607 C 345.900 269.288,352.000 269.446,352.000 268.800 C 352.000 268.580,352.619 268.400,353.376 268.400 C 354.133 268.400,354.864 268.220,355.000 268.000 C 355.136 267.780,355.676 267.600,356.200 267.600 C 356.724 267.600,357.264 267.420,357.400 267.200 C 357.536 266.980,358.087 266.800,358.624 266.800 C 359.161 266.800,359.600 266.620,359.600 266.400 C 359.600 266.180,359.949 266.000,360.376 266.000 C 360.803 266.000,361.264 265.820,361.400 265.600 C 361.536 265.380,362.087 265.200,362.624 265.200 C 363.161 265.200,363.600 265.020,363.600 264.800 C 363.600 264.580,363.960 264.400,364.400 264.400 C 364.840 264.400,365.200 264.220,365.200 264.000 C 365.200 263.780,365.560 263.600,366.000 263.600 C 366.440 263.600,366.800 263.420,366.800 263.200 C 366.800 262.980,367.036 262.800,367.325 262.800 C 367.613 262.800,368.236 262.440,368.708 262.000 C 369.180 261.560,369.844 261.200,370.183 261.200 C 370.522 261.200,370.800 261.020,370.800 260.800 C 370.800 260.580,371.070 260.400,371.400 260.400 C 371.730 260.400,372.000 260.220,372.000 260.000 C 372.000 259.780,372.270 259.600,372.600 259.600 C 372.930 259.600,373.200 259.420,373.200 259.200 C 373.200 258.980,373.425 258.800,373.700 258.800 C 373.975 258.800,374.988 258.080,375.951 257.200 C 376.913 256.320,377.860 255.600,378.053 255.600 C 378.552 255.600,386.400 247.644,386.400 247.138 C 386.400 246.909,386.940 246.217,387.600 245.600 C 388.260 244.983,388.800 244.257,388.800 243.986 C 388.800 243.716,389.117 243.203,389.506 242.847 C 389.894 242.491,390.569 241.480,391.006 240.600 C 391.442 239.720,391.935 238.940,392.100 238.867 C 392.265 238.793,392.400 238.388,392.400 237.967 C 392.400 237.545,392.580 237.200,392.800 237.200 C 393.020 237.200,393.200 236.840,393.200 236.400 C 393.200 235.960,393.380 235.600,393.600 235.600 C 393.820 235.600,394.000 235.240,394.000 234.800 C 394.000 234.360,394.180 234.000,394.400 234.000 C 394.620 234.000,394.800 233.640,394.800 233.200 C 394.800 232.760,394.980 232.400,395.200 232.400 C 395.420 232.400,395.600 232.040,395.600 231.600 C 395.600 231.160,395.780 230.800,396.000 230.800 C 396.220 230.800,396.400 230.260,396.400 229.600 C 396.400 228.940,396.580 228.400,396.800 228.400 C 397.020 228.400,397.200 227.860,397.200 227.200 C 397.200 226.540,397.380 226.000,397.600 226.000 C 397.820 226.000,398.000 225.561,398.000 225.024 C 398.000 224.487,398.180 223.936,398.400 223.800 C 398.620 223.664,398.800 222.969,398.800 222.256 C 398.800 221.543,399.025 220.735,399.300 220.460 C 399.681 220.079,399.800 216.657,399.800 206.113 C 399.800 195.392,399.687 192.229,399.300 192.100 C 399.013 192.004,398.800 191.264,398.800 190.367 C 398.800 189.505,398.620 188.800,398.400 188.800 C 398.180 188.800,398.000 188.260,398.000 187.600 C 398.000 186.940,397.820 186.400,397.600 186.400 C 397.380 186.400,397.200 185.860,397.200 185.200 C 397.200 184.540,397.020 184.000,396.800 184.000 C 396.580 184.000,396.400 183.460,396.400 182.800 C 396.400 182.140,396.220 181.600,396.000 181.600 C 395.780 181.600,395.600 181.240,395.600 180.800 C 395.600 180.360,395.420 180.000,395.200 180.000 C 394.980 180.000,394.800 179.640,394.800 179.200 C 394.800 178.760,394.620 178.400,394.400 178.400 C 394.180 178.400,394.000 178.040,394.000 177.600 C 394.000 177.160,393.854 176.800,393.675 176.800 C 393.496 176.800,393.102 176.170,392.800 175.400 C 392.498 174.630,392.104 174.000,391.925 174.000 C 391.746 174.000,391.600 173.653,391.600 173.229 C 391.600 172.804,391.375 172.219,391.100 171.929 C 390.825 171.638,390.345 170.905,390.032 170.300 C 389.720 169.695,389.315 169.200,389.132 169.200 C 388.950 169.200,388.800 168.952,388.800 168.648 C 388.800 168.345,388.080 167.355,387.200 166.448 C 386.320 165.541,385.600 164.638,385.600 164.440 C 385.600 163.739,378.210 156.800,377.464 156.800 C 377.275 156.800,376.617 156.260,376.000 155.600 C 375.383 154.940,374.721 154.400,374.528 154.400 C 374.335 154.400,373.917 154.040,373.600 153.600 C 373.283 153.160,372.743 152.800,372.400 152.800 C 372.057 152.800,371.517 152.440,371.200 152.000 C 370.883 151.560,370.303 151.200,369.912 151.200 C 369.520 151.200,369.199 151.065,369.197 150.900 C 369.195 150.735,368.790 150.402,368.297 150.160 C 367.804 149.917,366.590 149.310,365.600 148.810 C 364.610 148.309,363.487 147.742,363.105 147.550 C 362.723 147.357,362.138 147.200,361.805 147.200 C 361.472 147.200,361.200 147.020,361.200 146.800 C 361.200 146.580,360.851 146.400,360.424 146.400 C 359.997 146.400,359.536 146.220,359.400 146.000 C 359.264 145.780,358.713 145.600,358.176 145.600 C 357.639 145.600,357.200 145.420,357.200 145.200 C 357.200 144.980,356.671 144.800,356.024 144.800 C 355.377 144.800,354.748 144.640,354.627 144.444 C 354.506 144.249,353.821 143.986,353.104 143.861 C 352.387 143.736,350.810 143.438,349.600 143.200 C 348.390 142.962,346.815 142.664,346.100 142.540 C 344.899 142.330,344.800 142.196,344.800 140.780 C 344.800 139.937,344.620 139.136,344.400 139.000 C 344.180 138.864,344.000 137.323,344.000 135.576 C 344.000 133.725,343.833 132.400,343.600 132.400 C 343.380 132.400,343.200 131.421,343.200 130.224 C 343.200 129.027,343.020 127.936,342.800 127.800 C 342.580 127.664,342.400 126.753,342.400 125.776 C 342.400 124.799,342.246 124.000,342.057 124.000 C 341.868 124.000,341.597 122.885,341.455 121.523 C 341.201 119.096,340.650 116.888,339.951 115.505 C 339.758 115.123,339.600 114.459,339.600 114.029 C 339.600 113.599,339.420 113.136,339.200 113.000 C 338.980 112.864,338.800 112.324,338.800 111.800 C 338.800 111.276,338.620 110.736,338.400 110.600 C 338.180 110.464,338.000 109.913,338.000 109.376 C 338.000 108.839,337.853 108.400,337.672 108.400 C 337.492 108.400,337.100 107.500,336.800 106.400 C 336.500 105.300,336.108 104.400,335.928 104.400 C 335.747 104.400,335.600 104.040,335.600 103.600 C 335.600 103.160,335.420 102.800,335.200 102.800 C 334.980 102.800,334.800 102.361,334.800 101.824 C 334.800 101.287,334.620 100.736,334.400 100.600 C 334.180 100.464,334.000 100.003,334.000 99.576 C 334.000 99.149,333.820 98.800,333.600 98.800 C 333.380 98.800,333.200 98.440,333.200 98.000 C 333.200 97.560,333.020 97.200,332.800 97.200 C 332.580 97.200,332.400 96.840,332.400 96.400 C 332.400 95.960,332.264 95.600,332.098 95.600 C 331.931 95.600,331.536 95.015,331.220 94.300 C 330.903 93.585,330.320 92.651,329.922 92.225 C 329.525 91.798,329.200 91.213,329.200 90.925 C 329.200 90.636,329.020 90.400,328.800 90.400 C 328.580 90.400,328.400 90.040,328.400 89.600 C 328.400 89.160,328.220 88.800,328.000 88.800 C 327.780 88.800,327.600 88.564,327.600 88.275 C 327.600 87.987,327.240 87.364,326.800 86.892 C 326.360 86.420,326.000 85.838,326.000 85.600 C 326.000 85.361,325.819 84.949,325.598 84.683 C 325.377 84.417,324.367 82.964,323.353 81.452 C 321.127 78.132,320.579 77.429,318.900 75.730 C 318.185 75.006,317.600 74.243,317.600 74.035 C 317.600 73.826,315.517 71.528,312.972 68.928 C 310.426 66.328,307.282 63.108,305.984 61.774 C 304.687 60.440,303.124 59.090,302.513 58.774 C 301.901 58.458,300.739 57.525,299.931 56.700 C 299.124 55.875,298.251 55.200,297.992 55.200 C 297.733 55.200,297.017 54.660,296.400 54.000 C 295.783 53.340,295.031 52.800,294.728 52.800 C 294.425 52.800,293.917 52.440,293.600 52.000 C 293.283 51.560,292.743 51.200,292.400 51.200 C 292.057 51.200,291.517 50.840,291.200 50.400 C 290.883 49.960,290.393 49.600,290.112 49.600 C 289.830 49.600,289.600 49.420,289.600 49.200 C 289.600 48.980,289.330 48.800,289.000 48.800 C 288.670 48.800,288.400 48.620,288.400 48.400 C 288.400 48.180,288.130 48.000,287.800 48.000 C 287.470 48.000,287.200 47.820,287.200 47.600 C 287.200 47.380,286.840 47.200,286.400 47.200 C 285.960 47.200,285.600 47.048,285.600 46.863 C 285.600 46.677,284.745 46.092,283.700 45.563 C 282.655 45.033,281.740 44.465,281.667 44.300 C 281.593 44.135,281.188 44.000,280.767 44.000 C 280.345 44.000,280.000 43.820,280.000 43.600 C 280.000 43.380,279.758 43.200,279.461 43.200 C 278.960 43.200,277.117 42.443,275.505 41.574 C 275.123 41.368,274.538 41.200,274.205 41.200 C 273.872 41.200,273.600 41.020,273.600 40.800 C 273.600 40.580,273.150 40.400,272.600 40.400 C 272.050 40.400,271.600 40.220,271.600 40.000 C 271.600 39.780,271.240 39.600,270.800 39.600 C 270.360 39.600,270.000 39.420,270.000 39.200 C 270.000 38.980,269.460 38.800,268.800 38.800 C 268.140 38.800,267.600 38.620,267.600 38.400 C 267.600 38.180,267.251 38.000,266.824 38.000 C 266.397 38.000,265.936 37.820,265.800 37.600 C 265.664 37.380,265.113 37.200,264.576 37.200 C 264.039 37.200,263.600 37.020,263.600 36.800 C 263.600 36.580,263.071 36.400,262.424 36.400 C 261.777 36.400,261.136 36.220,261.000 36.000 C 260.864 35.780,260.234 35.600,259.600 35.600 C 258.966 35.600,258.336 35.420,258.200 35.200 C 258.064 34.980,257.434 34.800,256.800 34.800 C 256.166 34.800,255.536 34.620,255.400 34.400 C 255.264 34.180,254.443 34.000,253.576 34.000 C 252.709 34.000,252.000 33.820,252.000 33.600 C 252.000 33.380,251.291 33.200,250.424 33.200 C 249.557 33.200,248.736 33.020,248.600 32.800 C 248.464 32.580,247.373 32.400,246.176 32.400 C 244.979 32.400,244.000 32.220,244.000 32.000 C 244.000 31.769,242.741 31.600,241.024 31.600 C 239.387 31.600,237.936 31.420,237.800 31.200 C 237.644 30.947,232.937 30.800,225.000 30.800 C 217.063 30.800,212.356 30.947,212.200 31.200 M201.600 216.005 C 201.600 216.448,201.434 217.123,201.232 217.505 C 201.030 217.887,200.504 219.190,200.063 220.400 C 199.623 221.610,198.066 225.840,196.603 229.800 C 195.140 233.760,193.578 237.990,193.133 239.200 C 192.687 240.410,192.115 241.832,191.861 242.361 C 190.860 244.446,191.276 248.970,192.624 250.663 C 195.317 254.046,194.703 253.965,217.900 253.984 C 240.132 254.001,239.273 253.904,237.414 256.200 C 236.879 256.860,234.351 260.280,231.796 263.800 C 229.241 267.320,226.815 270.650,226.405 271.200 C 225.995 271.750,222.200 276.970,217.971 282.800 C 213.742 288.630,209.554 294.390,208.664 295.600 C 206.942 297.941,204.760 300.936,202.399 304.200 C 198.854 309.100,198.186 309.893,197.937 309.493 C 197.792 309.261,197.823 308.785,198.005 308.436 C 198.187 308.086,198.710 306.765,199.168 305.500 C 199.626 304.235,200.350 302.255,200.778 301.100 C 201.205 299.945,202.480 296.480,203.611 293.400 C 204.742 290.320,206.311 286.090,207.099 284.000 C 209.559 277.472,208.937 273.686,205.030 271.396 L 203.330 270.400 182.652 270.400 C 164.062 270.400,161.950 270.335,161.729 269.760 C 161.594 269.407,161.653 269.002,161.861 268.860 C 162.069 268.717,162.671 267.970,163.200 267.200 C 163.729 266.430,165.352 264.180,166.806 262.200 C 168.260 260.220,170.956 256.530,172.796 254.000 C 174.636 251.470,177.068 248.140,178.199 246.600 C 179.330 245.060,181.944 241.460,184.006 238.600 C 186.069 235.740,188.743 232.050,189.948 230.400 C 191.154 228.750,192.794 226.500,193.593 225.400 C 195.392 222.924,197.811 219.599,199.624 217.112 C 201.133 215.043,201.600 214.781,201.600 216.005 M315.400 254.767 C 312.487 255.481,310.968 257.172,309.584 261.245 C 308.418 264.677,309.377 267.871,311.910 268.995 C 312.399 269.212,312.800 269.527,312.800 269.695 C 312.800 269.863,313.149 270.000,313.576 270.000 C 314.003 270.000,314.464 270.180,314.600 270.400 C 314.736 270.620,315.906 270.800,317.200 270.800 C 318.494 270.800,319.664 270.620,319.800 270.400 C 319.936 270.180,320.397 270.000,320.824 270.000 C 321.251 270.000,321.600 269.820,321.600 269.600 C 321.600 269.380,321.806 269.200,322.057 269.200 C 323.847 269.200,325.426 265.770,325.060 262.678 C 324.401 257.109,320.127 253.609,315.400 254.767 M78.411 285.670 C 76.736 286.650,75.853 287.623,75.196 289.210 C 74.925 289.865,74.545 290.400,74.351 290.400 C 74.158 290.400,74.000 290.760,74.000 291.200 C 74.000 291.640,73.820 292.000,73.600 292.000 C 73.380 292.000,73.200 292.188,73.200 292.417 C 73.200 292.646,72.840 293.220,72.400 293.692 C 71.960 294.164,71.600 294.787,71.600 295.075 C 71.600 295.364,71.420 295.600,71.200 295.600 C 70.980 295.600,70.800 295.920,70.800 296.312 C 70.800 296.703,70.440 297.283,70.000 297.600 C 69.560 297.917,69.200 298.497,69.200 298.888 C 69.200 299.280,69.020 299.600,68.800 299.600 C 68.580 299.600,68.400 299.920,68.400 300.312 C 68.400 300.703,68.040 301.283,67.600 301.600 C 67.160 301.917,66.800 302.497,66.800 302.888 C 66.800 303.280,66.620 303.600,66.400 303.600 C 66.180 303.600,66.000 303.920,66.000 304.312 C 66.000 304.703,65.640 305.283,65.200 305.600 C 64.760 305.917,64.400 306.497,64.400 306.888 C 64.400 307.280,64.220 307.600,64.000 307.600 C 63.780 307.600,63.600 307.836,63.600 308.125 C 63.600 308.413,63.285 308.998,62.900 309.425 C 61.956 310.470,59.600 315.148,59.600 315.976 C 59.600 316.341,59.375 316.865,59.100 317.140 C 58.741 317.499,58.600 319.485,58.600 324.200 C 58.600 328.915,58.741 330.901,59.100 331.260 C 59.375 331.535,59.600 332.066,59.600 332.439 C 59.600 333.842,63.726 340.640,64.875 341.130 C 65.042 341.201,66.023 342.056,67.053 343.030 C 68.084 344.003,69.169 344.800,69.464 344.800 C 69.759 344.800,70.000 344.980,70.000 345.200 C 70.000 345.420,70.360 345.600,70.800 345.600 C 71.240 345.600,71.600 345.780,71.600 346.000 C 71.600 346.220,71.960 346.400,72.400 346.400 C 72.840 346.400,73.200 346.580,73.200 346.800 C 73.200 347.020,73.740 347.200,74.400 347.200 C 75.060 347.200,75.600 347.380,75.600 347.600 C 75.600 347.820,76.320 348.000,77.200 348.000 C 78.080 348.000,78.800 348.180,78.800 348.400 C 78.800 348.640,80.392 348.800,82.776 348.800 C 84.996 348.800,86.862 348.623,87.000 348.400 C 87.136 348.180,87.856 348.000,88.600 348.000 C 89.344 348.000,90.064 347.820,90.200 347.600 C 90.336 347.380,90.887 347.200,91.424 347.200 C 91.961 347.200,92.400 347.020,92.400 346.800 C 92.400 346.580,92.760 346.400,93.200 346.400 C 93.640 346.400,94.000 346.220,94.000 346.000 C 94.000 345.780,94.360 345.600,94.800 345.600 C 95.240 345.600,95.600 345.420,95.600 345.200 C 95.600 344.980,95.841 344.800,96.136 344.800 C 96.431 344.800,97.492 344.035,98.493 343.100 C 99.493 342.165,100.660 341.159,101.084 340.863 C 101.509 340.568,102.291 339.623,102.823 338.763 C 103.354 337.904,103.926 337.200,104.094 337.200 C 104.262 337.200,104.400 336.840,104.400 336.400 C 104.400 335.960,104.580 335.600,104.800 335.600 C 105.020 335.600,105.200 335.251,105.200 334.824 C 105.200 334.397,105.380 333.936,105.600 333.800 C 105.820 333.664,106.000 333.124,106.000 332.600 C 106.000 332.076,106.161 331.548,106.358 331.426 C 107.176 330.921,107.952 320.992,107.230 320.270 C 106.993 320.033,106.800 319.156,106.800 318.320 C 106.800 317.484,106.620 316.800,106.400 316.800 C 106.180 316.800,106.000 316.361,106.000 315.824 C 106.000 315.287,105.820 314.736,105.600 314.600 C 105.380 314.464,105.200 314.003,105.200 313.576 C 105.200 313.149,105.064 312.800,104.898 312.800 C 104.731 312.800,104.336 312.215,104.020 311.500 C 103.703 310.785,103.120 309.851,102.722 309.425 C 102.325 308.998,102.000 308.413,102.000 308.125 C 102.000 307.836,101.820 307.600,101.600 307.600 C 101.380 307.600,101.200 307.322,101.200 306.983 C 101.200 306.644,100.840 305.980,100.400 305.508 C 99.960 305.036,99.600 304.413,99.600 304.125 C 99.600 303.836,99.420 303.600,99.200 303.600 C 98.980 303.600,98.800 303.322,98.800 302.983 C 98.800 302.644,98.440 301.980,98.000 301.508 C 97.560 301.036,97.200 300.413,97.200 300.125 C 97.200 299.836,97.020 299.600,96.800 299.600 C 96.580 299.600,96.400 299.322,96.400 298.983 C 96.400 298.644,96.040 297.980,95.600 297.508 C 95.160 297.036,94.800 296.413,94.800 296.125 C 94.800 295.836,94.620 295.600,94.400 295.600 C 94.180 295.600,94.000 295.364,94.000 295.075 C 94.000 294.787,93.640 294.164,93.200 293.692 C 92.760 293.220,92.400 292.646,92.400 292.417 C 92.400 292.188,92.220 292.000,92.000 292.000 C 91.780 292.000,91.600 291.653,91.600 291.229 C 91.600 290.804,91.330 290.187,91.000 289.857 C 90.670 289.527,90.400 289.099,90.400 288.907 C 90.400 288.274,87.707 285.600,87.070 285.600 C 86.727 285.600,86.336 285.420,86.200 285.200 C 85.725 284.431,79.930 284.781,78.411 285.670 M313.800 285.200 C 313.664 285.420,313.273 285.600,312.930 285.600 C 312.293 285.600,309.600 288.274,309.600 288.907 C 309.600 289.099,309.330 289.527,309.000 289.857 C 308.670 290.187,308.400 290.804,308.400 291.229 C 308.400 291.653,308.220 292.000,308.000 292.000 C 307.780 292.000,307.600 292.188,307.600 292.417 C 307.600 292.646,307.240 293.220,306.800 293.692 C 306.360 294.164,306.000 294.787,306.000 295.075 C 306.000 295.364,305.820 295.600,305.600 295.600 C 305.380 295.600,305.200 295.920,305.200 296.312 C 305.200 296.703,304.840 297.283,304.400 297.600 C 303.960 297.917,303.600 298.497,303.600 298.888 C 303.600 299.280,303.420 299.600,303.200 299.600 C 302.980 299.600,302.800 299.920,302.800 300.312 C 302.800 300.703,302.440 301.283,302.000 301.600 C 301.560 301.917,301.200 302.497,301.200 302.888 C 301.200 303.280,301.020 303.600,300.800 303.600 C 300.580 303.600,300.400 303.920,300.400 304.312 C 300.400 304.703,300.040 305.283,299.600 305.600 C 299.160 305.917,298.800 306.497,298.800 306.888 C 298.800 307.280,298.620 307.600,298.400 307.600 C 298.180 307.600,298.000 307.836,298.000 308.125 C 298.000 308.413,297.675 308.998,297.278 309.425 C 296.880 309.851,296.297 310.785,295.980 311.500 C 295.664 312.215,295.269 312.800,295.102 312.800 C 294.936 312.800,294.800 313.149,294.800 313.576 C 294.800 314.003,294.620 314.464,294.400 314.600 C 294.180 314.736,294.000 315.287,294.000 315.824 C 294.000 316.361,293.820 316.800,293.600 316.800 C 293.380 316.800,293.200 317.484,293.200 318.320 C 293.200 319.156,293.007 320.033,292.770 320.270 C 292.058 320.982,292.873 331.600,293.640 331.600 C 293.838 331.600,294.000 332.039,294.000 332.576 C 294.000 333.113,294.180 333.664,294.400 333.800 C 294.620 333.936,294.800 334.397,294.800 334.824 C 294.800 335.251,294.980 335.600,295.200 335.600 C 295.420 335.600,295.601 335.825,295.602 336.100 C 295.604 336.666,298.719 340.922,299.294 341.145 C 299.500 341.224,300.458 342.079,301.424 343.045 C 302.389 344.010,303.454 344.800,303.789 344.800 C 304.125 344.800,304.400 344.980,304.400 345.200 C 304.400 345.420,304.760 345.600,305.200 345.600 C 305.640 345.600,306.000 345.780,306.000 346.000 C 306.000 346.220,306.360 346.400,306.800 346.400 C 307.240 346.400,307.600 346.580,307.600 346.800 C 307.600 347.020,308.039 347.200,308.576 347.200 C 309.113 347.200,309.664 347.380,309.800 347.600 C 309.936 347.820,310.656 348.000,311.400 348.000 C 312.144 348.000,312.864 348.180,313.000 348.400 C 313.138 348.623,315.004 348.800,317.224 348.800 C 319.608 348.800,321.200 348.640,321.200 348.400 C 321.200 348.180,321.909 348.000,322.776 348.000 C 323.643 348.000,324.464 347.820,324.600 347.600 C 324.736 347.380,325.287 347.200,325.824 347.200 C 326.361 347.200,326.800 347.020,326.800 346.800 C 326.800 346.580,327.160 346.400,327.600 346.400 C 328.040 346.400,328.400 346.220,328.400 346.000 C 328.400 345.780,328.760 345.600,329.200 345.600 C 329.640 345.600,330.000 345.420,330.000 345.200 C 330.000 344.980,330.241 344.800,330.536 344.800 C 330.831 344.800,331.916 344.003,332.947 343.030 C 333.977 342.056,334.969 341.201,335.150 341.130 C 335.695 340.915,338.796 336.639,338.798 336.100 C 338.799 335.825,338.980 335.600,339.200 335.600 C 339.420 335.600,339.600 335.251,339.600 334.824 C 339.600 334.397,339.780 333.936,340.000 333.800 C 340.220 333.664,340.400 333.149,340.400 332.656 C 340.400 332.163,340.625 331.535,340.900 331.260 C 341.259 330.901,341.400 328.915,341.400 324.200 C 341.400 319.485,341.259 317.499,340.900 317.140 C 340.625 316.865,340.400 316.341,340.400 315.976 C 340.400 315.148,338.044 310.470,337.100 309.425 C 336.715 308.998,336.400 308.413,336.400 308.125 C 336.400 307.836,336.220 307.600,336.000 307.600 C 335.780 307.600,335.600 307.322,335.600 306.983 C 335.600 306.644,335.240 305.980,334.800 305.508 C 334.360 305.036,334.000 304.413,334.000 304.125 C 334.000 303.836,333.820 303.600,333.600 303.600 C 333.380 303.600,333.200 303.322,333.200 302.983 C 333.200 302.644,332.840 301.980,332.400 301.508 C 331.960 301.036,331.600 300.413,331.600 300.125 C 331.600 299.836,331.420 299.600,331.200 299.600 C 330.980 299.600,330.800 299.322,330.800 298.983 C 330.800 298.644,330.440 297.980,330.000 297.508 C 329.560 297.036,329.200 296.413,329.200 296.125 C 329.200 295.836,329.020 295.600,328.800 295.600 C 328.580 295.600,328.400 295.364,328.400 295.075 C 328.400 294.787,328.040 294.164,327.600 293.692 C 327.160 293.220,326.800 292.646,326.800 292.417 C 326.800 292.188,326.620 292.000,326.400 292.000 C 326.180 292.000,326.000 291.640,326.000 291.200 C 326.000 290.760,325.838 290.400,325.639 290.400 C 325.441 290.400,325.102 289.905,324.886 289.300 C 323.843 286.374,321.088 284.800,317.011 284.800 C 315.381 284.800,313.936 284.980,313.800 285.200 M87.173 315.102 L 90.946 321.400 90.955 324.200 C 90.983 332.873,80.687 335.697,75.592 328.413 C 74.233 326.470,74.189 321.981,75.511 320.125 C 76.000 319.438,76.400 318.679,76.400 318.438 C 76.400 318.197,76.580 318.000,76.800 318.000 C 77.020 318.000,77.200 317.833,77.200 317.629 C 77.200 317.426,78.129 315.761,79.265 313.929 C 80.401 312.098,81.526 310.196,81.765 309.703 C 82.598 307.985,83.372 308.757,87.173 315.102 M320.601 313.496 C 322.140 316.078,323.471 318.373,323.557 318.596 C 323.643 318.818,324.088 319.534,324.546 320.187 C 327.901 324.973,323.415 332.480,317.200 332.480 C 310.985 332.480,306.499 324.973,309.854 320.187 C 310.312 319.534,310.757 318.814,310.843 318.587 C 310.929 318.359,312.080 316.415,313.400 314.266 C 314.720 312.117,315.978 310.008,316.195 309.580 C 316.965 308.058,317.804 308.804,320.601 313.496 " stroke="none" fill="#040505" fill-rule="evenodd"></path><path id="path1" d="M216.600 47.799 C 210.246 48.323,209.583 48.417,203.600 49.632 C 197.815 50.807,194.287 51.812,188.600 53.907 C 184.365 55.467,177.254 58.658,176.800 59.202 C 176.690 59.334,175.970 59.752,175.200 60.132 C 171.400 62.005,162.150 68.207,160.065 70.281 C 159.771 70.573,158.873 71.304,158.069 71.906 C 154.986 74.212,145.701 84.021,143.212 87.600 C 142.677 88.370,142.126 89.090,141.989 89.200 C 141.610 89.505,138.593 94.037,137.219 96.368 L 135.999 98.437 137.228 99.118 C 144.844 103.343,155.684 112.404,161.200 119.158 C 161.970 120.101,163.018 121.351,163.529 121.936 C 166.633 125.491,173.962 138.150,176.418 144.200 C 177.457 146.757,178.400 149.742,178.400 150.469 C 178.400 155.870,172.284 160.215,167.497 158.215 C 164.741 157.063,163.535 155.655,162.000 151.800 C 160.304 147.540,157.680 142.143,156.325 140.128 C 155.706 139.208,155.200 138.278,155.200 138.061 C 155.200 137.844,155.065 137.607,154.900 137.533 C 154.735 137.460,153.880 136.341,153.000 135.047 C 147.709 127.265,137.134 117.552,129.400 113.369 C 124.619 110.783,122.074 109.553,119.200 108.440 C 117.330 107.716,115.440 106.981,115.000 106.807 C 114.560 106.634,113.390 106.270,112.400 105.999 C 111.410 105.729,110.150 105.367,109.600 105.196 C 108.465 104.844,105.498 104.259,101.400 103.581 C 99.567 103.278,95.769 103.194,90.400 103.339 C 81.082 103.590,78.273 103.926,71.800 105.560 C 70.920 105.782,69.660 106.076,69.000 106.212 C 68.340 106.349,67.440 106.609,67.000 106.790 C 66.560 106.971,65.570 107.336,64.800 107.600 C 64.030 107.864,62.995 108.243,62.500 108.440 C 62.005 108.638,61.195 108.957,60.700 109.149 C 58.726 109.916,55.671 111.450,53.259 112.886 C 51.862 113.719,50.602 114.404,50.459 114.409 C 49.240 114.453,38.816 123.381,35.585 127.148 C 32.746 130.459,28.418 136.460,28.408 137.100 C 28.404 137.375,28.262 137.600,28.094 137.600 C 27.926 137.600,27.482 138.275,27.106 139.100 C 26.731 139.925,26.156 141.050,25.829 141.600 C 24.572 143.711,22.106 149.556,21.020 153.000 C 18.249 161.786,17.197 168.818,17.208 178.477 C 17.216 185.865,18.102 193.489,19.568 198.800 C 19.781 199.570,20.124 200.830,20.330 201.600 C 20.824 203.442,21.930 206.745,22.474 208.000 C 22.712 208.550,23.041 209.360,23.206 209.800 C 30.501 229.348,49.327 245.617,71.101 251.188 C 80.975 253.714,85.714 253.975,122.140 253.988 L 152.879 254.000 154.077 252.718 C 154.736 252.012,155.831 250.617,156.511 249.618 C 157.191 248.618,157.863 247.710,158.004 247.600 C 158.145 247.490,159.010 246.320,159.927 245.000 C 160.845 243.680,162.317 241.610,163.200 240.400 C 164.083 239.190,165.520 237.210,166.394 236.000 C 167.267 234.790,168.980 232.450,170.200 230.800 C 171.420 229.150,173.160 226.737,174.066 225.438 C 174.972 224.139,175.948 222.789,176.235 222.438 C 176.521 222.087,177.607 220.630,178.647 219.200 C 179.687 217.770,181.195 215.700,181.997 214.600 C 182.799 213.500,184.693 210.890,186.206 208.800 C 191.035 202.128,192.433 200.214,192.928 199.600 C 193.194 199.270,193.854 198.370,194.395 197.600 C 194.936 196.830,195.521 196.020,195.695 195.800 C 196.260 195.087,199.728 190.318,203.404 185.200 C 207.267 179.821,209.361 176.960,210.144 175.991 C 210.415 175.656,211.252 174.486,212.005 173.391 C 212.758 172.296,214.645 169.690,216.200 167.600 C 217.755 165.510,219.887 162.582,220.939 161.093 C 224.295 156.340,225.993 155.200,229.714 155.200 C 235.433 155.200,239.051 161.020,236.829 166.647 C 236.405 167.721,234.504 172.830,232.606 178.000 C 228.546 189.057,227.634 191.521,227.201 192.600 C 227.025 193.040,226.664 194.030,226.400 194.800 C 226.136 195.570,225.733 196.650,225.506 197.200 C 224.912 198.638,224.546 199.611,224.000 201.200 C 223.736 201.970,223.375 202.960,223.199 203.400 C 223.022 203.840,222.518 205.190,222.079 206.400 C 221.239 208.711,219.355 213.751,218.192 216.800 C 217.814 217.790,217.093 219.770,216.588 221.200 C 216.084 222.630,215.132 225.240,214.472 227.000 C 213.812 228.760,212.735 231.640,212.078 233.400 C 211.422 235.160,210.758 236.911,210.603 237.290 C 210.339 237.939,211.718 237.988,233.261 238.090 C 259.466 238.216,258.170 238.042,260.700 241.773 C 262.687 244.703,262.589 247.765,260.400 251.151 C 259.520 252.513,258.800 253.711,258.800 253.813 C 258.800 253.916,265.286 254.000,273.213 254.000 C 288.653 254.000,289.241 254.067,291.357 256.076 C 292.816 257.462,294.000 259.851,294.000 261.412 L 294.000 262.800 301.600 262.800 L 309.200 262.800 309.200 261.412 C 309.200 258.742,311.518 255.603,314.264 254.554 C 319.193 252.672,325.200 256.366,325.200 261.278 L 325.200 262.800 332.800 262.800 L 340.400 262.800 340.400 260.812 C 340.400 259.539,340.702 258.281,341.241 257.312 C 342.919 254.293,343.779 253.726,349.387 251.937 C 353.453 250.640,353.538 250.606,357.400 248.757 C 360.649 247.202,364.524 245.007,365.277 244.294 C 365.565 244.022,366.462 243.306,367.271 242.702 C 373.913 237.743,379.896 228.887,382.068 220.800 C 388.341 197.448,375.845 170.992,354.200 161.798 C 351.659 160.719,351.098 160.517,349.400 160.071 C 337.570 156.963,327.046 158.332,314.000 164.676 C 307.000 168.080,304.461 168.337,301.426 165.949 C 296.500 162.074,297.361 155.574,303.288 151.885 C 306.924 149.623,314.627 146.000,315.801 146.000 C 316.136 146.000,316.723 145.838,317.105 145.639 C 317.487 145.440,318.610 145.068,319.600 144.812 C 320.590 144.556,321.953 144.178,322.628 143.973 C 323.304 143.768,324.485 143.600,325.252 143.600 C 327.583 143.600,328.153 142.893,327.855 140.365 C 327.387 136.389,326.861 132.608,326.663 131.800 C 326.556 131.360,326.253 129.920,325.991 128.600 C 325.729 127.280,325.375 125.750,325.204 125.200 C 325.033 124.650,324.666 123.390,324.390 122.400 C 321.989 113.811,318.173 105.142,312.779 96.020 C 312.461 95.482,311.885 94.683,311.500 94.245 C 311.115 93.807,310.800 93.305,310.800 93.129 C 310.800 92.953,310.540 92.492,310.222 92.105 C 309.905 91.717,308.790 90.230,307.745 88.800 C 304.048 83.740,295.435 74.541,291.926 71.906 C 291.125 71.304,290.229 70.581,289.935 70.299 C 284.826 65.401,270.115 57.028,260.600 53.604 C 246.385 48.488,231.714 46.553,216.600 47.799 M82.798 309.700 C 83.034 309.975,83.500 310.560,83.833 311.000 C 84.342 311.673,84.339 311.593,83.809 310.500 C 83.463 309.785,82.997 309.200,82.774 309.200 C 82.513 309.200,82.521 309.378,82.798 309.700 M317.198 309.700 C 317.434 309.975,317.900 310.560,318.233 311.000 C 318.742 311.673,318.739 311.593,318.209 310.500 C 317.863 309.785,317.397 309.200,317.174 309.200 C 316.913 309.200,316.921 309.378,317.198 309.700 M81.552 310.900 C 81.290 311.395,80.815 312.250,80.496 312.800 C 79.939 313.759,79.943 313.767,80.588 313.000 C 81.386 312.052,82.505 310.000,82.224 310.000 C 82.116 310.000,81.814 310.405,81.552 310.900 M315.952 310.900 C 315.690 311.395,315.215 312.250,314.896 312.800 C 314.339 313.759,314.343 313.767,314.988 313.000 C 315.786 312.052,316.905 310.000,316.624 310.000 C 316.516 310.000,316.214 310.405,315.952 310.900 M84.749 312.600 C 84.965 313.040,85.434 313.760,85.793 314.200 L 86.444 315.000 86.051 314.200 C 85.835 313.760,85.366 313.040,85.007 312.600 L 84.356 311.800 84.749 312.600 M319.149 312.600 C 319.365 313.040,319.834 313.760,320.193 314.200 L 320.844 315.000 320.451 314.200 C 320.235 313.760,319.766 313.040,319.407 312.600 L 318.756 311.800 319.149 312.600 M86.924 316.200 C 87.262 316.860,87.838 317.760,88.204 318.200 C 88.570 318.640,88.465 318.280,87.970 317.400 C 86.880 315.458,86.064 314.522,86.924 316.200 M312.586 316.500 L 311.952 317.800 312.767 316.800 C 313.552 315.837,313.808 315.200,313.410 315.200 C 313.306 315.200,312.935 315.785,312.586 316.500 M320.800 315.329 C 320.800 315.694,322.845 318.800,323.086 318.800 C 323.279 318.800,321.692 316.048,321.136 315.420 C 320.951 315.211,320.800 315.170,320.800 315.329 M90.501 324.200 C 90.505 325.080,90.587 325.393,90.683 324.895 C 90.779 324.398,90.775 323.678,90.675 323.295 C 90.575 322.913,90.496 323.320,90.501 324.200 M89.605 327.589 C 89.328 328.257,88.487 329.343,87.737 330.002 C 86.986 330.661,86.523 331.200,86.708 331.200 C 87.544 331.200,90.759 327.025,90.286 326.553 C 90.188 326.455,89.881 326.921,89.605 327.589 M324.197 327.209 C 324.045 327.688,323.219 328.781,322.361 329.639 C 321.502 330.498,320.945 331.200,321.122 331.200 C 321.969 331.200,325.150 327.017,324.669 326.536 C 324.561 326.428,324.349 326.731,324.197 327.209 M76.000 328.322 C 76.000 328.733,78.742 331.403,78.927 331.173 C 79.004 331.078,78.377 330.325,77.533 329.500 C 76.690 328.675,76.000 328.145,76.000 328.322 M310.400 328.322 C 310.400 328.733,313.142 331.403,313.327 331.173 C 313.404 331.078,312.777 330.325,311.933 329.500 C 311.090 328.675,310.400 328.145,310.400 328.322 M80.138 331.694 C 80.738 332.075,84.862 332.075,85.462 331.694 C 85.716 331.532,84.518 331.400,82.800 331.400 C 81.082 331.400,79.884 331.532,80.138 331.694 M314.538 331.694 C 314.792 331.856,315.990 331.988,317.200 331.988 C 318.410 331.988,319.608 331.856,319.862 331.694 C 320.116 331.532,318.918 331.400,317.200 331.400 C 315.482 331.400,314.284 331.532,314.538 331.694 " stroke="none" fill="#a3cbfb" fill-rule="evenodd"></path><path id="path2" d="M197.346 220.827 C 193.792 225.665,192.577 227.335,189.171 232.062 C 187.253 234.723,176.151 249.961,173.624 253.400 C 164.063 266.413,162.026 269.319,162.233 269.653 C 162.351 269.844,171.532 270.000,182.636 270.000 C 199.954 270.000,203.036 270.088,204.307 270.619 C 207.331 271.882,208.983 274.429,208.954 277.785 C 208.937 279.800,208.756 280.438,206.387 286.800 C 205.690 288.670,204.789 291.100,204.383 292.200 C 203.977 293.300,203.078 295.730,202.385 297.600 C 197.745 310.115,197.748 310.084,201.600 304.763 C 203.030 302.787,205.190 299.828,206.400 298.186 C 207.610 296.545,210.310 292.836,212.400 289.945 C 214.490 287.054,217.550 282.839,219.200 280.579 C 220.850 278.320,223.353 274.880,224.762 272.935 C 226.171 270.991,227.985 268.500,228.793 267.400 C 230.243 265.426,233.129 261.475,234.509 259.576 C 236.795 256.431,238.000 254.620,238.000 254.330 C 238.000 254.148,228.668 254.000,217.261 254.000 C 194.114 254.000,195.197 254.125,192.657 251.158 C 189.949 247.995,190.193 245.201,193.998 235.800 C 194.176 235.360,194.717 233.920,195.200 232.600 C 195.683 231.280,196.223 229.840,196.400 229.400 C 196.577 228.960,197.117 227.520,197.600 226.200 C 198.083 224.880,198.629 223.440,198.813 223.000 C 198.997 222.560,199.377 221.480,199.657 220.600 C 199.937 219.720,200.284 218.820,200.428 218.600 C 200.764 218.086,201.266 216.000,201.053 216.000 C 200.965 216.000,199.296 218.172,197.346 220.827 " stroke="none" fill="#f3c567" fill-rule="evenodd"></path><path id="path3" d="M81.891 310.900 C 81.137 312.390,79.895 314.505,79.600 314.800 C 79.413 314.987,78.878 315.898,77.838 317.800 C 77.597 318.240,77.310 318.690,77.200 318.800 C 71.885 324.115,77.271 332.876,84.966 331.433 C 88.702 330.732,91.688 325.025,90.061 321.695 C 88.828 319.174,83.069 309.621,82.774 309.609 C 82.650 309.604,82.252 310.185,81.891 310.900 M316.291 310.900 C 315.537 312.390,314.295 314.505,314.000 314.800 C 313.813 314.987,313.278 315.898,312.238 317.800 C 311.997 318.240,311.710 318.690,311.600 318.800 C 307.168 323.232,310.396 331.192,316.756 331.514 C 324.649 331.913,327.042 325.057,321.801 317.058 C 321.394 316.437,320.777 315.434,320.430 314.829 C 316.967 308.793,317.230 309.043,316.291 310.900 " stroke="none" fill="#dcecfc" fill-rule="evenodd"></path><path id="path4" d="M214.600 47.272 C 208.153 48.082,202.655 49.070,201.400 49.644 C 200.403 50.100,201.146 50.011,207.800 48.879 C 225.265 45.905,243.822 47.566,260.600 53.604 C 270.115 57.028,284.826 65.401,289.935 70.299 C 290.229 70.581,291.125 71.304,291.926 71.906 C 295.435 74.541,304.048 83.740,307.745 88.800 C 308.790 90.230,309.905 91.717,310.222 92.105 C 310.540 92.492,310.800 92.953,310.800 93.129 C 310.800 93.305,311.115 93.807,311.500 94.245 C 311.885 94.683,312.461 95.482,312.779 96.020 C 318.173 105.142,321.989 113.811,324.390 122.400 C 324.666 123.390,325.033 124.650,325.204 125.200 C 325.375 125.750,325.729 127.280,325.991 128.600 C 326.253 129.920,326.556 131.360,326.663 131.800 C 326.861 132.608,327.387 136.389,327.855 140.365 C 328.153 142.893,327.583 143.600,325.252 143.600 C 324.485 143.600,323.304 143.768,322.628 143.973 C 321.953 144.178,320.590 144.556,319.600 144.812 C 318.610 145.068,317.487 145.440,317.105 145.639 C 316.723 145.838,316.136 146.000,315.801 146.000 C 314.627 146.000,306.924 149.623,303.288 151.885 C 297.361 155.574,296.500 162.074,301.426 165.949 C 304.461 168.337,307.000 168.080,314.000 164.676 C 325.570 159.050,336.737 157.155,346.000 159.244 C 350.111 160.172,351.088 160.476,354.200 161.798 C 366.410 166.984,376.433 178.197,381.020 191.800 C 384.056 200.803,384.458 211.905,382.068 220.800 C 379.896 228.887,373.913 237.743,367.271 242.702 C 366.462 243.306,365.565 244.022,365.277 244.294 C 364.524 245.007,360.649 247.202,357.400 248.757 C 353.538 250.606,353.453 250.640,349.387 251.937 C 343.779 253.726,342.919 254.293,341.241 257.312 C 340.718 258.252,340.419 259.464,340.450 260.512 L 340.500 262.200 340.782 260.600 C 341.506 256.486,343.278 254.502,347.400 253.185 C 369.004 246.287,380.735 233.986,383.785 215.032 C 385.748 202.832,380.803 184.086,373.719 176.871 C 373.434 176.581,373.200 176.169,373.200 175.957 C 373.200 173.462,356.463 160.830,353.124 160.805 C 352.752 160.802,352.336 160.620,352.200 160.400 C 352.064 160.180,351.601 160.000,351.171 160.000 C 350.741 160.000,350.077 159.836,349.695 159.635 C 347.854 158.669,343.824 158.200,337.400 158.206 C 330.926 158.211,329.992 158.323,325.000 159.688 C 322.536 160.362,315.166 163.237,313.600 164.136 C 308.320 167.166,306.481 167.637,303.916 166.618 C 298.381 164.419,297.038 157.620,301.402 153.892 C 306.191 149.802,317.614 145.282,326.900 143.803 L 328.400 143.564 328.400 141.049 C 328.400 139.665,328.212 137.468,327.982 136.167 C 327.008 130.654,326.027 125.815,325.597 124.400 C 325.430 123.850,325.071 122.590,324.801 121.600 C 324.530 120.610,324.158 119.440,323.975 119.000 C 323.791 118.560,323.379 117.390,323.059 116.400 C 317.786 100.082,305.768 82.800,291.394 70.863 C 286.327 66.656,280.494 62.400,279.794 62.400 C 279.657 62.400,278.792 61.893,277.872 61.273 C 273.109 58.063,261.633 53.066,254.400 51.052 C 247.912 49.246,247.726 49.204,241.100 48.027 C 234.315 46.822,221.165 46.448,214.600 47.272 M195.800 50.866 C 189.876 52.757,181.946 55.861,179.200 57.365 C 178.650 57.667,176.961 58.567,175.447 59.367 C 173.933 60.167,172.195 61.176,171.585 61.610 C 170.975 62.045,170.361 62.400,170.220 62.400 C 169.724 62.400,164.041 66.402,160.541 69.217 C 151.632 76.381,143.422 85.497,137.646 94.637 C 135.201 98.506,135.202 98.497,137.100 99.629 C 146.242 105.080,156.785 114.017,161.472 120.290 C 162.092 121.120,162.932 122.159,163.337 122.600 C 167.640 127.273,176.327 143.628,177.402 149.080 C 179.277 158.586,166.176 161.647,162.808 152.490 C 151.175 120.867,119.152 100.041,86.316 102.745 C 82.952 103.022,79.570 103.409,78.800 103.605 C 77.672 103.892,77.866 103.925,79.800 103.772 C 86.307 103.257,98.775 103.147,101.400 103.581 C 105.498 104.259,108.465 104.844,109.600 105.196 C 110.150 105.367,111.410 105.729,112.400 105.999 C 113.390 106.270,114.560 106.634,115.000 106.807 C 115.440 106.981,117.330 107.716,119.200 108.440 C 122.074 109.553,124.619 110.783,129.400 113.369 C 137.134 117.552,147.709 127.265,153.000 135.047 C 153.880 136.341,154.735 137.460,154.900 137.533 C 155.065 137.607,155.200 137.844,155.200 138.061 C 155.200 138.278,155.706 139.208,156.325 140.128 C 157.680 142.143,160.304 147.540,162.000 151.800 C 163.535 155.655,164.741 157.063,167.497 158.215 C 172.284 160.215,178.400 155.870,178.400 150.469 C 178.400 149.742,177.457 146.757,176.418 144.200 C 173.962 138.150,166.633 125.491,163.529 121.936 C 163.018 121.351,161.970 120.101,161.200 119.158 C 155.684 112.404,144.844 103.343,137.228 99.118 L 135.999 98.437 137.219 96.368 C 138.593 94.037,141.610 89.505,141.989 89.200 C 142.126 89.090,142.677 88.370,143.212 87.600 C 145.701 84.021,154.986 74.212,158.069 71.906 C 158.873 71.304,159.771 70.573,160.065 70.281 C 162.150 68.207,171.400 62.005,175.200 60.132 C 175.970 59.752,176.690 59.334,176.800 59.202 C 177.005 58.957,179.829 57.578,183.400 55.981 C 187.455 54.167,194.844 51.632,198.700 50.732 C 199.635 50.514,200.400 50.260,200.400 50.168 C 200.400 49.791,198.052 50.147,195.800 50.866 M74.400 104.284 C 72.663 104.588,65.031 106.799,64.305 107.208 C 63.923 107.424,63.426 107.600,63.201 107.600 C 62.551 107.600,56.326 110.465,53.800 111.926 C 49.463 114.435,48.264 115.209,45.400 117.350 C 41.961 119.921,34.881 126.786,32.973 129.400 C 32.330 130.280,31.700 131.090,31.572 131.200 C 31.161 131.554,28.000 136.347,28.000 136.616 C 28.000 136.759,27.652 137.365,27.228 137.961 C 24.174 142.250,20.122 152.857,18.349 161.200 C 12.551 188.494,20.586 216.341,39.468 234.400 C 43.133 237.905,43.625 238.326,46.000 239.995 C 46.770 240.536,47.749 241.298,48.175 241.689 C 48.602 242.080,49.172 242.400,49.442 242.400 C 49.712 242.400,49.993 242.535,50.067 242.700 C 50.497 243.668,60.560 248.480,65.600 250.127 C 69.962 251.553,71.880 252.054,75.600 252.741 C 76.810 252.965,78.790 253.374,80.000 253.651 C 81.650 254.029,91.104 254.193,117.827 254.307 L 153.455 254.460 154.855 252.730 C 155.625 251.778,156.861 250.100,157.601 249.000 C 158.341 247.900,159.061 246.910,159.200 246.800 C 159.339 246.690,160.055 245.715,160.791 244.634 C 161.527 243.553,163.495 240.823,165.164 238.567 C 166.834 236.310,169.084 233.235,170.164 231.732 C 171.244 230.229,172.819 228.055,173.664 226.900 C 174.509 225.745,175.889 223.855,176.730 222.700 C 177.572 221.545,179.247 219.250,180.453 217.600 C 181.659 215.950,183.757 213.070,185.116 211.200 C 186.474 209.330,187.729 207.620,187.904 207.400 C 188.079 207.180,188.664 206.370,189.205 205.600 C 189.746 204.830,190.410 203.930,190.681 203.600 C 190.952 203.270,194.161 198.860,197.811 193.800 C 201.462 188.740,204.784 184.150,205.193 183.600 C 205.928 182.613,207.794 180.070,211.799 174.600 C 212.926 173.060,214.738 170.562,215.824 169.049 C 216.911 167.535,218.925 164.783,220.300 162.933 C 221.675 161.082,222.800 159.467,222.800 159.344 C 222.800 158.120,227.262 155.600,229.430 155.600 C 235.598 155.600,238.287 161.256,235.569 168.513 C 234.892 170.321,233.974 172.790,233.530 174.000 C 233.086 175.210,232.578 176.560,232.401 177.000 C 232.225 177.440,231.864 178.430,231.600 179.200 C 231.054 180.789,230.688 181.762,230.094 183.200 C 229.867 183.750,229.464 184.830,229.200 185.600 C 228.936 186.370,228.576 187.360,228.400 187.800 C 228.224 188.240,227.864 189.230,227.600 190.000 C 227.336 190.770,226.957 191.805,226.760 192.300 C 226.562 192.795,226.238 193.605,226.040 194.100 C 225.843 194.595,225.464 195.630,225.200 196.400 C 224.936 197.170,224.572 198.160,224.391 198.600 C 224.211 199.040,222.508 203.630,220.607 208.800 C 216.188 220.817,215.591 222.427,215.201 223.400 C 215.025 223.840,214.664 224.830,214.400 225.600 C 213.818 227.293,213.229 228.760,212.753 229.695 C 212.559 230.077,212.400 230.664,212.400 231.000 C 212.400 231.336,212.241 231.923,212.047 232.305 C 211.852 232.687,211.515 233.450,211.296 234.000 C 211.078 234.550,210.697 235.503,210.450 236.119 C 209.469 238.558,207.988 238.400,231.823 238.400 C 258.084 238.400,258.393 238.447,260.700 242.784 C 262.262 245.721,261.836 248.280,259.153 252.062 C 257.476 254.426,256.992 254.344,273.300 254.478 C 291.483 254.627,292.210 254.887,293.731 261.800 C 293.839 262.292,293.925 262.105,293.954 261.312 C 294.006 259.862,292.815 257.461,291.357 256.076 C 289.241 254.067,288.653 254.000,273.213 254.000 C 265.286 254.000,258.800 253.916,258.800 253.813 C 258.800 253.711,259.520 252.513,260.400 251.151 C 262.589 247.765,262.687 244.703,260.700 241.773 C 258.170 238.042,259.466 238.216,233.261 238.090 C 211.718 237.988,210.339 237.939,210.603 237.290 C 210.758 236.911,211.405 235.205,212.042 233.500 C 212.679 231.795,213.756 228.915,214.436 227.100 C 215.116 225.285,216.084 222.630,216.588 221.200 C 217.093 219.770,217.814 217.790,218.192 216.800 C 219.355 213.751,221.239 208.711,222.079 206.400 C 222.518 205.190,223.022 203.840,223.199 203.400 C 223.375 202.960,223.736 201.970,224.000 201.200 C 224.264 200.430,224.643 199.395,224.840 198.900 C 225.038 198.405,225.362 197.595,225.560 197.100 C 225.757 196.605,226.136 195.570,226.400 194.800 C 226.664 194.030,227.025 193.040,227.201 192.600 C 227.634 191.521,228.546 189.057,232.606 178.000 C 234.504 172.830,236.405 167.721,236.829 166.647 C 239.051 161.020,235.433 155.200,229.714 155.200 C 225.993 155.200,224.295 156.340,220.939 161.093 C 219.887 162.582,217.755 165.510,216.200 167.600 C 214.645 169.690,212.758 172.296,212.005 173.391 C 211.252 174.486,210.415 175.656,210.144 175.991 C 209.361 176.960,207.267 179.821,203.404 185.200 C 199.728 190.318,196.260 195.087,195.695 195.800 C 195.521 196.020,194.936 196.830,194.395 197.600 C 193.854 198.370,193.194 199.270,192.928 199.600 C 192.433 200.214,191.035 202.128,186.206 208.800 C 184.693 210.890,182.799 213.500,181.997 214.600 C 181.195 215.700,179.687 217.770,178.647 219.200 C 177.607 220.630,176.521 222.087,176.235 222.438 C 175.948 222.789,174.972 224.139,174.066 225.438 C 173.160 226.737,171.420 229.150,170.200 230.800 C 168.980 232.450,167.267 234.790,166.394 236.000 C 165.520 237.210,164.083 239.190,163.200 240.400 C 162.317 241.610,160.845 243.680,159.927 245.000 C 159.010 246.320,158.145 247.490,158.004 247.600 C 157.863 247.710,157.191 248.618,156.511 249.618 C 155.831 250.617,154.736 252.012,154.077 252.718 L 152.879 254.000 122.140 253.988 C 78.002 253.972,71.754 253.216,57.400 246.164 C 41.591 238.396,29.229 225.234,23.152 209.700 C 22.958 209.205,22.629 208.395,22.420 207.900 C 21.907 206.685,20.790 203.319,20.330 201.600 C 20.124 200.830,19.781 199.570,19.568 198.800 C 17.481 191.242,16.515 176.399,17.607 168.677 C 18.404 163.043,18.791 161.096,20.091 156.200 C 21.361 151.413,24.032 144.617,25.829 141.600 C 26.156 141.050,26.731 139.925,27.106 139.100 C 27.482 138.275,27.926 137.600,28.094 137.600 C 28.262 137.600,28.404 137.375,28.408 137.100 C 28.418 136.460,32.746 130.459,35.585 127.148 C 38.816 123.381,49.240 114.453,50.459 114.409 C 50.602 114.404,51.862 113.719,53.259 112.886 C 55.671 111.450,58.726 109.916,60.700 109.149 C 61.195 108.957,62.005 108.638,62.500 108.440 C 62.995 108.243,64.030 107.864,64.800 107.600 C 65.570 107.336,66.560 106.971,67.000 106.790 C 67.440 106.609,68.340 106.349,69.000 106.212 C 69.660 106.076,70.920 105.782,71.800 105.560 C 72.680 105.338,74.167 105.014,75.104 104.841 C 76.041 104.668,76.926 104.407,77.071 104.263 C 77.350 103.984,76.057 103.994,74.400 104.284 M199.624 217.112 C 198.139 219.149,195.990 222.102,193.446 225.600 C 192.566 226.810,191.187 228.700,190.382 229.800 C 189.578 230.900,187.877 233.240,186.603 235.000 C 185.329 236.760,184.111 238.425,183.895 238.700 C 183.679 238.975,183.596 239.200,183.711 239.200 C 183.826 239.200,185.140 237.535,186.632 235.500 C 190.588 230.103,191.858 228.369,196.037 222.650 C 198.106 219.817,200.125 217.117,200.521 216.650 L 201.242 215.800 200.978 216.750 C 200.799 217.395,200.856 217.612,201.157 217.426 C 201.649 217.122,201.774 215.193,201.300 215.212 C 201.135 215.219,200.381 216.074,199.624 217.112 M197.458 226.504 C 196.528 228.940,196.680 229.404,197.636 227.047 C 198.072 225.973,198.358 225.024,198.272 224.938 C 198.186 224.852,197.820 225.557,197.458 226.504 M195.058 232.904 C 194.128 235.340,194.280 235.804,195.236 233.447 C 195.672 232.373,195.958 231.424,195.872 231.338 C 195.786 231.252,195.420 231.957,195.058 232.904 M193.748 236.300 C 193.624 236.685,193.248 237.720,192.914 238.600 C 192.066 240.832,191.577 242.556,191.878 242.256 C 192.365 241.769,194.480 235.600,194.160 235.600 C 194.058 235.600,193.873 235.915,193.748 236.300 M182.325 240.900 C 180.704 243.074,179.440 245.036,180.071 244.400 C 180.886 243.579,183.713 239.600,183.482 239.600 C 183.379 239.600,182.859 240.185,182.325 240.900 M190.984 244.568 C 190.494 247.836,192.844 253.200,194.765 253.200 C 194.929 253.200,194.302 252.406,193.373 251.436 C 191.487 249.468,190.935 247.562,191.384 244.568 C 191.530 243.596,191.559 242.800,191.449 242.800 C 191.339 242.800,191.130 243.596,190.984 244.568 M178.744 245.900 C 177.593 247.289,177.106 248.000,177.304 248.000 C 177.414 248.000,177.986 247.370,178.573 246.600 C 179.663 245.171,179.795 244.632,178.744 245.900 M174.784 251.300 C 173.639 252.895,173.055 253.840,173.486 253.400 C 174.484 252.381,177.334 248.400,177.066 248.400 C 176.955 248.400,175.928 249.705,174.784 251.300 M237.511 255.226 C 237.140 255.872,236.978 256.400,237.151 256.400 C 237.533 256.400,238.605 254.472,238.360 254.226 C 238.264 254.130,237.882 254.580,237.511 255.226 M313.800 254.727 C 311.373 255.880,309.181 258.935,309.219 261.112 C 309.235 262.010,309.347 261.886,309.860 260.400 C 312.544 252.624,322.176 252.538,324.551 260.268 C 325.072 261.963,325.148 262.050,325.172 260.978 C 325.280 256.245,318.477 252.505,313.800 254.727 M172.115 254.900 C 170.291 257.284,169.480 258.511,169.895 258.259 C 170.415 257.944,172.962 254.400,172.668 254.400 C 172.575 254.400,172.326 254.625,172.115 254.900 M233.696 260.605 C 232.532 262.403,232.800 262.400,234.173 260.600 C 234.760 259.830,235.097 259.202,234.920 259.205 C 234.744 259.208,234.193 259.838,233.696 260.605 M166.301 262.900 C 163.220 267.093,162.322 268.400,162.524 268.400 C 162.622 268.400,163.651 267.095,164.812 265.500 C 165.973 263.905,167.367 262.015,167.909 261.300 C 168.451 260.585,168.791 260.000,168.663 260.000 C 168.536 260.000,167.473 261.305,166.301 262.900 M231.929 263.100 C 230.888 264.324,229.428 266.554,229.830 266.305 C 230.277 266.029,232.932 262.400,232.687 262.400 C 232.597 262.400,232.256 262.715,231.929 263.100 M227.814 268.700 C 227.047 269.745,226.415 270.765,226.410 270.967 C 226.404 271.168,226.456 271.258,226.523 271.167 C 227.883 269.331,229.552 266.800,229.403 266.800 C 229.296 266.800,228.580 267.655,227.814 268.700 M161.676 269.500 C 161.802 270.156,163.122 270.200,182.605 270.207 L 203.400 270.215 182.800 270.007 C 166.621 269.844,162.221 269.693,162.300 269.300 C 162.355 269.025,162.207 268.800,161.971 268.800 C 161.735 268.800,161.602 269.115,161.676 269.500 M205.261 271.552 C 206.260 272.186,207.200 273.022,207.348 273.410 C 207.497 273.797,207.735 273.998,207.878 273.856 C 208.225 273.508,206.465 271.662,205.120 270.962 C 203.274 270.001,203.355 270.344,205.261 271.552 M224.750 272.900 C 224.252 273.615,223.385 274.821,222.822 275.580 C 222.260 276.339,221.992 276.843,222.227 276.701 C 222.733 276.395,226.141 271.600,225.853 271.600 C 225.744 271.600,225.247 272.185,224.750 272.900 M208.438 275.903 C 208.632 276.726,208.707 278.210,208.606 279.200 C 208.429 280.927,208.437 280.943,208.801 279.600 C 209.196 278.141,208.936 274.931,208.397 274.598 C 208.226 274.492,208.244 275.079,208.438 275.903 M221.315 277.700 C 219.581 279.967,218.666 281.320,219.009 281.113 C 219.481 280.827,222.137 277.200,221.874 277.200 C 221.777 277.200,221.526 277.425,221.315 277.700 M217.929 282.300 C 216.888 283.524,215.428 285.754,215.830 285.505 C 216.277 285.229,218.932 281.600,218.687 281.600 C 218.597 281.600,218.256 281.915,217.929 282.300 M207.077 283.877 C 206.700 284.893,206.458 285.791,206.538 285.872 C 206.619 285.952,207.000 285.193,207.385 284.185 C 207.770 283.176,208.012 282.279,207.923 282.190 C 207.835 282.101,207.454 282.860,207.077 283.877 M214.915 286.500 C 213.181 288.767,212.266 290.120,212.609 289.913 C 213.081 289.627,215.737 286.000,215.474 286.000 C 215.377 286.000,215.126 286.225,214.915 286.500 M205.477 288.277 C 205.100 289.293,204.858 290.191,204.938 290.272 C 205.019 290.352,205.400 289.593,205.785 288.585 C 206.170 287.576,206.412 286.679,206.323 286.590 C 206.235 286.501,205.854 287.260,205.477 288.277 M210.487 292.500 C 208.681 294.965,208.283 295.600,208.545 295.600 C 208.651 295.600,209.556 294.430,210.556 293.000 C 212.727 289.893,212.675 289.513,210.487 292.500 M206.138 298.494 C 204.318 300.972,203.590 302.211,204.784 300.800 C 206.008 299.352,208.070 296.400,207.857 296.400 C 207.757 296.400,206.983 297.342,206.138 298.494 M201.800 298.000 C 201.650 298.473,201.617 298.950,201.727 299.060 C 201.837 299.170,202.050 298.873,202.200 298.400 C 202.350 297.927,202.383 297.450,202.273 297.340 C 202.163 297.230,201.950 297.527,201.800 298.000 M203.144 302.700 C 201.875 304.232,201.419 304.942,201.881 304.665 C 202.393 304.358,204.169 302.000,203.889 302.000 C 203.798 302.000,203.463 302.315,203.144 302.700 M200.096 306.769 C 199.493 307.632,198.684 308.425,198.298 308.532 C 197.858 308.654,197.686 308.958,197.836 309.349 C 198.030 309.855,198.242 309.768,198.962 308.886 C 200.353 307.185,201.678 305.200,201.423 305.200 C 201.296 305.200,200.699 305.906,200.096 306.769 M81.765 309.703 C 81.526 310.196,80.401 312.098,79.265 313.929 C 78.129 315.761,77.200 317.426,77.200 317.629 C 77.200 317.833,77.020 318.000,76.800 318.000 C 76.580 318.000,76.400 318.197,76.400 318.438 C 76.400 318.679,76.000 319.438,75.511 320.125 C 74.189 321.981,74.233 326.470,75.592 328.413 C 80.687 335.697,90.983 332.873,90.955 324.200 L 90.946 321.400 87.173 315.102 C 83.372 308.757,82.598 307.985,81.765 309.703 M316.195 309.580 C 315.978 310.008,314.720 312.117,313.400 314.266 C 312.080 316.415,310.929 318.359,310.843 318.587 C 310.757 318.814,310.312 319.534,309.854 320.187 C 306.499 324.973,310.985 332.480,317.200 332.480 C 323.415 332.480,327.901 324.973,324.546 320.187 C 324.088 319.534,323.643 318.818,323.557 318.596 C 323.471 318.373,322.140 316.078,320.601 313.496 C 317.804 308.804,316.965 308.058,316.195 309.580 M85.885 313.900 C 90.969 322.354,91.269 323.174,90.421 326.322 C 88.540 333.307,78.892 334.078,75.616 327.506 C 74.736 325.739,74.957 322.043,76.057 320.158 C 79.759 313.815,82.604 309.200,82.813 309.200 C 82.948 309.200,84.330 311.315,85.885 313.900 M320.285 313.900 C 324.939 321.638,324.899 321.549,324.900 324.233 C 324.901 332.722,313.830 335.156,310.016 327.506 C 309.328 326.125,309.356 322.120,310.064 320.797 C 311.408 318.282,317.016 309.200,317.225 309.200 C 317.353 309.200,318.730 311.315,320.285 313.900 " stroke="none" fill="#546c89" fill-rule="evenodd"></path></g></svg>