<svg id="svg" version="1.1" xmlns="http://www.w3.org/2000/svg" xmlns:xlink="http://www.w3.org/1999/xlink" width="400" height="400" viewBox="0, 0, 400,400"><g id="svgg"><path id="path0" d="M194.936 107.900 C 193.878 109.852,192.609 112.077,191.953 113.126 C 191.404 114.006,191.465 114.172,193.901 118.445 C 195.844 121.854,195.352 121.600,200.020 121.600 L 204.247 121.600 206.169 118.369 C 208.348 114.707,208.672 113.809,208.074 113.089 C 207.842 112.810,207.132 111.596,206.497 110.391 C 204.222 106.081,204.743 106.400,199.978 106.400 L 195.748 106.400 194.936 107.900 M119.180 153.234 L 117.086 156.894 117.906 158.581 C 118.357 159.509,119.378 161.288,120.175 162.534 L 121.625 164.800 125.412 164.800 C 129.874 164.800,129.853 164.814,132.393 160.213 L 134.111 157.100 133.264 155.450 C 132.799 154.543,131.892 152.900,131.249 151.800 L 130.079 149.800 125.677 149.687 L 121.275 149.574 119.180 153.234 M268.784 151.887 C 265.410 157.858,265.525 156.595,267.979 160.764 C 270.417 164.907,270.218 164.786,274.638 164.794 C 278.321 164.800,279.600 164.304,279.600 162.869 C 279.600 162.611,279.735 162.399,279.900 162.397 C 280.065 162.395,280.387 161.990,280.617 161.497 C 280.846 161.004,281.466 159.831,281.996 158.891 L 282.958 157.181 281.870 155.091 C 281.271 153.941,280.365 152.280,279.856 151.400 L 278.930 149.800 274.510 149.687 L 270.091 149.575 268.784 151.887 M198.980 170.762 C 198.771 170.962,197.925 171.502,197.100 171.962 C 195.422 172.899,193.795 173.827,191.346 175.243 C 190.436 175.770,186.253 178.180,182.051 180.600 L 174.411 185.000 174.406 200.071 L 174.400 215.141 175.500 215.705 C 176.105 216.016,177.230 216.639,178.000 217.090 C 178.770 217.541,181.830 219.304,184.800 221.007 C 187.770 222.711,190.740 224.418,191.400 224.801 C 192.060 225.184,194.189 226.420,196.132 227.549 C 200.171 229.895,200.128 229.886,202.000 228.739 C 202.770 228.268,203.985 227.548,204.700 227.141 C 205.415 226.733,206.585 226.062,207.300 225.648 C 209.219 224.537,223.236 216.481,224.400 215.819 L 225.400 215.251 225.504 200.125 L 225.608 185.000 219.367 181.400 C 215.935 179.420,212.648 177.526,212.063 177.191 C 211.478 176.856,209.830 175.884,208.400 175.031 C 206.970 174.177,204.810 172.954,203.600 172.313 C 202.390 171.671,201.229 170.978,201.020 170.773 C 200.536 170.298,199.473 170.293,198.980 170.762 M119.680 238.287 C 116.676 243.295,116.664 242.798,119.915 248.112 L 121.329 250.425 125.704 250.312 L 130.079 250.200 131.249 248.200 C 131.892 247.100,132.794 245.467,133.254 244.572 L 134.090 242.944 133.248 241.372 C 132.785 240.507,131.882 238.900,131.243 237.800 L 130.079 235.800 125.693 235.687 L 121.307 235.575 119.680 238.287 M268.017 239.208 C 265.647 243.314,265.598 242.517,268.545 247.713 L 270.083 250.425 274.531 250.313 C 278.510 250.212,279.022 250.116,279.393 249.400 C 279.621 248.960,280.481 247.465,281.304 246.079 C 282.127 244.692,282.800 243.306,282.800 243.000 C 282.800 242.694,282.127 241.308,281.304 239.921 C 280.481 238.535,279.621 237.040,279.393 236.600 C 279.022 235.885,278.510 235.788,274.546 235.687 L 270.114 235.575 268.017 239.208 M195.259 279.255 C 192.093 284.323,191.389 285.971,191.985 286.919 C 192.290 287.404,192.913 288.520,193.370 289.400 C 193.826 290.280,194.290 291.090,194.401 291.200 C 194.511 291.310,194.856 291.895,195.168 292.500 C 195.959 294.034,203.811 294.235,204.741 292.745 C 205.408 291.678,206.672 289.464,207.736 287.500 L 208.548 286.000 207.736 284.500 C 206.672 282.536,205.408 280.322,204.741 279.255 C 203.926 277.950,196.074 277.950,195.259 279.255 " stroke="none" fill="#c6defa" fill-rule="evenodd"></path><path id="path1" d="M193.789 1.789 C 192.805 2.774,191.964 3.629,191.919 3.689 C 191.875 3.750,191.740 13.286,191.619 24.879 L 191.400 45.958 181.200 35.858 C 170.228 24.994,169.958 24.800,165.832 24.800 C 162.366 24.800,158.400 27.542,158.400 29.938 C 158.400 30.412,158.220 30.800,158.000 30.800 C 157.778 30.800,157.600 31.867,157.600 33.200 C 157.600 34.533,157.778 35.600,158.000 35.600 C 158.220 35.600,158.400 36.138,158.400 36.795 C 158.400 37.836,160.537 40.123,175.000 54.564 L 191.600 71.138 191.600 80.769 L 191.600 90.400 189.400 90.400 C 188.190 90.400,187.200 90.580,187.200 90.800 C 187.200 91.020,186.912 91.200,186.560 91.200 C 185.839 91.200,183.200 93.682,183.200 94.360 C 183.200 94.602,183.020 94.800,182.800 94.800 C 182.580 94.800,182.400 95.145,182.400 95.567 C 182.400 95.988,182.265 96.393,182.100 96.467 C 181.724 96.634,180.425 98.764,180.129 99.700 C 180.007 100.085,179.748 100.400,179.553 100.400 C 179.359 100.400,179.200 100.760,179.200 101.200 C 179.200 101.640,179.055 102.000,178.879 102.000 C 178.702 102.000,178.117 102.897,177.579 103.994 C 177.040 105.090,176.465 105.990,176.300 105.994 C 176.135 105.997,176.000 106.349,176.000 106.776 C 176.000 107.203,175.831 107.657,175.625 107.784 C 175.012 108.164,174.000 110.452,174.000 111.461 C 174.000 111.978,173.820 112.400,173.600 112.400 C 173.380 112.400,173.200 113.120,173.200 114.000 C 173.200 114.880,173.380 115.600,173.600 115.600 C 173.820 115.600,174.000 116.215,174.000 116.967 C 174.000 117.718,174.135 118.393,174.300 118.467 C 174.465 118.540,174.959 119.320,175.398 120.200 C 176.543 122.494,178.548 125.777,178.900 125.933 C 179.065 126.007,179.200 126.412,179.200 126.833 C 179.200 127.255,179.380 127.600,179.600 127.600 C 179.820 127.600,180.000 127.878,180.000 128.217 C 180.000 128.556,180.360 129.220,180.800 129.692 C 181.240 130.164,181.600 130.787,181.600 131.075 C 181.600 131.364,181.780 131.600,182.000 131.600 C 182.220 131.600,182.400 131.960,182.400 132.400 C 182.400 132.840,182.580 133.200,182.800 133.200 C 183.020 133.200,183.200 133.435,183.200 133.722 C 183.200 134.497,185.807 137.200,186.554 137.200 C 186.909 137.200,187.200 137.380,187.200 137.600 C 187.200 137.820,188.190 138.000,189.400 138.000 L 191.600 138.000 191.600 147.000 C 191.600 154.043,191.489 156.000,191.088 156.000 C 190.807 156.000,190.317 156.360,190.000 156.800 C 189.683 157.240,189.103 157.600,188.712 157.600 C 188.320 157.600,188.000 157.780,188.000 158.000 C 188.000 158.220,187.736 158.400,187.414 158.400 C 186.601 158.400,184.000 159.676,184.000 160.074 C 184.000 160.253,183.640 160.400,183.200 160.400 C 182.760 160.400,182.400 160.559,182.400 160.753 C 182.400 160.948,182.085 161.207,181.700 161.329 C 181.013 161.546,178.794 162.805,178.400 163.201 C 178.290 163.311,177.660 163.671,177.000 164.001 C 176.340 164.330,175.451 164.915,175.025 165.300 C 174.598 165.685,174.013 166.000,173.725 166.000 C 173.436 166.000,173.200 166.180,173.200 166.400 C 173.200 166.620,172.840 166.800,172.400 166.800 C 171.960 166.800,171.600 166.980,171.600 167.200 C 171.600 167.420,171.280 167.600,170.888 167.600 C 170.497 167.600,169.917 167.960,169.600 168.400 C 169.283 168.840,168.703 169.200,168.312 169.200 C 167.920 169.200,167.600 169.380,167.600 169.600 C 167.600 170.327,164.982 170.029,164.092 169.200 C 163.620 168.760,162.956 168.400,162.617 168.400 C 162.278 168.400,162.000 168.220,162.000 168.000 C 162.000 167.780,161.680 167.600,161.288 167.600 C 160.897 167.600,160.317 167.240,160.000 166.800 C 159.683 166.360,159.103 166.000,158.712 166.000 C 158.320 166.000,158.000 165.864,158.000 165.698 C 158.000 165.531,157.415 165.136,156.700 164.820 C 155.985 164.503,155.051 163.920,154.625 163.522 C 154.198 163.125,153.613 162.800,153.325 162.800 C 153.036 162.800,152.800 162.620,152.800 162.400 C 152.800 162.180,152.440 162.000,152.000 162.000 C 151.467 162.000,151.200 161.733,151.200 161.200 C 151.200 160.760,151.380 160.400,151.600 160.400 C 151.835 160.400,152.000 159.000,152.000 157.000 C 152.000 155.000,151.835 153.600,151.600 153.600 C 151.380 153.600,151.200 153.240,151.200 152.800 C 151.200 152.360,151.020 152.000,150.800 152.000 C 150.580 152.000,150.400 151.640,150.400 151.200 C 150.400 150.760,150.220 150.400,150.000 150.400 C 149.780 150.400,149.600 150.164,149.600 149.875 C 149.600 149.587,149.240 148.964,148.800 148.492 C 148.360 148.020,148.000 147.356,148.000 147.017 C 148.000 146.678,147.820 146.400,147.600 146.400 C 147.380 146.400,147.200 146.040,147.200 145.600 C 147.200 145.160,147.020 144.800,146.800 144.800 C 146.580 144.800,146.400 144.530,146.400 144.200 C 146.400 143.870,146.220 143.600,146.000 143.600 C 145.780 143.600,145.600 143.330,145.600 143.000 C 145.600 142.670,145.420 142.400,145.200 142.400 C 144.980 142.400,144.800 142.130,144.800 141.800 C 144.800 141.470,144.620 141.200,144.400 141.200 C 144.180 141.200,144.000 140.840,144.000 140.400 C 144.000 139.960,143.820 139.600,143.600 139.600 C 143.380 139.600,143.200 139.364,143.200 139.075 C 143.200 138.787,142.840 138.164,142.400 137.692 C 141.960 137.220,141.600 136.638,141.600 136.399 C 141.600 135.882,140.112 134.404,138.883 133.700 C 137.775 133.065,112.800 132.969,112.800 133.600 C 112.800 133.820,112.509 134.000,112.154 134.000 C 111.798 134.000,110.790 134.765,109.912 135.700 C 108.916 136.762,108.245 137.212,108.125 136.900 C 108.020 136.625,107.678 136.400,107.367 136.400 C 107.055 136.400,106.800 136.220,106.800 136.000 C 106.800 135.780,106.440 135.600,106.000 135.600 C 105.560 135.600,105.200 135.420,105.200 135.200 C 105.200 134.980,104.930 134.800,104.600 134.800 C 104.270 134.800,104.000 134.620,104.000 134.400 C 104.000 134.180,103.730 134.000,103.400 134.000 C 103.070 134.000,102.800 133.820,102.800 133.600 C 102.800 133.380,102.440 133.200,102.000 133.200 C 101.560 133.200,101.200 133.020,101.200 132.800 C 101.200 132.580,100.922 132.400,100.583 132.400 C 100.244 132.400,99.580 132.040,99.108 131.600 C 98.636 131.160,98.013 130.800,97.725 130.800 C 97.436 130.800,97.200 130.620,97.200 130.400 C 97.200 130.180,96.840 130.000,96.400 130.000 C 95.960 130.000,95.600 129.820,95.600 129.600 C 95.600 129.380,95.353 129.200,95.050 129.200 C 93.638 129.200,91.714 126.645,91.435 124.400 C 91.157 122.160,90.582 119.955,89.951 118.705 C 89.758 118.323,89.600 117.479,89.600 116.829 C 89.600 116.179,89.420 115.536,89.200 115.400 C 88.980 115.264,88.800 114.544,88.800 113.800 C 88.800 113.056,88.620 112.336,88.400 112.200 C 88.180 112.064,88.000 111.434,88.000 110.800 C 88.000 110.166,87.820 109.536,87.600 109.400 C 87.380 109.264,87.200 108.623,87.200 107.976 C 87.200 107.329,87.020 106.800,86.800 106.800 C 86.580 106.800,86.400 106.080,86.400 105.200 C 86.400 104.320,86.220 103.600,86.000 103.600 C 85.780 103.600,85.600 102.981,85.600 102.224 C 85.600 101.467,85.420 100.736,85.200 100.600 C 84.980 100.464,84.800 99.834,84.800 99.200 C 84.800 98.566,84.620 97.936,84.400 97.800 C 84.180 97.664,84.000 96.933,84.000 96.176 C 84.000 95.419,83.820 94.800,83.600 94.800 C 83.380 94.800,83.200 94.170,83.200 93.400 C 83.200 92.630,83.020 92.000,82.800 92.000 C 82.580 92.000,82.400 91.280,82.400 90.400 C 82.400 89.520,82.220 88.800,82.000 88.800 C 81.780 88.800,81.600 88.271,81.600 87.624 C 81.600 86.977,81.420 86.336,81.200 86.200 C 80.980 86.064,80.800 85.457,80.800 84.852 C 80.800 84.246,80.440 83.364,80.000 82.892 C 79.560 82.420,79.200 81.846,79.200 81.617 C 79.200 81.388,79.028 81.200,78.818 81.200 C 78.608 81.200,77.986 80.750,77.436 80.200 C 76.886 79.650,75.989 79.200,75.442 79.200 C 74.895 79.200,74.325 79.003,74.176 78.762 C 74.021 78.510,73.373 78.420,72.653 78.550 C 71.964 78.675,70.725 78.892,69.900 79.032 C 69.075 79.173,68.400 79.404,68.400 79.546 C 68.400 79.688,67.860 80.044,67.200 80.336 C 66.540 80.628,66.000 81.088,66.000 81.358 C 66.000 81.628,65.640 82.236,65.200 82.708 C 64.760 83.180,64.400 84.117,64.400 84.789 C 64.400 85.461,64.177 86.368,63.904 86.805 C 63.509 87.438,63.509 87.762,63.904 88.395 C 64.177 88.832,64.400 89.721,64.400 90.371 C 64.400 91.021,64.580 91.664,64.800 91.800 C 65.020 91.936,65.200 92.667,65.200 93.424 C 65.200 94.181,65.380 94.800,65.600 94.800 C 65.820 94.800,66.000 95.520,66.000 96.400 C 66.000 97.280,66.180 98.000,66.400 98.000 C 66.620 98.000,66.800 98.619,66.800 99.376 C 66.800 100.133,66.980 100.864,67.200 101.000 C 67.420 101.136,67.600 101.777,67.600 102.424 C 67.600 103.071,67.780 103.600,68.000 103.600 C 68.220 103.600,68.400 104.219,68.400 104.976 C 68.400 105.733,68.580 106.464,68.800 106.600 C 69.020 106.736,69.200 107.467,69.200 108.224 C 69.200 108.981,69.380 109.600,69.600 109.600 C 69.820 109.600,70.000 110.219,70.000 110.976 C 70.000 111.733,70.180 112.464,70.400 112.600 C 70.921 112.922,70.921 115.200,70.400 115.200 C 70.180 115.200,70.000 115.020,70.000 114.800 C 70.000 114.580,69.764 114.400,69.475 114.400 C 69.187 114.400,68.564 114.040,68.092 113.600 C 67.620 113.160,66.956 112.800,66.617 112.800 C 66.278 112.800,66.000 112.620,66.000 112.400 C 66.000 112.180,65.640 112.000,65.200 112.000 C 64.760 112.000,64.400 111.857,64.400 111.681 C 64.400 111.506,63.005 110.659,61.300 109.799 C 59.595 108.939,58.140 108.092,58.067 107.918 C 57.993 107.743,57.678 107.600,57.367 107.600 C 57.055 107.600,56.800 107.420,56.800 107.200 C 56.800 106.980,56.440 106.800,56.000 106.800 C 55.560 106.800,55.200 106.620,55.200 106.400 C 55.200 106.180,54.964 106.000,54.675 106.000 C 54.387 106.000,53.764 105.640,53.292 105.200 C 52.820 104.760,52.156 104.400,51.817 104.400 C 51.478 104.400,51.200 104.220,51.200 104.000 C 51.200 103.780,50.922 103.600,50.583 103.600 C 50.244 103.600,49.580 103.240,49.108 102.800 C 48.636 102.360,48.013 102.000,47.725 102.000 C 47.436 102.000,47.200 101.820,47.200 101.600 C 47.200 101.380,46.840 101.200,46.400 101.200 C 45.960 101.200,45.600 101.020,45.600 100.800 C 45.600 100.580,45.280 100.400,44.888 100.400 C 44.497 100.400,43.917 100.040,43.600 99.600 C 43.283 99.160,42.703 98.800,42.312 98.800 C 41.920 98.800,41.600 98.664,41.600 98.498 C 41.600 98.331,41.015 97.941,40.300 97.630 C 39.585 97.319,38.910 96.960,38.800 96.832 C 38.053 95.965,36.413 95.600,33.269 95.600 L 29.727 95.600 27.872 97.353 C 25.209 99.868,24.122 104.823,25.616 107.637 C 26.359 109.038,29.459 112.000,30.181 112.000 C 30.521 112.000,30.800 112.180,30.800 112.400 C 30.800 112.620,31.078 112.800,31.417 112.800 C 31.756 112.800,32.420 113.160,32.892 113.600 C 33.364 114.040,33.987 114.400,34.275 114.400 C 34.564 114.400,34.800 114.580,34.800 114.800 C 34.800 115.020,35.160 115.200,35.600 115.200 C 36.040 115.200,36.400 115.380,36.400 115.600 C 36.400 115.820,36.720 116.000,37.112 116.000 C 37.503 116.000,38.083 116.360,38.400 116.800 C 38.717 117.240,39.297 117.600,39.688 117.600 C 40.080 117.600,40.400 117.780,40.400 118.000 C 40.400 118.220,40.760 118.400,41.200 118.400 C 41.640 118.400,42.000 118.580,42.000 118.800 C 42.000 119.020,42.270 119.200,42.600 119.200 C 42.930 119.200,43.200 119.380,43.200 119.600 C 43.200 119.820,43.470 120.000,43.800 120.000 C 44.130 120.000,44.400 120.136,44.400 120.302 C 44.400 120.469,44.985 120.859,45.700 121.170 C 46.415 121.481,47.090 121.840,47.200 121.968 C 47.521 122.340,51.298 124.400,52.500 124.859 C 53.105 125.089,53.600 125.441,53.600 125.639 C 53.600 125.838,53.960 126.000,54.400 126.000 C 54.840 126.000,55.200 126.180,55.200 126.400 C 55.200 126.620,55.560 126.800,56.000 126.800 C 56.440 126.800,56.800 126.980,56.800 127.200 C 56.800 127.420,57.120 127.600,57.512 127.600 C 57.903 127.600,58.483 127.960,58.800 128.400 C 59.117 128.840,59.607 129.200,59.888 129.200 C 60.170 129.200,60.400 129.380,60.400 129.600 C 60.400 129.820,60.760 130.000,61.200 130.000 C 61.640 130.000,62.000 130.180,62.000 130.400 C 62.000 130.620,61.651 130.800,61.224 130.800 C 60.797 130.800,60.336 130.980,60.200 131.200 C 60.064 131.420,59.423 131.600,58.776 131.600 C 58.129 131.600,57.600 131.780,57.600 132.000 C 57.600 132.220,56.880 132.400,56.000 132.400 C 55.120 132.400,54.400 132.580,54.400 132.800 C 54.400 133.020,53.680 133.200,52.800 133.200 C 51.920 133.200,51.200 133.380,51.200 133.600 C 51.200 133.820,50.570 134.000,49.800 134.000 C 49.030 134.000,48.400 134.180,48.400 134.400 C 48.400 134.620,47.770 134.800,47.000 134.800 C 46.230 134.800,45.600 134.980,45.600 135.200 C 45.600 135.420,44.970 135.600,44.200 135.600 C 43.430 135.600,42.800 135.780,42.800 136.000 C 42.800 136.220,42.080 136.400,41.200 136.400 C 40.320 136.400,39.600 136.580,39.600 136.800 C 39.600 137.020,38.981 137.200,38.224 137.200 C 37.467 137.200,36.736 137.380,36.600 137.600 C 36.464 137.820,36.003 138.000,35.576 138.000 C 35.149 138.000,34.800 138.180,34.800 138.400 C 34.800 138.620,34.522 138.800,34.182 138.800 C 31.770 138.800,28.452 147.396,30.400 148.600 C 30.620 148.736,30.800 149.197,30.800 149.624 C 30.800 150.051,30.937 150.400,31.105 150.400 C 31.273 150.400,31.588 150.790,31.805 151.267 C 32.022 151.744,32.550 152.329,32.978 152.567 C 33.406 152.805,34.115 153.315,34.554 153.700 C 35.455 154.492,42.400 154.757,42.400 154.000 C 42.400 153.780,43.120 153.600,44.000 153.600 C 44.880 153.600,45.600 153.420,45.600 153.200 C 45.600 152.980,46.320 152.800,47.200 152.800 C 48.080 152.800,48.800 152.620,48.800 152.400 C 48.800 152.180,49.329 152.000,49.976 152.000 C 50.623 152.000,51.264 151.820,51.400 151.600 C 51.536 151.380,52.267 151.200,53.024 151.200 C 53.781 151.200,54.400 151.020,54.400 150.800 C 54.400 150.580,55.019 150.400,55.776 150.400 C 56.533 150.400,57.264 150.220,57.400 150.000 C 57.536 149.780,58.267 149.600,59.024 149.600 C 59.781 149.600,60.400 149.440,60.400 149.244 C 60.400 149.048,61.075 148.773,61.900 148.632 C 65.551 148.010,66.000 147.893,66.000 147.556 C 66.000 147.360,66.720 147.200,67.600 147.200 C 68.480 147.200,69.200 147.020,69.200 146.800 C 69.200 146.580,69.830 146.400,70.600 146.400 C 71.370 146.400,72.000 146.220,72.000 146.000 C 72.000 145.780,72.630 145.600,73.400 145.600 C 74.170 145.600,74.800 145.420,74.800 145.200 C 74.800 144.980,75.430 144.800,76.200 144.800 C 76.970 144.800,77.600 144.620,77.600 144.400 C 77.600 144.180,78.320 144.000,79.200 144.000 C 80.080 144.000,80.800 143.820,80.800 143.600 C 80.800 143.380,81.700 143.200,82.800 143.200 C 83.900 143.200,84.800 143.380,84.800 143.600 C 84.800 143.820,85.160 144.000,85.600 144.000 C 86.040 144.000,86.400 144.180,86.400 144.400 C 86.400 144.620,86.720 144.800,87.112 144.800 C 87.503 144.800,88.083 145.160,88.400 145.600 C 88.717 146.040,89.297 146.400,89.688 146.400 C 90.080 146.400,90.400 146.580,90.400 146.800 C 90.400 147.020,90.760 147.200,91.200 147.200 C 91.640 147.200,92.000 147.380,92.000 147.600 C 92.000 147.820,92.270 148.000,92.600 148.000 C 92.930 148.000,93.200 148.180,93.200 148.400 C 93.200 148.620,93.470 148.800,93.800 148.800 C 94.130 148.800,94.400 148.980,94.400 149.200 C 94.400 149.420,94.670 149.600,95.000 149.600 C 95.330 149.600,95.600 149.780,95.600 150.000 C 95.600 150.220,95.960 150.400,96.400 150.400 C 96.840 150.400,97.200 150.580,97.200 150.800 C 97.200 151.020,97.468 151.200,97.795 151.200 C 98.866 151.200,99.888 152.406,99.691 153.436 C 99.590 153.966,99.348 154.400,99.153 154.400 C 98.959 154.400,98.800 155.570,98.800 157.000 C 98.800 158.467,98.974 159.600,99.200 159.600 C 99.420 159.600,99.600 159.960,99.600 160.400 C 99.600 160.840,99.780 161.200,100.000 161.200 C 100.220 161.200,100.400 161.560,100.400 162.000 C 100.400 162.440,100.580 162.800,100.800 162.800 C 101.020 162.800,101.200 163.160,101.200 163.600 C 101.200 164.040,101.380 164.400,101.600 164.400 C 101.820 164.400,102.000 164.636,102.000 164.925 C 102.000 165.213,102.360 165.836,102.800 166.308 C 103.240 166.780,103.600 167.444,103.600 167.783 C 103.600 168.122,103.780 168.400,104.000 168.400 C 104.220 168.400,104.400 168.678,104.400 169.017 C 104.400 169.356,104.760 170.020,105.200 170.492 C 105.640 170.964,106.000 171.587,106.000 171.875 C 106.000 172.164,106.136 172.400,106.302 172.400 C 106.469 172.400,106.863 172.985,107.178 173.700 C 107.493 174.415,107.987 175.238,108.275 175.529 C 108.564 175.819,108.800 176.279,108.800 176.550 C 108.800 177.303,111.422 180.000,112.154 180.000 C 112.509 180.000,112.800 180.180,112.800 180.400 C 112.800 180.658,117.400 180.800,125.800 180.800 C 134.200 180.800,138.800 180.658,138.800 180.400 C 138.800 180.180,138.979 180.000,139.197 180.000 C 139.918 180.000,141.600 178.269,141.600 177.528 C 141.600 177.067,141.893 176.800,142.400 176.800 C 142.840 176.800,143.200 176.980,143.200 177.200 C 143.200 177.420,143.470 177.600,143.800 177.600 C 144.130 177.600,144.400 177.780,144.400 178.000 C 144.400 178.220,144.670 178.400,145.000 178.400 C 145.330 178.400,145.600 178.580,145.600 178.800 C 145.600 179.020,145.960 179.200,146.400 179.200 C 146.840 179.200,147.200 179.380,147.200 179.600 C 147.200 179.820,147.478 180.000,147.817 180.000 C 148.156 180.000,148.820 180.360,149.292 180.800 C 149.764 181.240,150.387 181.600,150.675 181.600 C 150.964 181.600,151.200 181.780,151.200 182.000 C 151.200 182.220,151.560 182.400,152.000 182.400 C 152.440 182.400,152.800 182.580,152.800 182.800 C 152.800 183.020,153.120 183.200,153.512 183.200 C 153.903 183.200,154.483 183.560,154.800 184.000 C 155.117 184.440,155.620 184.800,155.917 184.800 C 157.538 184.800,157.600 185.364,157.600 200.000 C 157.600 214.636,157.538 215.200,155.917 215.200 C 155.620 215.200,155.117 215.560,154.800 216.000 C 154.483 216.440,153.903 216.800,153.512 216.800 C 153.120 216.800,152.800 216.980,152.800 217.200 C 152.800 217.420,152.440 217.600,152.000 217.600 C 151.560 217.600,151.200 217.780,151.200 218.000 C 151.200 218.220,150.964 218.400,150.675 218.400 C 150.387 218.400,149.764 218.760,149.292 219.200 C 148.820 219.640,148.156 220.000,147.817 220.000 C 147.478 220.000,147.200 220.180,147.200 220.400 C 147.200 220.620,146.840 220.800,146.400 220.800 C 145.960 220.800,145.600 220.980,145.600 221.200 C 145.600 221.420,145.330 221.600,145.000 221.600 C 144.670 221.600,144.400 221.780,144.400 222.000 C 144.400 222.220,144.130 222.400,143.800 222.400 C 143.470 222.400,143.200 222.580,143.200 222.800 C 143.200 223.020,142.840 223.200,142.400 223.200 C 141.893 223.200,141.600 222.933,141.600 222.472 C 141.600 221.731,139.918 220.000,139.197 220.000 C 138.979 220.000,138.800 219.820,138.800 219.600 C 138.800 219.342,134.200 219.200,125.800 219.200 C 117.400 219.200,112.800 219.342,112.800 219.600 C 112.800 219.820,112.509 220.000,112.154 220.000 C 111.422 220.000,108.800 222.697,108.800 223.450 C 108.800 223.721,108.564 224.181,108.275 224.471 C 107.987 224.762,107.493 225.585,107.178 226.300 C 106.863 227.015,106.469 227.600,106.302 227.600 C 106.136 227.600,106.000 227.836,106.000 228.125 C 106.000 228.413,105.640 229.036,105.200 229.508 C 104.760 229.980,104.400 230.644,104.400 230.983 C 104.400 231.322,104.220 231.600,104.000 231.600 C 103.780 231.600,103.600 231.878,103.600 232.217 C 103.600 232.556,103.240 233.220,102.800 233.692 C 102.360 234.164,102.000 234.787,102.000 235.075 C 102.000 235.364,101.820 235.600,101.600 235.600 C 101.380 235.600,101.200 235.960,101.200 236.400 C 101.200 236.840,101.020 237.200,100.800 237.200 C 100.580 237.200,100.400 237.560,100.400 238.000 C 100.400 238.440,100.220 238.800,100.000 238.800 C 99.780 238.800,99.600 239.160,99.600 239.600 C 99.600 240.040,99.420 240.400,99.200 240.400 C 98.974 240.400,98.800 241.533,98.800 243.000 C 98.800 244.430,98.959 245.600,99.153 245.600 C 99.348 245.600,99.590 246.034,99.691 246.564 C 99.888 247.594,98.866 248.800,97.795 248.800 C 97.468 248.800,97.200 248.980,97.200 249.200 C 97.200 249.420,96.840 249.600,96.400 249.600 C 95.960 249.600,95.600 249.780,95.600 250.000 C 95.600 250.220,95.330 250.400,95.000 250.400 C 94.670 250.400,94.400 250.580,94.400 250.800 C 94.400 251.020,94.130 251.200,93.800 251.200 C 93.470 251.200,93.200 251.380,93.200 251.600 C 93.200 251.820,92.930 252.000,92.600 252.000 C 92.270 252.000,92.000 252.180,92.000 252.400 C 92.000 252.620,91.640 252.800,91.200 252.800 C 90.760 252.800,90.400 252.980,90.400 253.200 C 90.400 253.420,90.080 253.600,89.688 253.600 C 89.297 253.600,88.717 253.960,88.400 254.400 C 88.083 254.840,87.503 255.200,87.112 255.200 C 86.720 255.200,86.400 255.380,86.400 255.600 C 86.400 255.820,86.040 256.000,85.600 256.000 C 85.160 256.000,84.800 256.180,84.800 256.400 C 84.800 256.620,83.900 256.800,82.800 256.800 C 81.700 256.800,80.800 256.620,80.800 256.400 C 80.800 256.180,80.080 256.000,79.200 256.000 C 78.320 256.000,77.600 255.820,77.600 255.600 C 77.600 255.380,76.970 255.200,76.200 255.200 C 75.430 255.200,74.800 255.020,74.800 254.800 C 74.800 254.580,74.170 254.400,73.400 254.400 C 72.630 254.400,72.000 254.220,72.000 254.000 C 72.000 253.780,71.370 253.600,70.600 253.600 C 69.830 253.600,69.200 253.420,69.200 253.200 C 69.200 252.980,68.480 252.800,67.600 252.800 C 66.720 252.800,66.000 252.640,66.000 252.444 C 66.000 252.248,65.325 251.973,64.500 251.832 C 60.849 251.210,60.400 251.093,60.400 250.756 C 60.400 250.560,59.680 250.400,58.800 250.400 C 57.920 250.400,57.200 250.220,57.200 250.000 C 57.200 249.780,56.570 249.600,55.800 249.600 C 55.030 249.600,54.400 249.420,54.400 249.200 C 54.400 248.980,53.871 248.800,53.224 248.800 C 52.577 248.800,51.936 248.620,51.800 248.400 C 51.664 248.180,50.933 248.000,50.176 248.000 C 49.419 248.000,48.800 247.820,48.800 247.600 C 48.800 247.380,48.080 247.200,47.200 247.200 C 46.320 247.200,45.600 247.020,45.600 246.800 C 45.600 246.580,44.880 246.400,44.000 246.400 C 43.120 246.400,42.400 246.220,42.400 246.000 C 42.400 245.243,35.455 245.508,34.554 246.300 C 34.115 246.685,33.406 247.195,32.978 247.433 C 32.550 247.671,32.022 248.256,31.805 248.733 C 31.588 249.210,31.273 249.600,31.105 249.600 C 30.937 249.600,30.800 249.949,30.800 250.376 C 30.800 250.803,30.620 251.264,30.400 251.400 C 29.877 251.723,29.877 256.400,30.400 256.400 C 30.620 256.400,30.800 256.815,30.800 257.322 C 30.800 258.404,33.218 261.200,34.154 261.200 C 34.509 261.200,34.800 261.380,34.800 261.600 C 34.800 261.820,35.340 262.000,36.000 262.000 C 36.660 262.000,37.200 262.180,37.200 262.400 C 37.200 262.620,37.740 262.800,38.400 262.800 C 39.060 262.800,39.600 262.980,39.600 263.200 C 39.600 263.420,40.320 263.600,41.200 263.600 C 42.080 263.600,42.800 263.780,42.800 264.000 C 42.800 264.220,43.430 264.400,44.200 264.400 C 44.970 264.400,45.600 264.580,45.600 264.800 C 45.600 265.020,46.230 265.200,47.000 265.200 C 47.770 265.200,48.400 265.380,48.400 265.600 C 48.400 265.820,49.030 266.000,49.800 266.000 C 50.570 266.000,51.200 266.180,51.200 266.400 C 51.200 266.620,51.920 266.800,52.800 266.800 C 53.680 266.800,54.400 266.980,54.400 267.200 C 54.400 267.420,55.120 267.600,56.000 267.600 C 56.880 267.600,57.600 267.780,57.600 268.000 C 57.600 268.220,58.129 268.400,58.776 268.400 C 59.423 268.400,60.064 268.580,60.200 268.800 C 60.336 269.020,60.797 269.200,61.224 269.200 C 61.651 269.200,62.000 269.380,62.000 269.600 C 62.000 269.820,61.640 270.000,61.200 270.000 C 60.760 270.000,60.400 270.180,60.400 270.400 C 60.400 270.620,60.170 270.800,59.888 270.800 C 59.607 270.800,59.117 271.160,58.800 271.600 C 58.483 272.040,57.903 272.400,57.512 272.400 C 57.120 272.400,56.800 272.580,56.800 272.800 C 56.800 273.020,56.440 273.200,56.000 273.200 C 55.560 273.200,55.200 273.380,55.200 273.600 C 55.200 273.820,54.855 274.000,54.433 274.000 C 54.012 274.000,53.607 274.150,53.533 274.334 C 53.460 274.518,52.050 275.366,50.400 276.219 C 48.750 277.073,47.310 277.882,47.200 278.017 C 47.090 278.153,46.415 278.519,45.700 278.830 C 44.985 279.141,44.400 279.531,44.400 279.698 C 44.400 279.864,44.130 280.000,43.800 280.000 C 43.470 280.000,43.200 280.180,43.200 280.400 C 43.200 280.620,42.930 280.800,42.600 280.800 C 42.270 280.800,42.000 280.980,42.000 281.200 C 42.000 281.420,41.640 281.600,41.200 281.600 C 40.760 281.600,40.400 281.780,40.400 282.000 C 40.400 282.220,40.080 282.400,39.688 282.400 C 39.297 282.400,38.717 282.760,38.400 283.200 C 38.083 283.640,37.503 284.000,37.112 284.000 C 36.720 284.000,36.400 284.180,36.400 284.400 C 36.400 284.620,36.040 284.800,35.600 284.800 C 35.160 284.800,34.800 284.980,34.800 285.200 C 34.800 285.420,34.564 285.600,34.275 285.600 C 33.987 285.600,33.364 285.960,32.892 286.400 C 32.420 286.840,31.756 287.200,31.417 287.200 C 31.078 287.200,30.800 287.380,30.800 287.600 C 30.800 287.820,30.480 288.000,30.088 288.000 C 29.697 288.000,29.117 288.360,28.800 288.800 C 28.483 289.240,28.005 289.600,27.739 289.600 C 27.472 289.600,27.140 289.960,27.000 290.400 C 26.860 290.840,26.600 291.200,26.422 291.200 C 25.233 291.200,24.647 297.308,25.597 299.797 C 25.849 300.456,26.877 301.761,27.883 302.697 L 29.711 304.400 33.261 304.400 C 36.413 304.400,38.052 304.035,38.800 303.168 C 38.910 303.040,39.585 302.681,40.300 302.370 C 41.015 302.059,41.600 301.669,41.600 301.502 C 41.600 301.336,41.920 301.200,42.312 301.200 C 42.703 301.200,43.283 300.840,43.600 300.400 C 43.917 299.960,44.497 299.600,44.888 299.600 C 45.280 299.600,45.600 299.420,45.600 299.200 C 45.600 298.980,45.960 298.800,46.400 298.800 C 46.840 298.800,47.200 298.620,47.200 298.400 C 47.200 298.180,47.436 298.000,47.725 298.000 C 48.013 298.000,48.636 297.640,49.108 297.200 C 49.580 296.760,50.244 296.400,50.583 296.400 C 50.922 296.400,51.200 296.220,51.200 296.000 C 51.200 295.780,51.478 295.600,51.817 295.600 C 52.156 295.600,52.820 295.240,53.292 294.800 C 53.764 294.360,54.387 294.000,54.675 294.000 C 54.964 294.000,55.200 293.820,55.200 293.600 C 55.200 293.380,55.560 293.200,56.000 293.200 C 56.440 293.200,56.800 293.020,56.800 292.800 C 56.800 292.580,56.993 292.400,57.229 292.400 C 57.464 292.400,57.927 292.130,58.257 291.800 C 58.587 291.470,59.204 291.200,59.629 291.200 C 60.053 291.200,60.403 291.065,60.406 290.900 C 60.410 290.735,61.310 290.160,62.406 289.621 C 63.503 289.083,64.400 288.498,64.400 288.321 C 64.400 288.145,64.760 288.000,65.200 288.000 C 65.640 288.000,66.000 287.820,66.000 287.600 C 66.000 287.380,66.278 287.200,66.617 287.200 C 66.956 287.200,67.620 286.840,68.092 286.400 C 68.564 285.960,69.187 285.600,69.475 285.600 C 69.764 285.600,70.000 285.420,70.000 285.200 C 70.000 284.980,70.180 284.800,70.400 284.800 C 70.921 284.800,70.921 287.078,70.400 287.400 C 70.180 287.536,70.000 288.267,70.000 289.024 C 70.000 289.781,69.820 290.400,69.600 290.400 C 69.380 290.400,69.200 291.019,69.200 291.776 C 69.200 292.533,69.020 293.264,68.800 293.400 C 68.580 293.536,68.400 294.267,68.400 295.024 C 68.400 295.781,68.220 296.400,68.000 296.400 C 67.780 296.400,67.600 296.929,67.600 297.576 C 67.600 298.223,67.420 298.864,67.200 299.000 C 66.980 299.136,66.800 299.867,66.800 300.624 C 66.800 301.381,66.620 302.000,66.400 302.000 C 66.180 302.000,66.000 302.720,66.000 303.600 C 66.000 304.480,65.820 305.200,65.600 305.200 C 65.380 305.200,65.200 305.819,65.200 306.576 C 65.200 307.333,65.020 308.064,64.800 308.200 C 64.580 308.336,64.400 308.979,64.400 309.629 C 64.400 310.279,64.177 311.168,63.904 311.605 C 63.509 312.238,63.509 312.562,63.904 313.195 C 64.177 313.632,64.400 314.607,64.400 315.361 C 64.400 316.116,64.535 316.793,64.700 316.867 C 64.865 316.940,65.504 317.675,66.120 318.500 C 66.737 319.325,67.502 320.000,67.820 320.000 C 68.139 320.000,68.400 320.180,68.400 320.400 C 68.400 320.620,68.929 320.800,69.576 320.800 C 70.223 320.800,70.864 320.980,71.000 321.200 C 71.321 321.720,73.879 321.720,74.200 321.200 C 74.336 320.980,74.977 320.800,75.624 320.800 C 76.271 320.800,76.800 320.659,76.800 320.486 C 76.800 320.314,77.340 319.854,78.000 319.464 C 78.660 319.074,79.200 318.577,79.200 318.361 C 79.200 318.144,79.560 317.580,80.000 317.108 C 80.440 316.636,80.800 315.754,80.800 315.148 C 80.800 314.543,80.980 313.936,81.200 313.800 C 81.420 313.664,81.600 313.023,81.600 312.376 C 81.600 311.729,81.780 311.200,82.000 311.200 C 82.220 311.200,82.400 310.480,82.400 309.600 C 82.400 308.720,82.580 308.000,82.800 308.000 C 83.020 308.000,83.200 307.370,83.200 306.600 C 83.200 305.830,83.380 305.200,83.600 305.200 C 83.820 305.200,84.000 304.581,84.000 303.824 C 84.000 303.067,84.180 302.336,84.400 302.200 C 84.620 302.064,84.800 301.434,84.800 300.800 C 84.800 300.166,84.980 299.536,85.200 299.400 C 85.420 299.264,85.600 298.533,85.600 297.776 C 85.600 297.019,85.780 296.400,86.000 296.400 C 86.220 296.400,86.400 295.680,86.400 294.800 C 86.400 293.920,86.580 293.200,86.800 293.200 C 87.020 293.200,87.200 292.671,87.200 292.024 C 87.200 291.377,87.380 290.736,87.600 290.600 C 87.820 290.464,88.000 289.834,88.000 289.200 C 88.000 288.566,88.180 287.936,88.400 287.800 C 88.620 287.664,88.800 286.944,88.800 286.200 C 88.800 285.456,88.980 284.736,89.200 284.600 C 89.420 284.464,89.600 283.821,89.600 283.171 C 89.600 282.521,89.758 281.677,89.951 281.295 C 90.582 280.045,91.157 277.840,91.435 275.600 C 91.714 273.355,93.638 270.800,95.050 270.800 C 95.353 270.800,95.600 270.620,95.600 270.400 C 95.600 270.180,95.960 270.000,96.400 270.000 C 96.840 270.000,97.200 269.820,97.200 269.600 C 97.200 269.380,97.436 269.200,97.725 269.200 C 98.013 269.200,98.636 268.840,99.108 268.400 C 99.580 267.960,100.244 267.600,100.583 267.600 C 100.922 267.600,101.200 267.420,101.200 267.200 C 101.200 266.980,101.560 266.800,102.000 266.800 C 102.440 266.800,102.800 266.620,102.800 266.400 C 102.800 266.180,103.070 266.000,103.400 266.000 C 103.730 266.000,104.000 265.820,104.000 265.600 C 104.000 265.380,104.270 265.200,104.600 265.200 C 104.930 265.200,105.200 265.020,105.200 264.800 C 105.200 264.580,105.560 264.400,106.000 264.400 C 106.440 264.400,106.800 264.220,106.800 264.000 C 106.800 263.780,107.055 263.600,107.367 263.600 C 107.678 263.600,108.020 263.375,108.125 263.100 C 108.245 262.788,108.916 263.238,109.912 264.300 C 110.790 265.235,111.798 266.000,112.154 266.000 C 112.509 266.000,112.800 266.180,112.800 266.400 C 112.800 267.031,137.777 266.935,138.876 266.300 C 140.387 265.426,141.600 264.274,141.600 263.711 C 141.600 263.412,141.960 262.780,142.400 262.308 C 142.840 261.836,143.200 261.213,143.200 260.925 C 143.200 260.636,143.380 260.400,143.600 260.400 C 143.820 260.400,144.000 260.040,144.000 259.600 C 144.000 259.160,144.180 258.800,144.400 258.800 C 144.620 258.800,144.800 258.530,144.800 258.200 C 144.800 257.870,144.980 257.600,145.200 257.600 C 145.420 257.600,145.600 257.330,145.600 257.000 C 145.600 256.670,145.780 256.400,146.000 256.400 C 146.220 256.400,146.400 256.130,146.400 255.800 C 146.400 255.470,146.580 255.200,146.800 255.200 C 147.020 255.200,147.200 254.840,147.200 254.400 C 147.200 253.960,147.380 253.600,147.600 253.600 C 147.820 253.600,148.000 253.322,148.000 252.983 C 148.000 252.644,148.360 251.980,148.800 251.508 C 149.240 251.036,149.600 250.413,149.600 250.125 C 149.600 249.836,149.780 249.600,150.000 249.600 C 150.220 249.600,150.400 249.240,150.400 248.800 C 150.400 248.360,150.580 248.000,150.800 248.000 C 151.020 248.000,151.200 247.640,151.200 247.200 C 151.200 246.760,151.380 246.400,151.600 246.400 C 151.835 246.400,152.000 245.000,152.000 243.000 C 152.000 241.000,151.835 239.600,151.600 239.600 C 151.380 239.600,151.200 239.240,151.200 238.800 C 151.200 238.267,151.467 238.000,152.000 238.000 C 152.440 238.000,152.800 237.820,152.800 237.600 C 152.800 237.380,153.036 237.200,153.325 237.200 C 153.613 237.200,154.198 236.885,154.625 236.499 C 155.051 236.114,156.300 235.352,157.400 234.806 C 158.500 234.260,159.691 233.496,160.047 233.107 C 160.403 232.718,160.988 232.400,161.347 232.400 C 161.706 232.400,162.000 232.220,162.000 232.000 C 162.000 231.780,162.278 231.600,162.617 231.600 C 162.956 231.600,163.620 231.240,164.092 230.800 C 164.982 229.971,167.600 229.673,167.600 230.400 C 167.600 230.620,167.920 230.800,168.312 230.800 C 168.703 230.800,169.283 231.160,169.600 231.600 C 169.917 232.040,170.497 232.400,170.888 232.400 C 171.280 232.400,171.600 232.580,171.600 232.800 C 171.600 233.020,171.960 233.200,172.400 233.200 C 172.840 233.200,173.200 233.380,173.200 233.600 C 173.200 233.820,173.436 234.000,173.725 234.000 C 174.013 234.000,174.598 234.315,175.025 234.700 C 175.451 235.085,176.340 235.670,177.000 235.999 C 177.660 236.329,178.290 236.689,178.400 236.799 C 178.794 237.195,181.013 238.454,181.700 238.671 C 182.085 238.793,182.400 239.052,182.400 239.247 C 182.400 239.441,182.760 239.600,183.200 239.600 C 183.640 239.600,184.000 239.747,184.000 239.926 C 184.000 240.324,186.601 241.600,187.414 241.600 C 187.736 241.600,188.000 241.780,188.000 242.000 C 188.000 242.220,188.320 242.400,188.712 242.400 C 189.103 242.400,189.683 242.760,190.000 243.200 C 190.317 243.640,190.807 244.000,191.088 244.000 C 191.489 244.000,191.600 245.957,191.600 253.000 L 191.600 262.000 189.400 262.000 C 188.190 262.000,187.200 262.180,187.200 262.400 C 187.200 262.620,186.909 262.800,186.554 262.800 C 185.807 262.800,183.200 265.503,183.200 266.278 C 183.200 266.565,183.020 266.800,182.800 266.800 C 182.580 266.800,182.400 267.160,182.400 267.600 C 182.400 268.040,182.220 268.400,182.000 268.400 C 181.780 268.400,181.600 268.636,181.600 268.925 C 181.600 269.213,181.240 269.836,180.800 270.308 C 180.360 270.780,180.000 271.444,180.000 271.783 C 180.000 272.122,179.820 272.400,179.600 272.400 C 179.380 272.400,179.200 272.745,179.200 273.167 C 179.200 273.588,179.065 273.993,178.900 274.067 C 178.548 274.223,176.543 277.506,175.398 279.800 C 174.959 280.680,174.465 281.460,174.300 281.533 C 174.135 281.607,174.000 282.282,174.000 283.033 C 174.000 283.785,173.820 284.400,173.600 284.400 C 173.380 284.400,173.200 285.120,173.200 286.000 C 173.200 286.880,173.380 287.600,173.600 287.600 C 173.820 287.600,174.000 288.022,174.000 288.539 C 174.000 289.548,175.012 291.836,175.625 292.216 C 175.831 292.343,176.000 292.797,176.000 293.224 C 176.000 293.651,176.135 294.003,176.300 294.006 C 176.465 294.010,177.040 294.910,177.579 296.006 C 178.117 297.103,178.702 298.000,178.879 298.000 C 179.055 298.000,179.200 298.345,179.200 298.767 C 179.200 299.188,179.335 299.593,179.500 299.667 C 179.876 299.834,181.175 301.964,181.471 302.900 C 181.593 303.285,181.852 303.600,182.047 303.600 C 182.241 303.600,182.400 303.960,182.400 304.400 C 182.400 304.840,182.580 305.200,182.800 305.200 C 183.020 305.200,183.200 305.385,183.200 305.611 C 183.200 306.348,185.710 308.800,186.464 308.800 C 186.869 308.800,187.200 308.980,187.200 309.200 C 187.200 309.420,188.190 309.600,189.400 309.600 L 191.600 309.600 191.600 319.136 L 191.600 328.672 175.000 345.369 C 160.740 359.711,158.400 362.230,158.400 363.233 C 158.400 363.875,158.220 364.400,158.000 364.400 C 157.778 364.400,157.600 365.467,157.600 366.800 C 157.600 368.120,157.758 369.200,157.950 369.200 C 158.143 369.200,158.400 369.700,158.522 370.311 C 159.263 374.015,164.415 376.135,169.348 374.766 C 170.598 374.419,172.872 372.373,181.148 364.149 L 191.400 353.962 191.619 375.081 C 191.740 386.697,191.875 396.250,191.919 396.311 C 191.964 396.371,192.805 397.226,193.789 398.211 L 195.579 400.000 200.000 400.000 L 204.421 400.000 206.211 398.211 C 207.195 397.226,208.041 396.371,208.091 396.311 C 208.141 396.250,208.276 386.698,208.391 375.084 L 208.600 353.967 218.876 364.158 C 229.903 375.093,230.041 375.193,234.140 375.198 C 237.550 375.202,240.974 373.013,241.440 370.530 C 241.577 369.798,241.849 369.200,242.045 369.200 C 242.240 369.200,242.400 368.120,242.400 366.800 C 242.400 365.467,242.222 364.400,242.000 364.400 C 241.780 364.400,241.600 363.838,241.600 363.151 C 241.600 362.041,239.765 360.062,225.001 345.251 L 208.402 328.600 208.401 319.100 L 208.400 309.600 210.600 309.600 C 211.810 309.600,212.800 309.443,212.800 309.250 C 212.800 309.058,213.303 308.799,213.918 308.676 C 214.560 308.548,215.270 308.016,215.586 307.426 C 215.888 306.862,216.285 306.400,216.468 306.400 C 216.650 306.400,216.800 306.130,216.800 305.800 C 216.800 305.470,216.980 305.200,217.200 305.200 C 217.420 305.200,217.600 304.855,217.600 304.433 C 217.600 304.012,217.735 303.607,217.900 303.533 C 218.276 303.366,219.575 301.236,219.871 300.300 C 219.993 299.915,220.252 299.600,220.447 299.600 C 220.641 299.600,220.800 299.240,220.800 298.800 C 220.800 298.360,220.945 298.000,221.121 298.000 C 221.298 298.000,221.883 297.103,222.421 296.006 C 222.960 294.910,223.535 294.010,223.700 294.006 C 223.865 294.003,224.000 293.640,224.000 293.200 C 224.000 292.760,224.145 292.400,224.323 292.400 C 224.767 292.400,226.000 289.524,226.000 288.489 C 226.000 288.026,226.180 287.536,226.400 287.400 C 226.620 287.264,226.800 286.634,226.800 286.000 C 226.800 285.366,226.620 284.736,226.400 284.600 C 226.180 284.464,226.000 283.748,226.000 283.010 C 226.000 282.271,225.865 281.607,225.700 281.533 C 225.535 281.460,224.860 280.320,224.200 279.000 C 223.540 277.680,222.787 276.374,222.526 276.098 C 222.266 275.821,221.938 275.236,221.799 274.798 C 221.660 274.359,221.378 274.000,221.173 274.000 C 220.968 274.000,220.800 273.640,220.800 273.200 C 220.800 272.760,220.620 272.400,220.400 272.400 C 220.180 272.400,220.000 272.122,220.000 271.783 C 220.000 271.444,219.640 270.780,219.200 270.308 C 218.760 269.836,218.400 269.213,218.400 268.925 C 218.400 268.636,218.220 268.400,218.000 268.400 C 217.780 268.400,217.600 268.040,217.600 267.600 C 217.600 267.160,217.420 266.800,217.200 266.800 C 216.980 266.800,216.800 266.565,216.800 266.278 C 216.800 265.503,214.193 262.800,213.446 262.800 C 213.091 262.800,212.800 262.620,212.800 262.400 C 212.800 262.180,211.810 262.000,210.600 262.000 L 208.400 262.000 208.400 253.000 C 208.400 247.026,208.540 244.000,208.817 244.000 C 209.046 244.000,209.620 243.640,210.092 243.200 C 210.564 242.760,211.187 242.400,211.475 242.400 C 211.764 242.400,212.000 242.220,212.000 242.000 C 212.000 241.780,212.264 241.600,212.586 241.600 C 213.399 241.600,216.000 240.324,216.000 239.926 C 216.000 239.747,216.360 239.600,216.800 239.600 C 217.240 239.600,217.600 239.441,217.600 239.247 C 217.600 239.052,217.915 238.793,218.300 238.671 C 219.047 238.434,221.267 237.154,221.600 236.768 C 221.710 236.640,222.385 236.281,223.100 235.970 C 223.815 235.659,224.400 235.290,224.400 235.151 C 224.400 235.011,224.940 234.673,225.600 234.400 C 226.260 234.127,226.800 233.745,226.800 233.551 C 226.800 233.358,227.160 233.200,227.600 233.200 C 228.040 233.200,228.400 233.020,228.400 232.800 C 228.400 232.580,228.720 232.400,229.112 232.400 C 229.503 232.400,230.083 232.040,230.400 231.600 C 230.717 231.160,231.297 230.800,231.688 230.800 C 232.080 230.800,232.400 230.620,232.400 230.400 C 232.400 229.673,235.018 229.971,235.908 230.800 C 236.380 231.240,237.044 231.600,237.383 231.600 C 237.722 231.600,238.000 231.780,238.000 232.000 C 238.000 232.220,238.278 232.400,238.617 232.400 C 238.956 232.400,239.620 232.760,240.092 233.200 C 240.564 233.640,241.187 234.000,241.475 234.000 C 241.764 234.000,242.000 234.136,242.000 234.302 C 242.000 234.469,242.585 234.859,243.300 235.170 C 244.015 235.481,244.690 235.840,244.800 235.968 C 245.133 236.354,247.353 237.634,248.100 237.871 C 248.833 238.104,249.093 239.600,248.400 239.600 C 248.165 239.600,248.000 241.000,248.000 243.000 C 248.000 245.000,248.165 246.400,248.400 246.400 C 248.620 246.400,248.800 246.760,248.800 247.200 C 248.800 247.640,248.980 248.000,249.200 248.000 C 249.420 248.000,249.600 248.360,249.600 248.800 C 249.600 249.240,249.780 249.600,250.000 249.600 C 250.220 249.600,250.400 249.836,250.400 250.125 C 250.400 250.413,250.760 251.036,251.200 251.508 C 251.640 251.980,252.000 252.644,252.000 252.983 C 252.000 253.322,252.180 253.600,252.400 253.600 C 252.620 253.600,252.800 253.960,252.800 254.400 C 252.800 254.840,252.980 255.200,253.200 255.200 C 253.420 255.200,253.600 255.470,253.600 255.800 C 253.600 256.130,253.780 256.400,254.000 256.400 C 254.220 256.400,254.400 256.670,254.400 257.000 C 254.400 257.330,254.580 257.600,254.800 257.600 C 255.020 257.600,255.200 257.870,255.200 258.200 C 255.200 258.530,255.380 258.800,255.600 258.800 C 255.820 258.800,256.000 259.160,256.000 259.600 C 256.000 260.040,256.180 260.400,256.400 260.400 C 256.620 260.400,256.800 260.636,256.800 260.925 C 256.800 261.213,257.160 261.836,257.600 262.308 C 258.040 262.780,258.400 263.362,258.400 263.601 C 258.400 264.118,259.888 265.596,261.117 266.300 C 262.225 266.935,287.200 267.031,287.200 266.400 C 287.200 266.180,287.491 266.000,287.846 266.000 C 288.202 266.000,289.210 265.235,290.088 264.300 C 291.084 263.238,291.755 262.788,291.875 263.100 C 291.980 263.375,292.322 263.600,292.633 263.600 C 292.945 263.600,293.200 263.780,293.200 264.000 C 293.200 264.220,293.560 264.400,294.000 264.400 C 294.440 264.400,294.800 264.580,294.800 264.800 C 294.800 265.020,295.070 265.200,295.400 265.200 C 295.730 265.200,296.000 265.380,296.000 265.600 C 296.000 265.820,296.270 266.000,296.600 266.000 C 296.930 266.000,297.200 266.180,297.200 266.400 C 297.200 266.620,297.560 266.800,298.000 266.800 C 298.440 266.800,298.800 266.980,298.800 267.200 C 298.800 267.420,299.078 267.600,299.417 267.600 C 299.756 267.600,300.420 267.960,300.892 268.400 C 301.364 268.840,301.987 269.200,302.275 269.200 C 302.564 269.200,302.800 269.380,302.800 269.600 C 302.800 269.820,303.160 270.000,303.600 270.000 C 304.040 270.000,304.400 270.180,304.400 270.400 C 304.400 270.620,304.688 270.800,305.040 270.800 C 306.439 270.800,308.259 273.284,308.556 275.600 C 308.844 277.849,309.423 280.055,310.049 281.295 C 310.242 281.677,310.400 282.521,310.400 283.171 C 310.400 283.821,310.580 284.464,310.800 284.600 C 311.020 284.736,311.200 285.456,311.200 286.200 C 311.200 286.944,311.380 287.664,311.600 287.800 C 311.820 287.936,312.000 288.566,312.000 289.200 C 312.000 289.834,312.180 290.464,312.400 290.600 C 312.620 290.736,312.800 291.377,312.800 292.024 C 312.800 292.671,312.980 293.200,313.200 293.200 C 313.420 293.200,313.600 293.920,313.600 294.800 C 313.600 295.680,313.780 296.400,314.000 296.400 C 314.220 296.400,314.400 297.019,314.400 297.776 C 314.400 298.533,314.580 299.264,314.800 299.400 C 315.020 299.536,315.200 300.166,315.200 300.800 C 315.200 301.434,315.380 302.064,315.600 302.200 C 315.820 302.336,316.000 303.067,316.000 303.824 C 316.000 304.581,316.180 305.200,316.400 305.200 C 316.620 305.200,316.800 305.830,316.800 306.600 C 316.800 307.370,316.980 308.000,317.200 308.000 C 317.420 308.000,317.600 308.720,317.600 309.600 C 317.600 310.480,317.780 311.200,318.000 311.200 C 318.220 311.200,318.400 311.729,318.400 312.376 C 318.400 313.023,318.580 313.664,318.800 313.800 C 319.020 313.936,319.200 314.543,319.200 315.148 C 319.200 315.754,319.560 316.636,320.000 317.108 C 320.440 317.580,320.800 318.144,320.800 318.361 C 320.800 318.577,321.340 319.074,322.000 319.464 C 322.660 319.854,323.200 320.314,323.200 320.486 C 323.200 320.659,323.729 320.800,324.376 320.800 C 325.023 320.800,325.664 320.980,325.800 321.200 C 325.936 321.420,326.656 321.600,327.400 321.600 C 328.144 321.600,328.864 321.420,329.000 321.200 C 329.136 320.980,329.777 320.800,330.424 320.800 C 331.071 320.800,331.600 320.620,331.600 320.400 C 331.600 320.180,331.861 320.000,332.180 320.000 C 332.498 320.000,333.263 319.325,333.880 318.500 C 334.496 317.675,335.135 316.940,335.300 316.867 C 335.465 316.793,335.600 316.039,335.600 315.190 C 335.600 314.342,335.780 313.536,336.000 313.400 C 336.220 313.264,336.400 312.803,336.400 312.376 C 336.400 311.949,336.220 311.600,336.000 311.600 C 335.780 311.600,335.600 310.891,335.600 310.024 C 335.600 309.157,335.420 308.336,335.200 308.200 C 334.980 308.064,334.800 307.333,334.800 306.576 C 334.800 305.819,334.620 305.200,334.400 305.200 C 334.180 305.200,334.000 304.480,334.000 303.600 C 334.000 302.720,333.820 302.000,333.600 302.000 C 333.380 302.000,333.200 301.381,333.200 300.624 C 333.200 299.867,333.020 299.136,332.800 299.000 C 332.580 298.864,332.400 298.223,332.400 297.576 C 332.400 296.929,332.220 296.400,332.000 296.400 C 331.780 296.400,331.600 295.781,331.600 295.024 C 331.600 294.267,331.420 293.536,331.200 293.400 C 330.980 293.264,330.800 292.533,330.800 291.776 C 330.800 291.019,330.620 290.400,330.400 290.400 C 330.180 290.400,330.000 289.781,330.000 289.024 C 330.000 288.267,329.820 287.536,329.600 287.400 C 329.099 287.090,329.069 284.800,329.567 284.800 C 329.768 284.800,329.993 284.935,330.067 285.100 C 330.234 285.476,332.364 286.775,333.300 287.071 C 333.685 287.193,334.000 287.452,334.000 287.647 C 334.000 287.841,334.360 288.000,334.800 288.000 C 335.240 288.000,335.600 288.145,335.600 288.321 C 335.600 288.498,336.497 289.083,337.594 289.621 C 338.690 290.160,339.590 290.735,339.594 290.900 C 339.597 291.065,339.947 291.200,340.371 291.200 C 340.796 291.200,341.413 291.470,341.743 291.800 C 342.073 292.130,342.536 292.400,342.771 292.400 C 343.007 292.400,343.200 292.580,343.200 292.800 C 343.200 293.020,343.560 293.200,344.000 293.200 C 344.440 293.200,344.800 293.380,344.800 293.600 C 344.800 293.820,345.036 294.000,345.325 294.000 C 345.613 294.000,346.236 294.360,346.708 294.800 C 347.180 295.240,347.844 295.600,348.183 295.600 C 348.522 295.600,348.800 295.780,348.800 296.000 C 348.800 296.220,349.078 296.400,349.417 296.400 C 349.756 296.400,350.420 296.760,350.892 297.200 C 351.364 297.640,351.987 298.000,352.275 298.000 C 352.564 298.000,352.800 298.180,352.800 298.400 C 352.800 298.620,353.160 298.800,353.600 298.800 C 354.040 298.800,354.400 298.980,354.400 299.200 C 354.400 299.420,354.678 299.600,355.017 299.600 C 355.356 299.600,356.020 299.960,356.492 300.400 C 356.964 300.840,357.587 301.200,357.875 301.200 C 358.164 301.200,358.400 301.336,358.400 301.502 C 358.400 301.669,358.985 302.059,359.700 302.370 C 360.415 302.681,361.090 303.040,361.200 303.168 C 361.948 304.035,363.587 304.400,366.739 304.400 L 370.289 304.400 372.091 302.700 C 376.036 298.978,376.063 293.567,372.156 289.700 C 371.211 288.765,370.159 288.000,369.819 288.000 C 369.479 288.000,369.200 287.820,369.200 287.600 C 369.200 287.380,368.880 287.200,368.488 287.200 C 368.097 287.200,367.517 286.840,367.200 286.400 C 366.883 285.960,366.303 285.600,365.912 285.600 C 365.520 285.600,365.200 285.420,365.200 285.200 C 365.200 284.980,364.840 284.800,364.400 284.800 C 363.960 284.800,363.600 284.620,363.600 284.400 C 363.600 284.180,363.280 284.000,362.888 284.000 C 362.497 284.000,361.917 283.640,361.600 283.200 C 361.283 282.760,360.703 282.400,360.312 282.400 C 359.920 282.400,359.600 282.220,359.600 282.000 C 359.600 281.780,359.407 281.600,359.172 281.600 C 358.937 281.600,357.992 281.099,357.072 280.488 C 356.152 279.876,354.860 279.111,354.200 278.788 C 353.540 278.465,352.910 278.104,352.800 277.986 C 352.690 277.868,351.250 277.073,349.600 276.219 C 347.950 275.366,346.540 274.518,346.467 274.334 C 346.393 274.150,345.988 274.000,345.567 274.000 C 345.145 274.000,344.800 273.820,344.800 273.600 C 344.800 273.380,344.440 273.200,344.000 273.200 C 343.560 273.200,343.200 273.020,343.200 272.800 C 343.200 272.580,342.964 272.400,342.675 272.400 C 342.387 272.400,341.764 272.040,341.292 271.600 C 340.820 271.160,340.246 270.800,340.017 270.800 C 339.788 270.800,339.600 270.620,339.600 270.400 C 339.600 270.180,339.240 270.000,338.800 270.000 C 338.360 270.000,338.000 269.820,338.000 269.600 C 338.000 269.380,338.450 269.200,339.000 269.200 C 339.550 269.200,340.000 269.020,340.000 268.800 C 340.000 268.580,340.529 268.400,341.176 268.400 C 341.823 268.400,342.464 268.220,342.600 268.000 C 342.736 267.780,343.467 267.600,344.224 267.600 C 344.981 267.600,345.600 267.420,345.600 267.200 C 345.600 266.980,346.320 266.800,347.200 266.800 C 348.080 266.800,348.800 266.620,348.800 266.400 C 348.800 266.180,349.430 266.000,350.200 266.000 C 350.970 266.000,351.600 265.820,351.600 265.600 C 351.600 265.380,352.230 265.200,353.000 265.200 C 353.770 265.200,354.400 265.020,354.400 264.800 C 354.400 264.580,355.019 264.400,355.776 264.400 C 356.533 264.400,357.264 264.220,357.400 264.000 C 357.536 263.780,358.267 263.600,359.024 263.600 C 359.781 263.600,360.400 263.420,360.400 263.200 C 360.400 262.980,361.019 262.800,361.776 262.800 C 362.533 262.800,363.264 262.620,363.400 262.400 C 363.536 262.180,363.997 262.000,364.424 262.000 C 364.851 262.000,365.200 261.820,365.200 261.600 C 365.200 261.380,365.491 261.200,365.846 261.200 C 366.782 261.200,369.200 258.404,369.200 257.322 C 369.200 256.815,369.380 256.400,369.600 256.400 C 369.822 256.400,370.000 255.341,370.000 254.024 C 370.000 252.717,369.820 251.536,369.600 251.400 C 369.380 251.264,369.200 250.803,369.200 250.376 C 369.200 249.949,369.063 249.600,368.895 249.600 C 368.727 249.600,368.412 249.210,368.195 248.733 C 367.978 248.256,367.450 247.671,367.022 247.433 C 366.594 247.195,365.885 246.685,365.446 246.300 C 364.545 245.508,357.600 245.243,357.600 246.000 C 357.600 246.220,356.880 246.400,356.000 246.400 C 355.120 246.400,354.400 246.580,354.400 246.800 C 354.400 247.020,353.680 247.200,352.800 247.200 C 351.920 247.200,351.200 247.380,351.200 247.600 C 351.200 247.820,350.671 248.000,350.024 248.000 C 349.377 248.000,348.736 248.180,348.600 248.400 C 348.464 248.620,347.733 248.800,346.976 248.800 C 346.219 248.800,345.600 248.980,345.600 249.200 C 345.600 249.420,344.970 249.600,344.200 249.600 C 343.430 249.600,342.800 249.780,342.800 250.000 C 342.800 250.220,342.080 250.400,341.200 250.400 C 340.320 250.400,339.600 250.560,339.600 250.756 C 339.600 250.952,338.925 251.227,338.100 251.368 C 334.449 251.990,334.000 252.107,334.000 252.444 C 334.000 252.640,333.280 252.800,332.400 252.800 C 331.520 252.800,330.800 252.980,330.800 253.200 C 330.800 253.420,330.170 253.600,329.400 253.600 C 328.630 253.600,328.000 253.780,328.000 254.000 C 328.000 254.220,327.370 254.400,326.600 254.400 C 325.830 254.400,325.200 254.580,325.200 254.800 C 325.200 255.020,324.570 255.200,323.800 255.200 C 323.030 255.200,322.400 255.380,322.400 255.600 C 322.400 255.820,321.680 256.000,320.800 256.000 C 319.920 256.000,319.200 256.180,319.200 256.400 C 319.200 256.620,318.300 256.800,317.200 256.800 C 316.100 256.800,315.200 256.620,315.200 256.400 C 315.200 256.180,314.840 256.000,314.400 256.000 C 313.960 256.000,313.600 255.820,313.600 255.600 C 313.600 255.380,313.280 255.200,312.888 255.200 C 312.497 255.200,311.917 254.840,311.600 254.400 C 311.283 253.960,310.703 253.600,310.312 253.600 C 309.920 253.600,309.600 253.454,309.600 253.275 C 309.600 253.096,308.970 252.702,308.200 252.400 C 307.430 252.098,306.800 251.704,306.800 251.525 C 306.800 251.346,306.530 251.200,306.200 251.200 C 305.870 251.200,305.600 251.020,305.600 250.800 C 305.600 250.580,305.330 250.400,305.000 250.400 C 304.670 250.400,304.400 250.220,304.400 250.000 C 304.400 249.780,304.055 249.600,303.633 249.600 C 303.212 249.600,302.807 249.465,302.733 249.300 C 302.660 249.135,302.060 248.695,301.400 248.322 C 300.230 247.661,299.882 246.019,300.838 245.667 C 301.337 245.483,301.300 240.400,300.800 240.400 C 300.580 240.400,300.400 240.040,300.400 239.600 C 300.400 239.160,300.220 238.800,300.000 238.800 C 299.780 238.800,299.600 238.440,299.600 238.000 C 299.600 237.560,299.420 237.200,299.200 237.200 C 298.980 237.200,298.800 236.840,298.800 236.400 C 298.800 235.960,298.620 235.600,298.400 235.600 C 298.180 235.600,298.000 235.364,298.000 235.075 C 298.000 234.787,297.640 234.164,297.200 233.692 C 296.760 233.220,296.400 232.556,296.400 232.217 C 296.400 231.878,296.220 231.600,296.000 231.600 C 295.780 231.600,295.600 231.322,295.600 230.983 C 295.600 230.644,295.240 229.980,294.800 229.508 C 294.360 229.036,294.000 228.413,294.000 228.125 C 294.000 227.836,293.864 227.600,293.698 227.600 C 293.531 227.600,293.137 227.015,292.822 226.300 C 292.507 225.585,292.013 224.762,291.725 224.471 C 291.436 224.181,291.200 223.680,291.200 223.358 C 291.200 222.584,288.594 220.000,287.813 220.000 C 287.476 220.000,287.200 219.820,287.200 219.600 C 287.200 219.342,282.600 219.200,274.200 219.200 C 265.800 219.200,261.200 219.342,261.200 219.600 C 261.200 219.820,261.012 220.000,260.782 220.000 C 260.140 220.000,258.400 221.886,258.400 222.582 C 258.400 222.933,258.055 223.200,257.600 223.200 C 257.160 223.200,256.800 223.020,256.800 222.800 C 256.800 222.580,256.530 222.400,256.200 222.400 C 255.870 222.400,255.600 222.220,255.600 222.000 C 255.600 221.780,255.330 221.600,255.000 221.600 C 254.670 221.600,254.400 221.420,254.400 221.200 C 254.400 220.980,254.040 220.800,253.600 220.800 C 253.160 220.800,252.800 220.620,252.800 220.400 C 252.800 220.180,252.480 220.000,252.088 220.000 C 251.697 220.000,251.117 219.640,250.800 219.200 C 250.483 218.760,249.903 218.400,249.512 218.400 C 249.120 218.400,248.800 218.220,248.800 218.000 C 248.800 217.780,248.440 217.600,248.000 217.600 C 247.560 217.600,247.200 217.420,247.200 217.200 C 247.200 216.980,246.964 216.800,246.675 216.800 C 246.387 216.800,245.764 216.440,245.292 216.000 C 244.820 215.560,244.233 215.200,243.988 215.200 C 242.475 215.200,242.400 214.481,242.400 200.000 C 242.400 185.519,242.475 184.800,243.988 184.800 C 244.233 184.800,244.820 184.440,245.292 184.000 C 245.764 183.560,246.387 183.200,246.675 183.200 C 246.964 183.200,247.200 183.020,247.200 182.800 C 247.200 182.580,247.560 182.400,248.000 182.400 C 248.440 182.400,248.800 182.220,248.800 182.000 C 248.800 181.780,249.120 181.600,249.512 181.600 C 249.903 181.600,250.483 181.240,250.800 180.800 C 251.117 180.360,251.697 180.000,252.088 180.000 C 252.480 180.000,252.800 179.820,252.800 179.600 C 252.800 179.380,253.160 179.200,253.600 179.200 C 254.040 179.200,254.400 179.020,254.400 178.800 C 254.400 178.580,254.670 178.400,255.000 178.400 C 255.330 178.400,255.600 178.220,255.600 178.000 C 255.600 177.780,255.870 177.600,256.200 177.600 C 256.530 177.600,256.800 177.420,256.800 177.200 C 256.800 176.980,257.160 176.800,257.600 176.800 C 258.055 176.800,258.400 177.067,258.400 177.418 C 258.400 178.114,260.140 180.000,260.782 180.000 C 261.012 180.000,261.200 180.180,261.200 180.400 C 261.200 180.658,265.800 180.800,274.200 180.800 C 282.600 180.800,287.200 180.658,287.200 180.400 C 287.200 180.180,287.476 180.000,287.813 180.000 C 288.594 180.000,291.200 177.416,291.200 176.642 C 291.200 176.320,291.436 175.819,291.725 175.529 C 292.013 175.238,292.507 174.415,292.822 173.700 C 293.137 172.985,293.531 172.400,293.698 172.400 C 293.864 172.400,294.000 172.164,294.000 171.875 C 294.000 171.587,294.360 170.964,294.800 170.492 C 295.240 170.020,295.600 169.356,295.600 169.017 C 295.600 168.678,295.780 168.400,296.000 168.400 C 296.220 168.400,296.400 168.122,296.400 167.783 C 296.400 167.444,296.760 166.780,297.200 166.308 C 297.640 165.836,298.000 165.213,298.000 164.925 C 298.000 164.636,298.180 164.400,298.400 164.400 C 298.620 164.400,298.800 164.040,298.800 163.600 C 298.800 163.160,298.980 162.800,299.200 162.800 C 299.420 162.800,299.600 162.440,299.600 162.000 C 299.600 161.560,299.780 161.200,300.000 161.200 C 300.220 161.200,300.400 160.840,300.400 160.400 C 300.400 159.960,300.580 159.600,300.800 159.600 C 301.026 159.600,301.200 158.467,301.200 157.000 C 301.200 155.570,301.041 154.400,300.847 154.400 C 300.652 154.400,300.410 153.966,300.309 153.436 C 300.112 152.406,301.134 151.200,302.205 151.200 C 302.532 151.200,302.800 151.020,302.800 150.800 C 302.800 150.580,303.120 150.400,303.512 150.400 C 303.903 150.400,304.483 150.040,304.800 149.600 C 305.117 149.160,305.530 148.800,305.717 148.800 C 306.153 148.800,306.808 148.108,307.799 146.600 C 308.725 145.193,308.932 138.984,308.088 137.971 C 307.826 137.657,307.143 136.815,306.570 136.100 C 305.998 135.385,305.275 134.800,304.964 134.800 C 304.654 134.800,304.400 134.620,304.400 134.400 C 304.400 134.180,303.716 134.000,302.880 134.000 C 302.044 134.000,301.144 133.784,300.880 133.520 C 300.507 133.147,300.293 133.147,299.920 133.520 C 299.656 133.784,298.756 134.000,297.920 134.000 C 297.084 134.000,296.400 134.180,296.400 134.400 C 296.400 134.620,296.040 134.800,295.600 134.800 C 295.160 134.800,294.800 134.980,294.800 135.200 C 294.800 135.420,294.440 135.600,294.000 135.600 C 293.560 135.600,293.200 135.780,293.200 136.000 C 293.200 136.220,292.945 136.400,292.633 136.400 C 292.322 136.400,291.980 136.625,291.875 136.900 C 291.755 137.212,291.084 136.762,290.088 135.700 C 289.210 134.765,288.202 134.000,287.846 134.000 C 287.491 134.000,287.200 133.820,287.200 133.600 C 287.200 132.969,262.225 133.065,261.117 133.700 C 259.888 134.404,258.400 135.882,258.400 136.399 C 258.400 136.638,258.040 137.220,257.600 137.692 C 257.160 138.164,256.800 138.787,256.800 139.075 C 256.800 139.364,256.620 139.600,256.400 139.600 C 256.180 139.600,256.000 139.960,256.000 140.400 C 256.000 140.840,255.820 141.200,255.600 141.200 C 255.380 141.200,255.200 141.470,255.200 141.800 C 255.200 142.130,255.020 142.400,254.800 142.400 C 254.580 142.400,254.400 142.670,254.400 143.000 C 254.400 143.330,254.220 143.600,254.000 143.600 C 253.780 143.600,253.600 143.870,253.600 144.200 C 253.600 144.530,253.420 144.800,253.200 144.800 C 252.980 144.800,252.800 145.160,252.800 145.600 C 252.800 146.040,252.620 146.400,252.400 146.400 C 252.180 146.400,252.000 146.678,252.000 147.017 C 252.000 147.356,251.640 148.020,251.200 148.492 C 250.760 148.964,250.400 149.587,250.400 149.875 C 250.400 150.164,250.220 150.400,250.000 150.400 C 249.780 150.400,249.600 150.760,249.600 151.200 C 249.600 151.640,249.420 152.000,249.200 152.000 C 248.980 152.000,248.800 152.360,248.800 152.800 C 248.800 153.240,248.620 153.600,248.400 153.600 C 248.165 153.600,248.000 155.000,248.000 157.000 C 248.000 159.000,248.165 160.400,248.400 160.400 C 249.093 160.400,248.833 161.896,248.100 162.129 C 247.353 162.366,245.133 163.646,244.800 164.032 C 244.690 164.160,244.015 164.519,243.300 164.830 C 242.585 165.141,242.000 165.531,242.000 165.698 C 242.000 165.864,241.764 166.000,241.475 166.000 C 241.187 166.000,240.564 166.360,240.092 166.800 C 239.620 167.240,238.956 167.600,238.617 167.600 C 238.278 167.600,238.000 167.780,238.000 168.000 C 238.000 168.220,237.722 168.400,237.383 168.400 C 237.044 168.400,236.380 168.760,235.908 169.200 C 235.018 170.029,232.400 170.327,232.400 169.600 C 232.400 169.380,232.080 169.200,231.688 169.200 C 231.297 169.200,230.717 168.840,230.400 168.400 C 230.083 167.960,229.503 167.600,229.112 167.600 C 228.720 167.600,228.400 167.420,228.400 167.200 C 228.400 166.980,228.040 166.800,227.600 166.800 C 227.160 166.800,226.800 166.642,226.800 166.449 C 226.800 166.255,226.260 165.873,225.600 165.600 C 224.940 165.327,224.400 164.989,224.400 164.849 C 224.400 164.710,223.815 164.341,223.100 164.030 C 222.385 163.719,221.710 163.360,221.600 163.232 C 221.267 162.846,219.047 161.566,218.300 161.329 C 217.915 161.207,217.600 160.948,217.600 160.753 C 217.600 160.559,217.240 160.400,216.800 160.400 C 216.360 160.400,216.000 160.253,216.000 160.074 C 216.000 159.676,213.399 158.400,212.586 158.400 C 212.264 158.400,212.000 158.220,212.000 158.000 C 212.000 157.780,211.764 157.600,211.475 157.600 C 211.187 157.600,210.564 157.240,210.092 156.800 C 209.620 156.360,209.046 156.000,208.817 156.000 C 208.540 156.000,208.400 152.974,208.400 147.000 L 208.400 138.000 210.600 138.000 C 211.810 138.000,212.800 137.820,212.800 137.600 C 212.800 137.380,213.091 137.200,213.446 137.200 C 214.193 137.200,216.800 134.497,216.800 133.722 C 216.800 133.435,216.980 133.200,217.200 133.200 C 217.420 133.200,217.600 132.840,217.600 132.400 C 217.600 131.960,217.780 131.600,218.000 131.600 C 218.220 131.600,218.400 131.364,218.400 131.075 C 218.400 130.787,218.760 130.164,219.200 129.692 C 219.640 129.220,220.000 128.556,220.000 128.217 C 220.000 127.878,220.180 127.600,220.400 127.600 C 220.620 127.600,220.800 127.240,220.800 126.800 C 220.800 126.360,220.950 126.000,221.132 126.000 C 221.315 126.000,221.720 125.505,222.032 124.900 C 222.344 124.295,222.690 123.710,222.802 123.600 C 222.913 123.490,223.543 122.320,224.202 121.000 C 224.861 119.680,225.535 118.540,225.700 118.467 C 225.865 118.393,226.000 117.729,226.000 116.990 C 226.000 116.252,226.180 115.536,226.400 115.400 C 226.620 115.264,226.800 114.634,226.800 114.000 C 226.800 113.366,226.620 112.736,226.400 112.600 C 226.180 112.464,226.000 111.974,226.000 111.511 C 226.000 110.476,224.767 107.600,224.323 107.600 C 224.145 107.600,224.000 107.240,224.000 106.800 C 224.000 106.360,223.865 105.997,223.700 105.994 C 223.535 105.990,222.960 105.090,222.421 103.994 C 221.883 102.897,221.298 102.000,221.121 102.000 C 220.945 102.000,220.800 101.655,220.800 101.233 C 220.800 100.812,220.665 100.407,220.500 100.333 C 220.124 100.166,218.825 98.036,218.529 97.100 C 218.407 96.715,218.148 96.400,217.953 96.400 C 217.759 96.400,217.600 96.040,217.600 95.600 C 217.600 95.160,217.420 94.800,217.200 94.800 C 216.980 94.800,216.800 94.602,216.800 94.360 C 216.800 93.682,214.161 91.200,213.440 91.200 C 213.088 91.200,212.800 91.020,212.800 90.800 C 212.800 90.580,211.810 90.400,210.600 90.400 L 208.400 90.400 208.401 80.900 L 208.402 71.400 225.001 54.734 C 239.677 39.998,241.600 37.925,241.600 36.834 C 241.600 36.155,241.780 35.600,242.000 35.600 C 242.222 35.600,242.400 34.533,242.400 33.200 C 242.400 31.880,242.240 30.800,242.045 30.800 C 241.849 30.800,241.577 30.202,241.440 29.470 C 240.977 27.004,237.554 24.800,234.186 24.800 C 230.087 24.800,229.784 25.019,218.807 35.910 L 208.600 46.038 208.391 24.919 C 208.276 13.304,208.141 3.750,208.091 3.689 C 208.041 3.629,207.195 2.774,206.211 1.789 L 204.421 -0.000 200.000 -0.000 L 195.579 0.000 193.789 1.789 M325.824 78.762 C 325.675 79.003,325.105 79.200,324.558 79.200 C 324.011 79.200,323.114 79.650,322.564 80.200 C 322.014 80.750,321.392 81.200,321.182 81.200 C 320.972 81.200,320.800 81.388,320.800 81.617 C 320.800 81.846,320.440 82.420,320.000 82.892 C 319.560 83.364,319.200 84.246,319.200 84.852 C 319.200 85.457,319.020 86.064,318.800 86.200 C 318.580 86.336,318.400 86.977,318.400 87.624 C 318.400 88.271,318.220 88.800,318.000 88.800 C 317.780 88.800,317.600 89.520,317.600 90.400 C 317.600 91.280,317.420 92.000,317.200 92.000 C 316.965 92.000,316.800 93.400,316.800 95.400 C 316.800 97.400,316.965 98.800,317.200 98.800 C 317.420 98.800,317.600 99.090,317.600 99.444 C 317.600 100.497,321.021 103.600,322.181 103.600 C 322.741 103.600,323.200 103.780,323.200 104.000 C 323.200 104.494,326.554 104.531,327.505 104.047 C 327.887 103.852,328.740 103.447,329.400 103.147 C 331.299 102.282,333.200 100.010,333.200 98.605 C 333.200 98.272,333.380 98.000,333.600 98.000 C 333.820 98.000,334.000 97.280,334.000 96.400 C 334.000 95.520,334.180 94.800,334.400 94.800 C 334.620 94.800,334.800 94.181,334.800 93.424 C 334.800 92.667,334.980 91.936,335.200 91.800 C 335.420 91.664,335.600 90.843,335.600 89.976 C 335.600 89.109,335.780 88.400,336.000 88.400 C 336.220 88.400,336.400 88.051,336.400 87.624 C 336.400 87.197,336.220 86.736,336.000 86.600 C 335.780 86.464,335.600 85.658,335.600 84.810 C 335.600 83.961,335.465 83.207,335.300 83.133 C 335.135 83.060,334.496 82.325,333.880 81.500 C 333.263 80.675,332.498 80.000,332.180 80.000 C 331.861 80.000,331.600 79.840,331.600 79.644 C 331.600 79.448,330.970 79.178,330.200 79.044 C 329.430 78.910,328.191 78.693,327.447 78.562 C 326.644 78.420,325.984 78.502,325.824 78.762 M362.200 96.124 C 361.760 96.386,361.310 96.704,361.200 96.832 C 361.090 96.960,360.415 97.319,359.700 97.630 C 358.985 97.941,358.400 98.331,358.400 98.498 C 358.400 98.664,358.164 98.800,357.875 98.800 C 357.587 98.800,356.964 99.160,356.492 99.600 C 356.020 100.040,355.356 100.400,355.017 100.400 C 354.678 100.400,354.400 100.580,354.400 100.800 C 354.400 101.020,354.040 101.200,353.600 101.200 C 353.160 101.200,352.800 101.380,352.800 101.600 C 352.800 101.820,352.564 102.000,352.275 102.000 C 351.987 102.000,351.364 102.360,350.892 102.800 C 350.420 103.240,349.828 103.600,349.577 103.600 C 348.815 103.600,346.768 106.061,346.527 107.267 C 346.402 107.890,346.143 108.400,345.950 108.400 C 345.757 108.400,345.600 109.570,345.600 111.000 C 345.600 112.467,345.774 113.600,346.000 113.600 C 346.220 113.600,346.400 113.960,346.400 114.400 C 346.400 114.840,346.580 115.200,346.800 115.200 C 347.020 115.200,347.200 115.494,347.200 115.853 C 347.200 116.584,349.125 118.399,349.900 118.400 C 350.175 118.400,350.400 118.580,350.400 118.800 C 350.400 119.385,357.224 119.301,358.517 118.700 C 359.109 118.425,359.595 118.065,359.597 117.900 C 359.599 117.735,359.920 117.600,360.312 117.600 C 360.703 117.600,361.283 117.240,361.600 116.800 C 361.917 116.360,362.497 116.000,362.888 116.000 C 363.280 116.000,363.600 115.820,363.600 115.600 C 363.600 115.380,363.960 115.200,364.400 115.200 C 364.840 115.200,365.200 115.020,365.200 114.800 C 365.200 114.580,365.436 114.400,365.725 114.400 C 366.013 114.400,366.636 114.040,367.108 113.600 C 367.580 113.160,368.244 112.800,368.583 112.800 C 368.922 112.800,369.200 112.620,369.200 112.400 C 369.200 112.180,369.479 112.000,369.819 112.000 C 370.159 112.000,371.211 111.235,372.156 110.300 C 376.063 106.433,376.036 101.022,372.091 97.300 L 370.289 95.600 366.644 95.624 C 364.583 95.637,362.653 95.854,362.200 96.124 M205.093 106.500 C 205.472 106.984,207.511 110.613,208.711 112.942 C 209.337 114.154,209.240 114.451,206.855 118.664 C 204.833 122.234,205.312 122.000,200.040 122.000 C 194.854 122.000,195.116 122.113,193.561 119.200 C 193.032 118.210,192.510 117.310,192.400 117.200 C 191.068 115.868,190.594 113.180,191.554 112.400 C 191.689 112.290,192.237 111.390,192.771 110.400 C 194.389 107.399,194.585 107.060,195.000 106.536 C 195.560 105.828,204.542 105.796,205.093 106.500 M322.800 119.200 C 322.483 119.640,321.903 120.000,321.512 120.000 C 321.096 120.000,320.800 120.296,320.800 120.712 C 320.800 121.103,320.440 121.683,320.000 122.000 C 319.443 122.402,319.200 123.035,319.200 124.088 C 319.200 124.920,319.020 125.600,318.800 125.600 C 318.580 125.600,318.400 126.050,318.400 126.600 C 318.400 127.150,318.580 127.600,318.800 127.600 C 319.020 127.600,319.200 128.254,319.200 129.053 C 319.200 129.954,319.476 130.752,319.928 131.153 C 320.328 131.509,320.772 132.115,320.915 132.500 C 321.058 132.885,321.411 133.200,321.699 133.200 C 321.987 133.200,322.483 133.560,322.800 134.000 C 323.475 134.936,329.733 135.183,331.326 134.335 C 336.523 131.572,337.324 124.282,332.891 120.100 L 331.089 118.400 327.233 118.400 C 323.835 118.400,323.308 118.495,322.800 119.200 M349.000 136.124 C 347.012 137.308,344.800 140.103,344.800 141.432 C 344.800 142.158,344.627 142.860,344.415 142.991 C 344.169 143.143,344.169 143.592,344.415 144.240 C 344.627 144.797,344.800 145.746,344.800 146.351 C 344.800 146.955,345.124 147.798,345.520 148.225 C 345.916 148.651,346.361 149.315,346.508 149.700 C 346.655 150.085,346.968 150.400,347.204 150.400 C 347.440 150.400,348.020 150.760,348.492 151.200 C 348.964 151.640,349.767 152.000,350.275 152.000 C 350.784 152.000,351.200 152.180,351.200 152.400 C 351.200 152.620,351.920 152.800,352.800 152.800 C 353.680 152.800,354.400 152.980,354.400 153.200 C 354.400 153.420,355.120 153.600,356.000 153.600 C 356.880 153.600,357.600 153.780,357.600 154.000 C 357.600 155.007,365.093 154.329,366.000 153.240 C 366.110 153.108,366.560 152.805,367.000 152.567 C 367.440 152.329,367.978 151.744,368.195 151.267 C 368.412 150.790,368.727 150.400,368.895 150.400 C 369.063 150.400,369.200 150.051,369.200 149.624 C 369.200 149.197,369.380 148.736,369.600 148.600 C 370.091 148.297,370.138 143.600,369.650 143.600 C 369.457 143.600,369.198 143.090,369.073 142.467 C 368.806 141.129,366.752 138.800,365.840 138.800 C 365.488 138.800,365.200 138.620,365.200 138.400 C 365.200 138.180,364.851 138.000,364.424 138.000 C 363.997 138.000,363.536 137.820,363.400 137.600 C 363.264 137.380,362.533 137.200,361.776 137.200 C 361.019 137.200,360.400 137.020,360.400 136.800 C 360.400 136.580,359.781 136.400,359.024 136.400 C 358.267 136.400,357.536 136.220,357.400 136.000 C 357.052 135.436,349.980 135.540,349.000 136.124 M132.700 152.972 C 135.244 157.520,135.249 156.762,132.645 161.270 L 130.489 165.000 125.945 165.101 C 120.564 165.220,121.060 165.488,118.470 161.062 C 116.005 156.849,116.049 157.367,117.869 154.065 C 120.760 148.819,120.145 149.199,125.727 149.209 L 130.600 149.217 132.700 152.972 M281.200 152.304 C 283.989 157.101,283.983 157.013,281.829 160.654 C 280.806 162.384,279.822 164.070,279.642 164.400 C 279.384 164.872,278.284 165.024,274.501 165.112 L 269.687 165.224 267.398 161.127 L 265.109 157.029 266.425 154.615 C 267.149 153.287,268.162 151.525,268.676 150.700 L 269.610 149.200 274.505 149.204 L 279.400 149.208 281.200 152.304 M202.400 170.861 C 203.878 171.766,205.765 172.853,210.045 175.262 C 210.570 175.558,211.090 175.890,211.200 176.001 C 211.310 176.111,211.940 176.465,212.600 176.786 C 213.260 177.108,214.250 177.672,214.800 178.039 C 215.798 178.705,217.393 179.627,220.800 181.506 C 227.021 184.938,226.400 182.886,226.400 200.000 C 226.400 217.139,227.123 214.990,220.000 219.029 C 214.166 222.337,213.300 222.836,210.082 224.744 C 208.918 225.435,207.793 226.000,207.582 226.000 C 207.372 226.000,207.200 226.180,207.200 226.400 C 207.200 226.620,207.017 226.800,206.793 226.800 C 206.569 226.800,205.200 227.520,203.752 228.400 C 200.773 230.210,199.821 230.338,197.812 229.200 C 197.035 228.760,195.795 228.057,195.055 227.638 C 194.315 227.218,193.280 226.633,192.755 226.338 C 192.230 226.042,191.710 225.710,191.600 225.599 C 191.490 225.489,190.860 225.129,190.200 224.800 C 189.540 224.471,188.910 224.111,188.800 224.001 C 188.690 223.890,187.880 223.422,187.000 222.960 C 186.120 222.498,183.352 220.923,180.848 219.460 C 178.345 217.997,176.166 216.800,176.007 216.800 C 175.847 216.800,175.241 216.359,174.658 215.819 L 173.600 214.838 173.606 200.119 C 173.609 192.024,173.744 185.193,173.906 184.939 C 174.182 184.506,177.149 182.715,185.400 178.000 C 186.170 177.560,187.430 176.840,188.200 176.400 C 191.535 174.494,192.339 174.026,194.800 172.559 C 196.230 171.706,197.760 170.799,198.200 170.543 C 199.448 169.818,200.874 169.926,202.400 170.861 M130.218 235.106 C 130.602 235.376,131.331 236.528,133.217 239.845 C 133.606 240.530,134.166 241.476,134.460 241.948 C 135.038 242.873,134.611 243.944,131.807 248.600 C 130.202 251.266,130.389 251.188,125.600 251.188 C 120.552 251.188,120.984 251.442,118.453 246.979 C 115.962 242.586,115.961 243.226,118.470 238.938 C 121.038 234.550,120.585 234.812,125.600 234.812 C 127.910 234.812,129.988 234.944,130.218 235.106 M279.226 235.214 C 279.652 235.442,280.000 235.805,280.000 236.021 C 280.000 236.237,280.810 237.748,281.800 239.379 C 284.033 243.057,284.038 242.905,281.521 247.119 C 278.932 251.452,279.396 251.188,274.400 251.188 C 272.090 251.188,270.007 251.056,269.770 250.894 C 269.355 250.610,265.200 243.433,265.200 243.000 C 265.200 242.567,269.355 235.390,269.770 235.106 C 270.430 234.655,278.351 234.745,279.226 235.214 M205.487 279.100 C 205.895 279.705,206.492 280.740,206.814 281.400 C 207.135 282.060,207.491 282.690,207.603 282.800 C 209.255 284.415,209.264 287.712,207.621 289.200 C 207.499 289.310,206.968 290.210,206.439 291.200 C 204.887 294.107,205.129 294.000,200.122 294.000 C 195.340 294.000,195.156 293.940,194.062 292.030 C 193.767 291.513,193.152 290.440,192.697 289.645 C 190.453 285.728,190.446 286.254,192.797 282.200 C 193.308 281.320,193.923 280.240,194.165 279.800 C 194.406 279.360,194.749 278.775,194.926 278.500 C 195.672 277.339,204.644 277.849,205.487 279.100 " stroke="none" fill="#040404" fill-rule="evenodd"></path><path id="path2" d="M197.900 171.029 C 197.295 171.357,196.800 171.710,196.800 171.813 C 196.800 172.199,197.432 171.957,198.400 171.200 C 199.589 170.270,199.411 170.209,197.900 171.029 M201.020 170.762 C 201.533 171.252,204.353 172.802,204.712 172.792 C 205.077 172.783,201.301 170.400,200.921 170.400 C 200.767 170.400,200.811 170.563,201.020 170.762 M195.100 172.629 C 194.495 172.957,194.000 173.310,194.000 173.413 C 194.000 173.799,194.632 173.557,195.600 172.800 C 196.789 171.870,196.611 171.809,195.100 172.629 M205.200 172.965 C 205.200 173.135,208.026 174.875,212.063 177.190 C 212.648 177.526,215.936 179.420,219.371 181.400 L 225.615 185.000 225.508 200.262 C 225.448 208.656,225.535 215.440,225.700 215.338 C 225.865 215.236,226.000 208.332,226.000 199.996 L 226.000 184.838 223.500 183.362 C 222.125 182.550,220.010 181.341,218.800 180.676 C 217.590 180.011,215.457 178.777,214.059 177.934 C 212.662 177.090,211.429 176.400,211.321 176.400 C 211.212 176.400,210.646 176.072,210.062 175.672 C 208.372 174.513,205.200 172.747,205.200 172.965 M192.200 174.333 C 188.120 176.668,185.200 178.462,185.200 178.635 C 185.200 178.853,188.372 177.087,190.062 175.928 C 190.646 175.528,191.276 175.196,191.462 175.191 C 191.648 175.186,192.250 174.830,192.800 174.400 C 194.023 173.444,193.798 173.418,192.200 174.333 M182.125 180.131 C 179.385 181.806,178.852 182.453,181.400 181.009 C 183.957 179.560,185.082 178.792,184.589 178.831 C 184.375 178.847,183.266 179.432,182.125 180.131 M177.600 182.833 L 176.600 183.648 177.900 183.014 C 178.615 182.665,179.200 182.294,179.200 182.190 C 179.200 181.792,178.563 182.048,177.600 182.833 M174.900 184.270 L 174.000 184.898 174.000 200.025 C 174.000 208.345,174.135 215.236,174.300 215.338 C 174.465 215.440,174.551 208.611,174.491 200.162 C 174.431 191.713,174.531 184.800,174.714 184.800 C 174.897 184.800,175.396 184.536,175.824 184.213 C 176.867 183.424,176.040 183.475,174.900 184.270 M175.200 215.790 C 175.200 215.894,175.785 216.265,176.500 216.614 L 177.800 217.248 176.800 216.433 C 175.837 215.648,175.200 215.392,175.200 215.790 M178.000 217.390 C 178.000 217.494,178.585 217.865,179.300 218.214 L 180.600 218.848 179.600 218.033 C 178.637 217.248,178.000 216.992,178.000 217.390 M220.700 217.829 C 220.095 218.157,219.600 218.510,219.600 218.613 C 219.600 218.999,220.232 218.757,221.200 218.000 C 222.389 217.070,222.211 217.009,220.700 217.829 M180.800 218.979 C 180.800 219.089,181.340 219.459,182.000 219.800 C 182.660 220.141,183.200 220.331,183.200 220.221 C 183.200 220.111,182.660 219.741,182.000 219.400 C 181.340 219.059,180.800 218.869,180.800 218.979 M213.800 221.838 C 210.940 223.503,208.420 225.059,208.200 225.297 C 207.980 225.534,208.430 225.362,209.200 224.914 C 209.970 224.466,212.400 223.073,214.600 221.818 C 218.212 219.758,219.684 218.790,219.180 218.806 C 219.081 218.809,216.660 220.173,213.800 221.838 M184.400 221.167 C 185.363 221.952,186.000 222.208,186.000 221.810 C 186.000 221.706,185.415 221.335,184.700 220.986 L 183.400 220.352 184.400 221.167 M186.400 222.128 C 186.400 222.296,187.586 223.020,191.800 225.427 C 192.240 225.678,194.189 226.810,196.132 227.942 C 199.998 230.195,200.284 230.275,201.424 229.412 C 202.134 228.874,202.099 228.861,201.000 229.257 C 199.729 229.716,200.307 229.986,191.200 224.682 C 187.598 222.584,186.400 221.947,186.400 222.128 M206.000 226.436 C 205.336 226.979,205.269 227.115,205.800 226.840 C 207.105 226.166,207.828 225.612,207.400 225.615 C 207.180 225.617,206.550 225.986,206.000 226.436 M203.200 228.036 C 202.536 228.579,202.469 228.715,203.000 228.440 C 204.305 227.766,205.028 227.212,204.600 227.215 C 204.380 227.217,203.750 227.586,203.200 228.036 " stroke="none" fill="#686c74" fill-rule="evenodd"></path><path id="path3" d="M199.999 106.293 C 202.640 106.365,204.804 106.554,204.809 106.712 C 204.814 106.871,205.192 107.450,205.650 108.000 L 206.482 109.000 205.719 107.600 L 204.957 106.200 200.078 106.181 L 195.199 106.161 199.999 106.293 M190.832 114.024 C 190.814 114.366,191.080 114.996,191.422 115.424 C 192.034 116.188,192.038 116.187,191.676 115.400 C 191.474 114.960,191.208 114.330,191.086 114.000 C 190.893 113.482,190.859 113.485,190.832 114.024 M194.187 120.375 C 194.521 121.021,194.976 121.661,195.198 121.799 C 195.420 121.936,195.223 121.407,194.761 120.624 C 193.748 118.907,193.335 118.728,194.187 120.375 M120.093 150.300 C 119.057 151.796,118.721 152.400,118.923 152.400 C 119.017 152.400,119.570 151.680,120.153 150.800 C 121.336 149.012,121.284 148.579,120.093 150.300 M279.847 150.800 C 281.212 152.861,281.488 152.863,280.312 150.803 C 279.810 149.925,279.262 149.205,279.094 149.203 C 278.926 149.201,279.265 149.920,279.847 150.800 M268.752 150.500 C 268.490 150.995,268.015 151.850,267.696 152.400 C 267.139 153.359,267.143 153.367,267.788 152.600 C 268.586 151.652,269.705 149.600,269.424 149.600 C 269.316 149.600,269.014 150.005,268.752 150.500 M131.215 151.000 C 131.217 151.220,131.586 151.850,132.036 152.400 C 132.579 153.064,132.715 153.131,132.440 152.600 C 131.766 151.295,131.212 150.572,131.215 151.000 M281.200 152.928 C 281.200 153.101,281.650 153.905,282.200 154.714 C 282.750 155.523,283.200 156.044,283.200 155.872 C 283.200 155.699,282.750 154.895,282.200 154.086 C 281.650 153.277,281.200 152.756,281.200 152.928 M117.010 155.580 C 116.319 156.917,116.230 157.848,116.763 158.177 C 116.962 158.300,117.037 158.062,116.928 157.647 C 116.820 157.233,117.021 156.332,117.376 155.647 C 117.730 154.961,117.931 154.400,117.821 154.400 C 117.711 154.400,117.346 154.931,117.010 155.580 M265.588 156.022 C 265.346 156.474,265.207 157.022,265.280 157.239 C 265.352 157.457,265.618 157.087,265.871 156.417 C 266.397 155.025,266.239 154.805,265.588 156.022 M134.446 156.858 C 134.421 157.219,133.465 159.149,132.323 161.145 L 130.246 164.776 125.623 164.909 L 121.000 165.042 125.745 165.021 L 130.489 165.000 132.662 161.239 C 133.857 159.171,134.758 157.191,134.664 156.839 C 134.511 156.270,134.488 156.272,134.446 156.858 M283.246 156.953 C 283.221 157.367,282.825 158.312,282.367 159.053 C 281.909 159.794,281.625 160.400,281.735 160.400 C 282.218 160.400,283.643 157.540,283.477 156.904 C 283.311 156.272,283.288 156.276,283.246 156.953 M117.560 159.400 C 118.234 160.705,118.788 161.428,118.785 161.000 C 118.783 160.780,118.414 160.150,117.964 159.600 C 117.421 158.936,117.285 158.869,117.560 159.400 M267.560 161.400 C 268.234 162.705,268.788 163.428,268.785 163.000 C 268.783 162.780,268.414 162.150,267.964 161.600 C 267.421 160.936,267.285 160.869,267.560 161.400 M119.682 163.173 C 120.180 164.038,120.655 164.678,120.739 164.594 C 120.912 164.421,119.231 161.600,118.955 161.600 C 118.857 161.600,119.184 162.308,119.682 163.173 M269.192 164.300 C 270.010 165.988,280.038 165.542,279.988 163.820 C 279.981 163.589,279.792 163.715,279.568 164.100 C 279.217 164.703,278.517 164.800,274.524 164.800 C 270.591 164.800,269.802 164.694,269.322 164.100 C 268.811 163.468,268.798 163.488,269.192 164.300 M196.400 171.636 C 195.736 172.179,195.669 172.315,196.200 172.040 C 197.505 171.366,198.228 170.812,197.800 170.815 C 197.580 170.817,196.950 171.186,196.400 171.636 M213.200 177.390 C 213.200 177.494,213.785 177.865,214.500 178.214 L 215.800 178.848 214.800 178.033 C 213.837 177.248,213.200 176.992,213.200 177.390 M221.600 182.179 C 221.600 182.289,222.140 182.659,222.800 183.000 C 223.460 183.341,224.000 183.531,224.000 183.421 C 224.000 183.311,223.460 182.941,222.800 182.600 C 222.140 182.259,221.600 182.069,221.600 182.179 M173.781 200.000 C 173.781 208.250,173.834 211.625,173.899 207.500 C 173.964 203.375,173.964 196.625,173.899 192.500 C 173.834 188.375,173.781 191.750,173.781 200.000 M226.181 200.000 C 226.181 208.250,226.234 211.625,226.299 207.500 C 226.364 203.375,226.364 196.625,226.299 192.500 C 226.234 188.375,226.181 191.750,226.181 200.000 M174.800 215.964 C 175.350 216.414,175.980 216.783,176.200 216.785 C 176.628 216.788,175.905 216.234,174.600 215.560 C 174.069 215.285,174.136 215.421,174.800 215.964 M223.400 216.652 C 220.414 218.421,219.466 219.309,222.231 217.747 C 224.432 216.504,226.320 215.246,226.000 215.236 C 225.890 215.233,224.720 215.870,223.400 216.652 M178.800 218.179 C 178.800 218.289,179.340 218.659,180.000 219.000 C 180.660 219.341,181.200 219.531,181.200 219.421 C 181.200 219.311,180.660 218.941,180.000 218.600 C 179.340 218.259,178.800 218.069,178.800 218.179 M181.600 219.779 C 181.600 219.889,182.140 220.259,182.800 220.600 C 183.460 220.941,184.000 221.131,184.000 221.021 C 184.000 220.911,183.460 220.541,182.800 220.200 C 182.140 219.859,181.600 219.669,181.600 219.779 M210.300 224.229 C 208.805 225.040,208.896 225.378,210.400 224.600 C 211.060 224.259,211.600 223.894,211.600 223.790 C 211.600 223.532,211.557 223.547,210.300 224.229 M204.700 227.429 C 203.205 228.240,203.296 228.578,204.800 227.800 C 205.460 227.459,206.000 227.094,206.000 226.990 C 206.000 226.732,205.957 226.747,204.700 227.429 M201.800 229.200 C 201.140 229.637,200.780 229.992,201.000 229.988 C 201.401 229.982,203.576 228.423,203.200 228.412 C 203.090 228.408,202.460 228.763,201.800 229.200 M123.300 235.096 C 124.565 235.175,126.635 235.175,127.900 235.096 C 129.165 235.016,128.130 234.951,125.600 234.951 C 123.070 234.951,122.035 235.016,123.300 235.096 M272.100 235.096 C 273.365 235.175,275.435 235.175,276.700 235.096 C 277.965 235.016,276.930 234.951,274.400 234.951 C 271.870 234.951,270.835 235.016,272.100 235.096 M119.682 236.827 C 119.184 237.692,118.857 238.400,118.955 238.400 C 119.231 238.400,120.912 235.579,120.739 235.406 C 120.655 235.322,120.180 235.962,119.682 236.827 M267.853 238.100 L 267.133 239.400 267.958 238.400 C 268.689 237.513,269.014 236.800,268.686 236.800 C 268.624 236.800,268.249 237.385,267.853 238.100 M131.960 238.200 C 132.634 239.505,133.188 240.228,133.185 239.800 C 133.183 239.580,132.814 238.950,132.364 238.400 C 131.821 237.736,131.685 237.669,131.960 238.200 M117.853 240.100 L 117.133 241.400 117.958 240.400 C 118.689 239.513,119.014 238.800,118.686 238.800 C 118.624 238.800,118.249 239.385,117.853 240.100 M282.367 240.947 C 283.448 242.696,283.417 243.495,282.200 245.286 C 281.650 246.095,281.201 246.902,281.202 247.079 C 281.203 247.255,281.742 246.590,282.400 245.600 C 283.833 243.444,283.407 239.600,281.735 239.600 C 281.625 239.600,281.909 240.206,282.367 240.947 M133.707 241.217 C 134.038 241.776,134.399 242.586,134.508 243.017 C 134.702 243.781,134.708 243.780,134.745 243.000 C 134.765 242.560,134.405 241.750,133.944 241.200 L 133.105 240.200 133.707 241.217 M116.536 242.222 C 116.405 242.564,116.471 243.232,116.682 243.707 C 117.011 244.444,117.062 244.354,117.034 243.086 C 116.997 241.458,116.896 241.283,116.536 242.222 M117.560 245.400 C 118.234 246.705,118.788 247.428,118.785 247.000 C 118.783 246.780,118.414 246.150,117.964 245.600 C 117.421 244.936,117.285 244.869,117.560 245.400 M132.253 247.300 L 131.533 248.600 132.358 247.600 C 133.089 246.713,133.414 246.000,133.086 246.000 C 133.024 246.000,132.649 246.585,132.253 247.300 M267.560 247.400 C 268.234 248.705,268.788 249.428,268.785 249.000 C 268.783 248.780,268.414 248.150,267.964 247.600 C 267.421 246.936,267.285 246.869,267.560 247.400 M119.682 249.173 C 120.180 250.038,120.655 250.678,120.739 250.594 C 120.912 250.421,119.231 247.600,118.955 247.600 C 118.857 247.600,119.184 248.308,119.682 249.173 M123.300 251.096 C 124.565 251.175,126.635 251.175,127.900 251.096 C 129.165 251.016,128.130 250.951,125.600 250.951 C 123.070 250.951,122.035 251.016,123.300 251.096 M272.100 251.096 C 273.365 251.175,275.435 251.175,276.700 251.096 C 277.965 251.016,276.930 250.951,274.400 250.951 C 271.870 250.951,270.835 251.016,272.100 251.096 M208.324 284.600 C 208.526 285.040,208.792 285.670,208.914 286.000 C 209.107 286.518,209.141 286.515,209.168 285.976 C 209.186 285.634,208.920 285.004,208.578 284.576 C 207.966 283.812,207.962 283.813,208.324 284.600 M205.419 292.364 C 205.088 293.004,204.629 293.620,204.398 293.734 C 204.168 293.847,204.208 293.894,204.486 293.838 C 204.989 293.737,206.682 291.200,206.247 291.200 C 206.122 291.200,205.750 291.724,205.419 292.364 " stroke="none" fill="#454b4d" fill-rule="evenodd"></path><path id="path4" d="M194.586 107.712 C 193.388 109.711,192.031 112.105,191.505 113.149 C 191.014 114.125,191.759 115.856,194.670 120.500 L 195.610 122.000 199.943 122.000 C 204.145 122.000,205.600 121.565,205.600 120.309 C 205.600 120.184,206.320 118.897,207.200 117.448 C 209.117 114.292,209.144 113.898,207.600 111.464 C 206.940 110.424,206.400 109.479,206.400 109.365 C 206.400 109.251,205.950 108.495,205.400 107.686 C 204.850 106.877,204.400 106.363,204.400 106.545 C 204.400 106.728,204.721 107.354,205.114 107.938 C 205.507 108.522,206.086 109.540,206.400 110.200 C 206.714 110.860,207.311 111.904,207.727 112.520 C 208.669 113.915,208.547 114.371,206.169 118.369 L 204.247 121.600 200.020 121.600 C 195.352 121.600,195.844 121.854,193.901 118.445 C 191.465 114.172,191.404 114.006,191.953 113.126 C 192.240 112.667,192.818 111.685,193.238 110.945 C 193.657 110.205,194.369 108.949,194.820 108.153 C 195.843 106.346,195.638 105.958,194.586 107.712 M120.105 150.900 C 116.720 155.978,116.342 157.550,118.013 159.600 C 118.791 160.555,118.789 160.516,117.957 158.747 L 117.086 156.894 119.173 153.247 L 121.260 149.600 125.616 149.600 C 129.622 149.600,130.008 149.667,130.418 150.434 C 130.664 150.893,130.953 151.181,131.060 151.073 C 132.182 149.952,130.040 149.200,125.723 149.200 L 121.238 149.200 120.105 150.900 M269.081 150.500 C 268.714 151.215,267.786 152.880,267.019 154.200 C 265.286 157.182,265.285 157.089,267.100 160.112 C 267.925 161.486,268.855 163.103,269.168 163.705 C 269.480 164.307,270.020 164.797,270.368 164.794 C 270.855 164.789,270.880 164.712,270.479 164.457 C 269.951 164.122,266.000 157.644,266.000 157.113 C 266.000 156.954,266.332 156.234,266.739 155.512 C 267.145 154.790,268.062 153.165,268.777 151.900 L 270.076 149.600 274.358 149.600 C 277.218 149.600,278.826 149.766,279.201 150.100 C 279.678 150.525,279.682 150.496,279.232 149.900 C 278.783 149.307,278.020 149.200,274.225 149.200 L 269.748 149.200 269.081 150.500 M279.618 151.000 C 279.618 151.220,279.970 151.850,280.400 152.400 C 280.830 152.950,281.182 153.220,281.182 153.000 C 281.182 152.780,280.830 152.150,280.400 151.600 C 279.970 151.050,279.618 150.780,279.618 151.000 M131.200 151.752 C 131.200 151.835,131.830 152.949,132.600 154.228 C 133.370 155.507,134.000 156.721,134.000 156.927 C 134.000 157.534,130.740 163.260,129.937 164.063 C 129.450 164.550,129.375 164.800,129.716 164.800 C 130.262 164.800,134.400 157.891,134.400 156.979 C 134.400 156.418,131.695 151.600,131.381 151.600 C 131.281 151.600,131.200 151.668,131.200 151.752 M281.200 153.790 C 281.200 153.895,281.559 154.570,281.999 155.290 C 283.039 156.996,283.020 157.192,281.582 159.631 C 280.912 160.767,280.440 161.773,280.533 161.867 C 280.795 162.129,283.200 157.698,283.200 156.953 C 283.200 156.591,282.825 155.688,282.367 154.947 C 281.602 153.708,281.200 153.310,281.200 153.790 M118.867 161.100 C 119.371 162.234,121.053 164.794,121.296 164.797 C 121.459 164.799,121.039 163.900,120.362 162.800 C 119.324 161.113,118.411 160.076,118.867 161.100 M279.600 162.869 C 279.600 163.126,279.302 163.666,278.938 164.069 C 278.558 164.488,278.469 164.800,278.728 164.800 C 278.976 164.800,279.459 164.260,279.800 163.600 C 280.153 162.917,280.244 162.400,280.010 162.400 C 279.785 162.400,279.600 162.611,279.600 162.869 M119.884 237.063 C 119.270 238.074,118.849 238.983,118.949 239.082 C 119.048 239.181,119.616 238.433,120.210 237.419 L 121.291 235.575 125.685 235.687 L 130.079 235.800 131.243 237.800 C 131.882 238.900,132.785 240.507,133.248 241.372 L 134.090 242.944 133.254 244.572 C 132.794 245.467,131.892 247.100,131.249 248.200 L 130.079 250.200 125.685 250.313 L 121.291 250.425 120.210 248.581 C 119.616 247.567,119.048 246.819,118.949 246.918 C 118.849 247.017,119.270 247.926,119.884 248.937 L 121.000 250.775 125.616 250.787 L 130.232 250.800 132.316 247.158 C 133.462 245.154,134.400 243.283,134.400 243.000 C 134.400 242.717,133.462 240.846,132.316 238.842 L 130.232 235.200 125.616 235.213 L 121.000 235.225 119.884 237.063 M269.168 236.295 C 268.855 236.897,267.925 238.514,267.100 239.888 C 266.275 241.262,265.600 242.662,265.600 243.000 C 265.600 243.338,266.275 244.738,267.100 246.112 C 267.925 247.486,268.855 249.103,269.168 249.705 L 269.735 250.800 274.371 250.800 L 279.006 250.800 280.122 248.952 C 280.736 247.936,281.154 247.021,281.051 246.918 C 280.879 246.746,280.473 247.355,279.398 249.400 C 279.022 250.115,278.508 250.212,274.531 250.313 L 270.083 250.425 268.545 247.713 C 265.598 242.517,265.647 243.314,268.017 239.208 L 270.114 235.575 274.546 235.687 C 278.510 235.788,279.022 235.885,279.393 236.600 C 279.621 237.040,280.481 238.535,281.304 239.921 C 283.045 242.855,283.075 243.088,281.960 244.977 C 280.893 246.787,281.254 246.854,282.367 245.053 C 283.525 243.179,283.463 242.856,281.155 238.797 L 279.110 235.200 274.423 235.200 L 269.735 235.200 269.168 236.295 M117.601 240.999 C 116.617 242.591,116.748 243.997,118.029 245.600 C 118.780 246.540,118.777 246.490,117.969 244.772 L 117.110 242.944 117.963 241.272 C 119.000 239.239,118.787 239.079,117.601 240.999 M194.670 279.500 C 191.383 284.743,190.967 285.830,191.698 287.261 C 193.212 290.226,195.600 294.035,195.600 293.484 C 195.600 293.174,194.743 291.543,194.400 291.200 C 194.290 291.090,193.826 290.280,193.370 289.400 C 192.913 288.520,192.290 287.404,191.985 286.919 C 191.389 285.971,192.093 284.323,195.259 279.255 C 196.074 277.950,203.926 277.950,204.741 279.255 C 205.408 280.322,206.672 282.536,207.736 284.500 L 208.548 286.000 207.736 287.500 C 206.188 290.357,205.113 292.202,204.700 292.710 C 204.472 292.990,204.382 293.315,204.500 293.433 C 204.762 293.695,208.800 286.708,208.800 285.993 C 208.800 285.711,208.080 284.231,207.200 282.705 C 206.320 281.179,205.600 279.793,205.600 279.627 C 205.600 278.450,204.018 278.000,199.874 278.000 L 195.610 278.000 194.670 279.500 M198.313 293.895 C 199.476 293.976,201.276 293.976,202.313 293.893 C 203.351 293.811,202.400 293.745,200.200 293.746 C 198.000 293.747,197.151 293.814,198.313 293.895 " stroke="none" fill="#546c84" fill-rule="evenodd"></path></g></svg>