<svg id="svg" version="1.1" xmlns="http://www.w3.org/2000/svg" xmlns:xlink="http://www.w3.org/1999/xlink" width="400" height="400" viewBox="0, 0, 400,400"><g id="svgg"><path id="path0" d="M48.049 16.625 C 31.694 19.610,19.419 31.943,16.622 48.200 C 15.679 53.683,15.679 346.317,16.622 351.800 C 18.037 360.025,21.414 366.570,27.345 372.583 C 32.500 377.810,37.575 380.679,46.000 383.129 C 48.803 383.944,345.265 384.389,351.000 383.587 C 366.179 381.463,378.510 370.345,382.927 354.800 L 383.780 351.800 383.990 249.800 C 384.191 152.377,384.233 147.735,384.925 146.344 C 386.120 143.942,388.586 142.144,391.000 141.914 L 392.200 141.800 392.309 134.300 L 392.418 126.800 391.509 126.789 C 382.446 126.676,381.968 111.573,391.000 110.714 L 392.200 110.600 392.309 103.100 C 392.412 95.960,392.381 95.600,391.658 95.600 C 389.455 95.600,386.379 93.475,385.089 91.062 C 384.213 89.425,384.196 89.088,383.955 68.800 C 383.700 47.289,383.715 47.482,381.824 41.800 C 377.562 28.999,365.644 19.004,351.800 16.622 C 346.731 15.750,52.828 15.753,48.049 16.625 M356.051 39.364 C 358.167 40.248,359.433 41.432,360.352 43.387 L 361.200 45.191 361.200 172.917 L 361.200 300.643 360.020 302.504 C 359.371 303.527,358.115 304.823,357.228 305.382 L 355.616 306.400 200.108 306.393 L 44.600 306.387 43.017 305.490 C 42.146 304.997,40.886 303.814,40.217 302.862 L 39.000 301.131 38.898 173.165 L 38.796 45.199 39.624 43.438 C 40.588 41.387,41.289 40.684,43.435 39.613 C 45.521 38.572,353.569 38.327,356.051 39.364 M214.316 110.328 C 213.940 110.478,217.489 110.600,222.202 110.600 C 226.915 110.600,230.463 110.478,230.086 110.328 C 229.709 110.179,226.160 110.056,222.200 110.056 C 218.240 110.056,214.692 110.179,214.316 110.328 M209.200 111.221 C 208.770 111.514,209.054 111.554,210.200 111.362 C 212.184 111.030,212.504 110.798,210.967 110.806 C 210.325 110.809,209.530 110.996,209.200 111.221 M233.200 111.200 C 234.742 111.694,235.564 111.694,234.800 111.200 C 234.470 110.987,233.750 110.827,233.200 110.846 L 232.200 110.880 233.200 111.200 M119.200 112.003 C 118.790 112.270,119.235 112.314,120.600 112.141 C 121.700 112.001,122.675 111.823,122.767 111.744 C 123.164 111.401,119.741 111.650,119.200 112.003 M125.633 111.744 C 125.725 111.823,126.700 112.001,127.800 112.141 C 129.165 112.314,129.610 112.270,129.200 112.003 C 128.659 111.650,125.236 111.401,125.633 111.744 M206.000 112.000 C 205.205 112.514,206.204 112.514,207.400 112.000 L 208.200 111.656 207.400 111.634 C 206.960 111.622,206.330 111.787,206.000 112.000 M237.000 112.000 C 238.101 112.473,238.492 112.473,238.200 112.000 C 238.064 111.780,237.558 111.613,237.076 111.628 C 236.231 111.655,236.229 111.669,237.000 112.000 M240.000 112.800 C 240.330 113.013,240.870 113.188,241.200 113.188 C 241.733 113.188,241.733 113.145,241.200 112.800 C 240.870 112.587,240.330 112.412,240.000 112.412 C 239.467 112.412,239.467 112.455,240.000 112.800 M134.588 114.271 C 137.981 116.035,140.805 118.380,142.724 121.026 C 143.737 122.423,144.644 123.489,144.740 123.394 C 145.864 122.270,135.228 113.095,132.944 113.219 C 132.755 113.229,133.495 113.702,134.588 114.271 M200.800 113.600 C 200.267 113.945,200.267 113.988,200.800 113.988 C 201.130 113.988,201.670 113.813,202.000 113.600 C 202.533 113.255,202.533 113.212,202.000 113.212 C 201.670 113.212,201.130 113.387,200.800 113.600 M110.962 115.530 C 106.333 118.528,101.653 125.256,101.036 129.800 L 100.818 131.400 101.246 130.000 C 103.402 122.939,106.887 118.366,113.037 114.524 C 113.457 114.261,113.693 114.036,113.562 114.024 C 113.431 114.011,112.261 114.688,110.962 115.530 M246.433 114.958 C 246.525 115.045,248.613 116.149,251.073 117.412 C 253.534 118.674,256.819 120.677,258.373 121.861 C 259.928 123.046,261.197 123.876,261.193 123.707 C 261.181 123.122,255.382 119.265,251.165 117.037 C 247.532 115.118,245.797 114.355,246.433 114.958 M193.200 116.931 C 190.692 118.250,190.345 118.478,190.543 118.676 C 190.659 118.792,191.287 118.508,191.939 118.044 C 192.590 117.580,193.310 117.200,193.538 117.200 C 193.766 117.200,194.064 117.020,194.200 116.800 C 194.520 116.282,194.405 116.297,193.200 116.931 M186.971 120.701 C 183.615 122.953,182.000 124.215,182.000 124.584 C 182.000 124.732,182.765 124.236,183.700 123.480 C 184.635 122.725,186.435 121.427,187.700 120.597 C 189.696 119.286,190.296 118.797,189.900 118.801 C 189.845 118.802,188.527 119.657,186.971 120.701 M264.079 126.424 C 265.553 127.841,266.953 129.520,267.190 130.155 C 267.428 130.791,267.721 131.213,267.841 131.093 C 268.455 130.478,264.916 126.280,262.200 124.401 C 261.760 124.097,262.606 125.007,264.079 126.424 M176.956 129.300 C 172.326 134.062,166.385 142.264,166.404 143.870 C 166.406 144.051,166.876 143.390,167.448 142.400 C 170.540 137.050,173.189 133.582,177.760 128.900 C 179.532 127.085,180.886 125.600,180.768 125.600 C 180.650 125.600,178.935 127.265,176.956 129.300 M215.800 126.400 L 214.200 126.686 215.800 126.720 C 216.680 126.739,218.120 126.605,219.000 126.423 L 220.600 126.092 219.000 126.103 C 218.120 126.109,216.680 126.242,215.800 126.400 M224.800 126.420 C 225.790 126.597,227.320 126.733,228.200 126.724 L 229.800 126.708 228.200 126.377 C 227.320 126.195,225.790 126.058,224.800 126.073 L 223.000 126.100 224.800 126.420 M211.400 127.200 C 210.293 127.482,210.277 127.509,211.200 127.547 C 211.750 127.569,212.470 127.413,212.800 127.200 C 213.481 126.760,213.129 126.760,211.400 127.200 M231.200 127.200 C 231.530 127.413,232.250 127.573,232.800 127.554 L 233.800 127.520 232.800 127.200 C 231.258 126.706,230.436 126.706,231.200 127.200 M121.600 128.000 C 120.805 128.514,121.804 128.514,123.000 128.000 L 123.800 127.656 123.000 127.634 C 122.560 127.622,121.930 127.787,121.600 128.000 M125.400 128.000 C 126.596 128.514,127.595 128.514,126.800 128.000 C 126.470 127.787,125.840 127.622,125.400 127.634 L 124.600 127.656 125.400 128.000 M146.640 128.666 C 147.008 130.199,147.200 130.344,147.200 129.090 C 147.200 128.517,147.013 127.932,146.784 127.790 C 146.511 127.621,146.462 127.923,146.640 128.666 M208.400 128.000 L 207.400 128.320 208.476 128.360 C 209.068 128.382,209.664 128.220,209.800 128.000 C 210.081 127.545,209.820 127.545,208.400 128.000 M234.400 128.000 C 234.730 128.213,235.360 128.378,235.800 128.366 L 236.600 128.344 235.800 128.000 C 234.604 127.486,233.605 127.486,234.400 128.000 M119.174 129.483 C 115.306 132.738,115.606 138.533,119.800 141.583 C 120.240 141.903,120.035 141.543,119.345 140.783 C 115.911 137.001,116.038 132.319,119.650 129.473 C 120.392 128.888,120.879 128.407,120.731 128.404 C 120.583 128.402,119.882 128.888,119.174 129.483 M127.800 128.657 C 129.837 130.464,130.587 130.991,129.802 130.063 C 129.366 129.548,128.647 128.941,128.204 128.714 C 127.762 128.487,127.580 128.462,127.800 128.657 M237.000 128.800 C 237.136 129.020,237.642 129.187,238.124 129.172 C 238.969 129.145,238.971 129.131,238.200 128.800 C 237.099 128.327,236.708 128.327,237.000 128.800 M239.216 129.349 C 239.325 129.458,241.031 130.362,243.007 131.358 C 244.983 132.354,247.905 134.156,249.500 135.364 C 251.095 136.572,252.400 137.466,252.400 137.352 C 252.400 136.378,243.937 131.021,240.083 129.556 C 239.497 129.333,239.106 129.240,239.216 129.349 M147.522 133.809 C 147.803 139.156,146.170 145.004,143.372 148.672 C 142.815 149.403,142.503 149.997,142.680 149.993 C 145.378 149.932,149.566 133.886,147.665 130.892 C 147.488 130.612,147.423 131.925,147.522 133.809 M200.800 131.130 C 199.302 131.815,195.688 134.081,194.600 135.017 C 193.133 136.280,193.737 135.965,197.504 133.500 C 199.101 132.455,200.576 131.600,200.780 131.600 C 200.985 131.600,201.264 131.420,201.400 131.200 C 201.678 130.750,201.641 130.746,200.800 131.130 M100.576 135.800 C 100.724 142.745,102.968 147.856,107.862 152.399 L 109.800 154.198 107.756 151.999 C 103.003 146.887,101.258 142.834,100.781 135.800 L 100.482 131.400 100.576 135.800 M268.120 133.600 C 268.120 134.810,268.195 135.305,268.287 134.700 C 268.378 134.095,268.378 133.105,268.287 132.500 C 268.195 131.895,268.120 132.390,268.120 133.600 M131.387 135.200 C 131.387 136.490,131.522 137.333,131.687 137.073 C 131.853 136.813,131.988 135.970,131.988 135.200 C 131.988 134.430,131.853 133.587,131.687 133.327 C 131.522 133.067,131.387 133.910,131.387 135.200 M189.317 139.526 C 184.985 143.887,178.519 153.452,179.344 154.277 C 179.453 154.386,179.991 153.494,180.540 152.295 C 182.810 147.332,186.386 142.631,191.367 138.064 C 192.409 137.109,193.174 136.241,193.068 136.135 C 192.963 136.029,191.274 137.555,189.317 139.526 M266.472 138.146 C 265.539 139.571,265.402 139.941,266.013 139.389 C 266.861 138.621,268.187 136.429,267.929 136.221 C 267.858 136.164,267.202 137.030,266.472 138.146 M253.400 138.370 C 254.406 139.567,257.554 141.603,258.378 141.591 C 258.720 141.586,258.268 141.250,257.374 140.844 C 256.479 140.438,255.039 139.501,254.174 138.762 C 253.234 137.960,252.922 137.802,253.400 138.370 M129.500 140.125 C 127.542 142.226,127.793 142.456,129.800 140.400 C 130.651 139.528,131.270 138.747,131.174 138.665 C 131.078 138.583,130.325 139.240,129.500 140.125 M262.200 141.200 C 261.429 141.531,261.431 141.545,262.276 141.572 C 262.758 141.587,263.264 141.420,263.400 141.200 C 263.692 140.727,263.301 140.727,262.200 141.200 M140.400 152.200 C 139.428 153.190,138.723 154.000,138.833 154.000 C 138.943 154.000,139.828 153.190,140.800 152.200 C 141.772 151.210,142.477 150.400,142.367 150.400 C 142.257 150.400,141.372 151.210,140.400 152.200 M161.867 154.667 C 161.720 154.813,161.611 155.308,161.625 155.767 C 161.649 156.533,161.682 156.523,162.034 155.642 C 162.426 154.663,162.344 154.189,161.867 154.667 M161.067 157.467 C 160.920 157.613,160.815 158.198,160.834 158.767 C 160.868 159.781,160.875 159.779,161.221 158.620 C 161.585 157.403,161.531 157.002,161.067 157.467 M118.615 158.424 C 118.743 158.631,119.497 158.800,120.290 158.800 C 122.061 158.800,121.900 158.590,119.891 158.280 C 118.991 158.141,118.476 158.199,118.615 158.424 M128.000 158.400 C 126.616 158.691,126.614 158.695,127.800 158.741 C 128.460 158.767,129.270 158.613,129.600 158.400 C 130.266 157.970,130.045 157.970,128.000 158.400 M177.249 159.200 C 177.216 159.530,177.089 160.250,176.967 160.800 C 176.775 161.664,176.807 161.703,177.199 161.088 C 177.448 160.697,177.575 159.977,177.481 159.488 C 177.386 159.000,177.282 158.870,177.249 159.200 M160.276 161.210 C 160.130 161.755,160.028 162.740,160.049 163.400 C 160.080 164.357,160.159 164.236,160.442 162.800 C 160.829 160.833,160.702 159.617,160.276 161.210 M176.222 163.529 C 176.058 164.259,176.022 164.956,176.142 165.076 C 176.443 165.377,176.920 163.356,176.699 162.717 C 176.601 162.433,176.386 162.798,176.222 163.529 M159.450 167.250 C 159.120 168.900,159.181 177.610,159.528 178.484 C 159.678 178.861,159.800 176.206,159.800 172.584 C 159.800 165.359,159.807 165.465,159.450 167.250 M175.446 170.300 C 175.314 172.445,175.361 175.280,175.551 176.600 C 175.838 178.602,175.904 177.956,175.948 172.700 C 176.007 165.547,175.800 164.555,175.446 170.300 M176.046 180.600 C 176.115 182.231,176.715 183.587,176.754 182.200 C 176.773 181.540,176.613 180.730,176.400 180.400 C 176.081 179.906,176.018 179.941,176.046 180.600 M160.006 182.433 C 160.009 183.185,160.192 184.070,160.412 184.400 C 160.691 184.819,160.733 184.458,160.550 183.200 C 160.225 180.959,159.998 180.640,160.006 182.433 M177.040 185.066 C 177.408 186.599,177.600 186.744,177.600 185.490 C 177.600 184.917,177.413 184.332,177.184 184.190 C 176.911 184.021,176.862 184.323,177.040 185.066 M160.834 186.600 C 160.822 187.040,160.987 187.670,161.200 188.000 C 161.714 188.795,161.714 187.796,161.200 186.600 L 160.856 185.800 160.834 186.600 M177.801 187.574 C 178.256 189.050,179.167 191.053,179.178 190.600 C 179.193 189.989,178.191 187.255,177.824 186.907 C 177.646 186.738,177.636 187.038,177.801 187.574 M161.612 189.600 C 161.612 189.930,161.787 190.470,162.000 190.800 C 162.345 191.333,162.388 191.333,162.388 190.800 C 162.388 190.470,162.213 189.930,162.000 189.600 C 161.655 189.067,161.612 189.067,161.612 189.600 M181.849 196.300 C 184.518 200.986,194.107 211.611,193.976 209.737 C 193.963 209.552,192.783 208.426,191.353 207.236 C 188.476 204.841,184.214 199.741,182.381 196.500 C 181.728 195.345,181.097 194.400,180.980 194.400 C 180.862 194.400,181.253 195.255,181.849 196.300 M164.046 196.400 C 164.039 196.730,164.378 197.630,164.800 198.400 C 165.775 200.181,165.775 199.506,164.800 197.400 C 164.393 196.520,164.054 196.070,164.046 196.400 M167.074 202.800 C 168.634 205.731,172.000 210.817,172.000 210.244 C 172.000 210.086,171.277 208.891,170.392 207.589 C 169.508 206.287,168.224 204.181,167.539 202.911 C 166.853 201.640,166.109 200.420,165.884 200.200 C 165.660 199.980,166.195 201.150,167.074 202.800 M257.147 204.133 C 255.894 204.691,251.251 208.454,251.221 208.937 C 251.209 209.122,252.136 208.433,253.279 207.405 C 257.881 203.267,262.164 202.850,265.702 206.195 C 269.525 209.809,268.739 214.561,263.516 219.417 C 261.912 220.908,261.140 221.727,261.800 221.236 C 268.265 216.431,270.067 211.520,266.974 207.128 C 264.869 204.139,260.279 202.740,257.147 204.133 M248.707 210.526 C 247.666 211.226,246.811 211.946,246.807 212.125 C 246.800 212.456,250.309 210.071,250.657 209.509 C 250.942 209.047,250.769 209.137,248.707 210.526 M173.094 211.800 C 174.220 213.409,176.778 216.157,176.966 215.959 C 177.048 215.871,176.022 214.630,174.685 213.200 C 173.348 211.770,172.632 211.140,173.094 211.800 M198.000 212.590 C 198.000 212.694,198.585 213.065,199.300 213.414 L 200.600 214.048 199.600 213.233 C 198.637 212.448,198.000 212.192,198.000 212.590 M243.200 214.000 C 242.430 214.422,241.944 214.774,242.120 214.783 C 242.544 214.805,244.800 213.632,244.800 213.390 C 244.800 213.128,244.777 213.137,243.200 214.000 M202.000 214.800 C 202.770 215.222,203.580 215.566,203.800 215.566 C 204.020 215.566,203.570 215.222,202.800 214.800 C 202.030 214.378,201.220 214.034,201.000 214.034 C 200.780 214.034,201.230 214.378,202.000 214.800 M237.800 216.248 C 235.229 217.198,230.524 218.395,229.107 218.460 C 227.803 218.520,227.803 218.520,228.968 218.693 C 229.610 218.788,230.960 218.653,231.968 218.392 C 234.743 217.675,240.000 215.956,240.000 215.767 C 240.000 215.506,239.526 215.610,237.800 216.248 M177.321 216.659 C 177.473 216.911,178.722 218.063,180.098 219.219 L 182.600 221.320 180.588 219.360 C 178.288 217.120,176.920 215.989,177.321 216.659 M208.873 217.406 C 209.288 217.821,213.676 218.799,214.920 218.753 C 216.002 218.713,215.921 218.658,214.400 218.400 C 213.410 218.232,211.880 217.894,211.000 217.649 C 209.258 217.165,208.551 217.084,208.873 217.406 M218.943 219.289 C 220.451 219.463,223.061 219.461,224.743 219.284 C 227.470 218.997,227.175 218.963,222.000 218.968 C 217.092 218.972,216.622 219.021,218.943 219.289 M258.785 223.218 L 257.400 224.435 258.895 223.518 C 259.717 223.013,260.392 222.465,260.395 222.300 C 260.403 221.837,260.269 221.913,258.785 223.218 M184.800 222.974 C 184.800 223.315,187.619 225.314,187.819 225.114 C 187.928 225.006,187.293 224.438,186.408 223.853 C 185.524 223.268,184.800 222.872,184.800 222.974 M253.312 226.699 C 250.610 228.284,250.119 228.937,252.643 227.588 C 254.168 226.774,256.395 225.208,256.000 225.228 C 255.890 225.234,254.681 225.896,253.312 226.699 M191.000 227.129 C 191.567 227.697,196.422 230.112,196.613 229.920 C 196.700 229.833,195.383 229.079,193.686 228.245 C 191.989 227.410,190.780 226.908,191.000 227.129 M246.800 230.046 C 244.387 231.157,240.955 232.286,236.600 233.402 C 234.620 233.909,233.270 234.339,233.600 234.358 C 235.745 234.476,248.800 230.209,248.800 229.390 C 248.800 229.125,248.806 229.123,246.800 230.046 M199.427 231.144 C 199.901 231.565,206.200 233.611,206.886 233.567 C 207.325 233.540,204.841 232.652,200.227 231.186 C 199.582 230.982,199.222 230.963,199.427 231.144 M209.600 234.168 C 210.810 234.480,213.060 234.827,214.600 234.940 L 217.400 235.145 214.200 234.626 C 207.897 233.604,207.106 233.525,209.600 234.168 M228.400 234.800 C 226.312 235.239,228.746 235.257,231.200 234.820 L 233.000 234.500 231.400 234.503 C 230.520 234.504,229.170 234.638,228.400 234.800 M219.700 235.496 C 220.965 235.575,223.035 235.575,224.300 235.496 C 225.565 235.416,224.530 235.351,222.000 235.351 C 219.470 235.351,218.435 235.416,219.700 235.496 M127.500 290.700 C 167.375 290.756,232.625 290.756,272.500 290.700 C 312.375 290.644,279.750 290.598,200.000 290.598 C 120.250 290.598,87.625 290.644,127.500 290.700 M259.383 322.434 C 264.020 324.614,264.400 326.347,264.400 345.310 C 264.400 363.858,264.145 365.231,260.223 367.773 L 258.640 368.800 200.100 368.800 C 136.315 368.800,140.622 368.958,138.321 366.536 C 136.015 364.107,136.000 363.973,136.000 345.200 C 136.000 325.030,136.069 324.693,140.659 322.401 C 143.183 321.141,256.699 321.172,259.383 322.434 M319.296 322.775 C 322.610 324.877,323.585 327.219,323.594 333.100 L 323.600 337.200 328.100 337.209 C 336.329 337.225,340.748 341.537,338.720 347.572 C 337.243 351.968,334.988 353.200,328.416 353.200 L 323.600 353.200 323.600 357.472 C 323.600 362.040,323.195 363.833,321.697 365.904 C 319.040 369.576,312.575 369.914,309.600 366.536 C 307.694 364.372,307.463 363.579,307.228 358.400 L 307.000 353.400 302.000 353.200 C 294.402 352.896,291.762 350.769,291.828 345.002 C 291.889 339.650,295.260 337.223,302.652 337.209 L 307.103 337.200 307.267 332.276 C 307.409 328.028,307.558 327.137,308.355 325.786 C 310.740 321.743,315.573 320.414,319.296 322.775 M103.027 337.730 C 109.569 340.233,110.130 349.482,103.928 352.576 C 101.772 353.652,67.353 353.498,65.207 352.404 C 62.179 350.859,59.365 344.534,61.200 343.400 C 61.420 343.264,61.600 342.844,61.600 342.468 C 61.600 341.377,63.828 338.969,65.691 338.047 C 67.725 337.040,100.496 336.762,103.027 337.730 " stroke="none" fill="#9ba3bb" fill-rule="evenodd"></path><path id="path1" d="M43.100 0.292 C 42.055 0.375,41.200 0.614,41.200 0.822 C 41.200 1.030,40.581 1.200,39.824 1.200 C 39.067 1.200,38.336 1.380,38.200 1.600 C 38.064 1.820,37.524 2.000,37.000 2.000 C 36.476 2.000,35.936 2.180,35.800 2.400 C 35.664 2.620,35.203 2.800,34.776 2.800 C 34.349 2.800,34.000 2.980,34.000 3.200 C 34.000 3.420,33.561 3.600,33.024 3.600 C 32.487 3.600,31.936 3.780,31.800 4.000 C 31.664 4.220,31.203 4.400,30.776 4.400 C 30.349 4.400,30.000 4.546,30.000 4.725 C 30.000 4.904,29.370 5.298,28.600 5.600 C 27.830 5.902,27.200 6.296,27.200 6.475 C 27.200 6.654,26.930 6.800,26.600 6.800 C 26.270 6.800,26.000 6.980,26.000 7.200 C 26.000 7.420,25.730 7.600,25.400 7.600 C 25.070 7.600,24.800 7.760,24.800 7.957 C 24.800 8.153,24.395 8.418,23.900 8.546 C 23.405 8.674,22.477 9.234,21.838 9.790 C 21.199 10.345,20.525 10.800,20.342 10.800 C 19.765 10.800,10.888 19.892,10.611 20.767 C 10.465 21.225,10.207 21.600,10.037 21.600 C 9.868 21.600,9.385 22.318,8.964 23.195 C 8.544 24.073,8.065 24.793,7.900 24.795 C 7.735 24.798,7.600 25.070,7.600 25.400 C 7.600 25.730,7.420 26.000,7.200 26.000 C 6.980 26.000,6.800 26.270,6.800 26.600 C 6.800 26.930,6.654 27.200,6.475 27.200 C 6.296 27.200,5.902 27.830,5.600 28.600 C 5.298 29.370,4.904 30.000,4.725 30.000 C 4.546 30.000,4.400 30.349,4.400 30.776 C 4.400 31.203,4.220 31.664,4.000 31.800 C 3.780 31.936,3.600 32.487,3.600 33.024 C 3.600 33.561,3.420 34.000,3.200 34.000 C 2.980 34.000,2.800 34.349,2.800 34.776 C 2.800 35.203,2.620 35.664,2.400 35.800 C 2.180 35.936,2.000 36.476,2.000 37.000 C 2.000 37.524,1.820 38.064,1.600 38.200 C 1.380 38.336,1.200 39.052,1.200 39.790 C 1.200 40.529,0.975 41.208,0.700 41.300 C -0.036 41.545,-0.036 358.455,0.700 358.700 C 0.975 358.792,1.200 359.471,1.200 360.210 C 1.200 360.948,1.380 361.664,1.600 361.800 C 1.820 361.936,2.000 362.476,2.000 363.000 C 2.000 363.524,2.180 364.064,2.400 364.200 C 2.620 364.336,2.800 364.797,2.800 365.224 C 2.800 365.651,2.980 366.000,3.200 366.000 C 3.420 366.000,3.600 366.439,3.600 366.976 C 3.600 367.513,3.780 368.064,4.000 368.200 C 4.220 368.336,4.400 368.797,4.400 369.224 C 4.400 369.651,4.546 370.000,4.725 370.000 C 4.904 370.000,5.298 370.630,5.600 371.400 C 5.902 372.170,6.296 372.800,6.475 372.800 C 6.654 372.800,6.800 373.070,6.800 373.400 C 6.800 373.730,6.980 374.000,7.200 374.000 C 7.420 374.000,7.600 374.270,7.600 374.600 C 7.600 374.930,7.735 375.202,7.900 375.205 C 8.065 375.207,8.544 375.927,8.964 376.805 C 9.385 377.682,9.868 378.400,10.037 378.400 C 10.207 378.400,10.465 378.775,10.611 379.233 C 10.889 380.109,19.766 389.200,20.343 389.200 C 20.527 389.200,21.110 389.581,21.639 390.047 C 22.167 390.513,23.095 391.071,23.700 391.286 C 24.305 391.502,24.800 391.841,24.800 392.039 C 24.800 392.238,25.070 392.400,25.400 392.400 C 25.730 392.400,26.000 392.580,26.000 392.800 C 26.000 393.020,26.270 393.200,26.600 393.200 C 26.930 393.200,27.200 393.346,27.200 393.525 C 27.200 393.704,27.830 394.098,28.600 394.400 C 29.370 394.702,30.000 395.096,30.000 395.275 C 30.000 395.454,30.349 395.600,30.776 395.600 C 31.203 395.600,31.664 395.780,31.800 396.000 C 31.936 396.220,32.487 396.400,33.024 396.400 C 33.561 396.400,34.000 396.580,34.000 396.800 C 34.000 397.020,34.272 397.200,34.605 397.200 C 34.938 397.200,35.523 397.358,35.905 397.551 C 37.056 398.132,39.403 398.800,40.295 398.800 C 40.756 398.800,41.208 399.025,41.300 399.300 C 41.545 400.036,358.455 400.036,358.700 399.300 C 358.792 399.025,359.244 398.800,359.705 398.800 C 360.597 398.800,362.944 398.132,364.095 397.551 C 364.477 397.358,365.062 397.200,365.395 397.200 C 365.728 397.200,366.000 397.020,366.000 396.800 C 366.000 396.580,366.439 396.400,366.976 396.400 C 367.513 396.400,368.064 396.220,368.200 396.000 C 368.336 395.780,368.797 395.600,369.224 395.600 C 369.651 395.600,370.000 395.420,370.000 395.200 C 370.000 394.980,370.360 394.800,370.800 394.800 C 371.240 394.800,371.600 394.620,371.600 394.400 C 371.600 394.180,371.870 394.000,372.200 394.000 C 372.530 394.000,372.800 393.820,372.800 393.600 C 372.800 393.380,373.070 393.200,373.400 393.200 C 373.730 393.200,374.000 393.020,374.000 392.800 C 374.000 392.580,374.270 392.400,374.600 392.400 C 374.930 392.400,375.200 392.240,375.200 392.043 C 375.200 391.847,375.605 391.582,376.100 391.454 C 376.595 391.326,377.523 390.766,378.162 390.210 C 378.801 389.655,379.475 389.200,379.658 389.200 C 380.094 389.200,389.200 380.094,389.200 379.658 C 389.200 379.475,389.655 378.801,390.210 378.162 C 390.766 377.523,391.326 376.595,391.454 376.100 C 391.582 375.605,391.847 375.200,392.043 375.200 C 392.240 375.200,392.400 374.930,392.400 374.600 C 392.400 374.270,392.580 374.000,392.800 374.000 C 393.020 374.000,393.200 373.730,393.200 373.400 C 393.200 373.070,393.380 372.800,393.600 372.800 C 393.820 372.800,394.000 372.530,394.000 372.200 C 394.000 371.870,394.180 371.600,394.400 371.600 C 394.620 371.600,394.800 371.240,394.800 370.800 C 394.800 370.360,394.980 370.000,395.200 370.000 C 395.420 370.000,395.600 369.651,395.600 369.224 C 395.600 368.797,395.780 368.336,396.000 368.200 C 396.220 368.064,396.400 367.513,396.400 366.976 C 396.400 366.439,396.580 366.000,396.800 366.000 C 397.020 366.000,397.200 365.728,397.200 365.395 C 397.200 365.062,397.358 364.477,397.551 364.095 C 398.132 362.944,398.800 360.597,398.800 359.705 C 398.800 359.244,399.025 358.792,399.300 358.700 C 399.698 358.567,399.822 336.840,399.907 252.224 L 400.013 145.916 399.168 144.548 C 398.276 143.105,396.574 142.000,395.243 142.000 C 394.806 142.000,394.336 141.820,394.200 141.600 C 393.823 140.989,392.515 141.124,392.255 141.800 C 392.129 142.130,391.681 142.400,391.261 142.400 C 388.706 142.400,385.864 144.945,384.929 148.071 C 384.513 149.464,384.410 169.286,384.401 250.200 L 384.391 350.600 383.396 354.600 C 379.707 369.436,368.013 380.675,353.000 383.814 C 350.571 384.322,330.296 384.399,199.800 384.395 L 49.400 384.391 45.400 383.396 C 30.443 379.677,19.415 368.083,16.207 352.705 C 15.286 348.292,15.286 51.708,16.207 47.295 C 19.556 31.239,31.239 19.556,47.295 16.207 C 51.708 15.286,348.292 15.286,352.705 16.207 C 368.083 19.415,379.677 30.443,383.396 45.400 C 384.385 49.376,384.391 49.513,384.395 68.323 C 384.399 81.408,384.544 87.818,384.867 89.100 C 385.505 91.633,388.072 94.207,390.343 94.590 C 391.252 94.744,392.097 95.034,392.222 95.235 C 392.529 95.732,395.600 95.701,395.600 95.200 C 395.600 94.980,395.876 94.800,396.213 94.800 C 396.551 94.800,397.496 94.131,398.313 93.313 L 399.800 91.826 399.800 66.646 C 399.800 46.858,399.693 41.431,399.300 41.300 C 399.025 41.208,398.800 40.756,398.800 40.295 C 398.800 39.403,398.132 37.056,397.551 35.905 C 397.358 35.523,397.200 34.938,397.200 34.605 C 397.200 34.272,397.020 34.000,396.800 34.000 C 396.580 34.000,396.400 33.561,396.400 33.024 C 396.400 32.487,396.220 31.936,396.000 31.800 C 395.780 31.664,395.600 31.203,395.600 30.776 C 395.600 30.349,395.420 30.000,395.200 30.000 C 394.980 30.000,394.800 29.640,394.800 29.200 C 394.800 28.760,394.620 28.400,394.400 28.400 C 394.180 28.400,394.000 28.130,394.000 27.800 C 394.000 27.470,393.820 27.200,393.600 27.200 C 393.380 27.200,393.200 26.930,393.200 26.600 C 393.200 26.270,393.020 26.000,392.800 26.000 C 392.580 26.000,392.400 25.730,392.400 25.400 C 392.400 25.070,392.240 24.800,392.043 24.800 C 391.847 24.800,391.582 24.395,391.454 23.900 C 391.326 23.405,390.766 22.477,390.210 21.838 C 389.655 21.199,389.200 20.525,389.200 20.342 C 389.200 19.765,380.108 10.888,379.233 10.611 C 378.775 10.465,378.400 10.207,378.400 10.037 C 378.400 9.868,377.682 9.385,376.805 8.964 C 375.927 8.544,375.207 8.065,375.205 7.900 C 375.202 7.735,374.930 7.600,374.600 7.600 C 374.270 7.600,374.000 7.420,374.000 7.200 C 374.000 6.980,373.730 6.800,373.400 6.800 C 373.070 6.800,372.800 6.620,372.800 6.400 C 372.800 6.180,372.530 6.000,372.200 6.000 C 371.870 6.000,371.600 5.820,371.600 5.600 C 371.600 5.380,371.240 5.200,370.800 5.200 C 370.360 5.200,370.000 5.020,370.000 4.800 C 370.000 4.580,369.651 4.400,369.224 4.400 C 368.797 4.400,368.336 4.220,368.200 4.000 C 368.064 3.780,367.513 3.600,366.976 3.600 C 366.439 3.600,366.000 3.420,366.000 3.200 C 366.000 2.980,365.651 2.800,365.224 2.800 C 364.797 2.800,364.336 2.620,364.200 2.400 C 364.064 2.180,363.524 2.000,363.000 2.000 C 362.476 2.000,361.936 1.820,361.800 1.600 C 361.664 1.380,360.948 1.200,360.210 1.200 C 359.471 1.200,358.792 0.975,358.700 0.700 C 358.544 0.230,48.871 -0.170,43.100 0.292 M44.419 39.722 C 42.537 40.322,40.285 42.673,39.690 44.656 C 38.909 47.263,38.981 298.979,39.764 300.851 C 40.643 302.956,41.992 304.434,43.769 305.241 C 46.362 306.419,354.019 306.417,356.316 305.239 C 358.192 304.277,359.393 302.993,360.181 301.107 C 360.735 299.781,360.800 286.349,360.800 172.608 L 360.800 45.591 359.946 43.775 C 359.021 41.806,357.383 40.373,355.240 39.655 C 353.329 39.015,46.428 39.081,44.419 39.722 M345.501 172.700 L 345.601 290.800 200.001 290.800 L 54.400 290.800 54.400 172.867 C 54.400 108.003,54.520 54.813,54.667 54.666 C 54.814 54.519,120.289 54.444,200.167 54.499 L 345.400 54.600 345.501 172.700 M392.284 110.400 C 392.147 110.924,391.738 111.200,391.099 111.200 C 385.367 111.200,382.646 119.484,386.967 123.778 C 389.126 125.923,395.600 127.889,395.600 126.400 C 395.600 126.180,395.960 126.000,396.400 126.000 C 396.840 126.000,397.200 125.832,397.200 125.627 C 397.200 125.422,397.543 125.145,397.961 125.012 C 401.238 123.972,400.600 112.479,397.205 111.402 C 396.762 111.261,396.400 110.978,396.400 110.773 C 396.400 110.568,395.871 110.400,395.224 110.400 C 394.577 110.400,393.936 110.220,393.800 110.000 C 393.382 109.324,392.505 109.556,392.284 110.400 M217.400 110.823 C 216.520 111.005,215.003 111.164,214.028 111.177 C 213.054 111.190,211.704 111.366,211.028 111.569 C 210.353 111.772,208.810 112.150,207.600 112.409 C 187.868 116.631,170.210 132.684,163.391 152.600 C 159.882 162.852,159.161 176.674,161.624 186.500 C 162.450 189.797,162.906 191.437,163.207 192.200 C 163.380 192.640,163.930 194.080,164.428 195.400 C 168.049 204.997,174.556 213.887,183.000 220.775 C 186.263 223.437,190.571 226.400,191.178 226.400 C 191.410 226.400,191.600 226.580,191.600 226.800 C 191.600 227.020,191.960 227.200,192.400 227.200 C 192.840 227.200,193.200 227.336,193.200 227.502 C 193.200 227.669,193.785 228.056,194.500 228.364 C 195.215 228.671,196.610 229.273,197.600 229.701 C 200.592 230.995,200.904 231.111,203.600 231.938 C 218.553 236.525,235.377 235.279,249.000 228.576 C 253.190 226.515,254.947 225.519,255.133 225.100 C 255.207 224.935,255.460 224.800,255.696 224.800 C 256.043 224.800,260.016 221.996,260.800 221.199 C 260.910 221.087,262.152 220.010,263.561 218.805 C 269.524 213.706,268.740 206.757,261.944 204.470 C 259.163 203.534,257.200 204.462,251.585 209.368 C 230.082 228.155,191.681 219.705,179.925 193.600 C 178.440 190.301,178.040 189.312,177.578 187.800 C 177.309 186.920,176.948 185.840,176.775 185.400 C 174.924 180.692,174.465 167.534,175.986 162.800 C 176.163 162.250,176.526 160.990,176.793 160.000 C 177.060 159.010,177.440 157.887,177.639 157.505 C 177.838 157.123,178.000 156.597,178.000 156.336 C 178.000 153.902,184.474 143.800,188.744 139.570 C 193.594 134.766,202.763 128.800,205.295 128.800 C 205.595 128.800,206.011 128.651,206.220 128.470 C 206.720 128.035,211.229 126.779,214.600 126.136 C 218.277 125.434,232.094 125.982,232.631 126.850 C 232.750 127.043,233.431 127.200,234.144 127.200 C 234.857 127.200,235.611 127.343,235.820 127.518 C 236.029 127.693,236.920 128.068,237.800 128.352 C 242.828 129.969,248.519 133.233,252.749 136.925 C 256.116 139.864,256.572 140.190,258.029 140.700 C 263.799 142.720,269.468 136.436,267.061 130.687 C 265.142 126.104,251.549 116.988,242.000 113.881 C 233.553 111.132,222.530 109.762,217.400 110.823 M119.851 112.640 C 96.712 117.239,94.647 149.538,117.000 157.218 C 129.163 161.397,141.337 154.944,146.462 141.600 C 147.175 139.746,147.197 129.837,146.490 129.130 C 146.221 128.861,146.000 128.341,146.000 127.976 C 146.000 124.955,139.412 117.161,135.000 114.963 C 129.527 112.237,125.210 111.575,119.851 112.640 M127.251 127.769 C 132.368 129.926,133.976 137.802,129.964 141.057 C 124.212 145.725,116.300 142.497,116.300 135.483 C 116.300 129.392,121.842 125.488,127.251 127.769 M141.035 322.813 C 136.509 325.071,136.600 324.605,136.600 345.600 L 136.600 363.400 137.591 364.800 C 140.650 369.120,135.661 368.800,200.000 368.800 C 261.070 368.800,258.387 368.901,261.001 366.502 C 263.456 364.249,263.400 364.738,263.400 345.440 C 263.400 324.533,263.423 324.641,258.451 322.564 C 255.988 321.534,143.117 321.774,141.035 322.813 M312.911 322.564 C 309.180 323.922,308.246 325.750,308.000 332.180 L 307.800 337.400 303.000 337.646 C 294.859 338.064,292.367 339.859,292.429 345.262 C 292.491 350.630,294.840 352.492,301.922 352.788 C 308.416 353.059,308.000 352.670,308.000 358.469 C 308.000 366.106,311.306 369.710,316.984 368.262 C 321.406 367.134,322.800 364.751,322.800 358.320 C 322.800 352.625,322.632 352.800,328.093 352.800 C 335.252 352.800,338.400 350.541,338.400 345.403 C 338.400 340.120,335.447 337.949,327.800 337.612 L 323.000 337.400 322.800 332.136 C 322.499 324.220,318.636 320.482,312.911 322.564 M247.767 337.443 C 248.314 337.653,248.400 338.738,248.400 345.443 L 248.400 353.200 200.000 353.200 L 151.600 353.200 151.600 345.433 C 151.600 339.594,151.724 337.617,152.100 337.465 C 152.821 337.174,247.011 337.152,247.767 337.443 M66.031 338.527 C 59.856 341.686,60.293 350.534,66.718 352.412 C 67.711 352.702,73.957 352.805,85.663 352.722 L 103.127 352.600 104.663 351.358 C 108.021 348.643,108.768 344.442,106.483 341.121 C 105.338 339.457,104.797 339.061,102.281 338.050 C 99.824 337.062,68.079 337.480,66.031 338.527 " stroke="none" fill="#040404" fill-rule="evenodd"></path><path id="path2" d="M55.067 55.066 C 54.920 55.213,54.800 108.223,54.800 172.867 L 54.800 290.400 200.001 290.400 L 345.201 290.400 345.101 172.700 L 345.000 55.000 200.167 54.899 C 120.509 54.844,55.214 54.919,55.067 55.066 M232.600 110.774 C 233.920 111.026,235.676 111.333,236.503 111.458 C 237.329 111.583,238.105 111.845,238.226 112.042 C 238.348 112.239,238.878 112.400,239.405 112.400 C 239.931 112.400,240.866 112.602,241.481 112.850 C 243.277 113.572,244.089 113.885,246.000 114.591 C 253.737 117.449,265.783 126.134,267.648 130.200 C 269.090 133.341,268.246 137.470,265.728 139.600 C 261.708 143.001,258.153 142.526,252.643 137.851 C 248.202 134.084,240.011 129.200,238.133 129.200 C 237.834 129.200,237.277 129.038,236.895 128.839 C 236.252 128.505,234.741 128.066,231.200 127.186 C 227.432 126.249,221.713 126.065,216.600 126.717 C 211.360 127.385,210.019 127.646,209.773 128.044 C 209.652 128.240,209.111 128.400,208.571 128.400 C 208.031 128.400,207.277 128.559,206.895 128.753 C 206.513 128.948,205.750 129.285,205.200 129.503 C 194.439 133.764,185.123 142.459,180.395 152.654 C 178.347 157.072,177.747 158.587,177.409 160.200 C 177.270 160.860,176.956 162.210,176.711 163.200 C 175.834 166.737,176.248 183.129,177.241 184.180 C 177.438 184.389,177.600 185.028,177.600 185.600 C 177.600 186.172,177.749 186.811,177.930 187.020 C 178.112 187.229,178.511 188.210,178.817 189.200 C 180.463 194.531,186.091 202.700,191.131 207.072 C 192.599 208.346,193.890 209.481,194.000 209.594 C 194.462 210.070,197.953 212.400,198.204 212.400 C 198.354 212.400,198.954 212.731,199.538 213.137 C 207.051 218.348,222.812 220.420,233.400 217.587 C 238.512 216.219,245.824 213.165,246.800 211.988 C 246.910 211.856,247.900 211.141,249.000 210.400 C 250.100 209.659,251.090 208.946,251.200 208.816 C 256.303 202.773,263.374 202.016,266.974 207.128 C 270.071 211.525,268.327 216.287,261.800 221.258 C 261.140 221.761,260.510 222.284,260.400 222.420 C 260.290 222.556,258.580 223.742,256.600 225.055 C 244.051 233.377,228.957 236.952,214.575 235.009 C 206.386 233.902,200.196 231.997,193.400 228.490 C 192.300 227.923,190.996 227.265,190.503 227.029 C 190.010 226.793,189.605 226.465,189.603 226.300 C 189.601 226.135,189.330 226.000,189.000 226.000 C 188.670 226.000,188.400 225.820,188.400 225.600 C 188.400 225.380,188.192 225.200,187.937 225.200 C 186.457 225.200,176.331 216.132,173.356 212.143 C 172.722 211.294,172.098 210.510,171.968 210.400 C 170.536 209.187,165.057 199.376,163.536 195.300 C 163.351 194.805,163.035 193.995,162.833 193.500 C 162.632 193.005,162.350 192.150,162.206 191.600 C 162.063 191.050,161.765 189.970,161.543 189.200 C 159.528 182.204,158.845 171.391,159.950 164.000 C 160.230 162.130,160.555 159.924,160.672 159.097 C 160.789 158.271,161.045 157.495,161.242 157.374 C 161.439 157.252,161.600 156.711,161.600 156.171 C 161.600 155.631,161.758 154.877,161.951 154.495 C 162.144 154.113,162.519 153.080,162.784 152.200 C 163.304 150.475,163.820 149.241,165.709 145.200 C 173.059 129.482,188.624 116.667,206.000 112.026 C 206.990 111.762,208.353 111.378,209.028 111.173 C 209.704 110.968,210.964 110.787,211.828 110.772 C 212.693 110.756,213.760 110.584,214.200 110.388 C 215.287 109.905,229.613 110.205,232.600 110.774 M130.570 112.306 C 137.879 114.359,143.625 119.838,146.819 127.800 C 149.940 135.580,147.299 145.725,140.416 152.400 C 137.498 155.229,134.640 156.856,129.972 158.345 C 128.200 158.909,118.943 158.955,118.600 158.400 C 118.464 158.180,117.984 158.000,117.532 158.000 C 117.081 158.000,115.382 157.343,113.758 156.540 C 99.091 149.292,95.844 130.027,107.358 118.573 C 110.246 115.700,115.772 112.408,117.729 112.394 C 118.208 112.391,118.870 112.208,119.200 111.987 C 119.965 111.477,128.466 111.715,130.570 112.306 M122.400 128.095 C 117.990 129.453,115.558 134.374,117.445 138.120 C 118.333 139.883,120.412 142.000,121.255 142.000 C 121.639 142.000,122.064 142.180,122.200 142.400 C 122.336 142.620,123.236 142.800,124.200 142.800 C 125.164 142.800,126.064 142.620,126.200 142.400 C 126.336 142.180,126.743 142.000,127.104 142.000 C 128.379 142.000,131.076 138.621,131.371 136.655 C 131.919 133.002,129.575 128.928,126.545 128.269 C 125.915 128.131,125.040 127.939,124.600 127.842 C 124.160 127.744,123.170 127.858,122.400 128.095 " stroke="none" fill="#fbf3f3" fill-rule="evenodd"></path><path id="path3" d="M152.268 337.865 C 152.121 338.013,152.000 341.433,152.000 345.467 L 152.000 352.800 200.009 352.800 L 248.018 352.800 247.909 345.300 L 247.800 337.800 200.168 337.698 C 173.971 337.642,152.416 337.717,152.268 337.865 " stroke="none" fill="#faca6b" fill-rule="evenodd"></path><path id="path4" d="M47.099 16.206 C 31.110 19.697,19.534 31.347,16.207 47.295 C 15.286 51.708,15.286 348.292,16.207 352.705 C 19.415 368.083,30.443 379.677,45.400 383.396 L 49.400 384.391 199.800 384.395 C 330.296 384.399,350.571 384.322,353.000 383.814 C 368.013 380.675,379.707 369.436,383.396 354.600 L 384.391 350.600 384.401 250.200 C 384.410 169.286,384.513 149.464,384.929 148.071 C 385.858 144.965,388.706 142.400,391.225 142.400 C 391.625 142.400,392.044 142.253,392.155 142.072 C 392.862 140.928,388.423 142.459,386.727 143.944 C 383.967 146.361,384.223 136.460,383.990 249.800 L 383.780 351.800 382.927 354.800 C 378.510 370.345,366.179 381.463,351.000 383.587 C 345.265 384.389,48.803 383.944,46.000 383.129 C 37.575 380.679,32.500 377.810,27.345 372.583 C 21.414 366.570,18.037 360.025,16.622 351.800 C 15.679 346.317,15.679 53.683,16.622 48.200 C 19.050 34.086,29.112 22.325,42.439 18.023 C 49.070 15.883,39.844 16.001,200.000 16.002 C 360.620 16.003,351.524 15.884,357.730 18.057 C 359.011 18.506,360.162 18.771,360.287 18.646 C 360.412 18.521,360.264 18.335,359.957 18.232 C 351.364 15.359,366.031 15.595,199.600 15.652 C 80.708 15.693,48.920 15.809,47.099 16.206 M360.800 18.958 C 360.800 19.045,361.745 19.610,362.900 20.213 C 371.618 24.765,378.929 33.106,381.824 41.800 C 383.715 47.482,383.700 47.289,383.955 68.800 C 384.196 89.088,384.213 89.425,385.089 91.062 C 386.383 93.482,389.456 95.600,391.672 95.600 C 393.015 95.600,392.069 94.882,390.343 94.590 C 388.072 94.207,385.505 91.633,384.867 89.100 C 384.544 87.818,384.399 81.408,384.395 68.323 C 384.389 42.268,382.994 37.196,373.069 27.129 C 369.150 23.154,360.800 17.593,360.800 18.958 M43.435 39.613 C 41.289 40.684,40.588 41.387,39.624 43.438 L 38.796 45.199 38.898 173.165 L 39.000 301.131 40.217 302.862 C 40.886 303.814,42.146 304.997,43.017 305.490 L 44.600 306.387 200.108 306.393 L 355.616 306.400 357.228 305.382 C 358.115 304.823,359.371 303.527,360.020 302.504 L 361.200 300.643 361.200 172.917 L 361.200 45.191 360.352 43.387 C 359.433 41.432,358.167 40.248,356.051 39.364 C 353.569 38.327,45.521 38.572,43.435 39.613 M355.240 39.655 C 357.383 40.373,359.021 41.806,359.946 43.775 L 360.800 45.591 360.800 172.608 C 360.800 286.349,360.735 299.781,360.181 301.107 C 359.393 302.993,358.192 304.277,356.316 305.239 C 354.019 306.417,46.362 306.419,43.769 305.241 C 41.992 304.434,40.643 302.956,39.764 300.851 C 38.981 298.979,38.909 47.263,39.690 44.656 C 40.285 42.673,42.537 40.322,44.419 39.722 C 46.428 39.081,353.329 39.015,355.240 39.655 M54.667 54.666 C 54.296 55.037,54.329 290.800,54.700 290.800 C 54.865 290.800,54.954 237.700,54.899 172.800 L 54.797 54.800 200.000 54.800 L 345.203 54.800 345.101 172.800 C 345.046 237.700,345.135 290.800,345.301 290.800 C 345.466 290.800,345.556 237.655,345.501 172.700 L 345.400 54.600 200.167 54.499 C 120.289 54.444,54.814 54.519,54.667 54.666 M213.600 110.800 L 211.800 111.080 213.800 111.117 C 214.900 111.137,216.520 111.005,217.400 110.823 L 219.000 110.492 217.200 110.506 C 216.210 110.514,214.590 110.646,213.600 110.800 M228.000 110.843 C 236.545 111.944,242.493 113.627,249.000 116.782 C 251.200 117.849,253.067 118.657,253.149 118.578 C 253.447 118.292,245.779 114.761,242.432 113.643 C 236.772 111.754,232.846 110.918,228.400 110.656 L 225.000 110.456 228.000 110.843 M391.000 110.674 C 385.079 111.435,382.126 118.559,385.758 123.317 C 387.132 125.117,390.340 126.937,391.714 126.697 C 392.357 126.585,392.056 126.395,390.622 126.004 C 382.793 123.873,383.149 111.200,391.038 111.200 C 391.541 111.200,392.064 111.020,392.200 110.800 C 392.336 110.580,392.392 110.427,392.324 110.460 C 392.256 110.493,391.660 110.589,391.000 110.674 M207.290 111.997 C 201.701 113.405,192.070 117.315,191.359 118.467 C 191.230 118.675,192.724 118.043,194.679 117.061 C 199.402 114.688,207.352 112.010,209.720 111.994 C 210.204 111.991,210.870 111.813,211.200 111.600 C 212.136 110.995,210.681 111.143,207.290 111.997 M123.505 111.883 C 124.002 111.979,124.722 111.975,125.105 111.875 C 125.487 111.775,125.080 111.696,124.200 111.701 C 123.320 111.705,123.007 111.787,123.505 111.883 M119.200 112.274 C 113.507 113.211,106.242 118.792,103.390 124.419 C 102.008 127.147,102.164 127.455,103.604 124.842 C 107.265 118.200,112.803 114.041,119.851 112.640 C 122.290 112.155,121.754 111.853,119.200 112.274 M128.200 112.567 C 135.323 114.142,141.861 118.919,144.563 124.525 C 145.179 125.804,145.767 126.766,145.870 126.664 C 146.172 126.361,144.619 123.584,142.664 120.929 C 139.449 116.564,132.997 112.695,128.200 112.257 L 125.800 112.037 128.200 112.567 M186.617 121.318 C 177.993 127.294,170.539 135.995,165.988 145.400 C 164.081 149.341,161.792 155.525,162.119 155.853 C 162.212 155.945,162.774 154.549,163.368 152.751 C 166.411 143.543,172.443 134.139,179.501 127.600 C 183.153 124.216,183.384 124.032,187.069 121.562 C 190.646 119.165,191.122 118.792,190.580 118.818 C 190.371 118.827,188.588 119.952,186.617 121.318 M253.600 118.916 C 253.600 119.008,254.905 119.927,256.500 120.959 C 258.305 122.126,258.913 122.405,258.110 121.697 C 256.854 120.588,253.600 118.582,253.600 118.916 M262.901 125.970 C 264.827 127.788,266.576 129.573,266.789 129.938 C 267.044 130.374,267.180 130.420,267.188 130.074 C 267.202 129.448,263.736 125.948,261.200 124.028 C 260.210 123.278,260.976 124.152,262.901 125.970 M215.914 125.928 C 215.537 126.078,218.274 126.200,221.998 126.200 C 225.721 126.200,228.460 126.078,228.084 125.928 C 227.708 125.779,224.970 125.656,222.000 125.656 C 219.030 125.656,216.291 125.779,215.914 125.928 M211.600 126.821 C 211.170 127.114,211.454 127.154,212.600 126.962 C 214.584 126.630,214.904 126.398,213.367 126.406 C 212.725 126.409,211.930 126.596,211.600 126.821 M229.633 126.543 C 230.050 126.902,232.797 127.119,232.585 126.776 C 232.457 126.569,231.703 126.400,230.910 126.400 C 230.116 126.400,229.542 126.465,229.633 126.543 M101.873 127.753 C 101.723 128.145,101.611 128.766,101.625 129.133 C 101.642 129.575,101.781 129.474,102.037 128.834 C 102.249 128.303,102.361 127.682,102.285 127.454 C 102.209 127.227,102.024 127.361,101.873 127.753 M120.454 128.046 C 118.375 129.265,116.384 131.806,116.417 133.200 C 116.425 133.530,116.704 133.171,117.037 132.403 C 119.386 126.987,126.742 125.915,130.113 130.496 C 132.006 133.069,132.275 134.595,131.437 138.000 C 131.231 138.838,131.286 138.806,131.778 137.800 C 134.728 131.761,126.381 124.571,120.454 128.046 M146.028 127.876 C 146.013 128.358,146.180 128.864,146.400 129.000 C 146.873 129.292,146.873 128.901,146.400 127.800 C 146.069 127.029,146.055 127.031,146.028 127.876 M208.400 127.600 C 207.605 128.114,208.604 128.114,209.800 127.600 L 210.600 127.256 209.800 127.234 C 209.360 127.222,208.730 127.387,208.400 127.600 M233.633 127.344 C 234.105 127.750,236.043 127.993,235.810 127.616 C 235.668 127.387,235.083 127.200,234.510 127.200 C 233.936 127.200,233.542 127.265,233.633 127.344 M202.462 129.852 C 201.286 130.405,200.405 130.939,200.505 131.038 C 200.605 131.138,201.837 130.675,203.243 130.010 C 204.649 129.345,205.530 128.811,205.200 128.824 C 204.870 128.837,203.638 129.300,202.462 129.852 M243.800 131.333 C 247.394 133.266,250.709 135.549,252.797 137.531 C 254.588 139.231,256.407 140.550,256.377 140.127 C 256.321 139.317,246.994 132.450,243.771 130.845 C 240.080 129.008,240.100 129.345,243.800 131.333 M100.971 131.414 C 100.614 133.318,101.002 139.830,101.587 141.738 C 102.318 144.122,102.406 143.287,101.729 140.398 C 101.313 138.623,101.177 136.564,101.299 133.900 C 101.489 129.765,101.403 129.112,100.971 131.414 M147.000 135.200 C 147.000 138.086,147.117 140.032,147.260 139.524 C 147.403 139.016,147.520 137.070,147.520 135.200 C 147.520 133.330,147.403 131.384,147.260 130.876 C 147.117 130.368,147.000 132.314,147.000 135.200 M267.506 132.767 C 267.944 137.325,263.452 142.012,259.533 141.085 C 259.020 140.964,258.150 140.758,257.600 140.628 C 256.948 140.474,257.085 140.616,257.995 141.036 C 262.337 143.041,268.000 138.820,268.000 133.578 C 268.000 132.296,267.847 131.153,267.660 131.037 C 267.473 130.922,267.404 131.700,267.506 132.767 M196.963 132.921 C 192.746 135.825,191.217 136.990,191.209 137.307 C 191.204 137.475,192.325 136.743,193.700 135.679 C 195.075 134.614,197.055 133.254,198.100 132.655 C 199.883 131.633,200.398 131.172,199.700 131.221 C 199.535 131.233,198.303 131.998,196.963 132.921 M116.400 137.689 C 116.400 138.031,116.758 138.736,117.196 139.256 L 117.992 140.200 117.334 138.800 C 116.512 137.048,116.400 136.915,116.400 137.689 M187.935 140.344 C 185.326 143.150,180.971 149.104,181.293 149.426 C 181.389 149.523,182.392 148.206,183.520 146.501 C 184.649 144.795,186.744 142.151,188.177 140.624 C 189.610 139.098,190.721 137.787,190.646 137.712 C 190.571 137.637,189.351 138.821,187.935 140.344 M129.315 140.810 C 127.467 142.555,127.436 142.856,129.239 141.572 C 130.184 140.899,131.556 139.171,131.114 139.210 C 131.051 139.216,130.242 139.936,129.315 140.810 M118.000 140.581 C 118.000 142.139,126.104 144.242,126.939 142.900 C 127.042 142.735,125.979 142.660,124.577 142.734 C 122.091 142.864,118.800 141.720,118.800 140.726 C 118.800 140.547,118.620 140.400,118.400 140.400 C 118.180 140.400,118.000 140.481,118.000 140.581 M146.200 142.000 C 146.050 142.473,146.017 142.950,146.127 143.060 C 146.237 143.170,146.450 142.873,146.600 142.400 C 146.750 141.927,146.783 141.450,146.673 141.340 C 146.563 141.230,146.350 141.527,146.200 142.000 M102.400 143.921 C 102.400 144.447,103.882 147.209,104.481 147.800 C 104.704 148.020,104.395 147.210,103.795 146.000 C 102.567 143.524,102.400 143.275,102.400 143.921 M144.675 145.675 C 144.104 146.828,143.707 147.840,143.792 147.925 C 143.877 148.010,144.420 147.144,145.000 146.000 C 145.580 144.856,145.977 143.844,145.883 143.750 C 145.789 143.656,145.246 144.522,144.675 145.675 M105.569 149.556 C 107.771 152.649,116.128 158.405,117.061 157.472 C 117.200 157.333,116.974 157.113,116.557 156.984 C 113.005 155.881,107.575 152.036,106.141 149.608 C 105.749 148.944,105.274 148.400,105.087 148.400 C 104.899 148.400,105.116 148.920,105.569 149.556 M142.800 148.726 C 142.800 150.303,135.524 155.779,131.843 156.973 C 131.426 157.108,131.193 157.326,131.323 157.457 C 131.750 157.883,137.427 154.853,139.315 153.191 C 141.502 151.266,143.846 148.400,143.234 148.400 C 142.995 148.400,142.800 148.547,142.800 148.726 M179.374 152.974 C 178.618 154.609,178.008 156.184,178.017 156.474 C 178.026 156.763,178.447 156.010,178.952 154.800 C 179.456 153.590,180.173 152.015,180.545 151.300 C 180.917 150.585,181.114 150.000,180.984 150.000 C 180.854 150.000,180.130 151.338,179.374 152.974 M161.649 156.800 C 161.616 157.130,161.489 157.850,161.367 158.400 C 161.175 159.264,161.207 159.303,161.599 158.688 C 161.848 158.297,161.975 157.577,161.881 157.088 C 161.786 156.600,161.682 156.470,161.649 156.800 M118.400 158.000 C 118.950 158.176,119.760 158.326,120.200 158.332 L 121.000 158.344 120.200 158.000 C 119.760 157.811,118.950 157.662,118.400 157.668 L 117.400 157.680 118.400 158.000 M128.200 158.000 L 127.400 158.344 128.200 158.332 C 128.640 158.326,129.450 158.176,130.000 158.000 L 131.000 157.680 130.000 157.668 C 129.450 157.662,128.640 157.811,128.200 158.000 M122.691 158.689 C 123.401 158.777,124.661 158.779,125.491 158.692 C 126.321 158.605,125.740 158.533,124.200 158.531 C 122.660 158.529,121.981 158.600,122.691 158.689 M160.864 160.250 C 160.829 160.718,160.705 161.708,160.589 162.450 C 160.396 163.686,160.415 163.717,160.808 162.814 C 161.045 162.272,161.168 161.282,161.083 160.614 C 160.991 159.897,160.902 159.748,160.864 160.250 M176.592 160.653 C 176.456 161.284,176.177 162.213,175.972 162.719 C 175.768 163.224,175.627 164.304,175.660 165.119 C 175.715 166.476,175.734 166.500,175.894 165.400 C 175.989 164.740,176.321 163.223,176.630 162.030 C 176.940 160.836,177.113 159.780,177.016 159.683 C 176.919 159.585,176.728 160.022,176.592 160.653 M159.797 168.911 C 159.642 171.391,159.680 175.216,159.881 177.411 C 160.221 181.123,160.249 180.810,160.283 172.900 C 160.325 163.321,160.207 162.353,159.797 168.911 M175.050 168.450 C 174.721 170.095,174.780 176.408,175.133 177.298 C 175.285 177.683,175.417 175.568,175.427 172.598 C 175.445 166.771,175.427 166.566,175.050 168.450 M175.606 180.233 C 175.609 181.095,175.788 182.070,176.003 182.400 C 176.270 182.810,176.314 182.365,176.141 181.000 C 175.825 178.505,175.598 178.181,175.606 180.233 M160.653 183.400 C 160.869 185.384,161.238 186.904,163.031 193.200 C 163.187 193.750,163.440 194.380,163.592 194.600 C 163.745 194.820,164.297 196.080,164.820 197.400 C 165.795 199.859,167.534 203.200,167.839 203.200 C 167.933 203.200,167.408 201.985,166.672 200.500 C 165.936 199.015,164.926 196.720,164.428 195.400 C 163.930 194.080,163.380 192.640,163.207 192.200 C 162.789 191.140,161.708 187.025,160.843 183.200 L 160.436 181.400 160.653 183.400 M176.400 184.110 C 176.400 184.683,176.587 185.268,176.816 185.410 C 177.089 185.579,177.138 185.277,176.960 184.534 C 176.592 183.001,176.400 182.856,176.400 184.110 M178.800 190.959 C 178.800 191.525,181.224 196.213,182.027 197.200 C 182.475 197.750,181.991 196.580,180.952 194.600 C 178.910 190.706,178.800 190.520,178.800 190.959 M183.012 198.800 C 186.631 205.394,199.619 215.547,206.200 216.927 C 207.349 217.168,207.358 217.160,206.400 216.740 C 196.416 212.362,191.198 208.618,185.904 202.034 C 183.149 198.607,182.521 197.905,183.012 198.800 M168.000 203.729 C 168.000 204.094,170.045 207.200,170.286 207.200 C 170.479 207.200,168.892 204.448,168.336 203.820 C 168.151 203.611,168.000 203.570,168.000 203.729 M257.600 204.400 C 256.805 204.914,257.804 204.914,259.000 204.400 L 259.800 204.056 259.000 204.034 C 258.560 204.022,257.930 204.187,257.600 204.400 M261.600 204.400 C 261.930 204.613,262.470 204.788,262.800 204.788 C 263.333 204.788,263.333 204.745,262.800 204.400 C 262.470 204.187,261.930 204.012,261.600 204.012 C 261.067 204.012,261.067 204.055,261.600 204.400 M254.535 206.400 C 247.627 212.115,243.582 214.579,237.553 216.748 C 235.709 217.411,234.414 217.965,234.676 217.977 C 236.849 218.081,249.012 212.087,250.800 210.030 C 250.910 209.904,252.170 208.823,253.600 207.630 C 257.058 204.743,256.996 204.800,256.715 204.800 C 256.580 204.800,255.599 205.520,254.535 206.400 M264.750 205.873 C 268.958 209.188,268.458 214.617,263.561 218.805 C 262.152 220.010,260.910 221.087,260.800 221.199 C 259.978 222.035,256.034 224.800,255.663 224.800 C 255.408 224.800,255.200 225.001,255.200 225.246 C 255.200 226.776,265.831 217.826,267.232 215.116 C 268.987 211.723,266.678 204.788,263.800 204.806 C 263.580 204.808,264.008 205.288,264.750 205.873 M171.545 209.321 C 175.005 214.349,181.762 220.810,187.600 224.673 C 191.557 227.292,191.600 227.315,191.600 226.824 C 191.600 226.591,191.410 226.400,191.178 226.400 C 188.957 226.400,177.212 216.159,172.943 210.500 C 170.552 207.330,169.656 206.574,171.545 209.321 M208.000 217.600 C 208.330 217.813,208.870 217.988,209.200 217.988 C 209.733 217.988,209.733 217.945,209.200 217.600 C 208.870 217.387,208.330 217.212,208.000 217.212 C 207.467 217.212,207.467 217.255,208.000 217.600 M210.600 218.400 C 211.040 218.589,211.760 218.744,212.200 218.744 L 213.000 218.744 212.200 218.400 C 211.760 218.211,211.040 218.056,210.600 218.056 L 209.800 218.056 210.600 218.400 M231.800 218.400 L 231.000 218.744 231.800 218.744 C 232.240 218.744,232.960 218.589,233.400 218.400 L 234.200 218.056 233.400 218.056 C 232.960 218.056,232.240 218.211,231.800 218.400 M214.800 219.183 C 215.774 219.511,220.299 219.747,219.967 219.452 C 219.875 219.371,218.450 219.201,216.800 219.075 C 214.954 218.934,214.185 218.975,214.800 219.183 M225.600 219.200 L 223.400 219.470 225.800 219.495 C 227.120 219.509,228.650 219.376,229.200 219.200 C 230.493 218.786,228.979 218.786,225.600 219.200 M253.200 226.433 L 252.200 227.248 253.500 226.614 C 254.215 226.265,254.800 225.894,254.800 225.790 C 254.800 225.392,254.163 225.648,253.200 226.433 M249.484 228.307 C 248.430 228.854,247.647 229.380,247.744 229.477 C 247.944 229.677,252.000 227.691,252.000 227.393 C 252.000 227.079,251.508 227.258,249.484 228.307 M196.538 229.647 C 197.384 230.093,198.168 230.365,198.281 230.252 C 198.476 230.057,195.780 228.780,195.251 228.818 C 195.113 228.827,195.692 229.200,196.538 229.647 M244.000 230.800 C 243.467 231.145,243.467 231.188,244.000 231.188 C 244.330 231.188,244.870 231.013,245.200 230.800 C 245.733 230.455,245.733 230.412,245.200 230.412 C 244.870 230.412,244.330 230.587,244.000 230.800 M201.200 231.325 C 201.200 231.647,205.222 232.912,205.466 232.667 C 205.584 232.549,204.931 232.251,204.015 232.004 C 203.099 231.757,202.091 231.456,201.775 231.335 C 201.459 231.214,201.200 231.209,201.200 231.325 M241.600 231.600 C 241.067 231.945,241.067 231.988,241.600 231.988 C 241.930 231.988,242.470 231.813,242.800 231.600 C 243.333 231.255,243.333 231.212,242.800 231.212 C 242.470 231.212,241.930 231.387,241.600 231.600 M239.200 232.400 C 238.667 232.745,238.667 232.788,239.200 232.788 C 239.530 232.788,240.070 232.613,240.400 232.400 C 240.933 232.055,240.933 232.012,240.400 232.012 C 240.070 232.012,239.530 232.187,239.200 232.400 M206.600 233.200 C 207.040 233.389,207.850 233.538,208.400 233.532 L 209.400 233.520 208.400 233.200 C 207.850 233.024,207.040 232.874,206.600 232.868 L 205.800 232.856 206.600 233.200 M233.600 233.611 C 231.730 234.003,230.684 234.341,231.275 234.362 C 232.337 234.400,237.638 233.295,237.965 232.968 C 238.232 232.702,237.245 232.847,233.600 233.611 M210.400 234.000 C 210.950 234.176,212.030 234.317,212.800 234.314 L 214.200 234.308 212.600 233.977 C 210.463 233.535,208.996 233.550,210.400 234.000 M216.000 234.866 C 218.348 235.224,226.164 235.231,228.158 234.877 C 229.015 234.725,226.225 234.598,221.958 234.596 C 217.682 234.593,215.008 234.715,216.000 234.866 M140.659 322.401 C 138.862 323.298,137.358 324.873,136.563 326.687 C 135.688 328.687,135.739 361.801,136.621 363.913 C 137.770 366.663,140.468 368.827,142.680 368.772 C 143.622 368.749,143.513 368.653,142.000 368.168 C 139.946 367.511,138.998 366.787,137.591 364.800 L 136.600 363.400 136.600 345.600 C 136.600 324.511,136.572 324.644,141.549 322.564 C 143.568 321.720,256.432 321.720,258.451 322.564 C 260.474 323.409,261.902 324.675,262.692 326.323 C 263.685 328.396,263.783 362.339,262.801 364.240 C 261.894 365.994,260.006 367.543,258.000 368.176 C 256.359 368.694,256.308 368.747,257.420 368.772 C 260.072 368.833,263.042 365.891,263.932 362.323 C 264.623 359.551,264.578 330.861,263.878 328.163 C 263.194 325.526,261.577 323.466,259.383 322.434 C 256.699 321.172,143.183 321.141,140.659 322.401 M312.175 322.317 C 308.174 324.548,307.478 325.962,307.267 332.276 L 307.103 337.200 302.652 337.209 C 295.260 337.223,291.889 339.650,291.828 345.002 C 291.762 350.769,294.402 352.896,302.000 353.200 L 307.000 353.400 307.228 358.400 C 307.463 363.579,307.694 364.372,309.600 366.536 C 310.875 367.984,312.455 368.808,313.880 368.769 C 314.959 368.740,314.948 368.721,313.590 368.269 C 309.000 366.741,308.000 364.988,308.000 358.469 C 308.000 352.670,308.416 353.059,301.922 352.788 C 294.840 352.492,292.491 350.630,292.429 345.262 C 292.367 339.859,294.859 338.064,303.000 337.646 L 307.800 337.400 308.000 332.180 C 308.250 325.645,309.170 323.903,313.094 322.537 C 318.771 320.560,322.500 324.248,322.800 332.136 L 323.000 337.400 327.800 337.612 C 335.447 337.949,338.400 340.120,338.400 345.403 C 338.400 350.541,335.252 352.800,328.093 352.800 C 322.632 352.800,322.800 352.625,322.800 358.320 C 322.800 364.692,321.425 367.091,317.103 368.261 C 315.682 368.645,315.585 368.728,316.516 368.761 C 320.933 368.916,323.600 364.666,323.600 357.472 L 323.600 353.200 328.416 353.200 C 334.988 353.200,337.243 351.968,338.720 347.572 C 340.748 341.537,336.329 337.225,328.100 337.209 L 323.600 337.200 323.594 333.100 C 323.581 324.296,318.028 319.052,312.175 322.317 M65.691 338.047 C 63.828 338.969,61.600 341.377,61.600 342.468 C 61.600 342.844,61.420 343.264,61.200 343.400 C 59.365 344.534,62.179 350.859,65.207 352.404 C 67.353 353.498,101.772 353.652,103.928 352.576 C 110.130 349.482,109.569 340.233,103.027 337.730 C 100.496 336.762,67.725 337.040,65.691 338.047 M152.100 337.465 C 151.724 337.617,151.600 339.594,151.600 345.433 L 151.600 353.200 200.000 353.200 L 248.400 353.200 248.400 345.443 C 248.400 338.738,248.314 337.653,247.767 337.443 C 247.011 337.152,152.821 337.174,152.100 337.465 M102.281 338.050 C 104.797 339.061,105.338 339.457,106.483 341.121 C 108.768 344.442,108.021 348.643,104.663 351.358 L 103.127 352.600 85.663 352.722 C 73.957 352.805,67.711 352.702,66.718 352.412 C 60.293 350.534,59.856 341.686,66.031 338.527 C 68.079 337.480,99.824 337.062,102.281 338.050 M247.909 345.300 L 248.018 352.800 200.009 352.800 L 152.000 352.800 152.000 345.467 C 152.000 341.433,152.121 338.013,152.268 337.865 C 152.416 337.717,173.971 337.642,200.168 337.698 L 247.800 337.800 247.909 345.300 " stroke="none" fill="#5f6067" fill-rule="evenodd"></path></g></svg>