<svg id="svg" version="1.1" xmlns="http://www.w3.org/2000/svg" xmlns:xlink="http://www.w3.org/1999/xlink" width="400" height="400" viewBox="0, 0, 400,400"><g id="svgg"><path id="path0" d="M59.500 0.269 C 58.895 0.370,58.400 0.621,58.400 0.827 C 58.400 1.032,57.860 1.200,57.200 1.200 C 56.540 1.200,56.000 1.380,56.000 1.600 C 56.000 1.820,55.640 2.000,55.200 2.000 C 54.760 2.000,54.400 2.150,54.400 2.332 C 54.400 2.515,53.905 2.919,53.300 3.230 C 52.695 3.540,51.909 4.111,51.553 4.497 C 51.197 4.884,50.702 5.200,50.453 5.200 C 50.204 5.200,50.000 5.380,50.000 5.600 C 50.000 5.820,49.775 6.010,49.500 6.023 C 48.634 6.062,44.468 11.726,43.633 14.000 C 43.351 14.770,42.961 15.760,42.767 16.200 C 41.967 18.018,41.606 22.705,41.603 31.300 L 41.600 40.400 33.600 40.400 C 28.533 40.400,25.600 40.547,25.600 40.800 C 25.600 41.020,24.891 41.200,24.024 41.200 C 23.157 41.200,22.336 41.380,22.200 41.600 C 22.064 41.820,21.558 42.001,21.076 42.001 C 20.289 42.002,16.569 43.704,14.035 45.222 C 12.096 46.383,6.800 51.377,6.800 52.044 C 6.800 52.244,6.260 52.972,5.600 53.663 C 4.940 54.354,4.400 55.162,4.400 55.459 C 4.400 55.757,4.220 56.000,4.000 56.000 C 3.780 56.000,3.600 56.345,3.600 56.767 C 3.600 57.188,3.465 57.593,3.300 57.667 C 2.812 57.884,1.200 61.213,1.200 62.004 C 1.200 62.405,0.975 62.808,0.700 62.900 C -0.036 63.145,-0.036 377.255,0.700 377.500 C 0.975 377.592,1.200 378.192,1.200 378.833 C 1.200 379.475,1.380 380.000,1.600 380.000 C 1.820 380.000,2.000 380.360,2.000 380.800 C 2.000 381.240,2.180 381.600,2.400 381.600 C 2.620 381.600,2.800 381.960,2.800 382.400 C 2.800 382.840,2.980 383.200,3.200 383.200 C 3.420 383.200,3.600 383.560,3.600 384.000 C 3.600 384.440,3.750 384.800,3.932 384.800 C 4.115 384.800,4.520 385.289,4.832 385.888 C 6.074 388.266,11.734 393.926,14.112 395.168 C 14.711 395.480,15.200 395.885,15.200 396.068 C 15.200 396.250,15.560 396.400,16.000 396.400 C 16.440 396.400,16.800 396.580,16.800 396.800 C 16.800 397.020,17.160 397.200,17.600 397.200 C 18.040 397.200,18.400 397.380,18.400 397.600 C 18.400 397.820,18.760 398.000,19.200 398.000 C 19.640 398.000,20.000 398.180,20.000 398.400 C 20.000 398.620,20.525 398.800,21.167 398.800 C 21.808 398.800,22.408 399.025,22.500 399.300 C 22.745 400.036,377.255 400.036,377.500 399.300 C 377.592 399.025,378.192 398.800,378.833 398.800 C 379.475 398.800,380.000 398.620,380.000 398.400 C 380.000 398.180,380.360 398.000,380.800 398.000 C 381.240 398.000,381.600 397.820,381.600 397.600 C 381.600 397.380,381.960 397.200,382.400 397.200 C 382.840 397.200,383.200 397.020,383.200 396.800 C 383.200 396.580,383.560 396.400,384.000 396.400 C 384.440 396.400,384.800 396.220,384.800 396.000 C 384.800 395.780,385.070 395.600,385.400 395.600 C 385.730 395.600,386.000 395.420,386.000 395.200 C 386.000 394.980,386.177 394.800,386.393 394.800 C 387.434 394.800,393.994 388.137,395.168 385.888 C 395.480 385.289,395.885 384.800,396.068 384.800 C 396.250 384.800,396.400 384.440,396.400 384.000 C 396.400 383.560,396.580 383.200,396.800 383.200 C 397.020 383.200,397.200 382.840,397.200 382.400 C 397.200 381.960,397.380 381.600,397.600 381.600 C 397.820 381.600,398.000 381.240,398.000 380.800 C 398.000 380.360,398.180 380.000,398.400 380.000 C 398.620 380.000,398.800 379.475,398.800 378.833 C 398.800 378.192,399.025 377.592,399.300 377.500 C 400.036 377.255,400.036 63.145,399.300 62.900 C 399.025 62.808,398.800 62.405,398.800 62.004 C 398.800 61.213,397.188 57.884,396.700 57.667 C 396.535 57.593,396.400 57.188,396.400 56.767 C 396.400 56.345,396.220 56.000,396.000 56.000 C 395.780 56.000,395.600 55.757,395.600 55.459 C 395.600 55.162,395.060 54.354,394.400 53.663 C 393.740 52.972,393.200 52.244,393.200 52.044 C 393.200 50.928,384.957 44.000,383.628 44.000 C 383.393 44.000,383.200 43.820,383.200 43.600 C 383.200 43.380,382.951 43.200,382.646 43.200 C 382.341 43.200,381.576 42.931,380.946 42.602 C 380.316 42.274,379.406 42.004,378.924 42.002 C 378.442 42.001,377.936 41.820,377.800 41.600 C 377.664 41.380,376.944 41.200,376.200 41.200 C 375.456 41.200,374.736 41.020,374.600 40.800 C 374.449 40.555,371.263 40.400,366.376 40.400 L 358.400 40.400 358.400 29.624 C 358.400 22.871,358.251 18.755,358.000 18.600 C 357.780 18.464,357.600 17.949,357.600 17.456 C 357.600 16.963,357.451 16.389,357.270 16.180 C 357.088 15.971,356.701 15.040,356.409 14.110 C 356.117 13.181,355.591 12.091,355.239 11.689 C 354.888 11.286,354.420 10.674,354.200 10.329 C 352.975 8.409,350.933 6.029,350.500 6.016 C 350.225 6.007,350.000 5.820,350.000 5.600 C 350.000 5.380,349.818 5.200,349.596 5.200 C 349.374 5.200,348.628 4.660,347.937 4.000 C 347.246 3.340,346.438 2.800,346.141 2.800 C 345.843 2.800,345.600 2.620,345.600 2.400 C 345.600 2.180,345.240 2.000,344.800 2.000 C 344.360 2.000,344.000 1.820,344.000 1.600 C 344.000 1.380,343.475 1.200,342.833 1.200 C 342.192 1.200,341.592 0.975,341.500 0.700 C 341.374 0.321,339.271 0.200,332.800 0.200 C 326.329 0.200,324.226 0.321,324.100 0.700 C 324.008 0.975,323.408 1.200,322.767 1.200 C 322.125 1.200,321.600 1.380,321.600 1.600 C 321.600 1.820,321.280 2.000,320.888 2.000 C 320.497 2.000,319.917 2.360,319.600 2.800 C 319.283 3.240,318.793 3.600,318.512 3.600 C 318.089 3.600,315.907 5.426,314.200 7.210 C 313.980 7.440,313.215 8.190,312.500 8.878 C 311.785 9.566,311.200 10.355,311.200 10.631 C 311.200 10.907,311.057 11.193,310.881 11.267 C 310.331 11.497,308.709 15.331,308.497 16.900 C 308.386 17.725,308.138 18.400,307.947 18.400 C 307.756 18.400,307.600 23.350,307.600 29.400 L 307.600 40.400 266.800 40.400 L 226.000 40.400 226.000 32.024 C 226.000 27.417,225.846 23.552,225.658 23.436 C 225.470 23.320,225.218 21.824,225.099 20.112 C 224.980 18.401,224.659 16.460,224.385 15.800 C 223.066 12.619,222.671 11.905,220.913 9.540 C 219.035 7.012,217.275 5.201,216.696 5.200 C 216.529 5.200,215.828 4.660,215.137 4.000 C 214.446 3.340,213.638 2.800,213.341 2.800 C 213.043 2.800,212.800 2.620,212.800 2.400 C 212.800 2.180,212.440 2.000,212.000 2.000 C 211.560 2.000,211.200 1.820,211.200 1.600 C 211.200 1.380,210.786 1.200,210.280 1.200 C 209.774 1.200,209.135 0.975,208.860 0.700 C 208.141 -0.019,191.540 -0.019,191.300 0.700 C 191.208 0.975,190.608 1.200,189.967 1.200 C 189.325 1.200,188.800 1.380,188.800 1.600 C 188.800 1.820,188.480 2.000,188.088 2.000 C 187.697 2.000,187.117 2.360,186.800 2.800 C 186.483 3.240,185.991 3.600,185.706 3.600 C 185.168 3.600,178.407 10.157,178.391 10.694 C 178.386 10.862,178.030 11.450,177.600 12.000 C 177.170 12.550,176.814 13.315,176.809 13.700 C 176.804 14.085,176.649 14.400,176.465 14.400 C 175.400 14.400,174.800 20.081,174.800 30.157 L 174.800 40.400 133.600 40.400 L 92.400 40.400 92.400 29.400 C 92.400 23.350,92.244 18.400,92.054 18.400 C 91.864 18.400,91.602 17.622,91.472 16.670 C 91.244 15.009,89.723 11.544,89.100 11.267 C 88.935 11.193,88.800 10.921,88.800 10.661 C 88.800 10.401,87.990 9.403,87.000 8.444 C 86.010 7.484,85.200 6.542,85.200 6.350 C 85.200 6.157,85.002 6.000,84.760 6.000 C 84.519 6.000,83.817 5.460,83.200 4.800 C 82.583 4.140,81.831 3.600,81.528 3.600 C 81.225 3.600,80.717 3.240,80.400 2.800 C 80.083 2.360,79.503 2.000,79.112 2.000 C 78.720 2.000,78.400 1.820,78.400 1.600 C 78.400 1.380,77.875 1.200,77.233 1.200 C 76.592 1.200,75.992 0.975,75.900 0.700 C 75.733 0.197,62.067 -0.162,59.500 0.269 M70.993 16.439 C 73.412 17.576,75.422 19.907,76.177 22.449 C 77.003 25.228,77.106 68.366,76.294 71.004 C 73.330 80.630,60.240 80.484,58.030 70.800 C 57.420 68.127,57.461 25.465,58.075 22.801 C 59.357 17.247,65.879 14.035,70.993 16.439 M204.226 16.630 C 206.384 17.650,207.946 19.403,209.117 22.119 C 209.476 22.951,209.599 29.305,209.596 46.919 L 209.592 70.600 208.659 72.603 C 205.139 80.162,194.338 79.910,191.385 72.200 C 190.413 69.663,190.688 22.352,191.685 20.590 C 194.220 16.107,199.558 14.421,204.226 16.630 M336.467 16.344 C 338.483 17.210,340.461 19.108,341.481 21.157 C 342.685 23.574,342.783 68.945,341.592 72.129 C 338.632 80.042,327.854 80.227,324.245 72.427 C 323.037 69.815,322.912 24.663,324.105 21.574 C 325.965 16.755,331.736 14.313,336.467 16.344 M42.433 65.400 C 42.576 70.817,42.863 74.815,43.179 75.800 C 50.691 99.234,82.368 99.706,90.884 76.510 C 91.628 74.484,91.754 73.107,91.905 65.300 L 92.077 56.400 133.639 56.400 L 175.200 56.400 175.207 63.900 C 175.218 75.893,176.679 80.309,182.587 86.208 C 197.336 100.933,222.206 92.498,224.789 71.895 C 225.015 70.094,225.200 65.871,225.200 62.510 L 225.200 56.400 266.600 56.400 L 308.000 56.400 308.000 64.136 C 308.000 72.907,308.609 76.371,310.855 80.371 C 322.097 100.392,351.053 97.025,357.047 75.000 C 357.508 73.307,357.758 70.215,357.896 64.500 L 358.092 56.400 364.237 56.400 C 373.106 56.400,376.817 57.930,380.855 63.254 C 384.401 67.927,384.185 65.506,384.309 102.100 L 384.418 134.400 309.058 134.400 C 227.097 134.400,232.373 134.254,229.904 136.589 C 225.648 140.613,227.409 147.619,233.160 149.545 C 234.157 149.879,254.500 150.000,309.460 150.000 L 384.400 150.000 384.400 244.438 C 384.400 350.162,384.668 341.002,381.437 345.728 C 379.404 348.700,376.001 351.239,372.516 352.384 L 370.033 353.200 199.943 353.200 L 29.853 353.200 27.427 352.342 C 22.076 350.451,18.349 346.724,16.458 341.373 L 15.600 338.947 15.600 244.473 L 15.600 150.000 90.540 150.000 C 145.500 150.000,165.843 149.879,166.840 149.545 C 173.724 147.240,174.569 138.236,168.183 135.234 L 166.409 134.400 91.004 134.400 L 15.600 134.400 15.600 103.020 C 15.600 65.904,15.462 67.059,20.539 61.691 C 24.616 57.379,27.487 56.406,35.800 56.516 L 42.200 56.600 42.433 65.400 M197.000 135.064 C 192.780 137.284,191.322 141.316,193.254 145.425 C 196.502 152.336,205.829 150.884,207.556 143.199 C 208.785 137.728,201.949 132.459,197.000 135.064 M194.617 177.640 C 188.036 179.926,186.559 181.770,178.966 197.182 C 172.267 210.779,171.266 212.756,170.729 213.453 C 170.538 213.702,168.900 214.115,167.090 214.372 C 165.281 214.629,162.675 215.010,161.300 215.219 C 159.925 215.429,157.675 215.771,156.300 215.981 C 154.925 216.191,152.270 216.566,150.400 216.815 C 148.530 217.064,146.245 217.433,145.323 217.634 C 144.400 217.835,143.104 218.000,142.442 218.000 C 134.755 218.000,127.180 224.753,125.792 232.844 C 124.656 239.467,126.564 244.251,132.774 250.353 C 152.854 270.083,152.485 269.688,152.251 271.200 C 151.867 273.689,151.251 277.341,150.800 279.800 C 150.558 281.120,150.198 283.190,150.000 284.400 C 149.802 285.610,149.095 289.840,148.428 293.800 C 146.428 305.674,147.215 309.835,152.459 315.106 C 158.846 321.527,166.296 322.044,176.291 316.760 C 180.868 314.341,186.370 311.445,191.500 308.755 C 193.645 307.630,196.436 306.148,197.702 305.461 L 200.004 304.213 202.902 305.711 C 204.496 306.534,207.600 308.163,209.800 309.329 C 230.949 320.544,231.292 320.686,236.344 320.296 C 245.750 319.571,252.803 312.096,252.799 302.858 C 252.798 300.530,252.150 295.940,250.759 288.400 C 250.536 287.190,250.193 285.120,249.997 283.800 C 249.802 282.480,249.557 281.040,249.453 280.600 C 249.349 280.160,249.054 278.450,248.798 276.800 C 248.542 275.150,248.141 272.911,247.908 271.825 L 247.484 269.850 259.530 258.025 C 270.254 247.498,271.706 245.921,272.759 243.660 C 278.389 231.570,271.212 219.802,257.000 217.821 C 244.152 216.031,230.158 213.980,229.744 213.828 C 229.343 213.679,225.981 207.047,218.476 191.600 C 212.298 178.884,204.377 174.249,194.617 177.640 M201.321 192.500 C 201.895 192.926,206.420 201.818,215.976 221.301 C 218.951 227.366,220.177 228.170,228.000 229.193 C 229.870 229.438,232.480 229.799,233.800 229.995 C 235.120 230.192,237.640 230.554,239.400 230.800 C 241.160 231.046,243.725 231.417,245.100 231.624 C 246.475 231.831,248.725 232.167,250.100 232.372 C 259.033 233.702,259.200 233.769,259.200 236.004 C 259.200 236.759,242.371 253.784,236.066 259.408 C 232.306 262.762,231.245 265.481,232.013 269.800 C 232.248 271.120,232.611 273.235,232.820 274.500 C 233.029 275.765,233.371 277.835,233.580 279.100 C 233.789 280.365,234.158 282.480,234.400 283.800 C 234.642 285.120,235.005 287.190,235.206 288.400 C 235.638 290.999,236.340 295.080,236.789 297.600 C 237.727 302.872,237.737 303.185,236.993 304.007 C 236.096 304.999,234.420 305.021,232.712 304.065 C 231.990 303.661,228.700 301.925,225.400 300.208 C 222.100 298.491,219.220 296.955,219.000 296.793 C 218.780 296.632,214.870 294.587,210.311 292.250 C 199.067 286.485,200.835 286.318,185.400 294.603 C 182.411 296.207,178.859 298.065,169.634 302.847 C 163.833 305.855,161.890 305.309,162.726 300.907 C 162.966 299.638,163.272 297.970,163.404 297.200 C 163.537 296.430,164.006 293.730,164.446 291.200 C 164.886 288.670,165.401 285.700,165.591 284.600 C 166.661 278.394,166.865 277.205,167.203 275.200 C 169.077 264.090,169.265 264.687,161.474 257.032 C 144.937 240.784,140.800 236.604,140.800 236.141 C 140.800 235.864,140.999 235.201,141.242 234.668 C 141.725 233.608,142.037 233.541,155.500 231.615 C 160.256 230.934,164.065 230.371,166.400 230.003 C 167.610 229.812,170.130 229.451,172.000 229.201 C 181.273 227.960,180.449 228.865,190.042 209.372 C 198.855 191.461,199.208 190.933,201.321 192.500 M18.288 365.162 C 21.381 366.716,23.919 367.532,27.783 368.216 C 32.607 369.070,367.382 369.085,372.200 368.232 C 376.031 367.554,378.605 366.723,381.712 365.162 C 382.984 364.523,384.109 364.000,384.212 364.000 C 384.315 364.000,384.400 365.412,384.400 367.137 C 384.400 374.652,379.717 381.151,372.518 383.628 C 370.316 384.386,367.148 384.400,200.064 384.400 L 29.853 384.400 27.427 383.542 C 20.155 380.972,15.600 374.628,15.600 367.073 C 15.600 365.383,15.685 364.000,15.788 364.000 C 15.891 364.000,17.016 364.523,18.288 365.162 " stroke="none" fill="#040404" fill-rule="evenodd"></path><path id="path1" d="M27.562 57.362 C 23.495 58.772,21.113 60.578,18.833 63.981 C 15.514 68.936,15.547 68.525,15.683 103.800 L 15.800 134.200 91.600 134.400 C 166.975 134.599,167.408 134.605,168.800 135.416 C 170.450 136.377,172.800 139.684,172.800 141.045 L 172.800 142.000 182.337 142.000 L 191.873 142.000 192.382 140.300 C 194.753 132.373,205.200 132.373,207.666 140.300 L 208.195 142.000 217.600 142.000 L 227.005 142.000 227.534 140.300 C 228.204 138.145,229.679 136.197,231.321 135.300 C 232.522 134.642,237.202 134.588,308.400 134.400 L 384.200 134.200 384.318 103.600 C 384.445 70.502,384.428 70.192,382.302 65.703 C 379.256 59.272,373.500 56.400,363.654 56.400 L 358.000 56.400 358.000 63.700 C 358.000 75.705,356.531 80.171,350.600 86.191 C 335.579 101.439,310.455 92.657,308.008 71.303 C 307.787 69.376,307.605 65.235,307.603 62.100 L 307.600 56.400 266.400 56.400 L 225.200 56.400 225.200 63.780 C 225.200 70.765,224.894 73.850,223.927 76.600 C 215.033 101.909,179.154 98.317,175.225 71.723 C 174.991 70.141,174.800 66.046,174.800 62.623 L 174.800 56.400 133.600 56.400 L 92.400 56.400 92.400 63.067 C 92.400 73.551,91.449 77.532,87.586 83.220 C 77.773 97.670,53.647 96.863,45.737 81.820 C 42.547 75.752,42.302 74.599,42.100 64.700 L 41.930 56.400 36.065 56.423 C 31.030 56.444,29.827 56.576,27.562 57.362 " stroke="none" fill="#f3737b" fill-rule="evenodd"></path><path id="path2" d="M64.763 16.542 C 61.470 17.592,59.459 19.737,58.522 23.200 C 57.272 27.824,57.969 72.800,59.291 72.800 C 59.461 72.800,59.600 72.998,59.600 73.240 C 59.600 73.482,60.185 74.248,60.900 74.943 C 66.131 80.025,74.003 77.738,75.850 70.600 C 76.701 67.311,76.136 21.200,75.245 21.200 C 75.108 21.200,74.773 20.705,74.502 20.100 C 73.230 17.260,68.234 15.435,64.763 16.542 M197.032 16.806 C 195.025 17.590,192.400 19.765,192.400 20.645 C 192.400 20.914,192.175 21.208,191.900 21.300 C 191.085 21.572,191.181 71.056,192.000 72.636 C 193.314 75.171,195.122 76.528,198.386 77.428 C 200.190 77.925,204.000 77.435,204.000 76.705 C 204.000 76.537,204.255 76.400,204.566 76.400 C 205.430 76.400,208.400 72.811,208.400 71.767 C 208.400 71.261,208.580 70.736,208.800 70.600 C 209.391 70.235,209.343 24.393,208.750 22.919 C 207.697 20.298,207.358 19.736,206.112 18.546 C 203.647 16.190,200.268 15.542,197.032 16.806 M329.800 16.814 C 327.407 17.737,325.894 19.066,324.920 21.098 C 323.911 23.204,323.800 70.708,324.800 72.637 C 326.700 76.303,330.943 78.377,334.746 77.499 C 337.002 76.979,340.400 74.495,340.400 73.366 C 340.400 73.055,340.560 72.800,340.755 72.800 C 341.842 72.800,342.576 27.047,341.550 23.200 C 340.078 17.681,334.878 14.854,329.800 16.814 M172.800 143.555 C 172.800 145.207,170.505 148.387,168.600 149.372 C 167.001 150.200,166.963 150.200,91.500 150.305 L 16.000 150.410 16.000 244.363 C 16.000 336.829,16.013 338.356,16.791 340.877 C 18.285 345.714,22.020 349.753,26.800 351.703 L 29.000 352.600 198.800 352.705 C 314.402 352.776,369.238 352.678,370.600 352.397 C 375.813 351.320,380.192 347.849,382.495 342.965 L 383.800 340.200 383.904 245.305 L 384.008 150.410 308.473 150.305 L 232.937 150.200 231.021 149.000 C 228.977 147.720,227.200 145.111,227.200 143.389 L 227.200 142.400 217.600 142.400 L 208.000 142.400 208.000 143.389 C 208.000 146.721,203.952 150.133,200.000 150.133 C 196.048 150.133,192.000 146.721,192.000 143.389 L 192.000 142.400 182.400 142.400 L 172.800 142.400 172.800 143.555 M204.772 176.855 C 212.283 179.248,213.611 180.883,222.377 198.521 C 226.494 206.806,229.932 213.249,230.318 213.406 C 230.693 213.558,232.260 213.843,233.800 214.039 C 235.340 214.235,237.860 214.584,239.400 214.813 C 240.940 215.043,243.370 215.403,244.800 215.614 C 246.230 215.824,247.940 216.083,248.600 216.188 C 249.260 216.293,251.941 216.670,254.557 217.026 C 263.061 218.183,266.169 219.405,269.784 223.012 C 275.403 228.620,276.646 236.544,273.078 244.000 C 271.755 246.763,271.670 246.854,255.761 262.493 L 248.138 269.985 249.657 278.893 C 250.492 283.792,251.460 289.600,251.807 291.800 C 252.155 294.000,252.610 296.451,252.819 297.246 C 255.978 309.253,247.429 320.583,235.200 320.595 L 230.600 320.600 225.600 318.123 C 222.850 316.761,218.260 314.382,215.400 312.836 C 212.540 311.291,208.850 309.354,207.200 308.531 C 205.550 307.709,204.110 306.938,204.000 306.818 C 203.890 306.698,202.997 306.189,202.014 305.686 L 200.229 304.773 196.014 306.876 C 193.697 308.032,191.710 309.073,191.600 309.189 C 191.490 309.305,189.690 310.278,187.600 311.352 C 185.510 312.426,182.900 313.798,181.800 314.402 C 178.903 315.991,172.032 319.390,170.400 320.041 C 168.556 320.777,161.487 320.788,159.600 320.059 C 150.949 316.715,146.424 310.182,146.930 301.766 C 147.140 298.266,147.247 297.423,147.993 293.400 C 148.197 292.300,148.560 290.230,148.800 288.800 C 149.040 287.370,149.406 285.300,149.614 284.200 C 149.821 283.100,150.273 280.490,150.617 278.400 C 150.962 276.310,151.425 273.522,151.646 272.205 L 152.048 269.810 146.124 264.057 C 126.812 245.304,126.543 244.990,125.395 239.800 C 124.442 235.494,124.947 231.516,126.918 227.800 C 127.151 227.360,127.576 226.550,127.862 226.000 C 128.625 224.532,131.957 221.273,133.813 220.177 C 136.968 218.316,137.559 218.188,153.200 215.982 C 154.850 215.749,157.190 215.395,158.400 215.195 C 159.610 214.995,162.130 214.630,164.000 214.384 C 169.349 213.681,169.774 213.606,170.225 213.294 C 170.603 213.032,174.408 205.457,181.422 191.000 C 185.599 182.393,190.607 177.200,194.732 177.200 C 195.184 177.200,195.664 177.020,195.800 176.800 C 196.139 176.252,203.010 176.294,204.772 176.855 M16.014 366.473 C 16.070 374.772,21.291 381.605,28.925 383.370 C 33.024 384.318,367.175 384.324,371.195 383.377 C 378.790 381.586,384.498 374.004,383.926 366.464 L 383.800 364.802 381.890 365.772 C 379.134 367.171,375.417 368.327,372.200 368.785 C 368.141 369.363,31.922 369.348,27.762 368.769 C 23.794 368.218,19.589 366.765,17.100 365.087 L 16.000 364.346 16.014 366.473 " stroke="none" fill="#f9f9fa" fill-rule="evenodd"></path><path id="path3" d="M323.787 47.000 C 323.787 59.100,323.837 64.108,323.900 58.128 C 323.962 52.149,323.962 42.249,323.900 36.128 C 323.838 30.008,323.787 34.900,323.787 47.000 M177.500 142.299 C 180.195 142.368,184.605 142.368,187.300 142.299 C 189.995 142.230,187.790 142.173,182.400 142.173 C 177.010 142.173,174.805 142.230,177.500 142.299 M212.700 142.299 C 215.395 142.368,219.805 142.368,222.500 142.299 C 225.195 142.230,222.990 142.173,217.600 142.173 C 212.210 142.173,210.005 142.230,212.700 142.299 M53.300 150.300 C 73.925 150.357,107.675 150.357,128.300 150.300 C 148.925 150.243,132.050 150.196,90.800 150.196 C 49.550 150.196,32.675 150.243,53.300 150.300 M309.099 150.299 L 383.998 150.402 384.100 243.501 L 384.203 336.600 384.201 243.400 L 384.200 150.200 309.200 150.198 L 234.200 150.197 309.099 150.299 M198.932 193.300 C 198.215 194.099,195.672 199.139,185.766 219.400 C 182.019 227.063,180.176 228.839,175.400 229.385 C 173.427 229.611,170.785 229.986,165.500 230.789 C 159.503 231.701,156.714 232.106,144.600 233.821 C 139.382 234.560,139.894 235.475,151.834 246.742 C 170.876 264.711,170.037 263.111,167.599 276.800 C 167.384 278.010,167.012 280.170,166.772 281.600 C 166.287 284.491,165.807 287.251,165.186 290.700 C 162.656 304.773,162.832 305.963,167.088 303.538 C 167.920 303.065,171.030 301.421,174.000 299.886 C 176.970 298.351,181.290 296.103,183.600 294.890 C 185.910 293.678,189.240 291.946,191.000 291.043 C 192.760 290.139,194.260 289.265,194.333 289.100 C 194.407 288.935,194.812 288.800,195.233 288.800 C 195.655 288.800,196.000 288.620,196.000 288.400 C 196.000 288.180,196.349 288.000,196.776 288.000 C 197.203 288.000,197.664 287.820,197.800 287.600 C 198.107 287.104,201.362 287.072,202.305 287.556 C 202.687 287.752,203.900 288.337,205.000 288.856 C 206.100 289.375,207.060 289.935,207.133 290.100 C 207.207 290.265,207.612 290.400,208.033 290.400 C 208.455 290.400,208.800 290.580,208.800 290.800 C 208.800 291.020,209.145 291.200,209.567 291.200 C 209.988 291.200,210.393 291.335,210.467 291.500 C 210.540 291.665,211.680 292.354,213.000 293.030 C 215.614 294.370,225.607 299.570,230.400 302.085 C 232.050 302.950,233.571 303.825,233.780 304.029 C 235.035 305.254,237.829 303.332,236.917 301.870 C 236.756 301.612,236.498 300.500,236.344 299.400 C 236.050 297.300,235.438 293.570,234.834 290.200 C 234.637 289.100,234.362 287.480,234.223 286.600 C 234.084 285.720,233.799 284.100,233.589 283.000 C 233.380 281.900,232.927 279.290,232.583 277.200 C 232.239 275.110,231.788 272.410,231.581 271.200 C 230.395 264.266,230.667 263.792,242.294 252.559 C 258.077 237.309,258.400 236.969,258.400 235.613 C 258.400 234.691,258.193 234.373,257.500 234.234 C 254.997 233.730,253.567 233.490,251.100 233.161 C 248.529 232.817,245.791 232.424,240.000 231.565 C 238.570 231.353,236.230 231.008,234.800 230.800 C 233.370 230.592,230.940 230.230,229.400 229.996 C 227.860 229.763,225.700 229.472,224.600 229.349 C 223.500 229.227,222.429 228.963,222.220 228.763 C 222.011 228.563,221.557 228.400,221.211 228.400 C 219.239 228.400,210.000 213.344,210.000 210.131 C 210.000 209.839,209.820 209.600,209.600 209.600 C 209.380 209.600,209.200 209.240,209.200 208.800 C 209.200 208.360,209.020 208.000,208.800 208.000 C 208.580 208.000,208.400 207.640,208.400 207.200 C 208.400 206.760,208.220 206.400,208.000 206.400 C 207.780 206.400,207.600 206.055,207.600 205.633 C 207.600 205.212,207.462 204.807,207.294 204.733 C 207.126 204.660,205.833 202.260,204.421 199.400 C 202.056 194.611,200.660 192.400,200.000 192.400 C 199.857 192.400,199.376 192.805,198.932 193.300 M30.100 369.076 C 30.485 369.176,31.115 369.176,31.500 369.076 C 31.885 368.975,31.570 368.893,30.800 368.893 C 30.030 368.893,29.715 368.975,30.100 369.076 M368.500 369.076 C 368.885 369.176,369.515 369.176,369.900 369.076 C 370.285 368.975,369.970 368.893,369.200 368.893 C 368.430 368.893,368.115 368.975,368.500 369.076 " stroke="none" fill="#fbcb7c" fill-rule="evenodd"></path><path id="path4" d="M63.291 16.468 C 57.666 19.196,57.534 19.932,57.685 47.600 L 57.807 69.800 57.903 47.160 C 57.967 32.285,58.149 24.053,58.433 23.160 C 61.455 13.669,73.364 13.684,75.882 23.181 C 76.519 25.580,76.599 67.830,75.972 70.200 C 74.489 75.807,70.349 78.605,65.200 77.480 C 62.630 76.919,58.805 73.603,58.794 71.926 C 58.791 71.417,58.595 70.730,58.360 70.400 C 58.038 69.948,57.992 70.142,58.174 71.190 C 59.788 80.470,73.423 80.331,76.294 71.004 C 77.106 68.366,77.003 25.228,76.177 22.449 C 74.545 16.953,68.285 14.047,63.291 16.468 M196.200 16.463 C 194.242 17.475,192.594 18.981,191.685 20.590 C 190.688 22.352,190.413 69.663,191.385 72.200 C 194.338 79.910,205.139 80.162,208.659 72.603 L 209.592 70.600 209.596 46.919 C 209.600 21.620,209.670 22.550,207.518 19.330 C 205.284 15.985,199.806 14.598,196.200 16.463 M329.009 16.425 C 326.734 17.560,324.919 19.466,324.105 21.574 C 322.912 24.663,323.037 69.815,324.245 72.427 C 327.854 80.227,338.632 80.042,341.592 72.129 C 342.783 68.945,342.685 23.574,341.481 21.157 C 339.143 16.460,333.348 14.261,329.009 16.425 M203.002 16.662 C 205.382 17.473,208.400 20.327,208.400 21.766 C 208.400 22.309,208.580 22.864,208.800 23.000 C 209.435 23.392,209.326 69.405,208.686 71.241 C 207.677 74.137,204.767 77.200,203.024 77.200 C 202.702 77.200,201.980 77.409,201.420 77.664 C 198.940 78.794,193.736 76.019,191.997 72.639 C 191.270 71.225,191.080 21.798,191.801 21.285 C 192.021 21.128,192.433 20.549,192.716 19.997 C 194.298 16.917,199.141 15.347,203.002 16.662 M335.714 16.633 C 336.735 16.981,338.168 17.836,338.898 18.533 C 340.157 19.735,340.496 20.296,341.550 22.919 C 342.220 24.584,342.177 68.512,341.503 71.094 C 340.934 73.272,337.424 77.200,336.045 77.200 C 335.601 77.200,334.780 77.409,334.220 77.664 C 332.509 78.443,328.712 77.118,326.597 75.003 C 323.699 72.105,323.600 71.183,323.600 47.090 C 323.600 21.648,323.744 20.580,327.534 17.954 C 330.413 15.958,332.667 15.594,335.714 16.633 M92.166 63.600 C 92.166 67.670,92.225 69.335,92.298 67.300 C 92.371 65.265,92.371 61.935,92.298 59.900 C 92.225 57.865,92.166 59.530,92.166 63.600 M174.965 63.200 C 174.965 67.050,175.025 68.625,175.098 66.700 C 175.171 64.775,175.171 61.625,175.098 59.700 C 175.025 57.775,174.965 59.350,174.965 63.200 M307.763 62.800 C 307.763 66.430,307.823 67.915,307.898 66.100 C 307.972 64.285,307.972 61.315,307.898 59.500 C 307.823 57.685,307.763 59.170,307.763 62.800 M42.167 64.200 C 42.167 68.380,42.226 70.036,42.298 67.879 C 42.371 65.723,42.370 62.303,42.298 60.279 C 42.225 58.256,42.166 60.020,42.167 64.200 M181.200 85.325 C 181.200 85.394,181.785 85.979,182.500 86.625 L 183.800 87.800 182.625 86.500 C 181.530 85.288,181.200 85.016,181.200 85.325 M66.105 93.887 C 66.714 93.979,67.614 93.977,68.105 93.882 C 68.597 93.787,68.100 93.711,67.000 93.714 C 65.900 93.717,65.497 93.795,66.105 93.887 M199.305 93.887 C 199.914 93.979,200.814 93.977,201.305 93.882 C 201.797 93.787,201.300 93.711,200.200 93.714 C 199.100 93.717,198.697 93.795,199.305 93.887 M332.105 93.887 C 332.714 93.979,333.614 93.977,334.105 93.882 C 334.597 93.787,334.100 93.711,333.000 93.714 C 331.900 93.717,331.497 93.795,332.105 93.887 M192.053 142.320 C 191.948 145.698,195.523 150.089,198.280 149.968 C 198.714 149.949,198.523 149.770,197.800 149.517 C 194.794 148.467,192.902 145.986,192.373 142.400 L 192.107 140.600 192.053 142.320 M172.460 142.916 C 172.319 145.548,169.863 148.517,167.000 149.517 C 166.094 149.834,166.001 149.945,166.622 149.968 C 169.177 150.067,173.079 145.562,172.692 142.959 L 172.520 141.800 172.460 142.916 M207.651 142.800 C 207.461 145.572,205.074 148.513,202.200 149.517 C 201.331 149.821,201.221 149.945,201.800 149.967 C 204.457 150.067,208.304 145.535,207.878 142.809 L 207.720 141.800 207.651 142.800 M227.227 142.851 C 227.150 145.845,230.808 150.062,233.400 149.968 C 234.000 149.946,233.899 149.822,233.000 149.470 C 230.009 148.299,228.577 146.706,227.746 143.624 C 227.389 142.302,227.247 142.089,227.227 142.851 M15.702 244.600 C 15.653 296.740,15.744 339.608,15.906 339.862 C 16.168 340.274,16.160 216.800,15.895 168.600 C 15.839 158.260,15.752 192.460,15.702 244.600 M195.400 176.898 C 187.856 179.491,186.285 181.340,178.944 196.261 C 175.713 202.828,172.998 208.335,172.911 208.500 C 172.824 208.665,172.850 208.800,172.969 208.800 C 173.088 208.800,175.879 203.354,179.171 196.697 C 187.662 179.529,191.159 176.362,201.049 176.881 C 202.901 176.978,204.188 176.912,203.908 176.735 C 203.192 176.280,196.843 176.402,195.400 176.898 M207.107 178.265 C 210.873 179.805,215.169 184.131,216.534 187.757 C 216.691 188.174,216.924 188.409,217.052 188.281 C 218.693 186.640,208.568 177.125,205.281 177.219 C 204.907 177.230,205.728 177.701,207.107 178.265 M198.522 192.900 C 198.072 193.395,194.256 200.807,190.042 209.372 C 180.449 228.865,181.273 227.960,172.000 229.201 C 170.130 229.451,167.610 229.812,166.400 230.003 C 164.065 230.371,160.256 230.934,155.500 231.615 C 142.037 233.541,141.725 233.608,141.242 234.668 C 140.999 235.201,140.800 235.864,140.800 236.141 C 140.800 236.604,144.937 240.784,161.474 257.032 C 169.265 264.687,169.077 264.090,167.203 275.200 C 166.865 277.205,166.661 278.394,165.591 284.600 C 165.401 285.700,164.886 288.670,164.446 291.200 C 164.006 293.730,163.537 296.430,163.404 297.200 C 163.272 297.970,162.966 299.638,162.726 300.907 C 161.890 305.309,163.833 305.855,169.634 302.847 C 178.859 298.065,182.411 296.207,185.400 294.603 C 200.835 286.318,199.067 286.485,210.311 292.250 C 214.870 294.587,218.780 296.632,219.000 296.793 C 219.220 296.955,222.100 298.491,225.400 300.208 C 228.700 301.925,231.990 303.661,232.712 304.065 C 234.420 305.021,236.096 304.999,236.993 304.007 C 237.737 303.185,237.727 302.872,236.789 297.600 C 236.340 295.080,235.638 290.999,235.206 288.400 C 235.005 287.190,234.642 285.120,234.400 283.800 C 234.158 282.480,233.789 280.365,233.580 279.100 C 233.371 277.835,233.029 275.765,232.820 274.500 C 232.611 273.235,232.248 271.120,232.013 269.800 C 231.245 265.481,232.306 262.762,236.066 259.408 C 237.020 258.557,242.615 253.136,248.500 247.361 C 262.506 233.615,262.443 234.210,250.100 232.372 C 248.725 232.167,246.475 231.831,245.100 231.624 C 243.725 231.417,241.160 231.046,239.400 230.800 C 237.640 230.554,235.120 230.192,233.800 229.995 C 232.480 229.799,229.870 229.438,228.000 229.193 C 220.177 228.170,218.951 227.366,215.976 221.301 C 206.420 201.818,201.895 192.926,201.321 192.500 C 200.326 191.762,199.441 191.888,198.522 192.900 M218.828 192.300 C 218.999 194.148,229.536 213.813,230.400 213.896 C 231.383 213.990,231.385 213.986,230.502 213.610 C 229.850 213.332,228.173 210.325,224.369 202.614 C 219.634 193.013,218.740 191.349,218.828 192.300 M201.057 193.300 C 201.495 193.795,203.009 196.540,204.421 199.400 C 205.833 202.260,207.126 204.660,207.294 204.733 C 207.462 204.807,207.600 205.212,207.600 205.633 C 207.600 206.055,207.780 206.400,208.000 206.400 C 208.220 206.400,208.400 206.760,208.400 207.200 C 208.400 207.640,208.580 208.000,208.800 208.000 C 209.020 208.000,209.200 208.360,209.200 208.800 C 209.200 209.240,209.380 209.600,209.600 209.600 C 209.820 209.600,210.000 209.839,210.000 210.131 C 210.000 213.344,219.239 228.400,221.211 228.400 C 221.557 228.400,222.011 228.563,222.220 228.763 C 222.429 228.963,223.500 229.227,224.600 229.349 C 225.700 229.472,227.860 229.763,229.400 229.996 C 230.940 230.230,233.370 230.592,234.800 230.800 C 236.230 231.008,238.570 231.353,240.000 231.565 C 245.791 232.424,248.529 232.817,251.100 233.161 C 253.567 233.490,254.997 233.730,257.500 234.234 C 258.193 234.373,258.400 234.691,258.400 235.613 C 258.400 236.969,258.077 237.309,242.294 252.559 C 230.667 263.792,230.395 264.266,231.581 271.200 C 231.788 272.410,232.239 275.110,232.583 277.200 C 232.927 279.290,233.380 281.900,233.589 283.000 C 233.799 284.100,234.084 285.720,234.223 286.600 C 234.362 287.480,234.637 289.100,234.834 290.200 C 235.438 293.570,236.050 297.300,236.344 299.400 C 236.498 300.500,236.756 301.612,236.917 301.870 C 237.829 303.332,235.035 305.254,233.780 304.029 C 233.571 303.825,232.050 302.950,230.400 302.085 C 225.607 299.570,215.614 294.370,213.000 293.030 C 211.680 292.354,210.540 291.665,210.467 291.500 C 210.393 291.335,209.988 291.200,209.567 291.200 C 209.145 291.200,208.800 291.020,208.800 290.800 C 208.800 290.580,208.455 290.400,208.033 290.400 C 207.612 290.400,207.207 290.265,207.133 290.100 C 207.060 289.935,206.100 289.375,205.000 288.856 C 203.900 288.337,202.687 287.752,202.305 287.556 C 201.362 287.072,198.107 287.104,197.800 287.600 C 197.664 287.820,197.203 288.000,196.776 288.000 C 196.349 288.000,196.000 288.180,196.000 288.400 C 196.000 288.620,195.655 288.800,195.233 288.800 C 194.812 288.800,194.407 288.935,194.333 289.100 C 194.260 289.265,192.760 290.139,191.000 291.043 C 189.240 291.946,185.910 293.678,183.600 294.890 C 181.290 296.103,176.970 298.351,174.000 299.886 C 171.030 301.421,167.920 303.065,167.088 303.538 C 162.832 305.963,162.656 304.773,165.186 290.700 C 165.807 287.251,166.287 284.491,166.772 281.600 C 167.012 280.170,167.384 278.010,167.599 276.800 C 170.037 263.111,170.876 264.711,151.834 246.742 C 139.894 235.475,139.382 234.560,144.600 233.821 C 156.714 232.106,159.503 231.701,165.500 230.789 C 170.785 229.986,173.427 229.611,175.400 229.385 C 180.176 228.839,182.019 227.063,185.766 219.400 C 198.143 194.087,199.032 192.400,200.000 192.400 C 200.143 192.400,200.619 192.805,201.057 193.300 M171.576 211.122 C 170.964 212.415,170.227 213.333,169.600 213.582 L 168.600 213.979 169.574 213.890 C 170.575 213.798,172.993 210.380,172.694 209.481 C 172.616 209.249,172.114 209.987,171.576 211.122 M164.200 214.400 L 163.000 214.705 164.200 214.730 C 164.860 214.743,166.120 214.605,167.000 214.423 L 168.600 214.092 167.000 214.093 C 166.120 214.094,164.860 214.232,164.200 214.400 M233.200 214.420 C 235.722 214.869,237.823 214.856,236.400 214.400 C 235.850 214.224,234.500 214.084,233.400 214.090 L 231.400 214.100 233.200 214.420 M158.800 215.200 C 157.401 215.648,159.639 215.648,161.400 215.200 L 162.600 214.895 161.200 214.887 C 160.430 214.883,159.350 215.024,158.800 215.200 M239.000 215.223 C 241.249 215.688,242.905 215.675,241.800 215.200 C 241.360 215.011,240.190 214.864,239.200 214.874 L 237.400 214.892 239.000 215.223 M153.200 216.000 C 151.818 216.443,154.460 216.443,156.200 216.000 C 157.342 215.710,157.322 215.694,155.800 215.687 C 154.920 215.683,153.750 215.824,153.200 216.000 M244.600 216.023 C 245.480 216.205,246.650 216.346,247.200 216.337 L 248.200 216.320 247.200 216.000 C 246.650 215.824,245.480 215.683,244.600 215.686 L 243.000 215.692 244.600 216.023 M147.600 216.800 L 146.200 217.095 147.800 217.100 C 148.680 217.103,149.940 216.968,150.600 216.800 L 151.800 216.495 150.400 216.500 C 149.630 216.503,148.370 216.638,147.600 216.800 M249.800 216.800 C 250.460 216.968,251.630 217.105,252.400 217.105 L 253.800 217.105 252.600 216.800 C 251.940 216.632,250.770 216.495,250.000 216.495 L 248.600 216.495 249.800 216.800 M142.200 217.600 C 141.058 217.890,141.078 217.906,142.600 217.913 C 143.480 217.917,144.650 217.776,145.200 217.600 C 146.582 217.157,143.940 217.157,142.200 217.600 M255.400 217.600 C 256.060 217.768,257.230 217.905,258.000 217.905 L 259.400 217.905 258.200 217.600 C 257.540 217.432,256.370 217.295,255.600 217.295 L 254.200 217.295 255.400 217.600 M138.200 218.400 L 137.400 218.744 138.200 218.744 C 138.640 218.744,139.360 218.589,139.800 218.400 L 140.600 218.056 139.800 218.056 C 139.360 218.056,138.640 218.211,138.200 218.400 M260.200 218.400 C 261.384 218.909,262.787 218.909,262.000 218.400 C 261.670 218.187,260.950 218.022,260.400 218.034 C 259.484 218.054,259.467 218.085,260.200 218.400 M134.846 219.706 C 131.908 221.203,127.200 225.983,127.200 227.467 C 127.200 227.644,127.829 226.855,128.598 225.713 C 130.200 223.334,131.811 221.943,135.089 220.105 C 137.704 218.639,137.522 218.341,134.846 219.706 M264.800 219.912 C 271.435 223.177,275.688 231.350,274.426 238.411 C 273.386 244.229,272.805 244.993,259.531 258.025 L 247.485 269.850 247.935 271.425 L 248.384 273.000 248.202 271.393 L 248.020 269.786 255.640 262.414 C 273.016 245.602,273.146 245.448,274.613 239.813 C 276.104 234.090,274.179 227.463,269.767 223.129 C 267.548 220.949,264.271 218.797,263.200 218.818 C 262.870 218.825,263.590 219.317,264.800 219.912 M126.346 229.100 C 125.649 230.864,124.830 234.492,124.814 235.880 C 124.793 237.769,126.429 243.600,126.980 243.600 C 127.090 243.600,126.978 243.105,126.731 242.500 C 125.253 238.879,125.255 232.769,126.736 229.100 C 126.980 228.495,127.090 228.000,126.980 228.000 C 126.870 228.000,126.585 228.495,126.346 229.100 M127.200 244.168 C 127.200 245.180,130.861 249.123,140.757 258.767 L 152.010 269.734 151.812 271.767 C 151.669 273.238,151.712 273.524,151.967 272.800 C 152.929 270.076,151.529 268.433,133.335 250.926 C 131.320 248.987,129.115 246.608,128.435 245.640 C 127.756 244.672,127.200 244.010,127.200 244.168 M248.487 274.400 C 248.483 275.170,248.624 276.250,248.800 276.800 C 249.248 278.199,249.248 275.961,248.800 274.200 L 248.495 273.000 248.487 274.400 M150.982 276.182 C 150.829 277.202,150.802 278.135,150.922 278.255 C 151.042 278.375,151.265 277.639,151.418 276.618 C 151.571 275.598,151.598 274.665,151.478 274.545 C 151.358 274.425,151.135 275.161,150.982 276.182 M249.275 279.200 C 249.265 279.970,249.411 280.960,249.600 281.400 C 250.057 282.464,250.057 280.797,249.600 279.000 L 249.295 277.800 249.275 279.200 M150.182 280.582 C 150.029 281.602,150.002 282.535,150.122 282.655 C 150.242 282.775,150.465 282.039,150.618 281.018 C 150.771 279.998,150.798 279.065,150.678 278.945 C 150.558 278.825,150.335 279.561,150.182 280.582 M250.080 284.200 C 250.080 284.860,250.224 285.850,250.400 286.400 C 250.711 287.372,250.720 287.367,250.720 286.200 C 250.720 285.540,250.576 284.550,250.400 284.000 C 250.089 283.028,250.080 283.033,250.080 284.200 M149.489 284.800 C 149.336 285.350,149.225 286.250,149.242 286.800 C 149.268 287.661,149.326 287.614,149.658 286.460 C 149.870 285.724,149.981 284.824,149.906 284.460 C 149.808 283.994,149.686 284.093,149.489 284.800 M250.880 288.600 C 250.880 289.260,251.024 290.250,251.200 290.800 C 251.511 291.772,251.520 291.767,251.520 290.600 C 251.520 289.940,251.376 288.950,251.200 288.400 C 250.889 287.428,250.880 287.433,250.880 288.600 M148.689 289.200 C 148.536 289.750,148.427 290.740,148.446 291.400 C 148.477 292.492,148.514 292.458,148.852 291.011 C 149.275 289.206,149.131 287.611,148.689 289.200 M251.695 293.000 C 251.695 293.660,251.832 294.740,252.000 295.400 L 252.305 296.600 252.305 295.400 C 252.305 294.740,252.168 293.660,252.000 293.000 L 251.695 291.800 251.695 293.000 M147.890 293.950 C 147.731 294.693,147.620 295.863,147.644 296.550 C 147.681 297.617,147.741 297.536,148.049 296.000 C 148.248 295.010,148.359 293.840,148.296 293.400 C 148.218 292.859,148.086 293.037,147.890 293.950 M252.699 301.014 C 253.075 308.273,250.505 313.796,245.151 317.231 C 244.061 317.931,243.254 318.587,243.357 318.690 C 244.086 319.419,249.787 313.971,251.207 311.187 C 253.037 307.600,253.897 300.446,252.817 297.800 C 252.635 297.354,252.583 298.778,252.699 301.014 M147.052 298.900 C 145.187 305.858,149.912 315.614,156.688 318.799 C 159.283 320.019,159.279 319.746,156.682 318.295 C 150.289 314.724,146.787 308.279,147.337 301.100 C 147.578 297.956,147.489 297.269,147.052 298.900 M198.589 304.938 C 198.155 305.233,195.280 306.789,192.200 308.395 C 186.152 311.549,181.748 313.869,176.400 316.717 C 174.530 317.713,171.830 318.955,170.400 319.476 C 168.662 320.110,168.264 320.354,169.200 320.213 C 170.685 319.988,175.714 317.583,185.200 312.563 C 188.390 310.875,192.620 308.651,194.600 307.622 C 196.580 306.592,198.593 305.500,199.074 305.195 C 200.032 304.587,199.373 304.313,208.400 309.073 C 217.942 314.105,220.418 315.415,223.535 317.081 C 225.369 318.062,226.962 318.772,227.074 318.659 C 227.187 318.546,226.317 317.969,225.140 317.376 C 223.963 316.783,221.290 315.397,219.200 314.296 C 217.110 313.195,213.870 311.488,212.000 310.503 C 210.130 309.518,206.777 307.742,204.549 306.556 C 200.177 304.230,199.785 304.123,198.589 304.938 M159.600 320.000 C 159.930 320.213,160.650 320.373,161.200 320.354 L 162.200 320.320 161.200 320.000 C 159.658 319.506,158.836 319.506,159.600 320.000 M230.000 320.000 C 230.330 320.213,231.050 320.373,231.600 320.354 L 232.600 320.320 231.600 320.000 C 230.058 319.506,229.236 319.506,230.000 320.000 M238.800 320.000 L 237.800 320.320 238.800 320.354 C 239.350 320.373,240.070 320.213,240.400 320.000 C 241.164 319.506,240.342 319.506,238.800 320.000 M163.907 320.690 C 164.626 320.779,165.706 320.777,166.307 320.686 C 166.908 320.595,166.320 320.522,165.000 320.524 C 163.680 320.526,163.188 320.601,163.907 320.690 M233.900 320.689 C 234.615 320.778,235.785 320.778,236.500 320.689 C 237.215 320.601,236.630 320.528,235.200 320.528 C 233.770 320.528,233.185 320.601,233.900 320.689 M383.867 338.347 C 383.698 339.527,383.647 340.581,383.754 340.688 C 384.049 340.982,384.490 338.236,384.322 337.152 C 384.232 336.570,384.055 337.034,383.867 338.347 M16.432 341.104 C 16.390 341.761,17.980 345.141,18.474 345.446 C 18.683 345.575,18.417 344.808,17.883 343.740 C 17.349 342.673,16.811 341.530,16.688 341.200 C 16.548 340.826,16.451 340.790,16.432 341.104 M382.221 343.623 C 381.555 344.988,380.195 346.831,379.095 347.860 C 378.024 348.861,377.241 349.774,377.354 349.887 C 378.058 350.591,383.912 342.730,383.530 341.594 C 383.459 341.382,382.869 342.294,382.221 343.623 M19.589 347.184 C 20.349 348.251,22.800 350.309,22.800 349.880 C 22.800 349.652,19.148 346.000,18.920 346.000 C 18.824 346.000,19.125 346.533,19.589 347.184 M23.381 350.369 C 23.665 350.828,27.202 352.471,27.583 352.320 C 27.751 352.254,26.827 351.712,25.530 351.116 C 24.233 350.519,23.266 350.183,23.381 350.369 M374.200 351.266 C 372.698 352.020,372.249 352.371,373.000 352.204 C 374.139 351.951,376.800 350.525,376.800 350.167 C 376.800 349.949,376.954 349.884,374.200 351.266 M28.938 352.894 C 29.542 353.278,370.458 353.278,371.062 352.894 C 371.316 352.732,294.338 352.600,200.000 352.600 C 105.662 352.600,28.684 352.732,28.938 352.894 M15.600 367.073 C 15.600 374.628,20.155 380.972,27.427 383.542 L 29.853 384.400 200.064 384.400 C 388.113 384.400,372.077 384.603,375.773 382.181 C 377.279 381.194,376.762 381.014,375.150 381.963 C 371.459 384.139,383.408 384.000,200.000 384.000 C 48.523 384.000,30.720 383.936,28.584 383.379 C 21.116 381.434,16.000 374.642,16.000 366.670 L 16.000 364.456 17.753 365.436 C 20.427 366.930,25.126 368.408,27.800 368.595 L 30.200 368.762 28.000 368.345 C 24.660 367.710,20.858 366.467,18.288 365.168 C 17.016 364.526,15.891 364.000,15.788 364.000 C 15.685 364.000,15.600 365.383,15.600 367.073 M381.619 365.195 C 379.065 366.538,376.027 367.549,372.400 368.265 L 369.800 368.778 372.200 368.602 C 374.722 368.418,379.064 367.098,381.892 365.655 C 384.088 364.535,384.000 364.482,384.000 366.916 C 384.000 369.470,383.052 373.304,381.963 375.150 C 381.014 376.762,381.194 377.279,382.181 375.773 C 383.546 373.689,384.400 370.367,384.400 367.137 C 384.400 363.576,384.528 363.666,381.619 365.195 M115.900 369.100 C 162.155 369.156,237.845 369.156,284.100 369.100 C 330.355 369.044,292.510 368.998,200.000 368.998 C 107.490 368.998,69.645 369.044,115.900 369.100 M378.900 379.101 C 377.965 380.087,377.200 380.974,377.200 381.074 C 377.200 381.508,379.646 379.460,380.411 378.384 C 381.635 376.665,380.865 377.031,378.900 379.101 " stroke="none" fill="#cea464" fill-rule="evenodd"></path></g></svg>