<svg id="svg" version="1.1" xmlns="http://www.w3.org/2000/svg" xmlns:xlink="http://www.w3.org/1999/xlink" width="400" height="400" viewBox="0, 0, 400,400"><g id="svgg"><path id="path0" d="M47.400 16.776 C 31.394 19.879,19.385 32.140,16.622 48.200 C 15.679 53.683,15.679 346.317,16.622 351.800 C 18.037 360.025,21.414 366.570,27.345 372.583 C 32.500 377.810,37.575 380.679,46.000 383.129 C 48.803 383.944,345.265 384.389,351.000 383.587 C 366.179 381.463,378.512 370.343,382.927 354.800 L 383.779 351.800 383.989 249.800 L 384.200 147.800 385.061 146.200 C 386.395 143.720,388.579 142.144,391.000 141.914 L 392.200 141.800 392.309 134.300 C 392.414 127.062,392.390 126.800,391.628 126.800 C 382.501 126.800,381.907 111.579,391.000 110.714 L 392.200 110.600 392.309 103.100 C 392.412 95.960,392.381 95.600,391.658 95.600 C 389.455 95.600,386.379 93.475,385.089 91.062 C 384.213 89.425,384.197 89.096,383.964 68.800 C 383.744 49.637,383.670 47.991,382.901 45.200 C 378.716 30.007,366.994 19.236,351.800 16.622 C 345.933 15.612,52.636 15.761,47.400 16.776 M356.051 39.364 C 358.167 40.248,359.433 41.432,360.352 43.387 L 361.200 45.191 361.200 172.917 L 361.200 300.643 360.020 302.504 C 359.371 303.527,358.115 304.823,357.228 305.382 L 355.616 306.400 200.192 306.400 C 25.919 306.400,43.145 306.691,40.801 303.711 C 38.664 300.995,38.800 309.881,38.800 172.547 L 38.800 45.191 39.626 43.434 C 40.588 41.388,41.290 40.683,43.435 39.613 C 45.521 38.572,353.569 38.327,356.051 39.364 M195.862 110.300 C 195.760 110.465,207.522 110.600,222.000 110.600 C 236.478 110.600,248.116 110.468,247.862 110.306 C 247.252 109.918,196.102 109.912,195.862 110.300 M192.800 112.400 C 191.920 113.280,191.201 114.225,191.203 114.500 C 191.204 114.775,191.534 114.501,191.936 113.892 C 192.338 113.282,193.272 112.337,194.011 111.792 C 194.750 111.246,195.140 110.800,194.878 110.800 C 194.615 110.800,193.680 111.520,192.800 112.400 M250.137 112.100 C 250.946 112.815,251.959 114.120,252.388 115.000 C 252.817 115.880,253.175 116.330,253.183 116.000 C 253.214 114.703,250.132 110.851,249.033 110.813 C 248.832 110.806,249.328 111.385,250.137 112.100 M134.203 111.995 C 134.047 112.247,134.655 112.299,135.879 112.139 C 138.410 111.807,138.568 111.600,136.290 111.600 C 135.277 111.600,134.337 111.778,134.203 111.995 M140.033 111.744 C 140.125 111.823,141.190 111.999,142.400 112.134 C 143.870 112.298,144.401 112.252,144.000 111.996 C 143.456 111.648,139.642 111.406,140.033 111.744 M125.684 115.700 C 124.319 116.635,123.202 117.566,123.201 117.770 C 123.201 117.973,123.605 117.767,124.100 117.311 C 124.595 116.856,125.890 115.925,126.978 115.242 C 128.066 114.559,128.779 114.000,128.561 114.000 C 128.344 114.000,127.049 114.765,125.684 115.700 M190.667 115.467 C 190.032 116.101,190.370 229.182,191.010 230.420 C 191.346 231.069,191.711 231.600,191.821 231.600 C 191.931 231.600,191.744 231.065,191.406 230.412 C 190.861 229.357,190.804 222.833,190.896 172.212 C 190.953 140.855,190.985 115.200,190.967 115.200 C 190.948 115.200,190.813 115.320,190.667 115.467 M153.890 116.970 C 154.820 117.784,156.327 119.294,157.240 120.325 C 158.152 121.356,158.531 121.660,158.082 121.000 C 157.220 119.733,154.349 116.922,153.000 116.022 C 152.560 115.729,152.961 116.155,153.890 116.970 M121.400 119.341 C 120.419 120.469,118.884 122.685,118.451 123.600 L 117.977 124.600 118.688 123.610 C 119.080 123.066,119.997 121.833,120.727 120.871 C 121.915 119.305,122.411 118.179,121.400 119.341 M252.493 120.893 C 251.982 122.306,249.807 124.800,249.086 124.800 C 248.855 124.800,248.771 124.904,248.899 125.032 C 249.650 125.783,253.519 121.157,253.126 119.977 C 253.046 119.738,252.762 120.151,252.493 120.893 M159.160 123.000 C 159.834 124.305,160.388 125.028,160.385 124.600 C 160.383 124.380,160.014 123.750,159.564 123.200 C 159.021 122.536,158.885 122.469,159.160 123.000 M117.050 126.391 C 116.147 128.647,116.287 128.983,117.237 126.842 C 117.666 125.875,117.945 125.012,117.858 124.925 C 117.771 124.838,117.408 125.498,117.050 126.391 M161.228 127.476 C 161.318 128.515,161.944 129.396,161.972 128.524 C 161.987 128.042,161.820 127.536,161.600 127.400 C 161.380 127.264,161.213 127.298,161.228 127.476 M136.039 128.222 C 135.291 128.547,134.784 128.918,134.913 129.046 C 135.042 129.175,135.384 129.127,135.673 128.940 C 135.963 128.753,136.830 128.394,137.600 128.142 C 138.463 127.860,138.693 127.674,138.200 127.658 C 137.760 127.643,136.788 127.897,136.039 128.222 M140.977 128.140 C 141.845 128.381,143.269 129.259,144.142 130.089 C 146.164 132.013,146.590 132.055,144.778 130.152 C 143.340 128.641,141.331 127.564,140.113 127.651 C 139.721 127.678,140.110 127.899,140.977 128.140 M115.778 130.578 C 115.627 131.381,115.594 132.127,115.704 132.237 C 115.814 132.347,116.027 131.781,116.178 130.978 C 116.328 130.175,116.362 129.428,116.252 129.318 C 116.142 129.208,115.928 129.775,115.778 130.578 M133.079 130.474 C 129.786 134.836,131.755 141.234,136.800 142.557 C 137.350 142.702,137.026 142.431,136.079 141.956 C 131.578 139.696,130.385 133.943,133.684 130.403 C 134.122 129.932,134.391 129.457,134.281 129.347 C 134.171 129.237,133.630 129.744,133.079 130.474 M162.200 135.177 C 162.200 138.228,162.332 140.516,162.494 140.262 C 162.861 139.686,162.842 131.247,162.472 130.315 C 162.322 129.938,162.200 132.126,162.200 135.177 M146.012 132.800 C 146.012 133.130,146.187 133.670,146.400 134.000 C 146.745 134.533,146.788 134.533,146.788 134.000 C 146.788 133.670,146.613 133.130,146.400 132.800 C 146.055 132.267,146.012 132.267,146.012 132.800 M146.229 137.029 C 146.081 137.615,146.051 138.184,146.161 138.294 C 146.271 138.404,146.481 138.015,146.629 137.429 C 146.776 136.842,146.806 136.273,146.696 136.163 C 146.586 136.053,146.376 136.442,146.229 137.029 M115.668 139.200 C 115.662 139.750,115.811 140.560,116.000 141.000 L 116.344 141.800 116.332 141.000 C 116.326 140.560,116.176 139.750,116.000 139.200 L 115.680 138.200 115.668 139.200 M144.286 140.435 C 143.453 141.320,143.125 141.854,143.558 141.623 C 144.215 141.271,146.324 138.771,145.927 138.814 C 145.857 138.821,145.118 139.551,144.286 140.435 M117.479 145.100 C 117.767 145.894,118.800 147.497,118.800 147.150 C 118.800 146.802,117.563 144.400,117.383 144.400 C 117.296 144.400,117.339 144.715,117.479 145.100 M119.146 148.200 C 119.360 148.640,120.464 149.990,121.598 151.200 L 123.660 153.400 122.046 151.400 C 119.114 147.767,118.723 147.336,119.146 148.200 M157.468 149.819 C 156.862 150.578,156.509 151.190,156.683 151.178 C 157.090 151.149,158.946 148.813,158.732 148.599 C 158.643 148.510,158.074 149.059,157.468 149.819 M154.793 152.608 C 154.272 153.162,152.974 154.175,151.908 154.859 C 150.842 155.543,150.054 156.187,150.157 156.290 C 150.369 156.502,153.108 154.620,155.200 152.824 C 155.970 152.162,156.406 151.617,156.170 151.611 C 155.933 151.605,155.313 152.053,154.793 152.608 M124.007 153.503 C 124.016 153.864,128.014 156.519,128.227 156.306 C 128.310 156.223,127.393 155.492,126.189 154.681 C 124.985 153.870,124.003 153.340,124.007 153.503 M133.600 158.405 C 133.930 158.616,134.725 158.791,135.367 158.794 C 136.914 158.802,136.577 158.571,134.600 158.268 C 133.510 158.101,133.191 158.145,133.600 158.405 M142.800 158.400 L 141.400 158.695 142.800 158.741 C 143.570 158.767,144.470 158.613,144.800 158.400 C 145.527 157.930,145.033 157.930,142.800 158.400 M216.328 164.700 C 221.898 164.763,230.898 164.762,236.328 164.700 C 241.758 164.637,237.200 164.585,226.200 164.586 C 215.200 164.586,210.758 164.637,216.328 164.700 M250.000 166.406 C 250.550 166.875,251.331 167.650,251.735 168.129 C 252.139 168.608,252.336 168.730,252.174 168.400 C 251.690 167.418,250.663 166.352,249.804 165.940 C 249.206 165.653,249.256 165.773,250.000 166.406 M251.264 177.598 C 249.301 180.254,249.955 180.179,227.000 180.407 L 206.200 180.614 226.651 180.707 C 243.586 180.784,247.334 180.702,248.451 180.231 C 249.830 179.650,252.707 176.974,252.344 176.611 C 252.234 176.500,251.748 176.945,251.264 177.598 M203.886 232.835 C 203.053 233.720,202.725 234.254,203.158 234.023 C 203.815 233.671,205.924 231.171,205.527 231.214 C 205.457 231.221,204.718 231.951,203.886 232.835 M192.377 232.519 C 193.148 233.522,194.814 234.645,196.000 234.962 C 196.575 235.115,196.329 234.881,195.423 234.411 C 194.555 233.962,193.391 233.191,192.835 232.697 C 192.231 232.161,192.047 232.089,192.377 232.519 M201.106 234.628 C 200.981 234.753,200.006 235.002,198.939 235.181 C 197.256 235.463,197.185 235.510,198.400 235.535 C 199.645 235.561,202.844 234.513,201.767 234.432 C 201.528 234.415,201.231 234.502,201.106 234.628 M127.500 290.700 C 167.375 290.756,232.625 290.756,272.500 290.700 C 312.375 290.644,279.750 290.598,200.000 290.598 C 120.250 290.598,87.625 290.644,127.500 290.700 M258.954 322.207 C 259.752 322.540,260.968 323.395,261.656 324.107 C 264.198 326.736,264.187 326.656,264.327 343.800 C 264.488 363.552,264.208 365.190,260.223 367.773 L 258.640 368.800 200.100 368.800 C 136.315 368.800,140.622 368.958,138.321 366.536 C 136.015 364.107,136.000 363.973,136.000 345.200 C 136.000 325.030,136.069 324.693,140.659 322.401 C 142.794 321.335,256.422 321.149,258.954 322.207 M319.296 322.775 C 322.610 324.877,323.585 327.219,323.594 333.100 L 323.600 337.200 328.100 337.209 C 336.329 337.225,340.748 341.537,338.720 347.572 C 337.243 351.968,334.988 353.200,328.416 353.200 L 323.600 353.200 323.600 357.472 C 323.600 362.040,323.195 363.833,321.697 365.904 C 319.040 369.576,312.575 369.914,309.600 366.536 C 307.694 364.372,307.463 363.579,307.228 358.400 L 307.000 353.400 302.000 353.200 C 294.402 352.896,291.762 350.769,291.828 345.002 C 291.889 339.650,295.260 337.223,302.652 337.209 L 307.103 337.200 307.267 332.276 C 307.409 328.028,307.558 327.137,308.355 325.786 C 310.740 321.743,315.573 320.414,319.296 322.775 M103.027 337.730 C 109.545 340.224,110.097 349.499,103.911 352.585 C 101.770 353.652,67.339 353.491,65.207 352.404 C 59.388 349.435,59.661 341.032,65.673 338.055 C 67.724 337.040,100.478 336.755,103.027 337.730 " stroke="none" fill="#9ba3bb" fill-rule="evenodd"></path><path id="path1" d="M43.100 0.292 C 42.055 0.375,41.200 0.614,41.200 0.822 C 41.200 1.030,40.581 1.200,39.824 1.200 C 39.067 1.200,38.336 1.380,38.200 1.600 C 38.064 1.820,37.524 2.000,37.000 2.000 C 36.476 2.000,35.936 2.180,35.800 2.400 C 35.664 2.620,35.203 2.800,34.776 2.800 C 34.349 2.800,34.000 2.980,34.000 3.200 C 34.000 3.420,33.561 3.600,33.024 3.600 C 32.487 3.600,31.936 3.780,31.800 4.000 C 31.664 4.220,31.203 4.400,30.776 4.400 C 30.349 4.400,30.000 4.546,30.000 4.725 C 30.000 4.904,29.370 5.298,28.600 5.600 C 27.830 5.902,27.200 6.296,27.200 6.475 C 27.200 6.654,26.930 6.800,26.600 6.800 C 26.270 6.800,26.000 6.980,26.000 7.200 C 26.000 7.420,25.730 7.600,25.400 7.600 C 25.070 7.600,24.800 7.760,24.800 7.957 C 24.800 8.153,24.395 8.418,23.900 8.546 C 23.405 8.674,22.477 9.234,21.838 9.790 C 21.199 10.345,20.525 10.800,20.342 10.800 C 19.765 10.800,10.888 19.892,10.611 20.767 C 10.465 21.225,10.207 21.600,10.037 21.600 C 9.868 21.600,9.385 22.318,8.964 23.195 C 8.544 24.073,8.065 24.793,7.900 24.795 C 7.735 24.798,7.600 25.070,7.600 25.400 C 7.600 25.730,7.420 26.000,7.200 26.000 C 6.980 26.000,6.800 26.270,6.800 26.600 C 6.800 26.930,6.654 27.200,6.475 27.200 C 6.296 27.200,5.902 27.830,5.600 28.600 C 5.298 29.370,4.904 30.000,4.725 30.000 C 4.546 30.000,4.400 30.349,4.400 30.776 C 4.400 31.203,4.220 31.664,4.000 31.800 C 3.780 31.936,3.600 32.487,3.600 33.024 C 3.600 33.561,3.420 34.000,3.200 34.000 C 2.980 34.000,2.800 34.349,2.800 34.776 C 2.800 35.203,2.620 35.664,2.400 35.800 C 2.180 35.936,2.000 36.476,2.000 37.000 C 2.000 37.524,1.820 38.064,1.600 38.200 C 1.380 38.336,1.200 39.052,1.200 39.790 C 1.200 40.529,0.975 41.208,0.700 41.300 C -0.036 41.545,-0.036 358.455,0.700 358.700 C 0.975 358.792,1.200 359.471,1.200 360.210 C 1.200 360.948,1.380 361.664,1.600 361.800 C 1.820 361.936,2.000 362.476,2.000 363.000 C 2.000 363.524,2.180 364.064,2.400 364.200 C 2.620 364.336,2.800 364.797,2.800 365.224 C 2.800 365.651,2.980 366.000,3.200 366.000 C 3.420 366.000,3.600 366.439,3.600 366.976 C 3.600 367.513,3.780 368.064,4.000 368.200 C 4.220 368.336,4.400 368.797,4.400 369.224 C 4.400 369.651,4.546 370.000,4.725 370.000 C 4.904 370.000,5.298 370.630,5.600 371.400 C 5.902 372.170,6.296 372.800,6.475 372.800 C 6.654 372.800,6.800 373.070,6.800 373.400 C 6.800 373.730,6.980 374.000,7.200 374.000 C 7.420 374.000,7.600 374.270,7.600 374.600 C 7.600 374.930,7.735 375.202,7.900 375.205 C 8.065 375.207,8.544 375.927,8.964 376.805 C 9.385 377.682,9.868 378.400,10.037 378.400 C 10.207 378.400,10.465 378.775,10.611 379.233 C 10.889 380.109,19.766 389.200,20.343 389.200 C 20.527 389.200,21.110 389.581,21.639 390.047 C 22.167 390.513,23.095 391.071,23.700 391.286 C 24.305 391.502,24.800 391.841,24.800 392.039 C 24.800 392.238,25.070 392.400,25.400 392.400 C 25.730 392.400,26.000 392.580,26.000 392.800 C 26.000 393.020,26.270 393.200,26.600 393.200 C 26.930 393.200,27.200 393.346,27.200 393.525 C 27.200 393.704,27.830 394.098,28.600 394.400 C 29.370 394.702,30.000 395.096,30.000 395.275 C 30.000 395.454,30.349 395.600,30.776 395.600 C 31.203 395.600,31.664 395.780,31.800 396.000 C 31.936 396.220,32.487 396.400,33.024 396.400 C 33.561 396.400,34.000 396.580,34.000 396.800 C 34.000 397.020,34.272 397.200,34.605 397.200 C 34.938 397.200,35.523 397.358,35.905 397.551 C 37.056 398.132,39.403 398.800,40.295 398.800 C 40.756 398.800,41.208 399.025,41.300 399.300 C 41.545 400.036,358.455 400.036,358.700 399.300 C 358.792 399.025,359.244 398.800,359.705 398.800 C 360.597 398.800,362.944 398.132,364.095 397.551 C 364.477 397.358,365.062 397.200,365.395 397.200 C 365.728 397.200,366.000 397.020,366.000 396.800 C 366.000 396.580,366.439 396.400,366.976 396.400 C 367.513 396.400,368.064 396.220,368.200 396.000 C 368.336 395.780,368.797 395.600,369.224 395.600 C 369.651 395.600,370.000 395.420,370.000 395.200 C 370.000 394.980,370.360 394.800,370.800 394.800 C 371.240 394.800,371.600 394.620,371.600 394.400 C 371.600 394.180,371.870 394.000,372.200 394.000 C 372.530 394.000,372.800 393.820,372.800 393.600 C 372.800 393.380,373.070 393.200,373.400 393.200 C 373.730 393.200,374.000 393.020,374.000 392.800 C 374.000 392.580,374.270 392.400,374.600 392.400 C 374.930 392.400,375.200 392.240,375.200 392.043 C 375.200 391.847,375.605 391.582,376.100 391.454 C 376.595 391.326,377.523 390.766,378.162 390.210 C 378.801 389.655,379.475 389.200,379.658 389.200 C 380.094 389.200,389.200 380.094,389.200 379.658 C 389.200 379.475,389.655 378.801,390.210 378.162 C 390.766 377.523,391.326 376.595,391.454 376.100 C 391.582 375.605,391.847 375.200,392.043 375.200 C 392.240 375.200,392.400 374.930,392.400 374.600 C 392.400 374.270,392.580 374.000,392.800 374.000 C 393.020 374.000,393.200 373.730,393.200 373.400 C 393.200 373.070,393.380 372.800,393.600 372.800 C 393.820 372.800,394.000 372.530,394.000 372.200 C 394.000 371.870,394.180 371.600,394.400 371.600 C 394.620 371.600,394.800 371.240,394.800 370.800 C 394.800 370.360,394.980 370.000,395.200 370.000 C 395.420 370.000,395.600 369.651,395.600 369.224 C 395.600 368.797,395.780 368.336,396.000 368.200 C 396.220 368.064,396.400 367.513,396.400 366.976 C 396.400 366.439,396.580 366.000,396.800 366.000 C 397.020 366.000,397.200 365.728,397.200 365.395 C 397.200 365.062,397.358 364.477,397.551 364.095 C 398.132 362.944,398.800 360.597,398.800 359.705 C 398.800 359.244,399.025 358.792,399.300 358.700 C 399.698 358.567,399.822 336.840,399.907 252.224 L 400.013 145.916 399.168 144.548 C 398.276 143.105,396.574 142.000,395.243 142.000 C 394.806 142.000,394.336 141.820,394.200 141.600 C 393.823 140.989,392.515 141.124,392.255 141.800 C 392.129 142.130,391.652 142.400,391.197 142.400 C 388.731 142.400,385.742 145.160,384.867 148.246 C 384.517 149.481,384.399 174.968,384.395 250.246 L 384.391 350.600 383.396 354.600 C 379.704 369.450,368.028 380.672,353.000 383.814 C 350.571 384.322,330.296 384.399,199.800 384.395 L 49.400 384.391 45.400 383.396 C 30.443 379.677,19.415 368.083,16.207 352.705 C 15.286 348.292,15.286 51.708,16.207 47.295 C 19.556 31.239,31.239 19.556,47.295 16.207 C 51.708 15.286,348.292 15.286,352.705 16.207 C 368.083 19.415,379.677 30.443,383.396 45.400 C 384.385 49.376,384.391 49.513,384.395 68.323 C 384.399 81.408,384.544 87.818,384.867 89.100 C 385.505 91.633,388.072 94.207,390.343 94.590 C 391.252 94.744,392.097 95.034,392.222 95.235 C 392.529 95.732,395.600 95.701,395.600 95.200 C 395.600 94.980,395.876 94.800,396.213 94.800 C 396.551 94.800,397.496 94.131,398.313 93.313 L 399.800 91.826 399.800 66.646 C 399.800 46.858,399.693 41.431,399.300 41.300 C 399.025 41.208,398.800 40.756,398.800 40.295 C 398.800 39.403,398.132 37.056,397.551 35.905 C 397.358 35.523,397.200 34.938,397.200 34.605 C 397.200 34.272,397.020 34.000,396.800 34.000 C 396.580 34.000,396.400 33.561,396.400 33.024 C 396.400 32.487,396.220 31.936,396.000 31.800 C 395.780 31.664,395.600 31.203,395.600 30.776 C 395.600 30.349,395.420 30.000,395.200 30.000 C 394.980 30.000,394.800 29.640,394.800 29.200 C 394.800 28.760,394.620 28.400,394.400 28.400 C 394.180 28.400,394.000 28.130,394.000 27.800 C 394.000 27.470,393.820 27.200,393.600 27.200 C 393.380 27.200,393.200 26.930,393.200 26.600 C 393.200 26.270,393.020 26.000,392.800 26.000 C 392.580 26.000,392.400 25.730,392.400 25.400 C 392.400 25.070,392.240 24.800,392.043 24.800 C 391.847 24.800,391.582 24.395,391.454 23.900 C 391.326 23.405,390.766 22.477,390.210 21.838 C 389.655 21.199,389.200 20.525,389.200 20.342 C 389.200 19.765,380.108 10.888,379.233 10.611 C 378.775 10.465,378.400 10.207,378.400 10.037 C 378.400 9.868,377.682 9.385,376.805 8.964 C 375.927 8.544,375.207 8.065,375.205 7.900 C 375.202 7.735,374.930 7.600,374.600 7.600 C 374.270 7.600,374.000 7.420,374.000 7.200 C 374.000 6.980,373.730 6.800,373.400 6.800 C 373.070 6.800,372.800 6.620,372.800 6.400 C 372.800 6.180,372.530 6.000,372.200 6.000 C 371.870 6.000,371.600 5.820,371.600 5.600 C 371.600 5.380,371.240 5.200,370.800 5.200 C 370.360 5.200,370.000 5.020,370.000 4.800 C 370.000 4.580,369.651 4.400,369.224 4.400 C 368.797 4.400,368.336 4.220,368.200 4.000 C 368.064 3.780,367.513 3.600,366.976 3.600 C 366.439 3.600,366.000 3.420,366.000 3.200 C 366.000 2.980,365.651 2.800,365.224 2.800 C 364.797 2.800,364.336 2.620,364.200 2.400 C 364.064 2.180,363.524 2.000,363.000 2.000 C 362.476 2.000,361.936 1.820,361.800 1.600 C 361.664 1.380,360.948 1.200,360.210 1.200 C 359.471 1.200,358.792 0.975,358.700 0.700 C 358.544 0.230,48.871 -0.170,43.100 0.292 M44.419 39.722 C 42.537 40.322,40.285 42.673,39.690 44.656 C 38.909 47.263,38.981 298.979,39.764 300.851 C 40.643 302.956,41.992 304.434,43.769 305.241 C 46.362 306.419,354.019 306.417,356.316 305.239 C 358.192 304.277,359.393 302.993,360.181 301.107 C 360.735 299.781,360.800 286.349,360.800 172.608 L 360.800 45.591 359.946 43.775 C 359.021 41.806,357.383 40.373,355.240 39.655 C 353.329 39.015,46.428 39.081,44.419 39.722 M345.501 172.700 L 345.601 290.800 200.001 290.800 L 54.400 290.800 54.400 172.867 C 54.400 108.003,54.520 54.813,54.667 54.666 C 54.814 54.519,120.289 54.444,200.167 54.499 L 345.400 54.600 345.501 172.700 M392.284 110.400 C 392.147 110.924,391.738 111.200,391.099 111.200 C 385.367 111.200,382.646 119.484,386.967 123.778 C 389.126 125.923,395.600 127.889,395.600 126.400 C 395.600 126.180,395.960 126.000,396.400 126.000 C 396.840 126.000,397.200 125.832,397.200 125.627 C 397.200 125.422,397.543 125.145,397.961 125.012 C 401.238 123.972,400.600 112.479,397.205 111.402 C 396.762 111.261,396.400 110.978,396.400 110.773 C 396.400 110.568,395.871 110.400,395.224 110.400 C 394.577 110.400,393.936 110.220,393.800 110.000 C 393.382 109.324,392.505 109.556,392.284 110.400 M196.441 110.916 C 194.686 111.476,191.796 114.259,191.370 115.800 C 190.789 117.898,190.677 226.250,191.253 228.742 C 192.569 234.440,199.057 236.560,203.430 232.720 C 206.078 230.395,206.000 231.248,206.000 204.551 L 206.000 180.400 225.796 180.400 C 244.175 180.400,245.732 180.346,247.563 179.651 C 252.851 177.642,254.408 171.659,250.681 167.667 C 248.519 165.352,249.150 165.417,226.800 165.200 L 206.200 165.000 206.200 145.400 L 206.200 125.800 226.584 125.696 C 239.369 125.631,247.115 125.445,247.364 125.196 C 247.582 124.978,248.063 124.800,248.433 124.800 C 248.804 124.800,249.746 124.093,250.527 123.228 C 254.503 118.827,252.789 112.622,247.129 110.929 C 244.867 110.253,198.556 110.240,196.441 110.916 M135.200 112.589 C 116.834 116.116,109.776 138.017,122.707 151.351 C 128.802 157.636,138.641 160.080,146.200 157.187 C 146.640 157.019,147.630 156.649,148.400 156.367 C 151.880 155.090,157.582 150.097,158.860 147.209 C 159.155 146.544,159.531 146.000,159.698 146.000 C 159.864 146.000,160.000 145.676,160.000 145.280 C 160.000 144.884,160.149 144.389,160.330 144.180 C 160.642 143.822,160.947 142.848,161.968 138.954 C 162.991 135.053,162.053 129.603,159.473 124.462 C 155.174 115.893,144.692 110.766,135.200 112.589 M142.889 128.143 C 146.697 130.242,148.313 135.054,146.441 138.716 C 142.536 146.352,131.190 143.882,131.208 135.400 C 131.221 129.176,137.588 125.221,142.889 128.143 M141.035 322.813 C 136.509 325.071,136.600 324.605,136.600 345.600 L 136.600 363.400 137.591 364.800 C 140.650 369.120,135.661 368.800,200.000 368.800 C 261.070 368.800,258.387 368.901,261.001 366.502 C 263.456 364.249,263.400 364.738,263.400 345.440 C 263.400 324.533,263.423 324.641,258.451 322.564 C 255.988 321.534,143.117 321.774,141.035 322.813 M312.911 322.564 C 309.180 323.922,308.246 325.750,308.000 332.180 L 307.800 337.400 303.000 337.646 C 294.859 338.064,292.367 339.859,292.429 345.262 C 292.491 350.630,294.840 352.492,301.922 352.788 C 308.420 353.059,308.000 352.663,308.001 358.524 C 308.004 366.054,311.363 369.696,316.984 368.262 C 321.406 367.134,322.800 364.751,322.800 358.320 C 322.800 352.625,322.632 352.800,328.093 352.800 C 335.252 352.800,338.400 350.541,338.400 345.403 C 338.400 340.120,335.447 337.949,327.800 337.612 L 323.000 337.400 322.800 332.136 C 322.499 324.220,318.636 320.482,312.911 322.564 M247.767 337.443 C 248.314 337.653,248.400 338.738,248.400 345.443 L 248.400 353.200 200.000 353.200 L 151.600 353.200 151.600 345.433 C 151.600 339.594,151.724 337.617,152.100 337.465 C 152.821 337.174,247.011 337.152,247.767 337.443 M66.031 338.527 C 59.856 341.686,60.293 350.534,66.718 352.412 C 67.711 352.702,73.957 352.805,85.663 352.722 L 103.127 352.600 104.663 351.358 C 107.994 348.665,108.746 344.410,106.475 341.110 C 105.338 339.456,104.796 339.061,102.281 338.050 C 99.824 337.062,68.079 337.480,66.031 338.527 " stroke="none" fill="#040404" fill-rule="evenodd"></path><path id="path2" d="M55.067 55.066 C 54.920 55.213,54.800 108.223,54.800 172.867 L 54.800 290.400 200.001 290.400 L 345.201 290.400 345.101 172.700 L 345.000 55.000 200.167 54.899 C 120.509 54.844,55.214 54.919,55.067 55.066 M248.451 110.593 C 254.261 113.149,255.038 122.457,249.642 124.846 C 248.959 125.148,248.400 125.531,248.400 125.698 C 248.400 125.864,239.059 126.000,227.643 126.000 C 209.084 126.000,206.860 126.067,206.643 126.633 C 206.509 126.981,206.400 135.612,206.400 145.813 L 206.400 164.360 227.100 164.480 L 247.800 164.600 249.593 165.811 C 254.949 169.427,254.288 177.770,248.451 180.231 C 247.345 180.698,243.445 180.800,226.751 180.800 L 206.400 180.800 206.400 205.428 L 206.400 230.056 205.153 231.868 C 201.674 236.925,194.954 236.625,191.552 231.261 L 190.400 229.443 190.400 172.759 L 190.400 116.076 191.300 114.384 C 192.120 112.843,193.187 111.838,195.400 110.523 C 196.719 109.739,246.660 109.806,248.451 110.593 M145.000 112.172 C 147.156 112.690,149.661 113.825,152.000 115.344 C 157.020 118.605,160.722 123.788,162.356 129.846 C 162.935 131.992,162.927 138.943,162.345 140.772 C 161.374 143.815,159.611 147.706,159.100 147.933 C 158.935 148.007,158.800 148.297,158.800 148.578 C 158.800 149.829,152.416 155.436,149.600 156.659 C 145.272 158.538,144.000 158.800,139.200 158.800 C 134.490 158.800,132.733 158.450,129.000 156.766 C 111.105 148.694,111.105 121.568,129.000 113.825 C 129.880 113.444,130.913 112.968,131.295 112.766 C 131.677 112.565,132.431 112.400,132.971 112.400 C 133.511 112.400,134.070 112.210,134.214 111.977 C 134.500 111.515,142.900 111.667,145.000 112.172 M137.800 128.061 C 131.964 129.994,129.969 135.338,133.403 139.839 C 135.044 141.991,140.182 143.723,141.000 142.400 C 141.136 142.180,141.597 142.000,142.024 142.000 C 144.246 142.000,147.521 136.094,146.430 134.055 C 146.193 133.614,146.000 132.935,146.000 132.546 C 146.000 131.561,142.724 128.565,141.341 128.286 C 140.714 128.160,139.930 127.968,139.600 127.860 C 139.270 127.752,138.460 127.842,137.800 128.061 " stroke="none" fill="#fbf3f3" fill-rule="evenodd"></path><path id="path3" d="M152.268 337.865 C 152.121 338.013,152.000 341.433,152.000 345.467 L 152.000 352.800 200.009 352.800 L 248.018 352.800 247.909 345.300 L 247.800 337.800 200.168 337.698 C 173.971 337.642,152.416 337.717,152.268 337.865 " stroke="none" fill="#faca6b" fill-rule="evenodd"></path><path id="path4" d="M47.099 16.206 C 31.110 19.697,19.534 31.347,16.207 47.295 C 15.286 51.708,15.286 348.292,16.207 352.705 C 19.415 368.083,30.443 379.677,45.400 383.396 L 49.400 384.391 199.800 384.395 C 330.296 384.399,350.571 384.322,353.000 383.814 C 368.028 380.672,379.704 369.450,383.396 354.600 L 384.391 350.600 384.395 250.246 C 384.399 174.968,384.517 149.481,384.867 148.246 C 385.737 145.181,388.730 142.400,391.160 142.400 C 391.596 142.400,392.044 142.253,392.155 142.072 C 392.434 141.621,390.023 141.949,388.806 142.527 C 387.205 143.288,385.983 144.487,385.061 146.200 L 384.200 147.800 383.989 249.800 L 383.779 351.800 382.927 354.800 C 378.512 370.343,366.179 381.463,351.000 383.587 C 345.265 384.389,48.803 383.944,46.000 383.129 C 37.575 380.679,32.500 377.810,27.345 372.583 C 21.414 366.570,18.037 360.025,16.622 351.800 C 15.679 346.317,15.679 53.683,16.622 48.200 C 19.036 34.167,28.731 22.748,42.200 18.074 C 48.521 15.881,39.244 16.003,200.000 16.003 C 360.621 16.003,351.524 15.884,357.730 18.057 C 359.011 18.506,360.162 18.771,360.287 18.646 C 360.412 18.521,360.264 18.335,359.957 18.232 C 351.364 15.359,366.031 15.595,199.600 15.652 C 80.708 15.693,48.920 15.809,47.099 16.206 M360.800 18.958 C 360.800 19.045,361.745 19.610,362.900 20.213 C 372.811 25.388,379.874 34.213,382.901 45.200 C 383.670 47.991,383.744 49.637,383.964 68.800 C 384.197 89.096,384.213 89.425,385.089 91.062 C 386.383 93.482,389.456 95.600,391.672 95.600 C 393.015 95.600,392.069 94.882,390.343 94.590 C 388.072 94.207,385.505 91.633,384.867 89.100 C 384.544 87.818,384.399 81.408,384.395 68.323 C 384.389 42.268,382.994 37.196,373.069 27.129 C 369.150 23.154,360.800 17.593,360.800 18.958 M43.435 39.613 C 41.290 40.683,40.588 41.388,39.626 43.434 L 38.800 45.191 38.800 172.547 C 38.800 309.881,38.664 300.995,40.801 303.711 C 43.145 306.691,25.919 306.400,200.192 306.400 L 355.616 306.400 357.228 305.382 C 358.115 304.823,359.371 303.527,360.020 302.504 L 361.200 300.643 361.200 172.917 L 361.200 45.191 360.352 43.387 C 359.433 41.432,358.167 40.248,356.051 39.364 C 353.569 38.327,45.521 38.572,43.435 39.613 M355.240 39.655 C 357.383 40.373,359.021 41.806,359.946 43.775 L 360.800 45.591 360.800 172.608 C 360.800 286.349,360.735 299.781,360.181 301.107 C 359.393 302.993,358.192 304.277,356.316 305.239 C 354.019 306.417,46.362 306.419,43.769 305.241 C 41.992 304.434,40.643 302.956,39.764 300.851 C 38.981 298.979,38.909 47.263,39.690 44.656 C 40.285 42.673,42.537 40.322,44.419 39.722 C 46.428 39.081,353.329 39.015,355.240 39.655 M54.667 54.666 C 54.296 55.037,54.329 290.800,54.700 290.800 C 54.865 290.800,54.954 237.700,54.899 172.800 L 54.797 54.800 200.000 54.800 L 345.203 54.800 345.101 172.800 C 345.046 237.700,345.135 290.800,345.301 290.800 C 345.466 290.800,345.556 237.655,345.501 172.700 L 345.400 54.600 200.167 54.499 C 120.289 54.444,54.814 54.519,54.667 54.666 M195.386 110.960 C 194.183 111.484,191.424 113.957,191.716 114.249 C 191.800 114.333,192.590 113.715,193.471 112.877 C 194.353 112.038,195.687 111.156,196.437 110.917 C 197.187 110.677,197.530 110.470,197.200 110.456 C 196.870 110.443,196.054 110.669,195.386 110.960 M247.200 110.898 C 247.970 111.128,249.320 111.861,250.200 112.528 C 251.671 113.642,251.723 113.656,250.851 112.693 C 249.769 111.497,247.631 110.381,246.540 110.441 C 246.133 110.463,246.430 110.669,247.200 110.898 M391.000 110.674 C 385.475 111.384,382.358 117.982,385.327 122.684 C 386.824 125.055,390.158 127.101,391.868 126.699 C 392.322 126.592,391.849 126.325,390.622 125.996 C 382.793 123.897,383.150 111.200,391.038 111.200 C 391.541 111.200,392.064 111.020,392.200 110.800 C 392.336 110.580,392.392 110.427,392.324 110.460 C 392.256 110.493,391.660 110.589,391.000 110.674 M134.000 112.389 C 123.530 114.611,115.544 124.694,115.614 135.600 C 115.629 137.831,116.509 142.264,117.032 142.740 C 117.189 142.883,117.197 142.550,117.049 142.000 C 113.371 128.308,121.441 115.232,135.200 112.589 C 136.630 112.314,137.260 112.090,136.600 112.091 C 135.940 112.091,134.770 112.226,134.000 112.389 M142.800 112.459 C 149.779 113.768,156.493 118.518,159.330 124.154 C 160.516 126.510,161.057 127.129,160.385 125.360 C 158.957 121.605,154.028 116.506,149.895 114.509 C 146.126 112.687,145.519 112.491,142.961 112.260 L 140.600 112.047 142.800 112.459 M252.218 115.650 C 253.215 118.477,252.683 120.822,250.473 123.328 C 249.663 124.248,249.360 124.730,249.800 124.400 C 252.692 122.231,253.862 118.483,252.595 115.449 C 251.768 113.471,251.500 113.615,252.218 115.650 M191.029 115.829 C 190.881 116.415,190.851 116.984,190.961 117.094 C 191.071 117.204,191.281 116.815,191.429 116.229 C 191.576 115.642,191.606 115.073,191.496 114.963 C 191.386 114.853,191.176 115.242,191.029 115.829 M206.183 126.100 C 206.078 126.375,206.039 135.240,206.096 145.800 L 206.200 165.000 226.800 165.200 C 249.150 165.417,248.519 165.352,250.681 167.667 C 252.662 169.789,253.194 172.382,252.218 175.150 C 251.500 177.185,251.768 177.329,252.595 175.351 C 253.717 172.664,253.043 169.470,250.902 167.328 C 248.327 164.753,248.776 164.800,226.551 164.800 L 206.400 164.800 206.400 145.404 L 206.400 126.007 226.700 125.900 L 247.000 125.793 226.687 125.696 C 210.735 125.621,206.334 125.707,206.183 126.100 M134.979 128.500 C 133.927 129.215,132.782 130.246,132.433 130.791 C 132.062 131.372,132.485 131.102,133.454 130.138 C 135.427 128.175,137.403 127.441,140.033 127.694 C 141.100 127.796,141.878 127.727,141.763 127.540 C 141.177 126.592,136.894 127.198,134.979 128.500 M144.021 129.467 C 147.242 132.376,147.736 136.129,145.362 139.656 C 144.434 141.035,144.237 141.510,144.805 140.996 C 148.258 137.873,147.858 131.547,144.037 128.826 C 142.237 127.545,142.230 127.849,144.021 129.467 M161.668 130.200 C 161.662 130.860,161.811 131.760,162.000 132.200 C 162.470 133.294,162.470 131.467,162.000 130.000 C 161.688 129.025,161.679 129.030,161.668 130.200 M131.242 137.000 C 131.193 138.009,132.587 140.323,133.955 141.500 C 135.726 143.024,135.674 142.495,133.875 140.696 C 132.938 139.759,131.971 138.364,131.726 137.596 C 131.445 136.714,131.267 136.494,131.242 137.000 M161.778 139.378 C 161.627 140.181,161.594 140.927,161.704 141.037 C 161.814 141.147,162.027 140.581,162.178 139.778 C 162.328 138.975,162.362 138.228,162.252 138.118 C 162.142 138.008,161.928 138.575,161.778 139.378 M142.242 142.259 C 141.424 142.702,140.348 142.839,138.570 142.726 C 137.187 142.638,136.143 142.708,136.251 142.883 C 136.822 143.806,143.586 142.901,143.597 141.900 C 143.601 141.519,143.617 141.514,142.242 142.259 M161.000 142.400 C 160.850 142.873,160.817 143.350,160.927 143.460 C 161.037 143.570,161.250 143.273,161.400 142.800 C 161.550 142.327,161.583 141.850,161.473 141.740 C 161.363 141.630,161.150 141.927,161.000 142.400 M117.218 143.439 C 117.193 144.057,118.444 146.489,118.671 146.263 C 118.774 146.160,118.493 145.384,118.047 144.538 C 117.600 143.692,117.227 143.197,117.218 143.439 M158.860 147.209 C 157.534 150.206,151.710 155.239,148.200 156.424 C 147.320 156.720,146.429 157.107,146.220 157.282 C 146.011 157.457,145.381 157.613,144.820 157.628 C 144.259 157.644,143.440 157.826,143.000 158.032 C 142.413 158.309,142.625 158.350,143.800 158.188 C 147.194 157.719,151.540 155.507,154.918 152.530 C 157.129 150.582,160.492 146.000,159.712 146.000 C 159.538 146.000,159.155 146.544,158.860 147.209 M118.867 147.164 C 119.228 148.148,122.866 152.389,124.052 153.208 C 125.017 153.875,124.736 153.457,123.061 151.733 C 121.774 150.410,120.361 148.758,119.921 148.063 C 119.166 146.871,118.574 146.366,118.867 147.164 M125.867 154.407 C 126.893 155.709,133.416 158.441,135.314 158.364 C 135.919 158.339,135.756 158.211,134.800 157.960 C 130.655 156.871,129.326 156.319,126.474 154.499 C 125.674 153.989,125.519 153.965,125.867 154.407 M137.491 158.689 C 138.201 158.777,139.461 158.779,140.291 158.692 C 141.121 158.605,140.540 158.533,139.000 158.531 C 137.460 158.529,136.781 158.600,137.491 158.689 M250.350 178.025 C 249.993 178.473,248.823 179.182,247.750 179.601 C 246.678 180.020,246.122 180.371,246.516 180.381 C 247.493 180.407,250.032 179.071,250.962 178.043 C 251.381 177.579,251.561 177.202,251.362 177.205 C 251.163 177.208,250.708 177.577,250.350 178.025 M206.097 204.451 C 206.016 224.592,205.902 228.938,205.419 230.093 C 204.189 233.036,200.357 235.155,197.236 234.618 C 196.192 234.438,195.964 234.482,196.400 234.779 C 197.951 235.835,201.940 234.833,203.872 232.902 C 206.498 230.275,206.417 231.223,206.300 204.444 L 206.194 180.200 206.097 204.451 M190.834 228.600 C 190.822 229.040,190.987 229.670,191.200 230.000 C 191.714 230.795,191.714 229.796,191.200 228.600 L 190.856 227.800 190.834 228.600 M191.967 231.484 C 192.411 232.369,194.797 234.400,195.392 234.400 C 195.566 234.400,195.189 234.001,194.554 233.514 C 193.919 233.027,192.978 232.172,192.462 231.614 C 191.623 230.708,191.571 230.694,191.967 231.484 M140.659 322.401 C 138.862 323.298,137.358 324.873,136.563 326.687 C 135.688 328.687,135.739 361.801,136.621 363.913 C 137.770 366.663,140.468 368.827,142.680 368.772 C 143.622 368.749,143.513 368.653,142.000 368.168 C 139.946 367.511,138.998 366.787,137.591 364.800 L 136.600 363.400 136.600 345.600 C 136.600 324.511,136.572 324.644,141.549 322.564 C 143.568 321.720,256.432 321.720,258.451 322.564 C 260.474 323.409,261.902 324.675,262.692 326.323 C 263.685 328.396,263.783 362.339,262.801 364.240 C 261.894 365.994,260.006 367.543,258.000 368.176 C 256.359 368.694,256.308 368.747,257.420 368.772 C 260.284 368.838,263.230 365.692,263.997 361.752 C 264.756 357.850,264.385 328.600,263.553 326.800 C 262.677 324.904,260.713 322.941,258.954 322.207 C 256.422 321.149,142.794 321.335,140.659 322.401 M312.175 322.317 C 308.174 324.548,307.478 325.962,307.267 332.276 L 307.103 337.200 302.652 337.209 C 295.260 337.223,291.889 339.650,291.828 345.002 C 291.762 350.769,294.402 352.896,302.000 353.200 L 307.000 353.400 307.228 358.400 C 307.463 363.579,307.694 364.372,309.600 366.536 C 310.878 367.987,312.458 368.810,313.880 368.764 C 314.943 368.730,314.929 368.708,313.600 368.330 C 309.336 367.118,308.003 364.784,308.001 358.524 C 308.000 352.663,308.420 353.059,301.922 352.788 C 294.840 352.492,292.491 350.630,292.429 345.262 C 292.367 339.859,294.859 338.064,303.000 337.646 L 307.800 337.400 308.000 332.180 C 308.250 325.645,309.170 323.903,313.094 322.537 C 318.771 320.560,322.500 324.248,322.800 332.136 L 323.000 337.400 327.800 337.612 C 335.447 337.949,338.400 340.120,338.400 345.403 C 338.400 350.541,335.252 352.800,328.093 352.800 C 322.632 352.800,322.800 352.625,322.800 358.320 C 322.800 364.692,321.425 367.091,317.103 368.261 C 315.682 368.645,315.585 368.728,316.516 368.761 C 320.933 368.916,323.600 364.666,323.600 357.472 L 323.600 353.200 328.416 353.200 C 334.988 353.200,337.243 351.968,338.720 347.572 C 340.748 341.537,336.329 337.225,328.100 337.209 L 323.600 337.200 323.594 333.100 C 323.581 324.296,318.028 319.052,312.175 322.317 M65.673 338.055 C 59.661 341.032,59.388 349.435,65.207 352.404 C 67.339 353.491,101.770 353.652,103.911 352.585 C 110.097 349.499,109.545 340.224,103.027 337.730 C 100.478 336.755,67.724 337.040,65.673 338.055 M152.100 337.465 C 151.724 337.617,151.600 339.594,151.600 345.433 L 151.600 353.200 200.000 353.200 L 248.400 353.200 248.400 345.443 C 248.400 338.738,248.314 337.653,247.767 337.443 C 247.011 337.152,152.821 337.174,152.100 337.465 M102.281 338.050 C 104.796 339.061,105.338 339.456,106.475 341.110 C 108.746 344.410,107.994 348.665,104.663 351.358 L 103.127 352.600 85.663 352.722 C 73.957 352.805,67.711 352.702,66.718 352.412 C 60.293 350.534,59.856 341.686,66.031 338.527 C 68.079 337.480,99.824 337.062,102.281 338.050 M247.909 345.300 L 248.018 352.800 200.009 352.800 L 152.000 352.800 152.000 345.467 C 152.000 341.433,152.121 338.013,152.268 337.865 C 152.416 337.717,173.971 337.642,200.168 337.698 L 247.800 337.800 247.909 345.300 " stroke="none" fill="#5d5f68" fill-rule="evenodd"></path></g></svg>