<svg id="svg" version="1.1" xmlns="http://www.w3.org/2000/svg" xmlns:xlink="http://www.w3.org/1999/xlink" width="400" height="400" viewBox="0, 0, 400,400"><g id="svgg"><path id="path0" d="M172.000 16.210 C 171.670 16.275,170.050 16.548,168.400 16.816 C 156.905 18.688,144.049 26.697,137.608 36.000 C 137.075 36.770,136.534 37.490,136.407 37.600 C 134.626 39.138,130.125 49.097,129.176 53.600 C 127.563 61.256,127.614 58.070,127.607 152.051 C 127.601 232.868,127.537 242.054,126.971 243.409 C 126.624 244.237,124.869 246.374,123.071 248.157 C 118.034 253.151,112.218 260.240,110.731 263.200 C 110.455 263.750,109.931 264.650,109.567 265.200 C 106.320 270.109,102.472 279.653,100.778 287.000 C 98.060 298.787,98.242 316.524,101.170 325.200 C 101.355 325.750,101.729 327.010,101.999 328.000 C 102.270 328.990,102.634 330.160,102.809 330.600 C 102.984 331.040,103.575 332.573,104.124 334.006 C 111.662 353.700,128.337 370.473,148.300 378.441 C 148.795 378.638,149.605 378.968,150.100 379.174 C 160.868 383.645,178.810 385.318,191.200 383.005 C 202.024 380.985,211.769 377.100,220.600 371.286 C 222.800 369.837,224.690 368.549,224.800 368.423 C 224.910 368.298,225.847 367.566,226.882 366.797 C 229.708 364.699,237.945 356.208,240.461 352.800 C 250.710 338.917,255.670 324.917,256.264 308.200 C 256.747 294.572,254.182 282.315,248.379 270.530 C 246.328 266.364,241.669 258.631,240.829 258.000 C 240.682 257.890,239.731 256.720,238.715 255.400 C 237.698 254.080,235.132 251.290,233.013 249.200 C 229.125 245.367,228.399 244.316,227.628 241.400 C 227.038 239.170,227.068 217.992,227.665 215.018 C 228.357 211.573,231.690 208.400,234.619 208.400 L 235.600 208.400 235.600 200.800 L 235.600 193.200 234.624 193.200 C 234.087 193.200,233.536 193.020,233.400 192.800 C 233.264 192.580,232.848 192.400,232.476 192.400 C 230.965 192.398,228.237 189.071,227.789 186.684 C 226.936 182.135,230.408 177.200,234.461 177.200 L 235.600 177.200 235.600 169.697 L 235.600 162.195 233.900 161.671 C 226.844 159.498,227.200 162.463,227.200 105.786 C 227.200 73.007,227.067 58.236,226.759 56.906 C 225.890 53.146,225.516 51.789,225.161 51.105 C 224.962 50.723,224.800 50.125,224.800 49.776 C 224.800 44.902,209.123 24.400,205.396 24.400 C 205.257 24.400,204.392 23.887,203.472 23.259 C 195.920 18.106,180.244 14.595,172.000 16.210 M184.751 39.395 C 194.343 42.010,201.991 50.092,204.351 60.106 C 204.677 61.488,204.801 88.651,204.805 158.906 L 204.810 255.800 206.199 256.700 C 206.964 257.195,207.737 257.600,207.919 257.600 C 208.101 257.600,208.598 257.920,209.025 258.311 C 209.451 258.702,210.430 259.464,211.200 260.004 C 215.007 262.673,220.183 267.853,222.788 271.600 C 223.323 272.370,223.862 273.090,223.984 273.200 C 225.199 274.289,228.735 281.218,230.526 286.017 C 241.257 314.766,224.896 349.268,196.200 358.402 C 195.320 358.682,194.240 359.052,193.800 359.225 C 193.360 359.398,192.460 359.653,191.800 359.791 C 191.140 359.930,189.790 360.217,188.800 360.430 C 183.092 361.657,172.374 361.820,167.600 360.753 C 163.371 359.808,162.070 359.465,159.800 358.701 C 130.248 348.750,114.267 316.863,124.068 287.400 C 127.350 277.531,135.110 266.468,142.600 260.977 C 143.480 260.332,144.291 259.684,144.402 259.538 C 144.513 259.391,145.773 258.560,147.202 257.691 L 149.800 256.111 150.019 159.156 C 150.179 88.182,150.361 61.705,150.697 60.352 C 153.383 49.544,161.343 41.361,171.200 39.275 C 172.410 39.019,173.760 38.726,174.200 38.624 C 175.638 38.289,182.550 38.795,184.751 39.395 M172.876 55.675 C 167.839 58.118,166.400 61.437,166.400 70.615 L 166.400 77.200 177.600 77.200 L 188.800 77.200 188.800 70.694 C 188.800 62.501,188.308 60.821,184.993 57.700 C 183.766 56.545,182.422 55.600,182.005 55.600 C 181.588 55.600,181.136 55.420,181.000 55.200 C 180.525 54.431,174.745 54.770,172.876 55.675 " stroke="none" fill="#fbced5" fill-rule="evenodd"></path><path id="path1" d="M243.509 116.700 L 243.400 156.600 242.421 158.046 C 241.238 159.794,239.578 160.970,237.300 161.671 L 235.600 162.195 235.600 169.697 L 235.600 177.200 236.805 177.200 C 240.757 177.200,244.341 182.474,243.386 186.884 C 242.891 189.165,240.159 192.398,238.724 192.400 C 238.352 192.400,237.936 192.580,237.800 192.800 C 237.664 193.020,237.113 193.200,236.576 193.200 L 235.600 193.200 235.600 200.845 L 235.600 208.491 237.300 208.258 C 238.235 208.130,240.350 207.920,242.000 207.792 C 243.650 207.664,245.720 207.406,246.600 207.219 C 253.275 205.797,253.713 205.679,258.200 204.085 C 267.417 200.811,277.673 193.945,283.829 186.925 C 287.551 182.681,289.600 180.123,289.600 179.720 C 289.600 179.517,289.924 179.002,290.320 178.575 C 290.716 178.149,291.481 176.990,292.020 176.000 C 292.559 175.010,293.099 174.110,293.221 174.000 C 293.437 173.805,293.670 173.316,295.705 168.800 C 301.651 155.605,302.843 141.245,299.274 125.800 C 298.064 120.564,293.177 109.520,290.524 106.027 C 290.262 105.682,288.980 103.960,287.675 102.200 C 278.934 90.412,265.541 81.695,250.600 78.069 C 246.640 77.108,245.134 76.800,244.404 76.800 C 243.630 76.800,243.617 77.359,243.509 116.700 M166.800 178.005 C 166.800 225.821,166.648 262.310,166.447 262.705 C 166.252 263.087,165.856 263.907,165.565 264.526 C 164.709 266.352,162.981 267.894,160.540 269.010 C 155.082 271.507,144.800 280.202,144.800 282.321 C 144.800 282.502,144.475 282.998,144.078 283.425 C 143.680 283.851,143.097 284.785,142.780 285.500 C 142.464 286.215,142.069 286.800,141.902 286.800 C 141.736 286.800,141.600 287.065,141.600 287.388 C 141.600 287.711,141.274 288.566,140.875 289.288 C 140.126 290.642,138.741 295.401,138.014 299.120 C 136.418 307.287,139.646 322.074,144.096 326.975 C 144.483 327.402,144.800 327.898,144.800 328.079 C 144.800 328.694,150.446 334.708,152.629 336.418 C 154.400 337.805,157.169 339.600,157.539 339.600 C 157.756 339.600,157.993 339.735,158.067 339.900 C 158.259 340.332,161.572 342.000,162.238 342.000 C 162.547 342.000,162.800 342.180,162.800 342.400 C 162.800 342.620,163.239 342.800,163.776 342.800 C 164.313 342.800,164.864 342.980,165.000 343.200 C 165.136 343.420,165.766 343.600,166.400 343.600 C 167.034 343.600,167.664 343.780,167.800 344.000 C 167.936 344.220,168.811 344.400,169.744 344.400 C 170.677 344.400,171.630 344.590,171.862 344.822 C 172.628 345.588,186.477 344.820,187.380 343.961 C 187.589 343.763,188.176 343.600,188.685 343.600 C 189.194 343.600,189.923 343.441,190.305 343.247 C 190.687 343.052,191.450 342.715,192.000 342.497 C 195.914 340.947,200.449 338.236,203.171 335.818 C 205.923 333.373,208.257 330.968,209.204 329.600 C 209.737 328.830,210.405 327.962,210.687 327.671 C 210.969 327.381,211.200 326.989,211.200 326.800 C 211.200 326.611,211.431 326.219,211.713 325.929 C 214.132 323.438,216.894 314.258,217.467 306.800 C 217.947 300.553,214.684 287.408,212.005 284.800 C 211.892 284.690,211.530 284.123,211.200 283.540 C 208.410 278.611,202.403 273.210,195.847 269.737 C 192.390 267.905,191.202 267.045,190.149 265.611 L 188.820 263.800 188.810 178.900 L 188.800 94.000 177.800 94.000 L 166.800 94.000 166.800 178.005 " stroke="none" fill="#fbcb6b" fill-rule="evenodd"></path><path id="path2" d="M164.900 0.271 C 163.745 0.365,162.800 0.612,162.800 0.821 C 162.800 1.029,162.181 1.200,161.424 1.200 C 160.667 1.200,159.936 1.380,159.800 1.600 C 159.664 1.820,158.933 2.000,158.176 2.000 C 157.419 2.000,156.800 2.180,156.800 2.400 C 156.800 2.620,156.260 2.800,155.600 2.800 C 154.940 2.800,154.400 2.980,154.400 3.200 C 154.400 3.420,154.040 3.600,153.600 3.600 C 153.160 3.600,152.800 3.780,152.800 4.000 C 152.800 4.220,152.260 4.400,151.600 4.400 C 150.940 4.400,150.400 4.580,150.400 4.800 C 150.400 5.020,150.040 5.200,149.600 5.200 C 149.160 5.200,148.800 5.380,148.800 5.600 C 148.800 5.820,148.440 6.000,148.000 6.000 C 147.560 6.000,147.200 6.180,147.200 6.400 C 147.200 6.620,146.840 6.800,146.400 6.800 C 145.960 6.800,145.600 6.980,145.600 7.200 C 145.600 7.420,145.433 7.600,145.229 7.600 C 144.643 7.600,139.870 10.497,139.153 11.287 C 138.797 11.679,138.296 12.000,138.040 12.000 C 137.783 12.000,136.943 12.630,136.173 13.400 C 135.403 14.170,134.598 14.800,134.384 14.800 C 133.728 14.800,127.075 21.736,125.820 23.727 C 125.171 24.757,124.496 25.600,124.320 25.600 C 124.144 25.600,124.000 25.830,124.000 26.112 C 124.000 26.393,123.640 26.883,123.200 27.200 C 122.760 27.517,122.400 28.007,122.400 28.288 C 122.400 28.570,122.220 28.800,122.000 28.800 C 121.780 28.800,121.600 29.070,121.600 29.400 C 121.600 29.730,121.420 30.000,121.200 30.000 C 120.980 30.000,120.800 30.278,120.800 30.617 C 120.800 30.956,120.440 31.620,120.000 32.092 C 119.560 32.564,119.200 33.187,119.200 33.475 C 119.200 33.764,119.020 34.000,118.800 34.000 C 118.580 34.000,118.400 34.360,118.400 34.800 C 118.400 35.240,118.220 35.600,118.000 35.600 C 117.780 35.600,117.600 35.960,117.600 36.400 C 117.600 36.840,117.420 37.200,117.200 37.200 C 116.980 37.200,116.800 37.560,116.800 38.000 C 116.800 38.440,116.620 38.800,116.400 38.800 C 116.180 38.800,116.000 39.340,116.000 40.000 C 116.000 40.660,115.820 41.200,115.600 41.200 C 115.380 41.200,115.200 41.560,115.200 42.000 C 115.200 42.440,115.020 42.800,114.800 42.800 C 114.580 42.800,114.400 43.340,114.400 44.000 C 114.400 44.660,114.220 45.200,114.000 45.200 C 113.780 45.200,113.600 45.830,113.600 46.600 C 113.600 47.370,113.420 48.000,113.200 48.000 C 112.980 48.000,112.800 48.720,112.800 49.600 C 112.800 50.480,112.620 51.200,112.400 51.200 C 112.180 51.200,112.000 52.064,112.000 53.120 C 112.000 54.176,111.775 55.265,111.500 55.540 C 111.104 55.936,110.975 74.728,110.879 146.168 L 110.758 236.296 109.679 237.621 C 109.086 238.350,107.655 239.899,106.500 241.064 C 105.345 242.229,104.400 243.276,104.400 243.391 C 104.400 243.505,103.680 244.341,102.800 245.248 C 101.920 246.155,101.200 247.105,101.200 247.360 C 101.200 247.615,100.840 248.083,100.400 248.400 C 99.960 248.717,99.600 249.209,99.600 249.492 C 99.600 249.775,99.060 250.572,98.400 251.263 C 97.740 251.954,97.200 252.762,97.200 253.059 C 97.200 253.357,97.020 253.600,96.800 253.600 C 96.580 253.600,96.400 253.836,96.400 254.125 C 96.400 254.413,96.040 255.036,95.600 255.508 C 95.160 255.980,94.800 256.629,94.800 256.950 C 94.800 257.271,94.656 257.593,94.479 257.667 C 93.966 257.880,91.200 263.587,91.200 264.432 C 91.200 264.854,91.020 265.200,90.800 265.200 C 90.580 265.200,90.400 265.560,90.400 266.000 C 90.400 266.440,90.220 266.800,90.000 266.800 C 89.780 266.800,89.600 267.160,89.600 267.600 C 89.600 268.040,89.420 268.400,89.200 268.400 C 88.980 268.400,88.800 268.940,88.800 269.600 C 88.800 270.260,88.620 270.800,88.400 270.800 C 88.180 270.800,88.000 271.160,88.000 271.600 C 88.000 272.040,87.820 272.400,87.600 272.400 C 87.380 272.400,87.200 272.940,87.200 273.600 C 87.200 274.260,87.020 274.800,86.800 274.800 C 86.580 274.800,86.400 275.329,86.400 275.976 C 86.400 276.623,86.220 277.264,86.000 277.400 C 85.780 277.536,85.600 278.177,85.600 278.824 C 85.600 279.471,85.420 280.000,85.200 280.000 C 84.980 280.000,84.800 280.720,84.800 281.600 C 84.800 282.480,84.620 283.200,84.400 283.200 C 84.180 283.200,84.000 284.100,84.000 285.200 C 84.000 286.300,83.820 287.200,83.600 287.200 C 83.378 287.200,83.200 288.267,83.200 289.600 C 83.200 290.933,83.022 292.000,82.800 292.000 C 82.557 292.000,82.400 293.792,82.400 296.576 C 82.400 299.196,82.229 301.258,82.000 301.400 C 81.478 301.723,81.478 309.077,82.000 309.400 C 82.227 309.540,82.400 311.537,82.400 314.024 C 82.400 316.675,82.558 318.400,82.800 318.400 C 83.022 318.400,83.200 319.467,83.200 320.800 C 83.200 322.133,83.378 323.200,83.600 323.200 C 83.820 323.200,84.000 324.010,84.000 325.000 C 84.000 325.990,84.180 326.800,84.400 326.800 C 84.620 326.800,84.800 327.520,84.800 328.400 C 84.800 329.280,84.980 330.000,85.200 330.000 C 85.420 330.000,85.600 330.720,85.600 331.600 C 85.600 332.480,85.780 333.200,86.000 333.200 C 86.220 333.200,86.400 333.740,86.400 334.400 C 86.400 335.060,86.580 335.600,86.800 335.600 C 87.020 335.600,87.200 336.039,87.200 336.576 C 87.200 337.113,87.380 337.664,87.600 337.800 C 87.820 337.936,88.000 338.487,88.000 339.024 C 88.000 339.561,88.180 340.000,88.400 340.000 C 88.620 340.000,88.800 340.360,88.800 340.800 C 88.800 341.240,88.980 341.600,89.200 341.600 C 89.420 341.600,89.600 341.960,89.600 342.400 C 89.600 342.840,89.780 343.200,90.000 343.200 C 90.220 343.200,90.400 343.639,90.400 344.176 C 90.400 344.713,90.580 345.264,90.800 345.400 C 91.020 345.536,91.200 345.997,91.200 346.424 C 91.200 346.851,91.380 347.200,91.600 347.200 C 91.820 347.200,92.000 347.491,92.000 347.846 C 92.000 348.562,94.026 352.523,94.500 352.733 C 94.665 352.807,94.800 353.044,94.800 353.261 C 94.800 353.478,95.340 354.441,96.000 355.400 C 96.660 356.359,97.200 357.297,97.200 357.484 C 97.200 357.671,97.560 358.083,98.000 358.400 C 98.440 358.717,98.800 359.225,98.800 359.528 C 98.800 359.831,99.340 360.583,100.000 361.200 C 100.660 361.817,101.200 362.519,101.200 362.760 C 101.200 363.002,101.920 363.941,102.800 364.848 C 103.680 365.755,104.400 366.668,104.400 366.877 C 104.400 367.382,115.405 378.400,115.910 378.400 C 116.127 378.400,117.045 379.120,117.952 380.000 C 118.859 380.880,119.798 381.600,120.040 381.600 C 120.281 381.600,120.983 382.140,121.600 382.800 C 122.217 383.460,122.943 384.000,123.214 384.000 C 123.484 384.000,123.997 384.316,124.353 384.703 C 124.709 385.089,125.540 385.674,126.200 386.003 C 126.860 386.331,127.749 386.915,128.175 387.300 C 128.602 387.685,129.187 388.000,129.475 388.000 C 129.764 388.000,130.000 388.180,130.000 388.400 C 130.000 388.620,130.345 388.800,130.767 388.800 C 131.188 388.800,131.593 388.946,131.667 389.124 C 131.864 389.604,136.046 391.600,136.855 391.600 C 137.239 391.600,137.664 391.780,137.800 392.000 C 137.936 392.220,138.397 392.400,138.824 392.400 C 139.251 392.400,139.600 392.580,139.600 392.800 C 139.600 393.020,139.960 393.200,140.400 393.200 C 140.840 393.200,141.200 393.380,141.200 393.600 C 141.200 393.820,141.650 394.000,142.200 394.000 C 142.750 394.000,143.200 394.180,143.200 394.400 C 143.200 394.620,143.650 394.800,144.200 394.800 C 144.750 394.800,145.200 394.980,145.200 395.200 C 145.200 395.420,145.740 395.600,146.400 395.600 C 147.060 395.600,147.600 395.780,147.600 396.000 C 147.600 396.220,148.129 396.400,148.776 396.400 C 149.423 396.400,150.064 396.580,150.200 396.800 C 150.336 397.020,150.977 397.200,151.624 397.200 C 152.271 397.200,152.800 397.380,152.800 397.600 C 152.800 397.820,153.520 398.000,154.400 398.000 C 155.280 398.000,156.000 398.180,156.000 398.400 C 156.000 398.620,156.885 398.800,157.967 398.800 C 159.184 398.800,159.997 398.990,160.100 399.300 C 160.343 400.028,194.132 400.028,194.860 399.300 C 195.135 399.025,196.134 398.800,197.080 398.800 C 198.026 398.800,198.800 398.620,198.800 398.400 C 198.800 398.180,199.509 398.000,200.376 398.000 C 201.243 398.000,202.064 397.820,202.200 397.600 C 202.336 397.380,203.067 397.200,203.824 397.200 C 204.581 397.200,205.200 397.020,205.200 396.800 C 205.200 396.580,205.639 396.400,206.176 396.400 C 206.713 396.400,207.264 396.220,207.400 396.000 C 207.536 395.780,208.087 395.600,208.624 395.600 C 209.161 395.600,209.600 395.420,209.600 395.200 C 209.600 394.980,210.140 394.800,210.800 394.800 C 211.460 394.800,212.000 394.620,212.000 394.400 C 212.000 394.180,212.439 394.000,212.976 394.000 C 213.513 394.000,214.064 393.820,214.200 393.600 C 214.336 393.380,214.797 393.200,215.224 393.200 C 215.651 393.200,216.000 393.020,216.000 392.800 C 216.000 392.580,216.360 392.400,216.800 392.400 C 217.240 392.400,217.600 392.220,217.600 392.000 C 217.600 391.780,217.902 391.600,218.270 391.600 C 219.041 391.600,224.750 388.868,225.502 388.139 C 225.779 387.871,226.364 387.538,226.802 387.399 C 227.241 387.260,227.600 386.978,227.600 386.773 C 227.600 386.568,227.920 386.400,228.312 386.400 C 228.703 386.400,229.283 386.040,229.600 385.600 C 229.917 385.160,230.457 384.800,230.800 384.800 C 231.143 384.800,231.683 384.440,232.000 384.000 C 232.317 383.560,232.780 383.200,233.029 383.200 C 233.278 383.200,234.046 382.660,234.737 382.000 C 235.428 381.340,236.150 380.800,236.343 380.800 C 236.535 380.800,237.687 379.855,238.902 378.700 C 240.117 377.545,241.806 376.034,242.655 375.343 C 244.836 373.567,248.800 369.549,248.800 369.113 C 248.800 368.912,249.700 367.871,250.800 366.800 C 251.900 365.729,252.800 364.687,252.800 364.485 C 252.800 364.284,253.340 363.554,254.000 362.863 C 254.660 362.172,255.200 361.402,255.200 361.151 C 255.200 360.899,255.517 360.403,255.903 360.047 C 256.884 359.145,258.800 356.256,258.800 355.678 C 258.800 355.415,258.980 355.200,259.200 355.200 C 259.420 355.200,259.600 354.840,259.600 354.400 C 259.600 353.960,259.780 353.600,260.000 353.600 C 260.220 353.600,260.400 353.330,260.400 353.000 C 260.400 352.670,260.580 352.400,260.800 352.400 C 261.020 352.400,261.200 352.130,261.200 351.800 C 261.200 351.470,261.380 351.200,261.600 351.200 C 261.820 351.200,262.000 350.840,262.000 350.400 C 262.000 349.960,262.180 349.600,262.400 349.600 C 262.620 349.600,262.800 349.240,262.800 348.800 C 262.800 348.360,262.980 348.000,263.200 348.000 C 263.420 348.000,263.600 347.640,263.600 347.200 C 263.600 346.760,263.780 346.400,264.000 346.400 C 264.220 346.400,264.400 346.040,264.400 345.600 C 264.400 345.160,264.580 344.800,264.800 344.800 C 265.020 344.800,265.200 344.361,265.200 343.824 C 265.200 343.287,265.380 342.736,265.600 342.600 C 265.820 342.464,266.000 342.003,266.000 341.576 C 266.000 341.149,266.180 340.800,266.400 340.800 C 266.620 340.800,266.800 340.350,266.800 339.800 C 266.800 339.250,266.980 338.800,267.200 338.800 C 267.420 338.800,267.600 338.380,267.600 337.867 C 267.600 337.353,267.723 336.810,267.874 336.659 C 268.318 336.215,269.187 333.476,269.194 332.500 C 269.197 332.005,269.380 331.600,269.600 331.600 C 269.820 331.600,270.000 330.981,270.000 330.224 C 270.000 329.467,270.180 328.736,270.400 328.600 C 270.620 328.464,270.800 327.643,270.800 326.776 C 270.800 325.909,270.980 325.200,271.200 325.200 C 271.420 325.200,271.600 324.336,271.600 323.280 C 271.600 322.224,271.766 321.189,271.969 320.980 C 273.178 319.734,273.213 289.600,272.005 289.600 C 271.823 289.600,271.575 288.655,271.455 287.500 C 271.069 283.796,270.725 282.001,270.358 281.774 C 270.161 281.652,270.000 281.034,270.000 280.400 C 270.000 279.766,269.820 279.136,269.600 279.000 C 269.380 278.864,269.200 278.234,269.200 277.600 C 269.200 276.966,269.020 276.336,268.800 276.200 C 268.580 276.064,268.400 275.513,268.400 274.976 C 268.400 274.439,268.220 274.000,268.000 274.000 C 267.780 274.000,267.600 273.460,267.600 272.800 C 267.600 272.140,267.420 271.600,267.200 271.600 C 266.980 271.600,266.800 271.251,266.800 270.824 C 266.800 270.397,266.620 269.936,266.400 269.800 C 266.180 269.664,266.000 269.113,266.000 268.576 C 266.000 268.039,265.820 267.600,265.600 267.600 C 265.380 267.600,265.200 267.240,265.200 266.800 C 265.200 266.360,265.020 266.000,264.800 266.000 C 264.580 266.000,264.400 265.640,264.400 265.200 C 264.400 264.760,264.220 264.400,264.000 264.400 C 263.780 264.400,263.600 264.040,263.600 263.600 C 263.600 263.160,263.420 262.800,263.200 262.800 C 262.980 262.800,262.800 262.440,262.800 262.000 C 262.800 261.560,262.620 261.200,262.400 261.200 C 262.180 261.200,262.000 260.840,262.000 260.400 C 262.000 259.960,261.820 259.600,261.600 259.600 C 261.380 259.600,261.200 259.330,261.200 259.000 C 261.200 258.670,261.020 258.400,260.800 258.400 C 260.580 258.400,260.400 258.040,260.400 257.600 C 260.400 257.160,260.220 256.800,260.000 256.800 C 259.780 256.800,259.600 256.440,259.600 256.000 C 259.600 255.560,259.447 255.200,259.261 255.200 C 259.074 255.200,258.597 254.480,258.200 253.600 C 257.803 252.720,257.326 252.000,257.139 252.000 C 256.953 252.000,256.800 251.764,256.800 251.475 C 256.800 251.187,256.480 250.602,256.089 250.175 C 255.698 249.749,254.942 248.770,254.408 248.000 C 253.875 247.230,253.114 246.309,252.719 245.953 C 252.324 245.597,252.000 245.124,252.000 244.901 C 252.000 244.679,251.145 243.709,250.100 242.747 C 249.055 241.785,247.693 240.319,247.073 239.490 C 246.453 238.660,245.508 237.544,244.973 237.009 C 244.035 236.072,244.000 235.833,244.000 230.461 C 244.000 224.072,243.756 224.469,248.000 223.945 C 253.061 223.320,254.204 223.114,254.580 222.759 C 254.789 222.562,255.453 222.400,256.056 222.400 C 256.659 222.400,257.264 222.220,257.400 222.000 C 257.536 221.780,258.267 221.600,259.024 221.600 C 259.781 221.600,260.400 221.420,260.400 221.200 C 260.400 220.980,260.940 220.800,261.600 220.800 C 262.260 220.800,262.800 220.620,262.800 220.400 C 262.800 220.180,263.239 220.000,263.776 220.000 C 264.313 220.000,264.864 219.820,265.000 219.600 C 265.136 219.380,265.597 219.200,266.024 219.200 C 266.451 219.200,266.800 219.020,266.800 218.800 C 266.800 218.580,267.155 218.400,267.588 218.400 C 268.021 218.400,269.017 218.040,269.800 217.600 C 270.583 217.160,271.489 216.800,271.812 216.800 C 272.135 216.800,272.400 216.654,272.400 216.475 C 272.400 216.296,273.030 215.902,273.800 215.600 C 274.570 215.298,275.200 214.904,275.200 214.725 C 275.200 214.546,275.520 214.400,275.912 214.400 C 276.303 214.400,276.883 214.040,277.200 213.600 C 277.517 213.160,278.097 212.800,278.488 212.800 C 278.880 212.800,279.200 212.620,279.200 212.400 C 279.200 212.180,279.436 212.000,279.725 212.000 C 280.013 212.000,280.636 211.640,281.108 211.200 C 281.580 210.760,282.178 210.400,282.436 210.400 C 282.695 210.400,283.197 210.068,283.553 209.661 C 283.909 209.255,284.682 208.670,285.271 208.361 C 287.459 207.215,298.000 197.265,298.000 196.346 C 298.000 196.121,298.720 195.246,299.600 194.400 C 300.480 193.554,301.200 192.670,301.200 192.435 C 301.200 192.200,301.740 191.491,302.400 190.860 C 303.060 190.229,303.600 189.508,303.600 189.257 C 303.600 189.006,303.735 188.799,303.900 188.797 C 304.065 188.795,304.397 188.390,304.638 187.897 C 304.879 187.404,305.830 185.779,306.751 184.286 C 307.672 182.794,308.532 181.039,308.663 180.386 C 308.793 179.734,309.058 179.200,309.250 179.200 C 309.443 179.200,309.600 178.840,309.600 178.400 C 309.600 177.960,309.780 177.600,310.000 177.600 C 310.220 177.600,310.400 177.240,310.400 176.800 C 310.400 176.360,310.580 176.000,310.800 176.000 C 311.020 176.000,311.200 175.640,311.200 175.200 C 311.200 174.760,311.380 174.400,311.600 174.400 C 311.820 174.400,312.000 173.950,312.000 173.400 C 312.000 172.850,312.180 172.400,312.400 172.400 C 312.620 172.400,312.800 171.860,312.800 171.200 C 312.800 170.540,312.980 170.000,313.200 170.000 C 313.420 170.000,313.600 169.561,313.600 169.024 C 313.600 168.487,313.780 167.936,314.000 167.800 C 314.220 167.664,314.400 167.023,314.400 166.376 C 314.400 165.729,314.580 165.200,314.800 165.200 C 315.020 165.200,315.200 164.480,315.200 163.600 C 315.200 162.720,315.380 162.000,315.600 162.000 C 315.820 162.000,316.000 161.280,316.000 160.400 C 316.000 159.520,316.180 158.800,316.400 158.800 C 316.620 158.800,316.800 157.821,316.800 156.624 C 316.800 155.427,316.980 154.336,317.200 154.200 C 317.428 154.059,317.600 152.023,317.600 149.456 C 317.600 146.734,317.773 144.787,318.038 144.522 C 318.320 144.240,318.385 143.181,318.220 141.542 C 318.079 140.144,317.871 137.110,317.757 134.800 C 317.643 132.490,317.381 130.429,317.175 130.220 C 316.969 130.011,316.800 128.886,316.800 127.720 C 316.800 126.554,316.620 125.600,316.400 125.600 C 316.180 125.600,316.000 124.880,316.000 124.000 C 316.000 123.120,315.820 122.400,315.600 122.400 C 315.380 122.400,315.200 121.680,315.200 120.800 C 315.200 119.920,315.020 119.200,314.800 119.200 C 314.580 119.200,314.400 118.660,314.400 118.000 C 314.400 117.340,314.220 116.800,314.000 116.800 C 313.780 116.800,313.600 116.260,313.600 115.600 C 313.600 114.940,313.420 114.400,313.200 114.400 C 312.980 114.400,312.800 113.860,312.800 113.200 C 312.800 112.540,312.620 112.000,312.400 112.000 C 312.180 112.000,312.000 111.640,312.000 111.200 C 312.000 110.760,311.820 110.400,311.600 110.400 C 311.380 110.400,311.200 109.950,311.200 109.400 C 311.200 108.850,311.020 108.400,310.800 108.400 C 310.580 108.400,310.400 108.040,310.400 107.600 C 310.400 107.160,310.220 106.800,310.000 106.800 C 309.780 106.800,309.600 106.440,309.600 106.000 C 309.600 105.560,309.420 105.200,309.200 105.200 C 308.980 105.200,308.800 104.884,308.800 104.497 C 308.800 103.834,306.971 100.033,306.444 99.600 C 306.310 99.490,306.003 99.040,305.762 98.600 C 304.722 96.698,304.187 95.787,304.000 95.600 C 303.398 94.998,301.200 92.009,301.200 91.792 C 301.200 91.652,300.480 90.846,299.600 90.000 C 298.720 89.154,298.000 88.279,298.000 88.054 C 298.000 87.669,291.588 81.126,288.819 78.686 C 287.175 77.236,282.542 74.000,282.111 74.000 C 281.927 74.000,281.517 73.640,281.200 73.200 C 280.883 72.760,280.303 72.400,279.912 72.400 C 279.520 72.400,279.200 72.220,279.200 72.000 C 279.200 71.780,278.880 71.600,278.488 71.600 C 278.097 71.600,277.517 71.240,277.200 70.800 C 276.883 70.360,276.303 70.000,275.912 70.000 C 275.520 70.000,275.200 69.854,275.200 69.675 C 275.200 69.496,274.570 69.102,273.800 68.800 C 273.030 68.498,272.400 68.104,272.400 67.925 C 272.400 67.746,272.040 67.600,271.600 67.600 C 271.160 67.600,270.800 67.420,270.800 67.200 C 270.800 66.980,270.451 66.800,270.024 66.800 C 269.597 66.800,269.136 66.620,269.000 66.400 C 268.864 66.180,268.313 66.000,267.776 66.000 C 267.239 66.000,266.800 65.820,266.800 65.600 C 266.800 65.380,266.440 65.200,266.000 65.200 C 265.560 65.200,265.200 65.020,265.200 64.800 C 265.200 64.580,264.660 64.400,264.000 64.400 C 263.340 64.400,262.800 64.220,262.800 64.000 C 262.800 63.780,262.260 63.600,261.600 63.600 C 260.940 63.600,260.400 63.440,260.400 63.244 C 260.400 63.048,259.815 62.791,259.100 62.672 C 256.921 62.312,255.439 61.957,254.600 61.595 C 253.776 61.239,252.357 60.984,248.200 60.444 C 245.127 60.044,244.000 59.645,244.000 58.953 C 244.000 58.649,243.820 58.400,243.600 58.400 C 243.371 58.400,243.200 57.200,243.200 55.600 C 243.200 54.000,243.029 52.800,242.800 52.800 C 242.580 52.800,242.400 52.080,242.400 51.200 C 242.400 50.320,242.220 49.600,242.000 49.600 C 241.780 49.600,241.600 48.976,241.600 48.214 C 241.600 46.834,240.725 43.628,239.987 42.305 C 239.774 41.923,239.600 41.338,239.600 41.005 C 239.600 40.672,239.420 40.400,239.200 40.400 C 238.980 40.400,238.800 39.961,238.800 39.424 C 238.800 38.887,238.620 38.336,238.400 38.200 C 238.180 38.064,238.000 37.603,238.000 37.176 C 238.000 36.749,237.820 36.400,237.600 36.400 C 237.380 36.400,237.200 36.040,237.200 35.600 C 237.200 35.160,237.020 34.800,236.800 34.800 C 236.580 34.800,236.400 34.564,236.400 34.275 C 236.400 33.987,236.040 33.364,235.600 32.892 C 235.160 32.420,234.800 31.756,234.800 31.417 C 234.800 31.078,234.620 30.800,234.400 30.800 C 234.180 30.800,234.000 30.564,234.000 30.275 C 234.000 29.987,233.640 29.364,233.200 28.892 C 232.760 28.420,232.400 27.846,232.400 27.617 C 232.400 27.388,232.220 27.200,232.000 27.200 C 231.780 27.200,231.600 26.973,231.600 26.696 C 231.600 26.419,231.240 25.968,230.800 25.693 C 230.360 25.418,230.000 25.011,230.000 24.789 C 230.000 24.567,228.875 23.222,227.500 21.801 C 226.125 20.380,223.830 17.964,222.400 16.434 C 220.970 14.903,219.602 13.640,219.359 13.625 C 219.117 13.611,218.354 13.060,217.663 12.400 C 216.972 11.740,216.260 11.200,216.079 11.200 C 215.899 11.200,215.397 10.885,214.963 10.500 C 213.836 9.498,211.784 8.400,211.038 8.400 C 210.687 8.400,210.400 8.220,210.400 8.000 C 210.400 7.780,210.040 7.600,209.600 7.600 C 209.160 7.600,208.800 7.420,208.800 7.200 C 208.800 6.980,208.530 6.800,208.200 6.800 C 207.870 6.800,207.600 6.620,207.600 6.400 C 207.600 6.180,207.240 6.000,206.800 6.000 C 206.360 6.000,206.000 5.820,206.000 5.600 C 206.000 5.380,205.640 5.200,205.200 5.200 C 204.760 5.200,204.400 5.020,204.400 4.800 C 204.400 4.580,204.040 4.400,203.600 4.400 C 203.160 4.400,202.800 4.220,202.800 4.000 C 202.800 3.780,202.260 3.600,201.600 3.600 C 200.940 3.600,200.400 3.420,200.400 3.200 C 200.400 2.980,199.860 2.800,199.200 2.800 C 198.540 2.800,198.000 2.620,198.000 2.400 C 198.000 2.180,197.460 2.000,196.800 2.000 C 196.140 2.000,195.600 1.820,195.600 1.600 C 195.600 1.380,194.895 1.200,194.033 1.200 C 193.162 1.200,192.395 0.985,192.305 0.715 C 192.143 0.229,169.866 -0.132,164.900 0.271 M187.800 16.366 C 204.813 19.711,220.991 34.290,225.567 50.400 C 225.848 51.390,226.240 52.513,226.439 52.895 C 226.638 53.277,226.800 54.030,226.800 54.569 C 226.800 55.107,227.023 56.055,227.296 56.674 C 227.679 57.542,227.839 69.070,227.996 107.000 L 228.200 156.200 229.181 157.600 C 232.749 162.692,239.142 162.488,242.400 157.178 C 242.921 156.329,243.015 150.932,243.111 116.300 L 243.222 76.400 244.605 76.400 C 245.872 76.400,247.866 76.768,251.000 77.581 C 253.561 78.245,255.834 78.905,256.600 79.207 C 257.040 79.380,258.480 79.930,259.800 80.428 C 279.149 87.734,296.060 107.191,300.007 126.689 C 301.420 133.669,301.646 135.807,301.651 142.200 C 301.671 169.112,286.174 192.754,261.600 203.300 C 258.242 204.741,255.842 205.600,255.170 205.600 C 254.773 205.600,254.348 205.760,254.227 205.956 C 254.106 206.151,253.421 206.412,252.704 206.534 C 251.987 206.656,250.500 206.957,249.400 207.204 C 246.402 207.876,242.692 208.340,237.888 208.643 C 235.517 208.792,233.481 209.069,233.365 209.257 C 233.248 209.446,232.892 209.600,232.573 209.600 C 231.780 209.600,229.664 211.538,228.860 213.000 C 227.922 214.705,227.860 241.608,228.789 243.439 C 229.113 244.078,231.456 246.760,233.996 249.400 C 236.536 252.040,239.151 254.920,239.807 255.800 C 240.463 256.679,241.315 257.748,241.700 258.175 C 242.085 258.602,242.400 259.172,242.400 259.442 C 242.400 259.712,242.558 259.993,242.751 260.067 C 245.837 261.239,253.697 280.258,255.949 292.000 C 259.968 312.962,252.750 340.243,239.207 355.273 C 238.873 355.643,237.797 356.903,236.816 358.073 C 234.445 360.900,228.521 366.286,224.800 368.998 C 223.150 370.200,221.620 371.326,221.400 371.500 C 220.529 372.188,214.106 375.885,212.600 376.564 C 211.720 376.961,210.100 377.697,209.000 378.199 C 177.162 392.732,135.492 381.866,114.671 353.600 C 113.617 352.170,112.495 350.683,112.178 350.295 C 111.860 349.908,111.600 349.413,111.600 349.195 C 111.600 348.978,111.450 348.800,111.268 348.800 C 111.085 348.800,110.686 348.305,110.382 347.700 C 110.078 347.095,109.531 346.150,109.167 345.600 C 105.841 340.572,101.371 329.313,99.956 322.400 C 96.657 306.279,97.888 290.608,103.586 276.200 C 105.176 272.179,107.438 267.483,108.788 265.400 C 109.358 264.520,110.074 263.305,110.380 262.700 C 110.685 262.095,111.085 261.600,111.268 261.600 C 111.450 261.600,111.600 261.364,111.600 261.075 C 111.600 260.787,111.920 260.202,112.311 259.775 C 112.702 259.349,113.455 258.370,113.985 257.600 C 115.520 255.371,116.990 253.709,121.846 248.720 C 124.351 246.146,126.400 243.707,126.400 243.300 C 126.400 242.893,126.579 242.381,126.797 242.163 C 127.058 241.902,127.241 210.130,127.328 150.183 C 127.423 85.003,127.590 58.023,127.906 56.600 C 129.259 50.505,129.826 48.782,131.989 44.200 C 134.072 39.784,137.682 34.564,141.006 31.159 C 143.613 28.489,149.978 23.200,150.585 23.200 C 150.734 23.200,151.608 22.695,152.528 22.077 C 160.474 16.741,176.504 14.145,187.800 16.366 M270.800 18.800 C 270.800 19.020,270.260 19.200,269.600 19.200 C 268.940 19.200,268.400 19.380,268.400 19.600 C 268.400 19.820,268.117 20.000,267.771 20.000 C 267.110 20.000,266.006 20.912,265.991 21.471 C 265.986 21.652,265.630 22.250,265.200 22.800 C 264.770 23.350,264.414 24.205,264.409 24.700 C 264.404 25.195,264.220 25.600,264.000 25.600 C 263.780 25.600,263.600 26.140,263.600 26.800 C 263.600 27.460,263.420 28.000,263.200 28.000 C 262.980 28.000,262.800 28.362,262.800 28.805 C 262.800 29.248,262.638 29.923,262.439 30.305 C 262.240 30.687,261.863 31.810,261.600 32.800 C 261.337 33.790,260.960 34.913,260.761 35.295 C 260.562 35.677,260.400 36.316,260.400 36.715 C 260.400 37.114,260.184 37.656,259.920 37.920 C 259.260 38.580,259.299 44.719,259.971 45.959 C 260.733 47.363,263.077 49.600,263.787 49.600 C 264.124 49.600,264.400 49.780,264.400 50.000 C 264.400 50.237,265.867 50.400,268.000 50.400 C 270.133 50.400,271.600 50.237,271.600 50.000 C 271.600 49.780,271.843 49.600,272.141 49.600 C 272.986 49.600,275.200 47.282,275.200 46.397 C 275.200 45.958,275.380 45.600,275.600 45.600 C 275.820 45.600,276.000 45.060,276.000 44.400 C 276.000 43.740,276.180 43.200,276.400 43.200 C 276.620 43.200,276.800 42.750,276.800 42.200 C 276.800 41.650,276.980 41.200,277.200 41.200 C 277.420 41.200,277.600 40.660,277.600 40.000 C 277.600 39.340,277.780 38.800,278.000 38.800 C 278.220 38.800,278.400 38.260,278.400 37.600 C 278.400 36.940,278.580 36.400,278.800 36.400 C 279.020 36.400,279.200 35.860,279.200 35.200 C 279.200 34.540,279.380 34.000,279.600 34.000 C 279.820 34.000,280.000 33.460,280.000 32.800 C 280.000 32.140,280.180 31.600,280.400 31.600 C 280.620 31.600,280.800 30.891,280.800 30.024 C 280.800 29.157,280.980 28.336,281.200 28.200 C 281.420 28.064,281.600 27.524,281.600 27.000 C 281.600 26.476,281.420 25.936,281.200 25.800 C 280.980 25.664,280.800 25.023,280.800 24.376 C 280.800 23.729,280.620 23.200,280.400 23.200 C 280.180 23.200,280.000 22.922,280.000 22.582 C 280.000 21.782,278.218 20.000,277.418 20.000 C 277.078 20.000,276.800 19.820,276.800 19.600 C 276.800 19.380,276.361 19.200,275.824 19.200 C 275.287 19.200,274.736 19.020,274.600 18.800 C 274.464 18.580,273.553 18.400,272.576 18.400 C 271.599 18.400,270.800 18.580,270.800 18.800 M172.000 39.600 C 171.670 39.813,170.993 39.991,170.495 39.994 C 169.997 39.997,169.277 40.160,168.895 40.356 C 168.513 40.552,167.300 41.130,166.200 41.641 C 158.724 45.110,153.677 51.281,151.567 59.531 C 150.822 62.444,150.800 65.243,150.800 159.202 C 150.800 264.561,150.945 257.200,148.869 257.200 C 148.611 257.200,148.400 257.336,148.400 257.502 C 148.400 257.669,147.894 258.029,147.275 258.303 C 146.656 258.576,145.801 259.120,145.375 259.511 C 144.949 259.902,143.970 260.658,143.200 261.191 C 136.094 266.110,127.700 277.883,124.798 287.000 C 124.518 287.880,124.148 288.960,123.975 289.400 C 123.802 289.840,123.547 290.740,123.408 291.400 C 123.269 292.060,122.948 293.590,122.696 294.800 C 122.097 297.672,122.097 312.728,122.696 315.600 C 122.948 316.810,123.269 318.340,123.408 319.000 C 123.547 319.660,123.802 320.560,123.975 321.000 C 124.148 321.440,124.506 322.520,124.772 323.400 C 125.447 325.637,127.331 329.736,129.186 333.000 C 135.116 343.439,146.794 353.459,157.400 357.210 C 157.840 357.366,158.650 357.672,159.200 357.891 C 161.105 358.649,163.060 359.200,163.848 359.200 C 164.284 359.200,164.811 359.362,165.020 359.559 C 166.041 360.524,182.196 361.172,186.200 360.409 C 189.921 359.700,195.587 358.146,197.800 357.227 C 202.924 355.099,210.507 350.714,212.596 348.672 C 212.861 348.412,214.108 347.317,215.365 346.237 C 223.199 339.512,229.431 328.433,232.376 316.000 C 233.555 311.019,233.551 299.493,232.368 294.400 C 230.699 287.217,227.980 280.356,225.128 276.128 C 224.508 275.208,224.000 274.263,224.000 274.028 C 224.000 273.793,223.859 273.600,223.686 273.600 C 223.514 273.600,223.075 273.096,222.711 272.481 C 220.905 269.423,214.723 263.155,210.800 260.404 C 210.030 259.864,209.051 259.102,208.625 258.711 C 208.198 258.320,207.675 258.000,207.462 258.000 C 207.250 258.000,206.476 257.542,205.743 256.983 L 204.410 255.967 204.305 158.483 L 204.200 61.000 203.114 57.800 C 199.975 48.549,192.734 41.852,183.494 39.653 C 181.173 39.101,172.832 39.062,172.000 39.600 M182.495 55.190 C 187.831 57.706,189.200 60.856,189.200 70.618 L 189.200 78.012 177.500 77.906 L 165.800 77.800 165.690 71.497 C 165.606 66.700,165.729 64.679,166.205 63.042 C 168.346 55.679,175.855 52.059,182.495 55.190 M67.800 58.000 C 67.664 58.220,66.973 58.400,66.265 58.400 C 60.654 58.400,58.249 67.527,62.597 72.319 C 64.846 74.797,64.864 74.800,78.861 74.800 C 87.087 74.800,91.600 74.658,91.600 74.400 C 91.600 74.180,91.876 74.000,92.213 74.000 C 92.877 74.000,95.091 71.886,95.900 70.480 C 96.772 68.964,96.559 62.722,95.600 61.692 C 95.160 61.220,94.800 60.646,94.800 60.417 C 94.800 60.188,94.648 60.000,94.461 60.000 C 94.275 60.000,93.707 59.640,93.200 59.200 C 92.622 58.698,91.703 58.400,90.739 58.400 C 89.892 58.400,89.200 58.220,89.200 58.000 C 89.200 57.743,85.408 57.600,78.624 57.600 C 72.004 57.600,67.955 57.750,67.800 58.000 M341.200 78.800 C 341.200 79.020,340.660 79.200,340.000 79.200 C 339.340 79.200,338.800 79.380,338.800 79.600 C 338.800 79.820,338.440 80.000,338.000 80.000 C 337.560 80.000,337.200 80.180,337.200 80.400 C 337.200 80.620,336.840 80.800,336.400 80.800 C 335.960 80.800,335.600 80.980,335.600 81.200 C 335.600 81.420,335.240 81.600,334.800 81.600 C 334.360 81.600,334.000 81.780,334.000 82.000 C 334.000 82.220,333.640 82.400,333.200 82.400 C 332.760 82.400,332.400 82.580,332.400 82.800 C 332.400 83.020,332.040 83.200,331.600 83.200 C 331.160 83.200,330.800 83.380,330.800 83.600 C 330.800 83.820,330.440 84.000,330.000 84.000 C 329.560 84.000,329.200 84.146,329.200 84.325 C 329.200 84.504,328.570 84.898,327.800 85.200 C 327.030 85.502,326.400 85.896,326.400 86.075 C 326.400 86.254,326.125 86.400,325.789 86.400 C 324.996 86.400,321.600 89.796,321.600 90.589 C 321.600 90.925,321.420 91.200,321.200 91.200 C 320.969 91.200,320.800 92.467,320.800 94.200 C 320.800 95.933,320.969 97.200,321.200 97.200 C 321.420 97.200,321.600 97.615,321.600 98.122 C 321.600 99.204,324.018 102.000,324.954 102.000 C 325.309 102.000,325.600 102.180,325.600 102.400 C 325.600 102.635,327.000 102.800,329.000 102.800 C 331.000 102.800,332.400 102.635,332.400 102.400 C 332.400 102.180,332.777 102.000,333.238 102.000 C 333.699 102.000,334.554 101.668,335.138 101.263 C 335.722 100.857,336.785 100.273,337.500 99.965 C 338.215 99.657,338.800 99.269,338.800 99.102 C 338.800 98.936,339.160 98.800,339.600 98.800 C 340.040 98.800,340.400 98.654,340.400 98.475 C 340.400 98.296,341.030 97.902,341.800 97.600 C 342.570 97.298,343.200 96.904,343.200 96.725 C 343.200 96.546,343.560 96.400,344.000 96.400 C 344.440 96.400,344.800 96.220,344.800 96.000 C 344.800 95.780,345.160 95.600,345.600 95.600 C 346.040 95.600,346.400 95.420,346.400 95.200 C 346.400 94.980,346.675 94.800,347.011 94.800 C 348.042 94.800,351.200 91.340,351.200 90.211 C 351.200 89.655,351.380 89.200,351.600 89.200 C 351.820 89.200,352.000 88.390,352.000 87.400 C 352.000 86.410,351.820 85.600,351.600 85.600 C 351.380 85.600,351.200 85.060,351.200 84.400 C 351.200 83.740,351.020 83.200,350.800 83.200 C 350.580 83.200,350.400 82.922,350.400 82.582 C 350.400 81.782,348.618 80.000,347.818 80.000 C 347.478 80.000,347.200 79.820,347.200 79.600 C 347.200 79.380,346.851 79.200,346.424 79.200 C 345.997 79.200,345.536 79.020,345.400 78.800 C 345.264 78.580,344.263 78.400,343.176 78.400 C 342.089 78.400,341.200 78.580,341.200 78.800 M189.200 178.000 C 189.390 258.547,189.435 262.670,190.123 264.051 C 191.122 266.060,192.107 266.885,195.782 268.794 C 200.930 271.468,204.316 274.163,209.023 279.335 C 212.536 283.194,215.930 290.408,217.605 297.577 C 219.934 307.546,215.814 323.620,209.022 331.062 C 205.172 335.281,201.679 338.292,198.700 339.960 C 197.875 340.422,196.615 341.126,195.900 341.524 C 185.879 347.107,171.056 347.259,160.000 341.894 C 129.734 327.205,129.149 284.599,159.000 269.010 C 163.253 266.789,163.429 266.655,164.654 264.714 L 165.600 263.216 165.600 178.688 C 165.600 112.890,165.708 94.052,166.086 93.674 C 166.450 93.310,169.399 93.215,177.786 93.294 L 189.000 93.400 189.200 178.000 M47.400 106.400 C 47.264 106.620,46.713 106.800,46.176 106.800 C 45.639 106.800,45.200 106.980,45.200 107.200 C 45.200 107.420,45.022 107.600,44.805 107.600 C 39.967 107.600,40.217 119.558,45.111 122.257 L 46.821 123.200 69.211 123.200 C 83.870 123.200,91.600 123.062,91.600 122.800 C 91.600 122.580,91.876 122.400,92.213 122.400 C 93.009 122.400,95.600 119.809,95.600 119.013 C 95.600 118.676,95.780 118.400,96.000 118.400 C 96.593 118.400,96.506 111.375,95.900 110.317 C 95.108 108.935,93.692 107.600,93.018 107.600 C 92.678 107.600,92.400 107.420,92.400 107.200 C 92.400 106.980,91.860 106.800,91.200 106.800 C 90.540 106.800,90.000 106.620,90.000 106.400 C 90.000 105.849,47.741 105.849,47.400 106.400 M66.600 154.800 C 66.464 155.020,65.991 155.200,65.548 155.200 C 65.105 155.200,64.506 155.425,64.216 155.700 C 63.926 155.975,63.354 156.502,62.945 156.872 C 58.642 160.754,59.586 168.032,64.738 170.700 C 66.657 171.694,90.815 172.147,91.400 171.200 C 91.536 170.980,91.913 170.800,92.237 170.800 C 93.015 170.800,95.600 168.197,95.600 167.413 C 95.600 167.076,95.780 166.800,96.000 166.800 C 96.239 166.800,96.400 165.267,96.400 163.000 C 96.400 160.733,96.239 159.200,96.000 159.200 C 95.780 159.200,95.600 158.922,95.600 158.582 C 95.600 157.782,93.818 156.000,93.018 156.000 C 92.678 156.000,92.400 155.820,92.400 155.600 C 92.400 155.380,92.040 155.200,91.600 155.200 C 91.160 155.200,90.800 155.020,90.800 154.800 C 90.800 154.542,86.541 154.400,78.824 154.400 C 71.271 154.400,66.756 154.548,66.600 154.800 M333.200 166.400 C 333.200 166.620,332.745 166.800,332.189 166.800 C 330.896 166.800,327.983 169.676,327.300 171.628 C 326.704 173.332,326.632 177.600,327.200 177.600 C 327.420 177.600,327.600 177.960,327.600 178.400 C 327.600 178.840,327.737 179.200,327.905 179.200 C 328.073 179.200,328.388 179.605,328.605 180.100 C 328.822 180.595,329.405 181.178,329.900 181.395 C 330.395 181.612,330.800 181.927,330.800 182.095 C 330.800 182.263,331.160 182.400,331.600 182.400 C 332.040 182.400,332.400 182.580,332.400 182.800 C 332.400 183.020,332.940 183.200,333.600 183.200 C 334.260 183.200,334.800 183.380,334.800 183.600 C 334.800 183.820,335.340 184.000,336.000 184.000 C 336.660 184.000,337.200 184.180,337.200 184.400 C 337.200 184.620,337.740 184.800,338.400 184.800 C 339.060 184.800,339.600 184.980,339.600 185.200 C 339.600 185.420,340.140 185.600,340.800 185.600 C 341.460 185.600,342.000 185.780,342.000 186.000 C 342.000 186.220,342.439 186.400,342.976 186.400 C 343.513 186.400,344.064 186.580,344.200 186.800 C 344.336 187.020,344.876 187.200,345.400 187.200 C 345.924 187.200,346.464 187.380,346.600 187.600 C 347.632 189.270,357.200 187.112,357.200 185.209 C 357.200 185.016,357.498 184.559,357.862 184.195 C 360.838 181.219,357.434 171.600,353.405 171.600 C 353.072 171.600,352.800 171.420,352.800 171.200 C 352.800 170.980,352.260 170.800,351.600 170.800 C 350.940 170.800,350.400 170.620,350.400 170.400 C 350.400 170.180,349.860 170.000,349.200 170.000 C 348.540 170.000,348.000 169.820,348.000 169.600 C 348.000 169.380,347.460 169.200,346.800 169.200 C 346.140 169.200,345.600 169.020,345.600 168.800 C 345.600 168.580,345.071 168.400,344.424 168.400 C 343.777 168.400,343.136 168.220,343.000 168.000 C 342.864 167.780,342.324 167.600,341.800 167.600 C 341.276 167.600,340.736 167.420,340.600 167.200 C 340.464 166.980,339.823 166.800,339.176 166.800 C 338.529 166.800,338.000 166.620,338.000 166.400 C 338.000 166.178,336.933 166.000,335.600 166.000 C 334.267 166.000,333.200 166.178,333.200 166.400 M232.546 178.215 C 226.246 180.977,227.190 190.752,233.907 192.303 C 242.731 194.340,246.755 181.846,238.451 178.193 C 236.802 177.468,234.229 177.477,232.546 178.215 M46.800 203.200 C 46.800 203.420,46.434 203.600,45.987 203.600 C 42.631 203.600,39.909 211.289,41.872 215.224 C 42.700 216.884,44.967 219.200,45.763 219.200 C 46.087 219.200,46.464 219.380,46.600 219.600 C 46.760 219.859,54.596 220.000,68.800 220.000 C 83.004 220.000,90.840 219.859,91.000 219.600 C 91.136 219.380,91.561 219.200,91.945 219.200 C 92.855 219.200,95.600 216.681,95.600 215.846 C 95.600 215.491,95.780 215.200,96.000 215.200 C 96.239 215.200,96.400 213.667,96.400 211.400 C 96.400 209.133,96.239 207.600,96.000 207.600 C 95.780 207.600,95.600 207.322,95.600 206.982 C 95.600 206.134,94.137 204.778,92.059 203.700 L 90.324 202.800 68.562 202.800 C 54.321 202.800,46.800 202.938,46.800 203.200 M277.959 228.971 C 273.663 232.124,273.600 236.420,277.729 244.715 C 280.808 250.899,282.466 254.066,282.800 254.400 C 282.910 254.510,283.198 254.960,283.439 255.400 C 285.632 259.398,297.200 259.254,297.200 255.229 C 297.200 254.993,297.380 254.800,297.600 254.800 C 297.820 254.800,298.000 254.451,298.000 254.024 C 298.000 253.597,298.180 253.136,298.400 253.000 C 298.620 252.864,298.800 251.413,298.800 249.776 C 298.800 248.059,298.631 246.800,298.400 246.800 C 298.180 246.800,298.000 246.350,298.000 245.800 C 298.000 245.250,297.854 244.800,297.675 244.800 C 297.496 244.800,297.102 244.170,296.800 243.400 C 296.498 242.630,296.104 242.000,295.925 242.000 C 295.746 242.000,295.600 241.640,295.600 241.200 C 295.600 240.760,295.420 240.400,295.200 240.400 C 294.980 240.400,294.800 240.040,294.800 239.600 C 294.800 239.160,294.620 238.800,294.400 238.800 C 294.180 238.800,294.000 238.440,294.000 238.000 C 294.000 237.560,293.820 237.200,293.600 237.200 C 293.380 237.200,293.200 236.855,293.200 236.433 C 293.200 236.012,293.062 235.607,292.893 235.533 C 292.724 235.460,291.993 234.186,291.269 232.703 C 288.693 227.425,282.450 225.675,277.959 228.971 " stroke="none" fill="#040404" fill-rule="evenodd"></path><path id="path3" d="M182.833 15.747 C 182.925 15.828,183.720 16.004,184.600 16.138 C 185.715 16.307,185.958 16.271,185.400 16.019 C 184.632 15.671,182.490 15.444,182.833 15.747 M153.200 21.636 C 152.536 22.179,152.469 22.315,153.000 22.040 C 154.305 21.366,155.028 20.812,154.600 20.815 C 154.380 20.817,153.750 21.186,153.200 21.636 M143.775 28.500 L 142.600 29.800 143.900 28.625 C 145.112 27.530,145.384 27.200,145.075 27.200 C 145.006 27.200,144.421 27.785,143.775 28.500 M213.800 31.200 C 215.106 32.520,216.265 33.600,216.375 33.600 C 216.485 33.600,215.506 32.520,214.200 31.200 C 212.894 29.880,211.735 28.800,211.625 28.800 C 211.515 28.800,212.494 29.880,213.800 31.200 M139.358 32.900 C 138.131 34.229,136.697 36.122,137.463 35.400 C 138.317 34.595,140.888 31.600,140.725 31.600 C 140.633 31.600,140.017 32.185,139.358 32.900 M175.891 39.089 C 176.601 39.177,177.861 39.179,178.691 39.092 C 179.521 39.005,178.940 38.933,177.400 38.931 C 175.860 38.929,175.181 39.000,175.891 39.089 M183.000 39.600 C 183.440 39.789,184.070 39.944,184.400 39.944 C 184.778 39.944,184.704 39.817,184.200 39.600 C 183.760 39.411,183.130 39.256,182.800 39.256 C 182.422 39.256,182.496 39.383,183.000 39.600 M196.800 47.325 C 196.800 47.394,197.385 47.979,198.100 48.625 L 199.400 49.800 198.225 48.500 C 197.130 47.288,196.800 47.016,196.800 47.325 M176.500 54.287 C 177.105 54.378,178.095 54.378,178.700 54.287 C 179.305 54.195,178.810 54.120,177.600 54.120 C 176.390 54.120,175.895 54.195,176.500 54.287 M172.700 55.029 C 172.095 55.357,171.600 55.716,171.600 55.827 C 171.600 55.938,171.994 55.817,172.477 55.559 C 172.959 55.301,173.814 54.950,174.377 54.779 C 175.177 54.536,175.226 54.465,174.600 54.450 C 174.160 54.440,173.305 54.701,172.700 55.029 M183.211 55.859 C 183.755 56.222,184.999 57.257,185.976 58.159 C 187.723 59.774,187.733 59.777,186.576 58.367 C 185.457 57.002,183.147 55.200,182.517 55.200 C 182.355 55.200,182.667 55.497,183.211 55.859 M169.800 57.035 L 168.600 58.066 169.900 57.206 C 170.615 56.733,171.200 56.268,171.200 56.173 C 171.200 55.873,171.031 55.978,169.800 57.035 M227.293 58.400 C 227.293 59.170,227.375 59.485,227.476 59.100 C 227.576 58.715,227.576 58.085,227.476 57.700 C 227.375 57.315,227.293 57.630,227.293 58.400 M127.293 60.400 C 127.293 61.170,127.375 61.485,127.476 61.100 C 127.576 60.715,127.576 60.085,127.476 59.700 C 127.375 59.315,127.293 59.630,127.293 60.400 M227.701 63.000 C 227.705 63.880,227.787 64.193,227.883 63.695 C 227.979 63.198,227.975 62.478,227.875 62.095 C 227.775 61.713,227.696 62.120,227.701 63.000 M165.800 64.500 C 165.293 67.288,165.759 77.721,166.400 77.932 C 166.908 78.100,166.918 78.031,166.466 77.483 C 166.054 76.984,165.963 75.272,166.066 70.018 C 166.207 62.865,166.184 62.390,165.800 64.500 M204.597 160.200 C 204.597 213.000,204.643 234.541,204.700 208.068 C 204.757 181.595,204.757 138.395,204.700 112.068 C 204.643 85.741,204.597 107.400,204.597 160.200 M150.499 160.169 C 150.406 249.721,150.357 255.789,149.715 256.569 L 149.030 257.400 149.916 256.588 L 150.802 255.776 150.700 160.188 L 150.598 64.600 150.499 160.169 M243.111 116.300 C 242.991 159.602,243.142 156.758,240.835 159.161 C 240.304 159.715,238.954 160.500,237.835 160.906 C 235.857 161.624,235.844 161.639,237.369 161.436 C 239.185 161.195,241.399 159.554,242.582 157.570 C 243.389 156.218,243.401 155.677,243.508 116.500 L 243.615 76.800 244.508 76.800 C 245.702 76.801,250.351 77.797,253.774 78.785 C 255.299 79.225,256.630 79.503,256.731 79.402 C 256.832 79.301,256.664 79.146,256.357 79.057 C 250.193 77.262,246.381 76.400,244.605 76.400 L 243.222 76.400 243.111 116.300 M257.200 79.769 C 257.200 79.862,257.875 80.154,258.700 80.417 C 260.909 81.123,267.555 84.338,269.400 85.593 C 271.914 87.303,273.323 87.916,271.829 86.650 C 269.294 84.500,257.200 78.812,257.200 79.769 M273.200 87.890 C 273.200 88.076,273.695 88.521,274.300 88.880 C 280.847 92.763,290.345 104.145,294.762 113.400 C 295.497 114.940,296.256 116.605,296.449 117.100 C 296.642 117.595,296.974 118.405,297.186 118.900 C 297.600 119.863,298.939 124.222,299.430 126.200 C 299.608 126.916,299.789 127.146,299.880 126.771 C 300.685 123.432,292.964 107.800,286.707 100.102 C 282.454 94.869,273.200 86.502,273.200 87.890 M166.086 93.674 C 165.708 94.052,165.600 112.890,165.600 178.688 L 165.600 263.216 164.654 264.714 C 163.429 266.655,163.253 266.789,159.000 269.010 C 129.149 284.599,129.734 327.205,160.000 341.894 C 171.056 347.259,185.879 347.107,195.900 341.524 C 196.615 341.126,197.875 340.422,198.700 339.960 C 201.679 338.292,205.172 335.281,209.022 331.062 C 214.386 325.185,218.074 314.668,218.099 305.177 C 218.124 295.578,214.553 285.410,209.023 279.335 C 204.316 274.163,200.930 271.468,195.782 268.794 C 192.107 266.885,191.122 266.060,190.123 264.051 C 189.435 262.670,189.390 258.547,189.200 178.000 L 189.000 93.400 177.786 93.294 C 169.399 93.215,166.450 93.310,166.086 93.674 M188.800 178.351 C 188.800 251.208,188.879 262.892,189.381 264.093 C 190.100 265.815,192.254 267.745,194.725 268.883 C 199.791 271.217,207.016 277.230,210.004 281.600 C 210.531 282.370,211.060 283.090,211.181 283.200 C 214.163 285.920,217.600 297.699,217.600 305.200 C 217.600 312.481,214.004 324.842,211.199 327.200 C 211.068 327.310,210.529 328.030,210.001 328.800 C 206.316 334.169,198.833 339.995,192.400 342.503 C 191.850 342.718,191.087 343.052,190.705 343.247 C 190.323 343.441,189.594 343.600,189.085 343.600 C 188.576 343.600,187.989 343.762,187.780 343.959 C 186.366 345.295,168.194 345.284,167.367 343.947 C 167.249 343.756,166.711 343.600,166.171 343.600 C 165.631 343.600,164.877 343.441,164.495 343.247 C 164.113 343.052,163.350 342.718,162.800 342.503 C 151.421 338.067,141.893 327.432,138.878 315.800 C 138.650 314.920,138.269 313.459,138.032 312.554 C 137.794 311.648,137.600 308.339,137.600 305.200 C 137.600 302.061,137.794 298.752,138.032 297.846 C 138.269 296.941,138.650 295.480,138.878 294.600 C 141.066 286.159,149.048 274.857,154.613 272.321 C 155.156 272.074,155.600 271.758,155.600 271.620 C 155.600 271.482,157.314 270.495,159.409 269.427 C 163.544 267.318,165.323 265.662,165.976 263.311 C 166.263 262.279,166.396 235.211,166.398 177.900 L 166.400 94.000 177.600 94.000 L 188.800 94.000 188.800 178.351 M300.056 128.800 C 300.056 129.350,300.211 130.160,300.400 130.600 C 300.713 131.329,300.744 131.312,300.744 130.400 C 300.744 129.850,300.589 129.040,300.400 128.600 C 300.087 127.871,300.056 127.888,300.056 128.800 M300.882 133.200 C 300.876 133.970,301.010 135.500,301.182 136.600 L 301.493 138.600 301.499 136.400 C 301.503 135.190,301.368 133.660,301.200 133.000 L 300.895 131.800 300.882 133.200 M301.058 149.139 C 300.885 150.755,300.832 152.165,300.939 152.272 C 301.219 152.553,301.703 148.327,301.523 147.171 C 301.439 146.637,301.230 147.522,301.058 149.139 M300.289 154.000 C 300.136 154.550,300.025 155.450,300.042 156.000 C 300.068 156.861,300.126 156.814,300.458 155.660 C 300.670 154.924,300.781 154.024,300.706 153.660 C 300.608 153.194,300.486 153.293,300.289 154.000 M299.400 158.400 C 299.248 159.091,299.214 159.747,299.324 159.857 C 299.434 159.967,299.648 159.491,299.800 158.800 C 299.952 158.109,299.986 157.453,299.876 157.343 C 299.766 157.233,299.552 157.709,299.400 158.400 M298.205 162.603 C 297.803 163.921,297.323 165.171,297.137 165.380 C 296.952 165.589,296.796 166.039,296.792 166.380 C 296.783 166.982,293.882 172.969,292.033 176.200 C 287.562 184.012,277.425 194.295,270.000 198.553 C 269.010 199.121,266.724 200.348,264.920 201.280 C 263.116 202.211,261.705 203.038,261.783 203.116 C 262.828 204.161,276.809 194.783,282.220 189.407 C 289.638 182.037,300.209 164.026,299.088 160.665 C 299.004 160.413,298.607 161.285,298.205 162.603 M233.600 161.182 C 233.930 161.405,234.545 161.591,234.967 161.594 C 235.990 161.602,235.671 161.373,234.200 161.044 C 233.324 160.848,233.162 160.885,233.600 161.182 M236.200 177.591 C 244.310 179.066,245.597 190.711,237.812 192.171 C 237.051 192.314,236.309 192.623,236.164 192.858 C 235.858 193.354,237.088 193.040,239.098 192.111 C 246.114 188.867,243.774 177.007,236.165 177.250 L 234.600 177.300 236.200 177.591 M230.175 179.700 L 229.000 181.000 230.300 179.825 C 231.015 179.179,231.600 178.594,231.600 178.525 C 231.600 178.216,231.270 178.488,230.175 179.700 M228.124 185.000 C 228.126 186.320,228.201 186.812,228.290 186.093 C 228.379 185.374,228.377 184.294,228.286 183.693 C 228.195 183.092,228.122 183.680,228.124 185.000 M256.600 204.800 C 255.500 205.206,254.960 205.539,255.400 205.539 C 255.840 205.540,256.920 205.207,257.800 204.800 C 259.856 203.848,259.179 203.848,256.600 204.800 M252.600 206.000 C 251.886 206.307,251.915 206.347,252.876 206.372 C 253.468 206.387,254.064 206.220,254.200 206.000 C 254.495 205.522,253.711 205.522,252.600 206.000 M249.000 206.847 C 248.120 207.042,244.610 207.556,241.200 207.990 C 236.408 208.600,235.818 208.730,238.600 208.564 C 244.095 208.237,250.902 207.232,251.471 206.663 C 251.798 206.335,251.061 206.390,249.000 206.847 M229.970 211.100 L 229.000 212.200 230.200 211.200 C 230.860 210.650,231.475 210.155,231.567 210.100 C 231.658 210.045,231.555 210.000,231.336 210.000 C 231.118 210.000,230.503 210.495,229.970 211.100 M228.093 215.200 C 228.093 215.970,228.175 216.285,228.276 215.900 C 228.376 215.515,228.376 214.885,228.276 214.500 C 228.175 214.115,228.093 214.430,228.093 215.200 M228.093 241.600 C 228.093 242.370,228.175 242.685,228.276 242.300 C 228.376 241.915,228.376 241.285,228.276 240.900 C 228.175 240.515,228.093 240.830,228.093 241.600 M230.783 246.500 C 231.764 247.545,232.619 248.400,232.683 248.400 C 232.984 248.400,232.666 248.041,230.900 246.383 L 229.000 244.600 230.783 246.500 M235.200 251.000 C 236.395 252.210,237.463 253.200,237.573 253.200 C 237.683 253.200,236.795 252.210,235.600 251.000 C 234.405 249.790,233.337 248.800,233.227 248.800 C 233.117 248.800,234.005 249.790,235.200 251.000 M239.375 255.732 C 239.991 256.539,240.576 257.200,240.675 257.200 C 240.953 257.200,239.221 254.860,238.709 254.544 C 238.459 254.389,238.759 254.924,239.375 255.732 M212.433 261.700 C 212.525 261.755,213.140 262.250,213.800 262.800 L 215.000 263.800 214.030 262.700 C 213.497 262.095,212.882 261.600,212.664 261.600 C 212.445 261.600,212.342 261.645,212.433 261.700 M217.200 265.800 C 217.946 266.570,218.647 267.200,218.757 267.200 C 218.867 267.200,218.346 266.570,217.600 265.800 C 216.854 265.030,216.153 264.400,216.043 264.400 C 215.933 264.400,216.454 265.030,217.200 265.800 M219.829 268.838 C 220.473 269.629,221.081 270.208,221.179 270.125 C 221.278 270.042,220.751 269.395,220.009 268.687 L 218.658 267.400 219.829 268.838 M222.437 272.000 C 223.596 273.796,223.600 273.801,223.598 273.367 C 223.597 273.165,223.132 272.460,222.565 271.800 L 221.534 270.600 222.437 272.000 M99.429 290.229 C 99.281 290.815,99.238 291.372,99.332 291.466 C 99.427 291.560,99.624 291.158,99.771 290.571 C 99.919 289.985,99.962 289.428,99.868 289.334 C 99.773 289.240,99.576 289.642,99.429 290.229 M255.862 293.000 C 255.996 293.880,256.172 294.675,256.253 294.767 C 256.556 295.110,256.329 292.968,255.981 292.200 C 255.729 291.642,255.693 291.885,255.862 293.000 M98.669 294.756 C 98.521 295.495,98.420 296.483,98.444 296.950 C 98.468 297.418,98.647 296.990,98.842 296.000 C 99.037 295.010,99.138 294.023,99.067 293.806 C 98.996 293.590,98.817 294.017,98.669 294.756 M122.250 295.650 C 121.917 297.317,122.240 297.640,122.600 296.000 C 122.752 295.309,122.793 294.659,122.691 294.558 C 122.589 294.456,122.391 294.947,122.250 295.650 M121.757 305.200 C 121.757 308.170,121.820 309.385,121.897 307.900 C 121.974 306.415,121.974 303.985,121.897 302.500 C 121.820 301.015,121.757 302.230,121.757 305.200 M233.324 302.200 C 233.326 303.520,233.401 304.012,233.490 303.293 C 233.579 302.574,233.577 301.494,233.486 300.893 C 233.395 300.292,233.322 300.880,233.324 302.200 M256.954 305.200 C 256.954 307.950,257.018 309.075,257.096 307.700 C 257.174 306.325,257.174 304.075,257.096 302.700 C 257.018 301.325,256.954 302.450,256.954 305.200 M98.134 305.200 C 98.134 306.850,98.205 307.525,98.291 306.700 C 98.378 305.875,98.378 304.525,98.291 303.700 C 98.205 302.875,98.134 303.550,98.134 305.200 M233.324 308.600 C 233.326 309.920,233.401 310.412,233.490 309.693 C 233.579 308.974,233.577 307.894,233.486 307.293 C 233.395 306.692,233.322 307.280,233.324 308.600 M98.487 314.000 C 98.483 314.550,98.624 315.450,98.800 316.000 C 99.231 317.344,99.231 315.892,98.800 314.200 C 98.526 313.122,98.494 313.102,98.487 314.000 M122.068 313.600 C 122.088 314.639,122.718 316.346,122.732 315.400 C 122.738 314.960,122.589 314.240,122.400 313.800 C 122.189 313.310,122.061 313.232,122.068 313.600 M232.229 316.229 C 232.081 316.815,232.038 317.372,232.132 317.466 C 232.227 317.560,232.424 317.158,232.571 316.571 C 232.719 315.985,232.762 315.428,232.668 315.334 C 232.573 315.240,232.376 315.642,232.229 316.229 M255.850 317.250 C 255.709 317.953,255.669 318.602,255.759 318.692 C 255.850 318.783,256.048 318.291,256.200 317.600 C 256.352 316.909,256.393 316.259,256.291 316.158 C 256.189 316.056,255.991 316.547,255.850 317.250 M99.256 319.200 C 99.256 319.530,99.411 320.160,99.600 320.600 C 99.817 321.104,99.944 321.178,99.944 320.800 C 99.944 320.470,99.789 319.840,99.600 319.400 C 99.383 318.896,99.256 318.822,99.256 319.200 M223.402 336.900 C 222.795 337.835,222.006 338.970,221.649 339.423 C 221.292 339.876,221.540 339.669,222.200 338.963 C 223.362 337.719,225.020 335.200,224.676 335.200 C 224.583 335.200,224.009 335.965,223.402 336.900 M133.600 340.125 C 133.600 340.194,134.185 340.779,134.900 341.425 L 136.200 342.600 135.025 341.300 C 133.930 340.088,133.600 339.816,133.600 340.125 M136.800 343.725 C 136.800 343.794,137.385 344.379,138.100 345.025 L 139.400 346.200 138.225 344.900 C 137.130 343.688,136.800 343.416,136.800 343.725 M144.767 350.545 C 145.300 351.201,146.800 352.193,146.800 351.889 C 146.800 351.813,146.215 351.322,145.500 350.799 C 144.696 350.210,144.416 350.113,144.767 350.545 M118.600 358.400 C 119.459 359.280,120.252 360.000,120.362 360.000 C 120.472 360.000,119.859 359.280,119.000 358.400 C 118.141 357.520,117.348 356.800,117.238 356.800 C 117.128 356.800,117.741 357.520,118.600 358.400 M236.175 358.500 L 235.000 359.800 236.300 358.625 C 237.015 357.979,237.600 357.394,237.600 357.325 C 237.600 357.016,237.270 357.288,236.175 358.500 M175.300 361.096 C 176.565 361.175,178.635 361.175,179.900 361.096 C 181.165 361.016,180.130 360.951,177.600 360.951 C 175.070 360.951,174.035 361.016,175.300 361.096 M123.983 363.700 C 125.641 365.466,126.000 365.784,126.000 365.483 C 126.000 365.419,125.145 364.564,124.100 363.583 L 122.200 361.800 123.983 363.700 M230.778 363.900 L 229.400 365.400 230.900 364.022 C 232.296 362.738,232.584 362.400,232.278 362.400 C 232.212 362.400,231.537 363.075,230.778 363.900 M126.800 366.133 C 126.800 366.243,127.520 366.903,128.400 367.600 C 129.280 368.297,130.000 368.777,130.000 368.667 C 130.000 368.557,129.280 367.897,128.400 367.200 C 127.520 366.503,126.800 366.023,126.800 366.133 M195.600 382.418 C 195.162 382.715,195.324 382.752,196.200 382.556 C 197.671 382.227,197.990 381.998,196.967 382.006 C 196.545 382.009,195.930 382.195,195.600 382.418 M175.911 384.693 C 176.851 384.778,178.291 384.777,179.111 384.691 C 179.930 384.605,179.160 384.536,177.400 384.537 C 175.640 384.539,174.970 384.609,175.911 384.693 " stroke="none" fill="#8b4a57" fill-rule="evenodd"></path><path id="path4" d="M171.020 15.947 C 170.372 16.086,173.240 16.200,177.394 16.200 C 181.548 16.200,184.419 16.086,183.773 15.947 C 183.128 15.808,180.260 15.695,177.400 15.695 C 174.540 15.695,171.669 15.808,171.020 15.947 M166.600 16.819 C 166.042 17.071,166.285 17.107,167.400 16.938 C 168.280 16.804,169.075 16.628,169.167 16.547 C 169.510 16.244,167.368 16.471,166.600 16.819 M185.633 16.544 C 185.725 16.624,186.610 16.796,187.600 16.927 C 188.802 17.086,189.134 17.047,188.600 16.810 C 187.836 16.472,185.286 16.243,185.633 16.544 M163.400 17.600 C 162.896 17.817,162.822 17.944,163.200 17.944 C 163.530 17.944,164.160 17.789,164.600 17.600 C 165.104 17.383,165.178 17.256,164.800 17.256 C 164.470 17.256,163.840 17.411,163.400 17.600 M160.800 18.400 C 160.267 18.745,160.267 18.788,160.800 18.788 C 161.130 18.788,161.670 18.613,162.000 18.400 C 162.533 18.055,162.533 18.012,162.000 18.012 C 161.670 18.012,161.130 18.187,160.800 18.400 M154.700 21.029 C 153.149 21.870,153.325 22.161,154.900 21.359 C 156.408 20.593,156.675 20.394,156.167 20.416 C 155.965 20.425,155.305 20.701,154.700 21.029 M199.945 21.223 C 200.685 21.674,201.377 21.957,201.482 21.851 C 201.684 21.650,199.473 20.399,198.920 20.401 C 198.744 20.402,199.205 20.772,199.945 21.223 M151.800 22.800 C 151.140 23.237,150.780 23.592,151.000 23.588 C 151.401 23.582,153.576 22.023,153.200 22.012 C 153.090 22.008,152.460 22.363,151.800 22.800 M202.000 22.137 C 202.000 22.377,205.141 24.402,205.491 24.387 C 205.661 24.380,205.440 24.097,205.000 23.757 C 204.044 23.018,202.000 21.915,202.000 22.137 M147.441 25.627 C 146.583 26.272,146.050 26.800,146.256 26.800 C 146.462 26.800,147.253 26.267,148.015 25.616 C 149.787 24.102,149.461 24.108,147.441 25.627 M206.144 24.709 C 206.460 25.221,208.800 26.953,208.800 26.675 C 208.800 26.576,208.139 25.991,207.332 25.375 C 206.524 24.759,205.989 24.459,206.144 24.709 M143.411 29.018 C 142.317 29.998,141.597 30.792,141.811 30.782 C 142.025 30.772,143.010 29.963,144.000 28.985 C 146.313 26.700,145.978 26.718,143.411 29.018 M209.245 27.300 C 209.344 27.355,211.039 28.930,213.012 30.800 L 216.600 34.200 213.209 30.700 C 211.344 28.775,209.649 27.200,209.442 27.200 C 209.236 27.200,209.147 27.245,209.245 27.300 M139.654 32.834 C 138.913 33.695,138.463 34.385,138.654 34.366 C 138.844 34.348,139.606 33.628,140.346 32.766 C 141.087 31.905,141.537 31.215,141.346 31.234 C 141.156 31.252,140.394 31.972,139.654 32.834 M218.537 37.476 C 219.762 39.224,221.580 42.352,222.577 44.427 C 223.574 46.502,224.392 48.003,224.395 47.761 C 224.412 46.328,218.080 35.391,216.761 34.576 C 216.513 34.423,217.312 35.727,218.537 37.476 M137.544 35.500 C 136.252 37.060,135.919 37.600,136.251 37.595 C 136.443 37.592,137.007 36.962,137.504 36.195 C 138.472 34.701,138.492 34.356,137.544 35.500 M135.108 38.900 C 134.787 39.395,134.307 40.250,134.040 40.800 C 133.360 42.203,134.594 40.706,135.441 39.100 C 136.139 37.774,135.923 37.644,135.108 38.900 M173.400 38.757 C 172.520 38.891,174.410 39.004,177.600 39.009 C 181.215 39.014,182.722 38.913,181.600 38.739 C 179.468 38.408,175.639 38.416,173.400 38.757 M167.700 40.234 C 165.907 41.018,166.060 41.321,167.900 40.629 C 168.725 40.319,169.670 39.974,170.000 39.864 C 170.400 39.730,170.334 39.664,169.800 39.664 C 169.360 39.665,168.415 39.921,167.700 40.234 M186.400 40.262 C 187.390 40.605,188.380 41.019,188.600 41.181 C 189.148 41.585,190.400 42.015,190.400 41.799 C 190.400 41.480,185.990 39.600,185.288 39.619 C 184.910 39.630,185.410 39.919,186.400 40.262 M162.962 42.777 C 159.996 44.758,159.200 45.402,159.200 45.819 C 159.200 46.001,159.695 45.678,160.300 45.102 C 160.905 44.525,162.469 43.412,163.776 42.627 C 165.084 41.842,165.966 41.200,165.738 41.200 C 165.511 41.200,164.261 41.910,162.962 42.777 M190.833 42.116 C 190.925 42.180,191.675 42.729,192.500 43.337 C 193.325 43.944,193.998 44.297,193.995 44.120 C 193.990 43.787,191.415 42.000,190.939 42.000 C 190.789 42.000,190.742 42.052,190.833 42.116 M196.820 47.011 C 198.262 48.545,199.851 50.475,200.353 51.300 C 200.855 52.125,201.351 52.800,201.456 52.800 C 202.308 52.800,197.028 46.255,195.000 44.798 C 194.560 44.481,195.379 45.478,196.820 47.011 M156.599 48.287 C 155.940 49.069,155.073 50.269,154.673 50.954 C 153.971 52.158,153.971 52.167,154.673 51.204 C 155.073 50.656,156.010 49.526,156.756 48.693 C 157.502 47.860,158.042 47.108,157.955 47.022 C 157.869 46.936,157.259 47.505,156.599 48.287 M224.828 49.876 C 224.813 50.358,224.980 50.864,225.200 51.000 C 225.673 51.292,225.673 50.901,225.200 49.800 C 224.869 49.029,224.855 49.031,224.828 49.876 M225.606 52.233 C 225.609 52.655,225.795 53.270,226.018 53.600 C 226.315 54.038,226.352 53.876,226.156 53.000 C 225.827 51.529,225.598 51.210,225.606 52.233 M153.000 53.600 C 152.638 54.301,152.426 54.959,152.529 55.062 C 152.632 55.165,153.006 54.669,153.360 53.960 C 153.714 53.251,153.926 52.593,153.831 52.498 C 153.736 52.403,153.362 52.899,153.000 53.600 M128.501 54.920 C 128.242 56.064,127.939 57.990,127.828 59.200 L 127.625 61.400 128.006 59.400 C 128.216 58.300,128.599 56.454,128.858 55.298 C 129.117 54.142,129.249 53.115,129.151 53.017 C 129.053 52.920,128.761 53.776,128.501 54.920 M201.634 53.400 C 201.634 53.620,201.978 54.430,202.400 55.200 C 202.822 55.970,203.166 56.420,203.166 56.200 C 203.166 55.980,202.822 55.170,202.400 54.400 C 201.978 53.630,201.634 53.180,201.634 53.400 M176.300 54.689 C 177.015 54.778,178.185 54.778,178.900 54.689 C 179.615 54.601,179.030 54.528,177.600 54.528 C 176.170 54.528,175.585 54.601,176.300 54.689 M226.428 55.433 C 226.444 56.075,226.616 56.960,226.810 57.400 C 227.047 57.934,227.086 57.602,226.927 56.400 C 226.646 54.280,226.388 53.780,226.428 55.433 M185.620 58.221 C 186.599 59.333,187.481 60.181,187.581 60.107 C 187.680 60.033,186.879 59.123,185.801 58.086 L 183.840 56.200 185.620 58.221 M203.234 57.200 C 203.246 57.530,203.411 58.160,203.600 58.600 L 203.944 59.400 203.966 58.600 C 203.978 58.160,203.813 57.530,203.600 57.200 C 203.255 56.667,203.215 56.667,203.234 57.200 M168.788 58.477 L 167.888 59.800 168.984 58.674 C 169.588 58.054,169.992 57.459,169.884 57.351 C 169.776 57.243,169.282 57.749,168.788 58.477 M151.029 59.029 C 150.881 59.615,150.838 60.172,150.932 60.266 C 151.027 60.360,151.224 59.958,151.371 59.371 C 151.519 58.785,151.562 58.228,151.468 58.134 C 151.373 58.040,151.176 58.442,151.029 59.029 M227.310 106.400 C 227.302 132.250,227.432 153.940,227.600 154.600 C 227.987 156.123,228.000 65.972,227.613 62.200 C 227.455 60.660,227.319 80.550,227.310 106.400 M166.959 61.437 C 166.628 62.228,166.413 63.040,166.481 63.242 C 166.548 63.444,166.895 62.797,167.252 61.805 C 168.025 59.656,167.814 59.391,166.959 61.437 M204.268 62.000 C 204.400 63.210,204.574 64.275,204.654 64.367 C 204.964 64.721,204.725 61.357,204.386 60.600 C 204.152 60.078,204.112 60.563,204.268 62.000 M187.995 61.981 C 188.204 62.711,188.486 63.419,188.620 63.554 C 188.996 63.929,188.344 61.452,187.955 61.027 C 187.768 60.822,187.785 61.251,187.995 61.981 M127.299 151.667 C 127.245 201.314,127.096 242.264,126.970 242.667 C 126.764 243.323,126.785 243.330,127.171 242.734 C 127.476 242.262,127.572 215.780,127.500 151.734 L 127.398 61.400 127.299 151.667 M150.304 61.633 C 150.252 61.725,150.117 105.524,150.004 158.964 L 149.800 256.127 147.100 257.744 C 145.615 258.633,144.400 259.507,144.400 259.687 C 144.400 259.969,146.383 258.766,149.494 256.596 L 150.387 255.972 150.494 158.886 C 150.592 68.968,150.577 61.158,150.304 61.633 M188.889 70.500 L 188.800 77.200 177.600 77.200 L 166.400 77.200 166.311 70.700 L 166.222 64.200 166.101 70.546 C 165.942 78.815,164.659 78.000,177.841 78.000 L 188.785 78.000 189.007 77.100 C 189.129 76.605,189.172 73.410,189.103 70.000 L 188.978 63.800 188.889 70.500 M166.400 178.280 C 166.290 224.744,166.335 262.625,166.501 262.459 C 166.666 262.294,166.756 224.278,166.701 177.979 L 166.600 93.800 166.400 178.280 M301.293 145.200 C 301.293 145.970,301.375 146.285,301.476 145.900 C 301.576 145.515,301.576 144.885,301.476 144.500 C 301.375 144.115,301.293 144.430,301.293 145.200 M228.002 156.338 C 227.992 158.662,232.798 162.061,235.933 161.947 C 237.371 161.894,237.364 161.888,235.600 161.618 C 232.133 161.089,230.031 159.696,228.629 157.000 C 228.286 156.340,228.004 156.042,228.002 156.338 M232.590 177.616 C 232.421 177.889,232.723 177.938,233.466 177.760 C 234.999 177.392,235.144 177.200,233.890 177.200 C 233.317 177.200,232.732 177.387,232.590 177.616 M229.634 179.856 C 228.735 180.877,228.004 182.002,228.009 182.356 C 228.014 182.710,228.308 182.413,228.661 181.696 C 229.015 180.978,229.917 179.853,230.666 179.196 C 231.415 178.538,231.857 178.000,231.648 178.000 C 231.439 178.000,230.533 178.835,229.634 179.856 M227.714 185.000 C 227.717 186.100,227.795 186.503,227.887 185.895 C 227.979 185.286,227.977 184.386,227.882 183.895 C 227.787 183.403,227.711 183.900,227.714 185.000 M230.638 191.400 C 231.277 191.949,232.050 192.399,232.356 192.400 C 232.662 192.400,232.249 191.950,231.438 191.400 C 229.547 190.117,229.146 190.117,230.638 191.400 M233.404 192.806 C 233.538 193.023,234.207 193.200,234.890 193.200 C 236.401 193.200,236.249 193.000,234.480 192.663 C 233.655 192.506,233.252 192.560,233.404 192.806 M232.300 208.920 C 231.695 209.159,231.200 209.506,231.200 209.691 C 231.200 209.877,231.605 209.811,232.100 209.545 C 232.595 209.279,233.540 208.931,234.200 208.771 C 235.257 208.516,235.281 208.482,234.400 208.483 C 233.850 208.484,232.905 208.681,232.300 208.920 M229.229 211.491 C 228.553 212.311,228.007 213.256,228.016 213.591 C 228.025 213.926,228.317 213.660,228.665 213.000 C 229.013 212.340,229.667 211.395,230.118 210.900 C 230.570 210.405,230.831 210.000,230.699 210.000 C 230.567 210.000,229.905 210.671,229.229 211.491 M227.457 215.900 C 227.097 218.076,227.221 240.017,227.600 241.200 C 227.776 241.750,227.938 235.945,227.960 228.300 C 228.000 214.531,227.937 212.993,227.457 215.900 M125.881 244.639 C 125.486 245.168,125.308 245.600,125.485 245.600 C 125.834 245.600,126.938 244.001,126.728 243.800 C 126.657 243.733,126.277 244.111,125.881 244.639 M228.800 244.757 C 228.800 244.898,230.819 246.991,233.287 249.407 C 235.755 251.823,237.690 253.676,237.587 253.524 C 237.113 252.824,228.800 244.530,228.800 244.757 M122.729 248.100 C 121.528 249.255,121.001 249.840,121.556 249.400 C 123.218 248.082,125.417 246.007,125.155 246.003 C 125.021 246.002,123.929 246.945,122.729 248.100 M119.400 251.317 C 119.180 251.585,118.095 252.883,116.988 254.202 C 114.482 257.190,111.920 260.625,111.022 262.200 C 110.240 263.573,109.861 264.050,114.040 258.415 C 115.272 256.754,117.225 254.362,118.380 253.098 C 119.535 251.834,120.327 250.807,120.140 250.815 C 119.953 250.824,119.620 251.049,119.400 251.317 M238.000 254.227 C 238.000 254.474,240.131 257.318,241.013 258.247 C 241.246 258.493,242.215 259.888,243.166 261.347 C 244.116 262.806,244.973 264.000,245.071 264.000 C 245.296 264.000,245.021 263.537,243.050 260.600 C 241.273 257.952,238.000 253.821,238.000 254.227 M205.200 256.420 C 206.587 257.361,207.378 257.635,206.400 256.836 C 205.850 256.386,205.220 256.017,205.000 256.015 C 204.780 256.013,204.870 256.196,205.200 256.420 M208.394 258.382 C 208.941 258.802,209.468 259.066,209.565 258.969 C 209.791 258.742,208.329 257.627,207.800 257.622 C 207.580 257.620,207.847 257.961,208.394 258.382 M210.000 259.349 C 210.000 259.435,210.630 259.986,211.400 260.573 C 212.170 261.160,212.798 261.497,212.795 261.320 C 212.792 261.144,212.162 260.593,211.395 260.096 C 210.628 259.599,210.000 259.263,210.000 259.349 M143.176 260.513 C 140.883 262.303,140.297 262.830,140.439 262.973 C 140.528 263.062,141.411 262.434,142.400 261.579 C 144.065 260.141,144.607 259.395,143.176 260.513 M215.371 263.712 C 216.487 264.763,218.272 266.563,219.338 267.712 L 221.277 269.800 219.674 267.800 C 218.086 265.818,216.357 264.121,214.371 262.592 C 213.805 262.156,214.255 262.660,215.371 263.712 M109.104 265.282 C 106.716 269.410,106.652 270.128,109.022 266.192 C 109.787 264.921,110.342 263.809,110.255 263.722 C 110.168 263.635,109.650 264.337,109.104 265.282 M136.004 267.142 C 133.377 270.037,130.941 273.200,131.338 273.200 C 131.429 273.200,132.226 272.255,133.109 271.100 C 134.539 269.229,135.291 268.365,138.505 264.900 C 138.964 264.405,139.230 264.000,139.097 264.000 C 138.963 264.000,137.571 265.414,136.004 267.142 M245.800 265.600 C 246.141 266.260,246.511 266.800,246.621 266.800 C 246.731 266.800,246.541 266.260,246.200 265.600 C 245.859 264.940,245.489 264.400,245.379 264.400 C 245.269 264.400,245.459 264.940,245.800 265.600 M246.800 267.390 C 246.800 267.495,247.159 268.170,247.599 268.890 C 248.538 270.431,248.669 270.081,247.790 268.380 C 247.241 267.319,246.800 266.878,246.800 267.390 M224.684 274.900 C 225.285 275.835,226.542 278.040,227.477 279.800 C 228.412 281.560,229.177 282.820,229.178 282.600 C 229.179 282.233,227.561 279.132,225.162 274.903 C 224.633 273.970,224.063 273.205,223.895 273.203 C 223.727 273.201,224.082 273.965,224.684 274.900 M128.619 277.221 C 127.243 279.569,126.659 280.989,127.727 279.389 C 128.788 277.799,130.428 274.800,130.236 274.800 C 130.127 274.800,129.400 275.890,128.619 277.221 M102.600 279.200 C 102.450 279.673,102.417 280.150,102.527 280.260 C 102.637 280.370,102.850 280.073,103.000 279.600 C 103.150 279.127,103.183 278.650,103.073 278.540 C 102.963 278.430,102.750 278.727,102.600 279.200 M126.223 281.806 C 125.360 283.872,125.474 284.106,126.447 282.262 C 126.893 281.416,127.165 280.632,127.052 280.519 C 126.939 280.406,126.566 280.985,126.223 281.806 M101.800 281.600 C 101.650 282.073,101.617 282.550,101.727 282.660 C 101.837 282.770,102.050 282.473,102.200 282.000 C 102.350 281.527,102.383 281.050,102.273 280.940 C 102.163 280.830,101.950 281.127,101.800 281.600 M253.234 282.800 C 253.246 283.130,253.411 283.760,253.600 284.200 L 253.944 285.000 253.966 284.200 C 253.978 283.760,253.813 283.130,253.600 282.800 C 253.255 282.267,253.215 282.267,253.234 282.800 M101.000 284.400 C 100.850 284.873,100.817 285.350,100.927 285.460 C 101.037 285.570,101.250 285.273,101.400 284.800 C 101.550 284.327,101.583 283.850,101.473 283.740 C 101.363 283.630,101.150 283.927,101.000 284.400 M254.019 285.433 C 254.076 286.507,255.544 292.464,255.569 291.725 C 255.601 290.810,254.461 285.528,254.168 285.235 C 254.076 285.142,254.009 285.232,254.019 285.433 M123.851 287.960 C 123.493 289.055,123.211 290.186,123.225 290.475 C 123.239 290.764,123.600 289.936,124.027 288.635 C 124.454 287.334,124.736 286.203,124.653 286.120 C 124.570 286.037,124.209 286.865,123.851 287.960 M100.200 287.600 C 100.048 288.291,100.014 288.947,100.124 289.057 C 100.234 289.167,100.448 288.691,100.600 288.000 C 100.752 287.309,100.786 286.653,100.676 286.543 C 100.566 286.433,100.352 286.909,100.200 287.600 M231.234 289.000 C 231.222 289.440,231.387 290.070,231.600 290.400 C 232.114 291.195,232.114 290.196,231.600 289.000 L 231.256 288.200 231.234 289.000 M99.476 291.210 C 99.330 291.755,99.227 292.650,99.246 293.200 C 99.271 293.918,99.384 293.757,99.649 292.627 C 100.055 290.895,99.900 289.625,99.476 291.210 M232.046 292.000 C 232.027 292.550,232.187 293.270,232.400 293.600 C 232.894 294.364,232.894 293.542,232.400 292.000 L 232.080 291.000 232.046 292.000 M122.240 294.040 C 122.093 294.957,122.052 295.785,122.147 295.880 C 122.242 295.976,122.446 295.310,122.600 294.400 C 122.754 293.490,122.796 292.662,122.693 292.560 C 122.590 292.457,122.387 293.123,122.240 294.040 M255.897 295.600 C 256.015 297.250,256.176 298.675,256.256 298.767 C 256.522 299.075,256.309 295.013,255.994 293.800 C 255.812 293.097,255.772 293.842,255.897 295.600 M232.876 295.600 C 232.867 296.150,233.003 297.410,233.180 298.400 C 233.420 299.750,233.507 299.900,233.527 299.000 C 233.542 298.340,233.405 297.080,233.223 296.200 C 233.016 295.198,232.886 294.974,232.876 295.600 M98.654 297.056 C 98.335 299.383,98.407 312.593,98.747 314.175 C 98.886 314.821,99.000 310.816,99.000 305.275 C 99.000 299.733,98.979 295.200,98.954 295.200 C 98.929 295.200,98.794 296.035,98.654 297.056 M121.461 299.100 C 121.148 302.412,121.188 309.033,121.540 312.000 C 121.683 313.210,121.800 310.195,121.800 305.300 C 121.800 300.405,121.781 296.400,121.758 296.400 C 121.735 296.400,121.601 297.615,121.461 299.100 M256.557 305.200 C 256.557 308.170,256.620 309.385,256.697 307.900 C 256.774 306.415,256.774 303.985,256.697 302.500 C 256.620 301.015,256.557 302.230,256.557 305.200 M233.728 305.600 C 233.728 307.030,233.801 307.615,233.889 306.900 C 233.978 306.185,233.978 305.015,233.889 304.300 C 233.801 303.585,233.728 304.170,233.728 305.600 M233.015 313.015 C 232.861 314.254,232.817 315.350,232.919 315.452 C 233.020 315.554,233.230 314.623,233.385 313.385 C 233.539 312.146,233.583 311.050,233.481 310.948 C 233.380 310.846,233.170 311.777,233.015 313.015 M256.072 313.250 C 256.032 314.268,255.911 315.707,255.801 316.450 L 255.603 317.800 256.022 316.465 C 256.252 315.731,256.374 314.291,256.293 313.265 L 256.144 311.400 256.072 313.250 M122.087 315.000 C 122.091 315.440,122.232 316.340,122.400 317.000 C 122.674 318.078,122.706 318.098,122.713 317.200 C 122.717 316.650,122.576 315.750,122.400 315.200 C 122.149 314.416,122.081 314.373,122.087 315.000 M99.228 317.433 C 99.244 318.075,99.416 318.960,99.610 319.400 C 99.847 319.934,99.886 319.602,99.727 318.400 C 99.446 316.280,99.188 315.780,99.228 317.433 M232.200 317.600 C 232.048 318.291,232.007 318.941,232.109 319.042 C 232.211 319.144,232.409 318.653,232.550 317.950 C 232.691 317.247,232.731 316.598,232.641 316.508 C 232.550 316.417,232.352 316.909,232.200 317.600 M255.254 318.868 C 255.225 319.455,254.916 321.046,254.568 322.402 C 254.220 323.759,254.032 324.965,254.149 325.082 C 254.265 325.199,254.470 324.778,254.603 324.147 C 254.736 323.516,255.031 322.261,255.258 321.359 C 255.485 320.456,255.590 319.286,255.490 318.759 C 255.316 317.839,255.307 317.843,255.254 318.868 M123.206 320.233 C 123.209 320.655,123.395 321.270,123.618 321.600 C 123.915 322.038,123.952 321.876,123.756 321.000 C 123.427 319.529,123.198 319.210,123.206 320.233 M231.473 320.153 C 231.323 320.545,231.211 321.166,231.225 321.533 C 231.242 321.975,231.381 321.874,231.637 321.234 C 231.849 320.703,231.961 320.082,231.885 319.854 C 231.809 319.627,231.624 319.761,231.473 320.153 M100.068 321.800 C 100.062 322.240,100.211 322.960,100.400 323.400 C 100.838 324.419,100.838 323.368,100.400 322.000 C 100.143 321.196,100.077 321.157,100.068 321.800 M100.812 325.200 C 100.812 325.530,100.987 326.070,101.200 326.400 C 101.545 326.933,101.588 326.933,101.588 326.400 C 101.588 326.070,101.413 325.530,101.200 325.200 C 100.855 324.667,100.812 324.667,100.812 325.200 M125.600 326.884 C 125.600 327.316,126.815 330.000,127.011 330.000 C 127.121 330.000,126.933 329.334,126.593 328.521 C 125.993 327.086,125.600 326.438,125.600 326.884 M228.805 327.786 C 228.599 328.329,228.060 329.499,227.607 330.386 C 227.154 331.274,226.874 332.000,226.984 332.000 C 227.207 332.000,228.627 329.307,229.205 327.786 C 229.411 327.244,229.490 326.800,229.380 326.800 C 229.270 326.800,229.011 327.244,228.805 327.786 M101.612 328.000 C 101.612 328.330,101.787 328.870,102.000 329.200 C 102.345 329.733,102.388 329.733,102.388 329.200 C 102.388 328.870,102.213 328.330,102.000 328.000 C 101.655 327.467,101.612 327.467,101.612 328.000 M252.846 328.667 C 252.821 328.924,252.684 329.464,252.541 329.867 C 252.340 330.436,252.394 330.497,252.779 330.142 C 253.052 329.891,253.189 329.351,253.084 328.942 C 252.979 328.534,252.872 328.410,252.846 328.667 M127.215 330.600 C 127.217 330.820,127.586 331.450,128.036 332.000 C 128.579 332.664,128.715 332.731,128.440 332.200 C 127.766 330.895,127.212 330.172,127.215 330.600 M226.024 333.318 C 225.723 333.803,225.215 334.605,224.893 335.100 C 224.571 335.595,224.395 336.000,224.501 336.000 C 224.783 336.000,226.886 332.753,226.715 332.581 C 226.635 332.502,226.324 332.833,226.024 333.318 M128.800 333.320 C 128.800 333.704,130.845 336.800,131.099 336.800 C 131.278 336.800,130.641 335.719,129.339 333.811 C 129.042 333.377,128.800 333.156,128.800 333.320 M104.834 336.600 C 104.834 336.820,105.178 337.630,105.600 338.400 C 106.022 339.170,106.366 339.620,106.366 339.400 C 106.366 339.180,106.022 338.370,105.600 337.600 C 105.178 336.830,104.834 336.380,104.834 336.600 M131.940 338.316 C 132.433 339.009,133.044 339.704,133.297 339.860 C 133.550 340.017,133.354 339.577,132.860 338.884 C 132.367 338.191,131.756 337.496,131.503 337.340 C 131.250 337.183,131.446 337.623,131.940 338.316 M247.914 340.914 C 246.884 342.927,246.099 344.633,246.171 344.704 C 246.243 344.776,247.149 343.193,248.186 341.186 C 249.222 339.179,250.007 337.473,249.929 337.396 C 249.851 337.318,248.945 338.901,247.914 340.914 M220.618 341.000 C 219.584 342.210,218.887 343.190,219.069 343.178 C 219.403 343.155,222.983 338.800,222.667 338.800 C 222.574 338.800,221.651 339.790,220.618 341.000 M135.578 342.679 C 136.713 344.042,138.758 346.087,140.121 347.222 L 142.600 349.286 140.256 347.087 C 138.967 345.877,136.923 343.833,135.713 342.544 L 133.514 340.200 135.578 342.679 M107.639 342.500 C 108.508 344.175,110.913 348.000,111.096 348.000 C 111.197 348.000,110.872 347.325,110.374 346.500 C 109.877 345.675,109.034 344.235,108.501 343.300 C 107.500 341.544,106.811 340.905,107.639 342.500 M216.176 345.715 C 215.943 345.982,214.773 347.072,213.576 348.138 C 212.379 349.203,211.774 349.833,212.232 349.538 C 213.625 348.637,217.413 345.199,216.993 345.215 C 216.777 345.224,216.409 345.449,216.176 345.715 M244.206 347.500 C 242.311 350.393,239.745 353.867,238.447 355.300 C 237.899 355.905,237.619 356.394,237.825 356.388 C 238.031 356.381,238.829 355.526,239.597 354.488 C 240.366 353.449,241.101 352.510,241.230 352.400 C 241.799 351.915,246.136 345.200,245.880 345.200 C 245.788 345.200,245.035 346.235,244.206 347.500 M111.564 349.133 C 111.780 349.536,112.274 350.121,112.663 350.433 C 113.164 350.835,113.104 350.622,112.457 349.700 C 111.469 348.291,110.931 347.949,111.564 349.133 M142.940 349.503 C 143.096 349.756,143.791 350.367,144.484 350.860 C 145.177 351.354,145.617 351.550,145.460 351.297 C 145.304 351.044,144.609 350.433,143.916 349.940 C 143.223 349.446,142.783 349.250,142.940 349.503 M208.314 351.929 C 206.837 352.937,205.698 353.832,205.784 353.917 C 205.976 354.109,210.658 350.953,210.999 350.402 C 211.330 349.865,211.381 349.836,208.314 351.929 M114.096 352.595 C 114.593 353.362,115.144 353.992,115.320 353.995 C 115.497 353.998,115.160 353.370,114.573 352.600 C 113.200 350.800,112.932 350.797,114.096 352.595 M146.000 351.714 C 146.000 351.955,149.106 354.000,149.471 354.000 C 149.630 354.000,149.589 353.849,149.380 353.664 C 148.752 353.108,146.000 351.521,146.000 351.714 M150.000 354.179 C 150.000 354.289,150.540 354.659,151.200 355.000 C 151.860 355.341,152.400 355.531,152.400 355.421 C 152.400 355.311,151.860 354.941,151.200 354.600 C 150.540 354.259,150.000 354.069,150.000 354.179 M202.800 355.200 C 201.590 355.839,200.802 356.371,201.050 356.381 C 201.531 356.401,205.200 354.443,205.200 354.166 C 205.200 353.930,205.223 353.920,202.800 355.200 M116.722 355.900 C 117.377 356.725,118.328 357.760,118.836 358.200 C 119.344 358.640,118.879 357.965,117.803 356.700 C 115.613 354.124,114.890 353.589,116.722 355.900 M154.800 356.589 C 154.800 356.906,157.700 358.033,157.928 357.805 C 158.041 357.692,158.035 357.600,157.916 357.600 C 157.796 357.600,157.046 357.328,156.249 356.995 C 155.452 356.662,154.800 356.479,154.800 356.589 M197.832 357.417 C 196.530 357.958,195.180 358.414,194.832 358.432 C 194.393 358.454,194.358 358.527,194.718 358.671 C 195.232 358.877,199.453 357.383,200.180 356.738 C 200.732 356.247,200.461 356.326,197.832 357.417 M233.098 361.069 C 230.732 363.412,228.842 365.374,228.898 365.429 C 229.055 365.582,234.491 360.414,236.187 358.500 C 238.631 355.742,237.679 356.533,233.098 361.069 M158.400 358.146 C 158.400 358.373,162.236 359.604,162.875 359.582 C 163.164 359.573,162.707 359.318,161.859 359.016 C 159.893 358.315,158.400 357.939,158.400 358.146 M192.400 359.200 L 191.400 359.520 192.476 359.560 C 193.068 359.582,193.664 359.420,193.800 359.200 C 194.081 358.745,193.820 358.745,192.400 359.200 M164.200 359.981 C 164.968 360.329,167.110 360.556,166.767 360.253 C 166.675 360.172,165.880 359.996,165.000 359.862 C 163.885 359.693,163.642 359.729,164.200 359.981 M189.400 360.000 C 188.293 360.282,188.277 360.309,189.200 360.347 C 189.750 360.369,190.470 360.213,190.800 360.000 C 191.481 359.560,191.129 359.560,189.400 360.000 M168.000 360.808 C 168.992 361.118,173.487 361.333,173.167 361.055 C 173.075 360.976,171.650 360.817,170.000 360.703 C 168.307 360.586,167.436 360.631,168.000 360.808 M184.200 360.800 L 181.800 361.066 184.000 361.105 C 185.210 361.126,186.560 360.989,187.000 360.800 C 187.892 360.417,187.664 360.417,184.200 360.800 M175.500 361.495 C 176.655 361.576,178.545 361.576,179.700 361.495 C 180.855 361.414,179.910 361.348,177.600 361.348 C 175.290 361.348,174.345 361.414,175.500 361.495 M124.600 363.960 C 125.477 364.977,128.400 367.379,128.400 367.082 C 128.400 366.980,127.365 366.028,126.100 364.965 C 124.835 363.902,124.160 363.450,124.600 363.960 M227.102 366.591 C 226.499 367.123,225.690 367.734,225.306 367.949 C 224.921 368.164,224.713 368.447,224.844 368.577 C 224.974 368.708,225.873 368.098,226.840 367.224 C 227.808 366.349,228.510 365.631,228.400 365.629 C 228.290 365.627,227.706 366.060,227.102 366.591 M128.944 367.509 C 129.260 368.021,131.600 369.753,131.600 369.475 C 131.600 369.376,130.939 368.791,130.132 368.175 C 129.324 367.559,128.789 367.259,128.944 367.509 M221.643 370.594 C 218.764 372.606,218.144 373.146,219.573 372.401 C 221.420 371.438,224.916 368.778,224.300 368.804 C 224.245 368.807,223.050 369.612,221.643 370.594 M132.000 369.927 C 132.000 370.116,132.450 370.477,133.000 370.727 C 133.550 370.978,134.000 371.117,134.000 371.037 C 134.000 370.957,133.550 370.597,133.000 370.237 C 132.450 369.876,132.000 369.737,132.000 369.927 M134.400 371.375 C 134.400 371.634,137.994 373.888,140.759 375.362 C 141.946 375.996,142.811 376.342,142.681 376.131 C 142.551 375.921,141.580 375.314,140.522 374.782 C 139.465 374.250,137.655 373.221,136.500 372.495 C 135.345 371.769,134.400 371.265,134.400 371.375 M216.296 373.958 C 213.860 375.387,213.319 375.944,215.400 374.880 C 216.945 374.091,218.810 372.818,218.400 372.833 C 218.290 372.837,217.343 373.343,216.296 373.958 M143.254 376.587 C 143.590 376.923,146.400 378.016,146.400 377.811 C 146.400 377.701,145.748 377.338,144.951 377.005 C 143.475 376.389,142.918 376.251,143.254 376.587 M156.600 381.600 C 157.040 381.789,157.670 381.944,158.000 381.944 C 158.378 381.944,158.304 381.817,157.800 381.600 C 157.360 381.411,156.730 381.256,156.400 381.256 C 156.022 381.256,156.096 381.383,156.600 381.600 M197.400 381.600 C 196.896 381.817,196.822 381.944,197.200 381.944 C 197.530 381.944,198.160 381.789,198.600 381.600 C 199.104 381.383,199.178 381.256,198.800 381.256 C 198.470 381.256,197.840 381.411,197.400 381.600 M159.600 382.400 C 160.968 382.838,162.019 382.838,161.000 382.400 C 160.560 382.211,159.840 382.062,159.400 382.068 C 158.757 382.077,158.796 382.143,159.600 382.400 M194.200 382.400 L 193.400 382.744 194.200 382.766 C 194.640 382.778,195.270 382.613,195.600 382.400 C 196.395 381.886,195.396 381.886,194.200 382.400 M163.400 383.200 C 164.060 383.368,165.050 383.505,165.600 383.505 C 166.492 383.505,166.470 383.472,165.400 383.200 C 164.740 383.032,163.750 382.895,163.200 382.895 C 162.308 382.895,162.330 382.928,163.400 383.200 M189.800 383.200 C 188.722 383.474,188.702 383.506,189.600 383.513 C 190.150 383.517,191.050 383.376,191.600 383.200 C 192.944 382.769,191.492 382.769,189.800 383.200 M169.400 384.025 C 170.965 384.347,177.496 384.541,177.167 384.256 C 177.075 384.176,174.930 384.018,172.400 383.904 C 169.508 383.773,168.394 383.818,169.400 384.025 M181.400 384.000 L 178.600 384.259 181.400 384.306 C 182.940 384.332,184.920 384.205,185.800 384.023 L 187.400 383.692 185.800 383.717 C 184.920 383.730,182.940 383.858,181.400 384.000 " stroke="none" fill="#858484" fill-rule="evenodd"></path></g></svg>