<svg id="svg" version="1.1" xmlns="http://www.w3.org/2000/svg" xmlns:xlink="http://www.w3.org/1999/xlink" width="400" height="400" viewBox="0, 0, 400,400"><g id="svgg"><path id="path0" d="M225.630 0.288 C 224.679 0.664,222.400 3.132,222.400 3.787 C 222.400 4.124,222.220 4.400,222.000 4.400 C 221.763 4.400,221.600 5.859,221.600 7.976 C 221.600 9.943,221.780 11.664,222.000 11.800 C 222.220 11.936,222.400 12.577,222.400 13.224 C 222.400 13.871,222.580 14.400,222.800 14.400 C 223.020 14.400,223.200 15.019,223.200 15.776 C 223.200 16.533,223.380 17.264,223.600 17.400 C 223.820 17.536,224.000 18.177,224.000 18.824 C 224.000 19.471,224.180 20.000,224.400 20.000 C 224.620 20.000,224.808 20.585,224.818 21.300 C 224.827 22.015,225.095 23.320,225.412 24.200 C 225.729 25.080,225.991 26.194,225.994 26.676 C 225.997 27.158,226.180 27.664,226.400 27.800 C 226.620 27.936,226.800 28.487,226.800 29.024 C 226.800 29.561,226.980 30.000,227.200 30.000 C 227.420 30.000,227.600 30.225,227.600 30.500 C 227.601 31.275,229.416 33.200,230.147 33.200 C 230.506 33.200,230.800 33.380,230.800 33.600 C 230.800 33.820,231.239 34.000,231.776 34.000 C 232.313 34.000,232.864 34.180,233.000 34.400 C 233.323 34.922,237.200 34.922,237.200 34.400 C 237.200 34.180,237.588 34.000,238.062 34.000 C 239.127 34.000,241.600 32.169,241.600 31.380 C 241.600 31.061,241.780 30.800,242.000 30.800 C 242.220 30.800,242.400 30.440,242.400 30.000 C 242.400 29.560,242.580 29.200,242.800 29.200 C 243.035 29.200,243.200 27.800,243.200 25.800 C 243.200 23.800,243.035 22.400,242.800 22.400 C 242.580 22.400,242.400 21.680,242.400 20.800 C 242.400 19.920,242.243 19.200,242.052 19.200 C 241.860 19.200,241.581 18.255,241.432 17.100 C 241.154 14.940,240.568 12.727,239.951 11.505 C 239.758 11.123,239.600 10.369,239.600 9.829 C 239.600 9.289,239.420 8.736,239.200 8.600 C 238.980 8.464,238.800 7.823,238.800 7.176 C 238.800 6.529,238.620 6.000,238.400 6.000 C 238.180 6.000,238.000 5.460,238.000 4.800 C 238.000 4.140,237.849 3.600,237.664 3.600 C 237.480 3.600,237.121 3.145,236.868 2.589 C 236.614 2.033,236.090 1.458,235.703 1.311 C 235.317 1.165,234.762 0.810,234.471 0.522 C 233.935 -0.007,226.854 -0.195,225.630 0.288 M313.654 10.446 C 311.687 11.599,311.426 11.937,309.320 16.053 C 308.266 18.114,307.268 19.860,307.102 19.933 C 306.936 20.007,306.800 20.412,306.800 20.833 C 306.800 21.255,306.620 21.600,306.400 21.600 C 306.180 21.600,306.000 21.960,306.000 22.400 C 306.000 22.840,305.820 23.200,305.600 23.200 C 305.380 23.200,305.200 23.478,305.200 23.817 C 305.200 24.156,304.840 24.820,304.400 25.292 C 303.960 25.764,303.600 26.387,303.600 26.675 C 303.600 26.964,303.420 27.200,303.200 27.200 C 302.980 27.200,302.800 27.470,302.800 27.800 C 302.800 28.130,302.620 28.400,302.400 28.400 C 302.180 28.400,302.000 28.760,302.000 29.200 C 302.000 29.640,301.820 30.000,301.600 30.000 C 301.380 30.000,301.200 30.540,301.200 31.200 C 301.200 31.860,301.020 32.400,300.800 32.400 C 300.580 32.400,300.400 33.289,300.400 34.376 C 300.400 35.463,300.580 36.464,300.800 36.600 C 301.020 36.736,301.200 37.287,301.200 37.824 C 301.200 38.361,301.380 38.800,301.600 38.800 C 301.820 38.800,302.000 39.039,302.000 39.330 C 302.000 40.066,303.708 41.600,304.526 41.600 C 304.897 41.600,305.200 41.780,305.200 42.000 C 305.200 42.220,305.740 42.400,306.400 42.400 C 307.060 42.400,307.600 42.580,307.600 42.800 C 307.600 43.020,308.219 43.200,308.976 43.200 C 309.733 43.200,310.464 43.020,310.600 42.800 C 310.736 42.580,311.384 42.400,312.040 42.400 C 312.697 42.400,313.500 42.175,313.825 41.900 C 316.057 40.014,316.800 39.199,316.800 38.640 C 316.800 38.288,316.959 38.000,317.153 38.000 C 317.348 38.000,317.607 37.685,317.729 37.300 C 318.025 36.364,319.324 34.234,319.700 34.067 C 319.865 33.993,320.000 33.588,320.000 33.167 C 320.000 32.745,320.180 32.400,320.400 32.400 C 320.620 32.400,320.800 32.040,320.800 31.600 C 320.800 31.160,320.937 30.800,321.104 30.800 C 321.272 30.800,322.035 29.585,322.801 28.100 C 323.567 26.615,324.316 25.308,324.465 25.196 C 324.614 25.084,324.861 24.497,325.013 23.892 C 325.164 23.287,325.449 22.694,325.644 22.573 C 325.840 22.452,326.000 22.003,326.000 21.576 C 326.000 21.149,326.180 20.800,326.400 20.800 C 326.629 20.800,326.800 19.600,326.800 18.000 C 326.800 16.400,326.629 15.200,326.400 15.200 C 326.180 15.200,326.000 14.750,326.000 14.200 C 326.000 13.650,325.820 13.200,325.600 13.200 C 325.380 13.200,325.200 12.962,325.200 12.672 C 325.200 12.124,323.973 10.966,322.476 10.100 C 321.047 9.274,315.266 9.501,313.654 10.446 M252.000 46.000 C 252.000 46.222,250.933 46.400,249.600 46.400 C 248.267 46.400,247.200 46.578,247.200 46.800 C 247.200 47.020,246.390 47.200,245.400 47.200 C 244.410 47.200,243.600 47.380,243.600 47.600 C 243.600 47.820,242.981 48.000,242.224 48.000 C 241.467 48.000,240.736 48.180,240.600 48.400 C 240.464 48.620,239.823 48.800,239.176 48.800 C 238.529 48.800,238.000 48.980,238.000 49.200 C 238.000 49.420,237.561 49.600,237.024 49.600 C 236.487 49.600,235.936 49.780,235.800 50.000 C 235.664 50.220,235.203 50.400,234.776 50.400 C 234.349 50.400,234.000 50.580,234.000 50.800 C 234.000 51.020,233.561 51.200,233.024 51.200 C 232.487 51.200,231.936 51.380,231.800 51.600 C 231.664 51.820,231.203 52.000,230.776 52.000 C 230.349 52.000,230.000 52.180,230.000 52.400 C 230.000 52.620,229.640 52.800,229.200 52.800 C 228.760 52.800,228.400 52.936,228.400 53.102 C 228.400 53.269,227.815 53.664,227.100 53.980 C 226.385 54.297,225.451 54.880,225.025 55.278 C 224.598 55.675,224.013 56.000,223.725 56.000 C 223.436 56.000,223.200 56.180,223.200 56.400 C 223.200 56.620,222.880 56.800,222.488 56.800 C 222.097 56.800,221.517 57.160,221.200 57.600 C 220.883 58.040,220.394 58.400,220.113 58.400 C 218.631 58.400,206.000 69.422,206.000 70.714 C 206.000 70.911,205.235 71.891,204.300 72.891 C 202.059 75.288,200.416 77.324,200.407 77.717 C 200.403 77.891,200.040 78.420,199.600 78.892 C 199.160 79.364,198.800 79.987,198.800 80.275 C 198.800 80.564,198.620 80.800,198.400 80.800 C 198.180 80.800,198.000 81.078,198.000 81.417 C 198.000 81.756,197.640 82.420,197.200 82.892 C 196.760 83.364,196.400 83.987,196.400 84.275 C 196.400 84.564,196.220 84.800,196.000 84.800 C 195.780 84.800,195.600 85.160,195.600 85.600 C 195.600 86.040,195.420 86.400,195.200 86.400 C 194.980 86.400,194.800 86.636,194.800 86.925 C 194.800 87.214,194.440 88.195,194.000 89.106 C 193.560 90.016,193.200 91.040,193.200 91.381 C 193.200 91.721,193.036 92.000,192.835 92.000 C 192.634 92.000,192.349 92.719,192.200 93.598 C 192.052 94.477,191.766 95.297,191.565 95.422 C 191.364 95.546,191.200 96.166,191.200 96.800 C 191.200 97.434,191.020 98.064,190.800 98.200 C 190.580 98.336,190.400 99.067,190.400 99.824 C 190.400 100.581,190.220 101.200,190.000 101.200 C 189.780 101.200,189.600 101.999,189.600 102.976 C 189.600 103.953,189.420 104.864,189.200 105.000 C 188.980 105.136,188.800 106.126,188.800 107.200 C 188.800 108.274,188.620 109.264,188.400 109.400 C 188.180 109.536,188.000 110.279,188.000 111.052 C 188.000 112.884,187.228 113.600,185.252 113.600 C 184.369 113.600,183.536 113.780,183.400 114.000 C 183.264 114.220,182.623 114.400,181.976 114.400 C 181.329 114.400,180.800 114.580,180.800 114.800 C 180.800 115.020,180.181 115.200,179.424 115.200 C 178.667 115.200,177.936 115.380,177.800 115.600 C 177.664 115.820,177.113 116.000,176.576 116.000 C 176.039 116.000,175.600 116.180,175.600 116.400 C 175.600 116.620,175.060 116.800,174.400 116.800 C 173.740 116.800,173.200 116.947,173.200 117.128 C 173.200 117.308,172.300 117.700,171.200 118.000 C 170.100 118.300,169.200 118.692,169.200 118.872 C 169.200 119.053,168.840 119.200,168.400 119.200 C 167.960 119.200,167.600 119.380,167.600 119.600 C 167.600 119.820,167.060 120.000,166.400 120.000 C 165.740 120.000,165.200 120.180,165.200 120.400 C 165.200 120.620,164.840 120.800,164.400 120.800 C 163.960 120.800,163.600 120.980,163.600 121.200 C 163.600 121.420,163.240 121.600,162.800 121.600 C 162.360 121.600,162.000 121.746,162.000 121.925 C 162.000 122.104,161.370 122.498,160.600 122.800 C 159.830 123.102,159.200 123.479,159.200 123.637 C 159.200 123.795,158.120 124.423,156.800 125.032 C 155.480 125.642,154.400 126.289,154.400 126.470 C 154.400 126.652,154.040 126.800,153.600 126.800 C 153.160 126.800,152.800 126.950,152.800 127.132 C 152.800 127.315,152.305 127.719,151.700 128.030 C 151.095 128.340,150.309 128.911,149.953 129.297 C 149.597 129.684,149.078 130.000,148.800 130.000 C 148.522 130.000,148.003 130.324,147.647 130.719 C 147.291 131.114,146.370 131.872,145.600 132.404 C 144.830 132.935,143.723 133.871,143.140 134.485 C 142.556 135.098,141.975 135.600,141.849 135.600 C 141.103 135.600,128.037 149.298,127.034 151.131 C 126.833 151.499,126.543 151.890,126.390 152.000 C 126.237 152.110,125.790 152.830,125.397 153.600 C 125.003 154.370,124.348 155.291,123.941 155.647 C 123.533 156.003,123.200 156.588,123.200 156.947 C 123.200 157.306,123.020 157.600,122.800 157.600 C 122.580 157.600,122.400 157.788,122.400 158.017 C 122.400 158.246,122.040 158.820,121.600 159.292 C 121.160 159.764,120.800 160.387,120.800 160.675 C 120.800 161.261,118.972 161.403,118.627 160.844 C 118.506 160.649,117.821 160.388,117.104 160.266 C 116.387 160.144,114.900 159.845,113.800 159.601 C 112.700 159.357,110.810 159.002,109.600 158.813 C 106.759 158.367,86.075 158.363,83.200 158.808 C 81.990 158.995,80.141 159.273,79.091 159.427 C 78.041 159.581,77.085 159.862,76.967 160.053 C 76.849 160.244,76.133 160.400,75.376 160.400 C 74.619 160.400,74.000 160.580,74.000 160.800 C 74.000 161.020,73.460 161.200,72.800 161.200 C 72.140 161.200,71.600 161.380,71.600 161.600 C 71.600 161.820,71.060 162.000,70.400 162.000 C 69.740 162.000,69.200 162.180,69.200 162.400 C 69.200 162.620,68.761 162.800,68.224 162.800 C 67.687 162.800,67.136 162.980,67.000 163.200 C 66.864 163.420,66.403 163.600,65.976 163.600 C 65.549 163.600,65.200 163.780,65.200 164.000 C 65.200 164.220,64.840 164.400,64.400 164.400 C 63.960 164.400,63.600 164.580,63.600 164.800 C 63.600 165.020,63.165 165.200,62.633 165.200 C 62.102 165.200,61.607 165.335,61.533 165.500 C 61.460 165.665,60.545 166.233,59.500 166.763 C 58.455 167.292,57.600 167.877,57.600 168.063 C 57.600 168.248,57.240 168.400,56.800 168.400 C 56.360 168.400,56.000 168.580,56.000 168.800 C 56.000 169.020,55.680 169.200,55.288 169.200 C 54.897 169.200,54.317 169.560,54.000 170.000 C 53.683 170.440,53.143 170.800,52.800 170.800 C 52.457 170.800,51.917 171.160,51.600 171.600 C 51.283 172.040,50.820 172.400,50.571 172.400 C 50.322 172.400,49.554 172.940,48.863 173.600 C 48.172 174.260,47.402 174.800,47.150 174.800 C 46.568 174.800,34.800 186.654,34.800 187.241 C 34.800 187.482,34.260 188.183,33.600 188.800 C 32.940 189.417,32.400 190.169,32.400 190.472 C 32.400 190.775,32.040 191.283,31.600 191.600 C 31.160 191.917,30.800 192.407,30.800 192.688 C 30.800 192.970,30.650 193.200,30.468 193.200 C 30.285 193.200,29.880 193.695,29.568 194.300 C 29.256 194.905,28.911 195.490,28.801 195.600 C 28.037 196.361,24.800 202.986,24.800 203.787 C 24.800 204.124,24.620 204.400,24.400 204.400 C 24.180 204.400,24.000 204.940,24.000 205.600 C 24.000 206.260,23.820 206.800,23.600 206.800 C 23.380 206.800,23.200 207.160,23.200 207.600 C 23.200 208.040,23.020 208.400,22.800 208.400 C 22.580 208.400,22.400 208.850,22.400 209.400 C 22.400 209.950,22.220 210.400,22.000 210.400 C 21.780 210.400,21.600 210.940,21.600 211.600 C 21.600 212.260,21.420 212.800,21.200 212.800 C 20.980 212.800,20.800 213.419,20.800 214.176 C 20.800 214.933,20.620 215.664,20.400 215.800 C 20.180 215.936,20.000 216.757,20.000 217.624 C 20.000 218.491,19.820 219.200,19.600 219.200 C 19.380 219.200,19.200 220.100,19.200 221.200 C 19.200 222.300,19.020 223.200,18.800 223.200 C 18.569 223.200,18.400 224.459,18.400 226.176 C 18.400 227.813,18.220 229.264,18.000 229.400 C 17.463 229.732,17.463 243.068,18.000 243.400 C 18.220 243.536,18.400 244.976,18.400 246.600 C 18.400 248.224,18.580 249.664,18.800 249.800 C 19.020 249.936,19.200 250.937,19.200 252.024 C 19.200 253.111,19.380 254.000,19.600 254.000 C 19.820 254.000,20.000 254.720,20.000 255.600 C 20.000 256.480,20.180 257.200,20.400 257.200 C 20.620 257.200,20.800 257.740,20.800 258.400 C 20.800 259.060,20.980 259.600,21.200 259.600 C 21.420 259.600,21.600 260.140,21.600 260.800 C 21.600 261.460,21.780 262.000,22.000 262.000 C 22.220 262.000,22.400 262.540,22.400 263.200 C 22.400 263.860,22.580 264.400,22.800 264.400 C 23.020 264.400,23.200 264.850,23.200 265.400 C 23.200 265.950,23.380 266.400,23.600 266.400 C 23.820 266.400,24.000 266.850,24.000 267.400 C 24.000 267.950,24.180 268.400,24.400 268.400 C 24.620 268.400,24.800 268.665,24.800 268.989 C 24.800 269.818,26.732 273.880,28.074 275.872 C 28.693 276.792,29.200 277.737,29.200 277.972 C 29.200 278.207,29.380 278.400,29.600 278.400 C 29.820 278.400,30.000 278.625,30.000 278.900 C 30.001 279.175,30.451 279.923,31.000 280.562 C 31.550 281.201,32.000 281.868,32.000 282.044 C 32.000 282.220,32.450 282.814,33.000 283.364 C 33.550 283.914,34.000 284.531,34.000 284.735 C 34.000 284.940,35.125 286.280,36.500 287.714 C 37.875 289.147,39.540 290.964,40.200 291.751 C 40.860 292.539,41.545 293.187,41.722 293.191 C 41.899 293.196,43.104 294.280,44.400 295.600 C 45.696 296.920,46.919 298.000,47.119 298.000 C 47.318 298.000,48.006 298.495,48.648 299.100 C 49.289 299.705,50.306 300.455,50.907 300.768 C 51.508 301.080,52.000 301.463,52.000 301.619 C 52.000 301.775,52.540 302.127,53.200 302.400 C 53.860 302.673,54.400 303.055,54.400 303.249 C 54.400 303.442,54.760 303.600,55.200 303.600 C 55.640 303.600,56.000 303.758,56.000 303.951 C 56.000 304.145,56.540 304.527,57.200 304.800 C 57.860 305.073,58.400 305.455,58.400 305.649 C 58.400 305.842,58.745 306.000,59.167 306.000 C 59.588 306.000,59.993 306.142,60.067 306.316 C 60.298 306.863,64.776 308.800,65.811 308.800 C 66.355 308.800,66.800 308.980,66.800 309.200 C 66.800 309.420,67.160 309.600,67.600 309.600 C 68.040 309.600,68.400 309.780,68.400 310.000 C 68.400 310.220,68.940 310.400,69.600 310.400 C 70.260 310.400,70.800 310.580,70.800 310.800 C 70.800 311.020,71.340 311.200,72.000 311.200 C 72.660 311.200,73.200 311.380,73.200 311.600 C 73.200 311.820,73.819 312.000,74.576 312.000 C 75.333 312.000,76.064 312.180,76.200 312.400 C 76.336 312.620,77.067 312.800,77.824 312.800 C 78.581 312.800,79.200 312.980,79.200 313.200 C 79.200 313.420,80.089 313.600,81.176 313.600 C 82.263 313.600,83.264 313.780,83.400 314.000 C 83.537 314.221,85.337 314.400,87.424 314.400 C 89.675 314.400,91.200 314.562,91.200 314.800 C 91.200 315.354,232.657 315.354,233.000 314.800 C 233.136 314.580,233.597 314.400,234.024 314.400 C 234.451 314.400,234.800 314.220,234.800 314.000 C 234.800 313.780,235.078 313.600,235.418 313.600 C 236.202 313.600,238.000 311.825,238.000 311.052 C 238.000 310.730,238.152 310.407,238.338 310.333 C 238.795 310.153,239.239 307.200,238.808 307.200 C 238.620 307.200,238.266 306.264,238.020 305.121 C 237.506 302.722,236.111 300.701,234.279 299.700 C 233.079 299.043,228.524 298.986,160.600 298.767 C 83.217 298.517,87.414 298.627,79.794 296.651 C 50.601 289.079,32.483 262.277,35.143 230.600 C 36.016 220.203,41.160 204.829,45.225 200.465 C 45.651 200.008,46.000 199.522,46.000 199.385 C 46.000 199.030,50.390 193.729,52.454 191.593 C 58.409 185.429,68.803 179.150,76.400 177.128 C 77.170 176.923,78.430 176.582,79.200 176.372 C 89.740 173.486,101.867 173.345,111.600 175.995 C 113.250 176.444,115.099 176.922,115.708 177.057 C 116.318 177.193,116.914 177.460,117.032 177.652 C 117.150 177.843,117.529 178.000,117.872 178.000 C 121.285 178.000,133.936 186.292,140.419 192.778 C 146.413 198.774,154.000 210.029,154.000 212.923 C 154.000 213.103,154.539 214.364,155.199 215.725 C 159.625 224.864,172.226 220.262,169.400 210.539 C 165.248 196.258,152.716 180.565,137.500 170.594 C 134.774 168.808,134.813 169.024,136.700 166.112 C 140.785 159.808,149.934 149.590,154.363 146.386 C 155.113 145.844,155.939 145.191,156.199 144.936 C 157.490 143.667,165.893 138.459,169.600 136.629 C 175.429 133.753,179.227 132.260,184.400 130.811 C 185.390 130.534,186.650 130.167,187.200 129.996 C 191.222 128.746,203.215 127.200,208.887 127.200 C 216.553 127.200,227.030 129.041,235.600 131.893 C 237.910 132.662,241.121 133.901,242.736 134.646 C 244.350 135.391,245.723 136.000,245.787 136.000 C 246.224 136.000,253.240 140.119,256.200 142.114 C 274.303 154.315,287.171 173.132,291.954 194.400 C 293.013 199.108,293.213 200.411,293.303 203.200 C 293.398 206.134,293.378 206.202,292.400 206.309 C 284.598 207.163,272.092 213.052,269.809 216.948 C 265.510 224.284,273.196 230.433,281.708 226.466 C 300.368 217.769,315.818 219.163,327.986 230.642 C 330.210 232.740,335.200 239.333,335.200 240.173 C 335.200 240.291,335.740 241.502,336.400 242.865 C 337.060 244.227,337.600 245.659,337.600 246.047 C 337.600 246.435,337.759 246.851,337.954 246.971 C 338.149 247.092,338.406 247.687,338.525 248.295 C 338.645 248.903,339.025 250.750,339.371 252.400 C 342.020 265.052,338.140 278.929,329.542 287.549 C 321.928 295.184,313.454 298.274,298.800 298.761 C 291.004 299.020,290.528 299.082,289.131 300.011 C 286.076 302.042,283.767 308.760,285.491 310.600 C 285.903 311.040,286.361 311.715,286.508 312.100 C 286.655 312.485,287.011 312.800,287.299 312.800 C 287.587 312.800,288.083 313.160,288.400 313.600 C 288.739 314.070,289.435 314.400,290.088 314.400 C 290.700 314.400,291.200 314.580,291.200 314.800 C 291.200 315.342,305.865 315.342,306.200 314.800 C 306.336 314.580,307.697 314.400,309.224 314.400 C 310.808 314.400,312.000 314.228,312.000 314.000 C 312.000 313.780,312.900 313.600,314.000 313.600 C 315.100 313.600,316.000 313.420,316.000 313.200 C 316.000 312.980,316.540 312.800,317.200 312.800 C 317.860 312.800,318.400 312.620,318.400 312.400 C 318.400 312.180,318.852 312.000,319.405 312.000 C 319.958 312.000,320.768 311.820,321.205 311.600 C 321.642 311.380,322.358 311.020,322.795 310.800 C 323.232 310.580,323.862 310.400,324.195 310.400 C 324.528 310.400,324.800 310.220,324.800 310.000 C 324.800 309.780,325.070 309.600,325.400 309.600 C 325.730 309.600,326.000 309.436,326.000 309.235 C 326.000 309.034,326.720 308.749,327.600 308.600 C 328.480 308.451,329.200 308.187,329.200 308.013 C 329.200 307.839,329.740 307.473,330.400 307.200 C 331.060 306.927,331.600 306.545,331.600 306.351 C 331.600 306.158,331.836 306.000,332.125 306.000 C 332.413 306.000,333.036 305.640,333.508 305.200 C 333.980 304.760,334.530 304.400,334.730 304.400 C 335.051 304.400,336.199 303.384,341.100 298.759 C 341.815 298.084,342.400 297.369,342.400 297.168 C 342.400 296.968,343.300 295.885,344.400 294.761 C 345.500 293.638,346.400 292.507,346.400 292.248 C 346.400 291.989,346.760 291.517,347.200 291.200 C 347.640 290.883,348.000 290.393,348.000 290.112 C 348.000 289.830,348.180 289.600,348.400 289.600 C 348.620 289.600,348.800 289.364,348.800 289.075 C 348.800 288.787,349.160 288.164,349.600 287.692 C 350.040 287.220,350.400 286.556,350.400 286.217 C 350.400 285.878,350.580 285.600,350.800 285.600 C 351.020 285.600,351.200 285.240,351.200 284.800 C 351.200 284.360,351.380 284.000,351.600 284.000 C 351.820 284.000,352.000 283.640,352.000 283.200 C 352.000 282.760,352.180 282.400,352.400 282.400 C 352.620 282.400,352.800 281.860,352.800 281.200 C 352.800 280.540,352.980 280.000,353.200 280.000 C 353.420 280.000,353.600 279.728,353.600 279.395 C 353.600 279.062,353.758 278.477,353.951 278.095 C 354.520 276.967,355.200 274.604,355.200 273.752 C 355.200 273.316,355.362 272.789,355.559 272.580 C 356.489 271.596,357.271 252.311,356.416 251.456 C 356.187 251.227,356.000 250.187,356.000 249.144 C 356.000 248.101,355.820 247.136,355.600 247.000 C 355.380 246.864,355.200 246.144,355.200 245.400 C 355.200 244.656,355.056 243.958,354.879 243.849 C 354.703 243.740,354.307 242.728,354.000 241.600 C 353.693 240.472,353.297 239.460,353.121 239.351 C 352.944 239.242,352.800 238.713,352.800 238.176 C 352.800 237.639,352.620 237.200,352.400 237.200 C 352.180 237.200,352.000 236.840,352.000 236.400 C 352.000 235.960,351.820 235.600,351.600 235.600 C 351.380 235.600,351.200 235.240,351.200 234.800 C 351.200 234.360,351.020 234.000,350.800 234.000 C 350.580 234.000,350.400 233.640,350.400 233.200 C 350.400 232.760,350.220 232.400,350.000 232.400 C 349.780 232.400,349.600 232.164,349.600 231.875 C 349.600 231.587,349.285 231.002,348.900 230.575 C 348.515 230.149,347.945 229.305,347.632 228.700 C 347.320 228.095,346.915 227.600,346.732 227.600 C 346.550 227.600,346.400 227.406,346.400 227.169 C 346.400 226.931,345.719 226.076,344.887 225.269 C 344.055 224.461,342.934 223.170,342.396 222.400 C 341.339 220.888,339.769 219.200,339.420 219.200 C 339.301 219.200,338.285 218.300,337.161 217.200 C 336.038 216.100,334.907 215.200,334.648 215.200 C 334.389 215.200,333.917 214.840,333.600 214.400 C 333.283 213.960,332.786 213.600,332.495 213.600 C 332.204 213.600,331.580 213.240,331.108 212.800 C 330.636 212.360,330.013 212.000,329.725 212.000 C 329.436 212.000,329.200 211.820,329.200 211.600 C 329.200 211.380,328.840 211.200,328.400 211.200 C 327.960 211.200,327.600 211.020,327.600 210.800 C 327.600 210.580,327.240 210.400,326.800 210.400 C 326.360 210.400,326.000 210.262,326.000 210.094 C 326.000 209.635,322.937 208.400,321.797 208.400 C 321.249 208.400,320.800 208.220,320.800 208.000 C 320.800 207.780,320.361 207.600,319.824 207.600 C 319.287 207.600,318.736 207.420,318.600 207.200 C 318.464 206.980,317.823 206.800,317.176 206.800 C 316.529 206.800,316.000 206.620,316.000 206.400 C 316.000 206.180,315.100 206.000,314.000 206.000 C 312.900 206.000,312.000 205.820,312.000 205.600 C 312.000 205.380,311.460 205.200,310.800 205.200 L 309.600 205.200 309.600 202.424 C 309.600 200.897,309.447 199.553,309.261 199.438 C 309.074 199.322,308.804 197.568,308.660 195.540 C 308.516 193.511,308.231 191.300,308.026 190.626 C 307.822 189.952,307.448 188.590,307.196 187.600 C 306.943 186.610,306.366 184.602,305.913 183.137 L 305.090 180.474 306.127 179.437 C 306.697 178.867,307.276 178.400,307.413 178.400 C 307.550 178.400,308.354 177.680,309.200 176.800 C 310.046 175.920,310.918 175.200,311.138 175.200 C 311.827 175.200,320.800 165.834,320.800 165.115 C 320.800 164.922,321.236 164.328,321.769 163.795 C 322.302 163.262,322.854 162.460,322.996 162.013 C 323.138 161.566,323.404 161.200,323.587 161.200 C 323.771 161.200,324.254 160.391,324.660 159.401 C 325.067 158.412,325.535 157.602,325.700 157.601 C 325.865 157.601,326.000 157.330,326.000 157.000 C 326.000 156.670,326.180 156.400,326.400 156.400 C 326.620 156.400,326.800 156.130,326.800 155.800 C 326.800 155.470,326.980 155.200,327.200 155.200 C 327.420 155.200,327.600 154.840,327.600 154.400 C 327.600 153.960,327.780 153.600,328.000 153.600 C 328.220 153.600,328.400 153.240,328.400 152.800 C 328.400 152.360,328.580 152.000,328.800 152.000 C 329.020 152.000,329.200 151.640,329.200 151.200 C 329.200 150.760,329.380 150.400,329.600 150.400 C 329.820 150.400,330.000 149.860,330.000 149.200 C 330.000 148.540,330.180 148.000,330.400 148.000 C 330.620 148.000,330.800 147.640,330.800 147.200 C 330.800 146.760,330.980 146.400,331.200 146.400 C 331.420 146.400,331.600 145.860,331.600 145.200 C 331.600 144.540,331.780 144.000,332.000 144.000 C 332.220 144.000,332.400 143.460,332.400 142.800 C 332.400 142.140,332.580 141.600,332.800 141.600 C 333.020 141.600,333.200 141.071,333.200 140.424 C 333.200 139.777,333.380 139.136,333.600 139.000 C 333.820 138.864,334.000 138.043,334.000 137.176 C 334.000 136.309,334.180 135.600,334.400 135.600 C 334.620 135.600,334.800 134.700,334.800 133.600 C 334.800 132.500,334.980 131.600,335.200 131.600 C 335.437 131.600,335.600 130.133,335.600 128.000 C 335.600 125.867,335.763 124.400,336.000 124.400 C 336.243 124.400,336.400 122.608,336.400 119.824 C 336.400 117.204,336.229 115.142,336.000 115.000 C 335.780 114.864,335.600 113.143,335.600 111.176 C 335.600 109.059,335.437 107.600,335.200 107.600 C 334.980 107.600,334.800 106.700,334.800 105.600 C 334.800 104.500,334.620 103.600,334.400 103.600 C 334.180 103.600,334.000 102.880,334.000 102.000 C 334.000 101.120,333.820 100.400,333.600 100.400 C 333.380 100.400,333.200 99.781,333.200 99.024 C 333.200 98.267,333.020 97.536,332.800 97.400 C 332.580 97.264,332.400 96.724,332.400 96.200 C 332.400 95.676,332.220 95.136,332.000 95.000 C 331.780 94.864,331.600 94.313,331.600 93.776 C 331.600 93.239,331.420 92.800,331.200 92.800 C 330.980 92.800,330.800 92.440,330.800 92.000 C 330.800 91.560,330.620 91.200,330.400 91.200 C 330.180 91.200,330.000 90.840,330.000 90.400 C 330.000 89.960,329.820 89.600,329.600 89.600 C 329.380 89.600,329.200 89.060,329.200 88.400 C 329.200 87.740,329.020 87.200,328.800 87.200 C 328.580 87.200,328.400 86.840,328.400 86.400 C 328.400 85.960,328.220 85.600,328.000 85.600 C 327.780 85.600,327.600 85.364,327.600 85.075 C 327.600 84.787,327.240 84.164,326.800 83.692 C 326.360 83.220,326.000 82.556,326.000 82.217 C 326.000 81.878,325.820 81.600,325.600 81.600 C 325.380 81.600,325.200 81.329,325.200 80.998 C 325.200 80.326,321.935 75.504,320.516 74.082 C 320.012 73.577,319.600 72.994,319.600 72.786 C 319.600 72.023,306.603 59.600,305.805 59.600 C 305.663 59.600,304.957 59.150,304.236 58.600 C 303.514 58.050,302.716 57.600,302.462 57.600 C 302.208 57.600,302.000 57.420,302.000 57.200 C 302.000 56.980,301.730 56.800,301.400 56.800 C 301.070 56.800,300.800 56.620,300.800 56.400 C 300.800 56.180,300.530 56.000,300.200 56.000 C 299.870 56.000,299.600 55.820,299.600 55.600 C 299.600 55.380,299.240 55.200,298.800 55.200 C 298.360 55.200,298.000 55.020,298.000 54.800 C 298.000 54.580,297.640 54.400,297.200 54.400 C 296.760 54.400,296.400 54.220,296.400 54.000 C 296.400 53.780,296.040 53.600,295.600 53.600 C 295.160 53.600,294.800 53.420,294.800 53.200 C 294.800 52.980,294.440 52.800,294.000 52.800 C 293.560 52.800,293.200 52.620,293.200 52.400 C 293.200 52.180,292.840 52.000,292.400 52.000 C 291.960 52.000,291.600 51.820,291.600 51.600 C 291.600 51.380,291.251 51.200,290.824 51.200 C 290.397 51.200,289.936 51.020,289.800 50.800 C 289.664 50.580,289.203 50.400,288.776 50.400 C 288.349 50.400,288.000 50.220,288.000 50.000 C 288.000 49.780,287.460 49.600,286.800 49.600 C 286.140 49.600,285.600 49.420,285.600 49.200 C 285.600 48.980,285.060 48.800,284.400 48.800 C 283.740 48.800,283.200 48.620,283.200 48.400 C 283.200 48.180,282.480 48.000,281.600 48.000 C 280.720 48.000,280.000 47.820,280.000 47.600 C 280.000 47.380,279.291 47.200,278.424 47.200 C 277.557 47.200,276.736 47.020,276.600 46.800 C 276.464 46.580,275.294 46.400,274.000 46.400 C 272.706 46.400,271.536 46.220,271.400 46.000 C 271.246 45.751,267.529 45.600,261.576 45.600 C 255.459 45.600,252.000 45.744,252.000 46.000 M156.000 55.502 C 156.000 55.669,155.460 56.044,154.800 56.336 C 154.140 56.628,153.600 57.088,153.600 57.358 C 153.600 57.628,153.240 58.236,152.800 58.708 C 152.360 59.180,152.000 60.013,152.000 60.560 C 152.000 61.106,151.820 61.664,151.600 61.800 C 151.380 61.936,151.200 62.577,151.200 63.224 C 151.200 63.871,151.380 64.400,151.600 64.400 C 151.820 64.400,152.000 65.053,152.000 65.852 C 152.000 67.372,155.704 71.600,157.036 71.600 C 157.346 71.600,157.600 71.780,157.600 72.000 C 157.600 72.220,157.960 72.400,158.400 72.400 C 158.840 72.400,159.200 72.546,159.200 72.725 C 159.200 72.904,159.839 73.301,160.619 73.608 C 161.400 73.914,162.232 74.397,162.468 74.682 C 162.705 74.967,163.236 75.200,163.649 75.200 C 164.062 75.200,164.400 75.380,164.400 75.600 C 164.400 75.820,164.760 76.000,165.200 76.000 C 165.640 76.000,166.000 76.180,166.000 76.400 C 166.000 76.620,166.360 76.800,166.800 76.800 C 167.240 76.800,167.600 76.980,167.600 77.200 C 167.600 77.420,167.836 77.600,168.125 77.600 C 168.413 77.600,169.036 77.960,169.508 78.400 C 169.980 78.840,170.644 79.200,170.983 79.200 C 171.322 79.200,171.600 79.380,171.600 79.600 C 171.600 79.820,171.960 80.000,172.400 80.000 C 172.840 80.000,173.200 80.180,173.200 80.400 C 173.200 80.635,174.600 80.800,176.600 80.800 C 178.600 80.800,180.000 80.635,180.000 80.400 C 180.000 80.180,180.276 80.000,180.613 80.000 C 181.950 80.000,184.800 76.328,184.800 74.605 C 184.800 74.052,184.980 73.600,185.200 73.600 C 185.420 73.600,185.600 73.071,185.600 72.424 C 185.600 71.777,185.420 71.136,185.200 71.000 C 184.980 70.864,184.800 70.223,184.800 69.576 C 184.800 68.929,184.620 68.400,184.400 68.400 C 184.180 68.400,184.000 68.122,184.000 67.782 C 184.000 67.077,182.257 65.200,181.601 65.200 C 181.362 65.200,180.780 64.840,180.308 64.400 C 179.836 63.960,179.213 63.600,178.925 63.600 C 178.636 63.600,178.400 63.420,178.400 63.200 C 178.400 62.980,178.040 62.800,177.600 62.800 C 177.160 62.800,176.800 62.620,176.800 62.400 C 176.800 62.180,176.440 62.000,176.000 62.000 C 175.560 62.000,175.200 61.820,175.200 61.600 C 175.200 61.380,175.042 61.200,174.848 61.200 C 174.655 61.200,173.451 60.570,172.172 59.800 C 170.893 59.030,169.521 58.400,169.124 58.400 C 168.726 58.400,168.400 58.220,168.400 58.000 C 168.400 57.780,168.122 57.600,167.783 57.600 C 167.444 57.600,166.780 57.240,166.308 56.800 C 165.836 56.360,165.213 56.000,164.925 56.000 C 164.636 56.000,164.400 55.820,164.400 55.600 C 164.400 55.359,162.733 55.200,160.200 55.200 C 157.890 55.200,156.000 55.336,156.000 55.502 M268.800 62.200 C 291.602 65.420,309.786 80.157,316.747 101.061 C 317.862 104.408,318.173 105.645,319.179 110.731 C 319.720 113.465,319.727 126.268,319.189 128.723 C 318.962 129.755,318.583 131.500,318.345 132.600 C 316.024 143.340,310.323 153.313,301.779 161.579 C 297.561 165.659,297.502 165.677,296.143 163.257 C 288.119 148.972,273.314 133.995,259.154 125.839 C 257.341 124.794,248.814 120.557,247.400 119.998 C 246.960 119.824,245.931 119.388,245.114 119.029 C 236.092 115.065,222.464 112.514,207.000 111.896 L 204.600 111.800 204.724 110.400 C 206.127 94.584,220.766 74.854,236.400 67.709 C 241.323 65.459,241.806 65.256,243.600 64.687 C 252.697 61.799,260.507 61.029,268.800 62.200 M370.000 79.600 C 370.000 79.820,369.471 80.000,368.824 80.000 C 368.177 80.000,367.536 80.180,367.400 80.400 C 367.264 80.620,366.533 80.800,365.776 80.800 C 365.019 80.800,364.400 80.980,364.400 81.200 C 364.400 81.420,363.860 81.600,363.200 81.600 C 362.540 81.600,362.000 81.780,362.000 82.000 C 362.000 82.220,361.370 82.400,360.600 82.400 C 359.830 82.400,359.200 82.580,359.200 82.800 C 359.200 83.020,358.671 83.200,358.024 83.200 C 357.377 83.200,356.736 83.380,356.600 83.600 C 356.464 83.820,355.733 84.000,354.976 84.000 C 354.219 84.000,353.600 84.180,353.600 84.400 C 353.600 84.620,353.141 84.800,352.581 84.800 C 351.421 84.800,348.000 87.903,348.000 88.956 C 348.000 89.310,347.820 89.600,347.600 89.600 C 347.365 89.600,347.200 91.000,347.200 93.000 C 347.200 95.000,347.365 96.400,347.600 96.400 C 347.820 96.400,348.000 96.676,348.000 97.013 C 348.000 97.809,350.591 100.400,351.387 100.400 C 351.724 100.400,352.000 100.580,352.000 100.800 C 352.000 101.039,353.533 101.200,355.800 101.200 C 358.067 101.200,359.600 101.039,359.600 100.800 C 359.600 100.580,360.140 100.400,360.800 100.400 C 361.460 100.400,362.000 100.220,362.000 100.000 C 362.000 99.780,362.720 99.600,363.600 99.600 C 364.480 99.600,365.200 99.420,365.200 99.200 C 365.200 98.980,365.740 98.800,366.400 98.800 C 367.060 98.800,367.600 98.620,367.600 98.400 C 367.600 98.180,368.219 98.000,368.976 98.000 C 369.733 98.000,370.464 97.820,370.600 97.600 C 370.736 97.380,371.377 97.200,372.024 97.200 C 372.671 97.200,373.200 97.020,373.200 96.800 C 373.200 96.580,373.830 96.400,374.600 96.400 C 375.370 96.400,376.000 96.220,376.000 96.000 C 376.000 95.780,376.421 95.600,376.936 95.600 C 378.129 95.600,381.600 92.372,381.600 91.263 C 381.600 90.814,381.780 90.336,382.000 90.200 C 382.220 90.064,382.400 88.793,382.400 87.376 C 382.400 85.925,382.225 84.800,382.000 84.800 C 381.780 84.800,381.600 84.440,381.600 84.000 C 381.600 83.560,381.464 83.200,381.298 83.200 C 381.131 83.200,380.756 82.660,380.464 82.000 C 380.141 81.269,379.633 80.800,379.166 80.800 C 378.745 80.800,378.399 80.665,378.397 80.500 C 378.395 80.335,377.909 79.975,377.317 79.700 C 376.030 79.102,370.000 79.020,370.000 79.600 M343.664 158.986 C 342.017 159.733,339.600 162.095,339.600 162.960 C 339.600 163.312,339.420 163.600,339.200 163.600 C 338.620 163.600,338.702 169.630,339.300 170.917 C 339.575 171.509,339.935 171.995,340.100 171.997 C 340.265 171.999,340.400 172.193,340.400 172.429 C 340.400 173.234,343.086 175.200,344.186 175.200 C 344.524 175.200,344.800 175.380,344.800 175.600 C 344.800 175.820,345.078 176.000,345.417 176.000 C 345.756 176.000,346.420 176.360,346.892 176.800 C 347.364 177.240,347.987 177.600,348.275 177.600 C 348.564 177.600,348.800 177.780,348.800 178.000 C 348.800 178.220,349.160 178.400,349.600 178.400 C 350.040 178.400,350.400 178.580,350.400 178.800 C 350.400 179.020,350.760 179.200,351.200 179.200 C 351.640 179.200,352.000 179.380,352.000 179.600 C 352.000 179.820,352.320 180.000,352.712 180.000 C 353.103 180.000,353.683 180.360,354.000 180.800 C 354.317 181.240,354.897 181.600,355.288 181.600 C 355.680 181.600,356.000 181.780,356.000 182.000 C 356.000 182.220,356.345 182.400,356.767 182.400 C 357.188 182.400,357.593 182.535,357.667 182.700 C 358.337 184.207,365.837 185.635,366.600 184.400 C 366.736 184.180,367.111 184.000,367.434 184.000 C 369.343 184.000,372.400 179.199,372.400 176.200 C 372.400 173.182,369.341 168.400,367.411 168.400 C 367.075 168.400,366.800 168.220,366.800 168.000 C 366.800 167.780,366.564 167.600,366.275 167.600 C 365.987 167.600,365.364 167.240,364.892 166.800 C 364.420 166.360,363.756 166.000,363.417 166.000 C 363.078 166.000,362.800 165.820,362.800 165.600 C 362.800 165.380,362.440 165.200,362.000 165.200 C 361.560 165.200,361.200 165.020,361.200 164.800 C 361.200 164.580,360.840 164.400,360.400 164.400 C 359.960 164.400,359.600 164.220,359.600 164.000 C 359.600 163.780,359.403 163.600,359.162 163.600 C 358.921 163.600,358.198 163.226,357.556 162.768 C 352.480 159.155,346.742 157.592,343.664 158.986 M259.800 299.093 C 255.749 300.107,251.959 308.083,254.320 310.625 C 254.716 311.051,255.161 311.715,255.308 312.100 C 255.455 312.485,255.811 312.800,256.099 312.800 C 256.387 312.800,256.883 313.160,257.200 313.600 C 257.517 314.040,258.176 314.400,258.665 314.400 C 259.153 314.400,259.664 314.580,259.800 314.800 C 259.936 315.020,260.926 315.200,262.000 315.200 C 263.074 315.200,264.064 315.020,264.200 314.800 C 264.336 314.580,264.797 314.400,265.224 314.400 C 265.651 314.400,266.000 314.220,266.000 314.000 C 266.000 313.780,266.278 313.600,266.618 313.600 C 267.418 313.600,269.200 311.818,269.200 311.018 C 269.200 310.678,269.380 310.400,269.600 310.400 C 269.820 310.400,270.000 309.860,270.000 309.200 C 270.000 308.540,270.208 308.000,270.462 308.000 C 270.758 308.000,270.708 307.749,270.323 307.300 C 269.992 306.915,269.484 305.721,269.194 304.646 C 268.076 300.510,263.930 298.059,259.800 299.093 M100.400 337.600 C 100.400 337.820,100.122 338.000,99.782 338.000 C 99.077 338.000,97.200 339.743,97.200 340.399 C 97.200 340.638,96.876 341.181,96.479 341.607 C 96.083 342.032,95.388 343.060,94.934 343.890 C 94.480 344.721,93.454 346.542,92.654 347.938 C 91.854 349.335,91.200 350.640,91.200 350.838 C 91.200 351.037,91.020 351.200,90.800 351.200 C 90.580 351.200,90.400 351.520,90.400 351.912 C 90.400 352.303,90.040 352.883,89.600 353.200 C 89.160 353.517,88.800 354.097,88.800 354.488 C 88.800 354.880,88.620 355.200,88.400 355.200 C 88.180 355.200,88.000 355.520,88.000 355.912 C 88.000 356.303,87.640 356.883,87.200 357.200 C 86.760 357.517,86.400 358.097,86.400 358.488 C 86.400 358.880,86.220 359.200,86.000 359.200 C 85.780 359.200,85.600 359.470,85.600 359.800 C 85.600 360.130,85.420 360.400,85.200 360.400 C 84.980 360.400,84.800 360.670,84.800 361.000 C 84.800 361.330,84.620 361.600,84.400 361.600 C 84.180 361.600,84.000 361.870,84.000 362.200 C 84.000 362.530,83.820 362.800,83.600 362.800 C 83.380 362.800,83.200 363.160,83.200 363.600 C 83.200 364.040,83.020 364.400,82.800 364.400 C 82.580 364.400,82.400 364.760,82.400 365.200 C 82.400 365.640,82.220 366.000,82.000 366.000 C 81.780 366.000,81.600 366.439,81.600 366.976 C 81.600 367.513,81.420 368.064,81.200 368.200 C 80.980 368.336,80.800 368.977,80.800 369.624 C 80.800 370.271,80.620 370.800,80.400 370.800 C 80.153 370.800,80.000 372.867,80.000 376.200 C 80.000 379.533,80.153 381.600,80.400 381.600 C 80.620 381.600,80.800 382.219,80.800 382.976 C 80.800 383.733,80.980 384.464,81.200 384.600 C 81.420 384.736,81.600 385.197,81.600 385.624 C 81.600 386.051,81.780 386.400,82.000 386.400 C 82.220 386.400,82.400 386.760,82.400 387.200 C 82.400 387.640,82.580 388.000,82.800 388.000 C 83.020 388.000,83.200 388.360,83.200 388.800 C 83.200 389.240,83.380 389.600,83.600 389.600 C 83.820 389.600,84.000 389.783,84.000 390.006 C 84.000 390.604,89.897 396.400,90.505 396.400 C 90.790 396.400,91.283 396.760,91.600 397.200 C 91.917 397.640,92.497 398.000,92.888 398.000 C 93.280 398.000,93.600 398.180,93.600 398.400 C 93.600 398.620,94.035 398.800,94.567 398.800 C 95.098 398.800,95.608 399.025,95.700 399.300 C 95.827 399.680,97.969 399.800,104.600 399.800 C 111.231 399.800,113.373 399.680,113.500 399.300 C 113.592 399.025,114.012 398.800,114.433 398.800 C 114.855 398.800,115.200 398.620,115.200 398.400 C 115.200 398.180,115.560 398.000,116.000 398.000 C 116.440 398.000,116.800 397.820,116.800 397.600 C 116.800 397.380,117.067 397.200,117.393 397.200 C 118.636 397.200,125.200 390.636,125.200 389.393 C 125.200 389.067,125.380 388.800,125.600 388.800 C 125.820 388.800,126.000 388.440,126.000 388.000 C 126.000 387.560,126.180 387.200,126.400 387.200 C 126.620 387.200,126.800 386.840,126.800 386.400 C 126.800 385.960,126.980 385.600,127.200 385.600 C 127.420 385.600,127.600 385.060,127.600 384.400 C 127.600 383.740,127.780 383.200,128.000 383.200 C 128.222 383.200,128.400 382.133,128.400 380.800 C 128.400 379.467,128.578 378.400,128.800 378.400 C 129.020 378.400,129.200 377.410,129.200 376.200 C 129.200 374.990,129.020 374.000,128.800 374.000 C 128.578 374.000,128.400 372.933,128.400 371.600 C 128.400 370.267,128.222 369.200,128.000 369.200 C 127.780 369.200,127.600 368.660,127.600 368.000 C 127.600 367.340,127.420 366.800,127.200 366.800 C 126.980 366.800,126.800 366.440,126.800 366.000 C 126.800 365.560,126.620 365.200,126.400 365.200 C 126.180 365.200,126.000 364.855,126.000 364.433 C 126.000 364.012,125.865 363.607,125.700 363.533 C 125.535 363.460,125.044 362.680,124.608 361.800 C 123.677 359.919,122.325 357.856,121.900 357.667 C 121.735 357.593,121.600 357.188,121.600 356.767 C 121.600 356.345,121.420 356.000,121.200 356.000 C 120.980 356.000,120.800 355.764,120.800 355.475 C 120.800 355.187,120.440 354.564,120.000 354.092 C 119.560 353.620,119.200 352.956,119.200 352.617 C 119.200 352.278,119.020 352.000,118.800 352.000 C 118.580 352.000,118.400 351.764,118.400 351.475 C 118.400 351.187,118.040 350.564,117.600 350.092 C 117.160 349.620,116.800 348.956,116.800 348.617 C 116.800 348.278,116.620 348.000,116.400 348.000 C 116.180 348.000,116.000 347.764,116.000 347.475 C 116.000 347.187,115.640 346.564,115.200 346.092 C 114.760 345.620,114.400 344.956,114.400 344.617 C 114.400 344.278,114.220 344.000,114.000 344.000 C 113.780 344.000,113.600 343.770,113.600 343.488 C 113.600 343.207,113.240 342.717,112.800 342.400 C 112.360 342.083,112.000 341.587,112.000 341.298 C 112.000 340.679,109.412 338.000,108.813 338.000 C 108.586 338.000,108.400 337.820,108.400 337.600 C 108.400 337.360,106.800 337.200,104.400 337.200 C 102.000 337.200,100.400 337.360,100.400 337.600 M194.112 339.100 C 193.044 340.145,191.916 341.630,191.607 342.400 C 191.297 343.170,190.719 344.091,190.322 344.447 C 189.925 344.803,189.600 345.388,189.600 345.747 C 189.600 346.106,189.420 346.400,189.200 346.400 C 188.980 346.400,188.800 346.636,188.800 346.925 C 188.800 347.213,188.440 347.836,188.000 348.308 C 187.560 348.780,187.200 349.444,187.200 349.783 C 187.200 350.122,187.020 350.400,186.800 350.400 C 186.580 350.400,186.400 350.636,186.400 350.925 C 186.400 351.213,186.040 351.836,185.600 352.308 C 185.160 352.780,184.800 353.444,184.800 353.783 C 184.800 354.122,184.620 354.400,184.400 354.400 C 184.180 354.400,184.000 354.636,184.000 354.925 C 184.000 355.213,183.640 355.836,183.200 356.308 C 182.760 356.780,182.400 357.444,182.400 357.783 C 182.400 358.122,182.220 358.400,182.000 358.400 C 181.780 358.400,181.600 358.588,181.600 358.817 C 181.600 359.046,181.240 359.620,180.800 360.092 C 180.360 360.564,180.000 361.187,180.000 361.475 C 180.000 361.764,179.820 362.000,179.600 362.000 C 179.380 362.000,179.200 362.345,179.200 362.767 C 179.200 363.188,179.065 363.593,178.900 363.667 C 178.735 363.740,178.212 364.610,177.737 365.600 C 173.163 375.142,175.110 386.331,182.658 393.879 C 183.605 394.826,184.530 395.600,184.714 395.600 C 184.898 395.600,185.398 395.915,185.825 396.300 C 186.798 397.178,189.899 398.800,190.604 398.800 C 190.895 398.800,191.208 399.025,191.300 399.300 C 191.426 399.679,193.529 399.800,200.000 399.800 C 206.471 399.800,208.574 399.679,208.700 399.300 C 208.792 399.025,209.201 398.800,209.610 398.800 C 210.018 398.800,210.464 398.620,210.600 398.400 C 210.736 398.180,211.163 398.000,211.548 398.000 C 211.934 398.000,212.636 397.640,213.108 397.200 C 213.580 396.760,214.154 396.400,214.383 396.400 C 214.612 396.400,214.800 396.220,214.800 396.000 C 214.800 395.780,214.985 395.600,215.211 395.600 C 217.468 395.600,224.000 385.160,224.000 381.553 C 224.000 381.007,224.193 380.367,224.430 380.130 C 225.189 379.371,224.491 371.156,223.417 368.200 C 222.852 366.648,221.396 363.798,221.100 363.667 C 220.935 363.593,220.800 363.188,220.800 362.767 C 220.800 362.345,220.620 362.000,220.400 362.000 C 220.180 362.000,220.000 361.764,220.000 361.475 C 220.000 361.187,219.640 360.564,219.200 360.092 C 218.760 359.620,218.400 359.046,218.400 358.817 C 218.400 358.588,218.220 358.400,218.000 358.400 C 217.780 358.400,217.600 358.122,217.600 357.783 C 217.600 357.444,217.240 356.780,216.800 356.308 C 216.360 355.836,216.000 355.213,216.000 354.925 C 216.000 354.636,215.820 354.400,215.600 354.400 C 215.380 354.400,215.200 354.122,215.200 353.783 C 215.200 353.444,214.840 352.780,214.400 352.308 C 213.960 351.836,213.600 351.213,213.600 350.925 C 213.600 350.636,213.420 350.400,213.200 350.400 C 212.980 350.400,212.800 350.122,212.800 349.783 C 212.800 349.444,212.440 348.780,212.000 348.308 C 211.560 347.836,211.200 347.213,211.200 346.925 C 211.200 346.636,211.020 346.400,210.800 346.400 C 210.580 346.400,210.400 346.080,210.400 345.688 C 210.400 345.297,210.047 344.722,209.615 344.411 C 209.183 344.099,208.716 343.326,208.576 342.693 C 208.437 342.059,207.347 340.564,206.153 339.370 L 203.983 337.200 200.018 337.200 L 196.053 337.200 194.112 339.100 M292.000 337.600 C 292.000 337.820,291.724 338.000,291.387 338.000 C 290.638 338.000,288.000 340.569,288.000 341.298 C 288.000 341.587,287.640 342.083,287.200 342.400 C 286.760 342.717,286.400 343.207,286.400 343.488 C 286.400 343.770,286.220 344.000,286.000 344.000 C 285.780 344.000,285.600 344.278,285.600 344.617 C 285.600 344.956,285.240 345.620,284.800 346.092 C 284.360 346.564,284.000 347.187,284.000 347.475 C 284.000 347.764,283.820 348.000,283.600 348.000 C 283.380 348.000,283.200 348.278,283.200 348.617 C 283.200 348.956,282.840 349.620,282.400 350.092 C 281.960 350.564,281.600 351.187,281.600 351.475 C 281.600 351.764,281.420 352.000,281.200 352.000 C 280.980 352.000,280.800 352.278,280.800 352.617 C 280.800 352.956,280.440 353.620,280.000 354.092 C 279.560 354.564,279.200 355.187,279.200 355.475 C 279.200 355.764,279.020 356.000,278.800 356.000 C 278.580 356.000,278.400 356.345,278.400 356.767 C 278.400 357.188,278.265 357.593,278.100 357.667 C 277.640 357.871,276.269 360.009,275.390 361.895 C 274.956 362.828,274.465 363.593,274.300 363.595 C 274.135 363.598,274.000 363.960,274.000 364.400 C 274.000 364.840,273.820 365.200,273.600 365.200 C 273.380 365.200,273.200 365.560,273.200 366.000 C 273.200 366.440,273.020 366.800,272.800 366.800 C 272.580 366.800,272.400 367.340,272.400 368.000 C 272.400 368.660,272.220 369.200,272.000 369.200 C 271.778 369.200,271.600 370.267,271.600 371.600 C 271.600 372.933,271.422 374.000,271.200 374.000 C 270.980 374.000,270.800 374.990,270.800 376.200 C 270.800 377.410,270.980 378.400,271.200 378.400 C 271.422 378.400,271.600 379.467,271.600 380.800 C 271.600 382.133,271.778 383.200,272.000 383.200 C 272.220 383.200,272.400 383.740,272.400 384.400 C 272.400 385.060,272.580 385.600,272.800 385.600 C 273.020 385.600,273.200 385.960,273.200 386.400 C 273.200 386.840,273.380 387.200,273.600 387.200 C 273.820 387.200,274.000 387.560,274.000 388.000 C 274.000 388.440,274.180 388.800,274.400 388.800 C 274.620 388.800,274.800 389.031,274.800 389.314 C 274.800 390.624,281.310 397.200,282.607 397.200 C 282.933 397.200,283.200 397.380,283.200 397.600 C 283.200 397.820,283.560 398.000,284.000 398.000 C 284.440 398.000,284.800 398.180,284.800 398.400 C 284.800 398.620,285.145 398.800,285.567 398.800 C 285.988 398.800,286.408 399.025,286.500 399.300 C 286.627 399.680,288.769 399.800,295.400 399.800 C 302.031 399.800,304.173 399.680,304.300 399.300 C 304.392 399.025,304.902 398.800,305.433 398.800 C 305.965 398.800,306.400 398.620,306.400 398.400 C 306.400 398.180,306.720 398.000,307.112 398.000 C 307.503 398.000,308.083 397.640,308.400 397.200 C 308.717 396.760,309.210 396.400,309.495 396.400 C 310.103 396.400,316.000 390.604,316.000 390.006 C 316.000 389.783,316.180 389.600,316.400 389.600 C 316.620 389.600,316.800 389.240,316.800 388.800 C 316.800 388.360,316.980 388.000,317.200 388.000 C 317.420 388.000,317.600 387.640,317.600 387.200 C 317.600 386.760,317.780 386.400,318.000 386.400 C 318.220 386.400,318.400 386.051,318.400 385.624 C 318.400 385.197,318.580 384.736,318.800 384.600 C 319.020 384.464,319.200 383.733,319.200 382.976 C 319.200 382.219,319.380 381.600,319.600 381.600 C 319.847 381.600,320.000 379.533,320.000 376.200 C 320.000 372.867,319.847 370.800,319.600 370.800 C 319.380 370.800,319.200 370.271,319.200 369.624 C 319.200 368.977,319.020 368.336,318.800 368.200 C 318.580 368.064,318.400 367.513,318.400 366.976 C 318.400 366.439,318.220 366.000,318.000 366.000 C 317.780 366.000,317.600 365.640,317.600 365.200 C 317.600 364.760,317.420 364.400,317.200 364.400 C 316.980 364.400,316.800 364.040,316.800 363.600 C 316.800 363.160,316.620 362.800,316.400 362.800 C 316.180 362.800,316.000 362.530,316.000 362.200 C 316.000 361.870,315.820 361.600,315.600 361.600 C 315.380 361.600,315.200 361.330,315.200 361.000 C 315.200 360.670,315.020 360.400,314.800 360.400 C 314.580 360.400,314.400 360.130,314.400 359.800 C 314.400 359.470,314.220 359.200,314.000 359.200 C 313.780 359.200,313.600 358.880,313.600 358.488 C 313.600 358.097,313.240 357.517,312.800 357.200 C 312.360 356.883,312.000 356.303,312.000 355.912 C 312.000 355.520,311.820 355.200,311.600 355.200 C 311.380 355.200,311.200 354.880,311.200 354.488 C 311.200 354.097,310.840 353.517,310.400 353.200 C 309.960 352.883,309.600 352.303,309.600 351.912 C 309.600 351.520,309.420 351.200,309.200 351.200 C 308.980 351.200,308.800 350.862,308.800 350.449 C 308.800 350.036,308.530 349.474,308.200 349.200 C 307.870 348.926,307.600 348.532,307.600 348.323 C 307.600 348.115,307.099 347.192,306.488 346.272 C 305.876 345.352,305.127 344.108,304.824 343.507 C 304.520 342.905,303.941 342.058,303.536 341.623 C 303.131 341.189,302.800 340.638,302.800 340.399 C 302.800 339.743,300.923 338.000,300.218 338.000 C 299.878 338.000,299.600 337.820,299.600 337.600 C 299.600 337.361,298.067 337.200,295.800 337.200 C 293.533 337.200,292.000 337.361,292.000 337.600 M105.519 361.900 C 107.178 364.259,111.925 372.410,112.351 373.631 C 115.863 383.706,101.445 388.971,96.813 379.304 C 95.125 375.784,95.579 374.536,102.771 362.900 C 104.266 360.481,104.469 360.407,105.519 361.900 M204.138 366.835 C 208.915 374.943,209.353 377.172,206.898 380.882 C 201.271 389.385,187.650 381.204,192.700 372.355 C 193.154 371.560,193.767 370.480,194.062 369.955 C 194.358 369.430,194.690 368.910,194.800 368.800 C 194.910 368.690,195.242 368.170,195.538 367.645 C 195.833 367.120,196.412 366.090,196.824 365.357 C 200.050 359.614,199.860 359.575,204.138 366.835 M298.908 365.620 C 304.297 374.467,304.744 375.884,303.218 379.267 C 299.880 386.666,289.850 386.199,287.588 378.540 C 286.781 375.809,287.355 373.749,290.263 368.942 C 291.708 366.554,293.249 363.970,293.687 363.200 C 295.526 359.973,295.446 359.936,298.908 365.620 " stroke="none" fill="#040405" fill-rule="evenodd"></path><path id="path1" d="M255.400 62.466 C 247.620 63.344,239.958 65.967,232.111 70.438 C 220.687 76.948,209.256 92.037,206.383 104.400 C 205.954 106.249,204.800 111.386,204.800 111.449 C 204.800 111.477,207.365 111.608,210.500 111.741 C 217.871 112.055,223.620 112.669,227.800 113.591 C 236.002 115.400,239.520 116.459,246.312 119.165 C 261.621 125.264,277.665 137.203,287.214 149.600 C 287.976 150.590,288.690 151.490,288.800 151.600 C 289.559 152.359,291.600 155.222,291.600 155.528 C 291.600 155.734,291.859 156.117,292.176 156.380 C 292.493 156.643,293.798 158.642,295.076 160.822 C 297.899 165.636,297.181 165.668,302.358 160.500 C 308.550 154.319,312.115 148.810,316.013 139.400 C 317.360 136.147,318.729 129.841,319.240 124.538 C 321.056 105.680,312.082 85.331,297.023 74.154 C 295.690 73.165,294.318 72.140,293.973 71.878 C 284.958 65.006,268.492 60.988,255.400 62.466 " stroke="none" fill="#f9c96a" fill-rule="evenodd"></path><path id="path2" d="M200.600 128.443 C 188.329 129.360,172.358 134.564,163.728 140.458 C 162.808 141.086,161.878 141.600,161.661 141.600 C 161.444 141.600,161.207 141.749,161.133 141.932 C 161.060 142.114,160.081 142.879,158.957 143.632 C 153.800 147.086,144.087 156.490,140.812 161.200 C 140.277 161.970,139.725 162.690,139.587 162.800 C 139.029 163.243,136.000 168.089,136.006 168.528 C 136.010 168.788,137.585 170.035,139.506 171.300 C 141.428 172.565,143.564 174.095,144.253 174.700 C 144.943 175.305,145.957 176.160,146.507 176.600 C 148.225 177.975,151.700 181.337,154.200 184.043 C 156.772 186.826,157.268 187.427,158.795 189.600 C 159.336 190.370,160.098 191.349,160.489 191.775 C 160.880 192.202,161.200 192.787,161.200 193.075 C 161.200 193.364,161.350 193.600,161.532 193.600 C 161.715 193.600,162.120 194.095,162.432 194.700 C 162.744 195.305,163.089 195.890,163.199 196.000 C 163.997 196.795,168.226 205.469,169.391 208.701 C 173.924 221.265,158.912 226.700,153.970 214.284 C 151.572 208.261,147.359 200.980,144.200 197.400 C 138.919 191.416,134.922 187.920,129.209 184.287 C 123.713 180.793,114.587 176.800,112.097 176.800 C 111.630 176.800,111.136 176.620,111.000 176.400 C 110.864 176.180,110.054 176.000,109.200 176.000 C 108.346 176.000,107.553 175.847,107.438 175.661 C 106.859 174.725,95.634 174.385,89.400 175.115 C 83.008 175.863,81.823 176.060,81.420 176.441 C 81.211 176.638,80.534 176.800,79.915 176.800 C 79.296 176.800,78.477 176.962,78.095 177.161 C 77.713 177.360,76.590 177.751,75.600 178.031 C 74.610 178.310,73.629 178.688,73.420 178.870 C 73.211 179.051,72.761 179.202,72.420 179.203 C 70.683 179.213,60.564 185.130,56.600 188.454 C 53.207 191.299,46.304 199.103,45.679 200.800 C 45.558 201.130,45.355 201.490,45.229 201.600 C 44.843 201.937,43.564 204.158,43.329 204.900 C 43.207 205.285,42.948 205.600,42.753 205.600 C 42.559 205.600,42.400 205.960,42.400 206.400 C 42.400 206.840,42.220 207.200,42.000 207.200 C 41.780 207.200,41.600 207.465,41.600 207.788 C 41.600 208.111,41.277 208.966,40.881 209.688 C 40.486 210.410,39.914 211.810,39.609 212.800 C 39.305 213.790,38.932 214.780,38.782 215.000 C 38.631 215.220,38.406 215.850,38.282 216.400 C 38.157 216.950,37.864 218.120,37.629 219.000 C 35.951 225.293,35.821 226.537,35.821 236.400 C 35.821 246.262,35.961 247.599,37.634 253.800 C 37.872 254.680,38.162 255.897,38.279 256.505 C 38.396 257.113,38.651 257.708,38.846 257.829 C 39.041 257.949,39.200 258.399,39.200 258.829 C 39.200 259.259,39.360 259.923,39.556 260.305 C 39.752 260.687,40.315 261.900,40.807 263.000 C 41.299 264.100,41.903 265.450,42.150 266.000 C 42.397 266.550,42.689 267.090,42.800 267.200 C 42.911 267.310,43.266 267.940,43.590 268.600 C 44.207 269.857,47.166 274.455,47.580 274.800 C 47.713 274.910,48.446 275.806,49.210 276.791 C 53.940 282.887,60.758 288.226,68.600 291.975 C 72.860 294.011,73.310 294.200,75.400 294.829 C 76.280 295.094,77.360 295.452,77.800 295.625 C 78.613 295.945,79.431 296.137,83.000 296.847 C 88.938 298.029,92.550 298.098,162.000 298.345 L 233.400 298.600 234.926 299.548 C 236.578 300.576,238.400 303.106,238.400 304.373 C 238.400 304.807,238.609 305.621,238.864 306.181 L 239.328 307.200 246.464 307.200 L 253.600 307.200 253.630 306.100 C 253.876 297.224,267.400 295.547,269.613 304.118 C 269.852 305.043,270.139 306.115,270.251 306.500 C 270.575 307.617,284.800 307.568,284.800 306.450 C 284.800 300.946,288.688 298.406,297.149 298.386 C 302.248 298.373,307.468 297.847,310.800 297.008 C 315.360 295.860,315.493 295.813,319.709 293.803 C 328.645 289.545,335.478 281.436,338.081 272.000 C 343.459 252.501,333.758 230.493,316.900 223.949 C 316.405 223.757,315.595 223.441,315.100 223.246 C 310.603 221.475,303.637 220.956,297.600 221.943 C 295.950 222.213,293.924 222.535,293.097 222.659 C 292.271 222.783,291.495 223.045,291.374 223.242 C 291.252 223.439,290.724 223.600,290.200 223.600 C 289.676 223.600,289.136 223.780,289.000 224.000 C 288.864 224.220,288.491 224.400,288.172 224.400 C 287.549 224.400,285.326 225.339,281.271 227.316 C 273.243 231.230,265.335 224.376,269.181 216.837 C 269.972 215.286,273.251 212.431,274.267 212.410 C 274.523 212.404,274.793 212.264,274.867 212.098 C 274.994 211.811,279.711 209.433,281.400 208.805 C 281.840 208.641,282.650 208.318,283.200 208.087 C 283.750 207.856,284.650 207.550,285.200 207.406 C 285.750 207.263,286.830 206.961,287.600 206.735 C 288.370 206.510,289.810 206.207,290.800 206.062 L 292.600 205.800 292.539 202.800 C 292.480 199.867,292.070 197.017,291.246 193.800 C 291.020 192.920,290.724 191.660,290.588 191.000 C 290.451 190.340,290.194 189.440,290.015 189.000 C 289.837 188.560,289.458 187.390,289.174 186.400 C 288.889 185.410,288.546 184.420,288.411 184.200 C 288.277 183.980,287.930 183.080,287.641 182.200 C 286.374 178.345,278.949 164.526,277.651 163.605 C 277.492 163.492,276.929 162.770,276.400 162.000 C 275.871 161.230,275.340 160.510,275.219 160.400 C 275.099 160.290,274.017 159.030,272.816 157.600 C 270.010 154.258,265.844 150.231,261.800 146.950 C 260.040 145.522,258.283 144.094,257.895 143.777 C 257.508 143.460,257.013 143.200,256.795 143.200 C 256.578 143.200,256.400 143.020,256.400 142.800 C 256.400 142.580,256.130 142.400,255.800 142.400 C 255.470 142.400,255.200 142.220,255.200 142.000 C 255.200 141.780,255.003 141.600,254.762 141.600 C 254.521 141.600,253.846 141.261,253.262 140.847 C 248.419 137.412,236.390 132.223,229.800 130.727 C 228.920 130.527,227.480 130.187,226.600 129.971 C 219.817 128.309,210.070 127.736,200.600 128.443 M103.658 362.300 C 103.248 363.257,103.259 363.309,103.738 362.700 C 104.040 362.315,104.504 362.000,104.768 362.000 C 105.031 362.000,105.136 361.820,105.000 361.600 C 104.583 360.924,104.150 361.150,103.658 362.300 M199.353 362.100 C 197.978 364.432,197.886 364.635,198.585 363.800 C 198.953 363.360,199.405 362.739,199.589 362.419 C 199.881 361.911,200.015 361.911,200.661 362.419 C 201.339 362.952,201.355 362.942,200.851 362.300 C 200.203 361.473,199.757 361.414,199.353 362.100 M105.215 362.600 C 105.217 362.820,105.586 363.450,106.036 364.000 C 106.579 364.664,106.715 364.731,106.440 364.200 C 105.766 362.895,105.212 362.172,105.215 362.600 M201.215 363.400 C 201.217 363.620,201.586 364.250,202.036 364.800 C 202.579 365.464,202.715 365.531,202.440 365.000 C 201.766 363.695,201.212 362.972,201.215 363.400 M298.430 366.200 C 298.924 367.080,299.500 367.980,299.710 368.200 C 300.309 368.828,298.939 366.294,298.196 365.400 C 297.830 364.960,297.935 365.320,298.430 366.200 M301.041 370.600 C 301.641 371.700,302.302 372.780,302.510 373.000 C 303.103 373.627,301.341 370.295,300.606 369.400 C 300.245 368.960,300.441 369.500,301.041 370.600 M97.800 372.000 C 97.459 372.660,97.269 373.200,97.379 373.200 C 97.489 373.200,97.859 372.660,98.200 372.000 C 98.541 371.340,98.731 370.800,98.621 370.800 C 98.511 370.800,98.141 371.340,97.800 372.000 M96.649 375.300 C 96.517 376.015,96.562 377.140,96.749 377.800 C 97.030 378.791,97.092 378.564,97.105 376.500 C 97.122 373.700,97.003 373.386,96.649 375.300 M303.022 377.022 C 302.872 377.825,302.828 378.562,302.926 378.660 C 303.024 378.757,303.227 378.181,303.378 377.378 C 303.528 376.575,303.572 375.838,303.474 375.740 C 303.376 375.643,303.173 376.219,303.022 377.022 M193.600 380.664 C 193.600 380.882,194.095 381.497,194.700 382.030 L 195.800 383.000 194.800 381.800 C 194.250 381.140,193.755 380.525,193.700 380.433 C 193.645 380.342,193.600 380.445,193.600 380.664 M205.375 381.700 L 204.200 383.000 205.500 381.825 C 206.215 381.179,206.800 380.594,206.800 380.525 C 206.800 380.216,206.470 380.488,205.375 381.700 M98.598 381.537 C 99.034 382.052,99.753 382.659,100.196 382.886 C 101.045 383.321,100.921 383.187,99.003 381.594 C 97.848 380.635,97.834 380.633,98.598 381.537 M202.400 383.434 C 201.090 383.970,201.077 383.992,202.200 383.775 C 202.860 383.648,203.571 383.376,203.780 383.172 C 204.259 382.703,204.121 382.729,202.400 383.434 " stroke="none" fill="#a3cbfb" fill-rule="evenodd"></path><path id="path3" d="M295.377 361.929 C 294.901 362.272,293.622 364.377,293.329 365.300 C 293.207 365.685,292.948 366.000,292.753 366.000 C 292.559 366.000,292.400 366.193,292.400 366.428 C 292.400 366.663,291.860 367.641,291.200 368.600 C 290.540 369.559,290.000 370.464,290.000 370.610 C 290.000 370.757,289.678 371.354,289.285 371.938 C 284.297 379.350,294.220 387.993,300.714 381.892 C 304.061 378.749,303.841 375.336,299.863 368.662 C 298.178 365.835,296.794 363.405,296.787 363.262 C 296.758 362.656,295.724 361.679,295.377 361.929 M100.649 367.843 C 96.767 374.333,96.230 376.547,97.758 379.768 C 100.294 385.113,108.721 385.133,111.147 379.800 C 111.448 379.140,111.852 378.287,112.047 377.905 C 112.241 377.523,112.400 376.756,112.400 376.200 C 112.400 375.644,112.241 374.877,112.047 374.495 C 111.852 374.113,111.448 373.260,111.147 372.600 C 110.847 371.940,110.511 371.310,110.401 371.200 C 110.005 370.806,108.746 368.587,108.529 367.900 C 108.407 367.515,108.148 367.200,107.953 367.200 C 107.759 367.200,107.600 367.007,107.600 366.772 C 107.600 366.537,107.060 365.559,106.400 364.600 C 105.740 363.641,105.200 362.663,105.200 362.428 C 105.200 360.956,103.705 362.735,100.649 367.843 M198.500 364.003 C 197.785 365.096,197.200 366.173,197.200 366.395 C 197.200 366.618,197.041 366.800,196.847 366.800 C 196.652 366.800,196.393 367.115,196.271 367.500 C 195.975 368.436,194.676 370.566,194.300 370.733 C 194.135 370.807,194.000 371.122,194.000 371.433 C 194.000 371.745,193.820 372.000,193.600 372.000 C 193.380 372.000,193.200 372.360,193.200 372.800 C 193.200 373.240,193.020 373.600,192.800 373.600 C 192.224 373.600,192.305 378.246,192.900 379.282 C 197.221 386.811,207.600 384.451,207.600 375.939 C 207.600 374.646,207.421 373.600,207.200 373.600 C 206.980 373.600,206.800 373.240,206.800 372.800 C 206.800 372.360,206.620 372.000,206.400 372.000 C 206.180 372.000,206.000 371.807,206.000 371.572 C 206.000 371.337,205.460 370.359,204.800 369.400 C 204.140 368.441,203.600 367.541,203.600 367.400 C 203.600 367.259,203.105 366.389,202.500 365.465 C 201.895 364.542,201.207 363.440,200.971 363.017 C 200.268 361.755,199.865 361.916,198.500 364.003 " stroke="none" fill="#dbebfb" fill-rule="evenodd"></path><path id="path4" d="M256.400 61.953 C 255.630 62.089,258.150 62.202,262.000 62.205 C 266.010 62.208,268.231 62.092,267.200 61.935 C 265.015 61.600,258.331 61.612,256.400 61.953 M250.000 62.869 C 249.230 63.083,247.970 63.418,247.200 63.614 C 244.336 64.346,243.944 64.477,244.113 64.647 C 244.209 64.742,246.068 64.376,248.244 63.834 C 250.420 63.291,252.740 62.773,253.400 62.683 C 254.345 62.555,254.260 62.516,253.000 62.501 C 252.120 62.490,250.770 62.656,250.000 62.869 M269.233 62.546 C 269.325 62.626,270.390 62.800,271.600 62.932 C 273.037 63.088,273.522 63.048,273.000 62.814 C 272.243 62.475,268.879 62.236,269.233 62.546 M274.800 63.600 C 276.342 64.094,277.164 64.094,276.400 63.600 C 276.070 63.387,275.350 63.227,274.800 63.246 L 273.800 63.280 274.800 63.600 M277.233 64.144 C 277.325 64.223,277.940 64.408,278.600 64.556 C 279.476 64.752,279.638 64.715,279.200 64.418 C 278.660 64.053,276.832 63.798,277.233 64.144 M241.253 65.453 C 240.513 65.776,239.992 66.125,240.095 66.228 C 240.199 66.332,241.075 66.066,242.042 65.637 C 243.009 65.208,243.530 64.858,243.200 64.861 C 242.870 64.863,241.994 65.130,241.253 65.453 M283.000 66.153 C 286.726 67.687,290.156 69.389,291.662 70.451 C 292.936 71.350,293.740 71.438,292.600 70.554 C 290.816 69.171,281.333 64.773,280.231 64.817 C 279.994 64.827,281.240 65.428,283.000 66.153 M235.865 67.847 C 235.240 68.186,234.806 68.539,234.900 68.633 C 235.087 68.820,237.600 67.646,237.600 67.371 C 237.600 67.062,237.018 67.222,235.865 67.847 M229.800 71.482 C 224.586 74.956,217.423 82.073,214.008 87.173 C 210.657 92.177,205.861 102.394,206.542 103.076 C 206.635 103.169,207.040 102.200,207.442 100.922 C 210.964 89.724,222.712 75.280,232.316 70.341 C 233.981 69.484,234.799 68.791,234.124 68.808 C 233.946 68.813,232.000 70.016,229.800 71.482 M293.600 71.500 C 293.600 71.680,294.172 72.165,294.870 72.578 C 302.928 77.338,313.005 90.614,316.227 100.716 C 316.599 101.879,316.995 102.738,317.108 102.625 C 318.126 101.607,311.489 88.909,307.060 83.400 C 303.589 79.083,293.600 70.251,293.600 71.500 M317.234 103.600 C 317.246 103.930,317.411 104.560,317.600 105.000 L 317.944 105.800 317.966 105.000 C 317.978 104.560,317.813 103.930,317.600 103.600 C 317.255 103.067,317.215 103.067,317.234 103.600 M206.049 104.000 C 206.016 104.330,205.889 105.050,205.767 105.600 C 205.575 106.464,205.607 106.503,205.999 105.888 C 206.248 105.497,206.375 104.777,206.281 104.288 C 206.186 103.800,206.082 103.670,206.049 104.000 M318.056 106.800 C 318.056 107.350,318.211 108.160,318.400 108.600 C 318.713 109.329,318.744 109.312,318.744 108.400 C 318.744 107.850,318.589 107.040,318.400 106.600 C 318.087 105.871,318.056 105.888,318.056 106.800 M205.000 108.400 C 204.846 109.310,204.811 110.144,204.921 110.254 C 205.031 110.364,205.246 109.710,205.400 108.800 C 205.554 107.890,205.589 107.056,205.479 106.946 C 205.369 106.836,205.154 107.490,205.000 108.400 M319.068 113.000 C 319.195 114.540,319.366 115.875,319.449 115.967 C 319.747 116.296,319.513 112.179,319.179 111.200 C 318.963 110.569,318.922 111.232,319.068 113.000 M204.432 111.113 C 204.386 111.856,204.788 111.915,211.400 112.126 C 215.144 112.246,216.723 112.194,215.600 111.989 C 214.610 111.808,211.790 111.646,209.333 111.630 C 206.158 111.609,204.808 111.456,204.665 111.100 C 204.507 110.708,204.456 110.711,204.432 111.113 M218.833 112.547 C 218.925 112.628,220.170 112.802,221.600 112.935 C 223.276 113.091,223.916 113.048,223.400 112.816 C 222.647 112.477,218.475 112.231,218.833 112.547 M224.433 113.349 C 224.525 113.431,225.500 113.607,226.600 113.741 C 227.946 113.905,228.339 113.865,227.800 113.620 C 227.039 113.274,224.083 113.036,224.433 113.349 M228.833 114.147 C 228.925 114.228,229.720 114.404,230.600 114.538 C 231.715 114.707,231.958 114.671,231.400 114.419 C 230.632 114.071,228.490 113.844,228.833 114.147 M233.400 115.200 C 234.596 115.714,235.595 115.714,234.800 115.200 C 234.470 114.987,233.840 114.822,233.400 114.834 L 232.600 114.856 233.400 115.200 M237.586 116.434 C 238.788 116.861,239.950 117.150,240.167 117.078 C 240.627 116.924,236.707 115.586,235.925 115.629 C 235.636 115.645,236.384 116.007,237.586 116.434 M241.200 117.600 C 241.530 117.813,242.070 117.988,242.400 117.988 C 242.933 117.988,242.933 117.945,242.400 117.600 C 242.070 117.387,241.530 117.212,241.200 117.212 C 240.667 117.212,240.667 117.255,241.200 117.600 M249.200 120.569 C 249.200 120.662,251.045 121.657,253.300 122.779 C 269.031 130.607,282.530 142.564,292.383 157.400 C 293.990 159.820,295.490 161.980,295.716 162.200 C 296.176 162.646,294.795 160.234,293.224 157.843 C 292.661 156.986,292.020 155.994,291.800 155.637 C 291.369 154.937,289.135 151.929,288.802 151.600 C 288.691 151.490,287.976 150.590,287.214 149.600 C 279.303 139.329,266.700 129.157,253.507 122.395 C 249.683 120.435,249.200 120.230,249.200 120.569 M319.272 124.244 C 319.232 124.928,319.111 126.368,319.002 127.444 C 318.817 129.260,318.833 129.305,319.222 128.065 C 319.452 127.331,319.574 125.891,319.493 124.865 C 319.399 123.690,319.318 123.460,319.272 124.244 M201.200 127.655 C 196.161 128.163,189.528 129.273,187.200 129.996 C 186.650 130.167,185.390 130.534,184.400 130.811 C 179.227 132.260,175.429 133.753,169.600 136.629 C 165.893 138.459,157.490 143.667,156.199 144.936 C 155.939 145.191,155.113 145.844,154.363 146.386 C 149.934 149.590,140.785 159.808,136.700 166.112 C 134.813 169.024,134.774 168.808,137.500 170.594 C 152.716 180.565,165.248 196.258,169.400 210.539 C 172.226 220.262,159.625 224.864,155.199 215.725 C 154.539 214.364,154.000 213.103,154.000 212.923 C 154.000 210.029,146.413 198.774,140.419 192.778 C 133.936 186.292,121.285 178.000,117.872 178.000 C 117.529 178.000,117.150 177.843,117.032 177.652 C 116.914 177.460,116.318 177.193,115.708 177.057 C 115.099 176.922,113.250 176.444,111.600 175.995 C 101.867 173.345,89.740 173.486,79.200 176.372 C 78.430 176.582,77.170 176.923,76.400 177.128 C 68.803 179.150,58.409 185.429,52.454 191.593 C 50.390 193.729,46.000 199.030,46.000 199.385 C 46.000 199.522,45.651 200.008,45.225 200.465 C 41.160 204.829,36.016 220.203,35.143 230.600 C 32.483 262.277,50.601 289.079,79.794 296.651 C 87.414 298.627,83.217 298.517,160.600 298.767 C 228.524 298.986,233.079 299.043,234.279 299.700 C 236.112 300.702,237.506 302.723,238.021 305.122 C 238.577 307.717,238.370 307.662,247.000 307.504 L 253.800 307.379 246.564 307.290 L 239.328 307.200 238.864 306.181 C 238.609 305.621,238.400 304.807,238.400 304.373 C 238.400 303.106,236.578 300.576,234.926 299.548 L 233.400 298.600 162.000 298.345 C 92.550 298.098,88.938 298.029,83.000 296.847 C 79.431 296.137,78.613 295.945,77.800 295.625 C 77.360 295.452,76.280 295.094,75.400 294.829 C 73.310 294.200,72.860 294.011,68.600 291.975 C 60.758 288.226,53.940 282.887,49.210 276.791 C 48.446 275.806,47.713 274.910,47.580 274.800 C 47.166 274.455,44.207 269.857,43.590 268.600 C 43.266 267.940,42.911 267.310,42.800 267.200 C 42.689 267.090,42.397 266.550,42.150 266.000 C 41.903 265.450,41.299 264.100,40.807 263.000 C 40.315 261.900,39.752 260.687,39.556 260.305 C 39.360 259.923,39.200 259.259,39.200 258.829 C 39.200 258.399,39.041 257.949,38.846 257.829 C 38.651 257.708,38.396 257.113,38.279 256.505 C 38.162 255.897,37.872 254.680,37.634 253.800 C 35.961 247.599,35.821 246.262,35.821 236.400 C 35.821 226.537,35.951 225.293,37.629 219.000 C 37.864 218.120,38.157 216.950,38.282 216.400 C 38.406 215.850,38.631 215.220,38.782 215.000 C 38.932 214.780,39.305 213.790,39.609 212.800 C 39.914 211.810,40.486 210.410,40.881 209.688 C 41.277 208.966,41.600 208.111,41.600 207.788 C 41.600 207.465,41.780 207.200,42.000 207.200 C 42.220 207.200,42.400 206.840,42.400 206.400 C 42.400 205.960,42.559 205.600,42.753 205.600 C 42.948 205.600,43.207 205.285,43.329 204.900 C 43.564 204.158,44.843 201.937,45.229 201.600 C 45.355 201.490,45.558 201.130,45.679 200.800 C 46.304 199.103,53.207 191.299,56.600 188.454 C 60.564 185.130,70.683 179.213,72.420 179.203 C 72.761 179.202,73.211 179.051,73.420 178.870 C 73.629 178.688,74.610 178.310,75.600 178.031 C 76.590 177.751,77.713 177.360,78.095 177.161 C 78.477 176.962,79.296 176.800,79.915 176.800 C 80.534 176.800,81.211 176.638,81.420 176.441 C 83.169 174.788,106.467 174.090,107.438 175.661 C 107.553 175.847,108.346 176.000,109.200 176.000 C 110.054 176.000,110.864 176.180,111.000 176.400 C 111.136 176.620,111.630 176.800,112.097 176.800 C 114.587 176.800,123.713 180.793,129.209 184.287 C 134.922 187.920,138.919 191.416,144.200 197.400 C 147.359 200.980,151.572 208.261,153.970 214.284 C 158.912 226.700,173.924 221.265,169.391 208.701 C 168.226 205.469,163.997 196.795,163.199 196.000 C 163.089 195.890,162.744 195.305,162.432 194.700 C 162.120 194.095,161.715 193.600,161.532 193.600 C 161.350 193.600,161.200 193.364,161.200 193.075 C 161.200 192.787,160.880 192.202,160.489 191.775 C 160.098 191.349,159.336 190.370,158.795 189.600 C 157.268 187.427,156.772 186.826,154.200 184.043 C 151.700 181.337,148.225 177.975,146.507 176.600 C 145.957 176.160,144.943 175.305,144.253 174.700 C 143.564 174.095,141.428 172.565,139.506 171.300 C 137.585 170.035,136.010 168.788,136.006 168.528 C 136.000 168.089,139.029 163.243,139.587 162.800 C 139.725 162.690,140.277 161.970,140.812 161.200 C 144.087 156.490,153.800 147.086,158.957 143.632 C 160.081 142.879,161.060 142.114,161.133 141.932 C 161.207 141.749,161.444 141.600,161.661 141.600 C 161.878 141.600,162.808 141.086,163.728 140.458 C 179.116 129.948,207.314 125.245,226.600 129.971 C 227.480 130.187,228.920 130.527,229.800 130.727 C 236.390 132.223,248.419 137.412,253.262 140.847 C 253.846 141.261,254.521 141.600,254.762 141.600 C 255.003 141.600,255.200 141.780,255.200 142.000 C 255.200 142.220,255.470 142.400,255.800 142.400 C 256.130 142.400,256.400 142.580,256.400 142.800 C 256.400 143.020,256.578 143.200,256.795 143.200 C 257.013 143.200,257.508 143.460,257.895 143.777 C 258.283 144.094,260.040 145.522,261.800 146.950 C 265.844 150.231,270.010 154.258,272.816 157.600 C 274.017 159.030,275.099 160.290,275.219 160.400 C 275.340 160.510,275.871 161.230,276.400 162.000 C 276.929 162.770,277.492 163.492,277.651 163.605 C 278.949 164.526,286.374 178.345,287.641 182.200 C 287.930 183.080,288.277 183.980,288.411 184.200 C 288.546 184.420,288.889 185.410,289.174 186.400 C 289.458 187.390,289.837 188.560,290.015 189.000 C 290.194 189.440,290.451 190.340,290.588 191.000 C 290.724 191.660,291.020 192.920,291.246 193.800 C 292.070 197.017,292.480 199.867,292.539 202.800 L 292.600 205.800 290.800 206.062 C 289.810 206.207,288.370 206.510,287.600 206.735 C 286.830 206.961,285.750 207.263,285.200 207.406 C 284.650 207.550,283.750 207.856,283.200 208.087 C 282.650 208.318,281.840 208.641,281.400 208.805 C 279.711 209.433,274.994 211.811,274.867 212.098 C 274.793 212.264,274.523 212.404,274.267 212.410 C 273.251 212.431,269.972 215.286,269.181 216.837 C 265.335 224.376,273.243 231.230,281.271 227.316 C 285.326 225.339,287.549 224.400,288.172 224.400 C 288.491 224.400,288.864 224.220,289.000 224.000 C 289.136 223.780,289.676 223.600,290.200 223.600 C 290.724 223.600,291.252 223.439,291.374 223.242 C 291.495 223.045,292.271 222.783,293.097 222.659 C 293.924 222.535,295.950 222.213,297.600 221.943 C 303.565 220.968,310.390 221.458,315.000 223.192 C 324.003 226.578,330.083 231.941,334.508 240.400 C 338.217 247.489,339.787 254.262,339.470 261.810 C 339.234 267.425,338.579 271.172,337.248 274.524 C 333.637 283.617,327.936 289.883,319.709 293.803 C 315.493 295.813,315.360 295.860,310.800 297.008 C 307.468 297.847,302.248 298.373,297.149 298.386 C 288.688 298.406,284.800 300.946,284.800 306.450 C 284.800 307.155,284.373 307.200,277.615 307.200 L 270.431 307.200 269.992 305.500 C 269.238 302.582,269.170 302.426,268.122 301.180 C 264.063 296.356,255.692 298.156,253.995 304.219 C 253.271 306.804,253.774 307.338,254.541 304.800 C 256.901 296.996,267.094 296.890,269.195 304.646 C 270.027 307.720,269.684 307.600,277.635 307.600 C 285.536 307.600,285.178 307.722,285.802 304.819 C 286.840 299.993,288.767 299.095,298.800 298.761 C 313.454 298.274,321.928 295.184,329.542 287.549 C 338.140 278.929,342.020 265.052,339.371 252.400 C 339.025 250.750,338.645 248.903,338.525 248.295 C 338.406 247.687,338.149 247.092,337.954 246.971 C 337.759 246.851,337.600 246.435,337.600 246.047 C 337.600 245.659,337.060 244.227,336.400 242.865 C 335.740 241.502,335.200 240.291,335.200 240.173 C 335.200 239.333,330.210 232.740,327.986 230.642 C 315.818 219.163,300.368 217.769,281.708 226.466 C 273.196 230.433,265.510 224.284,269.809 216.948 C 272.092 213.052,284.598 207.163,292.400 206.309 C 293.378 206.202,293.398 206.134,293.303 203.200 C 293.213 200.411,293.013 199.108,291.954 194.400 C 287.171 173.132,274.303 154.315,256.200 142.114 C 253.240 140.119,246.224 136.000,245.787 136.000 C 245.723 136.000,244.350 135.391,242.736 134.646 C 230.586 129.040,214.423 126.320,201.200 127.655 M318.200 131.600 C 318.048 132.291,318.014 132.947,318.124 133.057 C 318.234 133.167,318.448 132.691,318.600 132.000 C 318.752 131.309,318.786 130.653,318.676 130.543 C 318.566 130.433,318.352 130.909,318.200 131.600 M317.429 134.629 C 317.281 135.215,317.251 135.784,317.361 135.894 C 317.471 136.004,317.681 135.615,317.829 135.029 C 317.976 134.442,318.006 133.873,317.896 133.763 C 317.786 133.653,317.576 134.042,317.429 134.629 M316.629 137.429 C 316.481 138.015,316.438 138.572,316.532 138.666 C 316.627 138.760,316.824 138.358,316.971 137.771 C 317.119 137.185,317.162 136.628,317.068 136.534 C 316.973 136.440,316.776 136.842,316.629 137.429 M314.790 142.245 C 314.552 142.880,313.919 144.287,313.383 145.371 C 312.846 146.454,312.481 147.414,312.570 147.503 C 312.659 147.593,313.389 146.282,314.191 144.591 C 314.994 142.900,315.554 141.421,315.436 141.303 C 315.319 141.185,315.028 141.609,314.790 142.245 M309.553 151.900 C 307.175 155.533,298.660 164.800,297.700 164.800 C 297.496 164.800,297.113 164.327,296.849 163.748 C 296.586 163.170,296.272 162.794,296.153 162.914 C 295.866 163.201,297.187 165.200,297.664 165.200 C 299.053 165.200,308.737 154.380,311.371 149.886 C 313.252 146.677,312.234 147.804,309.553 151.900 M102.771 362.900 C 97.232 371.861,96.000 374.279,96.000 376.185 C 96.000 379.865,99.862 384.419,102.956 384.387 C 104.046 384.376,103.940 384.284,102.099 383.648 C 98.017 382.238,95.814 378.494,96.824 374.685 C 97.256 373.056,103.941 361.255,104.452 361.218 C 104.730 361.198,110.459 370.744,111.653 373.216 C 113.650 377.348,111.055 382.705,106.465 383.927 C 105.428 384.203,105.268 384.329,105.916 384.359 C 109.109 384.503,112.800 380.241,112.800 376.411 C 112.800 374.239,112.223 372.878,109.097 367.671 C 104.298 359.677,104.615 359.916,102.771 362.900 M198.640 362.412 C 198.053 363.298,197.236 364.623,196.824 365.357 C 196.412 366.090,195.833 367.120,195.538 367.645 C 195.242 368.170,194.910 368.690,194.800 368.800 C 194.690 368.910,194.358 369.430,194.062 369.955 C 193.767 370.480,193.154 371.560,192.700 372.355 C 190.109 376.895,193.772 384.561,198.435 384.358 C 199.228 384.324,199.145 384.234,197.972 383.858 C 193.202 382.328,190.832 377.020,193.015 372.757 C 194.877 369.122,199.747 361.582,200.147 361.715 C 201.523 362.173,207.719 373.809,207.753 376.000 C 207.813 379.773,205.669 382.762,202.109 383.869 C 200.938 384.233,200.816 384.345,201.565 384.369 C 205.429 384.492,209.255 378.562,208.074 374.282 C 207.562 372.429,200.744 360.837,200.153 360.816 C 199.907 360.807,199.226 361.525,198.640 362.412 M294.903 361.287 C 294.673 361.569,294.126 362.430,293.687 363.200 C 293.249 363.970,291.699 366.567,290.245 368.972 C 288.790 371.377,287.607 373.627,287.616 373.972 C 287.625 374.317,287.955 373.970,288.349 373.200 C 289.442 371.067,290.810 368.718,291.647 367.538 C 292.061 366.954,292.400 366.373,292.400 366.246 C 292.400 365.893,295.145 361.681,295.530 361.443 C 295.717 361.328,296.232 361.901,296.676 362.717 C 297.119 363.533,298.427 365.728,299.582 367.595 C 302.789 372.783,303.312 373.981,303.331 376.195 C 303.362 379.857,300.941 383.006,297.400 383.909 C 295.865 384.301,295.851 384.319,297.044 384.359 C 301.952 384.522,305.403 377.441,302.849 372.449 C 299.086 365.098,295.687 360.322,294.903 361.287 M287.309 376.400 C 287.309 377.390,287.387 377.795,287.482 377.300 C 287.578 376.805,287.578 375.995,287.482 375.500 C 287.387 375.005,287.309 375.410,287.309 376.400 M287.804 379.250 C 288.561 381.737,291.905 384.457,294.084 384.359 C 294.697 384.331,294.482 384.180,293.434 383.903 C 291.771 383.464,288.400 380.471,288.400 379.434 C 288.400 379.111,288.201 378.724,287.957 378.574 C 287.654 378.386,287.605 378.599,287.804 379.250 " stroke="none" fill="#6982a4" fill-rule="evenodd"></path></g></svg>