<svg id="svg" version="1.1" xmlns="http://www.w3.org/2000/svg" xmlns:xlink="http://www.w3.org/1999/xlink" width="400" height="400" viewBox="0, 0, 400,400"><g id="svgg"><path id="path0" d="M221.200 27.984 C 220.870 28.206,218.406 28.391,215.724 28.394 C 212.911 28.397,210.743 28.569,210.600 28.800 C 210.464 29.020,209.193 29.200,207.776 29.200 C 206.325 29.200,205.200 29.375,205.200 29.600 C 205.200 29.820,204.221 30.000,203.024 30.000 C 201.827 30.000,200.736 30.180,200.600 30.400 C 200.464 30.620,199.643 30.800,198.776 30.800 C 197.909 30.800,197.200 30.980,197.200 31.200 C 197.200 31.420,196.480 31.600,195.600 31.600 C 194.720 31.600,194.000 31.780,194.000 32.000 C 194.000 32.220,193.370 32.400,192.600 32.400 C 191.830 32.400,191.200 32.580,191.200 32.800 C 191.200 33.020,190.660 33.200,190.000 33.200 C 189.340 33.200,188.800 33.380,188.800 33.600 C 188.800 33.820,188.260 34.000,187.600 34.000 C 186.940 34.000,186.400 34.180,186.400 34.400 C 186.400 34.620,185.860 34.800,185.200 34.800 C 184.540 34.800,184.000 34.980,184.000 35.200 C 184.000 35.420,183.460 35.600,182.800 35.600 C 182.140 35.600,181.600 35.780,181.600 36.000 C 181.600 36.220,181.240 36.400,180.800 36.400 C 180.360 36.400,180.000 36.580,180.000 36.800 C 180.000 37.020,179.561 37.200,179.024 37.200 C 178.487 37.200,177.936 37.380,177.800 37.600 C 177.664 37.820,177.203 38.000,176.776 38.000 C 176.349 38.000,176.000 38.180,176.000 38.400 C 176.000 38.620,175.730 38.800,175.400 38.800 C 175.070 38.800,174.800 38.980,174.800 39.200 C 174.800 39.420,174.528 39.600,174.195 39.600 C 173.862 39.600,173.277 39.769,172.895 39.976 C 172.513 40.182,170.085 41.376,167.500 42.628 C 164.915 43.881,162.800 45.018,162.800 45.155 C 162.800 45.292,162.294 45.629,161.675 45.903 C 161.056 46.176,160.164 46.760,159.692 47.200 C 159.220 47.640,158.691 48.000,158.517 48.001 C 158.343 48.001,157.570 48.541,156.800 49.200 C 156.030 49.859,155.215 50.399,154.988 50.399 C 154.762 50.400,154.317 50.760,154.000 51.200 C 153.683 51.640,153.215 52.000,152.960 52.000 C 152.705 52.000,151.755 52.720,150.848 53.600 C 149.941 54.480,149.026 55.200,148.815 55.200 C 147.888 55.200,133.023 70.085,131.958 72.080 C 131.688 72.586,130.957 73.477,130.333 74.060 C 129.710 74.644,129.200 75.221,129.200 75.342 C 129.200 75.464,128.307 76.758,127.215 78.219 C 126.124 79.679,125.122 81.217,124.988 81.637 C 124.855 82.057,124.578 82.400,124.373 82.400 C 124.168 82.400,124.000 82.678,124.000 83.017 C 124.000 83.356,123.640 84.020,123.200 84.492 C 122.760 84.964,122.400 85.587,122.400 85.875 C 122.400 86.164,122.220 86.400,122.000 86.400 C 121.780 86.400,121.600 86.683,121.600 87.029 C 121.600 87.374,121.330 87.927,121.000 88.257 C 120.670 88.587,120.400 88.664,120.400 88.429 C 120.400 88.193,119.871 88.000,119.224 88.000 C 118.577 88.000,117.936 87.820,117.800 87.600 C 117.664 87.380,117.023 87.200,116.376 87.200 C 115.729 87.200,115.200 87.020,115.200 86.800 C 115.200 86.580,114.480 86.400,113.600 86.400 C 112.720 86.400,112.000 86.220,112.000 86.000 C 112.000 85.780,111.100 85.600,110.000 85.600 C 108.900 85.600,108.000 85.420,108.000 85.200 C 108.000 84.975,106.875 84.800,105.424 84.800 C 104.007 84.800,102.736 84.620,102.600 84.400 C 102.445 84.149,98.270 84.000,91.400 84.000 C 84.530 84.000,80.355 84.149,80.200 84.400 C 80.064 84.620,78.793 84.800,77.376 84.800 C 75.925 84.800,74.800 84.975,74.800 85.200 C 74.800 85.420,73.900 85.600,72.800 85.600 C 71.700 85.600,70.800 85.780,70.800 86.000 C 70.800 86.220,70.080 86.400,69.200 86.400 C 68.320 86.400,67.600 86.580,67.600 86.800 C 67.600 87.020,67.060 87.200,66.400 87.200 C 65.740 87.200,65.200 87.380,65.200 87.600 C 65.200 87.820,64.581 88.000,63.824 88.000 C 63.067 88.000,62.336 88.180,62.200 88.400 C 62.064 88.620,61.513 88.800,60.976 88.800 C 60.439 88.800,60.000 88.980,60.000 89.200 C 60.000 89.420,59.640 89.600,59.200 89.600 C 58.760 89.600,58.400 89.780,58.400 90.000 C 58.400 90.220,57.860 90.400,57.200 90.400 C 56.540 90.400,56.000 90.580,56.000 90.800 C 56.000 91.020,55.651 91.200,55.224 91.200 C 54.797 91.200,54.345 91.366,54.219 91.569 C 54.094 91.772,53.408 92.062,52.695 92.213 C 51.315 92.505,48.289 94.000,48.067 94.500 C 47.993 94.665,47.588 94.800,47.167 94.800 C 46.745 94.800,46.400 94.936,46.400 95.102 C 46.400 95.269,45.815 95.664,45.100 95.980 C 44.385 96.297,43.451 96.880,43.025 97.278 C 42.598 97.675,42.013 98.000,41.725 98.000 C 41.436 98.000,41.200 98.150,41.200 98.332 C 41.200 98.515,40.705 98.919,40.100 99.230 C 39.495 99.540,38.709 100.111,38.353 100.497 C 37.997 100.884,37.484 101.200,37.214 101.200 C 36.943 101.200,36.217 101.740,35.600 102.400 C 34.983 103.060,34.314 103.600,34.112 103.600 C 33.106 103.600,19.200 117.444,19.200 118.445 C 19.200 118.684,18.660 119.383,18.000 120.000 C 17.340 120.617,16.800 121.320,16.800 121.564 C 16.800 121.808,16.260 122.572,15.600 123.263 C 14.940 123.954,14.400 124.762,14.400 125.059 C 14.400 125.357,14.220 125.600,14.000 125.600 C 13.780 125.600,13.600 125.788,13.600 126.017 C 13.600 126.246,13.240 126.820,12.800 127.292 C 12.360 127.764,12.000 128.387,12.000 128.675 C 12.000 128.964,11.820 129.200,11.600 129.200 C 11.380 129.200,11.200 129.545,11.200 129.967 C 11.200 130.388,11.043 130.793,10.851 130.867 C 10.379 131.047,8.400 135.019,8.400 135.787 C 8.400 136.124,8.220 136.400,8.000 136.400 C 7.780 136.400,7.600 136.940,7.600 137.600 C 7.600 138.260,7.420 138.800,7.200 138.800 C 6.980 138.800,6.800 139.160,6.800 139.600 C 6.800 140.040,6.620 140.400,6.400 140.400 C 6.180 140.400,6.000 140.760,6.000 141.200 C 6.000 141.640,5.820 142.000,5.600 142.000 C 5.380 142.000,5.200 142.450,5.200 143.000 C 5.200 143.550,5.020 144.000,4.800 144.000 C 4.580 144.000,4.400 144.540,4.400 145.200 C 4.400 145.860,4.220 146.400,4.000 146.400 C 3.780 146.400,3.600 146.940,3.600 147.600 C 3.600 148.260,3.420 148.800,3.200 148.800 C 2.980 148.800,2.800 149.419,2.800 150.176 C 2.800 150.933,2.620 151.664,2.400 151.800 C 2.180 151.936,2.000 152.757,2.000 153.624 C 2.000 154.491,1.820 155.200,1.600 155.200 C 1.380 155.200,1.200 155.884,1.200 156.720 C 1.200 157.556,0.975 158.465,0.700 158.740 C -0.028 159.468,-0.028 192.857,0.700 193.100 C 0.998 193.199,1.200 193.971,1.200 195.010 C 1.200 195.968,1.380 196.864,1.600 197.000 C 1.820 197.136,2.000 197.856,2.000 198.600 C 2.000 199.344,2.180 200.064,2.400 200.200 C 2.620 200.336,2.800 200.977,2.800 201.624 C 2.800 202.271,2.980 202.800,3.200 202.800 C 3.420 202.800,3.600 203.340,3.600 204.000 C 3.600 204.660,3.780 205.200,4.000 205.200 C 4.220 205.200,4.400 205.740,4.400 206.400 C 4.400 207.060,4.580 207.600,4.800 207.600 C 5.020 207.600,5.200 208.050,5.200 208.600 C 5.200 209.150,5.380 209.600,5.600 209.600 C 5.820 209.600,6.000 209.949,6.000 210.376 C 6.000 210.803,6.180 211.264,6.400 211.400 C 6.620 211.536,6.800 212.087,6.800 212.624 C 6.800 213.161,6.980 213.600,7.200 213.600 C 7.420 213.600,7.600 213.960,7.600 214.400 C 7.600 214.840,7.780 215.200,8.000 215.200 C 8.220 215.200,8.400 215.485,8.400 215.832 C 8.400 216.473,11.057 222.032,11.540 222.400 C 11.683 222.510,12.070 223.140,12.398 223.800 C 12.726 224.460,13.311 225.291,13.697 225.647 C 14.084 226.003,14.400 226.548,14.400 226.859 C 14.400 227.169,14.760 227.683,15.200 228.000 C 15.640 228.317,16.000 228.825,16.000 229.128 C 16.000 229.431,16.540 230.183,17.200 230.800 C 17.860 231.417,18.400 232.133,18.400 232.392 C 18.400 232.651,19.081 233.524,19.913 234.331 C 20.745 235.139,21.834 236.380,22.332 237.089 C 23.567 238.844,28.282 243.580,30.000 244.789 C 30.770 245.331,32.061 246.455,32.869 247.287 C 33.676 248.119,34.549 248.800,34.808 248.800 C 35.067 248.800,35.783 249.340,36.400 250.000 C 37.017 250.660,37.769 251.200,38.072 251.200 C 38.375 251.200,38.883 251.560,39.200 252.000 C 39.517 252.440,40.057 252.800,40.400 252.800 C 40.743 252.800,41.283 253.160,41.600 253.600 C 41.917 254.040,42.334 254.400,42.527 254.400 C 42.719 254.400,43.354 254.738,43.938 255.152 C 45.721 256.415,50.525 258.800,51.284 258.800 C 51.678 258.800,52.000 258.980,52.000 259.200 C 52.000 259.420,52.360 259.600,52.800 259.600 C 53.240 259.600,53.600 259.780,53.600 260.000 C 53.600 260.220,53.949 260.400,54.376 260.400 C 54.803 260.400,55.264 260.580,55.400 260.800 C 55.536 261.020,56.087 261.200,56.624 261.200 C 57.161 261.200,57.600 261.380,57.600 261.600 C 57.600 261.820,57.949 262.000,58.376 262.000 C 58.803 262.000,59.264 262.180,59.400 262.400 C 59.536 262.620,60.087 262.800,60.624 262.800 C 61.161 262.800,61.600 262.980,61.600 263.200 C 61.600 263.420,62.129 263.600,62.776 263.600 C 63.423 263.600,64.064 263.780,64.200 264.000 C 64.336 264.220,64.977 264.400,65.624 264.400 C 66.271 264.400,66.800 264.580,66.800 264.800 C 66.800 265.020,67.520 265.200,68.400 265.200 C 69.280 265.200,70.000 265.380,70.000 265.600 C 70.000 265.820,70.900 266.000,72.000 266.000 C 73.100 266.000,74.000 266.180,74.000 266.400 C 74.000 266.620,74.979 266.800,76.176 266.800 C 77.373 266.800,78.464 266.980,78.600 267.200 C 78.743 267.432,80.937 267.600,83.824 267.600 C 86.875 267.600,88.800 267.755,88.800 268.000 C 88.800 268.265,116.133 268.400,170.000 268.400 C 223.867 268.400,251.200 268.265,251.200 268.000 C 251.200 267.780,251.920 267.600,252.800 267.600 C 253.680 267.600,254.400 267.464,254.400 267.298 C 254.400 267.131,254.930 266.761,255.577 266.474 C 256.224 266.188,256.988 265.424,257.274 264.777 C 257.561 264.130,257.911 263.600,258.053 263.600 C 258.697 263.600,258.827 260.700,258.224 259.781 C 257.881 259.257,257.600 258.458,257.600 258.006 C 257.600 256.821,255.861 254.240,254.322 253.143 L 253.000 252.200 168.000 251.981 C 76.446 251.746,82.757 251.889,73.600 249.840 C 65.429 248.011,53.625 242.640,47.400 237.918 C 41.123 233.157,35.313 227.630,31.931 223.200 C 28.827 219.135,28.000 217.957,28.000 217.597 C 28.000 217.378,27.820 217.200,27.600 217.200 C 27.380 217.200,27.200 217.007,27.200 216.772 C 27.200 216.537,26.693 215.592,26.073 214.672 C 14.231 197.111,12.245 167.333,21.494 146.000 C 23.696 140.920,28.666 132.262,29.989 131.200 C 30.126 131.090,30.676 130.370,31.210 129.600 C 35.390 123.575,45.087 114.905,52.400 110.653 C 86.801 90.651,128.207 99.048,152.726 131.000 C 155.704 134.880,160.229 143.201,162.407 148.800 C 165.137 155.817,171.230 157.734,175.800 153.013 C 177.325 151.438,177.954 146.473,176.902 144.306 C 176.660 143.808,176.135 142.590,175.735 141.600 C 168.549 123.810,154.019 107.024,137.500 97.428 C 136.455 96.821,135.600 96.060,135.600 95.736 C 135.600 95.213,141.725 85.699,142.383 85.200 C 142.528 85.090,142.915 84.606,143.244 84.124 C 146.701 79.056,158.045 68.055,164.000 63.993 C 164.770 63.468,165.490 62.914,165.600 62.761 C 165.920 62.317,172.328 58.429,175.600 56.693 C 177.250 55.818,178.780 54.979,179.000 54.828 C 181.164 53.347,194.828 48.383,199.400 47.418 C 200.060 47.278,201.320 46.980,202.200 46.754 C 203.972 46.300,206.493 45.859,211.600 45.108 C 215.959 44.468,234.719 44.467,238.800 45.107 C 249.691 46.814,254.656 48.138,264.070 51.842 C 269.164 53.846,276.949 57.841,280.062 60.047 C 280.646 60.461,281.321 60.800,281.562 60.800 C 281.803 60.800,282.000 60.950,282.000 61.132 C 282.000 61.315,282.492 61.720,283.094 62.032 C 283.696 62.345,284.461 62.815,284.794 63.078 C 285.127 63.341,286.324 64.241,287.454 65.078 C 297.450 72.486,307.720 83.927,314.291 94.975 C 316.798 99.189,321.200 108.017,321.200 108.829 C 321.200 109.039,321.408 109.613,321.662 110.105 C 322.649 112.014,322.800 112.413,322.800 113.115 C 322.800 113.514,322.949 114.011,323.130 114.220 C 323.312 114.429,323.693 115.410,323.976 116.400 C 324.259 117.390,324.637 118.560,324.815 119.000 C 324.994 119.440,325.251 120.340,325.388 121.000 C 325.524 121.660,325.818 122.920,326.040 123.800 C 327.123 128.092,327.932 132.861,328.336 137.341 C 328.659 140.931,328.236 141.600,325.639 141.600 C 324.879 141.600,323.704 141.768,323.028 141.973 C 322.353 142.178,320.990 142.562,320.000 142.826 C 310.686 145.314,301.066 150.448,299.578 153.725 C 296.074 161.442,304.069 167.126,311.811 162.422 C 313.280 161.530,314.548 160.800,314.629 160.800 C 314.710 160.800,315.739 160.360,316.915 159.822 C 325.287 155.992,338.004 154.588,346.200 156.588 C 347.740 156.963,349.497 157.366,350.105 157.482 C 350.713 157.597,351.308 157.851,351.429 158.046 C 351.549 158.241,351.999 158.400,352.429 158.400 C 352.859 158.400,353.523 158.561,353.905 158.758 C 354.287 158.955,355.860 159.716,357.400 160.450 C 358.940 161.184,360.290 161.878,360.400 161.993 C 360.510 162.107,361.057 162.436,361.616 162.723 C 377.601 170.936,387.677 194.243,383.604 213.584 C 381.674 222.743,376.244 232.696,370.211 238.131 C 369.765 238.533,368.770 239.443,368.000 240.153 C 364.375 243.495,357.429 247.478,352.000 249.328 C 345.476 251.551,344.174 251.686,326.600 251.952 L 310.200 252.200 308.769 253.169 C 306.964 254.391,305.600 256.447,305.600 257.945 C 305.600 258.582,305.330 259.326,305.000 259.600 C 304.334 260.153,304.169 262.800,304.800 262.800 C 305.020 262.800,305.200 263.076,305.200 263.413 C 305.200 264.750,308.872 267.600,310.595 267.600 C 311.148 267.600,311.600 267.780,311.600 268.000 C 311.600 268.259,316.467 268.400,325.400 268.400 C 334.333 268.400,339.200 268.259,339.200 268.000 C 339.200 267.760,340.800 267.600,343.200 267.600 C 345.600 267.600,347.200 267.440,347.200 267.200 C 347.200 266.980,348.100 266.800,349.200 266.800 C 350.300 266.800,351.200 266.620,351.200 266.400 C 351.200 266.180,351.920 266.000,352.800 266.000 C 353.680 266.000,354.400 265.820,354.400 265.600 C 354.400 265.380,354.940 265.200,355.600 265.200 C 356.260 265.200,356.800 265.020,356.800 264.800 C 356.800 264.580,357.250 264.400,357.800 264.400 C 358.350 264.400,358.800 264.220,358.800 264.000 C 358.800 263.780,359.340 263.600,360.000 263.600 C 360.660 263.600,361.200 263.420,361.200 263.200 C 361.200 262.980,361.560 262.800,362.000 262.800 C 362.440 262.800,362.800 262.620,362.800 262.400 C 362.800 262.180,363.160 262.000,363.600 262.000 C 364.040 262.000,364.400 261.820,364.400 261.600 C 364.400 261.380,364.760 261.200,365.200 261.200 C 365.640 261.200,366.000 261.020,366.000 260.800 C 366.000 260.580,366.360 260.400,366.800 260.400 C 367.240 260.400,367.600 260.220,367.600 260.000 C 367.600 259.780,367.960 259.600,368.400 259.600 C 368.840 259.600,369.200 259.420,369.200 259.200 C 369.200 258.980,369.427 258.800,369.704 258.800 C 370.457 258.800,375.420 255.374,377.275 253.574 C 378.167 252.708,379.059 252.000,379.257 252.000 C 379.751 252.000,383.587 248.117,384.789 246.400 C 385.328 245.630,386.230 244.550,386.792 244.000 C 388.106 242.716,391.602 237.554,391.601 236.900 C 391.600 236.625,391.780 236.400,392.000 236.400 C 392.220 236.400,392.400 236.040,392.400 235.600 C 392.400 235.160,392.580 234.800,392.800 234.800 C 393.020 234.800,393.200 234.440,393.200 234.000 C 393.200 233.560,393.380 233.200,393.600 233.200 C 393.820 233.200,394.000 232.840,394.000 232.400 C 394.000 231.960,394.180 231.600,394.400 231.600 C 394.620 231.600,394.800 231.240,394.800 230.800 C 394.800 230.360,394.980 230.000,395.200 230.000 C 395.420 230.000,395.600 229.640,395.600 229.200 C 395.600 228.760,395.780 228.400,396.000 228.400 C 396.220 228.400,396.400 227.860,396.400 227.200 C 396.400 226.540,396.580 226.000,396.800 226.000 C 397.020 226.000,397.200 225.561,397.200 225.024 C 397.200 224.487,397.380 223.936,397.600 223.800 C 397.820 223.664,398.000 223.124,398.000 222.600 C 398.000 222.076,398.180 221.536,398.400 221.400 C 398.620 221.264,398.800 220.548,398.800 219.810 C 398.800 219.071,399.025 218.392,399.300 218.300 C 400.028 218.057,400.028 189.943,399.300 189.700 C 399.013 189.605,398.800 188.864,398.800 187.967 C 398.800 187.105,398.620 186.400,398.400 186.400 C 398.180 186.400,398.000 185.781,398.000 185.024 C 398.000 184.267,397.820 183.536,397.600 183.400 C 397.380 183.264,397.200 182.713,397.200 182.176 C 397.200 181.639,397.020 181.200,396.800 181.200 C 396.580 181.200,396.400 180.750,396.400 180.200 C 396.400 179.650,396.220 179.200,396.000 179.200 C 395.780 179.200,395.600 178.851,395.600 178.424 C 395.600 177.997,395.420 177.536,395.200 177.400 C 394.980 177.264,394.800 176.803,394.800 176.376 C 394.800 175.949,394.620 175.600,394.400 175.600 C 394.180 175.600,394.000 175.240,394.000 174.800 C 394.000 174.360,393.820 174.000,393.600 174.000 C 393.380 174.000,393.200 173.680,393.200 173.288 C 393.200 172.897,392.840 172.317,392.400 172.000 C 391.960 171.683,391.600 171.184,391.600 170.892 C 391.600 170.159,390.472 168.044,389.557 167.062 C 389.141 166.615,388.800 166.079,388.800 165.871 C 388.800 165.664,388.485 165.203,388.100 164.847 C 387.715 164.491,386.780 163.389,386.023 162.400 C 385.266 161.410,384.108 160.150,383.449 159.600 C 382.791 159.050,381.119 157.475,379.734 156.100 C 378.348 154.725,377.014 153.600,376.768 153.600 C 376.522 153.600,375.817 153.060,375.200 152.400 C 374.583 151.740,373.881 151.200,373.640 151.200 C 373.398 151.200,373.200 151.050,373.200 150.868 C 373.200 150.685,372.705 150.280,372.100 149.968 C 371.495 149.655,370.651 149.085,370.225 148.700 C 369.798 148.315,369.213 148.000,368.925 148.000 C 368.636 148.000,368.400 147.820,368.400 147.600 C 368.400 147.380,368.040 147.200,367.600 147.200 C 367.160 147.200,366.800 147.020,366.800 146.800 C 366.800 146.580,366.440 146.400,366.000 146.400 C 365.560 146.400,365.200 146.220,365.200 146.000 C 365.200 145.780,364.840 145.600,364.400 145.600 C 363.960 145.600,363.600 145.420,363.600 145.200 C 363.600 144.980,363.251 144.800,362.824 144.800 C 362.397 144.800,361.936 144.620,361.800 144.400 C 361.664 144.180,361.113 144.000,360.576 144.000 C 360.039 144.000,359.600 143.860,359.600 143.689 C 359.600 143.315,355.319 142.000,354.104 142.000 C 353.633 142.000,353.136 141.820,353.000 141.600 C 352.864 141.380,351.863 141.200,350.776 141.200 C 349.689 141.200,348.800 141.020,348.800 140.800 C 348.800 140.580,347.900 140.400,346.800 140.400 L 344.800 140.400 344.800 138.400 C 344.800 137.300,344.620 136.400,344.400 136.400 C 344.167 136.400,344.000 135.067,344.000 133.200 C 344.000 131.333,343.833 130.000,343.600 130.000 C 343.380 130.000,343.200 129.010,343.200 127.800 C 343.200 126.590,343.020 125.600,342.800 125.600 C 342.580 125.600,342.400 124.700,342.400 123.600 C 342.400 122.500,342.246 121.600,342.057 121.600 C 341.868 121.600,341.597 120.485,341.455 119.123 C 341.219 116.866,340.815 115.182,339.985 113.000 C 339.817 112.560,339.257 110.806,338.740 109.102 C 338.223 107.398,337.665 106.003,337.500 106.002 C 337.335 106.001,337.200 105.460,337.200 104.800 C 337.200 104.140,337.020 103.600,336.800 103.600 C 336.580 103.600,336.400 103.240,336.400 102.800 C 336.400 102.360,336.220 102.000,336.000 102.000 C 335.780 102.000,335.600 101.561,335.600 101.024 C 335.600 100.487,335.420 99.936,335.200 99.800 C 334.980 99.664,334.800 99.203,334.800 98.776 C 334.800 98.349,334.620 98.000,334.400 98.000 C 334.180 98.000,334.000 97.640,334.000 97.200 C 334.000 96.760,333.820 96.400,333.600 96.400 C 333.380 96.400,333.200 96.040,333.200 95.600 C 333.200 95.160,333.020 94.800,332.800 94.800 C 332.580 94.800,332.400 94.440,332.400 94.000 C 332.400 93.560,332.220 93.200,332.000 93.200 C 331.780 93.200,331.600 92.930,331.600 92.600 C 331.600 92.270,331.420 92.000,331.200 92.000 C 330.980 92.000,330.800 91.640,330.800 91.200 C 330.800 90.760,330.620 90.400,330.400 90.400 C 330.180 90.400,330.000 90.122,330.000 89.783 C 330.000 89.444,329.640 88.780,329.200 88.308 C 328.760 87.836,328.400 87.213,328.400 86.925 C 328.400 86.636,328.220 86.400,328.000 86.400 C 327.780 86.400,327.600 86.080,327.600 85.688 C 327.600 85.297,327.240 84.717,326.800 84.400 C 326.360 84.083,326.000 83.503,326.000 83.112 C 326.000 82.720,325.820 82.400,325.600 82.400 C 325.380 82.400,325.200 82.144,325.200 81.831 C 325.200 81.518,324.750 80.727,324.200 80.073 C 323.650 79.419,323.200 78.765,323.200 78.619 C 323.200 78.238,320.797 75.203,319.500 73.945 C 318.895 73.359,318.400 72.697,318.400 72.474 C 318.400 72.252,317.361 71.015,316.092 69.725 C 314.822 68.436,313.338 66.756,312.794 65.991 C 311.784 64.573,307.866 60.741,305.766 59.118 C 305.125 58.622,303.939 57.538,303.131 56.708 C 302.324 55.879,301.490 55.200,301.280 55.200 C 301.069 55.200,300.155 54.480,299.248 53.600 C 298.341 52.720,297.418 52.000,297.196 52.000 C 296.974 52.000,296.228 51.460,295.537 50.800 C 294.846 50.140,294.078 49.600,293.829 49.600 C 293.580 49.600,293.117 49.240,292.800 48.800 C 292.483 48.360,292.027 48.000,291.787 48.000 C 291.547 48.000,291.002 47.675,290.575 47.278 C 290.149 46.880,289.215 46.297,288.500 45.980 C 287.785 45.664,287.200 45.290,287.200 45.150 C 287.200 45.010,285.805 44.210,284.100 43.373 C 282.395 42.536,280.940 41.704,280.867 41.525 C 280.793 41.346,280.514 41.200,280.246 41.200 C 279.537 41.200,277.607 40.251,277.603 39.900 C 277.601 39.735,277.276 39.600,276.880 39.600 C 275.986 39.600,274.007 38.706,274.003 38.300 C 274.001 38.135,273.640 38.000,273.200 38.000 C 272.760 38.000,272.400 37.820,272.400 37.600 C 272.400 37.380,271.950 37.200,271.400 37.200 C 270.850 37.200,270.400 37.020,270.400 36.800 C 270.400 36.580,269.950 36.400,269.400 36.400 C 268.850 36.400,268.400 36.220,268.400 36.000 C 268.400 35.780,267.860 35.600,267.200 35.600 C 266.540 35.600,266.000 35.420,266.000 35.200 C 266.000 34.980,265.561 34.800,265.024 34.800 C 264.487 34.800,263.936 34.620,263.800 34.400 C 263.664 34.180,263.023 34.000,262.376 34.000 C 261.729 34.000,261.200 33.820,261.200 33.600 C 261.200 33.380,260.660 33.200,260.000 33.200 C 259.340 33.200,258.800 33.020,258.800 32.800 C 258.800 32.580,258.170 32.400,257.400 32.400 C 256.630 32.400,256.000 32.220,256.000 32.000 C 256.000 31.780,255.280 31.600,254.400 31.600 C 253.520 31.600,252.800 31.420,252.800 31.200 C 252.800 30.980,252.080 30.800,251.200 30.800 C 250.320 30.800,249.600 30.620,249.600 30.400 C 249.600 30.180,248.621 30.000,247.424 30.000 C 246.227 30.000,245.136 29.820,245.000 29.600 C 244.864 29.380,243.629 29.200,242.256 29.200 C 240.883 29.200,239.589 29.030,239.380 28.822 C 239.171 28.614,236.570 28.350,233.600 28.236 C 230.630 28.121,226.760 27.927,225.000 27.804 C 223.116 27.672,221.553 27.747,221.200 27.984 M279.400 252.270 C 276.956 252.952,274.400 255.737,274.400 257.718 C 274.400 258.229,274.136 258.996,273.813 259.424 C 273.148 260.303,272.990 262.800,273.600 262.800 C 273.820 262.800,274.000 263.075,274.000 263.411 C 274.000 264.192,276.358 266.800,277.064 266.800 C 277.359 266.800,277.600 266.980,277.600 267.200 C 277.600 267.420,278.129 267.600,278.776 267.600 C 279.423 267.600,280.064 267.780,280.200 268.000 C 280.336 268.220,280.887 268.400,281.424 268.400 C 281.961 268.400,282.400 268.220,282.400 268.000 C 282.400 267.780,283.120 267.600,284.000 267.600 C 284.880 267.600,285.600 267.420,285.600 267.200 C 285.600 266.980,285.878 266.800,286.218 266.800 C 287.018 266.800,288.800 265.018,288.800 264.218 C 288.800 263.878,288.936 263.600,289.102 263.600 C 289.958 263.600,290.316 260.676,289.559 259.864 C 289.142 259.416,288.787 258.588,288.771 258.025 C 288.666 254.358,283.434 251.145,279.400 252.270 M78.600 290.924 C 78.160 291.186,77.125 292.090,76.300 292.934 L 74.800 294.467 74.800 304.834 C 74.800 310.535,74.654 315.200,74.475 315.200 C 74.297 315.200,73.764 314.840,73.292 314.400 C 72.820 313.960,72.246 313.600,72.017 313.600 C 71.788 313.600,71.600 313.441,71.600 313.247 C 71.600 313.052,71.285 312.793,70.900 312.671 C 70.253 312.466,68.398 311.413,67.417 310.694 C 65.949 309.619,63.904 308.400,63.566 308.400 C 63.346 308.400,62.780 308.040,62.308 307.600 C 61.836 307.160,61.213 306.800,60.925 306.800 C 60.636 306.800,60.400 306.620,60.400 306.400 C 60.400 306.180,60.040 306.000,59.600 306.000 C 59.160 306.000,58.800 305.820,58.800 305.600 C 58.800 305.361,57.267 305.200,55.000 305.200 C 52.733 305.200,51.200 305.361,51.200 305.600 C 51.200 305.820,50.975 306.000,50.700 306.000 C 49.925 306.001,48.000 307.816,48.000 308.547 C 48.000 308.906,47.820 309.200,47.600 309.200 C 47.380 309.200,47.200 309.549,47.200 309.976 C 47.200 310.403,47.020 310.864,46.800 311.000 C 46.580 311.136,46.400 312.216,46.400 313.400 C 46.400 314.584,46.580 315.664,46.800 315.800 C 47.020 315.936,47.200 316.397,47.200 316.824 C 47.200 317.251,47.380 317.600,47.600 317.600 C 47.820 317.600,48.000 317.894,48.000 318.253 C 48.000 318.891,49.886 320.799,50.517 320.800 C 50.691 320.800,51.220 321.160,51.692 321.600 C 52.164 322.040,52.787 322.400,53.075 322.400 C 53.364 322.400,53.600 322.549,53.600 322.730 C 53.600 322.912,54.680 323.587,55.999 324.230 C 57.319 324.874,58.399 325.535,58.399 325.700 C 58.400 325.865,58.670 326.000,59.000 326.000 C 59.330 326.000,59.600 326.150,59.600 326.332 C 59.600 326.515,60.095 326.920,60.700 327.232 C 61.305 327.545,62.149 328.115,62.575 328.500 C 63.002 328.885,63.587 329.200,63.875 329.200 C 64.164 329.200,64.400 329.359,64.400 329.553 C 64.400 329.748,64.760 330.001,65.200 330.116 C 66.081 330.346,66.314 331.600,65.475 331.600 C 65.187 331.600,64.564 331.960,64.092 332.400 C 63.620 332.840,63.080 333.200,62.892 333.200 C 62.704 333.200,62.202 333.515,61.775 333.900 C 61.349 334.285,60.460 334.869,59.800 335.197 C 59.140 335.526,58.309 336.111,57.953 336.497 C 57.597 336.884,57.052 337.200,56.741 337.200 C 56.431 337.200,55.917 337.560,55.600 338.000 C 55.283 338.440,54.743 338.800,54.400 338.800 C 54.057 338.800,53.517 339.160,53.200 339.600 C 52.883 340.040,52.386 340.400,52.095 340.400 C 51.804 340.400,51.180 340.760,50.708 341.200 C 50.236 341.640,49.658 342.002,49.425 342.005 C 48.897 342.011,47.200 344.579,47.200 345.371 C 47.200 345.691,47.020 346.064,46.800 346.200 C 46.279 346.522,46.279 350.678,46.800 351.000 C 47.020 351.136,47.200 351.597,47.200 352.024 C 47.200 352.451,47.380 352.800,47.600 352.800 C 47.820 352.800,48.000 353.094,48.000 353.453 C 48.000 354.184,49.925 355.999,50.700 356.000 C 50.975 356.000,51.200 356.156,51.200 356.347 C 51.200 356.670,53.834 357.269,55.200 357.257 C 56.854 357.242,60.400 356.046,60.400 355.502 C 60.400 355.336,60.720 355.200,61.112 355.200 C 61.503 355.200,62.083 354.840,62.400 354.400 C 62.717 353.960,63.297 353.600,63.688 353.600 C 64.080 353.600,64.400 353.442,64.400 353.249 C 64.400 353.055,64.940 352.673,65.600 352.400 C 66.260 352.127,66.800 351.745,66.800 351.551 C 66.800 351.358,67.036 351.200,67.325 351.200 C 67.613 351.200,68.236 350.840,68.708 350.400 C 69.180 349.960,69.804 349.600,70.095 349.600 C 70.386 349.600,70.883 349.240,71.200 348.800 C 71.517 348.360,72.014 348.000,72.305 348.000 C 72.596 348.000,73.231 347.629,73.717 347.177 L 74.600 346.353 74.800 356.877 C 75.003 367.544,75.397 369.985,76.917 369.997 C 77.091 369.999,77.620 370.360,78.092 370.800 C 78.564 371.240,79.459 371.600,80.081 371.600 C 80.702 371.600,81.568 371.823,82.005 372.096 C 82.638 372.491,82.962 372.491,83.595 372.096 C 84.032 371.823,84.898 371.600,85.519 371.600 C 86.141 371.600,87.036 371.240,87.508 370.800 C 87.980 370.360,88.542 370.000,88.756 370.000 C 88.971 370.000,89.260 369.640,89.400 369.200 C 89.540 368.760,89.793 368.400,89.963 368.400 C 90.938 368.400,91.200 365.891,91.200 356.559 L 91.200 346.755 92.488 347.477 C 93.196 347.875,94.130 348.515,94.563 348.900 C 94.997 349.285,95.504 349.600,95.692 349.600 C 95.880 349.600,96.420 349.960,96.892 350.400 C 97.364 350.840,97.987 351.200,98.275 351.200 C 98.564 351.200,98.800 351.380,98.800 351.600 C 98.800 351.820,99.120 352.000,99.512 352.000 C 99.903 352.000,100.483 352.360,100.800 352.800 C 101.117 353.240,101.657 353.600,102.000 353.600 C 102.343 353.600,102.883 353.960,103.200 354.400 C 103.517 354.840,104.097 355.200,104.488 355.200 C 104.880 355.200,105.200 355.336,105.200 355.502 C 105.200 356.046,108.746 357.242,110.400 357.257 C 111.766 357.269,114.400 356.670,114.400 356.347 C 114.400 356.156,114.625 356.000,114.900 356.000 C 115.675 355.999,117.600 354.184,117.600 353.453 C 117.600 353.094,117.780 352.800,118.000 352.800 C 118.220 352.800,118.400 352.451,118.400 352.024 C 118.400 351.597,118.580 351.136,118.800 351.000 C 119.323 350.677,119.323 346.000,118.800 346.000 C 118.580 346.000,118.400 345.550,118.400 345.000 C 118.400 344.450,118.220 344.000,118.000 344.000 C 117.780 344.000,117.600 343.807,117.600 343.571 C 117.600 343.014,116.869 342.339,115.500 341.632 C 114.895 341.320,114.400 340.915,114.400 340.732 C 114.400 340.550,114.164 340.400,113.875 340.400 C 113.587 340.400,112.964 340.040,112.492 339.600 C 112.020 339.160,111.396 338.800,111.105 338.800 C 110.814 338.800,110.317 338.440,110.000 338.000 C 109.683 337.560,109.193 337.200,108.912 337.200 C 108.630 337.200,108.400 337.020,108.400 336.800 C 108.400 336.580,108.130 336.400,107.800 336.400 C 107.470 336.400,107.200 336.220,107.200 336.000 C 107.200 335.780,106.930 335.600,106.600 335.600 C 106.270 335.600,106.000 335.420,106.000 335.200 C 106.000 334.980,105.680 334.800,105.288 334.800 C 104.897 334.800,104.317 334.440,104.000 334.000 C 103.683 333.560,103.143 333.200,102.800 333.200 C 102.457 333.200,101.917 332.840,101.600 332.400 C 101.283 331.960,100.703 331.600,100.312 331.600 C 99.336 331.600,99.409 330.375,100.400 330.116 C 100.840 330.001,101.200 329.748,101.200 329.553 C 101.200 329.359,101.436 329.200,101.725 329.200 C 102.013 329.200,102.636 328.840,103.108 328.400 C 103.580 327.960,104.178 327.600,104.436 327.600 C 104.695 327.600,105.197 327.283,105.553 326.894 C 105.909 326.506,106.917 325.831,107.794 325.394 C 108.671 324.958,109.617 324.387,109.896 324.126 C 110.176 323.866,110.764 323.538,111.202 323.399 C 111.641 323.260,112.000 322.978,112.000 322.773 C 112.000 322.568,112.236 322.400,112.525 322.400 C 112.813 322.400,113.436 322.040,113.908 321.600 C 114.380 321.160,114.909 320.800,115.083 320.800 C 115.714 320.799,117.600 318.891,117.600 318.253 C 117.600 317.894,117.780 317.600,118.000 317.600 C 118.220 317.600,118.400 317.240,118.400 316.800 C 118.400 316.360,118.580 316.000,118.800 316.000 C 119.294 316.000,119.332 311.848,118.847 310.895 C 118.652 310.513,118.248 309.660,117.949 309.000 C 117.338 307.652,115.660 306.001,114.900 306.000 C 114.625 306.000,114.400 305.820,114.400 305.600 C 114.400 305.361,112.867 305.200,110.600 305.200 C 108.333 305.200,106.800 305.361,106.800 305.600 C 106.800 305.820,106.522 306.000,106.183 306.000 C 105.844 306.000,105.180 306.360,104.708 306.800 C 104.236 307.240,103.613 307.600,103.325 307.600 C 103.036 307.600,102.800 307.780,102.800 308.000 C 102.800 308.220,102.538 308.400,102.218 308.400 C 101.690 308.400,99.322 309.782,98.117 310.794 C 97.851 311.017,97.480 311.200,97.292 311.200 C 97.105 311.200,96.602 311.515,96.175 311.900 C 95.749 312.285,94.908 312.854,94.307 313.164 C 93.705 313.474,92.858 314.059,92.423 314.464 C 91.989 314.869,91.536 315.200,91.417 315.200 C 91.298 315.200,91.200 310.781,91.200 305.380 C 91.200 293.882,91.023 293.288,86.879 290.900 C 85.773 290.263,79.680 290.280,78.600 290.924 M195.825 290.924 C 191.863 293.358,191.605 294.274,191.602 305.912 L 191.600 315.224 188.618 313.212 C 186.978 312.105,185.530 311.200,185.401 311.200 C 185.272 311.200,184.949 311.017,184.683 310.794 C 183.664 309.939,181.146 308.400,180.766 308.400 C 180.546 308.400,179.980 308.040,179.508 307.600 C 179.036 307.160,178.413 306.800,178.125 306.800 C 177.836 306.800,177.600 306.620,177.600 306.400 C 177.600 306.180,177.240 306.000,176.800 306.000 C 176.360 306.000,176.000 305.820,176.000 305.600 C 176.000 305.361,174.467 305.200,172.200 305.200 C 169.933 305.200,168.400 305.361,168.400 305.600 C 168.400 305.820,168.175 306.000,167.900 306.000 C 167.125 306.001,165.200 307.816,165.200 308.547 C 165.200 308.906,165.020 309.200,164.800 309.200 C 164.580 309.200,164.400 309.549,164.400 309.976 C 164.400 310.403,164.220 310.864,164.000 311.000 C 163.780 311.136,163.600 312.317,163.600 313.624 C 163.600 314.941,163.778 316.000,164.000 316.000 C 164.220 316.000,164.400 316.360,164.400 316.800 C 164.400 317.240,164.580 317.600,164.800 317.600 C 165.020 317.600,165.200 317.878,165.200 318.218 C 165.200 318.923,166.943 320.800,167.599 320.800 C 167.838 320.800,168.420 321.160,168.892 321.600 C 169.364 322.040,169.987 322.400,170.275 322.400 C 170.564 322.400,170.800 322.549,170.800 322.730 C 170.800 322.912,171.880 323.587,173.199 324.230 C 174.519 324.874,175.599 325.535,175.599 325.700 C 175.600 325.865,175.870 326.000,176.200 326.000 C 176.530 326.000,176.800 326.150,176.800 326.332 C 176.800 326.515,177.295 326.920,177.900 327.232 C 178.505 327.545,179.349 328.115,179.775 328.500 C 180.202 328.885,180.787 329.200,181.075 329.200 C 181.364 329.200,181.600 329.359,181.600 329.553 C 181.600 329.748,181.960 330.001,182.400 330.116 C 183.281 330.346,183.514 331.600,182.675 331.600 C 182.387 331.600,181.764 331.960,181.292 332.400 C 180.820 332.840,180.196 333.200,179.905 333.200 C 179.614 333.200,179.117 333.560,178.800 334.000 C 178.483 334.440,177.903 334.800,177.512 334.800 C 177.120 334.800,176.800 334.980,176.800 335.200 C 176.800 335.420,176.570 335.600,176.288 335.600 C 176.007 335.600,175.517 335.960,175.200 336.400 C 174.883 336.840,174.343 337.200,174.000 337.200 C 173.657 337.200,173.117 337.560,172.800 338.000 C 172.483 338.440,171.943 338.800,171.600 338.800 C 171.257 338.800,170.717 339.160,170.400 339.600 C 170.083 340.040,169.503 340.400,169.112 340.400 C 168.720 340.400,168.400 340.550,168.400 340.732 C 168.400 340.915,167.905 341.320,167.300 341.632 C 165.931 342.339,165.200 343.014,165.200 343.571 C 165.200 343.807,165.020 344.000,164.800 344.000 C 164.580 344.000,164.400 344.439,164.400 344.976 C 164.400 345.513,164.220 346.064,164.000 346.200 C 163.780 346.336,163.600 347.416,163.600 348.600 C 163.600 349.784,163.780 350.864,164.000 351.000 C 164.220 351.136,164.400 351.597,164.400 352.024 C 164.400 352.451,164.580 352.800,164.800 352.800 C 165.020 352.800,165.200 353.094,165.200 353.453 C 165.200 354.184,167.125 355.999,167.900 356.000 C 168.175 356.000,168.400 356.156,168.400 356.347 C 168.400 356.670,171.034 357.269,172.400 357.257 C 174.054 357.242,177.600 356.046,177.600 355.502 C 177.600 355.336,177.920 355.200,178.312 355.200 C 178.703 355.200,179.283 354.840,179.600 354.400 C 179.917 353.960,180.414 353.600,180.705 353.600 C 180.996 353.600,181.620 353.240,182.092 352.800 C 182.564 352.360,183.187 352.000,183.475 352.000 C 183.764 352.000,184.000 351.820,184.000 351.600 C 184.000 351.380,184.236 351.200,184.525 351.200 C 184.813 351.200,185.436 350.840,185.908 350.400 C 186.380 349.960,186.978 349.600,187.236 349.600 C 187.495 349.600,187.997 349.285,188.353 348.900 C 188.709 348.515,189.571 347.883,190.270 347.495 L 191.539 346.791 191.671 356.895 C 191.805 367.268,192.295 369.886,194.117 369.983 C 194.291 369.992,194.820 370.360,195.292 370.800 C 195.764 371.240,196.659 371.600,197.281 371.600 C 197.902 371.600,198.768 371.823,199.205 372.096 C 199.838 372.491,200.162 372.491,200.795 372.096 C 201.232 371.823,202.098 371.600,202.719 371.600 C 203.341 371.600,204.236 371.240,204.708 370.800 C 205.180 370.360,205.742 370.000,205.956 370.000 C 206.171 370.000,206.460 369.640,206.600 369.200 C 206.740 368.760,206.993 368.400,207.163 368.400 C 208.138 368.400,208.400 365.891,208.400 356.559 L 208.400 346.755 209.688 347.477 C 210.396 347.875,211.330 348.515,211.763 348.900 C 212.197 349.285,212.704 349.600,212.892 349.600 C 213.080 349.600,213.620 349.960,214.092 350.400 C 214.564 350.840,215.187 351.200,215.475 351.200 C 215.764 351.200,216.000 351.380,216.000 351.600 C 216.000 351.820,216.320 352.000,216.712 352.000 C 217.103 352.000,217.683 352.360,218.000 352.800 C 218.317 353.240,218.857 353.600,219.200 353.600 C 219.543 353.600,220.083 353.960,220.400 354.400 C 220.717 354.840,221.297 355.200,221.688 355.200 C 222.080 355.200,222.400 355.336,222.400 355.502 C 222.400 356.046,225.946 357.242,227.600 357.257 C 228.966 357.269,231.600 356.670,231.600 356.347 C 231.600 356.156,231.825 356.000,232.100 356.000 C 232.875 355.999,234.800 354.184,234.800 353.453 C 234.800 353.094,234.980 352.800,235.200 352.800 C 235.420 352.800,235.600 352.451,235.600 352.024 C 235.600 351.597,235.780 351.136,236.000 351.000 C 236.220 350.864,236.400 349.784,236.400 348.600 C 236.400 347.416,236.220 346.336,236.000 346.200 C 235.780 346.064,235.600 345.513,235.600 344.976 C 235.600 344.439,235.420 344.000,235.200 344.000 C 234.980 344.000,234.800 343.807,234.800 343.571 C 234.800 343.014,234.069 342.339,232.700 341.632 C 232.095 341.320,231.600 340.915,231.600 340.732 C 231.600 340.550,231.364 340.400,231.075 340.400 C 230.787 340.400,230.164 340.040,229.692 339.600 C 229.220 339.160,228.596 338.800,228.305 338.800 C 228.014 338.800,227.517 338.440,227.200 338.000 C 226.883 337.560,226.343 337.200,226.000 337.200 C 225.657 337.200,225.117 336.840,224.800 336.400 C 224.483 335.960,223.993 335.600,223.712 335.600 C 223.430 335.600,223.200 335.420,223.200 335.200 C 223.200 334.980,222.880 334.800,222.488 334.800 C 222.097 334.800,221.517 334.440,221.200 334.000 C 220.883 333.560,220.343 333.200,220.000 333.200 C 219.657 333.200,219.117 332.840,218.800 332.400 C 218.483 331.960,217.903 331.600,217.512 331.600 C 216.536 331.600,216.609 330.375,217.600 330.116 C 218.040 330.001,218.400 329.748,218.400 329.553 C 218.400 329.359,218.636 329.200,218.925 329.200 C 219.213 329.200,219.836 328.840,220.308 328.400 C 220.780 327.960,221.378 327.600,221.636 327.600 C 221.895 327.600,222.397 327.283,222.753 326.894 C 223.109 326.506,224.117 325.831,224.994 325.394 C 225.871 324.958,226.817 324.387,227.096 324.126 C 227.376 323.866,227.964 323.538,228.402 323.399 C 228.841 323.260,229.200 322.978,229.200 322.773 C 229.200 322.568,229.436 322.400,229.725 322.400 C 230.013 322.400,230.636 322.040,231.108 321.600 C 231.580 321.160,232.109 320.800,232.283 320.800 C 232.914 320.799,234.800 318.891,234.800 318.253 C 234.800 317.894,234.980 317.600,235.200 317.600 C 235.420 317.600,235.600 317.251,235.600 316.824 C 235.600 316.397,235.780 315.936,236.000 315.800 C 236.220 315.664,236.400 314.584,236.400 313.400 C 236.400 312.216,236.220 311.136,236.000 311.000 C 235.780 310.864,235.600 310.403,235.600 309.976 C 235.600 309.549,235.420 309.200,235.200 309.200 C 234.980 309.200,234.800 308.906,234.800 308.547 C 234.800 307.816,232.875 306.001,232.100 306.000 C 231.825 306.000,231.600 305.820,231.600 305.600 C 231.600 305.361,230.067 305.200,227.800 305.200 C 225.533 305.200,224.000 305.361,224.000 305.600 C 224.000 305.820,223.722 306.000,223.383 306.000 C 223.044 306.000,222.380 306.360,221.908 306.800 C 221.436 307.240,220.813 307.600,220.525 307.600 C 220.236 307.600,220.000 307.780,220.000 308.000 C 220.000 308.220,219.738 308.400,219.418 308.400 C 218.926 308.400,216.855 309.582,215.400 310.694 C 215.180 310.862,214.505 311.255,213.900 311.568 C 213.295 311.880,212.800 312.285,212.800 312.468 C 212.800 312.650,212.607 312.800,212.372 312.800 C 212.137 312.800,211.147 313.349,210.172 314.019 L 208.400 315.238 208.400 305.399 C 208.400 293.879,208.224 293.289,204.079 290.900 C 202.973 290.263,196.872 290.280,195.825 290.924 M313.028 290.924 C 308.930 293.454,308.800 293.900,308.800 305.392 L 308.800 315.224 305.818 313.212 C 304.178 312.105,302.730 311.200,302.601 311.200 C 302.472 311.200,302.149 311.017,301.883 310.794 C 300.864 309.939,298.346 308.400,297.966 308.400 C 297.746 308.400,297.180 308.040,296.708 307.600 C 296.236 307.160,295.613 306.800,295.325 306.800 C 295.036 306.800,294.800 306.620,294.800 306.400 C 294.800 306.180,294.440 306.000,294.000 306.000 C 293.560 306.000,293.200 305.820,293.200 305.600 C 293.200 305.361,291.667 305.200,289.400 305.200 C 287.133 305.200,285.600 305.361,285.600 305.600 C 285.600 305.820,285.375 306.000,285.100 306.000 C 284.340 306.001,282.662 307.652,282.051 309.000 C 281.752 309.660,281.348 310.513,281.153 310.895 C 280.668 311.848,280.706 316.000,281.200 316.000 C 281.420 316.000,281.600 316.360,281.600 316.800 C 281.600 317.240,281.780 317.600,282.000 317.600 C 282.220 317.600,282.400 317.878,282.400 318.218 C 282.400 318.923,284.143 320.800,284.799 320.800 C 285.038 320.800,285.620 321.160,286.092 321.600 C 286.564 322.040,287.187 322.400,287.475 322.400 C 287.764 322.400,288.000 322.542,288.000 322.716 C 288.000 322.890,288.945 323.528,290.100 324.132 C 292.988 325.645,293.686 326.090,294.441 326.900 C 294.800 327.285,295.305 327.600,295.564 327.600 C 295.822 327.600,296.420 327.960,296.892 328.400 C 297.364 328.840,297.987 329.200,298.275 329.200 C 298.564 329.200,298.800 329.359,298.800 329.553 C 298.800 329.748,299.160 330.001,299.600 330.116 C 300.481 330.346,300.714 331.600,299.875 331.600 C 299.587 331.600,298.964 331.960,298.492 332.400 C 298.020 332.840,297.396 333.200,297.105 333.200 C 296.814 333.200,296.317 333.560,296.000 334.000 C 295.683 334.440,295.103 334.800,294.712 334.800 C 294.320 334.800,294.000 334.980,294.000 335.200 C 294.000 335.420,293.770 335.600,293.488 335.600 C 293.207 335.600,292.717 335.960,292.400 336.400 C 292.083 336.840,291.543 337.200,291.200 337.200 C 290.857 337.200,290.317 337.560,290.000 338.000 C 289.683 338.440,289.143 338.800,288.800 338.800 C 288.457 338.800,287.917 339.160,287.600 339.600 C 287.283 340.040,286.703 340.400,286.312 340.400 C 285.920 340.400,285.600 340.550,285.600 340.732 C 285.600 340.915,285.105 341.320,284.500 341.632 C 283.131 342.339,282.400 343.014,282.400 343.571 C 282.400 343.807,282.220 344.000,282.000 344.000 C 281.780 344.000,281.600 344.450,281.600 345.000 C 281.600 345.550,281.420 346.000,281.200 346.000 C 280.978 346.000,280.800 347.059,280.800 348.376 C 280.800 349.683,280.980 350.864,281.200 351.000 C 281.420 351.136,281.600 351.597,281.600 352.024 C 281.600 352.451,281.780 352.800,282.000 352.800 C 282.220 352.800,282.400 353.094,282.400 353.453 C 282.400 354.184,284.325 355.999,285.100 356.000 C 285.375 356.000,285.600 356.156,285.600 356.347 C 285.600 356.670,288.234 357.269,289.600 357.257 C 291.254 357.242,294.800 356.046,294.800 355.502 C 294.800 355.336,295.120 355.200,295.512 355.200 C 295.903 355.200,296.483 354.840,296.800 354.400 C 297.117 353.960,297.614 353.600,297.905 353.600 C 298.196 353.600,298.820 353.240,299.292 352.800 C 299.764 352.360,300.387 352.000,300.675 352.000 C 300.964 352.000,301.200 351.820,301.200 351.600 C 301.200 351.380,301.436 351.200,301.725 351.200 C 302.013 351.200,302.636 350.840,303.108 350.400 C 303.580 349.960,304.120 349.600,304.308 349.600 C 304.496 349.600,305.003 349.285,305.437 348.900 C 305.870 348.515,306.804 347.875,307.512 347.477 L 308.800 346.755 308.800 356.318 C 308.800 365.354,309.106 368.400,310.012 368.400 C 310.196 368.400,310.460 368.760,310.600 369.200 C 310.740 369.640,311.029 370.000,311.244 370.000 C 311.458 370.000,312.020 370.360,312.492 370.800 C 312.964 371.240,313.859 371.600,314.481 371.600 C 315.102 371.600,315.968 371.823,316.405 372.096 C 317.038 372.491,317.362 372.491,317.995 372.096 C 318.432 371.823,319.298 371.600,319.919 371.600 C 320.541 371.600,321.436 371.240,321.908 370.800 C 322.380 370.360,322.954 370.000,323.183 370.000 C 323.412 370.000,323.600 369.848,323.600 369.661 C 323.600 369.475,323.960 368.907,324.400 368.400 C 325.157 367.528,325.200 366.903,325.200 356.912 L 325.200 346.346 326.362 347.173 C 327.001 347.628,327.681 348.000,327.873 348.000 C 328.066 348.000,328.483 348.360,328.800 348.800 C 329.117 349.240,329.614 349.600,329.905 349.600 C 330.196 349.600,330.820 349.960,331.292 350.400 C 331.764 350.840,332.387 351.200,332.675 351.200 C 332.964 351.200,333.200 351.380,333.200 351.600 C 333.200 351.820,333.520 352.000,333.912 352.000 C 334.303 352.000,334.883 352.360,335.200 352.800 C 335.517 353.240,336.057 353.600,336.400 353.600 C 336.743 353.600,337.283 353.960,337.600 354.400 C 337.917 354.840,338.497 355.200,338.888 355.200 C 339.280 355.200,339.600 355.336,339.600 355.502 C 339.600 356.046,343.146 357.242,344.800 357.257 C 346.166 357.269,348.800 356.670,348.800 356.347 C 348.800 356.156,349.025 356.000,349.300 356.000 C 350.075 355.999,352.000 354.184,352.000 353.453 C 352.000 353.094,352.180 352.800,352.400 352.800 C 352.620 352.800,352.800 352.451,352.800 352.024 C 352.800 351.597,352.980 351.136,353.200 351.000 C 353.694 350.694,353.729 347.043,353.247 346.095 C 353.052 345.713,352.647 344.860,352.347 344.200 C 351.684 342.745,351.323 342.367,349.900 341.632 C 349.295 341.320,348.800 340.915,348.800 340.732 C 348.800 340.550,348.564 340.400,348.275 340.400 C 347.987 340.400,347.364 340.040,346.892 339.600 C 346.420 339.160,345.796 338.800,345.505 338.800 C 345.214 338.800,344.717 338.440,344.400 338.000 C 344.083 337.560,343.569 337.200,343.259 337.200 C 342.948 337.200,342.403 336.884,342.047 336.497 C 341.691 336.111,340.860 335.527,340.200 335.200 C 339.540 334.873,338.709 334.289,338.353 333.903 C 337.997 333.516,337.495 333.200,337.236 333.200 C 336.978 333.200,336.380 332.840,335.908 332.400 C 335.436 331.960,334.813 331.600,334.525 331.600 C 333.686 331.600,333.919 330.346,334.800 330.116 C 335.240 330.001,335.600 329.748,335.600 329.553 C 335.600 329.359,335.836 329.200,336.125 329.200 C 336.413 329.200,336.998 328.885,337.425 328.500 C 337.851 328.115,338.695 327.545,339.300 327.232 C 339.905 326.920,340.400 326.515,340.400 326.332 C 340.400 326.150,340.670 326.000,341.000 326.000 C 341.330 326.000,341.600 325.834,341.600 325.632 C 341.600 325.429,342.140 325.145,342.800 325.000 C 343.460 324.855,344.000 324.593,344.000 324.417 C 344.000 324.241,344.540 323.873,345.200 323.600 C 345.860 323.327,346.400 322.945,346.400 322.751 C 346.400 322.558,346.636 322.400,346.925 322.400 C 347.213 322.400,347.836 322.040,348.308 321.600 C 348.780 321.160,349.309 320.800,349.483 320.800 C 350.114 320.799,352.000 318.891,352.000 318.253 C 352.000 317.894,352.180 317.600,352.400 317.600 C 352.620 317.600,352.800 317.251,352.800 316.824 C 352.800 316.397,352.980 315.936,353.200 315.800 C 353.420 315.664,353.600 314.584,353.600 313.400 C 353.600 312.216,353.420 311.136,353.200 311.000 C 352.980 310.864,352.800 310.403,352.800 309.976 C 352.800 309.549,352.620 309.200,352.400 309.200 C 352.180 309.200,352.000 308.906,352.000 308.547 C 352.000 307.816,350.075 306.001,349.300 306.000 C 349.025 306.000,348.800 305.820,348.800 305.600 C 348.800 305.361,347.267 305.200,345.000 305.200 C 342.733 305.200,341.200 305.361,341.200 305.600 C 341.200 305.820,340.922 306.000,340.583 306.000 C 340.244 306.000,339.580 306.360,339.108 306.800 C 338.636 307.240,338.013 307.600,337.725 307.600 C 337.436 307.600,337.200 307.780,337.200 308.000 C 337.200 308.220,336.938 308.400,336.618 308.400 C 336.126 308.400,334.055 309.582,332.600 310.694 C 332.380 310.862,331.705 311.255,331.100 311.568 C 330.495 311.880,330.000 312.285,330.000 312.468 C 330.000 312.650,329.655 312.800,329.233 312.800 C 328.812 312.800,328.407 312.942,328.333 313.114 C 328.178 313.480,325.791 315.200,325.438 315.200 C 325.307 315.200,325.200 310.506,325.200 304.769 L 325.200 294.337 323.700 292.869 C 322.875 292.061,321.797 291.175,321.305 290.900 C 320.166 290.263,314.069 290.281,313.028 290.924 " stroke="none" fill="#040404" fill-rule="evenodd"></path><path id="path1" d="M219.124 45.009 C 218.973 45.160,216.994 45.439,214.725 45.628 C 210.451 45.985,207.098 46.462,204.000 47.155 C 203.010 47.376,201.660 47.665,201.000 47.797 C 199.322 48.134,196.750 48.832,195.800 49.209 C 195.360 49.383,194.100 49.750,193.000 50.025 C 191.900 50.300,190.820 50.653,190.600 50.810 C 190.380 50.967,189.480 51.321,188.600 51.595 C 185.401 52.594,177.099 56.337,176.867 56.885 C 176.793 57.058,176.388 57.200,175.967 57.200 C 175.545 57.200,175.200 57.359,175.200 57.553 C 175.200 57.748,174.885 58.007,174.500 58.129 C 173.564 58.425,171.434 59.724,171.267 60.100 C 171.193 60.265,170.956 60.400,170.739 60.400 C 170.256 60.400,166.652 62.827,166.467 63.277 C 166.393 63.455,166.078 63.600,165.767 63.600 C 165.455 63.600,165.200 63.741,165.200 63.914 C 165.200 64.086,164.667 64.543,164.015 64.928 C 163.363 65.313,162.598 65.852,162.315 66.126 C 162.032 66.401,160.720 67.453,159.400 68.466 C 154.630 72.125,145.564 81.782,141.999 87.000 C 141.248 88.100,140.311 89.349,139.917 89.775 C 139.522 90.202,139.200 90.772,139.200 91.042 C 139.200 91.312,139.058 91.593,138.885 91.667 C 137.830 92.113,136.289 95.768,136.982 96.179 C 144.055 100.375,150.878 105.664,156.394 111.229 C 160.511 115.383,161.789 116.878,165.800 122.229 C 169.076 126.600,175.177 137.428,175.193 138.900 C 175.197 139.285,175.380 139.600,175.600 139.600 C 175.820 139.600,176.000 139.872,176.000 140.205 C 176.000 140.538,176.159 141.123,176.353 141.505 C 176.548 141.887,176.885 142.650,177.104 143.200 C 177.322 143.750,177.703 144.703,177.950 145.319 C 180.510 151.686,173.245 158.494,167.015 155.565 C 163.996 154.146,163.310 153.223,161.100 147.600 C 160.884 147.050,160.548 146.287,160.353 145.905 C 160.159 145.523,160.000 144.938,160.000 144.605 C 160.000 144.272,159.820 144.000,159.600 144.000 C 159.380 144.000,159.200 143.640,159.200 143.200 C 159.200 142.760,159.020 142.400,158.800 142.400 C 158.580 142.400,158.400 142.040,158.400 141.600 C 158.400 141.160,158.264 140.800,158.098 140.800 C 157.931 140.800,157.556 140.260,157.264 139.600 C 153.646 131.426,135.063 112.000,130.861 112.000 C 130.644 112.000,130.407 111.865,130.333 111.700 C 130.166 111.324,128.036 110.025,127.100 109.729 C 126.715 109.607,126.400 109.348,126.400 109.153 C 126.400 108.959,126.155 108.800,125.856 108.800 C 125.557 108.800,124.252 108.276,122.956 107.636 C 104.748 98.639,78.297 98.602,60.044 107.547 C 58.638 108.236,57.243 108.800,56.944 108.800 C 56.645 108.800,56.400 108.959,56.400 109.153 C 56.400 109.348,56.085 109.610,55.700 109.736 C 54.459 110.142,46.993 114.844,46.400 115.592 C 46.290 115.731,45.300 116.523,44.200 117.352 C 38.283 121.811,26.000 136.253,26.000 138.751 C 26.000 138.961,25.864 139.193,25.698 139.267 C 25.412 139.393,23.684 142.792,22.201 146.148 C 14.477 163.623,14.237 186.085,21.581 204.200 C 22.436 206.308,26.226 213.816,26.495 213.933 C 26.663 214.007,26.800 214.242,26.800 214.455 C 26.800 214.812,29.422 218.860,30.625 220.362 C 34.366 225.030,35.847 226.707,38.783 229.600 C 40.681 231.470,42.929 233.540,43.779 234.200 C 44.630 234.860,45.792 235.775,46.363 236.233 C 48.203 237.711,52.343 240.400,52.778 240.400 C 53.010 240.400,53.200 240.538,53.200 240.706 C 53.200 240.874,53.875 241.318,54.700 241.694 C 55.525 242.069,56.650 242.644,57.200 242.971 C 60.630 245.014,66.959 247.346,73.583 249.008 C 82.508 251.247,80.464 251.200,169.716 251.200 C 259.501 251.200,253.309 251.035,255.834 253.489 C 257.337 254.949,257.760 255.737,258.415 258.300 L 258.951 260.400 266.076 260.400 L 273.200 260.400 273.200 259.024 C 273.200 258.267,273.380 257.536,273.600 257.400 C 273.820 257.264,274.000 256.844,274.000 256.468 C 274.000 255.337,276.255 252.956,278.184 252.050 C 282.921 249.823,287.682 252.139,289.424 257.517 L 290.293 260.200 297.346 260.309 L 304.400 260.418 304.400 259.033 C 304.400 258.271,304.580 257.536,304.800 257.400 C 305.020 257.264,305.200 256.844,305.200 256.468 C 305.200 255.337,307.455 252.956,309.384 252.050 C 311.122 251.233,311.749 251.200,325.696 251.195 C 341.670 251.189,345.304 250.826,351.800 248.591 C 354.577 247.635,356.068 246.975,360.697 244.650 C 361.190 244.403,361.595 244.065,361.597 243.900 C 361.599 243.735,361.836 243.600,362.125 243.600 C 362.413 243.600,362.998 243.285,363.425 242.900 C 363.852 242.515,364.897 241.679,365.749 241.043 C 367.624 239.641,372.511 234.732,373.954 232.800 C 374.529 232.031,375.315 231.052,375.700 230.625 C 376.085 230.198,376.400 229.628,376.400 229.358 C 376.400 229.088,376.554 228.807,376.743 228.733 C 377.386 228.483,380.785 221.009,381.806 217.600 C 384.779 207.670,384.549 197.718,381.117 187.800 C 380.398 185.722,379.710 184.204,377.450 179.703 C 377.203 179.210,376.865 178.805,376.700 178.803 C 376.535 178.801,376.400 178.558,376.400 178.262 C 376.400 177.966,376.040 177.398,375.600 177.000 C 375.160 176.602,374.800 176.116,374.800 175.921 C 374.800 175.300,369.414 169.564,366.585 167.173 C 361.832 163.153,354.526 159.457,347.800 157.667 C 346.920 157.433,345.480 157.103,344.600 156.935 C 342.138 156.463,330.071 156.620,327.600 157.156 C 326.390 157.419,324.813 157.736,324.096 157.861 C 323.379 157.986,322.694 158.249,322.573 158.444 C 322.452 158.640,322.001 158.800,321.571 158.800 C 321.141 158.800,320.387 159.008,319.895 159.262 C 318.018 160.233,317.593 160.400,317.005 160.400 C 316.672 160.400,316.400 160.580,316.400 160.800 C 316.400 161.020,316.040 161.200,315.600 161.200 C 315.160 161.200,314.800 161.336,314.800 161.502 C 314.800 161.669,314.215 162.059,313.500 162.370 C 312.785 162.681,312.110 163.050,312.000 163.190 C 308.966 167.048,300.758 165.037,298.620 159.913 C 296.242 154.212,299.527 150.309,311.000 145.203 C 312.100 144.713,313.313 144.152,313.695 143.956 C 314.077 143.760,314.741 143.600,315.171 143.600 C 315.601 143.600,316.064 143.420,316.200 143.200 C 316.336 142.980,316.876 142.800,317.400 142.800 C 317.924 142.800,318.452 142.640,318.573 142.444 C 318.694 142.249,319.379 141.988,320.096 141.866 C 320.813 141.744,322.300 141.444,323.400 141.200 C 324.500 140.956,326.001 140.654,326.736 140.530 C 328.071 140.304,328.073 140.301,327.835 138.452 C 327.704 137.433,327.489 135.340,327.358 133.800 C 327.226 132.260,326.957 130.829,326.759 130.620 C 326.562 130.411,326.400 129.477,326.400 128.544 C 326.400 127.611,326.220 126.736,326.000 126.600 C 325.780 126.464,325.600 125.744,325.600 125.000 C 325.600 124.256,325.420 123.536,325.200 123.400 C 324.980 123.264,324.800 122.621,324.800 121.971 C 324.800 121.321,324.638 120.477,324.439 120.095 C 324.240 119.713,323.860 118.590,323.593 117.600 C 323.327 116.610,322.967 115.440,322.793 115.000 C 322.620 114.560,322.080 113.120,321.593 111.800 C 319.984 107.434,316.915 100.954,314.369 96.546 C 313.286 94.671,312.400 92.986,312.400 92.802 C 312.400 92.617,312.253 92.407,312.072 92.333 C 311.892 92.260,310.966 91.047,310.015 89.638 C 309.064 88.229,308.053 86.789,307.768 86.438 C 307.483 86.087,306.388 84.720,305.336 83.400 C 301.429 78.499,295.621 72.596,291.171 69.001 C 289.537 67.681,288.110 66.500,288.000 66.375 C 287.890 66.249,286.900 65.537,285.800 64.790 C 284.700 64.044,283.451 63.111,283.025 62.717 C 282.598 62.322,282.013 62.000,281.725 62.000 C 281.436 62.000,281.200 61.850,281.200 61.668 C 281.200 61.485,280.705 61.080,280.100 60.768 C 279.495 60.456,278.910 60.111,278.800 60.001 C 278.561 59.761,275.369 58.005,274.103 57.417 C 273.610 57.187,273.205 56.865,273.203 56.700 C 273.201 56.535,273.009 56.400,272.776 56.400 C 272.543 56.400,270.877 55.686,269.074 54.813 C 265.747 53.203,261.431 51.539,256.000 49.775 C 254.350 49.239,252.447 48.620,251.772 48.400 C 251.096 48.180,250.097 48.000,249.552 48.000 C 249.006 48.000,248.389 47.838,248.180 47.641 C 247.971 47.444,247.080 47.181,246.200 47.057 C 245.320 46.933,243.520 46.639,242.200 46.404 C 236.414 45.372,219.767 44.366,219.124 45.009 " stroke="none" fill="#a3cbfb" fill-rule="evenodd"></path><path id="path2" d="M214.200 44.795 C 213.540 44.959,214.890 45.003,217.200 44.892 C 219.510 44.780,221.475 44.624,221.567 44.545 C 221.879 44.274,215.405 44.493,214.200 44.795 M230.033 44.544 C 230.125 44.624,231.820 44.788,233.800 44.910 C 235.868 45.036,236.974 44.992,236.400 44.805 C 235.429 44.489,229.699 44.255,230.033 44.544 M208.200 45.600 L 207.400 45.944 208.200 45.925 C 208.640 45.914,209.540 45.768,210.200 45.600 L 211.400 45.295 210.200 45.275 C 209.540 45.265,208.640 45.411,208.200 45.600 M238.833 45.344 C 238.925 45.424,239.810 45.606,240.800 45.750 C 242.058 45.933,242.419 45.891,242.000 45.612 C 241.460 45.253,238.432 44.997,238.833 45.344 M203.600 46.400 C 202.836 46.894,203.658 46.894,205.200 46.400 L 206.200 46.080 205.200 46.046 C 204.650 46.027,203.930 46.187,203.600 46.400 M244.800 46.400 C 246.342 46.894,247.164 46.894,246.400 46.400 C 246.070 46.187,245.350 46.027,244.800 46.046 L 243.800 46.080 244.800 46.400 M200.400 47.218 C 199.962 47.515,200.124 47.552,201.000 47.356 C 202.471 47.027,202.790 46.798,201.767 46.806 C 201.345 46.809,200.730 46.995,200.400 47.218 M248.600 47.200 C 249.796 47.714,250.795 47.714,250.000 47.200 C 249.670 46.987,249.040 46.822,248.600 46.834 L 247.800 46.856 248.600 47.200 M197.000 48.000 C 196.496 48.217,196.422 48.344,196.800 48.344 C 197.130 48.344,197.760 48.189,198.200 48.000 C 198.704 47.783,198.778 47.656,198.400 47.656 C 198.070 47.656,197.440 47.811,197.000 48.000 M251.800 48.000 C 252.240 48.189,252.870 48.344,253.200 48.344 C 253.578 48.344,253.504 48.217,253.000 48.000 C 252.560 47.811,251.930 47.656,251.600 47.656 C 251.222 47.656,251.296 47.783,251.800 48.000 M194.400 48.800 C 193.867 49.145,193.867 49.188,194.400 49.188 C 194.730 49.188,195.270 49.013,195.600 48.800 C 196.133 48.455,196.133 48.412,195.600 48.412 C 195.270 48.412,194.730 48.587,194.400 48.800 M191.600 49.600 C 191.067 49.945,191.067 49.988,191.600 49.988 C 191.930 49.988,192.470 49.813,192.800 49.600 C 193.333 49.255,193.333 49.212,192.800 49.212 C 192.470 49.212,191.930 49.387,191.600 49.600 M184.400 52.400 C 182.565 53.405,183.050 53.410,185.256 52.409 C 186.215 51.974,186.730 51.621,186.400 51.626 C 186.070 51.630,185.170 51.978,184.400 52.400 M264.758 52.437 C 265.725 52.866,266.588 53.145,266.675 53.058 C 266.848 52.886,263.765 51.582,263.292 51.628 C 263.131 51.644,263.791 52.008,264.758 52.437 M179.400 54.646 C 177.860 55.427,176.420 56.248,176.200 56.472 C 175.980 56.695,177.081 56.230,178.647 55.439 C 180.212 54.647,181.687 54.000,181.923 54.000 C 182.159 54.000,182.464 53.820,182.600 53.600 C 183.009 52.938,182.337 53.158,179.400 54.646 M267.233 53.358 C 267.325 53.445,269.560 54.608,272.200 55.942 C 274.840 57.276,276.640 58.090,276.200 57.750 C 274.781 56.656,266.366 52.534,267.233 53.358 M173.567 57.728 C 172.779 58.207,170.664 59.489,168.867 60.576 C 167.070 61.663,165.600 62.695,165.600 62.870 C 165.600 63.045,167.404 62.020,169.610 60.594 C 171.815 59.167,173.750 57.994,173.910 57.987 C 174.069 57.980,174.549 57.710,174.976 57.387 C 176.142 56.506,175.201 56.733,173.567 57.728 M277.811 58.939 C 279.719 60.241,280.800 60.878,280.800 60.699 C 280.800 60.445,277.704 58.400,277.320 58.400 C 277.156 58.400,277.377 58.642,277.811 58.939 M285.986 64.280 C 286.748 64.896,288.323 66.167,289.486 67.105 C 290.649 68.042,291.592 68.672,291.583 68.505 C 291.564 68.161,288.193 65.477,286.026 64.080 L 284.600 63.161 285.986 64.280 M160.800 66.454 L 159.000 68.085 160.694 66.813 C 162.168 65.707,163.114 64.774,162.724 64.812 C 162.656 64.819,161.790 65.558,160.800 66.454 M154.162 72.153 C 151.754 74.433,148.896 77.357,147.811 78.649 C 146.725 79.942,148.079 78.731,150.819 75.958 C 153.558 73.186,156.494 70.339,157.342 69.634 C 158.190 68.928,158.807 68.273,158.712 68.179 C 158.618 68.084,156.570 69.873,154.162 72.153 M295.145 71.839 C 296.985 73.578,299.865 76.449,301.545 78.221 C 303.225 79.992,303.972 80.712,303.205 79.821 C 300.560 76.747,296.593 72.734,294.200 70.709 C 292.674 69.418,293.018 69.829,295.145 71.839 M144.998 81.759 C 144.779 82.066,144.183 82.876,143.673 83.559 C 142.302 85.394,142.809 85.065,144.535 83.000 C 145.363 82.010,145.895 81.200,145.718 81.200 C 145.541 81.200,145.217 81.451,144.998 81.759 M307.375 85.332 C 307.991 86.139,308.576 86.800,308.675 86.800 C 308.953 86.800,307.221 84.460,306.709 84.144 C 306.459 83.989,306.759 84.524,307.375 85.332 M140.896 87.232 C 140.180 88.315,139.677 89.200,139.778 89.200 C 140.050 89.200,142.500 85.567,142.338 85.404 C 142.261 85.327,141.612 86.150,140.896 87.232 M310.661 89.873 C 312.525 92.588,313.642 93.993,312.989 92.800 C 312.235 91.423,309.573 87.631,309.196 87.398 C 308.972 87.259,309.631 88.373,310.661 89.873 M137.399 92.445 C 135.229 95.799,135.241 96.111,137.600 97.429 C 138.590 97.983,138.960 98.112,138.422 97.718 C 137.884 97.323,137.074 96.697,136.622 96.326 C 135.712 95.580,135.610 95.876,138.153 91.900 C 138.962 90.635,139.538 89.600,139.432 89.600 C 139.326 89.600,138.411 90.880,137.399 92.445 M314.204 95.390 C 314.828 96.484,316.115 98.824,317.063 100.590 C 318.011 102.355,318.790 103.616,318.793 103.391 C 318.802 102.881,314.092 94.347,313.501 93.800 C 313.263 93.580,313.579 94.295,314.204 95.390 M82.800 100.418 C 81.963 100.605,82.768 100.644,84.800 100.514 C 86.670 100.395,88.275 100.230,88.367 100.149 C 88.665 99.883,84.239 100.097,82.800 100.418 M94.433 100.149 C 94.525 100.230,96.130 100.398,98.000 100.521 C 100.428 100.680,100.943 100.644,99.800 100.395 C 98.218 100.050,94.111 99.861,94.433 100.149 M142.000 100.154 C 142.000 100.239,142.495 100.627,143.100 101.016 L 144.200 101.724 143.438 100.862 C 142.764 100.099,142.000 99.723,142.000 100.154 M77.400 101.200 C 76.322 101.474,76.302 101.506,77.200 101.513 C 77.750 101.517,78.650 101.376,79.200 101.200 C 80.544 100.769,79.092 100.769,77.400 101.200 M103.600 101.200 C 104.150 101.376,105.050 101.517,105.600 101.513 C 106.498 101.506,106.478 101.474,105.400 101.200 C 103.708 100.769,102.256 100.769,103.600 101.200 M72.400 102.231 C 67.361 103.555,57.200 107.546,57.200 108.201 C 57.200 108.326,57.515 108.264,57.900 108.063 C 61.175 106.354,67.839 103.936,74.400 102.078 C 76.606 101.453,74.848 101.587,72.400 102.231 M107.200 101.710 C 107.482 101.997,112.489 103.244,112.662 103.071 C 112.824 102.909,110.497 102.208,108.400 101.787 C 107.630 101.633,107.090 101.598,107.200 101.710 M113.600 103.600 C 113.930 103.813,114.560 103.978,115.000 103.966 L 115.800 103.944 115.000 103.600 C 113.804 103.086,112.805 103.086,113.600 103.600 M116.033 104.160 C 116.378 104.491,121.341 106.392,121.485 106.249 C 121.567 106.166,120.455 105.627,119.013 105.049 C 116.539 104.059,115.652 103.794,116.033 104.160 M149.600 105.834 C 155.990 111.397,163.026 119.270,167.002 125.306 C 167.838 126.574,168.606 127.527,168.710 127.423 C 169.674 126.459,153.133 107.700,148.800 104.842 C 147.962 104.290,148.284 104.689,149.600 105.834 M53.600 110.036 C 52.936 110.579,52.869 110.715,53.400 110.440 C 54.705 109.766,55.428 109.212,55.000 109.215 C 54.780 109.217,54.150 109.586,53.600 110.036 M128.000 109.620 C 129.387 110.561,130.178 110.835,129.200 110.036 C 128.650 109.586,128.020 109.217,127.800 109.215 C 127.580 109.213,127.670 109.396,128.000 109.620 M49.000 112.787 C 47.460 113.855,45.570 115.306,44.800 116.010 L 43.400 117.290 44.800 116.255 C 45.570 115.685,47.595 114.286,49.300 113.145 C 51.005 112.003,52.400 111.009,52.400 110.935 C 52.400 110.555,51.544 111.021,49.000 112.787 M130.620 111.145 C 131.538 111.980,137.279 115.651,137.026 115.242 C 136.700 114.715,130.982 110.800,130.538 110.800 C 130.374 110.800,130.411 110.955,130.620 111.145 M38.923 121.100 C 36.743 123.245,34.519 125.553,33.980 126.229 C 33.441 126.905,34.080 126.332,35.400 124.956 C 36.720 123.580,39.060 121.280,40.600 119.844 C 42.140 118.409,43.284 117.227,43.143 117.217 C 43.002 117.208,41.103 118.955,38.923 121.100 M139.600 117.311 C 139.600 117.669,142.959 120.774,143.145 120.588 C 143.228 120.506,143.039 120.205,142.726 119.919 C 142.413 119.634,141.582 118.871,140.879 118.225 C 140.175 117.579,139.600 117.168,139.600 117.311 M324.428 119.076 C 324.518 120.115,325.144 120.996,325.172 120.124 C 325.187 119.642,325.020 119.136,324.800 119.000 C 324.580 118.864,324.413 118.898,324.428 119.076 M145.894 123.400 C 147.223 124.940,148.735 126.557,149.255 126.994 C 150.483 128.025,148.581 125.826,145.639 122.813 L 143.479 120.600 145.894 123.400 M325.444 122.600 C 325.773 124.071,326.002 124.390,325.994 123.367 C 325.991 122.945,325.805 122.330,325.582 122.000 C 325.285 121.562,325.248 121.724,325.444 122.600 M326.258 126.000 C 326.575 127.725,326.802 128.051,326.794 126.767 C 326.791 126.235,326.611 125.530,326.394 125.200 C 326.118 124.778,326.077 125.015,326.258 126.000 M150.407 128.595 C 150.733 129.032,151.337 129.752,151.749 130.195 L 152.499 131.000 152.086 130.196 C 151.860 129.753,151.256 129.033,150.744 128.596 C 149.817 127.803,149.816 127.803,150.407 128.595 M170.005 130.000 C 170.696 131.210,171.992 133.690,172.886 135.511 C 173.779 137.333,174.595 138.739,174.698 138.636 C 174.935 138.399,170.564 130.057,169.526 128.766 C 169.100 128.235,169.315 128.790,170.005 130.000 M327.088 130.400 C 327.211 131.610,327.377 132.675,327.456 132.767 C 327.753 133.111,327.530 129.767,327.204 129.000 C 326.992 128.502,326.949 129.031,327.088 130.400 M27.672 134.448 C 26.502 136.224,25.607 137.741,25.685 137.818 C 25.762 137.896,26.833 136.438,28.065 134.579 C 29.296 132.721,30.190 131.204,30.052 131.209 C 29.913 131.214,28.842 132.671,27.672 134.448 M154.282 133.998 C 155.303 135.536,156.210 136.724,156.297 136.636 C 156.512 136.421,153.076 131.219,152.713 131.208 C 152.555 131.204,153.261 132.459,154.282 133.998 M327.903 136.000 C 328.017 137.650,328.176 139.075,328.255 139.167 C 328.533 139.487,328.318 134.992,328.008 134.000 C 327.831 133.436,327.786 134.307,327.903 136.000 M157.499 139.168 C 158.103 140.250,158.665 141.068,158.747 140.986 C 158.921 140.812,156.857 137.200,156.583 137.200 C 156.483 137.200,156.895 138.086,157.499 139.168 M24.313 140.100 C 23.237 142.124,22.772 143.200,22.972 143.200 C 23.053 143.200,23.681 142.120,24.368 140.800 C 25.055 139.480,25.527 138.400,25.417 138.400 C 25.306 138.400,24.810 139.165,24.313 140.100 M174.800 139.284 C 174.800 139.716,176.015 142.400,176.211 142.400 C 176.321 142.400,176.133 141.734,175.793 140.921 C 175.193 139.486,174.800 138.838,174.800 139.284 M328.151 140.409 C 327.927 140.633,326.946 140.974,325.971 141.165 L 324.200 141.512 325.656 141.556 C 326.802 141.591,329.864 140.079,328.780 140.013 C 328.659 140.006,328.376 140.184,328.151 140.409 M159.478 142.995 C 159.844 143.762,160.214 144.319,160.301 144.232 C 160.484 144.049,159.270 141.600,158.996 141.600 C 158.895 141.600,159.112 142.228,159.478 142.995 M321.600 142.000 L 320.600 142.320 321.600 142.354 C 322.150 142.373,322.870 142.213,323.200 142.000 C 323.964 141.506,323.142 141.506,321.600 142.000 M318.600 142.800 L 317.800 143.144 318.600 143.166 C 319.040 143.178,319.670 143.013,320.000 142.800 C 320.795 142.286,319.796 142.286,318.600 142.800 M315.200 143.851 C 312.854 144.649,304.830 148.520,303.800 149.350 C 303.360 149.705,304.710 149.110,306.800 148.028 C 308.890 146.946,311.860 145.582,313.400 144.997 C 318.165 143.185,319.324 142.447,315.200 143.851 M21.714 145.503 C 20.076 149.267,18.676 153.210,18.899 153.433 C 19.025 153.558,19.246 153.242,19.391 152.730 C 19.786 151.339,21.189 147.632,22.069 145.656 C 22.496 144.697,22.777 143.843,22.693 143.759 C 22.609 143.675,22.168 144.460,21.714 145.503 M161.183 146.800 C 163.823 153.712,165.874 155.750,170.191 155.750 C 172.582 155.750,176.980 153.646,176.206 152.873 C 176.069 152.736,175.831 152.807,175.678 153.031 C 174.057 155.406,169.154 156.139,166.313 154.431 C 164.569 153.382,163.670 152.028,162.175 148.200 C 161.573 146.660,160.915 145.220,160.712 145.000 C 160.509 144.780,160.721 145.590,161.183 146.800 M177.365 148.000 C 177.365 149.594,177.493 150.544,177.654 150.135 C 177.813 149.731,177.944 148.770,177.944 148.000 C 177.944 147.230,177.813 146.269,177.654 145.865 C 177.493 145.456,177.365 146.406,177.365 148.000 M301.287 151.100 C 300.330 152.035,300.314 152.081,301.181 151.406 C 302.888 150.076,302.969 150.000,302.686 150.000 C 302.536 150.000,301.906 150.495,301.287 151.100 M18.229 155.029 C 18.081 155.615,18.051 156.184,18.161 156.294 C 18.271 156.404,18.481 156.015,18.629 155.429 C 18.776 154.842,18.806 154.273,18.696 154.163 C 18.586 154.053,18.376 154.442,18.229 155.029 M298.643 155.033 C 298.305 155.913,298.350 158.502,298.713 159.074 C 298.879 159.334,299.011 158.389,299.007 156.974 C 298.999 154.150,298.993 154.119,298.643 155.033 M334.713 155.895 C 335.876 155.976,337.676 155.976,338.713 155.893 C 339.751 155.811,338.800 155.745,336.600 155.746 C 334.400 155.747,333.551 155.814,334.713 155.895 M329.705 156.287 C 330.314 156.379,331.214 156.377,331.705 156.282 C 332.197 156.187,331.700 156.111,330.600 156.114 C 329.500 156.117,329.097 156.195,329.705 156.287 M341.705 156.287 C 342.314 156.379,343.214 156.377,343.705 156.282 C 344.197 156.187,343.700 156.111,342.600 156.114 C 341.500 156.117,341.097 156.195,341.705 156.287 M326.200 156.660 C 324.676 156.979,321.156 158.089,321.279 158.212 C 321.347 158.280,323.022 157.914,325.001 157.399 C 328.029 156.611,328.847 156.107,326.200 156.660 M17.450 158.050 C 17.117 159.717,17.440 160.040,17.800 158.400 C 17.952 157.709,17.993 157.059,17.891 156.958 C 17.789 156.856,17.591 157.347,17.450 158.050 M346.433 156.943 C 346.525 157.021,347.230 157.201,348.000 157.342 C 348.985 157.523,349.222 157.482,348.800 157.206 C 348.258 156.850,346.037 156.603,346.433 156.943 M318.500 159.034 C 317.785 159.346,317.200 159.690,317.200 159.798 C 317.200 159.976,320.376 158.851,320.767 158.535 C 321.195 158.188,319.662 158.526,318.500 159.034 M352.600 158.800 C 353.701 159.273,354.092 159.273,353.800 158.800 C 353.664 158.580,353.158 158.413,352.676 158.428 C 351.831 158.455,351.829 158.469,352.600 158.800 M354.454 159.387 C 354.767 159.700,357.600 160.823,357.600 160.635 C 357.600 160.391,355.169 159.200,354.672 159.200 C 354.449 159.200,354.351 159.284,354.454 159.387 M314.612 160.824 C 313.738 161.260,312.838 161.812,312.612 162.051 C 312.259 162.423,316.302 160.575,316.767 160.152 C 317.210 159.748,316.032 160.116,314.612 160.824 M16.600 162.000 C 16.446 162.910,16.411 163.744,16.521 163.854 C 16.631 163.964,16.846 163.310,17.000 162.400 C 17.154 161.490,17.189 160.656,17.079 160.546 C 16.969 160.436,16.754 161.090,16.600 162.000 M310.700 163.029 C 309.205 163.840,309.296 164.178,310.800 163.400 C 311.460 163.059,312.000 162.694,312.000 162.590 C 312.000 162.332,311.957 162.347,310.700 163.029 M363.858 164.638 C 365.586 165.869,367.638 167.489,368.417 168.238 C 369.196 168.987,369.972 169.600,370.140 169.600 C 370.634 169.600,366.003 165.651,363.522 163.956 C 360.042 161.579,360.301 162.104,363.858 164.638 M302.000 163.441 C 302.000 164.396,306.907 165.117,308.600 164.410 C 309.094 164.204,308.556 164.156,307.197 164.284 C 305.692 164.426,304.520 164.294,303.497 163.866 C 302.674 163.522,302.000 163.331,302.000 163.441 M15.869 166.756 C 15.721 167.495,15.623 168.843,15.651 169.750 C 15.692 171.102,15.763 170.930,16.044 168.800 C 16.417 165.965,16.300 164.599,15.869 166.756 M372.013 171.803 C 372.996 172.905,374.305 174.435,374.922 175.203 C 376.036 176.589,376.035 176.586,374.859 174.800 C 374.207 173.810,372.898 172.280,371.950 171.400 L 370.227 169.800 372.013 171.803 M377.557 179.200 C 378.021 179.970,378.968 181.817,379.662 183.305 C 380.356 184.793,380.992 185.941,381.076 185.857 C 381.319 185.614,378.461 179.906,377.543 178.800 C 376.724 177.814,376.725 177.819,377.557 179.200 M15.640 182.633 C 15.662 183.715,15.834 185.050,16.021 185.600 C 16.237 186.231,16.278 185.568,16.132 183.800 C 15.860 180.496,15.583 179.840,15.640 182.633 M381.222 186.525 C 381.177 187.188,382.551 190.947,382.688 190.537 C 382.766 190.302,382.473 189.230,382.037 188.155 C 381.601 187.080,381.234 186.346,381.222 186.525 M16.487 188.600 C 16.491 189.040,16.632 189.940,16.800 190.600 C 17.074 191.678,17.106 191.698,17.113 190.800 C 17.117 190.250,16.976 189.350,16.800 188.800 C 16.549 188.016,16.481 187.973,16.487 188.600 M382.868 191.800 C 382.862 192.240,383.011 192.960,383.200 193.400 C 383.638 194.419,383.638 193.368,383.200 192.000 C 382.943 191.196,382.877 191.157,382.868 191.800 M17.234 192.800 C 17.246 193.130,17.411 193.760,17.600 194.200 L 17.944 195.000 17.966 194.200 C 17.978 193.760,17.813 193.130,17.600 192.800 C 17.255 192.267,17.215 192.267,17.234 192.800 M383.695 195.800 C 383.695 196.460,383.832 197.540,384.000 198.200 L 384.305 199.400 384.305 198.200 C 384.305 197.540,384.168 196.460,384.000 195.800 L 383.695 194.600 383.695 195.800 M19.600 200.985 C 19.600 201.630,22.717 208.800,22.997 208.800 C 23.207 208.800,22.797 207.574,22.396 207.000 C 22.242 206.780,21.612 205.295,20.995 203.700 C 20.009 201.149,19.600 200.354,19.600 200.985 M384.493 203.600 C 384.493 204.370,384.575 204.685,384.676 204.300 C 384.776 203.915,384.776 203.285,384.676 202.900 C 384.575 202.515,384.493 202.830,384.493 203.600 M383.818 210.218 C 383.665 211.239,383.630 212.163,383.740 212.273 C 383.850 212.383,384.065 211.639,384.218 210.618 C 384.371 209.598,384.406 208.673,384.296 208.563 C 384.186 208.453,383.971 209.198,383.818 210.218 M24.800 212.520 C 24.800 212.904,26.845 216.000,27.099 216.000 C 27.278 216.000,26.641 214.919,25.339 213.011 C 25.042 212.577,24.800 212.356,24.800 212.520 M383.000 214.800 C 382.848 215.491,382.807 216.141,382.909 216.242 C 383.011 216.344,383.209 215.853,383.350 215.150 C 383.491 214.447,383.531 213.798,383.441 213.708 C 383.350 213.617,383.152 214.109,383.000 214.800 M381.829 218.829 C 380.953 221.507,381.231 221.786,382.171 219.171 C 382.569 218.066,382.806 217.073,382.698 216.965 C 382.590 216.857,382.199 217.696,381.829 218.829 M28.000 217.938 C 28.000 218.124,28.388 218.619,28.862 219.038 L 29.724 219.800 29.016 218.700 C 28.286 217.566,28.000 217.351,28.000 217.938 M30.496 221.395 C 30.993 222.162,31.544 222.792,31.720 222.795 C 31.897 222.798,31.560 222.170,30.973 221.400 C 29.600 219.600,29.332 219.597,30.496 221.395 M378.700 226.134 C 377.654 228.150,377.154 229.350,377.588 228.800 C 378.415 227.752,380.916 222.781,380.716 222.583 C 380.652 222.520,379.745 224.118,378.700 226.134 M32.776 224.183 C 33.900 225.712,37.246 229.290,37.399 229.126 C 37.464 229.057,36.255 227.650,34.712 226.000 C 33.169 224.350,32.298 223.532,32.776 224.183 M39.930 231.738 C 42.526 234.183,46.703 237.600,47.096 237.600 C 47.405 237.600,47.520 237.702,43.400 234.315 C 41.640 232.867,39.764 231.214,39.230 230.642 C 38.697 230.069,38.125 229.600,37.960 229.600 C 37.795 229.600,38.681 230.562,39.930 231.738 M373.702 233.712 C 371.691 236.190,369.118 238.742,365.600 241.747 C 364.213 242.932,364.121 243.071,365.200 242.354 C 365.970 241.842,367.230 240.847,368.000 240.142 C 368.770 239.438,369.765 238.533,370.211 238.131 C 371.567 236.910,376.269 231.200,375.919 231.200 C 375.820 231.200,374.823 232.330,373.702 233.712 M47.607 237.903 C 47.616 238.264,51.614 240.919,51.827 240.706 C 51.910 240.623,50.993 239.892,49.789 239.081 C 48.585 238.270,47.603 237.740,47.607 237.903 M53.200 241.564 C 53.750 242.014,54.380 242.383,54.600 242.385 C 55.028 242.388,54.305 241.834,53.000 241.160 C 52.469 240.885,52.536 241.021,53.200 241.564 M55.200 242.598 C 55.200 242.867,59.249 244.884,59.429 244.705 C 59.511 244.623,58.593 244.073,57.389 243.482 C 56.185 242.892,55.200 242.494,55.200 242.598 M361.793 244.256 C 359.752 245.609,359.032 246.323,360.626 245.414 C 362.030 244.614,363.901 243.222,363.593 243.209 C 363.479 243.204,362.669 243.675,361.793 244.256 M64.568 247.017 C 65.870 247.558,67.130 247.992,67.368 247.983 C 67.606 247.974,66.734 247.524,65.432 246.983 C 64.130 246.442,62.870 246.008,62.632 246.017 C 62.394 246.026,63.266 246.476,64.568 247.017 M357.693 246.580 C 356.439 247.272,356.062 247.701,357.012 247.355 C 357.998 246.995,359.514 245.986,358.989 246.039 C 358.775 246.061,358.192 246.304,357.693 246.580 M68.046 248.163 C 68.301 248.435,73.515 250.000,74.165 250.000 C 75.029 250.000,73.955 249.545,71.761 248.981 C 70.462 248.647,69.040 248.267,68.600 248.137 C 68.160 248.007,67.911 248.019,68.046 248.163 M351.400 249.229 C 350.520 249.652,350.238 249.886,350.774 249.749 C 352.239 249.373,354.286 248.429,353.600 248.445 C 353.270 248.453,352.280 248.806,351.400 249.229 M76.200 250.400 C 76.640 250.589,77.450 250.738,78.000 250.732 L 79.000 250.720 78.000 250.400 C 77.450 250.224,76.640 250.074,76.200 250.068 L 75.400 250.056 76.200 250.400 M347.200 250.400 C 346.405 250.914,347.404 250.914,348.600 250.400 L 349.400 250.056 348.600 250.034 C 348.160 250.022,347.530 250.187,347.200 250.400 M81.000 251.223 C 81.880 251.405,83.140 251.544,83.800 251.531 C 84.844 251.511,84.792 251.465,83.400 251.177 C 82.520 250.995,81.260 250.856,80.600 250.869 C 79.556 250.889,79.608 250.935,81.000 251.223 M342.800 251.200 L 341.800 251.520 342.800 251.520 C 343.350 251.520,344.250 251.376,344.800 251.200 L 345.800 250.880 344.800 250.880 C 344.250 250.880,343.350 251.024,342.800 251.200 M106.200 251.896 C 153.748 252.152,253.104 252.174,252.485 251.928 C 252.108 251.779,214.720 251.687,169.400 251.724 C 124.080 251.762,95.640 251.839,106.200 251.896 M279.515 251.928 C 279.138 252.078,280.076 252.200,281.600 252.200 C 283.124 252.200,284.062 252.078,283.685 251.928 C 283.308 251.779,282.370 251.656,281.600 251.656 C 280.830 251.656,279.892 251.779,279.515 251.928 M310.712 251.928 C 310.078 252.179,329.214 252.141,336.600 251.877 C 338.360 251.814,333.410 251.739,325.600 251.710 C 317.790 251.680,311.090 251.779,310.712 251.928 M276.962 253.262 L 276.200 254.124 277.300 253.416 C 278.434 252.686,278.649 252.400,278.062 252.400 C 277.876 252.400,277.381 252.788,276.962 253.262 M286.075 253.567 C 287.660 254.911,288.792 256.810,288.813 258.161 C 288.820 258.623,289.090 259.349,289.413 259.776 C 289.736 260.204,290.000 260.349,290.000 260.100 C 290.000 259.851,289.820 259.536,289.600 259.400 C 289.380 259.264,289.200 258.719,289.200 258.189 C 289.200 257.088,287.838 254.481,286.858 253.707 C 285.368 252.529,284.712 252.412,286.075 253.567 M308.162 253.262 L 307.400 254.124 308.500 253.416 C 309.634 252.686,309.849 252.400,309.262 252.400 C 309.076 252.400,308.581 252.788,308.162 253.262 M255.614 254.246 C 256.156 254.932,256.828 255.832,257.106 256.246 C 257.404 256.691,257.380 256.508,257.047 255.799 C 256.736 255.139,256.065 254.239,255.555 253.799 C 254.660 253.027,254.662 253.043,255.614 254.246 M273.713 258.500 C 273.313 260.002,273.327 260.110,273.830 259.424 C 274.312 258.767,274.651 256.800,274.283 256.800 C 274.218 256.800,273.962 257.565,273.713 258.500 M304.916 258.570 C 304.479 259.986,304.493 260.079,305.051 259.521 C 305.391 259.181,305.609 258.474,305.535 257.951 C 305.421 257.150,305.324 257.248,304.916 258.570 " stroke="none" fill="#495c74" fill-rule="evenodd"></path><path id="path3" d="M223.715 44.696 C 224.988 44.776,226.968 44.775,228.115 44.694 C 229.262 44.614,228.220 44.549,225.800 44.550 C 223.380 44.551,222.442 44.616,223.715 44.696 M211.700 45.476 C 212.085 45.576,212.715 45.576,213.100 45.476 C 213.485 45.375,213.170 45.293,212.400 45.293 C 211.630 45.293,211.315 45.375,211.700 45.476 M153.781 72.900 L 152.200 74.600 153.900 73.019 C 155.481 71.548,155.784 71.200,155.481 71.200 C 155.416 71.200,154.651 71.965,153.781 72.900 M296.200 73.200 C 297.283 74.300,298.260 75.200,298.370 75.200 C 298.480 75.200,297.683 74.300,296.600 73.200 C 295.517 72.100,294.540 71.200,294.430 71.200 C 294.320 71.200,295.117 72.100,296.200 73.200 M150.378 76.300 L 149.000 77.800 150.500 76.422 C 151.325 75.663,152.000 74.988,152.000 74.922 C 152.000 74.616,151.662 74.904,150.378 76.300 M300.000 77.000 C 300.746 77.770,301.447 78.400,301.557 78.400 C 301.667 78.400,301.146 77.770,300.400 77.000 C 299.654 76.230,298.953 75.600,298.843 75.600 C 298.733 75.600,299.254 76.230,300.000 77.000 M89.911 100.293 C 90.851 100.378,92.291 100.377,93.111 100.291 C 93.930 100.205,93.160 100.136,91.400 100.137 C 89.640 100.139,88.970 100.209,89.911 100.293 M156.200 111.600 C 157.283 112.700,158.260 113.600,158.370 113.600 C 158.480 113.600,157.683 112.700,156.600 111.600 C 155.517 110.500,154.540 109.600,154.430 109.600 C 154.320 109.600,155.117 110.500,156.200 111.600 M144.400 122.200 C 145.146 122.970,145.847 123.600,145.957 123.600 C 146.067 123.600,145.546 122.970,144.800 122.200 C 144.054 121.430,143.353 120.800,143.243 120.800 C 143.133 120.800,143.654 121.430,144.400 122.200 M37.381 122.900 L 35.800 124.600 37.500 123.019 C 38.435 122.149,39.200 121.384,39.200 121.319 C 39.200 121.016,38.852 121.319,37.381 122.900 M334.515 156.296 C 335.788 156.376,337.768 156.375,338.915 156.294 C 340.062 156.214,339.020 156.149,336.600 156.150 C 334.180 156.151,333.242 156.216,334.515 156.296 M15.724 173.400 C 15.726 174.720,15.801 175.212,15.890 174.493 C 15.979 173.774,15.977 172.694,15.886 172.093 C 15.795 171.492,15.722 172.080,15.724 173.400 M15.724 178.600 C 15.726 179.920,15.801 180.412,15.890 179.693 C 15.979 178.974,15.977 177.894,15.886 177.293 C 15.795 176.692,15.722 177.280,15.724 178.600 " stroke="none" fill="#637b9d" fill-rule="evenodd"></path><path id="path4" d="M215.200 45.200 L 213.400 45.480 215.200 45.493 C 216.190 45.500,217.540 45.368,218.200 45.200 L 219.400 44.895 218.200 44.907 C 217.540 44.914,216.190 45.046,215.200 45.200 M232.000 45.189 C 232.978 45.513,237.096 45.742,236.767 45.455 C 236.675 45.375,235.340 45.208,233.800 45.084 C 232.096 44.947,231.391 44.988,232.000 45.189 M208.800 46.000 C 207.416 46.291,207.414 46.295,208.600 46.341 C 209.260 46.367,210.070 46.213,210.400 46.000 C 211.066 45.570,210.845 45.570,208.800 46.000 M239.800 45.990 C 240.564 46.328,243.114 46.557,242.767 46.256 C 242.675 46.176,241.790 46.004,240.800 45.873 C 239.598 45.714,239.266 45.753,239.800 45.990 M204.000 46.800 L 203.000 47.120 204.000 47.154 C 204.550 47.173,205.270 47.013,205.600 46.800 C 206.364 46.306,205.542 46.306,204.000 46.800 M244.400 46.800 C 244.730 47.013,245.450 47.173,246.000 47.154 L 247.000 47.120 246.000 46.800 C 244.458 46.306,243.636 46.306,244.400 46.800 M200.800 47.600 C 199.976 47.864,199.941 47.926,200.600 47.954 C 201.040 47.973,201.670 47.813,202.000 47.600 C 202.701 47.147,202.214 47.147,200.800 47.600 M248.190 47.584 C 248.332 47.813,248.917 48.000,249.490 48.000 C 250.744 48.000,250.599 47.808,249.066 47.440 C 248.323 47.262,248.021 47.311,248.190 47.584 M197.200 48.400 C 196.376 48.664,196.341 48.726,197.000 48.754 C 197.440 48.773,198.070 48.613,198.400 48.400 C 199.101 47.947,198.614 47.947,197.200 48.400 M251.600 48.382 C 251.930 48.605,252.545 48.791,252.967 48.794 C 253.990 48.802,253.671 48.573,252.200 48.244 C 251.324 48.048,251.162 48.085,251.600 48.382 M256.401 49.731 C 256.643 49.969,261.088 51.598,262.200 51.855 C 263.427 52.140,258.766 50.178,257.401 49.836 C 256.741 49.670,256.291 49.623,256.401 49.731 M189.400 51.014 C 188.395 51.498,188.363 51.553,189.200 51.351 C 189.750 51.219,190.371 50.950,190.580 50.755 C 191.098 50.271,190.814 50.333,189.400 51.014 M283.605 63.073 C 283.608 63.253,284.257 63.819,285.048 64.332 C 285.840 64.845,286.372 65.078,286.231 64.851 C 285.841 64.218,283.599 62.701,283.605 63.073 M163.600 64.835 L 162.200 66.048 163.695 65.124 C 164.517 64.616,165.192 64.065,165.195 63.900 C 165.202 63.464,165.138 63.502,163.600 64.835 M291.288 69.013 C 291.886 69.643,292.447 70.077,292.535 69.979 C 292.623 69.880,292.133 69.365,291.447 68.834 L 290.200 67.869 291.288 69.013 M155.781 71.300 L 154.200 73.000 155.900 71.419 C 156.835 70.549,157.600 69.784,157.600 69.719 C 157.600 69.416,157.252 69.719,155.781 71.300 M148.800 78.200 C 147.828 79.190,147.123 80.000,147.233 80.000 C 147.343 80.000,148.228 79.190,149.200 78.200 C 150.172 77.210,150.877 76.400,150.767 76.400 C 150.657 76.400,149.772 77.210,148.800 78.200 M301.422 78.825 C 302.290 79.829,303.081 80.588,303.180 80.512 C 303.280 80.435,302.570 79.614,301.603 78.686 L 299.844 77.000 301.422 78.825 M144.175 83.700 L 143.000 85.000 144.300 83.825 C 145.512 82.730,145.784 82.400,145.475 82.400 C 145.406 82.400,144.821 82.985,144.175 83.700 M140.493 88.400 C 140.218 88.840,140.131 89.200,140.300 89.200 C 140.469 89.200,140.832 88.840,141.107 88.400 C 141.382 87.960,141.469 87.600,141.300 87.600 C 141.131 87.600,140.768 87.960,140.493 88.400 M136.189 95.218 C 135.894 95.696,136.686 96.800,137.325 96.800 C 137.561 96.800,137.421 96.557,137.015 96.261 C 136.610 95.964,136.406 95.514,136.562 95.261 C 136.719 95.007,136.757 94.800,136.647 94.800 C 136.537 94.800,136.331 94.988,136.189 95.218 M315.400 98.400 C 315.741 99.060,316.111 99.600,316.221 99.600 C 316.331 99.600,316.141 99.060,315.800 98.400 C 315.459 97.740,315.089 97.200,314.979 97.200 C 314.869 97.200,315.059 97.740,315.400 98.400 M139.200 97.724 C 139.200 97.817,139.965 98.398,140.900 99.015 C 141.835 99.632,142.389 99.880,142.131 99.568 C 141.634 98.967,139.200 97.436,139.200 97.724 M88.917 100.697 C 90.411 100.774,92.751 100.774,94.117 100.696 C 95.482 100.618,94.260 100.555,91.400 100.555 C 88.540 100.556,87.422 100.620,88.917 100.697 M82.307 101.090 C 83.026 101.179,84.106 101.177,84.707 101.086 C 85.308 100.995,84.720 100.922,83.400 100.924 C 82.080 100.926,81.588 101.001,82.307 101.090 M98.307 101.090 C 99.026 101.179,100.106 101.177,100.707 101.086 C 101.308 100.995,100.720 100.922,99.400 100.924 C 98.080 100.926,97.588 101.001,98.307 101.090 M76.900 101.876 C 77.285 101.976,77.915 101.976,78.300 101.876 C 78.685 101.775,78.370 101.693,77.600 101.693 C 76.830 101.693,76.515 101.775,76.900 101.876 M104.500 101.876 C 104.885 101.976,105.515 101.976,105.900 101.876 C 106.285 101.775,105.970 101.693,105.200 101.693 C 104.430 101.693,104.115 101.775,104.500 101.876 M72.400 102.818 C 71.962 103.115,72.124 103.152,73.000 102.956 C 74.471 102.627,74.790 102.398,73.767 102.406 C 73.345 102.409,72.730 102.595,72.400 102.818 M108.433 102.544 C 108.525 102.623,109.140 102.808,109.800 102.956 C 110.676 103.152,110.838 103.115,110.400 102.818 C 109.860 102.453,108.032 102.198,108.433 102.544 M146.800 102.888 C 146.800 102.966,147.655 103.733,148.700 104.592 C 149.745 105.451,150.240 105.740,149.800 105.234 C 149.022 104.339,146.800 102.602,146.800 102.888 M318.400 104.084 C 318.400 104.516,319.615 107.200,319.811 107.200 C 319.921 107.200,319.733 106.534,319.393 105.721 C 318.793 104.286,318.400 103.638,318.400 104.084 M152.383 107.702 C 153.364 108.746,154.322 109.600,154.512 109.600 C 154.869 109.600,154.801 109.530,152.176 107.202 C 150.671 105.866,150.680 105.889,152.383 107.702 M158.400 113.455 C 158.400 113.668,159.075 114.463,159.900 115.222 L 161.400 116.600 160.000 115.004 C 159.230 114.127,158.555 113.332,158.500 113.238 C 158.445 113.144,158.400 113.241,158.400 113.455 M135.200 114.533 C 135.200 114.643,135.920 115.303,136.800 116.000 C 137.680 116.697,138.400 117.177,138.400 117.067 C 138.400 116.957,137.680 116.297,136.800 115.600 C 135.920 114.903,135.200 114.423,135.200 114.533 M44.400 116.875 L 42.600 118.485 44.400 117.165 C 45.390 116.439,46.275 115.790,46.367 115.723 C 46.458 115.655,46.458 115.525,46.366 115.433 C 46.274 115.341,45.389 115.990,44.400 116.875 M39.785 120.900 L 37.800 123.000 39.900 121.015 C 41.055 119.923,42.000 118.978,42.000 118.915 C 42.000 118.617,41.629 118.949,39.785 120.900 M140.800 118.925 C 140.800 118.994,141.385 119.579,142.100 120.225 L 143.400 121.400 142.225 120.100 C 141.130 118.888,140.800 118.616,140.800 118.925 M165.808 122.758 C 166.615 123.881,167.357 124.800,167.457 124.800 C 167.732 124.800,165.252 121.280,164.766 120.979 C 164.532 120.835,165.001 121.635,165.808 122.758 M35.807 124.793 C 34.952 125.669,34.330 126.445,34.426 126.518 C 34.522 126.591,35.298 125.874,36.152 124.925 C 38.101 122.759,37.877 122.673,35.807 124.793 M147.749 126.116 C 148.820 127.372,149.782 128.400,149.886 128.400 C 150.154 128.400,146.823 124.461,146.264 124.117 C 146.009 123.961,146.677 124.860,147.749 126.116 M32.294 128.855 C 31.466 129.925,30.869 130.800,30.967 130.800 C 31.257 130.800,34.128 127.193,33.957 127.044 C 33.870 126.970,33.122 127.785,32.294 128.855 M151.200 130.400 C 151.897 131.280,152.557 132.000,152.667 132.000 C 152.777 132.000,152.297 131.280,151.600 130.400 C 150.903 129.520,150.243 128.800,150.133 128.800 C 150.023 128.800,150.503 129.520,151.200 130.400 M326.428 129.476 C 326.413 129.958,326.580 130.464,326.800 130.600 C 327.273 130.892,327.273 130.501,326.800 129.400 C 326.469 128.629,326.455 128.631,326.428 129.476 M327.268 134.800 C 327.262 135.350,327.411 136.160,327.600 136.600 L 327.944 137.400 327.932 136.600 C 327.926 136.160,327.776 135.350,327.600 134.800 L 327.280 133.800 327.268 134.800 M325.200 140.800 C 324.436 141.294,325.258 141.294,326.800 140.800 L 327.800 140.480 326.800 140.446 C 326.250 140.427,325.530 140.587,325.200 140.800 M321.600 141.618 C 321.162 141.915,321.324 141.952,322.200 141.756 C 323.671 141.427,323.990 141.198,322.967 141.206 C 322.545 141.209,321.930 141.395,321.600 141.618 M177.800 148.000 C 177.800 149.498,177.935 150.640,178.100 150.538 C 178.486 150.300,178.481 146.346,178.094 145.738 C 177.932 145.484,177.800 146.502,177.800 148.000 M298.114 157.000 C 298.117 158.100,298.195 158.503,298.287 157.895 C 298.379 157.286,298.377 156.386,298.282 155.895 C 298.187 155.403,298.111 155.900,298.114 157.000 M168.138 156.094 C 168.392 156.256,169.320 156.388,170.200 156.388 C 171.080 156.388,172.008 156.256,172.262 156.094 C 172.516 155.932,171.588 155.800,170.200 155.800 C 168.812 155.800,167.884 155.932,168.138 156.094 M18.249 156.615 C 18.112 156.973,18.018 157.656,18.041 158.133 C 18.067 158.681,18.203 158.486,18.410 157.603 C 18.760 156.116,18.665 155.533,18.249 156.615 M328.200 156.800 L 327.400 157.144 328.200 157.166 C 328.640 157.178,329.270 157.013,329.600 156.800 C 330.395 156.286,329.396 156.286,328.200 156.800 M343.400 156.800 C 343.840 156.989,344.470 157.144,344.800 157.144 C 345.178 157.144,345.104 157.017,344.600 156.800 C 344.160 156.611,343.530 156.456,343.200 156.456 C 342.822 156.456,342.896 156.583,343.400 156.800 M17.293 161.600 C 17.293 162.370,17.375 162.685,17.476 162.300 C 17.576 161.915,17.576 161.285,17.476 160.900 C 17.375 160.515,17.293 160.830,17.293 161.600 M300.686 162.803 C 301.614 163.770,302.435 164.480,302.512 164.380 C 302.588 164.281,301.829 163.490,300.825 162.622 L 299.000 161.044 300.686 162.803 M358.000 161.379 C 358.000 161.489,358.540 161.859,359.200 162.200 C 359.860 162.541,360.400 162.731,360.400 162.621 C 360.400 162.511,359.860 162.141,359.200 161.800 C 358.540 161.459,358.000 161.269,358.000 161.379 M362.000 163.724 C 362.000 163.817,362.765 164.398,363.700 165.015 C 364.635 165.632,365.189 165.880,364.931 165.568 C 364.434 164.967,362.000 163.436,362.000 163.724 M303.738 164.894 C 303.992 165.056,305.100 165.188,306.200 165.188 C 307.300 165.188,308.408 165.056,308.662 164.894 C 308.916 164.732,307.808 164.600,306.200 164.600 C 304.592 164.600,303.484 164.732,303.738 164.894 M16.514 167.000 C 16.517 168.100,16.595 168.503,16.687 167.895 C 16.779 167.286,16.777 166.386,16.682 165.895 C 16.587 165.403,16.511 165.900,16.514 167.000 M366.869 167.471 C 367.601 168.060,368.932 169.185,369.827 169.971 C 370.722 170.757,370.280 170.275,368.846 168.900 C 367.411 167.525,366.080 166.400,365.888 166.400 C 365.696 166.400,366.137 166.882,366.869 167.471 M16.093 170.400 C 16.093 171.170,16.175 171.485,16.276 171.100 C 16.376 170.715,16.376 170.085,16.276 169.700 C 16.175 169.315,16.093 169.630,16.093 170.400 M371.600 172.125 C 371.600 172.194,372.173 172.779,372.874 173.425 L 374.149 174.600 373.174 173.322 C 372.347 172.237,371.600 171.669,371.600 172.125 M16.287 183.400 C 16.408 185.160,16.574 186.675,16.654 186.767 C 16.933 187.085,16.752 183.390,16.410 181.800 C 16.163 180.651,16.129 181.102,16.287 183.400 M17.293 190.400 C 17.293 191.170,17.375 191.485,17.476 191.100 C 17.576 190.715,17.576 190.085,17.476 189.700 C 17.375 189.315,17.293 189.630,17.293 190.400 M382.244 191.400 C 382.573 192.871,382.802 193.190,382.794 192.167 C 382.791 191.745,382.605 191.130,382.382 190.800 C 382.085 190.362,382.048 190.524,382.244 191.400 M383.301 196.200 C 383.305 197.080,383.387 197.393,383.483 196.895 C 383.579 196.398,383.575 195.678,383.475 195.295 C 383.375 194.913,383.296 195.320,383.301 196.200 M18.806 197.033 C 18.809 197.455,18.995 198.070,19.218 198.400 C 19.515 198.838,19.552 198.676,19.356 197.800 C 19.027 196.329,18.798 196.010,18.806 197.033 M383.693 199.200 C 383.693 199.970,383.775 200.285,383.876 199.900 C 383.976 199.515,383.976 198.885,383.876 198.500 C 383.775 198.115,383.693 198.430,383.693 199.200 M384.131 203.800 C 384.133 205.340,384.205 205.921,384.292 205.091 C 384.379 204.261,384.377 203.001,384.289 202.291 C 384.200 201.581,384.129 202.260,384.131 203.800 M383.301 211.400 C 383.305 212.280,383.387 212.593,383.483 212.095 C 383.579 211.598,383.575 210.878,383.475 210.495 C 383.375 210.113,383.296 210.520,383.301 211.400 M382.446 215.267 C 382.421 215.634,382.296 216.264,382.170 216.667 C 381.952 217.362,381.963 217.363,382.397 216.687 C 382.648 216.296,382.773 215.666,382.673 215.287 C 382.511 214.668,382.488 214.666,382.446 215.267 M32.751 223.538 C 33.421 224.385,34.287 225.330,34.674 225.638 C 35.061 225.947,34.590 225.255,33.626 224.100 C 31.606 221.678,30.938 221.249,32.751 223.538 M35.600 226.648 C 35.600 227.057,39.698 231.108,41.000 231.987 C 41.440 232.284,40.986 231.799,39.990 230.909 C 38.995 230.020,37.600 228.612,36.890 227.781 C 36.181 226.951,35.600 226.441,35.600 226.648 M372.181 234.900 L 370.600 236.600 372.300 235.019 C 373.235 234.149,374.000 233.384,374.000 233.319 C 374.000 233.016,373.652 233.319,372.181 234.900 M366.975 240.100 L 365.800 241.400 367.100 240.225 C 367.815 239.579,368.400 238.994,368.400 238.925 C 368.400 238.616,368.070 238.888,366.975 240.100 M74.600 249.600 C 75.040 249.789,75.760 249.938,76.200 249.932 C 76.843 249.923,76.804 249.857,76.000 249.600 C 74.632 249.162,73.581 249.162,74.600 249.600 M344.600 250.400 L 343.000 250.686 344.400 250.715 C 345.170 250.731,346.160 250.589,346.600 250.400 C 347.543 249.995,346.862 249.995,344.600 250.400 M80.300 250.682 C 80.795 250.778,81.605 250.778,82.100 250.682 C 82.595 250.587,82.190 250.509,81.200 250.509 C 80.210 250.509,79.805 250.587,80.300 250.682 M84.100 251.076 C 84.485 251.176,85.115 251.176,85.500 251.076 C 85.885 250.975,85.570 250.893,84.800 250.893 C 84.030 250.893,83.715 250.975,84.100 251.076 M110.200 251.496 C 171.658 251.764,253.076 251.770,252.662 251.506 C 252.408 251.344,214.940 251.253,169.400 251.303 C 123.860 251.353,97.220 251.440,110.200 251.496 M279.800 251.400 C 280.761 251.728,284.425 251.862,283.934 251.551 C 283.640 251.365,282.500 251.224,281.400 251.238 C 280.300 251.252,279.580 251.325,279.800 251.400 M318.126 251.500 C 322.266 251.565,328.926 251.565,332.926 251.499 C 336.927 251.434,333.540 251.381,325.400 251.381 C 317.260 251.381,313.987 251.434,318.126 251.500 M284.833 252.130 C 284.925 252.201,285.630 252.666,286.400 253.163 L 287.800 254.066 286.600 253.035 C 285.940 252.468,285.235 252.003,285.033 252.002 C 284.832 252.001,284.742 252.058,284.833 252.130 M306.989 253.789 C 306.005 254.774,305.200 255.805,305.200 256.082 C 305.200 256.359,305.640 255.938,306.178 255.146 C 306.717 254.354,307.752 253.325,308.478 252.860 C 309.205 252.394,309.570 252.010,309.289 252.007 C 309.009 252.003,307.974 252.805,306.989 253.789 M288.237 255.400 C 288.597 255.950,288.957 256.400,289.037 256.400 C 289.117 256.400,288.978 255.950,288.727 255.400 C 288.477 254.850,288.116 254.400,287.927 254.400 C 287.737 254.400,287.876 254.850,288.237 255.400 " stroke="none" fill="#7494bc" fill-rule="evenodd"></path></g></svg>