<svg id="svg" version="1.1" xmlns="http://www.w3.org/2000/svg" xmlns:xlink="http://www.w3.org/1999/xlink" width="400" height="400" viewBox="0, 0, 400,400"><g id="svgg"><path id="path0" d="M116.030 0.288 C 115.079 0.664,112.800 3.132,112.800 3.787 C 112.800 4.124,112.620 4.400,112.400 4.400 C 112.165 4.400,112.000 5.792,112.000 7.776 C 112.000 9.633,112.180 11.264,112.400 11.400 C 112.620 11.536,112.800 12.087,112.800 12.624 C 112.800 13.161,112.980 13.600,113.200 13.600 C 113.420 13.600,113.600 13.960,113.600 14.400 C 113.600 14.840,113.780 15.200,114.000 15.200 C 114.220 15.200,114.400 15.639,114.400 16.176 C 114.400 16.713,114.580 17.264,114.800 17.400 C 115.020 17.536,115.200 17.997,115.200 18.424 C 115.200 18.851,115.380 19.200,115.600 19.200 C 115.820 19.200,116.000 19.472,116.000 19.805 C 116.000 20.138,116.157 20.723,116.350 21.105 C 117.914 24.211,118.400 25.379,118.400 26.038 C 118.400 26.457,118.580 26.800,118.800 26.800 C 119.020 26.800,119.200 27.160,119.200 27.600 C 119.200 28.040,119.380 28.400,119.600 28.400 C 119.820 28.400,120.000 28.839,120.000 29.376 C 120.000 29.913,120.180 30.464,120.400 30.600 C 120.620 30.736,120.800 31.197,120.800 31.624 C 120.800 32.051,120.980 32.400,121.200 32.400 C 121.420 32.400,121.600 32.760,121.600 33.200 C 121.600 33.640,121.780 34.000,122.000 34.000 C 122.220 34.000,122.400 34.540,122.400 35.200 C 122.400 35.860,122.580 36.400,122.800 36.400 C 123.020 36.400,123.200 36.760,123.200 37.200 C 123.200 37.640,123.380 38.000,123.600 38.000 C 123.820 38.000,124.000 38.450,124.000 39.000 C 124.000 39.550,124.180 40.000,124.400 40.000 C 124.620 40.000,124.801 40.315,124.802 40.700 C 124.804 41.085,125.074 41.916,125.402 42.546 C 125.731 43.176,126.000 44.020,126.000 44.422 C 126.000 44.824,126.180 45.264,126.400 45.400 C 126.620 45.536,126.800 45.997,126.800 46.424 C 126.800 46.851,126.980 47.200,127.200 47.200 C 127.420 47.200,127.600 47.639,127.600 48.176 C 127.600 48.713,127.780 49.264,128.000 49.400 C 128.220 49.536,128.400 49.997,128.400 50.424 C 128.400 50.851,128.580 51.200,128.800 51.200 C 129.020 51.200,129.200 51.472,129.200 51.805 C 129.200 53.151,132.242 56.800,133.363 56.800 C 133.687 56.800,134.064 56.980,134.200 57.200 C 134.556 57.775,140.246 57.695,141.280 57.100 C 142.448 56.428,144.800 54.121,144.800 53.647 C 144.800 53.438,144.990 53.203,145.223 53.126 C 145.802 52.933,145.810 45.070,145.231 44.877 C 144.994 44.798,144.800 44.388,144.800 43.967 C 144.800 43.545,144.620 43.200,144.400 43.200 C 144.180 43.200,144.000 42.750,144.000 42.200 C 144.000 41.650,143.820 41.200,143.600 41.200 C 143.380 41.200,143.200 40.840,143.200 40.400 C 143.200 39.960,143.020 39.600,142.800 39.600 C 142.580 39.600,142.400 39.161,142.400 38.624 C 142.400 38.087,142.220 37.536,142.000 37.400 C 141.780 37.264,141.599 36.848,141.598 36.476 C 141.596 36.104,141.326 35.284,140.998 34.654 C 140.669 34.024,140.400 33.347,140.400 33.150 C 140.400 32.953,140.022 31.938,139.560 30.896 C 139.098 29.853,138.584 28.640,138.417 28.200 C 138.250 27.760,137.728 26.618,137.257 25.662 C 136.786 24.706,136.400 23.581,136.400 23.162 C 136.400 22.743,136.220 22.400,136.000 22.400 C 135.780 22.400,135.600 22.040,135.600 21.600 C 135.600 21.160,135.420 20.800,135.200 20.800 C 134.980 20.800,134.800 20.361,134.800 19.824 C 134.800 19.287,134.620 18.736,134.400 18.600 C 134.180 18.464,134.000 18.003,134.000 17.576 C 134.000 17.149,133.820 16.800,133.600 16.800 C 133.380 16.800,133.200 16.451,133.200 16.024 C 133.200 15.597,133.020 15.136,132.800 15.000 C 132.580 14.864,132.400 14.313,132.400 13.776 C 132.400 13.239,132.220 12.800,132.000 12.800 C 131.780 12.800,131.600 12.440,131.600 12.000 C 131.600 11.560,131.420 11.200,131.200 11.200 C 130.980 11.200,130.800 10.750,130.800 10.200 C 130.800 9.650,130.620 9.200,130.400 9.200 C 130.180 9.200,130.000 8.840,130.000 8.400 C 130.000 7.960,129.820 7.600,129.600 7.600 C 129.380 7.600,129.200 7.161,129.200 6.624 C 129.200 6.087,129.020 5.536,128.800 5.400 C 128.580 5.264,128.400 4.886,128.400 4.560 C 128.400 4.233,128.040 3.580,127.600 3.108 C 127.160 2.636,126.800 2.013,126.800 1.725 C 126.800 1.436,126.517 1.200,126.171 1.200 C 125.826 1.200,125.273 0.930,124.943 0.600 C 124.339 -0.004,117.385 -0.247,116.030 0.288 M275.091 0.566 C 274.742 0.915,274.174 1.200,273.829 1.200 C 273.483 1.200,273.200 1.436,273.200 1.725 C 273.200 2.013,272.840 2.636,272.400 3.108 C 271.960 3.580,271.600 4.233,271.600 4.560 C 271.600 4.886,271.420 5.264,271.200 5.400 C 270.980 5.536,270.800 6.087,270.800 6.624 C 270.800 7.161,270.620 7.600,270.400 7.600 C 270.180 7.600,270.000 7.960,270.000 8.400 C 270.000 8.840,269.820 9.200,269.600 9.200 C 269.380 9.200,269.200 9.650,269.200 10.200 C 269.200 10.750,269.020 11.200,268.800 11.200 C 268.580 11.200,268.400 11.560,268.400 12.000 C 268.400 12.440,268.220 12.800,268.000 12.800 C 267.780 12.800,267.600 13.340,267.600 14.000 C 267.600 14.660,267.420 15.200,267.200 15.200 C 266.980 15.200,266.800 15.560,266.800 16.000 C 266.800 16.440,266.620 16.800,266.400 16.800 C 266.180 16.800,266.000 17.149,266.000 17.576 C 266.000 18.003,265.820 18.464,265.600 18.600 C 265.380 18.736,265.200 19.287,265.200 19.824 C 265.200 20.361,265.020 20.800,264.800 20.800 C 264.580 20.800,264.400 21.160,264.400 21.600 C 264.400 22.040,264.220 22.400,264.000 22.400 C 263.780 22.400,263.600 22.940,263.600 23.600 C 263.600 24.260,263.464 24.800,263.298 24.800 C 263.131 24.800,262.756 25.385,262.464 26.100 C 262.172 26.815,261.786 27.760,261.606 28.200 C 261.427 28.640,260.902 29.853,260.440 30.896 C 259.978 31.938,259.600 32.953,259.600 33.150 C 259.600 33.347,259.331 34.024,259.002 34.654 C 258.674 35.284,258.404 36.104,258.402 36.476 C 258.401 36.848,258.220 37.264,258.000 37.400 C 257.780 37.536,257.600 38.087,257.600 38.624 C 257.600 39.161,257.420 39.600,257.200 39.600 C 256.980 39.600,256.800 39.960,256.800 40.400 C 256.800 40.840,256.620 41.200,256.400 41.200 C 256.180 41.200,256.000 41.650,256.000 42.200 C 256.000 42.750,255.820 43.200,255.600 43.200 C 255.380 43.200,255.200 43.545,255.200 43.967 C 255.200 44.388,255.003 44.799,254.761 44.880 C 254.150 45.083,254.137 52.912,254.748 53.116 C 254.997 53.199,255.200 53.438,255.200 53.647 C 255.200 54.121,257.552 56.428,258.720 57.100 C 259.765 57.701,266.000 57.787,266.000 57.200 C 266.000 56.980,266.276 56.800,266.613 56.800 C 267.755 56.800,270.800 53.167,270.800 51.805 C 270.800 51.472,270.980 51.200,271.200 51.200 C 271.420 51.200,271.600 50.851,271.600 50.424 C 271.600 49.997,271.780 49.536,272.000 49.400 C 272.220 49.264,272.400 48.713,272.400 48.176 C 272.400 47.639,272.580 47.200,272.800 47.200 C 273.020 47.200,273.200 46.928,273.200 46.595 C 273.200 46.262,273.380 45.632,273.600 45.195 C 273.820 44.758,274.168 44.062,274.373 43.649 C 274.578 43.236,274.868 42.246,275.017 41.449 C 275.167 40.652,275.449 40.000,275.645 40.000 C 275.840 40.000,276.000 39.550,276.000 39.000 C 276.000 38.450,276.180 38.000,276.400 38.000 C 276.620 38.000,276.800 37.640,276.800 37.200 C 276.800 36.760,276.980 36.400,277.200 36.400 C 277.420 36.400,277.600 35.961,277.600 35.424 C 277.600 34.887,277.780 34.336,278.000 34.200 C 278.220 34.064,278.400 33.603,278.400 33.176 C 278.400 32.749,278.580 32.400,278.800 32.400 C 279.020 32.400,279.200 32.040,279.200 31.600 C 279.200 31.160,279.380 30.800,279.600 30.800 C 279.820 30.800,280.000 30.260,280.000 29.600 C 280.000 28.940,280.180 28.400,280.400 28.400 C 280.620 28.400,280.800 28.040,280.800 27.600 C 280.800 27.160,280.980 26.800,281.200 26.800 C 281.420 26.800,281.600 26.350,281.600 25.800 C 281.600 25.250,281.780 24.800,282.000 24.800 C 282.220 24.800,282.400 24.528,282.400 24.195 C 282.400 23.862,282.580 23.232,282.800 22.795 C 283.020 22.358,283.380 21.642,283.600 21.205 C 283.820 20.768,284.000 20.138,284.000 19.805 C 284.000 19.472,284.180 19.200,284.400 19.200 C 284.620 19.200,284.800 18.851,284.800 18.424 C 284.800 17.997,284.980 17.536,285.200 17.400 C 285.420 17.264,285.600 16.713,285.600 16.176 C 285.600 15.639,285.780 15.200,286.000 15.200 C 286.220 15.200,286.400 14.840,286.400 14.400 C 286.400 13.960,286.580 13.600,286.800 13.600 C 287.020 13.600,287.200 13.161,287.200 12.624 C 287.200 12.087,287.380 11.536,287.600 11.400 C 287.820 11.264,288.000 9.633,288.000 7.776 C 288.000 5.792,287.835 4.400,287.600 4.400 C 287.380 4.400,287.200 4.124,287.200 3.787 C 287.200 3.449,286.531 2.504,285.714 1.687 L 284.229 0.200 279.977 0.066 C 276.504 -0.043,275.608 0.049,275.091 0.566 M196.600 6.400 C 196.464 6.620,196.085 6.800,195.758 6.800 C 195.072 6.800,193.661 8.125,192.561 9.802 C 191.859 10.873,191.790 11.985,191.672 24.181 C 191.514 40.531,191.492 40.357,194.060 42.858 L 196.053 44.800 199.971 44.800 L 203.889 44.800 205.691 43.100 C 206.682 42.165,207.697 41.007,207.946 40.526 C 208.621 39.227,208.578 11.499,207.900 10.320 C 207.104 8.935,204.881 6.800,204.237 6.800 C 203.913 6.800,203.536 6.620,203.400 6.400 C 203.264 6.180,201.734 6.000,200.000 6.000 C 198.266 6.000,196.736 6.180,196.600 6.400 M64.600 60.882 C 61.559 62.620,60.299 64.973,60.316 68.881 C 60.334 72.849,60.088 72.514,70.841 83.200 C 80.393 92.693,80.058 92.400,81.383 92.400 C 81.942 92.400,82.400 92.580,82.400 92.800 C 82.400 93.020,83.300 93.200,84.400 93.200 C 85.500 93.200,86.400 93.020,86.400 92.800 C 86.400 92.580,86.940 92.400,87.600 92.400 C 88.260 92.400,88.800 92.240,88.800 92.043 C 88.800 91.847,89.269 91.569,89.842 91.425 C 90.500 91.260,91.047 90.729,91.329 89.982 C 91.575 89.332,91.916 88.800,92.088 88.800 C 92.259 88.800,92.400 88.361,92.400 87.824 C 92.400 87.287,92.580 86.736,92.800 86.600 C 93.020 86.464,93.200 85.463,93.200 84.376 C 93.200 83.289,93.020 82.400,92.800 82.400 C 92.580 82.400,92.400 81.942,92.400 81.383 C 92.400 80.067,92.679 80.393,83.600 71.123 C 73.247 60.552,73.031 60.397,68.746 60.412 C 66.906 60.419,65.040 60.630,64.600 60.882 M326.400 61.482 C 325.083 62.491,309.180 78.346,308.100 79.727 C 307.825 80.079,307.600 80.824,307.600 81.383 C 307.600 81.942,307.420 82.400,307.200 82.400 C 306.980 82.400,306.800 83.289,306.800 84.376 C 306.800 85.463,306.980 86.464,307.200 86.600 C 307.420 86.736,307.600 87.287,307.600 87.824 C 307.600 88.361,307.736 88.800,307.902 88.800 C 308.069 88.800,308.444 89.340,308.736 90.001 C 309.041 90.689,309.681 91.305,310.234 91.444 C 310.765 91.578,311.200 91.847,311.200 92.043 C 311.200 92.240,311.740 92.400,312.400 92.400 C 313.060 92.400,313.600 92.580,313.600 92.800 C 313.600 93.020,314.500 93.200,315.600 93.200 C 316.700 93.200,317.600 93.020,317.600 92.800 C 317.600 92.580,318.058 92.400,318.617 92.400 C 319.930 92.400,319.561 92.718,329.088 83.400 C 339.378 73.336,339.666 72.941,339.684 68.842 C 339.701 64.943,338.352 62.474,335.326 60.865 C 333.514 59.901,327.962 60.285,326.400 61.482 M185.400 68.000 C 185.264 68.220,183.813 68.400,182.176 68.400 C 180.459 68.400,179.200 68.569,179.200 68.800 C 179.200 69.020,178.210 69.200,177.000 69.200 C 175.790 69.200,174.800 69.380,174.800 69.600 C 174.800 69.820,173.900 70.000,172.800 70.000 C 171.700 70.000,170.800 70.180,170.800 70.400 C 170.800 70.620,170.080 70.800,169.200 70.800 C 168.320 70.800,167.600 70.980,167.600 71.200 C 167.600 71.420,166.880 71.600,166.000 71.600 C 165.120 71.600,164.400 71.780,164.400 72.000 C 164.400 72.220,163.860 72.400,163.200 72.400 C 162.540 72.400,162.000 72.580,162.000 72.800 C 162.000 73.020,161.370 73.200,160.600 73.200 C 159.830 73.200,159.200 73.380,159.200 73.600 C 159.200 73.820,158.660 74.000,158.000 74.000 C 157.340 74.000,156.800 74.180,156.800 74.400 C 156.800 74.620,156.479 74.800,156.086 74.800 C 155.339 74.800,151.594 76.037,149.200 77.075 C 148.430 77.408,147.440 77.820,147.000 77.990 C 145.229 78.673,142.192 80.218,142.067 80.500 C 141.993 80.665,141.588 80.800,141.167 80.800 C 140.745 80.800,140.400 80.980,140.400 81.200 C 140.400 81.420,140.040 81.600,139.600 81.600 C 139.160 81.600,138.800 81.780,138.800 82.000 C 138.800 82.220,138.440 82.400,138.000 82.400 C 137.560 82.400,137.200 82.580,137.200 82.800 C 137.200 83.020,136.840 83.200,136.400 83.200 C 135.960 83.200,135.600 83.380,135.600 83.600 C 135.600 83.820,135.364 84.000,135.075 84.000 C 134.787 84.000,134.164 84.360,133.692 84.800 C 133.220 85.240,132.556 85.600,132.217 85.600 C 131.878 85.600,131.600 85.780,131.600 86.000 C 131.600 86.220,131.280 86.400,130.888 86.400 C 130.497 86.400,129.917 86.760,129.600 87.200 C 129.283 87.640,128.743 88.000,128.400 88.000 C 128.057 88.000,127.517 88.360,127.200 88.800 C 126.883 89.240,126.433 89.600,126.200 89.600 C 125.967 89.600,125.517 89.960,125.200 90.400 C 124.883 90.840,124.303 91.200,123.912 91.200 C 123.520 91.200,123.200 91.358,123.200 91.551 C 123.200 91.745,122.633 92.138,121.940 92.425 C 121.247 92.712,120.083 93.544,119.353 94.273 C 118.624 95.003,117.862 95.600,117.662 95.600 C 117.461 95.600,116.600 96.276,115.748 97.102 C 114.897 97.928,113.570 99.043,112.800 99.580 C 112.030 100.117,110.770 101.267,110.000 102.135 C 108.495 103.832,104.758 107.587,101.940 110.234 C 100.167 111.898,98.800 113.453,98.800 113.804 C 98.800 113.911,98.080 114.741,97.200 115.648 C 96.320 116.555,95.600 117.461,95.600 117.662 C 95.600 117.862,95.003 118.624,94.273 119.353 C 93.544 120.083,92.712 121.247,92.425 121.940 C 92.138 122.633,91.745 123.200,91.551 123.200 C 91.358 123.200,91.200 123.520,91.200 123.912 C 91.200 124.303,90.840 124.883,90.400 125.200 C 89.960 125.517,89.600 125.967,89.600 126.200 C 89.600 126.433,89.240 126.883,88.800 127.200 C 88.360 127.517,88.000 128.014,88.000 128.305 C 88.000 128.596,87.640 129.220,87.200 129.692 C 86.760 130.164,86.400 130.787,86.400 131.075 C 86.400 131.364,86.220 131.600,86.000 131.600 C 85.780 131.600,85.600 131.878,85.600 132.217 C 85.600 132.556,85.240 133.220,84.800 133.692 C 84.360 134.164,84.000 134.787,84.000 135.075 C 84.000 135.364,83.820 135.600,83.600 135.600 C 83.380 135.600,83.200 135.960,83.200 136.400 C 83.200 136.840,83.020 137.200,82.800 137.200 C 82.580 137.200,82.400 137.560,82.400 138.000 C 82.400 138.440,82.220 138.800,82.000 138.800 C 81.780 138.800,81.600 139.160,81.600 139.600 C 81.600 140.040,81.420 140.400,81.200 140.400 C 80.980 140.400,80.800 140.745,80.800 141.167 C 80.800 141.588,80.665 141.993,80.500 142.067 C 80.335 142.140,79.775 143.100,79.256 144.200 C 78.737 145.300,78.152 146.513,77.956 146.895 C 77.760 147.277,77.600 147.847,77.600 148.161 C 77.600 148.476,77.465 148.793,77.300 148.867 C 76.901 149.044,75.170 153.857,74.915 155.500 C 74.803 156.215,74.552 156.800,74.356 156.800 C 74.160 156.800,74.000 157.340,74.000 158.000 C 74.000 158.660,73.820 159.200,73.600 159.200 C 73.380 159.200,73.200 159.830,73.200 160.600 C 73.200 161.370,73.020 162.000,72.800 162.000 C 72.580 162.000,72.400 162.540,72.400 163.200 C 72.400 163.860,72.220 164.400,72.000 164.400 C 71.780 164.400,71.600 165.120,71.600 166.000 C 71.600 166.880,71.420 167.600,71.200 167.600 C 70.980 167.600,70.800 168.320,70.800 169.200 C 70.800 170.080,70.620 170.800,70.400 170.800 C 70.180 170.800,70.000 171.700,70.000 172.800 C 70.000 173.900,69.820 174.800,69.600 174.800 C 69.380 174.800,69.200 175.790,69.200 177.000 C 69.200 178.210,69.020 179.200,68.800 179.200 C 68.569 179.200,68.400 180.459,68.400 182.176 C 68.400 183.813,68.220 185.264,68.000 185.400 C 67.453 185.738,67.453 214.262,68.000 214.600 C 68.220 214.736,68.400 216.187,68.400 217.824 C 68.400 219.541,68.569 220.800,68.800 220.800 C 69.020 220.800,69.200 221.790,69.200 223.000 C 69.200 224.210,69.380 225.200,69.600 225.200 C 69.820 225.200,70.000 226.100,70.000 227.200 C 70.000 228.300,70.180 229.200,70.400 229.200 C 70.620 229.200,70.800 229.920,70.800 230.800 C 70.800 231.680,70.980 232.400,71.200 232.400 C 71.420 232.400,71.600 233.120,71.600 234.000 C 71.600 234.880,71.780 235.600,72.000 235.600 C 72.220 235.600,72.400 236.140,72.400 236.800 C 72.400 237.460,72.580 238.000,72.800 238.000 C 73.020 238.000,73.200 238.630,73.200 239.400 C 73.200 240.170,73.380 240.800,73.600 240.800 C 73.820 240.800,74.000 241.340,74.000 242.000 C 74.000 242.660,74.160 243.200,74.356 243.200 C 74.552 243.200,74.803 243.785,74.914 244.500 C 75.116 245.803,75.930 248.181,77.071 250.800 C 77.407 251.570,77.821 252.560,77.992 253.000 C 78.702 254.833,81.019 259.410,81.298 259.533 C 81.464 259.607,81.600 260.012,81.600 260.433 C 81.600 260.855,81.780 261.200,82.000 261.200 C 82.220 261.200,82.400 261.560,82.400 262.000 C 82.400 262.440,82.580 262.800,82.800 262.800 C 83.020 262.800,83.200 263.160,83.200 263.600 C 83.200 264.040,83.380 264.400,83.600 264.400 C 83.820 264.400,84.000 264.636,84.000 264.925 C 84.000 265.213,84.360 265.836,84.800 266.308 C 85.240 266.780,85.600 267.444,85.600 267.783 C 85.600 268.122,85.780 268.400,86.000 268.400 C 86.220 268.400,86.400 268.636,86.400 268.925 C 86.400 269.213,86.760 269.836,87.200 270.308 C 87.640 270.780,88.000 271.404,88.000 271.695 C 88.000 271.986,88.360 272.483,88.800 272.800 C 89.240 273.117,89.600 273.605,89.600 273.885 C 89.600 274.164,89.960 274.618,90.400 274.893 C 90.840 275.168,91.200 275.709,91.200 276.096 C 91.200 276.483,91.358 276.800,91.551 276.800 C 91.745 276.800,92.138 277.367,92.425 278.060 C 92.712 278.753,93.544 279.917,94.273 280.647 C 95.003 281.376,95.600 282.138,95.600 282.338 C 95.600 282.539,96.276 283.400,97.102 284.252 C 97.928 285.103,99.047 286.430,99.588 287.200 C 100.129 287.970,101.260 289.230,102.102 290.000 C 104.559 292.246,108.485 296.156,110.000 297.865 C 110.770 298.733,112.030 299.883,112.800 300.420 C 113.570 300.957,114.897 302.072,115.748 302.898 C 116.600 303.724,117.473 304.400,117.688 304.400 C 117.903 304.400,118.583 304.940,119.200 305.600 C 119.817 306.260,120.474 306.800,120.660 306.800 C 120.847 306.801,121.523 307.251,122.162 307.800 C 122.801 308.350,123.617 308.800,123.974 308.800 C 124.331 308.800,124.883 309.160,125.200 309.600 C 125.517 310.040,125.967 310.400,126.200 310.400 C 126.433 310.400,126.883 310.760,127.200 311.200 C 127.517 311.640,128.014 312.000,128.305 312.000 C 128.596 312.000,129.220 312.360,129.692 312.800 C 130.164 313.240,130.787 313.600,131.075 313.600 C 131.364 313.600,131.600 313.780,131.600 314.000 C 131.600 314.220,131.878 314.400,132.217 314.400 C 132.556 314.400,133.220 314.760,133.692 315.200 C 134.164 315.640,134.787 316.000,135.075 316.000 C 135.364 316.000,135.600 316.180,135.600 316.400 C 135.600 316.620,135.960 316.800,136.400 316.800 C 136.840 316.800,137.200 316.980,137.200 317.200 C 137.200 317.420,137.560 317.600,138.000 317.600 C 138.440 317.600,138.800 317.780,138.800 318.000 C 138.800 318.220,139.160 318.400,139.600 318.400 C 140.040 318.400,140.400 318.580,140.400 318.800 C 140.400 319.020,140.745 319.200,141.167 319.200 C 141.588 319.200,141.993 319.335,142.067 319.500 C 142.192 319.781,145.218 321.322,147.000 322.011 C 147.440 322.181,148.653 322.698,149.696 323.160 C 150.738 323.622,151.853 324.000,152.172 324.000 C 152.491 324.000,152.858 324.170,152.986 324.377 C 153.114 324.584,154.024 324.875,155.009 325.022 C 155.994 325.170,156.800 325.450,156.800 325.645 C 156.800 325.840,157.340 326.000,158.000 326.000 C 158.660 326.000,159.200 326.180,159.200 326.400 C 159.200 326.620,159.830 326.800,160.600 326.800 C 161.370 326.800,162.000 326.980,162.000 327.200 C 162.000 327.420,162.540 327.600,163.200 327.600 C 163.860 327.600,164.400 327.780,164.400 328.000 C 164.400 328.220,165.120 328.400,166.000 328.400 C 166.880 328.400,167.600 328.580,167.600 328.800 C 167.600 329.020,168.320 329.200,169.200 329.200 C 170.080 329.200,170.800 329.380,170.800 329.600 C 170.800 329.820,171.700 330.000,172.800 330.000 C 173.900 330.000,174.800 330.180,174.800 330.400 C 174.800 330.620,175.790 330.800,177.000 330.800 C 178.210 330.800,179.200 330.980,179.200 331.200 C 179.200 331.433,180.533 331.600,182.400 331.600 C 184.267 331.600,185.600 331.767,185.600 332.000 C 185.600 332.259,190.667 332.400,200.000 332.400 C 209.333 332.400,214.400 332.259,214.400 332.000 C 214.400 331.767,215.733 331.600,217.600 331.600 C 219.467 331.600,220.800 331.433,220.800 331.200 C 220.800 330.980,221.790 330.800,223.000 330.800 C 224.210 330.800,225.200 330.620,225.200 330.400 C 225.200 330.180,226.100 330.000,227.200 330.000 C 228.300 330.000,229.200 329.820,229.200 329.600 C 229.200 329.380,229.920 329.200,230.800 329.200 C 231.680 329.200,232.400 329.020,232.400 328.800 C 232.400 328.580,233.120 328.400,234.000 328.400 C 234.880 328.400,235.600 328.220,235.600 328.000 C 235.600 327.780,236.140 327.600,236.800 327.600 C 237.460 327.600,238.000 327.420,238.000 327.200 C 238.000 326.980,238.630 326.800,239.400 326.800 C 240.170 326.800,240.800 326.620,240.800 326.400 C 240.800 326.180,241.340 326.000,242.000 326.000 C 242.660 326.000,243.200 325.820,243.200 325.600 C 243.200 325.380,243.695 325.199,244.300 325.198 C 244.905 325.196,245.854 324.958,246.409 324.669 C 246.963 324.379,248.268 323.891,249.309 323.584 C 250.349 323.277,251.200 322.885,251.200 322.713 C 251.200 322.541,251.472 322.400,251.805 322.400 C 252.138 322.400,252.723 322.239,253.105 322.042 C 253.487 321.845,255.060 321.081,256.600 320.344 C 258.140 319.607,259.460 318.868,259.533 318.702 C 259.607 318.536,260.012 318.400,260.433 318.400 C 260.855 318.400,261.200 318.220,261.200 318.000 C 261.200 317.780,261.560 317.600,262.000 317.600 C 262.440 317.600,262.800 317.420,262.800 317.200 C 262.800 316.980,263.160 316.800,263.600 316.800 C 264.040 316.800,264.400 316.620,264.400 316.400 C 264.400 316.180,264.636 316.000,264.925 316.000 C 265.213 316.000,265.836 315.640,266.308 315.200 C 266.780 314.760,267.444 314.400,267.783 314.400 C 268.122 314.400,268.400 314.220,268.400 314.000 C 268.400 313.780,268.636 313.600,268.925 313.600 C 269.213 313.600,269.836 313.240,270.308 312.800 C 270.780 312.360,271.404 312.000,271.695 312.000 C 271.986 312.000,272.483 311.640,272.800 311.200 C 273.117 310.760,273.605 310.400,273.885 310.400 C 274.164 310.400,274.618 310.040,274.893 309.600 C 275.168 309.160,275.682 308.800,276.035 308.800 C 276.388 308.800,277.093 308.440,277.600 308.000 C 278.107 307.560,278.637 307.200,278.778 307.200 C 278.918 307.200,279.701 306.570,280.518 305.800 C 281.334 305.030,282.160 304.400,282.353 304.400 C 282.546 304.400,283.411 303.725,284.277 302.900 C 285.142 302.075,286.649 300.778,287.625 300.018 C 288.601 299.258,289.850 298.122,290.400 297.493 C 291.690 296.019,296.019 291.690,297.493 290.400 C 298.122 289.850,299.258 288.601,300.018 287.625 C 300.778 286.649,302.075 285.142,302.900 284.277 C 303.725 283.411,304.400 282.521,304.400 282.299 C 304.400 282.076,304.724 281.603,305.119 281.247 C 305.514 280.891,306.273 279.970,306.806 279.200 C 307.338 278.430,308.005 277.562,308.287 277.271 C 308.569 276.981,308.800 276.439,308.800 276.068 C 308.800 275.696,309.160 275.168,309.600 274.893 C 310.040 274.618,310.400 274.164,310.400 273.885 C 310.400 273.605,310.760 273.117,311.200 272.800 C 311.640 272.483,312.000 271.986,312.000 271.695 C 312.000 271.404,312.360 270.780,312.800 270.308 C 313.240 269.836,313.600 269.213,313.600 268.925 C 313.600 268.636,313.780 268.400,314.000 268.400 C 314.220 268.400,314.400 268.122,314.400 267.783 C 314.400 267.444,314.760 266.780,315.200 266.308 C 315.640 265.836,316.000 265.213,316.000 264.925 C 316.000 264.636,316.180 264.400,316.400 264.400 C 316.620 264.400,316.800 264.040,316.800 263.600 C 316.800 263.160,316.980 262.800,317.200 262.800 C 317.420 262.800,317.600 262.440,317.600 262.000 C 317.600 261.560,317.780 261.200,318.000 261.200 C 318.220 261.200,318.400 260.855,318.400 260.433 C 318.400 260.012,318.536 259.607,318.702 259.533 C 318.980 259.410,321.292 254.844,322.009 253.000 C 322.180 252.560,322.698 251.347,323.160 250.304 C 323.622 249.262,324.000 248.147,324.000 247.828 C 324.000 247.509,324.170 247.142,324.377 247.014 C 324.584 246.886,324.875 245.976,325.022 244.991 C 325.170 244.006,325.450 243.200,325.645 243.200 C 325.840 243.200,326.000 242.660,326.000 242.000 C 326.000 241.340,326.180 240.800,326.400 240.800 C 326.620 240.800,326.800 240.170,326.800 239.400 C 326.800 238.630,326.980 238.000,327.200 238.000 C 327.420 238.000,327.600 237.460,327.600 236.800 C 327.600 236.140,327.780 235.600,328.000 235.600 C 328.220 235.600,328.400 234.880,328.400 234.000 C 328.400 233.120,328.580 232.400,328.800 232.400 C 329.020 232.400,329.200 231.680,329.200 230.800 C 329.200 229.920,329.380 229.200,329.600 229.200 C 329.820 229.200,330.000 228.300,330.000 227.200 C 330.000 226.100,330.180 225.200,330.400 225.200 C 330.620 225.200,330.800 224.210,330.800 223.000 C 330.800 221.790,330.980 220.800,331.200 220.800 C 331.431 220.800,331.600 219.541,331.600 217.824 C 331.600 216.187,331.780 214.736,332.000 214.600 C 332.255 214.443,332.400 209.137,332.400 200.000 C 332.400 190.863,332.255 185.557,332.000 185.400 C 331.780 185.264,331.600 183.813,331.600 182.176 C 331.600 180.459,331.431 179.200,331.200 179.200 C 330.980 179.200,330.800 178.210,330.800 177.000 C 330.800 175.790,330.620 174.800,330.400 174.800 C 330.180 174.800,330.000 173.900,330.000 172.800 C 330.000 171.700,329.820 170.800,329.600 170.800 C 329.380 170.800,329.200 170.080,329.200 169.200 C 329.200 168.320,329.020 167.600,328.800 167.600 C 328.580 167.600,328.400 166.880,328.400 166.000 C 328.400 165.120,328.220 164.400,328.000 164.400 C 327.780 164.400,327.600 163.871,327.600 163.224 C 327.600 162.577,327.420 161.936,327.200 161.800 C 326.980 161.664,326.800 161.023,326.800 160.376 C 326.800 159.729,326.620 159.200,326.400 159.200 C 326.180 159.200,326.000 158.840,326.000 158.400 C 326.000 157.960,325.820 157.600,325.600 157.600 C 325.380 157.600,325.200 157.268,325.200 156.861 C 325.200 156.012,323.925 154.400,323.253 154.400 C 323.004 154.400,322.800 154.220,322.800 154.000 C 322.800 153.780,322.440 153.600,322.000 153.600 C 321.560 153.600,321.200 153.420,321.200 153.200 C 321.200 152.209,316.499 152.765,315.287 153.900 C 314.641 154.505,313.562 155.479,312.888 156.064 C 310.737 157.933,310.113 160.843,311.138 164.229 C 318.522 188.619,318.639 209.920,311.522 234.600 C 311.269 235.480,310.912 236.371,310.730 236.580 C 310.549 236.789,310.400 237.286,310.400 237.685 C 310.400 238.084,310.234 238.723,310.032 239.105 C 309.830 239.487,309.258 240.880,308.763 242.200 C 306.773 247.499,303.299 254.630,300.285 259.600 C 298.497 262.548,293.994 269.297,293.613 269.600 C 293.475 269.710,292.929 270.430,292.400 271.200 C 291.871 271.970,291.157 272.870,290.815 273.200 C 290.472 273.530,289.655 274.520,289.000 275.400 C 287.384 277.571,278.806 286.172,275.600 288.835 C 274.170 290.023,272.910 291.095,272.800 291.217 C 272.690 291.339,271.970 291.871,271.200 292.400 C 270.430 292.929,269.710 293.475,269.600 293.613 C 269.366 293.908,263.192 298.063,259.963 300.099 C 255.734 302.765,247.684 306.695,242.200 308.770 C 240.880 309.269,239.440 309.829,239.000 310.013 C 226.231 315.356,201.327 318.112,186.000 315.880 C 175.313 314.323,164.885 311.838,161.105 309.947 C 160.723 309.756,160.226 309.600,160.001 309.600 C 159.776 309.600,158.828 309.261,157.896 308.847 C 156.963 308.433,155.570 307.861,154.800 307.576 C 148.966 305.413,135.203 297.413,129.652 292.958 C 128.413 291.964,127.040 290.867,126.600 290.521 C 121.850 286.781,115.791 280.927,111.986 276.400 C 110.784 274.970,109.697 273.710,109.572 273.600 C 105.470 270.007,94.599 251.279,90.996 241.600 C 90.627 240.610,90.186 239.440,90.015 239.000 C 81.146 216.191,81.530 180.431,90.875 158.800 C 91.113 158.250,91.463 157.395,91.654 156.900 C 91.844 156.405,92.159 155.595,92.353 155.100 C 100.059 135.442,117.229 114.760,135.852 102.706 C 142.052 98.693,150.625 94.080,155.100 92.348 C 156.407 91.843,157.870 91.255,158.900 90.821 C 175.636 83.783,200.762 81.609,221.800 85.379 C 226.401 86.204,236.203 88.832,239.000 89.991 C 239.440 90.173,240.880 90.731,242.200 91.230 C 252.406 95.092,264.357 101.943,272.600 108.657 C 273.805 109.639,278.096 113.298,278.957 114.079 C 281.883 116.732,285.745 116.968,288.861 114.685 C 289.444 114.257,290.164 113.989,290.461 114.089 C 291.585 114.467,292.400 112.156,292.400 108.590 C 292.400 106.597,292.235 105.200,292.000 105.200 C 291.780 105.200,291.600 104.852,291.600 104.427 C 291.600 103.581,288.619 100.353,286.400 98.796 C 285.630 98.255,284.409 97.225,283.687 96.507 C 282.964 95.788,282.208 95.200,282.005 95.200 C 281.802 95.200,281.205 94.768,280.677 94.241 C 280.150 93.713,279.123 92.974,278.397 92.598 C 277.670 92.222,276.740 91.603,276.331 91.221 C 275.921 90.840,275.095 90.275,274.493 89.967 C 273.892 89.658,273.109 89.089,272.753 88.703 C 272.397 88.316,271.852 88.000,271.541 88.000 C 271.231 88.000,270.717 87.640,270.400 87.200 C 270.083 86.760,269.503 86.400,269.112 86.400 C 268.720 86.400,268.400 86.220,268.400 86.000 C 268.400 85.780,268.164 85.600,267.875 85.600 C 267.587 85.600,266.964 85.240,266.492 84.800 C 266.020 84.360,265.356 84.000,265.017 84.000 C 264.678 84.000,264.400 83.820,264.400 83.600 C 264.400 83.380,264.040 83.200,263.600 83.200 C 263.160 83.200,262.800 83.020,262.800 82.800 C 262.800 82.580,262.440 82.400,262.000 82.400 C 261.560 82.400,261.200 82.220,261.200 82.000 C 261.200 81.780,260.855 81.600,260.433 81.600 C 260.012 81.600,259.607 81.456,259.533 81.281 C 259.342 80.824,252.603 77.600,251.839 77.600 C 251.488 77.600,251.200 77.459,251.200 77.287 C 251.200 77.115,250.349 76.723,249.309 76.416 C 248.268 76.109,246.963 75.621,246.409 75.331 C 245.854 75.042,244.905 74.804,244.300 74.802 C 243.695 74.801,243.200 74.620,243.200 74.400 C 243.200 74.180,242.660 74.000,242.000 74.000 C 241.340 74.000,240.800 73.820,240.800 73.600 C 240.800 73.380,240.271 73.200,239.624 73.200 C 238.977 73.200,238.336 73.020,238.200 72.800 C 238.064 72.580,237.423 72.400,236.776 72.400 C 236.129 72.400,235.600 72.220,235.600 72.000 C 235.600 71.780,234.880 71.600,234.000 71.600 C 233.120 71.600,232.400 71.420,232.400 71.200 C 232.400 70.980,231.680 70.800,230.800 70.800 C 229.920 70.800,229.200 70.620,229.200 70.400 C 229.200 70.180,228.300 70.000,227.200 70.000 C 226.100 70.000,225.200 69.820,225.200 69.600 C 225.200 69.380,224.210 69.200,223.000 69.200 C 221.790 69.200,220.800 69.020,220.800 68.800 C 220.800 68.567,219.467 68.400,217.600 68.400 C 215.733 68.400,214.400 68.233,214.400 68.000 C 214.400 67.741,209.341 67.600,200.024 67.600 C 190.871 67.600,185.557 67.745,185.400 68.000 M4.400 112.400 C 4.400 112.620,4.124 112.800,3.787 112.800 C 3.449 112.800,2.504 113.469,1.687 114.286 L 0.200 115.771 0.066 120.023 C -0.043 123.496,0.049 124.392,0.566 124.909 C 0.915 125.258,1.200 125.826,1.200 126.171 C 1.200 126.517,1.436 126.800,1.725 126.800 C 2.013 126.800,2.636 127.160,3.108 127.600 C 3.580 128.040,4.233 128.400,4.560 128.400 C 4.886 128.400,5.264 128.580,5.400 128.800 C 5.536 129.020,6.087 129.200,6.624 129.200 C 7.161 129.200,7.600 129.380,7.600 129.600 C 7.600 129.820,7.960 130.000,8.400 130.000 C 8.840 130.000,9.200 130.180,9.200 130.400 C 9.200 130.620,9.650 130.800,10.200 130.800 C 10.750 130.800,11.200 130.980,11.200 131.200 C 11.200 131.420,11.560 131.600,12.000 131.600 C 12.440 131.600,12.800 131.780,12.800 132.000 C 12.800 132.220,13.340 132.400,14.000 132.400 C 14.660 132.400,15.200 132.580,15.200 132.800 C 15.200 133.020,15.560 133.200,16.000 133.200 C 16.440 133.200,16.800 133.380,16.800 133.600 C 16.800 133.820,17.149 134.000,17.576 134.000 C 18.003 134.000,18.464 134.180,18.600 134.400 C 18.736 134.620,19.287 134.800,19.824 134.800 C 20.361 134.800,20.800 134.980,20.800 135.200 C 20.800 135.420,21.160 135.600,21.600 135.600 C 22.040 135.600,22.400 135.780,22.400 136.000 C 22.400 136.220,22.940 136.400,23.600 136.400 C 24.260 136.400,24.800 136.536,24.800 136.702 C 24.800 136.869,25.385 137.244,26.100 137.536 C 26.815 137.828,27.760 138.214,28.200 138.394 C 28.640 138.573,29.853 139.098,30.896 139.560 C 31.938 140.022,32.953 140.400,33.150 140.400 C 33.347 140.400,34.024 140.669,34.654 140.998 C 35.284 141.326,36.104 141.596,36.476 141.598 C 36.848 141.599,37.264 141.780,37.400 142.000 C 37.536 142.220,38.087 142.400,38.624 142.400 C 39.161 142.400,39.600 142.580,39.600 142.800 C 39.600 143.020,39.960 143.200,40.400 143.200 C 40.840 143.200,41.200 143.380,41.200 143.600 C 41.200 143.820,41.650 144.000,42.200 144.000 C 42.750 144.000,43.200 144.180,43.200 144.400 C 43.200 144.620,43.560 144.800,44.000 144.800 C 44.440 144.800,44.800 144.980,44.800 145.200 C 44.800 145.441,46.445 145.600,48.936 145.600 L 53.073 145.600 54.836 143.890 C 57.429 141.375,58.920 135.263,57.200 134.200 C 56.980 134.064,56.800 133.687,56.800 133.363 C 56.800 132.585,54.197 130.000,53.413 130.000 C 53.076 130.000,52.800 129.820,52.800 129.600 C 52.800 129.380,52.440 129.200,52.000 129.200 C 51.560 129.200,51.200 129.020,51.200 128.800 C 51.200 128.580,50.851 128.400,50.424 128.400 C 49.997 128.400,49.536 128.220,49.400 128.000 C 49.264 127.780,48.713 127.600,48.176 127.600 C 47.639 127.600,47.200 127.420,47.200 127.200 C 47.200 126.980,46.851 126.800,46.424 126.800 C 45.997 126.800,45.563 126.663,45.459 126.496 C 45.356 126.328,44.085 125.833,42.636 125.396 C 41.186 124.958,40.000 124.465,40.000 124.300 C 40.000 124.135,39.550 124.000,39.000 124.000 C 38.450 124.000,38.000 123.820,38.000 123.600 C 38.000 123.380,37.640 123.200,37.200 123.200 C 36.760 123.200,36.400 123.020,36.400 122.800 C 36.400 122.580,35.961 122.400,35.424 122.400 C 34.887 122.400,34.336 122.220,34.200 122.000 C 34.064 121.780,33.603 121.600,33.176 121.600 C 32.749 121.600,32.400 121.420,32.400 121.200 C 32.400 120.980,32.051 120.800,31.624 120.800 C 31.197 120.800,30.736 120.620,30.600 120.400 C 30.464 120.180,29.913 120.000,29.376 120.000 C 28.839 120.000,28.400 119.820,28.400 119.600 C 28.400 119.380,28.040 119.200,27.600 119.200 C 27.160 119.200,26.800 119.020,26.800 118.800 C 26.800 118.580,26.350 118.400,25.800 118.400 C 25.250 118.400,24.800 118.220,24.800 118.000 C 24.800 117.780,24.451 117.600,24.024 117.600 C 23.597 117.600,23.136 117.420,23.000 117.200 C 22.864 116.980,22.403 116.800,21.976 116.800 C 21.549 116.800,21.200 116.620,21.200 116.400 C 21.200 116.180,20.750 116.000,20.200 116.000 C 19.650 116.000,19.200 115.820,19.200 115.600 C 19.200 115.380,18.851 115.200,18.424 115.200 C 17.997 115.200,17.536 115.020,17.400 114.800 C 17.264 114.580,16.713 114.400,16.176 114.400 C 15.639 114.400,15.200 114.220,15.200 114.000 C 15.200 113.780,14.840 113.600,14.400 113.600 C 13.960 113.600,13.600 113.420,13.600 113.200 C 13.600 112.980,13.161 112.800,12.624 112.800 C 12.087 112.800,11.536 112.620,11.400 112.400 C 11.264 112.180,9.633 112.000,7.776 112.000 C 5.792 112.000,4.400 112.165,4.400 112.400 M388.600 112.400 C 388.464 112.620,387.913 112.800,387.376 112.800 C 386.839 112.800,386.400 112.980,386.400 113.200 C 386.400 113.420,386.040 113.600,385.600 113.600 C 385.160 113.600,384.800 113.780,384.800 114.000 C 384.800 114.220,384.361 114.400,383.824 114.400 C 383.287 114.400,382.736 114.580,382.600 114.800 C 382.464 115.020,382.003 115.200,381.576 115.200 C 381.149 115.200,380.800 115.380,380.800 115.600 C 380.800 115.820,380.528 116.000,380.195 116.000 C 379.862 116.000,379.277 116.168,378.895 116.374 C 378.513 116.579,377.615 116.983,376.900 117.271 C 376.185 117.560,375.600 117.931,375.600 118.098 C 375.600 118.264,375.060 118.400,374.400 118.400 C 373.740 118.400,373.200 118.580,373.200 118.800 C 373.200 119.020,372.840 119.200,372.400 119.200 C 371.960 119.200,371.600 119.380,371.600 119.600 C 371.600 119.820,371.060 120.000,370.400 120.000 C 369.740 120.000,369.200 120.180,369.200 120.400 C 369.200 120.620,368.840 120.800,368.400 120.800 C 367.960 120.800,367.600 120.980,367.600 121.200 C 367.600 121.420,367.251 121.600,366.824 121.600 C 366.397 121.600,365.936 121.780,365.800 122.000 C 365.664 122.220,365.113 122.400,364.576 122.400 C 364.039 122.400,363.600 122.580,363.600 122.800 C 363.600 123.020,363.240 123.200,362.800 123.200 C 362.360 123.200,362.000 123.380,362.000 123.600 C 362.000 123.820,361.550 124.000,361.000 124.000 C 360.450 124.000,360.000 124.135,360.000 124.300 C 360.000 124.465,358.814 124.958,357.364 125.396 C 355.915 125.833,354.644 126.328,354.541 126.496 C 354.437 126.663,354.003 126.800,353.576 126.800 C 353.149 126.800,352.800 126.947,352.800 127.128 C 352.800 127.308,351.900 127.700,350.800 128.000 C 349.700 128.300,348.800 128.692,348.800 128.872 C 348.800 129.053,348.440 129.200,348.000 129.200 C 347.560 129.200,347.200 129.380,347.200 129.600 C 347.200 129.820,346.924 130.000,346.587 130.000 C 345.803 130.000,343.200 132.585,343.200 133.363 C 343.200 133.687,343.020 134.064,342.800 134.200 C 341.080 135.263,342.571 141.375,345.164 143.890 L 346.927 145.600 351.064 145.600 C 353.555 145.600,355.200 145.441,355.200 145.200 C 355.200 144.980,355.560 144.800,356.000 144.800 C 356.440 144.800,356.800 144.620,356.800 144.400 C 356.800 144.180,357.250 144.000,357.800 144.000 C 358.350 144.000,358.800 143.820,358.800 143.600 C 358.800 143.380,359.160 143.200,359.600 143.200 C 360.040 143.200,360.400 143.020,360.400 142.800 C 360.400 142.580,360.839 142.400,361.376 142.400 C 361.913 142.400,362.454 142.236,362.578 142.035 C 362.703 141.834,363.523 141.548,364.402 141.400 C 365.281 141.251,366.000 140.966,366.000 140.765 C 366.000 140.564,366.272 140.400,366.604 140.400 C 366.937 140.400,368.062 140.022,369.104 139.560 C 370.147 139.098,371.360 138.584,371.800 138.417 C 372.240 138.250,373.382 137.728,374.338 137.257 C 375.294 136.786,376.419 136.400,376.838 136.400 C 377.257 136.400,377.600 136.220,377.600 136.000 C 377.600 135.780,377.960 135.600,378.400 135.600 C 378.840 135.600,379.200 135.420,379.200 135.200 C 379.200 134.980,379.740 134.800,380.400 134.800 C 381.060 134.800,381.600 134.620,381.600 134.400 C 381.600 134.180,381.960 134.000,382.400 134.000 C 382.840 134.000,383.200 133.820,383.200 133.600 C 383.200 133.380,383.549 133.200,383.976 133.200 C 384.403 133.200,384.864 133.020,385.000 132.800 C 385.136 132.580,385.687 132.400,386.224 132.400 C 386.761 132.400,387.200 132.220,387.200 132.000 C 387.200 131.780,387.560 131.600,388.000 131.600 C 388.440 131.600,388.800 131.420,388.800 131.200 C 388.800 130.980,389.250 130.800,389.800 130.800 C 390.350 130.800,390.800 130.620,390.800 130.400 C 390.800 130.180,391.160 130.000,391.600 130.000 C 392.040 130.000,392.400 129.820,392.400 129.600 C 392.400 129.380,392.940 129.200,393.600 129.200 C 394.260 129.200,394.800 129.020,394.800 128.800 C 394.800 128.580,395.120 128.400,395.512 128.400 C 395.903 128.400,396.483 128.040,396.800 127.600 C 397.117 127.160,397.697 126.800,398.088 126.800 C 398.480 126.800,398.800 126.517,398.800 126.171 C 398.800 125.826,399.085 125.258,399.434 124.909 C 399.951 124.392,400.043 123.496,399.934 120.023 L 399.800 115.771 398.313 114.286 C 397.496 113.469,396.551 112.800,396.213 112.800 C 395.876 112.800,395.600 112.620,395.600 112.400 C 395.600 112.165,394.208 112.000,392.224 112.000 C 390.367 112.000,388.736 112.180,388.600 112.400 M300.400 125.586 C 300.400 126.018,299.898 126.963,299.284 127.686 C 294.745 133.030,298.547 141.263,305.087 140.253 C 305.919 140.124,307.395 139.903,308.367 139.761 C 310.205 139.493,312.000 138.138,312.000 137.018 C 312.000 136.678,312.180 136.400,312.400 136.400 C 312.637 136.400,312.800 134.933,312.800 132.800 C 312.800 130.667,312.637 129.200,312.400 129.200 C 312.180 129.200,312.000 128.922,312.000 128.582 C 312.000 127.889,310.748 126.551,309.114 125.499 C 307.411 124.403,300.400 124.473,300.400 125.586 M12.200 191.797 C 11.980 191.870,11.348 192.028,10.796 192.148 C 9.553 192.419,6.800 194.886,6.800 195.730 C 6.800 196.073,6.620 196.464,6.400 196.600 C 6.180 196.736,6.000 198.266,6.000 200.000 C 6.000 201.734,6.180 203.264,6.400 203.400 C 6.620 203.536,6.800 203.913,6.800 204.237 C 6.800 204.881,8.935 207.104,10.320 207.900 C 11.499 208.578,39.227 208.621,40.526 207.946 C 41.007 207.697,42.165 206.682,43.100 205.691 L 44.800 203.889 44.800 200.000 L 44.800 196.111 43.063 194.246 C 42.080 193.190,40.735 192.211,39.965 191.990 C 38.747 191.641,13.202 191.462,12.200 191.797 M359.847 192.002 C 359.213 192.199,357.908 193.203,356.947 194.235 L 355.200 196.111 355.200 200.000 L 355.200 203.889 356.900 205.691 C 357.835 206.682,358.993 207.697,359.474 207.946 C 360.842 208.657,388.373 208.574,389.758 207.856 C 391.133 207.142,393.200 204.963,393.200 204.227 C 393.200 203.908,393.380 203.536,393.600 203.400 C 393.820 203.264,394.000 201.734,394.000 200.000 C 394.000 198.266,393.820 196.736,393.600 196.600 C 393.380 196.464,393.200 196.092,393.200 195.773 C 393.200 195.072,391.380 193.131,390.000 192.359 C 388.825 191.702,361.848 191.383,359.847 192.002 M44.800 254.800 C 44.800 255.020,44.440 255.200,44.000 255.200 C 43.560 255.200,43.200 255.380,43.200 255.600 C 43.200 255.820,42.750 256.000,42.200 256.000 C 41.650 256.000,41.200 256.180,41.200 256.400 C 41.200 256.620,40.840 256.800,40.400 256.800 C 39.960 256.800,39.600 256.980,39.600 257.200 C 39.600 257.420,39.161 257.600,38.624 257.600 C 38.087 257.600,37.536 257.780,37.400 258.000 C 37.264 258.220,36.848 258.401,36.476 258.402 C 36.104 258.404,35.284 258.674,34.654 259.002 C 34.024 259.331,33.347 259.600,33.150 259.600 C 32.953 259.600,31.938 259.978,30.896 260.440 C 29.853 260.902,28.640 261.427,28.200 261.606 C 27.760 261.786,26.815 262.172,26.100 262.464 C 25.385 262.756,24.800 263.131,24.800 263.298 C 24.800 263.464,24.260 263.600,23.600 263.600 C 22.940 263.600,22.400 263.780,22.400 264.000 C 22.400 264.220,22.040 264.400,21.600 264.400 C 21.160 264.400,20.800 264.580,20.800 264.800 C 20.800 265.020,20.361 265.200,19.824 265.200 C 19.287 265.200,18.736 265.380,18.600 265.600 C 18.464 265.820,18.003 266.000,17.576 266.000 C 17.149 266.000,16.800 266.180,16.800 266.400 C 16.800 266.620,16.440 266.800,16.000 266.800 C 15.560 266.800,15.200 266.980,15.200 267.200 C 15.200 267.420,14.660 267.600,14.000 267.600 C 13.340 267.600,12.800 267.780,12.800 268.000 C 12.800 268.220,12.440 268.400,12.000 268.400 C 11.560 268.400,11.200 268.580,11.200 268.800 C 11.200 269.020,10.750 269.200,10.200 269.200 C 9.650 269.200,9.200 269.380,9.200 269.600 C 9.200 269.820,8.840 270.000,8.400 270.000 C 7.960 270.000,7.600 270.180,7.600 270.400 C 7.600 270.620,7.161 270.800,6.624 270.800 C 6.087 270.800,5.536 270.980,5.400 271.200 C 5.264 271.420,4.886 271.600,4.560 271.600 C 4.233 271.600,3.580 271.960,3.108 272.400 C 2.636 272.840,2.013 273.200,1.725 273.200 C 1.436 273.200,1.200 273.483,1.200 273.829 C 1.200 274.174,0.915 274.742,0.566 275.091 C 0.049 275.608,-0.043 276.504,0.066 279.977 L 0.200 284.229 1.687 285.714 C 2.504 286.531,3.449 287.200,3.787 287.200 C 4.124 287.200,4.400 287.380,4.400 287.600 C 4.400 287.835,5.792 288.000,7.776 288.000 C 9.633 288.000,11.264 287.820,11.400 287.600 C 11.536 287.380,12.087 287.200,12.624 287.200 C 13.161 287.200,13.600 287.020,13.600 286.800 C 13.600 286.580,13.960 286.400,14.400 286.400 C 14.840 286.400,15.200 286.220,15.200 286.000 C 15.200 285.780,15.639 285.600,16.176 285.600 C 16.713 285.600,17.264 285.420,17.400 285.200 C 17.536 284.980,17.997 284.800,18.424 284.800 C 18.851 284.800,19.200 284.620,19.200 284.400 C 19.200 284.180,19.650 284.000,20.200 284.000 C 20.750 284.000,21.200 283.820,21.200 283.600 C 21.200 283.380,21.549 283.200,21.976 283.200 C 22.403 283.200,22.864 283.020,23.000 282.800 C 23.136 282.580,23.597 282.400,24.024 282.400 C 24.451 282.400,24.800 282.220,24.800 282.000 C 24.800 281.780,25.250 281.600,25.800 281.600 C 26.350 281.600,26.800 281.420,26.800 281.200 C 26.800 280.980,27.160 280.800,27.600 280.800 C 28.040 280.800,28.400 280.620,28.400 280.400 C 28.400 280.180,28.940 280.000,29.600 280.000 C 30.260 280.000,30.800 279.820,30.800 279.600 C 30.800 279.380,31.160 279.200,31.600 279.200 C 32.040 279.200,32.400 279.020,32.400 278.800 C 32.400 278.580,32.749 278.400,33.176 278.400 C 33.603 278.400,34.064 278.220,34.200 278.000 C 34.336 277.780,34.887 277.600,35.424 277.600 C 35.961 277.600,36.400 277.420,36.400 277.200 C 36.400 276.980,36.760 276.800,37.200 276.800 C 37.640 276.800,38.000 276.620,38.000 276.400 C 38.000 276.180,38.450 276.000,39.000 276.000 C 39.550 276.000,40.000 275.840,40.000 275.645 C 40.000 275.449,40.652 275.167,41.449 275.017 C 42.246 274.868,43.281 274.549,43.749 274.310 C 45.621 273.353,46.013 273.200,46.595 273.200 C 46.928 273.200,47.200 273.020,47.200 272.800 C 47.200 272.580,47.639 272.400,48.176 272.400 C 48.713 272.400,49.264 272.220,49.400 272.000 C 49.536 271.780,49.997 271.600,50.424 271.600 C 50.851 271.600,51.200 271.420,51.200 271.200 C 51.200 270.980,51.560 270.800,52.000 270.800 C 52.440 270.800,52.800 270.620,52.800 270.400 C 52.800 270.180,53.076 270.000,53.413 270.000 C 54.209 270.000,56.800 267.409,56.800 266.613 C 56.800 266.276,56.980 266.000,57.200 266.000 C 57.787 266.000,57.701 259.765,57.100 258.720 C 56.407 257.514,54.114 255.200,53.613 255.200 C 53.386 255.200,53.200 255.020,53.200 254.800 C 53.200 254.559,51.533 254.400,49.000 254.400 C 46.467 254.400,44.800 254.559,44.800 254.800 M346.800 254.800 C 346.800 255.020,346.614 255.200,346.387 255.200 C 345.886 255.200,343.593 257.514,342.900 258.720 C 342.305 259.754,342.225 265.444,342.800 265.800 C 343.020 265.936,343.200 266.313,343.200 266.637 C 343.200 267.415,345.803 270.000,346.587 270.000 C 346.924 270.000,347.200 270.180,347.200 270.400 C 347.200 270.620,347.560 270.800,348.000 270.800 C 348.440 270.800,348.800 270.947,348.800 271.128 C 348.800 271.308,349.700 271.700,350.800 272.000 C 351.900 272.300,352.800 272.692,352.800 272.872 C 352.800 273.053,353.072 273.200,353.405 273.200 C 353.987 273.200,354.379 273.353,356.251 274.310 C 356.719 274.549,357.754 274.868,358.551 275.017 C 359.348 275.167,360.000 275.449,360.000 275.645 C 360.000 275.840,360.450 276.000,361.000 276.000 C 361.550 276.000,362.000 276.180,362.000 276.400 C 362.000 276.620,362.360 276.800,362.800 276.800 C 363.240 276.800,363.600 276.980,363.600 277.200 C 363.600 277.420,364.039 277.600,364.576 277.600 C 365.113 277.600,365.664 277.780,365.800 278.000 C 365.936 278.220,366.397 278.400,366.824 278.400 C 367.251 278.400,367.600 278.580,367.600 278.800 C 367.600 279.020,367.960 279.200,368.400 279.200 C 368.840 279.200,369.200 279.380,369.200 279.600 C 369.200 279.820,369.740 280.000,370.400 280.000 C 371.060 280.000,371.600 280.180,371.600 280.400 C 371.600 280.620,371.960 280.800,372.400 280.800 C 372.840 280.800,373.200 280.980,373.200 281.200 C 373.200 281.420,373.740 281.600,374.400 281.600 C 375.060 281.600,375.600 281.736,375.600 281.902 C 375.600 282.069,376.185 282.440,376.900 282.729 C 377.615 283.017,378.513 283.421,378.895 283.626 C 379.277 283.832,379.862 284.000,380.195 284.000 C 380.528 284.000,380.800 284.180,380.800 284.400 C 380.800 284.620,381.149 284.800,381.576 284.800 C 382.003 284.800,382.464 284.980,382.600 285.200 C 382.736 285.420,383.287 285.600,383.824 285.600 C 384.361 285.600,384.800 285.780,384.800 286.000 C 384.800 286.220,385.160 286.400,385.600 286.400 C 386.040 286.400,386.400 286.580,386.400 286.800 C 386.400 287.020,386.839 287.200,387.376 287.200 C 387.913 287.200,388.464 287.380,388.600 287.600 C 388.736 287.820,390.367 288.000,392.224 288.000 C 394.208 288.000,395.600 287.835,395.600 287.600 C 395.600 287.380,395.876 287.200,396.213 287.200 C 396.551 287.200,397.496 286.531,398.313 285.714 L 399.800 284.229 399.934 279.977 C 400.043 276.504,399.951 275.608,399.434 275.091 C 399.085 274.742,398.800 274.174,398.800 273.829 C 398.800 273.483,398.564 273.200,398.275 273.200 C 397.987 273.200,397.364 272.840,396.892 272.400 C 396.420 271.960,395.756 271.600,395.417 271.600 C 395.078 271.600,394.800 271.420,394.800 271.200 C 394.800 270.980,394.260 270.800,393.600 270.800 C 392.940 270.800,392.400 270.620,392.400 270.400 C 392.400 270.180,392.040 270.000,391.600 270.000 C 391.160 270.000,390.800 269.820,390.800 269.600 C 390.800 269.380,390.350 269.200,389.800 269.200 C 389.250 269.200,388.800 269.020,388.800 268.800 C 388.800 268.580,388.440 268.400,388.000 268.400 C 387.560 268.400,387.200 268.220,387.200 268.000 C 387.200 267.780,386.761 267.600,386.224 267.600 C 385.687 267.600,385.136 267.420,385.000 267.200 C 384.864 266.980,384.403 266.800,383.976 266.800 C 383.549 266.800,383.200 266.620,383.200 266.400 C 383.200 266.180,382.840 266.000,382.400 266.000 C 381.960 266.000,381.600 265.820,381.600 265.600 C 381.600 265.380,381.060 265.200,380.400 265.200 C 379.740 265.200,379.200 265.020,379.200 264.800 C 379.200 264.580,378.840 264.400,378.400 264.400 C 377.960 264.400,377.600 264.220,377.600 264.000 C 377.600 263.780,377.257 263.600,376.838 263.600 C 376.419 263.600,375.294 263.214,374.338 262.743 C 373.382 262.272,372.240 261.750,371.800 261.583 C 371.360 261.416,370.147 260.902,369.104 260.440 C 368.062 259.978,367.047 259.600,366.850 259.600 C 366.653 259.600,365.976 259.331,365.346 259.002 C 364.716 258.674,363.896 258.404,363.524 258.402 C 363.152 258.401,362.736 258.220,362.600 258.000 C 362.464 257.780,361.913 257.600,361.376 257.600 C 360.839 257.600,360.400 257.420,360.400 257.200 C 360.400 256.980,360.040 256.800,359.600 256.800 C 359.160 256.800,358.800 256.620,358.800 256.400 C 358.800 256.180,358.350 256.000,357.800 256.000 C 357.250 256.000,356.800 255.820,356.800 255.600 C 356.800 255.380,356.440 255.200,356.000 255.200 C 355.560 255.200,355.200 255.020,355.200 254.800 C 355.200 254.559,353.533 254.400,351.000 254.400 C 348.467 254.400,346.800 254.559,346.800 254.800 M82.400 307.200 C 82.400 307.420,81.942 307.600,81.383 307.600 C 80.058 307.600,80.424 307.278,70.698 317.000 C 59.868 327.825,60.333 327.191,60.316 331.119 C 60.301 334.549,60.645 335.516,62.565 337.435 C 64.442 339.313,65.269 339.600,68.802 339.600 C 73.041 339.600,73.240 339.457,83.400 329.089 C 92.663 319.637,92.400 319.943,92.400 318.617 C 92.400 318.058,92.580 317.600,92.800 317.600 C 93.020 317.600,93.200 316.711,93.200 315.624 C 93.200 314.537,93.020 313.536,92.800 313.400 C 92.580 313.264,92.400 312.713,92.400 312.176 C 92.400 311.639,92.240 311.200,92.043 311.200 C 91.847 311.200,91.578 310.765,91.444 310.234 C 91.305 309.681,90.689 309.041,90.001 308.736 C 89.340 308.444,88.800 308.069,88.800 307.902 C 88.800 307.736,88.350 307.600,87.800 307.600 C 87.250 307.600,86.800 307.420,86.800 307.200 C 86.800 306.980,85.810 306.800,84.600 306.800 C 83.390 306.800,82.400 306.980,82.400 307.200 M313.200 307.200 C 313.200 307.420,312.750 307.600,312.200 307.600 C 311.650 307.600,311.200 307.780,311.200 308.000 C 311.200 308.220,310.961 308.400,310.670 308.400 C 310.026 308.400,308.400 310.066,308.400 310.726 C 308.400 310.987,308.220 311.200,308.000 311.200 C 307.780 311.200,307.600 311.650,307.600 312.200 C 307.600 312.750,307.420 313.200,307.200 313.200 C 306.980 313.200,306.800 314.190,306.800 315.400 C 306.800 316.610,306.980 317.600,307.200 317.600 C 307.420 317.600,307.600 318.058,307.600 318.617 C 307.600 319.940,307.295 319.590,316.802 329.156 C 327.527 339.949,327.047 339.600,331.164 339.600 C 334.731 339.600,335.555 339.315,337.435 337.435 C 339.348 335.523,339.705 334.530,339.705 331.135 C 339.705 327.175,339.873 327.404,329.180 316.800 C 319.612 307.312,319.944 307.600,318.617 307.600 C 318.058 307.600,317.600 307.420,317.600 307.200 C 317.600 306.980,316.610 306.800,315.400 306.800 C 314.190 306.800,313.200 306.980,313.200 307.200 M134.200 342.800 C 134.064 343.020,133.687 343.200,133.363 343.200 C 132.585 343.200,130.000 345.803,130.000 346.587 C 130.000 346.924,129.820 347.200,129.600 347.200 C 129.380 347.200,129.200 347.560,129.200 348.000 C 129.200 348.440,129.020 348.800,128.800 348.800 C 128.580 348.800,128.400 349.149,128.400 349.576 C 128.400 350.003,128.220 350.464,128.000 350.600 C 127.780 350.736,127.600 351.287,127.600 351.824 C 127.600 352.361,127.420 352.800,127.200 352.800 C 126.980 352.800,126.800 353.149,126.800 353.576 C 126.800 354.003,126.663 354.437,126.496 354.541 C 126.328 354.644,125.833 355.915,125.396 357.364 C 124.958 358.814,124.465 360.000,124.300 360.000 C 124.135 360.000,124.000 360.450,124.000 361.000 C 124.000 361.550,123.820 362.000,123.600 362.000 C 123.380 362.000,123.200 362.360,123.200 362.800 C 123.200 363.240,123.020 363.600,122.800 363.600 C 122.580 363.600,122.400 364.140,122.400 364.800 C 122.400 365.460,122.220 366.000,122.000 366.000 C 121.780 366.000,121.600 366.360,121.600 366.800 C 121.600 367.240,121.420 367.600,121.200 367.600 C 120.980 367.600,120.800 367.949,120.800 368.376 C 120.800 368.803,120.620 369.264,120.400 369.400 C 120.180 369.536,120.000 370.087,120.000 370.624 C 120.000 371.161,119.820 371.600,119.600 371.600 C 119.380 371.600,119.200 371.960,119.200 372.400 C 119.200 372.840,119.020 373.200,118.800 373.200 C 118.580 373.200,118.400 373.740,118.400 374.400 C 118.400 375.060,118.264 375.600,118.098 375.600 C 117.931 375.600,117.560 376.185,117.271 376.900 C 116.983 377.615,116.579 378.513,116.374 378.895 C 116.168 379.277,116.000 379.862,116.000 380.195 C 116.000 380.528,115.820 380.800,115.600 380.800 C 115.380 380.800,115.200 381.149,115.200 381.576 C 115.200 382.003,115.020 382.464,114.800 382.600 C 114.580 382.736,114.400 383.287,114.400 383.824 C 114.400 384.361,114.220 384.800,114.000 384.800 C 113.780 384.800,113.600 385.160,113.600 385.600 C 113.600 386.040,113.420 386.400,113.200 386.400 C 112.980 386.400,112.800 386.839,112.800 387.376 C 112.800 387.913,112.620 388.464,112.400 388.600 C 112.180 388.736,112.000 390.367,112.000 392.224 C 112.000 394.208,112.165 395.600,112.400 395.600 C 112.620 395.600,112.800 395.876,112.800 396.213 C 112.800 396.551,113.469 397.496,114.286 398.313 L 115.771 399.800 120.023 399.934 C 123.496 400.043,124.392 399.951,124.909 399.434 C 125.258 399.085,125.826 398.800,126.171 398.800 C 126.517 398.800,126.800 398.564,126.800 398.275 C 126.800 397.987,127.160 397.364,127.600 396.892 C 128.040 396.420,128.400 395.767,128.400 395.440 C 128.400 395.114,128.580 394.736,128.800 394.600 C 129.020 394.464,129.200 393.913,129.200 393.376 C 129.200 392.839,129.380 392.400,129.600 392.400 C 129.820 392.400,130.000 392.040,130.000 391.600 C 130.000 391.160,130.180 390.800,130.400 390.800 C 130.620 390.800,130.800 390.350,130.800 389.800 C 130.800 389.250,130.980 388.800,131.200 388.800 C 131.420 388.800,131.600 388.440,131.600 388.000 C 131.600 387.560,131.780 387.200,132.000 387.200 C 132.220 387.200,132.400 386.761,132.400 386.224 C 132.400 385.687,132.580 385.136,132.800 385.000 C 133.020 384.864,133.200 384.403,133.200 383.976 C 133.200 383.549,133.380 383.200,133.600 383.200 C 133.820 383.200,134.000 382.851,134.000 382.424 C 134.000 381.997,134.180 381.536,134.400 381.400 C 134.620 381.264,134.800 380.713,134.800 380.176 C 134.800 379.639,134.980 379.200,135.200 379.200 C 135.420 379.200,135.600 378.840,135.600 378.400 C 135.600 377.960,135.780 377.600,136.000 377.600 C 136.220 377.600,136.400 377.257,136.400 376.838 C 136.400 376.419,136.786 375.294,137.257 374.338 C 137.728 373.382,138.250 372.240,138.417 371.800 C 138.584 371.360,139.098 370.147,139.560 369.104 C 140.022 368.062,140.400 366.937,140.400 366.604 C 140.400 366.272,140.564 366.000,140.765 366.000 C 140.966 366.000,141.251 365.281,141.400 364.402 C 141.548 363.523,141.834 362.703,142.035 362.578 C 142.236 362.454,142.400 361.913,142.400 361.376 C 142.400 360.839,142.580 360.400,142.800 360.400 C 143.020 360.400,143.200 360.040,143.200 359.600 C 143.200 359.160,143.380 358.800,143.600 358.800 C 143.820 358.800,144.000 358.350,144.000 357.800 C 144.000 357.250,144.180 356.800,144.400 356.800 C 144.620 356.800,144.800 356.440,144.800 356.000 C 144.800 355.560,144.980 355.200,145.200 355.200 C 145.441 355.200,145.600 353.533,145.600 351.000 C 145.600 348.467,145.441 346.800,145.200 346.800 C 144.980 346.800,144.800 346.614,144.800 346.387 C 144.800 345.886,142.486 343.593,141.280 342.900 C 140.246 342.305,134.556 342.225,134.200 342.800 M258.627 342.924 C 257.486 343.626,255.200 345.914,255.200 346.353 C 255.200 346.562,254.997 346.801,254.748 346.884 C 254.137 347.088,254.150 354.917,254.761 355.120 C 255.003 355.201,255.200 355.612,255.200 356.033 C 255.200 356.455,255.380 356.800,255.600 356.800 C 255.820 356.800,256.000 357.250,256.000 357.800 C 256.000 358.350,256.180 358.800,256.400 358.800 C 256.620 358.800,256.800 359.160,256.800 359.600 C 256.800 360.040,256.980 360.400,257.200 360.400 C 257.420 360.400,257.600 360.749,257.600 361.176 C 257.600 361.603,257.780 362.064,258.000 362.200 C 258.220 362.336,258.401 362.842,258.402 363.324 C 258.404 363.806,258.674 364.716,259.002 365.346 C 259.331 365.976,259.600 366.653,259.600 366.850 C 259.600 367.047,259.978 368.062,260.440 369.104 C 260.902 370.147,261.427 371.360,261.606 371.800 C 261.786 372.240,262.172 373.185,262.464 373.900 C 262.756 374.615,263.131 375.200,263.298 375.200 C 263.464 375.200,263.600 375.740,263.600 376.400 C 263.600 377.060,263.780 377.600,264.000 377.600 C 264.220 377.600,264.400 377.960,264.400 378.400 C 264.400 378.840,264.580 379.200,264.800 379.200 C 265.020 379.200,265.200 379.639,265.200 380.176 C 265.200 380.713,265.380 381.264,265.600 381.400 C 265.820 381.536,266.000 381.997,266.000 382.424 C 266.000 382.851,266.180 383.200,266.400 383.200 C 266.620 383.200,266.800 383.560,266.800 384.000 C 266.800 384.440,266.980 384.800,267.200 384.800 C 267.420 384.800,267.600 385.340,267.600 386.000 C 267.600 386.660,267.780 387.200,268.000 387.200 C 268.220 387.200,268.400 387.560,268.400 388.000 C 268.400 388.440,268.580 388.800,268.800 388.800 C 269.020 388.800,269.200 389.250,269.200 389.800 C 269.200 390.350,269.380 390.800,269.600 390.800 C 269.820 390.800,270.000 391.160,270.000 391.600 C 270.000 392.040,270.180 392.400,270.400 392.400 C 270.620 392.400,270.800 392.839,270.800 393.376 C 270.800 393.913,270.980 394.464,271.200 394.600 C 271.420 394.736,271.600 395.114,271.600 395.440 C 271.600 395.767,271.960 396.420,272.400 396.892 C 272.840 397.364,273.200 397.987,273.200 398.275 C 273.200 398.564,273.483 398.800,273.829 398.800 C 274.174 398.800,274.742 399.085,275.091 399.434 C 275.608 399.951,276.504 400.043,279.977 399.934 L 284.229 399.800 285.714 398.313 C 286.531 397.496,287.200 396.551,287.200 396.213 C 287.200 395.876,287.380 395.600,287.600 395.600 C 287.835 395.600,288.000 394.208,288.000 392.224 C 288.000 390.367,287.820 388.736,287.600 388.600 C 287.380 388.464,287.200 387.913,287.200 387.376 C 287.200 386.839,287.020 386.400,286.800 386.400 C 286.580 386.400,286.400 386.040,286.400 385.600 C 286.400 385.160,286.220 384.800,286.000 384.800 C 285.780 384.800,285.600 384.361,285.600 383.824 C 285.600 383.287,285.420 382.736,285.200 382.600 C 284.980 382.464,284.800 382.003,284.800 381.576 C 284.800 381.149,284.620 380.800,284.400 380.800 C 284.180 380.800,284.000 380.528,284.000 380.195 C 284.000 379.862,283.832 379.277,283.626 378.895 C 283.421 378.513,283.017 377.615,282.729 376.900 C 282.440 376.185,282.069 375.600,281.902 375.600 C 281.736 375.600,281.600 375.060,281.600 374.400 C 281.600 373.740,281.420 373.200,281.200 373.200 C 280.980 373.200,280.800 372.840,280.800 372.400 C 280.800 371.960,280.620 371.600,280.400 371.600 C 280.180 371.600,280.000 371.060,280.000 370.400 C 280.000 369.740,279.820 369.200,279.600 369.200 C 279.380 369.200,279.200 368.840,279.200 368.400 C 279.200 367.960,279.020 367.600,278.800 367.600 C 278.580 367.600,278.400 367.251,278.400 366.824 C 278.400 366.397,278.220 365.936,278.000 365.800 C 277.780 365.664,277.600 365.113,277.600 364.576 C 277.600 364.039,277.420 363.600,277.200 363.600 C 276.980 363.600,276.800 363.240,276.800 362.800 C 276.800 362.360,276.620 362.000,276.400 362.000 C 276.180 362.000,276.000 361.550,276.000 361.000 C 276.000 360.450,275.840 360.000,275.645 360.000 C 275.449 360.000,275.163 359.328,275.009 358.507 C 274.855 357.686,274.385 356.302,273.964 355.432 C 273.544 354.562,273.200 353.614,273.200 353.325 C 273.200 353.036,273.020 352.800,272.800 352.800 C 272.580 352.800,272.400 352.361,272.400 351.824 C 272.400 351.287,272.220 350.736,272.000 350.600 C 271.780 350.464,271.600 350.003,271.600 349.576 C 271.600 349.149,271.420 348.800,271.200 348.800 C 270.980 348.800,270.800 348.528,270.800 348.195 C 270.800 346.849,267.758 343.200,266.637 343.200 C 266.313 343.200,265.936 343.020,265.800 342.800 C 265.455 342.242,259.569 342.343,258.627 342.924 M194.060 357.142 C 191.492 359.643,191.514 359.471,191.672 375.800 C 191.773 386.175,191.920 389.214,192.359 390.000 C 193.131 391.380,195.072 393.200,195.773 393.200 C 196.092 393.200,196.464 393.380,196.600 393.600 C 196.736 393.820,198.266 394.000,200.000 394.000 C 201.734 394.000,203.264 393.820,203.400 393.600 C 203.536 393.380,203.908 393.200,204.227 393.200 C 204.963 393.200,207.142 391.133,207.856 389.758 C 208.574 388.373,208.657 360.842,207.946 359.474 C 207.697 358.993,206.682 357.835,205.691 356.900 L 203.889 355.200 199.971 355.200 L 196.053 355.200 194.060 357.142 " stroke="none" fill="#040404" fill-rule="evenodd"></path><path id="path1" d="M191.600 84.268 C 187.923 84.531,178.657 85.837,176.400 86.411 C 175.630 86.606,174.010 86.976,172.800 87.233 C 171.590 87.489,170.150 87.835,169.600 88.001 C 169.050 88.167,167.250 88.707,165.600 89.199 C 162.549 90.110,161.150 90.613,159.905 91.247 C 159.523 91.441,159.026 91.600,158.801 91.600 C 158.425 91.600,157.637 91.925,153.000 93.996 C 146.457 96.917,137.169 102.148,133.339 105.069 C 132.713 105.547,131.030 106.804,129.600 107.863 C 124.537 111.612,116.895 118.866,111.758 124.800 C 110.901 125.790,110.104 126.690,109.988 126.800 C 109.871 126.910,108.912 128.170,107.856 129.600 C 106.801 131.030,105.547 132.713,105.069 133.339 C 102.148 137.169,96.917 146.457,93.996 153.000 C 91.925 157.637,91.600 158.425,91.600 158.801 C 91.600 159.026,91.441 159.523,91.247 159.905 C 89.580 163.181,86.627 174.096,85.646 180.600 C 85.414 182.140,85.000 184.840,84.727 186.600 C 82.765 199.220,84.720 219.784,89.310 234.800 C 90.064 237.266,90.318 237.993,91.160 240.100 C 91.357 240.595,91.739 241.630,92.007 242.400 C 92.985 245.209,95.937 251.428,98.556 256.200 C 100.554 259.840,104.179 265.640,105.329 267.039 C 105.674 267.457,106.815 268.970,107.865 270.400 C 108.916 271.830,109.872 273.090,109.990 273.200 C 110.108 273.310,111.129 274.480,112.257 275.800 C 115.041 279.056,118.046 282.147,121.419 285.227 C 125.672 289.110,126.767 290.035,129.600 292.135 C 131.030 293.195,132.708 294.453,133.329 294.931 C 138.133 298.626,150.502 305.283,157.600 307.994 C 158.370 308.288,159.171 308.679,159.380 308.864 C 159.589 309.049,160.163 309.200,160.656 309.200 C 161.149 309.200,161.664 309.380,161.800 309.600 C 161.936 309.820,162.476 310.000,163.000 310.000 C 163.524 310.000,164.051 310.159,164.171 310.354 C 164.292 310.549,164.887 310.804,165.495 310.921 C 166.103 311.038,167.320 311.341,168.200 311.594 C 169.711 312.028,170.817 312.309,174.600 313.223 C 189.425 316.804,211.140 316.794,225.600 313.198 C 226.590 312.952,227.940 312.660,228.600 312.548 C 229.260 312.437,230.160 312.198,230.600 312.018 C 231.040 311.838,232.210 311.466,233.200 311.192 C 236.496 310.277,237.796 309.840,238.180 309.518 C 238.389 309.343,238.886 309.200,239.285 309.200 C 239.684 309.200,240.323 309.041,240.705 308.847 C 241.374 308.507,242.920 307.843,244.600 307.175 C 250.508 304.825,266.527 295.834,268.000 294.041 C 268.110 293.908,269.280 292.989,270.600 292.000 C 271.920 291.011,273.090 290.112,273.200 290.001 C 273.310 289.890,274.570 288.818,276.000 287.618 C 279.244 284.895,284.705 279.425,287.598 276.000 C 288.807 274.570,289.886 273.310,289.998 273.200 C 290.109 273.090,290.823 272.190,291.585 271.200 C 292.347 270.210,293.112 269.340,293.285 269.267 C 293.458 269.193,293.600 268.893,293.600 268.600 C 293.600 268.307,293.754 268.007,293.943 267.933 C 295.581 267.296,304.564 251.082,308.087 242.400 C 308.311 241.850,308.652 241.087,308.847 240.705 C 309.041 240.323,309.200 239.659,309.200 239.229 C 309.200 238.799,309.380 238.336,309.600 238.200 C 309.820 238.064,310.000 237.601,310.000 237.171 C 310.000 236.741,310.162 236.077,310.361 235.695 C 310.560 235.313,310.940 234.190,311.207 233.200 C 311.473 232.210,311.838 231.040,312.018 230.600 C 312.198 230.160,312.437 229.260,312.548 228.600 C 312.660 227.940,312.952 226.590,313.198 225.600 C 315.386 216.802,316.382 203.569,315.677 192.671 C 315.164 184.737,314.624 180.721,313.194 174.200 C 312.953 173.100,312.656 171.613,312.534 170.896 C 312.412 170.179,312.151 169.494,311.956 169.373 C 311.760 169.252,311.600 168.711,311.600 168.171 C 311.600 167.631,311.442 166.877,311.249 166.495 C 308.795 161.636,310.638 155.121,314.846 153.786 C 315.656 153.528,316.225 152.275,315.623 152.074 C 315.390 151.997,315.200 151.588,315.200 151.167 C 315.200 150.745,315.020 150.400,314.800 150.400 C 314.580 150.400,314.400 150.040,314.400 149.600 C 314.400 149.160,314.220 148.800,314.000 148.800 C 313.780 148.800,313.600 148.476,313.600 148.080 C 313.600 147.186,312.706 145.207,312.300 145.203 C 312.135 145.201,312.000 144.840,312.000 144.400 C 312.000 143.960,311.820 143.600,311.600 143.600 C 311.380 143.600,311.200 143.240,311.200 142.800 C 311.200 142.360,311.041 142.000,310.847 142.000 C 310.652 142.000,310.399 141.641,310.285 141.202 C 310.014 140.166,308.892 139.750,307.952 140.337 C 306.964 140.954,302.220 140.929,301.095 140.300 C 295.690 137.279,294.968 131.053,299.491 126.482 C 300.625 125.337,300.636 125.440,299.200 123.937 C 298.540 123.246,298.000 122.514,298.000 122.309 C 298.000 122.105,297.280 121.246,296.400 120.400 C 295.520 119.554,294.800 118.658,294.800 118.408 C 294.800 118.158,294.620 118.064,294.400 118.200 C 294.180 118.336,294.000 118.202,294.000 117.902 C 294.000 116.356,290.453 113.743,289.796 114.806 C 288.771 116.465,283.124 117.434,281.095 116.300 C 280.321 115.868,273.757 110.608,273.200 109.974 C 273.090 109.849,271.920 108.950,270.600 107.976 C 269.280 107.001,268.110 106.099,268.000 105.970 C 266.386 104.078,251.132 95.510,244.500 92.772 C 242.660 92.012,241.765 91.669,240.400 91.200 C 239.630 90.936,238.640 90.581,238.200 90.412 C 236.454 89.742,231.715 88.358,227.400 87.258 C 217.214 84.663,202.860 83.464,191.600 84.268 " stroke="none" fill="#fbcb6b" fill-rule="evenodd"></path><path id="path2" d="M191.600 83.971 C 190.610 84.109,193.400 84.159,197.800 84.081 C 202.200 84.003,205.980 83.877,206.200 83.801 C 206.913 83.555,193.457 83.712,191.600 83.971 M207.705 84.287 C 208.314 84.379,209.214 84.377,209.705 84.282 C 210.197 84.187,209.700 84.111,208.600 84.114 C 207.500 84.117,207.097 84.195,207.705 84.287 M184.200 84.820 C 183.411 85.035,183.822 85.070,185.400 84.923 C 186.720 84.800,187.875 84.632,187.967 84.550 C 188.264 84.282,185.434 84.485,184.200 84.820 M211.633 84.544 C 211.725 84.623,212.970 84.786,214.400 84.906 C 215.960 85.037,216.600 84.995,216.000 84.802 C 215.012 84.484,211.311 84.265,211.633 84.544 M179.200 85.600 C 177.856 86.031,179.308 86.031,181.000 85.600 C 182.078 85.326,182.098 85.294,181.200 85.287 C 180.650 85.283,179.750 85.424,179.200 85.600 M175.200 86.400 C 174.667 86.745,174.667 86.788,175.200 86.788 C 175.530 86.788,176.070 86.613,176.400 86.400 C 176.933 86.055,176.933 86.012,176.400 86.012 C 176.070 86.012,175.530 86.187,175.200 86.400 M223.800 86.400 C 224.240 86.589,224.870 86.744,225.200 86.744 C 225.578 86.744,225.504 86.617,225.000 86.400 C 224.560 86.211,223.930 86.056,223.600 86.056 C 223.222 86.056,223.296 86.183,223.800 86.400 M171.800 87.200 C 171.296 87.417,171.222 87.544,171.600 87.544 C 171.930 87.544,172.560 87.389,173.000 87.200 C 173.504 86.983,173.578 86.856,173.200 86.856 C 172.870 86.856,172.240 87.011,171.800 87.200 M227.200 87.200 C 227.530 87.413,228.070 87.588,228.400 87.588 C 228.933 87.588,228.933 87.545,228.400 87.200 C 228.070 86.987,227.530 86.812,227.200 86.812 C 226.667 86.812,226.667 86.855,227.200 87.200 M230.400 88.000 C 230.730 88.213,231.270 88.388,231.600 88.388 C 232.133 88.388,232.133 88.345,231.600 88.000 C 231.270 87.787,230.730 87.612,230.400 87.612 C 229.867 87.612,229.867 87.655,230.400 88.000 M152.200 93.978 C 151.320 94.395,150.797 94.750,151.039 94.768 C 151.528 94.804,154.000 93.638,154.000 93.371 C 154.000 93.130,153.976 93.138,152.200 93.978 M145.500 97.227 C 144.675 97.663,144.000 98.108,144.000 98.218 C 144.000 98.327,144.720 98.049,145.600 97.600 C 146.480 97.151,147.200 96.697,147.200 96.592 C 147.200 96.330,147.197 96.331,145.500 97.227 M254.400 97.342 C 254.400 97.446,255.615 98.206,257.100 99.032 C 258.585 99.857,260.250 100.794,260.800 101.114 L 261.800 101.695 260.896 100.947 C 259.854 100.086,254.400 97.059,254.400 97.342 M142.300 99.029 C 140.805 99.840,140.896 100.178,142.400 99.400 C 143.060 99.059,143.600 98.694,143.600 98.590 C 143.600 98.332,143.557 98.347,142.300 99.029 M138.287 101.368 C 137.235 102.096,136.245 102.838,136.087 103.015 C 135.704 103.447,138.746 101.646,139.954 100.726 C 141.594 99.478,140.296 99.977,138.287 101.368 M131.600 106.035 L 130.200 107.248 131.695 106.324 C 132.517 105.816,133.192 105.265,133.195 105.100 C 133.202 104.664,133.138 104.702,131.600 106.035 M268.022 105.873 C 268.033 106.053,269.158 106.972,270.522 107.916 C 272.328 109.166,272.620 109.293,271.600 108.386 C 269.630 106.635,267.996 105.487,268.022 105.873 M128.400 108.449 C 127.006 109.671,127.005 109.672,128.288 108.819 C 128.996 108.348,129.682 107.791,129.812 107.581 C 130.197 106.957,129.877 107.154,128.400 108.449 M273.230 109.883 C 273.266 110.260,280.389 116.161,280.550 115.947 C 280.611 115.866,278.982 114.397,276.930 112.683 C 274.879 110.969,273.214 109.709,273.230 109.883 M122.493 113.408 C 120.453 115.273,118.946 116.800,119.144 116.800 C 119.341 116.800,119.749 116.501,120.051 116.136 C 120.353 115.771,121.996 114.241,123.703 112.736 C 125.409 111.231,126.669 110.003,126.503 110.008 C 126.336 110.012,124.532 111.542,122.493 113.408 M288.200 115.427 C 286.837 116.281,286.205 116.412,283.937 116.315 C 282.472 116.252,281.358 116.335,281.460 116.500 C 282.162 117.628,288.899 116.258,289.796 114.806 C 290.146 114.240,290.012 114.292,288.200 115.427 M117.660 117.842 C 117.362 118.178,117.199 118.532,117.295 118.629 C 117.392 118.726,117.798 118.444,118.198 118.002 C 118.597 117.561,118.761 117.207,118.562 117.215 C 118.363 117.224,117.957 117.505,117.660 117.842 M114.579 121.300 C 111.629 124.407,110.227 126.000,110.440 126.000 C 110.545 126.000,112.031 124.470,113.742 122.600 C 117.167 118.858,117.735 117.976,114.579 121.300 M108.175 128.668 C 107.559 129.476,107.259 130.011,107.509 129.856 C 108.021 129.540,109.753 127.200,109.475 127.200 C 109.376 127.200,108.791 127.861,108.175 128.668 M105.827 131.800 C 105.240 132.570,104.903 133.198,105.080 133.195 C 105.256 133.192,105.807 132.562,106.304 131.795 C 107.468 129.997,107.200 130.000,105.827 131.800 M296.818 135.326 C 296.766 136.286,299.699 140.000,300.509 140.000 C 300.703 140.000,300.301 139.528,299.615 138.952 C 298.930 138.375,298.024 137.250,297.602 136.452 C 297.181 135.653,296.827 135.147,296.818 135.326 M101.457 138.194 C 99.935 140.485,99.472 141.601,100.726 139.954 C 101.726 138.641,103.304 136.000,103.089 136.000 C 102.992 136.000,102.258 136.987,101.457 138.194 M99.000 142.400 C 98.659 143.060,98.469 143.600,98.579 143.600 C 98.689 143.600,99.059 143.060,99.400 142.400 C 99.741 141.740,99.931 141.200,99.821 141.200 C 99.711 141.200,99.341 141.740,99.000 142.400 M97.200 145.600 C 96.751 146.480,96.474 147.200,96.584 147.200 C 96.694 147.200,97.151 146.480,97.600 145.600 C 98.049 144.720,98.326 144.000,98.216 144.000 C 98.106 144.000,97.649 144.720,97.200 145.600 M94.400 150.884 C 94.400 151.004,94.128 151.754,93.795 152.551 C 93.462 153.348,93.273 154.000,93.376 154.000 C 93.731 154.000,94.904 151.170,94.652 150.919 C 94.514 150.780,94.400 150.765,94.400 150.884 M310.243 159.033 C 309.905 159.912,309.950 163.302,310.306 163.862 C 310.468 164.116,310.600 162.991,310.600 161.362 C 310.600 158.131,310.597 158.110,310.243 159.033 M87.029 172.229 C 86.881 172.815,86.838 173.372,86.932 173.466 C 87.027 173.560,87.224 173.158,87.371 172.571 C 87.519 171.985,87.562 171.428,87.468 171.334 C 87.373 171.240,87.176 171.642,87.029 172.229 M86.229 175.429 C 86.081 176.015,86.038 176.572,86.132 176.666 C 86.227 176.760,86.424 176.358,86.571 175.771 C 86.719 175.185,86.762 174.628,86.668 174.534 C 86.573 174.440,86.376 174.842,86.229 175.429 M314.080 178.600 C 314.080 179.040,314.224 179.850,314.400 180.400 C 314.654 181.192,314.720 181.233,314.720 180.600 C 314.720 180.160,314.576 179.350,314.400 178.800 C 314.146 178.008,314.080 177.967,314.080 178.600 M85.400 180.000 C 85.246 180.910,85.204 181.738,85.307 181.840 C 85.410 181.943,85.613 181.277,85.760 180.360 C 85.907 179.443,85.948 178.615,85.853 178.520 C 85.758 178.424,85.554 179.090,85.400 180.000 M314.895 183.600 C 314.895 184.150,315.032 185.140,315.200 185.800 C 315.472 186.870,315.505 186.892,315.505 186.000 C 315.505 185.450,315.368 184.460,315.200 183.800 C 314.928 182.730,314.895 182.708,314.895 183.600 M84.585 185.385 C 84.430 186.623,84.390 187.723,84.495 187.829 C 84.601 187.934,84.807 187.001,84.954 185.754 C 85.100 184.507,85.141 183.407,85.043 183.310 C 84.946 183.212,84.739 184.146,84.585 185.385 M315.800 200.000 C 315.800 205.830,315.919 209.700,316.065 208.600 C 316.211 207.500,316.330 203.630,316.330 200.000 C 316.330 196.370,316.211 192.500,316.065 191.400 C 315.919 190.300,315.800 194.170,315.800 200.000 M83.857 192.459 C 83.534 195.551,83.583 205.545,83.935 208.200 C 84.081 209.300,84.200 205.655,84.200 200.100 C 84.200 194.545,84.181 190.000,84.157 190.000 C 84.133 190.000,83.998 191.106,83.857 192.459 M84.447 213.233 C 84.473 213.985,84.641 215.140,84.820 215.800 C 85.035 216.589,85.070 216.178,84.923 214.600 C 84.677 211.955,84.373 211.081,84.447 213.233 M314.982 214.982 C 314.829 216.002,314.794 216.927,314.904 217.037 C 315.014 217.147,315.229 216.402,315.382 215.382 C 315.535 214.361,315.570 213.437,315.460 213.327 C 315.350 213.217,315.135 213.961,314.982 214.982 M314.222 220.222 C 314.072 221.025,314.028 221.762,314.126 221.860 C 314.224 221.957,314.427 221.381,314.578 220.578 C 314.728 219.775,314.772 219.038,314.674 218.940 C 314.576 218.843,314.373 219.419,314.222 220.222 M86.056 223.600 C 86.056 223.930,86.211 224.560,86.400 225.000 C 86.617 225.504,86.744 225.578,86.744 225.200 C 86.744 224.870,86.589 224.240,86.400 223.800 C 86.183 223.296,86.056 223.222,86.056 223.600 M86.856 226.800 C 86.856 227.130,87.011 227.760,87.200 228.200 C 87.417 228.704,87.544 228.778,87.544 228.400 C 87.544 228.070,87.389 227.440,87.200 227.000 C 86.983 226.496,86.856 226.422,86.856 226.800 M312.673 227.353 C 312.523 227.745,312.411 228.366,312.425 228.733 C 312.442 229.175,312.581 229.074,312.837 228.434 C 313.049 227.903,313.161 227.282,313.085 227.054 C 313.009 226.827,312.824 226.961,312.673 227.353 M93.807 247.479 C 94.407 248.914,94.800 249.562,94.800 249.116 C 94.800 248.684,93.585 246.000,93.389 246.000 C 93.279 246.000,93.467 246.666,93.807 247.479 M305.665 247.817 C 304.995 249.288,305.123 249.602,305.847 248.265 C 306.186 247.640,306.388 247.054,306.296 246.963 C 306.205 246.871,305.921 247.256,305.665 247.817 M97.525 255.000 C 98.191 256.320,99.025 257.760,99.378 258.200 C 99.732 258.640,99.358 257.740,98.547 256.200 C 96.711 252.712,95.880 251.736,97.525 255.000 M301.751 255.700 C 301.383 256.415,300.819 257.450,300.498 258.000 C 299.939 258.959,299.943 258.967,300.589 258.200 C 301.378 257.263,302.907 254.400,302.618 254.400 C 302.510 254.400,302.119 254.985,301.751 255.700 M100.000 259.320 C 100.000 259.704,102.045 262.800,102.299 262.800 C 102.478 262.800,101.841 261.719,100.539 259.811 C 100.242 259.377,100.000 259.156,100.000 259.320 M105.827 268.200 C 107.200 270.000,107.468 270.003,106.304 268.205 C 105.807 267.438,105.256 266.808,105.080 266.805 C 104.903 266.802,105.240 267.430,105.827 268.200 M292.598 269.759 C 292.379 270.066,291.783 270.876,291.273 271.559 C 289.902 273.394,290.409 273.065,292.135 271.000 C 292.963 270.010,293.495 269.200,293.318 269.200 C 293.141 269.200,292.817 269.451,292.598 269.759 M108.175 271.332 C 108.791 272.139,109.376 272.800,109.475 272.800 C 109.753 272.800,108.021 270.460,107.509 270.144 C 107.259 269.989,107.559 270.524,108.175 271.332 M110.000 273.458 C 110.000 273.674,110.585 274.379,111.300 275.025 L 112.600 276.200 111.400 274.802 C 110.740 274.033,110.155 273.328,110.100 273.235 C 110.045 273.143,110.000 273.243,110.000 273.458 M287.677 275.827 C 284.924 279.163,285.248 279.146,288.185 275.800 C 289.440 274.370,290.317 273.212,290.134 273.227 C 289.950 273.242,288.844 274.412,287.677 275.827 M282.025 282.169 L 280.650 283.800 282.205 282.313 C 283.060 281.496,283.679 280.762,283.580 280.683 C 283.481 280.603,282.781 281.272,282.025 282.169 M119.298 283.700 C 119.603 283.975,120.741 285.010,121.827 285.999 L 123.800 287.798 121.614 285.499 C 120.411 284.235,119.273 283.200,119.085 283.200 C 118.897 283.200,118.993 283.425,119.298 283.700 M276.800 286.913 C 276.030 287.623,274.878 288.611,274.239 289.108 C 273.600 289.605,273.154 290.087,273.247 290.180 C 273.340 290.273,274.582 289.288,276.008 287.992 C 277.434 286.696,278.510 285.632,278.400 285.628 C 278.290 285.625,277.570 286.203,276.800 286.913 M125.087 288.809 C 125.795 289.551,126.442 290.078,126.525 289.979 C 126.608 289.881,126.029 289.273,125.238 288.629 L 123.800 287.458 125.087 288.809 M128.200 291.379 C 130.090 293.036,133.201 295.229,133.193 294.899 C 133.189 294.735,132.334 294.023,131.293 293.317 C 130.252 292.611,128.860 291.650,128.200 291.180 L 127.000 290.327 128.200 291.379 M270.324 292.115 C 269.072 293.042,268.037 293.947,268.024 294.127 C 268.011 294.306,269.080 293.605,270.400 292.568 C 272.485 290.930,273.097 290.357,272.700 290.415 C 272.645 290.423,271.576 291.188,270.324 292.115 M137.200 297.733 C 137.200 297.950,140.315 300.000,140.645 300.000 C 140.790 300.000,140.479 299.667,139.954 299.260 C 138.868 298.417,137.200 297.492,137.200 297.733 M141.800 300.607 C 142.693 301.341,147.630 303.903,147.000 303.305 C 146.780 303.096,145.340 302.255,143.800 301.437 C 142.260 300.618,141.360 300.245,141.800 300.607 M256.696 301.158 C 254.260 302.587,253.719 303.144,255.800 302.080 C 257.345 301.291,259.210 300.018,258.800 300.033 C 258.690 300.037,257.743 300.543,256.696 301.158 M150.854 305.387 C 151.190 305.723,154.000 306.816,154.000 306.611 C 154.000 306.501,153.348 306.138,152.551 305.805 C 151.075 305.189,150.518 305.051,150.854 305.387 M171.400 312.800 C 172.596 313.314,173.595 313.314,172.800 312.800 C 172.470 312.587,171.840 312.422,171.400 312.434 L 170.600 312.456 171.400 312.800 M227.200 312.800 C 226.405 313.314,227.404 313.314,228.600 312.800 L 229.400 312.456 228.600 312.434 C 228.160 312.422,227.530 312.587,227.200 312.800 M175.000 313.600 C 175.440 313.789,176.070 313.944,176.400 313.944 C 176.778 313.944,176.704 313.817,176.200 313.600 C 175.760 313.411,175.130 313.256,174.800 313.256 C 174.422 313.256,174.496 313.383,175.000 313.600 M224.000 313.600 C 223.205 314.114,224.204 314.114,225.400 313.600 L 226.200 313.256 225.400 313.234 C 224.960 313.222,224.330 313.387,224.000 313.600 M179.200 314.400 C 180.568 314.838,181.619 314.838,180.600 314.400 C 180.160 314.211,179.440 314.062,179.000 314.068 C 178.357 314.077,178.396 314.143,179.200 314.400 M219.600 314.400 C 218.808 314.654,218.767 314.720,219.400 314.720 C 219.840 314.720,220.650 314.576,221.200 314.400 C 221.992 314.146,222.033 314.080,221.400 314.080 C 220.960 314.080,220.150 314.224,219.600 314.400 M183.800 315.200 C 184.460 315.368,185.450 315.509,186.000 315.513 L 187.000 315.520 186.000 315.200 C 185.450 315.024,184.460 314.883,183.800 314.887 L 182.600 314.895 183.800 315.200 M214.200 315.200 C 213.130 315.472,213.108 315.505,214.000 315.505 C 214.550 315.505,215.540 315.368,216.200 315.200 C 217.270 314.928,217.292 314.895,216.400 314.895 C 215.850 314.895,214.860 315.032,214.200 315.200 M191.400 316.010 C 193.412 316.332,199.878 316.526,199.567 316.255 C 199.475 316.175,197.150 316.015,194.400 315.900 C 191.248 315.768,190.139 315.808,191.400 316.010 M203.600 316.000 L 200.200 316.251 203.400 316.290 C 205.160 316.312,207.500 316.190,208.600 316.018 L 210.600 315.707 208.800 315.728 C 207.810 315.740,205.470 315.862,203.600 316.000 " stroke="none" fill="#a07f42" fill-rule="evenodd"></path><path id="path3" d="" stroke="none" fill="#7e6434" fill-rule="evenodd"></path><path id="path4" d="M189.905 83.883 C 190.402 83.979,191.122 83.975,191.505 83.875 C 191.887 83.775,191.480 83.696,190.600 83.701 C 189.720 83.705,189.407 83.787,189.905 83.883 M208.033 83.751 C 208.125 83.834,209.460 84.002,211.000 84.126 C 213.152 84.298,213.430 84.269,212.200 83.998 C 210.583 83.642,207.726 83.473,208.033 83.751 M186.900 84.276 C 187.285 84.376,187.915 84.376,188.300 84.276 C 188.685 84.175,188.370 84.093,187.600 84.093 C 186.830 84.093,186.515 84.175,186.900 84.276 M181.600 84.800 C 180.256 85.231,181.708 85.231,183.400 84.800 C 184.478 84.526,184.498 84.494,183.600 84.487 C 183.050 84.483,182.150 84.624,181.600 84.800 M216.600 84.800 C 218.292 85.231,219.744 85.231,218.400 84.800 C 217.850 84.624,216.950 84.483,216.400 84.487 C 215.502 84.494,215.522 84.526,216.600 84.800 M173.400 86.400 C 172.293 86.682,172.277 86.709,173.200 86.747 C 173.750 86.769,174.470 86.613,174.800 86.400 C 175.481 85.960,175.129 85.960,173.400 86.400 M225.400 86.400 C 225.840 86.589,226.560 86.738,227.000 86.732 C 227.643 86.723,227.604 86.657,226.800 86.400 C 225.432 85.962,224.381 85.962,225.400 86.400 M170.200 87.200 C 169.696 87.417,169.622 87.544,170.000 87.544 C 170.330 87.544,170.960 87.389,171.400 87.200 C 171.904 86.983,171.978 86.856,171.600 86.856 C 171.270 86.856,170.640 87.011,170.200 87.200 M228.600 87.200 C 229.040 87.389,229.670 87.544,230.000 87.544 C 230.378 87.544,230.304 87.417,229.800 87.200 C 229.360 87.011,228.730 86.856,228.400 86.856 C 228.022 86.856,228.096 86.983,228.600 87.200 M256.000 97.779 C 256.000 97.889,256.540 98.259,257.200 98.600 C 257.860 98.941,258.400 99.131,258.400 99.021 C 258.400 98.911,257.860 98.541,257.200 98.200 C 256.540 97.859,256.000 97.669,256.000 97.779 M260.200 100.290 C 260.420 100.500,261.320 101.076,262.200 101.570 C 263.080 102.065,263.440 102.170,263.000 101.804 C 262.106 101.061,259.572 99.691,260.200 100.290 M133.446 104.196 C 132.372 104.939,131.292 105.765,131.046 106.030 C 130.801 106.295,131.725 105.761,133.100 104.841 C 134.475 103.922,135.600 103.087,135.600 102.985 C 135.600 102.711,135.563 102.732,133.446 104.196 M275.200 110.925 C 275.200 110.994,275.785 111.579,276.500 112.225 L 277.800 113.400 276.625 112.100 C 275.530 110.888,275.200 110.616,275.200 110.925 M122.575 112.900 L 121.400 114.200 122.700 113.025 C 123.912 111.930,124.184 111.600,123.875 111.600 C 123.806 111.600,123.221 112.185,122.575 112.900 M288.925 114.700 C 288.506 115.085,288.360 115.272,288.603 115.116 C 288.845 114.960,289.483 114.656,290.022 114.441 C 290.640 114.194,290.759 114.041,290.344 114.025 C 289.984 114.011,289.345 114.315,288.925 114.700 M112.575 122.900 L 111.400 124.200 112.700 123.025 C 113.912 121.930,114.184 121.600,113.875 121.600 C 113.806 121.600,113.221 122.185,112.575 122.900 M297.264 130.219 C 297.009 130.779,296.826 132.084,296.859 133.119 L 296.918 135.000 297.192 132.800 C 297.342 131.590,297.605 130.285,297.776 129.900 C 297.946 129.515,298.005 129.200,297.907 129.200 C 297.809 129.200,297.520 129.658,297.264 130.219 M104.083 133.700 C 101.874 136.999,101.280 138.001,101.887 137.400 C 102.524 136.769,106.447 130.800,106.224 130.800 C 106.114 130.800,105.151 132.105,104.083 133.700 M298.767 138.145 C 299.300 138.801,300.800 139.793,300.800 139.489 C 300.800 139.413,300.215 138.922,299.500 138.399 C 298.696 137.810,298.416 137.713,298.767 138.145 M310.777 158.661 C 310.555 159.244,310.432 159.897,310.504 160.112 C 310.576 160.327,310.835 159.850,311.080 159.051 C 311.594 157.374,311.374 157.090,310.777 158.661 M87.029 170.629 C 86.881 171.215,86.838 171.772,86.932 171.866 C 87.027 171.960,87.224 171.558,87.371 170.971 C 87.519 170.385,87.562 169.828,87.468 169.734 C 87.373 169.640,87.176 170.042,87.029 170.629 M84.600 182.400 C 84.446 183.310,84.404 184.138,84.507 184.240 C 84.610 184.343,84.813 183.677,84.960 182.760 C 85.107 181.843,85.148 181.015,85.053 180.920 C 84.958 180.824,84.754 181.490,84.600 182.400 M315.709 186.800 C 315.709 187.790,315.787 188.195,315.882 187.700 C 315.978 187.205,315.978 186.395,315.882 185.900 C 315.787 185.405,315.709 185.810,315.709 186.800 M84.093 187.600 C 84.093 188.370,84.175 188.685,84.276 188.300 C 84.376 187.915,84.376 187.285,84.276 186.900 C 84.175 186.515,84.093 186.830,84.093 187.600 M316.101 190.200 C 316.105 191.080,316.187 191.393,316.283 190.895 C 316.379 190.398,316.375 189.678,316.275 189.295 C 316.175 188.913,316.096 189.320,316.101 190.200 M83.701 190.600 C 83.705 191.480,83.787 191.793,83.883 191.295 C 83.979 190.798,83.975 190.078,83.875 189.695 C 83.775 189.313,83.696 189.720,83.701 190.600 M316.562 200.200 C 316.562 203.720,316.624 205.106,316.698 203.281 C 316.772 201.456,316.772 198.576,316.697 196.881 C 316.622 195.186,316.561 196.680,316.562 200.200 M83.701 209.400 C 83.705 210.280,83.787 210.593,83.883 210.095 C 83.979 209.598,83.975 208.878,83.875 208.495 C 83.775 208.113,83.696 208.520,83.701 209.400 M316.101 209.800 C 316.105 210.680,316.187 210.993,316.283 210.495 C 316.379 209.998,316.375 209.278,316.275 208.895 C 316.175 208.513,316.096 208.920,316.101 209.800 M84.093 212.400 C 84.093 213.170,84.175 213.485,84.276 213.100 C 84.376 212.715,84.376 212.085,84.276 211.700 C 84.175 211.315,84.093 211.630,84.093 212.400 M315.709 213.200 C 315.709 214.190,315.787 214.595,315.882 214.100 C 315.978 213.605,315.978 212.795,315.882 212.300 C 315.787 211.805,315.709 212.210,315.709 213.200 M84.487 216.400 C 84.483 216.950,84.624 217.850,84.800 218.400 C 85.231 219.744,85.231 218.292,84.800 216.600 C 84.526 215.522,84.494 215.502,84.487 216.400 M86.856 228.400 C 86.856 228.730,87.011 229.360,87.200 229.800 C 87.417 230.304,87.544 230.378,87.544 230.000 C 87.544 229.670,87.389 229.040,87.200 228.600 C 86.983 228.096,86.856 228.022,86.856 228.400 M311.646 232.867 C 311.621 233.234,311.496 233.864,311.370 234.267 C 311.152 234.962,311.163 234.963,311.597 234.287 C 311.848 233.896,311.973 233.266,311.873 232.887 C 311.711 232.268,311.688 232.266,311.646 232.867 M90.445 240.000 C 90.453 240.330,90.806 241.320,91.229 242.200 C 91.652 243.080,91.886 243.362,91.749 242.826 C 91.373 241.361,90.429 239.314,90.445 240.000 M105.200 268.000 C 105.670 268.660,106.144 269.200,106.254 269.200 C 106.364 269.200,106.070 268.660,105.600 268.000 C 105.130 267.340,104.656 266.800,104.546 266.800 C 104.436 266.800,104.730 267.340,105.200 268.000 M294.384 268.023 C 293.905 268.696,293.579 269.313,293.661 269.394 C 293.743 269.476,294.214 268.926,294.708 268.171 C 295.823 266.471,295.571 266.356,294.384 268.023 M107.232 270.600 C 108.281 272.128,109.600 273.659,109.585 273.331 C 109.577 273.149,108.920 272.280,108.127 271.400 C 107.333 270.520,106.930 270.160,107.232 270.600 M287.775 276.500 L 286.600 277.800 287.900 276.625 C 288.615 275.979,289.200 275.394,289.200 275.325 C 289.200 275.016,288.870 275.288,287.775 276.500 M111.600 276.125 C 111.600 276.194,112.185 276.779,112.900 277.425 L 114.200 278.600 113.025 277.300 C 111.930 276.088,111.600 275.816,111.600 276.125 M282.192 282.500 L 278.600 286.200 282.300 282.608 C 284.335 280.633,286.000 278.968,286.000 278.908 C 286.000 278.618,285.528 279.064,282.192 282.500 M117.800 282.800 C 119.106 284.120,120.265 285.200,120.375 285.200 C 120.485 285.200,119.506 284.120,118.200 282.800 C 116.894 281.480,115.735 280.400,115.625 280.400 C 115.515 280.400,116.494 281.480,117.800 282.800 M276.278 287.813 C 275.660 288.356,275.314 288.800,275.508 288.800 C 275.702 288.800,276.283 288.350,276.800 287.800 C 277.995 286.528,277.731 286.534,276.278 287.813 M130.800 293.746 C 130.800 293.856,131.340 294.330,132.000 294.800 C 132.660 295.270,133.200 295.564,133.200 295.454 C 133.200 295.344,132.660 294.870,132.000 294.400 C 131.340 293.930,130.800 293.636,130.800 293.746 M137.800 298.607 C 138.240 298.966,138.960 299.435,139.400 299.651 L 140.200 300.044 139.400 299.393 C 138.960 299.034,138.240 298.565,137.800 298.349 L 137.000 297.956 137.800 298.607 M140.400 300.179 C 140.400 300.289,140.940 300.659,141.600 301.000 C 142.260 301.341,142.800 301.531,142.800 301.421 C 142.800 301.311,142.260 300.941,141.600 300.600 C 140.940 300.259,140.400 300.069,140.400 300.179 M257.100 301.429 C 255.605 302.240,255.696 302.578,257.200 301.800 C 257.860 301.459,258.400 301.094,258.400 300.990 C 258.400 300.732,258.357 300.747,257.100 301.429 M165.600 311.582 C 165.930 311.805,166.545 311.991,166.967 311.994 C 167.990 312.002,167.671 311.773,166.200 311.444 C 165.324 311.248,165.162 311.285,165.600 311.582 M233.200 311.600 C 232.376 311.864,232.341 311.926,233.000 311.954 C 233.440 311.973,234.070 311.813,234.400 311.600 C 235.101 311.147,234.614 311.147,233.200 311.600 M186.305 315.883 C 186.802 315.979,187.522 315.975,187.905 315.875 C 188.287 315.775,187.880 315.696,187.000 315.701 C 186.120 315.705,185.807 315.787,186.305 315.883 M212.300 315.882 C 212.795 315.978,213.605 315.978,214.100 315.882 C 214.595 315.787,214.190 315.709,213.200 315.709 C 212.210 315.709,211.805 315.787,212.300 315.882 M189.505 316.283 C 190.002 316.379,190.722 316.375,191.105 316.275 C 191.487 316.175,191.080 316.096,190.200 316.101 C 189.320 316.105,189.007 316.187,189.505 316.283 M209.105 316.283 C 209.602 316.379,210.322 316.375,210.705 316.275 C 211.087 316.175,210.680 316.096,209.800 316.101 C 208.920 316.105,208.607 316.187,209.105 316.283 M196.900 316.697 C 198.605 316.772,201.395 316.772,203.100 316.697 C 204.805 316.622,203.410 316.561,200.000 316.561 C 196.590 316.561,195.195 316.622,196.900 316.697 " stroke="none" fill="#746434" fill-rule="evenodd"></path></g></svg>