<svg id="svg" version="1.1" xmlns="http://www.w3.org/2000/svg" xmlns:xlink="http://www.w3.org/1999/xlink" width="400" height="400" viewBox="0, 0, 400,400"><g id="svgg"><path id="path0" d="M193.000 138.800 C 192.340 138.968,191.038 139.127,190.106 139.153 C 186.841 139.244,178.574 141.457,172.600 143.839 C 160.880 148.513,148.533 158.137,141.605 168.000 C 141.064 168.770,140.302 169.749,139.911 170.175 C 139.520 170.602,139.200 171.172,139.200 171.442 C 139.200 171.712,139.058 171.993,138.885 172.067 C 137.504 172.651,132.342 183.921,130.304 190.800 C 129.340 194.054,128.991 195.621,128.031 201.024 C 127.479 204.127,127.471 217.934,128.018 221.033 C 129.303 228.304,130.557 232.972,132.656 238.300 L 134.114 242.000 199.982 242.000 L 265.850 242.000 266.775 239.900 C 274.155 223.147,274.479 201.748,267.615 184.400 C 263.352 173.628,254.010 160.821,246.126 154.942 C 245.287 154.316,244.510 153.694,244.400 153.558 C 243.680 152.670,235.695 147.769,232.111 146.015 C 227.622 143.818,227.109 143.593,224.800 142.800 C 224.030 142.536,223.040 142.178,222.600 142.005 C 221.158 141.439,216.336 140.233,213.200 139.653 C 206.607 138.435,196.168 137.994,193.000 138.800 M203.712 154.637 C 204.485 155.057,205.874 156.030,206.799 156.800 C 207.724 157.570,211.388 160.599,214.941 163.532 C 218.493 166.465,221.760 169.168,222.200 169.540 C 222.640 169.912,224.530 171.471,226.400 173.005 C 228.270 174.539,230.005 175.975,230.255 176.197 C 230.506 176.419,231.049 176.870,231.462 177.200 C 236.930 181.570,237.396 182.012,238.379 183.763 C 242.941 191.885,232.020 199.342,225.000 192.898 C 224.340 192.292,222.810 190.993,221.600 190.012 C 217.974 187.070,210.256 180.665,209.425 179.907 C 208.998 179.518,208.503 179.200,208.325 179.200 C 208.146 179.200,208.000 188.630,208.000 200.155 L 208.000 221.110 206.700 223.012 C 203.023 228.393,196.000 228.026,192.834 222.288 C 192.019 220.810,192.000 220.309,192.000 199.988 C 192.000 188.555,191.893 179.200,191.762 179.200 C 191.631 179.200,189.426 180.943,186.862 183.073 C 184.298 185.203,181.098 187.858,179.752 188.973 C 178.405 190.088,176.543 191.630,175.613 192.400 C 169.992 197.057,164.682 196.559,161.641 191.088 C 159.498 187.234,160.786 183.500,165.600 179.606 C 167.747 177.870,173.545 173.099,180.409 167.420 C 182.284 165.869,184.600 163.970,185.556 163.200 C 186.512 162.430,187.498 161.619,187.747 161.398 C 187.996 161.177,189.190 160.188,190.400 159.200 C 191.610 158.212,192.841 157.175,193.135 156.896 C 196.550 153.652,200.390 152.832,203.712 154.637 " stroke="none" fill="#facb6b" fill-rule="evenodd"></path><path id="path1" d="M198.200 63.200 C 198.064 63.420,197.423 63.600,196.776 63.600 C 196.129 63.600,195.600 63.750,195.600 63.932 C 195.600 64.115,195.194 64.482,194.697 64.748 C 194.200 65.014,193.345 65.886,192.797 66.686 L 191.800 68.140 191.673 84.370 C 191.534 102.116,191.612 102.900,193.733 105.119 C 197.130 108.673,203.672 108.552,206.566 104.882 C 208.418 102.534,208.400 102.732,208.400 85.234 L 208.400 68.560 207.330 66.910 C 206.742 66.003,205.842 65.036,205.330 64.763 C 204.819 64.489,204.400 64.115,204.400 63.932 C 204.400 63.750,203.871 63.600,203.224 63.600 C 202.577 63.600,201.936 63.420,201.800 63.200 C 201.664 62.980,200.854 62.800,200.000 62.800 C 199.146 62.800,198.336 62.980,198.200 63.200 M96.892 105.200 C 96.420 105.640,95.861 106.000,95.649 106.000 C 95.044 106.000,93.446 108.822,92.932 110.800 C 91.804 115.145,92.497 116.166,105.029 128.600 C 117.810 141.280,116.648 140.400,120.590 140.400 C 124.764 140.400,128.400 138.075,128.400 135.405 C 128.400 135.072,128.580 134.800,128.800 134.800 C 130.655 134.800,128.614 126.886,126.371 125.383 C 125.728 124.952,125.202 124.466,125.201 124.303 C 125.200 124.085,112.624 111.415,109.158 108.141 C 108.960 107.953,108.276 107.215,107.638 106.500 C 107.001 105.785,106.191 105.200,105.840 105.200 C 105.488 105.200,105.200 105.020,105.200 104.800 C 105.200 103.962,97.841 104.316,96.892 105.200 M294.800 104.800 C 294.800 105.020,294.480 105.200,294.088 105.200 C 293.697 105.200,293.112 105.586,292.788 106.057 C 292.465 106.528,291.790 107.293,291.288 107.757 C 289.363 109.536,275.759 123.114,274.981 124.033 C 274.531 124.565,273.588 125.450,272.885 126.000 C 272.182 126.550,271.606 127.304,271.604 127.676 C 271.602 128.048,271.420 128.464,271.200 128.600 C 270.980 128.736,270.800 130.187,270.800 131.824 C 270.800 133.541,270.969 134.800,271.200 134.800 C 271.420 134.800,271.600 135.072,271.600 135.405 C 271.600 138.060,275.238 140.400,279.365 140.400 C 281.883 140.400,284.000 139.823,284.000 139.136 C 284.000 138.951,284.202 138.800,284.449 138.800 C 285.002 138.800,304.735 119.063,305.844 117.400 C 307.003 115.663,307.770 112.264,307.230 111.255 C 306.993 110.814,306.800 110.167,306.800 109.818 C 306.800 109.040,304.833 106.000,304.330 106.000 C 304.130 106.000,303.580 105.640,303.108 105.200 C 302.159 104.316,294.800 103.962,294.800 104.800 M194.400 122.000 C 194.400 122.240,192.800 122.400,190.400 122.400 C 188.000 122.400,186.400 122.560,186.400 122.800 C 186.400 123.020,185.410 123.200,184.200 123.200 C 182.990 123.200,182.000 123.380,182.000 123.600 C 182.000 123.820,181.190 124.000,180.200 124.000 C 179.210 124.000,178.400 124.180,178.400 124.400 C 178.400 124.620,177.881 124.800,177.246 124.800 C 176.059 124.800,172.340 125.791,171.105 126.437 C 170.723 126.637,169.958 126.800,169.405 126.800 C 168.852 126.800,168.400 126.980,168.400 127.200 C 168.400 127.420,168.051 127.600,167.624 127.600 C 167.197 127.600,166.736 127.780,166.600 128.000 C 166.464 128.220,165.913 128.400,165.376 128.400 C 164.839 128.400,164.400 128.580,164.400 128.800 C 164.400 129.020,164.040 129.200,163.600 129.200 C 163.160 129.200,162.800 129.380,162.800 129.600 C 162.800 129.820,162.440 130.000,162.000 130.000 C 161.560 130.000,161.200 130.146,161.200 130.325 C 161.200 130.504,160.570 130.898,159.800 131.200 C 159.030 131.502,158.400 131.896,158.400 132.075 C 158.400 132.254,158.040 132.400,157.600 132.400 C 157.160 132.400,156.800 132.580,156.800 132.800 C 156.800 133.020,156.440 133.200,156.000 133.200 C 155.560 133.200,155.200 133.380,155.200 133.600 C 155.200 133.820,154.880 134.000,154.488 134.000 C 154.097 134.000,153.517 134.360,153.200 134.800 C 152.883 135.240,152.343 135.600,152.000 135.600 C 151.657 135.600,151.117 135.960,150.800 136.400 C 150.483 136.840,149.943 137.200,149.600 137.200 C 149.257 137.200,148.717 137.560,148.400 138.000 C 148.083 138.440,147.575 138.800,147.272 138.800 C 146.969 138.800,146.217 139.340,145.600 140.000 C 144.983 140.660,144.373 141.200,144.243 141.200 C 143.513 141.200,130.000 154.525,130.000 155.245 C 130.000 155.484,129.460 156.183,128.800 156.800 C 128.140 157.417,127.600 158.091,127.600 158.298 C 127.600 158.506,127.284 158.962,126.899 159.311 C 126.513 159.660,125.673 160.947,125.032 162.173 C 124.391 163.398,123.717 164.400,123.533 164.400 C 123.350 164.400,123.200 164.760,123.200 165.200 C 123.200 165.640,123.020 166.000,122.800 166.000 C 122.580 166.000,122.400 166.320,122.400 166.712 C 122.400 167.103,122.040 167.683,121.600 168.000 C 121.160 168.317,120.800 168.897,120.800 169.288 C 120.800 169.680,120.620 170.000,120.400 170.000 C 120.180 170.000,120.000 170.360,120.000 170.800 C 120.000 171.240,119.820 171.600,119.600 171.600 C 119.380 171.600,119.200 171.949,119.200 172.376 C 119.200 172.803,119.020 173.264,118.800 173.400 C 118.580 173.536,118.400 174.087,118.400 174.624 C 118.400 175.161,118.265 175.601,118.100 175.603 C 117.694 175.607,116.800 177.586,116.800 178.480 C 116.800 178.876,116.620 179.200,116.400 179.200 C 116.180 179.200,116.000 179.549,116.000 179.976 C 116.000 180.403,115.820 180.864,115.600 181.000 C 115.380 181.136,115.200 181.676,115.200 182.200 C 115.200 182.724,115.020 183.264,114.800 183.400 C 114.580 183.536,114.400 184.267,114.400 185.024 C 114.400 185.781,114.220 186.400,114.000 186.400 C 113.780 186.400,113.600 186.929,113.600 187.576 C 113.600 188.223,113.420 188.864,113.200 189.000 C 112.980 189.136,112.800 189.946,112.800 190.800 C 112.800 191.654,112.620 192.464,112.400 192.600 C 112.180 192.736,112.000 193.636,112.000 194.600 C 112.000 195.564,111.820 196.464,111.600 196.600 C 111.380 196.736,111.200 198.331,111.200 200.144 C 111.200 201.957,111.012 203.628,110.782 203.858 C 110.087 204.553,110.872 225.200,111.592 225.200 C 111.776 225.200,112.027 226.145,112.150 227.300 C 112.623 231.737,112.893 233.200,113.240 233.200 C 113.438 233.200,113.600 233.819,113.600 234.576 C 113.600 235.333,113.780 236.064,114.000 236.200 C 114.220 236.336,114.400 236.876,114.400 237.400 C 114.400 237.924,114.580 238.464,114.800 238.600 C 115.020 238.736,115.200 239.251,115.200 239.744 C 115.200 240.237,115.416 240.856,115.680 241.120 C 116.053 241.493,104.058 241.600,61.700 241.600 C 2.601 241.600,4.299 241.536,1.768 243.855 L 0.226 245.268 0.067 249.223 C -0.152 254.668,0.267 255.748,3.400 257.810 C 4.907 258.802,311.570 259.090,311.900 258.100 C 311.992 257.825,312.277 257.600,312.533 257.600 C 313.171 257.599,315.200 255.814,315.200 255.253 C 315.200 255.004,315.380 254.800,315.600 254.800 C 315.820 254.800,316.000 254.350,316.000 253.800 C 316.000 253.250,316.180 252.800,316.400 252.800 C 316.625 252.800,316.800 251.675,316.800 250.224 C 316.800 248.807,316.620 247.536,316.400 247.400 C 316.180 247.264,316.000 246.803,316.000 246.376 C 316.000 245.949,315.820 245.600,315.600 245.600 C 315.380 245.600,315.200 245.370,315.200 245.088 C 315.200 244.807,314.818 244.312,314.351 243.988 C 313.884 243.665,313.236 243.144,312.910 242.830 C 311.898 241.857,309.013 241.648,296.220 241.624 C 286.591 241.605,283.947 241.493,284.320 241.120 C 284.584 240.856,284.800 240.237,284.800 239.744 C 284.800 239.251,284.980 238.736,285.200 238.600 C 285.420 238.464,285.600 237.924,285.600 237.400 C 285.600 236.876,285.780 236.336,286.000 236.200 C 286.220 236.064,286.400 235.333,286.400 234.576 C 286.400 233.819,286.580 233.200,286.800 233.200 C 287.020 233.200,287.200 232.401,287.200 231.424 C 287.200 230.447,287.380 229.536,287.600 229.400 C 287.820 229.264,288.000 228.263,288.000 227.176 C 288.000 226.089,288.180 225.200,288.400 225.200 C 288.633 225.200,288.800 223.875,288.800 222.024 C 288.800 220.277,288.980 218.736,289.200 218.600 C 289.443 218.450,289.600 215.537,289.600 211.200 C 289.600 206.863,289.443 203.950,289.200 203.800 C 288.980 203.664,288.800 202.044,288.800 200.200 C 288.800 198.356,288.620 196.736,288.400 196.600 C 288.180 196.464,288.000 195.553,288.000 194.576 C 288.000 193.599,287.838 192.800,287.640 192.800 C 287.442 192.800,287.181 192.035,287.059 191.100 C 286.620 187.737,286.306 186.400,285.956 186.400 C 285.760 186.400,285.600 185.781,285.600 185.024 C 285.600 184.267,285.420 183.536,285.200 183.400 C 284.980 183.264,284.800 182.724,284.800 182.200 C 284.800 181.676,284.620 181.136,284.400 181.000 C 284.180 180.864,284.000 180.403,284.000 179.976 C 284.000 179.549,283.820 179.200,283.600 179.200 C 283.380 179.200,283.200 178.876,283.200 178.480 C 283.200 177.586,282.306 175.607,281.900 175.603 C 281.735 175.601,281.600 175.161,281.600 174.624 C 281.600 174.087,281.420 173.536,281.200 173.400 C 280.980 173.264,280.800 172.803,280.800 172.376 C 280.800 171.949,280.620 171.600,280.400 171.600 C 280.180 171.600,280.000 171.240,280.000 170.800 C 280.000 170.360,279.820 170.000,279.600 170.000 C 279.380 170.000,279.200 169.764,279.200 169.475 C 279.200 169.187,278.840 168.564,278.400 168.092 C 277.960 167.620,277.600 166.956,277.600 166.617 C 277.600 166.278,277.420 166.000,277.200 166.000 C 276.980 166.000,276.800 165.680,276.800 165.288 C 276.800 164.897,276.440 164.317,276.000 164.000 C 275.560 163.683,275.200 163.190,275.200 162.904 C 275.200 162.618,274.705 161.641,274.100 160.732 C 273.495 159.824,272.820 158.798,272.600 158.452 C 272.380 158.107,271.705 157.342,271.100 156.752 C 270.495 156.162,270.000 155.487,270.000 155.252 C 270.000 154.587,256.451 141.200,255.777 141.200 C 255.636 141.200,255.017 140.660,254.400 140.000 C 253.783 139.340,253.057 138.800,252.786 138.800 C 252.516 138.800,252.003 138.484,251.647 138.097 C 251.291 137.711,250.505 137.140,249.900 136.830 C 249.295 136.519,248.800 136.115,248.800 135.932 C 248.800 135.750,248.480 135.600,248.088 135.600 C 247.697 135.600,247.117 135.240,246.800 134.800 C 246.483 134.360,245.903 134.000,245.512 134.000 C 245.120 134.000,244.800 133.820,244.800 133.600 C 244.800 133.380,244.440 133.200,244.000 133.200 C 243.560 133.200,243.200 133.020,243.200 132.800 C 243.200 132.580,242.840 132.400,242.400 132.400 C 241.960 132.400,241.600 132.220,241.600 132.000 C 241.600 131.780,241.330 131.600,241.000 131.600 C 240.670 131.600,240.399 131.465,240.397 131.300 C 240.393 130.941,238.456 130.000,237.720 130.000 C 237.434 130.000,237.200 129.820,237.200 129.600 C 237.200 129.380,236.840 129.200,236.400 129.200 C 235.960 129.200,235.600 129.053,235.600 128.872 C 235.600 128.692,234.700 128.300,233.600 128.000 C 232.500 127.700,231.600 127.308,231.600 127.128 C 231.600 126.947,231.148 126.800,230.595 126.800 C 230.042 126.800,229.277 126.637,228.895 126.437 C 227.660 125.791,223.941 124.800,222.754 124.800 C 222.119 124.800,221.600 124.620,221.600 124.400 C 221.600 124.180,220.790 124.000,219.800 124.000 C 218.810 124.000,218.000 123.820,218.000 123.600 C 218.000 123.380,217.010 123.200,215.800 123.200 C 214.590 123.200,213.600 123.020,213.600 122.800 C 213.600 122.560,212.000 122.400,209.600 122.400 C 207.200 122.400,205.600 122.240,205.600 122.000 C 205.600 121.752,203.467 121.600,200.000 121.600 C 196.533 121.600,194.400 121.752,194.400 122.000 M209.800 138.265 C 210.240 138.384,211.500 138.634,212.600 138.819 C 215.235 139.265,217.829 139.834,219.800 140.398 C 220.680 140.650,221.808 140.955,222.306 141.076 C 222.804 141.197,223.310 141.454,223.430 141.648 C 223.549 141.841,223.999 142.000,224.429 142.000 C 224.859 142.000,225.523 142.159,225.905 142.353 C 226.287 142.548,227.050 142.886,227.600 143.106 C 232.150 144.923,242.845 150.960,244.000 152.362 C 244.110 152.496,245.043 153.234,246.074 154.003 C 249.396 156.479,257.530 165.020,259.120 167.700 C 259.479 168.305,259.914 168.800,260.086 168.800 C 260.259 168.800,260.400 169.070,260.400 169.400 C 260.400 169.730,260.550 170.000,260.732 170.000 C 260.915 170.000,261.315 170.495,261.620 171.100 C 261.926 171.705,262.642 172.920,263.212 173.800 C 265.975 178.065,270.137 188.099,271.255 193.191 C 273.711 204.373,273.998 216.148,272.036 225.200 C 271.822 226.190,271.454 227.900,271.220 229.000 C 270.650 231.669,268.923 236.901,267.749 239.512 C 267.227 240.673,266.800 241.779,266.800 241.969 C 266.800 242.159,266.515 242.424,266.167 242.557 C 265.321 242.882,135.050 242.871,134.204 242.546 C 133.020 242.092,130.511 235.677,128.748 228.600 C 126.366 219.035,126.055 206.757,127.957 197.400 C 128.180 196.300,128.526 194.590,128.726 193.600 C 129.744 188.540,134.186 177.702,136.871 173.728 C 137.492 172.808,138.000 171.891,138.000 171.690 C 138.000 171.489,138.360 170.998,138.800 170.600 C 139.240 170.202,139.600 169.634,139.600 169.338 C 139.600 169.042,139.741 168.800,139.914 168.800 C 140.086 168.800,140.521 168.305,140.880 167.700 C 145.779 159.440,160.602 147.876,172.400 143.111 C 172.950 142.888,173.713 142.548,174.095 142.353 C 174.477 142.159,175.141 142.000,175.571 142.000 C 176.001 142.000,176.464 141.820,176.600 141.600 C 176.736 141.380,177.276 141.200,177.800 141.200 C 178.324 141.200,178.851 141.041,178.971 140.846 C 179.092 140.651,179.687 140.390,180.295 140.264 C 180.903 140.139,182.300 139.838,183.400 139.597 C 187.792 138.632,189.986 138.318,194.200 138.048 C 198.776 137.755,208.409 137.889,209.800 138.265 M197.562 154.926 C 196.203 155.434,193.664 157.224,191.785 159.000 C 191.320 159.440,190.339 160.250,189.606 160.800 C 188.873 161.350,188.077 161.982,187.837 162.205 C 186.970 163.008,178.158 170.272,176.416 171.620 C 175.434 172.379,174.243 173.360,173.768 173.800 C 173.294 174.240,172.207 175.167,171.353 175.860 C 170.499 176.554,169.411 177.454,168.936 177.860 C 168.461 178.267,167.291 179.225,166.336 179.989 C 162.238 183.268,159.808 187.892,161.600 189.000 C 161.820 189.136,162.000 189.633,162.000 190.104 C 162.000 191.175,165.339 194.400,166.447 194.400 C 166.890 194.400,167.573 194.572,167.965 194.781 C 169.293 195.492,173.119 193.810,175.800 191.338 C 176.240 190.932,177.590 189.792,178.800 188.805 C 180.010 187.819,181.090 186.911,181.200 186.789 C 181.310 186.667,183.379 184.955,185.798 182.984 C 188.217 181.013,190.518 179.130,190.911 178.800 C 192.172 177.742,192.196 178.077,192.425 199.100 C 192.549 210.485,192.801 220.340,192.984 221.000 C 193.704 223.580,197.154 226.077,200.000 226.077 C 202.805 226.077,206.800 223.305,206.800 221.359 C 206.800 220.857,206.980 220.336,207.200 220.200 C 207.458 220.040,207.600 212.604,207.600 199.200 C 207.600 177.573,207.606 177.500,209.285 178.923 C 209.854 179.405,212.078 181.240,214.228 183.000 C 216.377 184.760,218.330 186.380,218.568 186.600 C 218.806 186.820,219.679 187.507,220.509 188.127 C 221.339 188.747,222.421 189.647,222.913 190.127 C 224.752 191.921,228.300 194.400,229.037 194.406 C 229.457 194.409,230.036 194.562,230.325 194.745 C 232.390 196.055,237.500 192.560,238.346 189.260 C 239.244 185.755,238.125 183.527,233.637 179.883 C 231.967 178.527,230.359 177.186,230.065 176.903 C 229.771 176.620,228.871 175.898,228.065 175.298 C 227.259 174.699,226.330 173.932,226.000 173.593 C 225.670 173.254,224.590 172.357,223.600 171.599 C 222.610 170.841,221.710 170.126,221.600 170.010 C 221.490 169.895,220.500 169.086,219.400 168.214 C 218.300 167.341,217.310 166.529,217.200 166.408 C 217.090 166.288,216.010 165.384,214.800 164.400 C 213.590 163.416,212.510 162.516,212.400 162.400 C 212.290 162.284,211.210 161.381,210.000 160.395 C 208.790 159.408,207.440 158.268,207.000 157.862 C 203.760 154.874,200.455 153.846,197.562 154.926 M56.800 203.132 C 56.800 203.315,56.305 203.720,55.700 204.032 C 54.209 204.802,53.600 205.422,53.600 206.171 C 53.600 206.517,53.420 206.800,53.200 206.800 C 52.980 206.800,52.800 207.160,52.800 207.600 C 52.800 208.040,52.620 208.400,52.400 208.400 C 52.174 208.400,52.000 209.533,52.000 211.000 C 52.000 212.467,52.174 213.600,52.400 213.600 C 52.620 213.600,52.800 214.015,52.800 214.522 C 52.800 215.604,55.218 218.400,56.154 218.400 C 56.509 218.400,56.800 218.580,56.800 218.800 C 56.800 219.020,57.149 219.200,57.576 219.200 C 58.003 219.200,58.464 219.380,58.600 219.600 C 58.758 219.855,64.396 220.000,74.200 220.000 C 84.004 220.000,89.642 219.855,89.800 219.600 C 89.936 219.380,90.458 219.200,90.960 219.200 C 92.026 219.200,95.600 215.996,95.600 215.040 C 95.600 214.688,95.780 214.400,96.000 214.400 C 96.231 214.400,96.400 213.133,96.400 211.400 C 96.400 209.667,96.231 208.400,96.000 208.400 C 95.780 208.400,95.600 208.128,95.600 207.795 C 95.600 206.458,93.295 203.600,92.218 203.600 C 91.878 203.600,91.600 203.420,91.600 203.200 C 91.600 202.939,85.533 202.800,74.200 202.800 C 64.630 202.800,56.800 202.950,56.800 203.132 M308.400 203.200 C 308.400 203.420,308.109 203.600,307.754 203.600 C 306.818 203.600,304.400 206.396,304.400 207.478 C 304.400 207.985,304.220 208.400,304.000 208.400 C 303.769 208.400,303.600 209.667,303.600 211.400 C 303.600 213.133,303.769 214.400,304.000 214.400 C 304.220 214.400,304.400 214.688,304.400 215.040 C 304.400 215.996,307.974 219.200,309.040 219.200 C 309.542 219.200,310.064 219.380,310.200 219.600 C 310.945 220.806,343.200 219.929,343.200 218.703 C 343.200 218.536,343.491 218.400,343.846 218.400 C 344.782 218.400,347.200 215.604,347.200 214.522 C 347.200 214.015,347.380 213.600,347.600 213.600 C 347.826 213.600,348.000 212.467,348.000 211.000 C 348.000 209.533,347.826 208.400,347.600 208.400 C 347.380 208.400,347.200 208.040,347.200 207.600 C 347.200 207.160,347.020 206.800,346.800 206.800 C 346.580 206.800,346.400 206.517,346.400 206.171 C 346.400 205.422,345.791 204.802,344.300 204.032 C 343.695 203.720,343.200 203.315,343.200 203.132 C 343.200 202.950,335.370 202.800,325.800 202.800 C 314.467 202.800,308.400 202.939,308.400 203.200 M336.600 241.971 C 334.171 242.558,331.600 244.906,331.600 246.538 C 331.600 246.902,331.420 247.200,331.200 247.200 C 329.317 247.200,331.284 254.703,333.739 256.882 C 335.801 258.712,342.620 259.521,343.133 257.996 C 343.207 257.778,343.530 257.600,343.852 257.600 C 344.522 257.600,346.400 255.845,346.400 255.218 C 346.400 254.988,346.580 254.800,346.800 254.800 C 347.020 254.800,347.200 254.350,347.200 253.800 C 347.200 253.250,347.380 252.800,347.600 252.800 C 347.825 252.800,348.000 251.675,348.000 250.224 C 348.000 248.807,347.820 247.536,347.600 247.400 C 347.380 247.264,347.200 246.803,347.200 246.376 C 347.200 245.949,347.020 245.600,346.800 245.600 C 346.580 245.600,346.400 245.370,346.400 245.088 C 346.400 244.807,346.018 244.312,345.551 243.988 C 345.084 243.665,344.440 243.148,344.120 242.841 C 343.057 241.819,339.119 241.364,336.600 241.971 M367.800 241.971 C 365.371 242.558,362.800 244.906,362.800 246.538 C 362.800 246.902,362.620 247.200,362.400 247.200 C 361.794 247.200,361.919 252.109,362.565 253.651 C 363.248 255.283,364.145 256.319,366.000 257.619 L 367.400 258.600 381.400 258.600 C 396.809 258.600,396.309 258.675,398.710 256.010 C 399.956 254.628,400.097 253.851,399.938 249.266 L 399.800 245.289 398.245 243.866 C 397.211 242.919,396.033 242.302,394.725 242.021 C 392.524 241.549,369.725 241.507,367.800 241.971 M32.400 281.200 C 32.400 281.420,32.124 281.600,31.787 281.600 C 30.991 281.600,28.400 284.191,28.400 284.987 C 28.400 285.324,28.220 285.600,28.000 285.600 C 27.164 285.600,27.517 292.745,28.400 293.692 C 28.840 294.164,29.200 294.787,29.200 295.075 C 29.200 295.364,29.470 295.600,29.800 295.600 C 30.130 295.600,30.400 295.780,30.400 296.000 C 30.400 296.220,30.670 296.400,31.000 296.400 C 31.330 296.400,31.600 296.580,31.600 296.800 C 31.600 297.020,32.140 297.200,32.800 297.200 C 33.460 297.200,34.000 297.380,34.000 297.600 C 34.000 297.865,55.733 298.000,98.400 298.000 C 141.067 298.000,162.800 297.865,162.800 297.600 C 162.800 297.380,163.340 297.200,164.000 297.200 C 164.660 297.200,165.200 297.064,165.200 296.898 C 165.200 296.731,165.730 296.361,166.377 296.074 C 167.024 295.788,167.788 295.024,168.074 294.377 C 168.361 293.730,168.731 293.200,168.898 293.200 C 169.416 293.200,169.241 286.060,168.700 285.120 C 167.891 283.714,165.677 281.600,165.013 281.600 C 164.676 281.600,164.400 281.420,164.400 281.200 C 164.400 280.935,142.133 280.800,98.400 280.800 C 54.667 280.800,32.400 280.935,32.400 281.200 M235.600 281.200 C 235.600 281.420,235.324 281.600,234.987 281.600 C 234.649 281.600,233.749 282.224,232.987 282.987 C 232.224 283.749,231.600 284.649,231.600 284.987 C 231.600 285.324,231.420 285.600,231.200 285.600 C 230.961 285.600,230.800 287.133,230.800 289.400 C 230.800 291.490,230.958 293.200,231.151 293.200 C 231.345 293.200,231.724 293.733,231.994 294.385 C 232.264 295.037,233.006 295.801,233.642 296.083 C 234.279 296.365,234.800 296.731,234.800 296.898 C 234.800 297.064,235.340 297.200,236.000 297.200 C 236.660 297.200,237.200 297.380,237.200 297.600 C 237.200 297.865,258.933 298.000,301.600 298.000 C 344.267 298.000,366.000 297.865,366.000 297.600 C 366.000 297.380,366.540 297.200,367.200 297.200 C 367.860 297.200,368.400 297.020,368.400 296.800 C 368.400 296.580,368.670 296.400,369.000 296.400 C 369.330 296.400,369.600 296.220,369.600 296.000 C 369.600 295.780,369.848 295.600,370.151 295.600 C 370.455 295.600,370.927 295.060,371.200 294.400 C 371.473 293.740,371.855 293.200,372.049 293.200 C 372.242 293.200,372.400 291.490,372.400 289.400 C 372.400 287.133,372.239 285.600,372.000 285.600 C 371.780 285.600,371.600 285.324,371.600 284.987 C 371.600 284.191,369.009 281.600,368.213 281.600 C 367.876 281.600,367.600 281.420,367.600 281.200 C 367.600 280.935,345.333 280.800,301.600 280.800 C 257.867 280.800,235.600 280.935,235.600 281.200 M138.000 320.400 C 138.000 320.620,137.724 320.800,137.387 320.800 C 136.591 320.800,134.000 323.391,134.000 324.187 C 134.000 324.524,133.820 324.800,133.600 324.800 C 132.764 324.800,133.117 331.945,134.000 332.892 C 134.440 333.364,134.800 333.972,134.800 334.242 C 134.800 334.512,135.340 334.972,136.000 335.264 C 136.660 335.556,137.200 335.931,137.200 336.098 C 137.200 336.264,137.740 336.400,138.400 336.400 C 139.060 336.400,139.600 336.580,139.600 336.800 C 139.600 337.065,160.000 337.200,200.000 337.200 C 240.000 337.200,260.400 337.065,260.400 336.800 C 260.400 336.580,260.940 336.400,261.600 336.400 C 262.260 336.400,262.800 336.264,262.800 336.098 C 262.800 335.931,263.340 335.556,264.000 335.264 C 264.660 334.972,265.200 334.478,265.200 334.166 C 265.200 333.855,265.380 333.600,265.600 333.600 C 265.820 333.600,266.000 333.330,266.000 333.000 C 266.000 332.670,266.180 332.400,266.400 332.400 C 266.993 332.400,266.906 325.374,266.300 324.320 C 265.491 322.914,263.277 320.800,262.613 320.800 C 262.276 320.800,262.000 320.620,262.000 320.400 C 262.000 320.135,241.067 320.000,200.000 320.000 C 158.933 320.000,138.000 320.135,138.000 320.400 " stroke="none" fill="#040404" fill-rule="evenodd"></path><path id="path2" d="M193.900 138.282 C 194.395 138.378,195.205 138.378,195.700 138.282 C 196.195 138.187,195.790 138.109,194.800 138.109 C 193.810 138.109,193.405 138.187,193.900 138.282 M204.300 138.282 C 204.795 138.378,205.605 138.378,206.100 138.282 C 206.595 138.187,206.190 138.109,205.200 138.109 C 204.210 138.109,203.805 138.187,204.300 138.282 M151.375 156.500 L 150.200 157.800 151.500 156.625 C 152.215 155.979,152.800 155.394,152.800 155.325 C 152.800 155.016,152.470 155.288,151.375 156.500 M207.783 178.900 C 207.678 179.175,207.639 188.220,207.696 199.000 L 207.800 218.600 208.000 198.500 C 208.110 187.445,208.149 178.400,208.087 178.400 C 208.026 178.400,207.889 178.625,207.783 178.900 M163.578 181.900 L 162.200 183.400 163.700 182.022 C 164.525 181.263,165.200 180.588,165.200 180.522 C 165.200 180.216,164.862 180.504,163.578 181.900 M272.920 208.800 C 272.920 210.010,272.995 210.505,273.087 209.900 C 273.178 209.295,273.178 208.305,273.087 207.700 C 272.995 207.095,272.920 207.590,272.920 208.800 M126.946 211.000 C 126.947 213.200,127.014 214.049,127.095 212.887 C 127.176 211.724,127.176 209.924,127.093 208.887 C 127.011 207.849,126.945 208.800,126.946 211.000 M272.914 213.400 C 272.917 214.500,272.995 214.903,273.087 214.295 C 273.179 213.686,273.177 212.786,273.082 212.295 C 272.987 211.803,272.911 212.300,272.914 213.400 " stroke="none" fill="#584725" fill-rule="evenodd"></path><path id="path3" d="M198.100 138.294 C 199.145 138.376,200.855 138.376,201.900 138.294 C 202.945 138.212,202.090 138.144,200.000 138.144 C 197.910 138.144,197.055 138.212,198.100 138.294 M190.000 138.800 L 188.600 139.095 190.200 139.100 C 191.080 139.103,192.340 138.968,193.000 138.800 L 194.200 138.495 192.800 138.500 C 192.030 138.503,190.770 138.638,190.000 138.800 M207.400 138.823 C 208.280 139.005,209.540 139.144,210.200 139.131 C 211.244 139.111,211.192 139.065,209.800 138.777 C 208.920 138.595,207.660 138.456,207.000 138.469 C 205.956 138.489,206.008 138.535,207.400 138.823 M185.200 139.600 L 184.200 139.920 185.200 139.932 C 185.750 139.938,186.560 139.789,187.000 139.600 L 187.800 139.256 187.000 139.268 C 186.560 139.274,185.750 139.424,185.200 139.600 M213.000 139.600 C 213.440 139.789,214.340 139.935,215.000 139.925 L 216.200 139.905 215.000 139.600 C 214.340 139.432,213.440 139.286,213.000 139.275 L 212.200 139.256 213.000 139.600 M181.800 140.400 L 181.000 140.744 181.800 140.766 C 182.240 140.778,182.870 140.613,183.200 140.400 C 183.995 139.886,182.996 139.886,181.800 140.400 M216.800 140.400 C 217.130 140.613,217.760 140.778,218.200 140.766 L 219.000 140.744 218.200 140.400 C 217.004 139.886,216.005 139.886,216.800 140.400 M179.000 141.200 L 178.200 141.544 179.000 141.566 C 179.440 141.578,180.070 141.413,180.400 141.200 C 181.195 140.686,180.196 140.686,179.000 141.200 M176.800 141.863 C 174.704 142.563,169.994 144.528,170.118 144.651 C 170.241 144.775,174.265 143.304,177.400 141.990 C 178.259 141.629,177.794 141.532,176.800 141.863 M222.507 141.824 C 222.855 142.191,225.589 143.193,226.200 143.178 C 226.653 143.167,224.650 142.256,223.174 141.801 C 222.638 141.636,222.338 141.646,222.507 141.824 M228.869 144.203 C 229.004 144.337,230.837 145.322,232.942 146.391 C 235.048 147.460,238.416 149.442,240.427 150.797 C 242.438 152.151,243.963 153.063,243.814 152.823 C 243.333 152.044,237.825 148.513,233.967 146.511 C 230.189 144.550,228.412 143.745,228.869 144.203 M166.617 146.204 C 165.086 146.975,163.646 147.803,163.417 148.044 C 163.188 148.284,164.485 147.720,166.300 146.790 C 169.102 145.354,170.002 144.795,169.500 144.801 C 169.445 144.802,168.148 145.433,166.617 146.204 M158.728 150.908 C 155.307 153.363,149.711 158.000,150.169 158.000 C 150.298 158.000,151.798 156.825,153.502 155.388 C 155.206 153.951,157.995 151.852,159.700 150.723 C 161.405 149.593,162.800 148.609,162.800 148.535 C 162.800 148.115,161.843 148.672,158.728 150.908 M244.400 153.491 C 244.400 153.676,244.895 154.129,245.500 154.497 C 246.105 154.865,247.263 155.803,248.073 156.583 C 248.884 157.362,249.691 158.000,249.866 158.000 C 250.042 158.000,249.214 157.145,248.025 156.100 C 245.327 153.728,244.400 153.061,244.400 153.491 M199.100 153.882 C 199.595 153.978,200.405 153.978,200.900 153.882 C 201.395 153.787,200.990 153.709,200.000 153.709 C 199.010 153.709,198.605 153.787,199.100 153.882 M196.129 154.700 C 195.437 155.085,193.947 156.193,192.820 157.162 C 191.692 158.132,190.152 159.392,189.399 159.962 C 188.646 160.533,188.023 161.135,188.015 161.301 C 188.007 161.466,189.845 160.108,192.100 158.284 C 194.355 156.460,196.650 154.762,197.200 154.511 C 197.750 154.260,198.017 154.042,197.794 154.027 C 197.570 154.012,196.821 154.315,196.129 154.700 M203.391 154.795 C 204.265 155.248,205.525 156.125,206.191 156.744 C 206.856 157.363,210.460 160.362,214.200 163.409 C 217.940 166.456,223.025 170.634,225.500 172.693 C 227.975 174.753,229.992 176.294,229.982 176.119 C 229.972 175.944,228.925 174.990,227.655 174.000 C 226.385 173.010,224.458 171.448,223.373 170.530 C 221.772 169.175,209.914 159.362,207.600 157.478 C 204.948 155.318,203.660 154.445,202.800 154.226 C 202.206 154.075,202.445 154.306,203.391 154.795 M146.714 161.300 C 142.490 165.981,139.679 169.600,140.266 169.600 C 140.465 169.600,140.925 169.105,141.289 168.500 C 142.381 166.684,145.665 162.838,149.118 159.332 C 149.623 158.820,149.877 158.400,149.683 158.400 C 149.489 158.400,148.153 159.705,146.714 161.300 M251.373 159.800 C 252.143 160.570,252.905 161.200,253.065 161.200 C 253.226 161.200,252.746 160.570,252.000 159.800 C 251.254 159.030,250.492 158.400,250.308 158.400 C 250.124 158.400,250.603 159.030,251.373 159.800 M186.351 162.500 C 185.774 162.995,182.894 165.380,179.952 167.800 C 177.010 170.220,173.522 173.104,172.202 174.209 C 170.881 175.314,168.360 177.377,166.600 178.794 C 163.191 181.539,161.588 183.151,161.621 183.800 C 161.633 184.020,161.946 183.763,162.318 183.228 C 162.958 182.307,166.102 179.640,181.128 167.274 C 186.800 162.606,187.932 161.598,187.500 161.600 C 187.445 161.601,186.928 162.006,186.351 162.500 M254.476 163.100 C 255.268 163.925,257.124 166.220,258.601 168.200 C 261.515 172.104,262.175 172.872,261.012 171.000 C 259.157 168.015,253.943 161.600,253.372 161.600 C 253.188 161.600,253.685 162.275,254.476 163.100 M137.552 173.300 C 137.290 173.795,136.815 174.650,136.496 175.200 C 135.939 176.159,135.943 176.167,136.588 175.400 C 137.386 174.452,138.505 172.400,138.224 172.400 C 138.116 172.400,137.814 172.805,137.552 173.300 M262.409 173.900 C 262.414 174.065,262.785 174.650,263.233 175.200 L 264.048 176.200 263.414 174.900 C 262.811 173.665,262.389 173.245,262.409 173.900 M135.080 177.680 C 134.692 178.356,134.457 178.991,134.558 179.091 C 134.659 179.192,135.038 178.701,135.400 178.000 C 136.257 176.343,135.997 176.083,135.080 177.680 M232.400 178.244 C 233.610 179.306,235.455 181.035,236.500 182.086 C 237.545 183.137,238.400 183.863,238.400 183.699 C 238.399 183.203,236.728 181.490,234.400 179.598 C 233.190 178.615,232.110 177.719,232.000 177.605 C 231.890 177.492,231.440 177.156,231.000 176.857 C 230.560 176.558,231.190 177.182,232.400 178.244 M189.200 180.660 C 187.990 181.660,186.550 182.866,186.000 183.339 C 185.450 183.813,183.065 185.785,180.700 187.723 C 178.335 189.660,176.400 191.347,176.400 191.472 C 176.400 191.731,176.931 191.332,180.000 188.771 C 188.152 181.969,191.554 179.200,191.762 179.200 C 191.893 179.200,192.000 188.639,192.000 200.176 C 192.000 211.713,192.135 221.236,192.300 221.338 C 192.616 221.534,192.526 180.163,192.209 179.300 C 191.928 178.536,191.578 178.694,189.200 180.660 M208.811 179.477 C 209.355 179.849,209.890 180.261,210.000 180.392 C 210.241 180.678,218.511 187.517,221.600 189.984 C 222.810 190.950,223.440 191.366,223.000 190.907 C 221.549 189.395,208.608 178.801,208.211 178.800 C 207.997 178.800,208.267 179.105,208.811 179.477 M133.657 180.445 C 133.456 180.970,132.821 182.556,132.246 183.969 C 131.671 185.382,131.206 186.732,131.212 186.969 C 131.219 187.206,131.933 185.699,132.798 183.620 C 133.664 181.540,134.294 179.760,134.197 179.664 C 134.101 179.568,133.858 179.919,133.657 180.445 M161.043 185.033 C 160.697 185.934,160.742 189.917,161.100 190.138 C 161.265 190.240,161.400 188.991,161.400 187.362 C 161.400 184.131,161.397 184.110,161.043 185.033 M238.640 185.466 C 239.008 186.999,239.200 187.144,239.200 185.890 C 239.200 185.317,239.013 184.732,238.784 184.590 C 238.511 184.421,238.462 184.723,238.640 185.466 M268.805 187.433 C 268.808 187.635,269.179 188.970,269.631 190.400 C 271.072 194.966,271.970 199.825,272.368 205.200 C 272.671 209.286,272.681 209.319,272.733 206.400 C 272.801 202.533,271.710 196.011,270.029 190.246 C 269.283 187.688,268.793 186.562,268.805 187.433 M130.028 190.203 C 129.573 191.678,129.215 193.090,129.232 193.342 C 129.250 193.594,129.700 192.465,130.233 190.834 C 130.765 189.202,131.123 187.790,131.028 187.695 C 130.934 187.600,130.483 188.729,130.028 190.203 M238.350 190.176 C 237.992 191.179,237.762 192.000,237.839 192.000 C 238.178 192.000,239.236 189.488,239.124 188.949 C 239.056 188.621,238.707 189.173,238.350 190.176 M161.600 190.969 C 161.600 192.768,166.003 195.600,168.800 195.600 C 171.070 195.600,176.000 192.983,176.000 191.778 C 176.000 191.634,175.363 192.076,174.585 192.759 C 170.695 196.175,165.157 195.849,162.577 192.052 C 162.040 191.261,161.600 190.774,161.600 190.969 M224.000 191.778 C 224.000 192.273,226.206 193.978,227.896 194.787 C 230.849 196.203,235.043 195.428,237.061 193.094 C 237.750 192.298,237.719 192.302,236.600 193.156 C 232.895 195.986,228.929 195.845,225.415 192.759 C 224.637 192.076,224.000 191.634,224.000 191.778 M128.849 194.600 C 128.816 195.040,128.696 195.850,128.583 196.400 L 128.377 197.400 128.806 196.419 C 129.042 195.879,129.161 195.069,129.072 194.619 C 128.913 193.821,128.907 193.821,128.849 194.600 M127.870 199.757 C 127.711 201.053,127.661 202.194,127.760 202.293 C 128.026 202.559,128.503 199.018,128.319 198.147 C 128.232 197.736,128.030 198.460,127.870 199.757 M127.277 210.633 C 127.205 218.152,127.353 219.993,128.478 225.600 C 129.307 229.732,130.768 234.965,131.022 234.711 C 131.112 234.621,130.822 233.299,130.378 231.774 C 129.571 229.006,129.050 226.781,128.320 223.000 C 128.108 221.900,127.804 216.860,127.644 211.800 L 127.353 202.600 127.277 210.633 M272.471 215.800 C 272.390 218.828,271.792 222.989,270.812 227.353 C 270.570 228.427,270.449 229.382,270.541 229.475 C 270.734 229.667,271.731 225.144,272.408 221.000 C 272.660 219.460,272.797 216.940,272.712 215.400 L 272.557 212.600 272.471 215.800 M207.664 219.313 C 207.629 219.925,207.339 221.050,207.020 221.813 C 206.304 223.529,206.556 223.632,207.413 221.975 C 207.762 221.301,207.975 220.176,207.887 219.475 C 207.738 218.281,207.724 218.270,207.664 219.313 M192.800 222.311 C 192.800 222.955,195.857 226.001,196.500 225.997 C 196.775 225.996,196.460 225.641,195.800 225.210 C 195.140 224.778,194.195 223.839,193.700 223.123 C 193.205 222.408,192.800 222.042,192.800 222.311 M204.641 224.827 C 203.783 225.472,203.250 226.000,203.456 226.000 C 203.662 226.000,204.453 225.467,205.215 224.816 C 206.987 223.302,206.661 223.308,204.641 224.827 M197.462 226.500 C 197.564 226.665,198.706 226.800,200.000 226.800 C 201.294 226.800,202.436 226.665,202.538 226.500 C 202.640 226.335,201.498 226.200,200.000 226.200 C 198.502 226.200,197.360 226.335,197.462 226.500 M270.046 230.467 C 270.021 230.834,269.896 231.464,269.770 231.867 C 269.552 232.562,269.563 232.563,269.997 231.887 C 270.248 231.496,270.373 230.866,270.273 230.487 C 270.111 229.868,270.088 229.866,270.046 230.467 M131.200 235.484 C 131.200 235.714,131.491 236.599,131.848 237.451 C 132.204 238.303,132.659 239.430,132.859 239.955 C 133.059 240.481,133.301 240.832,133.397 240.736 C 133.555 240.578,131.717 235.633,131.352 235.233 C 131.268 235.142,131.200 235.255,131.200 235.484 M266.363 240.735 L 265.922 242.000 199.994 242.000 C 155.369 242.000,134.001 241.868,133.863 241.590 C 133.751 241.365,133.706 241.410,133.763 241.690 C 133.846 242.100,146.771 242.220,199.922 242.301 L 265.978 242.402 266.619 241.164 C 266.971 240.483,267.157 239.823,267.031 239.698 C 266.906 239.573,266.605 240.039,266.363 240.735 " stroke="none" fill="#866c39" fill-rule="evenodd"></path><path id="path4" d="M199.100 137.882 C 199.595 137.978,200.405 137.978,200.900 137.882 C 201.395 137.787,200.990 137.709,200.000 137.709 C 199.010 137.709,198.605 137.787,199.100 137.882 M189.646 138.363 C 189.307 138.578,189.851 138.632,191.046 138.504 C 192.121 138.388,193.075 138.228,193.167 138.147 C 193.529 137.828,190.165 138.035,189.646 138.363 M206.833 138.147 C 206.925 138.228,207.879 138.388,208.954 138.504 C 210.149 138.632,210.693 138.578,210.354 138.363 C 209.835 138.035,206.471 137.828,206.833 138.147 M185.200 139.218 C 184.762 139.515,184.924 139.552,185.800 139.356 C 187.271 139.027,187.590 138.798,186.567 138.806 C 186.145 138.809,185.530 138.995,185.200 139.218 M212.833 138.944 C 212.925 139.023,213.540 139.208,214.200 139.356 C 215.076 139.552,215.238 139.515,214.800 139.218 C 214.260 138.853,212.432 138.598,212.833 138.944 M161.200 148.800 C 160.210 149.458,159.539 149.997,159.709 149.998 C 160.057 150.000,163.200 147.974,163.200 147.747 C 163.200 147.492,163.042 147.575,161.200 148.800 M237.600 148.364 C 238.150 148.814,238.780 149.183,239.000 149.185 C 239.428 149.188,238.705 148.634,237.400 147.960 C 236.869 147.685,236.936 147.821,237.600 148.364 M155.985 152.429 L 154.600 153.658 156.100 152.581 C 157.426 151.630,157.857 151.200,157.485 151.200 C 157.422 151.200,156.747 151.753,155.985 152.429 M198.400 154.395 C 197.991 154.655,198.310 154.699,199.400 154.532 C 201.377 154.229,201.714 153.998,200.167 154.006 C 199.525 154.009,198.730 154.184,198.400 154.395 M148.191 159.300 L 145.000 162.600 148.300 159.409 C 150.115 157.655,151.600 156.170,151.600 156.109 C 151.600 155.818,151.154 156.235,148.191 159.300 M249.800 157.600 C 250.659 158.480,251.452 159.200,251.562 159.200 C 251.672 159.200,251.059 158.480,250.200 157.600 C 249.341 156.720,248.548 156.000,248.438 156.000 C 248.328 156.000,248.941 156.720,249.800 157.600 M253.583 161.300 C 255.241 163.066,255.600 163.384,255.600 163.083 C 255.600 163.019,254.745 162.164,253.700 161.183 L 251.800 159.400 253.583 161.300 M212.433 162.500 C 212.525 162.555,213.140 163.050,213.800 163.600 L 215.000 164.600 214.030 163.500 C 213.497 162.895,212.882 162.400,212.664 162.400 C 212.445 162.400,212.342 162.445,212.433 162.500 M183.375 165.700 L 182.200 167.000 183.500 165.825 C 184.712 164.730,184.984 164.400,184.675 164.400 C 184.606 164.400,184.021 164.985,183.375 165.700 M218.469 167.476 C 220.713 169.289,221.117 169.475,219.418 167.912 C 218.528 167.094,217.651 166.419,217.469 166.412 C 217.287 166.405,217.737 166.884,218.469 167.476 M136.214 174.635 C 135.841 175.204,135.605 175.738,135.689 175.822 C 135.773 175.907,136.158 175.441,136.544 174.788 C 137.406 173.328,137.148 173.209,136.214 174.635 M211.233 180.900 C 211.325 180.955,211.940 181.450,212.600 182.000 L 213.800 183.000 212.830 181.900 C 212.297 181.295,211.682 180.800,211.464 180.800 C 211.245 180.800,211.142 180.845,211.233 180.900 M182.278 185.813 C 181.660 186.356,181.314 186.800,181.508 186.800 C 181.702 186.800,182.283 186.350,182.800 185.800 C 183.995 184.528,183.731 184.534,182.278 185.813 M162.400 191.464 C 162.400 191.682,162.895 192.297,163.500 192.830 L 164.600 193.800 163.600 192.600 C 163.050 191.940,162.555 191.325,162.500 191.233 C 162.445 191.142,162.400 191.245,162.400 191.464 M166.800 194.800 C 167.130 195.013,167.670 195.188,168.000 195.188 C 168.533 195.188,168.533 195.145,168.000 194.800 C 167.670 194.587,167.130 194.412,166.800 194.412 C 166.267 194.412,166.267 194.455,166.800 194.800 M229.200 194.800 C 229.530 195.013,230.070 195.188,230.400 195.188 C 230.933 195.188,230.933 195.145,230.400 194.800 C 230.070 194.587,229.530 194.412,229.200 194.412 C 228.667 194.412,228.667 194.455,229.200 194.800 M232.000 194.800 C 231.176 195.064,231.141 195.126,231.800 195.154 C 232.240 195.173,232.870 195.013,233.200 194.800 C 233.901 194.347,233.414 194.347,232.000 194.800 M127.449 199.415 C 127.312 199.773,127.215 200.366,127.234 200.733 C 127.253 201.100,127.427 200.869,127.621 200.220 C 127.998 198.958,127.865 198.333,127.449 199.415 M273.000 211.205 C 273.000 214.530,273.117 216.834,273.260 216.325 C 273.403 215.816,273.520 213.510,273.520 211.200 C 273.520 208.890,273.403 206.586,273.260 206.080 C 273.117 205.573,273.000 207.880,273.000 211.205 M126.652 206.500 C 126.328 207.710,126.387 214.825,126.728 215.685 C 126.878 216.062,127.000 213.947,127.000 210.985 C 127.000 205.133,127.004 205.186,126.652 206.500 M127.206 221.833 C 127.209 222.255,127.395 222.870,127.618 223.200 C 127.915 223.638,127.952 223.476,127.756 222.600 C 127.427 221.129,127.198 220.810,127.206 221.833 M272.250 222.450 C 272.109 223.153,272.069 223.802,272.159 223.892 C 272.250 223.983,272.448 223.491,272.600 222.800 C 272.752 222.109,272.793 221.459,272.691 221.358 C 272.589 221.256,272.391 221.747,272.250 222.450 M193.600 222.664 C 193.600 222.882,194.095 223.497,194.700 224.030 L 195.800 225.000 194.800 223.800 C 194.250 223.140,193.755 222.525,193.700 222.433 C 193.645 222.342,193.600 222.445,193.600 222.664 M268.067 237.980 C 267.833 238.651,267.727 239.200,267.831 239.200 C 268.101 239.200,268.856 237.122,268.657 236.924 C 268.567 236.833,268.301 237.308,268.067 237.980 M167.068 242.700 C 185.146 242.758,214.846 242.758,233.068 242.700 C 251.291 242.642,236.500 242.595,200.200 242.595 C 163.900 242.595,148.991 242.642,167.068 242.700 " stroke="none" fill="#3c2e1c" fill-rule="evenodd"></path></g></svg>