<svg id="svg" version="1.1" xmlns="http://www.w3.org/2000/svg" xmlns:xlink="http://www.w3.org/1999/xlink" width="400" height="400" viewBox="0, 0, 400,400"><g id="svgg"><path id="path0" d="M193.000 138.781 C 192.340 138.959,191.038 139.127,190.106 139.153 C 186.841 139.244,178.574 141.457,172.600 143.839 C 160.880 148.513,148.533 158.137,141.605 168.000 C 141.064 168.770,140.302 169.749,139.911 170.175 C 139.520 170.602,139.200 171.172,139.200 171.442 C 139.200 171.712,139.058 171.993,138.885 172.067 C 137.504 172.651,132.342 183.921,130.304 190.800 C 129.340 194.054,128.991 195.621,128.031 201.024 C 127.479 204.127,127.471 217.934,128.018 221.033 C 129.303 228.304,130.557 232.972,132.656 238.300 L 134.114 242.000 199.982 242.000 L 265.850 242.000 266.775 239.900 C 274.155 223.147,274.479 201.748,267.615 184.400 C 263.346 173.612,255.023 162.125,246.600 155.397 C 245.500 154.519,244.510 153.690,244.400 153.556 C 243.669 152.663,235.686 147.764,232.111 146.015 C 227.622 143.818,227.109 143.593,224.800 142.800 C 224.030 142.536,223.040 142.178,222.600 142.005 C 221.215 141.461,216.461 140.264,213.200 139.637 C 208.328 138.700,195.332 138.149,193.000 138.781 M202.440 154.055 C 207.984 155.911,207.988 155.931,208.103 180.668 L 208.200 201.536 211.400 198.928 C 213.160 197.494,215.052 195.933,215.604 195.460 C 216.156 194.987,217.596 193.791,218.804 192.802 C 220.012 191.813,221.204 190.823,221.453 190.602 C 226.397 186.217,228.230 185.204,231.222 185.202 C 235.973 185.199,239.200 188.353,239.200 193.000 C 239.200 196.682,237.883 198.316,229.594 204.917 C 228.626 205.688,224.702 208.920,223.604 209.851 C 221.787 211.392,213.062 218.565,209.800 221.201 C 208.040 222.623,206.289 224.069,205.910 224.414 C 202.328 227.669,197.325 227.498,193.658 223.996 C 193.076 223.440,192.223 222.718,191.763 222.392 C 191.302 222.067,190.132 221.142,189.163 220.337 C 188.193 219.532,186.050 217.760,184.400 216.398 C 182.750 215.037,180.948 213.535,180.396 213.061 C 179.844 212.588,178.404 211.391,177.196 210.402 C 175.988 209.413,174.795 208.423,174.545 208.202 C 174.294 207.981,173.754 207.530,173.344 207.200 C 160.328 196.719,158.797 194.390,161.621 189.363 C 164.930 183.472,170.041 183.519,177.321 189.510 C 179.119 190.989,180.928 192.470,181.340 192.800 C 181.752 193.130,182.294 193.581,182.545 193.802 C 182.795 194.023,183.990 195.010,185.200 195.996 C 186.410 196.982,187.490 197.884,187.600 198.000 C 187.710 198.116,188.745 198.990,189.900 199.943 L 192.000 201.674 192.000 180.675 C 192.000 159.690,192.001 159.674,192.896 157.996 C 194.748 154.527,198.823 152.844,202.440 154.055 " stroke="none" fill="#fbcb6b" fill-rule="evenodd"></path><path id="path1" d="M198.200 63.200 C 198.064 63.420,197.423 63.600,196.776 63.600 C 196.129 63.600,195.600 63.750,195.600 63.932 C 195.600 64.115,195.194 64.482,194.697 64.748 C 194.200 65.014,193.345 65.886,192.797 66.686 L 191.800 68.140 191.673 84.370 C 191.534 102.116,191.612 102.900,193.733 105.119 C 197.130 108.673,203.672 108.552,206.566 104.882 C 208.418 102.534,208.400 102.732,208.400 85.234 L 208.400 68.560 207.330 66.910 C 206.742 66.003,205.842 65.036,205.330 64.763 C 204.819 64.489,204.400 64.115,204.400 63.932 C 204.400 63.750,203.871 63.600,203.224 63.600 C 202.577 63.600,201.936 63.420,201.800 63.200 C 201.664 62.980,200.854 62.800,200.000 62.800 C 199.146 62.800,198.336 62.980,198.200 63.200 M96.892 105.200 C 96.420 105.640,95.861 106.000,95.649 106.000 C 95.044 106.000,93.446 108.822,92.932 110.800 C 91.804 115.145,92.497 116.166,105.029 128.600 C 117.810 141.280,116.648 140.400,120.590 140.400 C 124.764 140.400,128.400 138.075,128.400 135.405 C 128.400 135.072,128.580 134.800,128.800 134.800 C 130.655 134.800,128.614 126.886,126.371 125.383 C 125.728 124.952,125.202 124.466,125.201 124.303 C 125.200 124.085,112.624 111.415,109.158 108.141 C 108.960 107.953,108.276 107.215,107.638 106.500 C 107.001 105.785,106.191 105.200,105.840 105.200 C 105.488 105.200,105.200 105.020,105.200 104.800 C 105.200 103.962,97.841 104.316,96.892 105.200 M294.800 104.800 C 294.800 105.020,294.480 105.200,294.088 105.200 C 293.697 105.200,293.112 105.586,292.788 106.057 C 292.465 106.528,291.790 107.293,291.288 107.757 C 289.363 109.536,275.759 123.114,274.981 124.033 C 274.531 124.565,273.588 125.450,272.885 126.000 C 272.182 126.550,271.606 127.304,271.604 127.676 C 271.602 128.048,271.420 128.464,271.200 128.600 C 270.980 128.736,270.800 130.187,270.800 131.824 C 270.800 133.541,270.969 134.800,271.200 134.800 C 271.420 134.800,271.600 135.072,271.600 135.405 C 271.600 138.060,275.238 140.400,279.365 140.400 C 281.883 140.400,284.000 139.823,284.000 139.136 C 284.000 138.951,284.202 138.800,284.449 138.800 C 285.002 138.800,304.735 119.063,305.844 117.400 C 307.003 115.663,307.770 112.264,307.230 111.255 C 306.993 110.814,306.800 110.167,306.800 109.818 C 306.800 109.040,304.833 106.000,304.330 106.000 C 304.130 106.000,303.580 105.640,303.108 105.200 C 302.159 104.316,294.800 103.962,294.800 104.800 M194.400 122.000 C 194.400 122.240,192.800 122.400,190.400 122.400 C 188.000 122.400,186.400 122.560,186.400 122.800 C 186.400 123.020,185.410 123.200,184.200 123.200 C 182.990 123.200,182.000 123.380,182.000 123.600 C 182.000 123.820,181.190 124.000,180.200 124.000 C 179.210 124.000,178.400 124.180,178.400 124.400 C 178.400 124.620,177.881 124.800,177.246 124.800 C 176.059 124.800,172.340 125.791,171.105 126.437 C 170.723 126.637,169.958 126.800,169.405 126.800 C 168.852 126.800,168.400 126.980,168.400 127.200 C 168.400 127.420,168.051 127.600,167.624 127.600 C 167.197 127.600,166.736 127.780,166.600 128.000 C 166.464 128.220,165.913 128.400,165.376 128.400 C 164.839 128.400,164.400 128.580,164.400 128.800 C 164.400 129.020,164.040 129.200,163.600 129.200 C 163.160 129.200,162.800 129.380,162.800 129.600 C 162.800 129.820,162.440 130.000,162.000 130.000 C 161.560 130.000,161.200 130.146,161.200 130.325 C 161.200 130.504,160.570 130.898,159.800 131.200 C 159.030 131.502,158.400 131.896,158.400 132.075 C 158.400 132.254,158.040 132.400,157.600 132.400 C 157.160 132.400,156.800 132.580,156.800 132.800 C 156.800 133.020,156.440 133.200,156.000 133.200 C 155.560 133.200,155.200 133.380,155.200 133.600 C 155.200 133.820,154.880 134.000,154.488 134.000 C 154.097 134.000,153.517 134.360,153.200 134.800 C 152.883 135.240,152.343 135.600,152.000 135.600 C 151.657 135.600,151.117 135.960,150.800 136.400 C 150.483 136.840,149.943 137.200,149.600 137.200 C 149.257 137.200,148.717 137.560,148.400 138.000 C 148.083 138.440,147.575 138.800,147.272 138.800 C 146.969 138.800,146.217 139.340,145.600 140.000 C 144.983 140.660,144.373 141.200,144.243 141.200 C 143.513 141.200,130.000 154.525,130.000 155.245 C 130.000 155.484,129.460 156.183,128.800 156.800 C 128.140 157.417,127.600 158.091,127.600 158.298 C 127.600 158.506,127.284 158.962,126.899 159.311 C 126.513 159.660,125.673 160.947,125.032 162.173 C 124.391 163.398,123.717 164.400,123.533 164.400 C 123.350 164.400,123.200 164.760,123.200 165.200 C 123.200 165.640,123.020 166.000,122.800 166.000 C 122.580 166.000,122.400 166.320,122.400 166.712 C 122.400 167.103,122.040 167.683,121.600 168.000 C 121.160 168.317,120.800 168.897,120.800 169.288 C 120.800 169.680,120.620 170.000,120.400 170.000 C 120.180 170.000,120.000 170.360,120.000 170.800 C 120.000 171.240,119.820 171.600,119.600 171.600 C 119.380 171.600,119.200 171.949,119.200 172.376 C 119.200 172.803,119.020 173.264,118.800 173.400 C 118.580 173.536,118.400 174.087,118.400 174.624 C 118.400 175.161,118.265 175.601,118.100 175.603 C 117.694 175.607,116.800 177.586,116.800 178.480 C 116.800 178.876,116.620 179.200,116.400 179.200 C 116.180 179.200,116.000 179.549,116.000 179.976 C 116.000 180.403,115.820 180.864,115.600 181.000 C 115.380 181.136,115.200 181.676,115.200 182.200 C 115.200 182.724,115.020 183.264,114.800 183.400 C 114.580 183.536,114.400 184.267,114.400 185.024 C 114.400 185.781,114.220 186.400,114.000 186.400 C 113.780 186.400,113.600 186.929,113.600 187.576 C 113.600 188.223,113.420 188.864,113.200 189.000 C 112.980 189.136,112.800 189.946,112.800 190.800 C 112.800 191.654,112.620 192.464,112.400 192.600 C 112.180 192.736,112.000 193.636,112.000 194.600 C 112.000 195.564,111.820 196.464,111.600 196.600 C 111.380 196.736,111.200 198.331,111.200 200.144 C 111.200 201.957,111.012 203.628,110.782 203.858 C 110.087 204.553,110.872 225.200,111.592 225.200 C 111.776 225.200,112.027 226.145,112.150 227.300 C 112.623 231.737,112.893 233.200,113.240 233.200 C 113.438 233.200,113.600 233.819,113.600 234.576 C 113.600 235.333,113.780 236.064,114.000 236.200 C 114.220 236.336,114.400 236.876,114.400 237.400 C 114.400 237.924,114.580 238.464,114.800 238.600 C 115.020 238.736,115.200 239.251,115.200 239.744 C 115.200 240.237,115.416 240.856,115.680 241.120 C 116.053 241.493,104.058 241.600,61.700 241.600 C 2.601 241.600,4.299 241.536,1.768 243.855 L 0.226 245.268 0.067 249.223 C -0.152 254.668,0.267 255.748,3.400 257.810 C 4.907 258.802,311.570 259.090,311.900 258.100 C 311.992 257.825,312.277 257.600,312.533 257.600 C 313.171 257.599,315.200 255.814,315.200 255.253 C 315.200 255.004,315.380 254.800,315.600 254.800 C 315.820 254.800,316.000 254.350,316.000 253.800 C 316.000 253.250,316.180 252.800,316.400 252.800 C 316.625 252.800,316.800 251.675,316.800 250.224 C 316.800 248.807,316.620 247.536,316.400 247.400 C 316.180 247.264,316.000 246.803,316.000 246.376 C 316.000 245.949,315.820 245.600,315.600 245.600 C 315.380 245.600,315.200 245.370,315.200 245.088 C 315.200 244.807,314.818 244.312,314.351 243.988 C 313.884 243.665,313.236 243.144,312.910 242.830 C 311.898 241.857,309.013 241.648,296.220 241.624 C 286.591 241.605,283.947 241.493,284.320 241.120 C 284.584 240.856,284.800 240.237,284.800 239.744 C 284.800 239.251,284.980 238.736,285.200 238.600 C 285.420 238.464,285.600 237.924,285.600 237.400 C 285.600 236.876,285.780 236.336,286.000 236.200 C 286.220 236.064,286.400 235.333,286.400 234.576 C 286.400 233.819,286.580 233.200,286.800 233.200 C 287.020 233.200,287.200 232.401,287.200 231.424 C 287.200 230.447,287.380 229.536,287.600 229.400 C 287.820 229.264,288.000 228.263,288.000 227.176 C 288.000 226.089,288.180 225.200,288.400 225.200 C 288.633 225.200,288.800 223.875,288.800 222.024 C 288.800 220.277,288.980 218.736,289.200 218.600 C 289.443 218.450,289.600 215.537,289.600 211.200 C 289.600 206.863,289.443 203.950,289.200 203.800 C 288.980 203.664,288.800 202.044,288.800 200.200 C 288.800 198.356,288.620 196.736,288.400 196.600 C 288.180 196.464,288.000 195.553,288.000 194.576 C 288.000 193.599,287.838 192.800,287.640 192.800 C 287.442 192.800,287.181 192.035,287.059 191.100 C 286.620 187.737,286.306 186.400,285.956 186.400 C 285.760 186.400,285.600 185.781,285.600 185.024 C 285.600 184.267,285.420 183.536,285.200 183.400 C 284.980 183.264,284.800 182.724,284.800 182.200 C 284.800 181.676,284.620 181.136,284.400 181.000 C 284.180 180.864,284.000 180.403,284.000 179.976 C 284.000 179.549,283.820 179.200,283.600 179.200 C 283.380 179.200,283.200 178.876,283.200 178.480 C 283.200 177.586,282.306 175.607,281.900 175.603 C 281.735 175.601,281.600 175.161,281.600 174.624 C 281.600 174.087,281.420 173.536,281.200 173.400 C 280.980 173.264,280.800 172.803,280.800 172.376 C 280.800 171.949,280.620 171.600,280.400 171.600 C 280.180 171.600,280.000 171.240,280.000 170.800 C 280.000 170.360,279.820 170.000,279.600 170.000 C 279.380 170.000,279.200 169.764,279.200 169.475 C 279.200 169.187,278.840 168.564,278.400 168.092 C 277.960 167.620,277.600 166.956,277.600 166.617 C 277.600 166.278,277.420 166.000,277.200 166.000 C 276.980 166.000,276.800 165.680,276.800 165.288 C 276.800 164.897,276.440 164.317,276.000 164.000 C 275.560 163.683,275.200 163.190,275.200 162.904 C 275.200 162.618,274.705 161.641,274.100 160.732 C 273.495 159.824,272.820 158.798,272.600 158.452 C 272.380 158.107,271.705 157.342,271.100 156.752 C 270.495 156.162,270.000 155.487,270.000 155.252 C 270.000 154.587,256.451 141.200,255.777 141.200 C 255.636 141.200,255.017 140.660,254.400 140.000 C 253.783 139.340,253.057 138.800,252.786 138.800 C 252.516 138.800,252.003 138.484,251.647 138.097 C 251.291 137.711,250.505 137.140,249.900 136.830 C 249.295 136.519,248.800 136.115,248.800 135.932 C 248.800 135.750,248.480 135.600,248.088 135.600 C 247.697 135.600,247.117 135.240,246.800 134.800 C 246.483 134.360,245.903 134.000,245.512 134.000 C 245.120 134.000,244.800 133.820,244.800 133.600 C 244.800 133.380,244.440 133.200,244.000 133.200 C 243.560 133.200,243.200 133.020,243.200 132.800 C 243.200 132.580,242.840 132.400,242.400 132.400 C 241.960 132.400,241.600 132.220,241.600 132.000 C 241.600 131.780,241.330 131.600,241.000 131.600 C 240.670 131.600,240.399 131.465,240.397 131.300 C 240.393 130.941,238.456 130.000,237.720 130.000 C 237.434 130.000,237.200 129.820,237.200 129.600 C 237.200 129.380,236.840 129.200,236.400 129.200 C 235.960 129.200,235.600 129.053,235.600 128.872 C 235.600 128.692,234.700 128.300,233.600 128.000 C 232.500 127.700,231.600 127.308,231.600 127.128 C 231.600 126.947,231.148 126.800,230.595 126.800 C 230.042 126.800,229.277 126.637,228.895 126.437 C 227.660 125.791,223.941 124.800,222.754 124.800 C 222.119 124.800,221.600 124.620,221.600 124.400 C 221.600 124.180,220.790 124.000,219.800 124.000 C 218.810 124.000,218.000 123.820,218.000 123.600 C 218.000 123.380,217.010 123.200,215.800 123.200 C 214.590 123.200,213.600 123.020,213.600 122.800 C 213.600 122.560,212.000 122.400,209.600 122.400 C 207.200 122.400,205.600 122.240,205.600 122.000 C 205.600 121.752,203.467 121.600,200.000 121.600 C 196.533 121.600,194.400 121.752,194.400 122.000 M209.800 138.265 C 210.240 138.384,211.500 138.634,212.600 138.819 C 215.235 139.265,217.829 139.834,219.800 140.398 C 220.680 140.650,221.808 140.955,222.306 141.076 C 222.804 141.197,223.310 141.454,223.430 141.648 C 223.549 141.841,223.999 142.000,224.429 142.000 C 224.859 142.000,225.523 142.159,225.905 142.353 C 226.287 142.548,227.050 142.886,227.600 143.106 C 232.150 144.923,242.845 150.960,244.000 152.362 C 244.110 152.496,245.043 153.234,246.074 154.003 C 249.396 156.479,257.530 165.020,259.120 167.700 C 259.479 168.305,259.914 168.800,260.086 168.800 C 260.259 168.800,260.400 169.070,260.400 169.400 C 260.400 169.730,260.550 170.000,260.732 170.000 C 260.915 170.000,261.315 170.495,261.620 171.100 C 261.926 171.705,262.642 172.920,263.212 173.800 C 265.975 178.065,270.137 188.099,271.255 193.191 C 273.711 204.373,273.998 216.148,272.036 225.200 C 271.822 226.190,271.454 227.900,271.220 229.000 C 270.650 231.669,268.923 236.901,267.749 239.512 C 267.227 240.673,266.800 241.779,266.800 241.969 C 266.800 242.159,266.515 242.424,266.167 242.557 C 265.321 242.882,135.050 242.871,134.204 242.546 C 133.020 242.092,130.511 235.677,128.748 228.600 C 126.366 219.035,126.055 206.757,127.957 197.400 C 128.180 196.300,128.526 194.590,128.726 193.600 C 129.744 188.540,134.186 177.702,136.871 173.728 C 137.492 172.808,138.000 171.891,138.000 171.690 C 138.000 171.489,138.360 170.998,138.800 170.600 C 139.240 170.202,139.600 169.634,139.600 169.338 C 139.600 169.042,139.741 168.800,139.914 168.800 C 140.086 168.800,140.521 168.305,140.880 167.700 C 145.779 159.440,160.602 147.876,172.400 143.111 C 172.950 142.888,173.713 142.548,174.095 142.353 C 174.477 142.159,175.141 142.000,175.571 142.000 C 176.001 142.000,176.464 141.820,176.600 141.600 C 176.736 141.380,177.276 141.200,177.800 141.200 C 178.324 141.200,178.851 141.041,178.971 140.846 C 179.092 140.651,179.687 140.390,180.295 140.264 C 180.903 140.139,182.300 139.838,183.400 139.597 C 187.792 138.632,189.986 138.318,194.200 138.048 C 198.776 137.755,208.409 137.889,209.800 138.265 M197.400 154.997 C 192.576 156.690,192.400 157.643,192.400 181.994 C 192.400 193.217,192.265 202.400,192.100 202.400 C 191.935 202.399,190.450 201.297,188.800 199.951 C 187.150 198.604,185.106 196.939,184.258 196.251 C 183.409 195.563,182.221 194.550,181.617 194.000 C 181.013 193.450,179.923 192.550,179.196 192.000 C 178.468 191.450,177.677 190.812,177.437 190.581 C 171.912 185.284,167.016 184.356,163.600 187.960 C 159.668 192.107,160.843 196.263,167.400 201.405 C 168.500 202.267,169.490 203.071,169.600 203.192 C 169.710 203.312,170.790 204.215,172.000 205.198 C 173.210 206.181,174.470 207.259,174.800 207.593 C 175.131 207.927,176.211 208.828,177.200 209.594 C 179.803 211.611,180.362 212.061,181.963 213.424 C 182.753 214.098,185.380 216.253,187.800 218.213 C 190.220 220.174,192.470 222.061,192.800 222.408 C 193.130 222.754,194.030 223.471,194.800 224.000 C 195.570 224.529,196.290 225.078,196.400 225.221 C 197.194 226.251,202.806 226.251,203.600 225.221 C 203.710 225.078,204.430 224.526,205.200 223.994 C 205.970 223.462,206.829 222.804,207.110 222.532 C 207.390 222.260,208.470 221.354,209.510 220.519 C 210.549 219.683,211.490 218.903,211.600 218.784 C 211.710 218.665,213.780 216.957,216.200 214.989 C 218.620 213.021,220.841 211.181,221.135 210.899 C 221.429 210.618,222.329 209.898,223.135 209.298 C 223.941 208.699,224.870 207.930,225.200 207.589 C 225.530 207.249,228.175 205.038,231.078 202.678 C 239.430 195.886,240.668 192.462,236.400 187.960 C 232.866 184.232,229.248 184.925,222.600 190.603 C 221.720 191.355,219.110 193.521,216.800 195.418 C 214.490 197.315,211.711 199.617,210.625 200.533 C 209.538 201.450,208.458 202.200,208.225 202.200 C 207.933 202.200,207.734 195.675,207.589 181.400 C 207.473 169.960,207.223 160.150,207.034 159.600 C 205.645 155.562,201.472 153.567,197.400 154.997 M56.800 203.132 C 56.800 203.315,56.305 203.720,55.700 204.032 C 54.209 204.802,53.600 205.422,53.600 206.171 C 53.600 206.517,53.420 206.800,53.200 206.800 C 52.980 206.800,52.800 207.160,52.800 207.600 C 52.800 208.040,52.620 208.400,52.400 208.400 C 52.174 208.400,52.000 209.533,52.000 211.000 C 52.000 212.467,52.174 213.600,52.400 213.600 C 52.620 213.600,52.800 214.015,52.800 214.522 C 52.800 215.604,55.218 218.400,56.154 218.400 C 56.509 218.400,56.800 218.580,56.800 218.800 C 56.800 219.020,57.149 219.200,57.576 219.200 C 58.003 219.200,58.464 219.380,58.600 219.600 C 58.758 219.855,64.396 220.000,74.200 220.000 C 84.004 220.000,89.642 219.855,89.800 219.600 C 89.936 219.380,90.458 219.200,90.960 219.200 C 92.026 219.200,95.600 215.996,95.600 215.040 C 95.600 214.688,95.780 214.400,96.000 214.400 C 96.231 214.400,96.400 213.133,96.400 211.400 C 96.400 209.667,96.231 208.400,96.000 208.400 C 95.780 208.400,95.600 208.128,95.600 207.795 C 95.600 206.458,93.295 203.600,92.218 203.600 C 91.878 203.600,91.600 203.420,91.600 203.200 C 91.600 202.939,85.533 202.800,74.200 202.800 C 64.630 202.800,56.800 202.950,56.800 203.132 M308.400 203.200 C 308.400 203.420,308.109 203.600,307.754 203.600 C 306.818 203.600,304.400 206.396,304.400 207.478 C 304.400 207.985,304.220 208.400,304.000 208.400 C 303.769 208.400,303.600 209.667,303.600 211.400 C 303.600 213.133,303.769 214.400,304.000 214.400 C 304.220 214.400,304.400 214.688,304.400 215.040 C 304.400 215.996,307.974 219.200,309.040 219.200 C 309.542 219.200,310.064 219.380,310.200 219.600 C 310.945 220.806,343.200 219.929,343.200 218.703 C 343.200 218.536,343.491 218.400,343.846 218.400 C 344.782 218.400,347.200 215.604,347.200 214.522 C 347.200 214.015,347.380 213.600,347.600 213.600 C 347.826 213.600,348.000 212.467,348.000 211.000 C 348.000 209.533,347.826 208.400,347.600 208.400 C 347.380 208.400,347.200 208.040,347.200 207.600 C 347.200 207.160,347.020 206.800,346.800 206.800 C 346.580 206.800,346.400 206.517,346.400 206.171 C 346.400 205.422,345.791 204.802,344.300 204.032 C 343.695 203.720,343.200 203.315,343.200 203.132 C 343.200 202.950,335.370 202.800,325.800 202.800 C 314.467 202.800,308.400 202.939,308.400 203.200 M336.600 241.971 C 334.171 242.558,331.600 244.906,331.600 246.538 C 331.600 246.902,331.420 247.200,331.200 247.200 C 329.317 247.200,331.284 254.703,333.739 256.882 C 335.801 258.712,342.620 259.521,343.133 257.996 C 343.207 257.778,343.530 257.600,343.852 257.600 C 344.522 257.600,346.400 255.845,346.400 255.218 C 346.400 254.988,346.580 254.800,346.800 254.800 C 347.020 254.800,347.200 254.350,347.200 253.800 C 347.200 253.250,347.380 252.800,347.600 252.800 C 347.825 252.800,348.000 251.675,348.000 250.224 C 348.000 248.807,347.820 247.536,347.600 247.400 C 347.380 247.264,347.200 246.803,347.200 246.376 C 347.200 245.949,347.020 245.600,346.800 245.600 C 346.580 245.600,346.400 245.370,346.400 245.088 C 346.400 244.807,346.018 244.312,345.551 243.988 C 345.084 243.665,344.440 243.148,344.120 242.841 C 343.057 241.819,339.119 241.364,336.600 241.971 M367.800 241.971 C 365.371 242.558,362.800 244.906,362.800 246.538 C 362.800 246.902,362.620 247.200,362.400 247.200 C 361.794 247.200,361.919 252.109,362.565 253.651 C 363.248 255.283,364.145 256.319,366.000 257.619 L 367.400 258.600 381.400 258.600 C 396.809 258.600,396.309 258.675,398.710 256.010 C 399.956 254.628,400.097 253.851,399.938 249.266 L 399.800 245.289 398.245 243.866 C 397.211 242.919,396.033 242.302,394.725 242.021 C 392.524 241.549,369.725 241.507,367.800 241.971 M32.400 281.200 C 32.400 281.420,32.124 281.600,31.787 281.600 C 30.991 281.600,28.400 284.191,28.400 284.987 C 28.400 285.324,28.220 285.600,28.000 285.600 C 27.164 285.600,27.517 292.745,28.400 293.692 C 28.840 294.164,29.200 294.787,29.200 295.075 C 29.200 295.364,29.470 295.600,29.800 295.600 C 30.130 295.600,30.400 295.780,30.400 296.000 C 30.400 296.220,30.670 296.400,31.000 296.400 C 31.330 296.400,31.600 296.580,31.600 296.800 C 31.600 297.020,32.140 297.200,32.800 297.200 C 33.460 297.200,34.000 297.380,34.000 297.600 C 34.000 297.865,55.733 298.000,98.400 298.000 C 141.067 298.000,162.800 297.865,162.800 297.600 C 162.800 297.380,163.340 297.200,164.000 297.200 C 164.660 297.200,165.200 297.064,165.200 296.898 C 165.200 296.731,165.730 296.361,166.377 296.074 C 167.024 295.788,167.788 295.024,168.074 294.377 C 168.361 293.730,168.731 293.200,168.898 293.200 C 169.416 293.200,169.241 286.060,168.700 285.120 C 167.891 283.714,165.677 281.600,165.013 281.600 C 164.676 281.600,164.400 281.420,164.400 281.200 C 164.400 280.935,142.133 280.800,98.400 280.800 C 54.667 280.800,32.400 280.935,32.400 281.200 M235.600 281.200 C 235.600 281.420,235.324 281.600,234.987 281.600 C 234.649 281.600,233.749 282.224,232.987 282.987 C 232.224 283.749,231.600 284.649,231.600 284.987 C 231.600 285.324,231.420 285.600,231.200 285.600 C 230.961 285.600,230.800 287.133,230.800 289.400 C 230.800 291.490,230.958 293.200,231.151 293.200 C 231.345 293.200,231.724 293.733,231.994 294.385 C 232.264 295.037,233.006 295.801,233.642 296.083 C 234.279 296.365,234.800 296.731,234.800 296.898 C 234.800 297.064,235.340 297.200,236.000 297.200 C 236.660 297.200,237.200 297.380,237.200 297.600 C 237.200 297.865,258.933 298.000,301.600 298.000 C 344.267 298.000,366.000 297.865,366.000 297.600 C 366.000 297.380,366.540 297.200,367.200 297.200 C 367.860 297.200,368.400 297.020,368.400 296.800 C 368.400 296.580,368.670 296.400,369.000 296.400 C 369.330 296.400,369.600 296.220,369.600 296.000 C 369.600 295.780,369.848 295.600,370.151 295.600 C 370.455 295.600,370.927 295.060,371.200 294.400 C 371.473 293.740,371.855 293.200,372.049 293.200 C 372.242 293.200,372.400 291.490,372.400 289.400 C 372.400 287.133,372.239 285.600,372.000 285.600 C 371.780 285.600,371.600 285.324,371.600 284.987 C 371.600 284.191,369.009 281.600,368.213 281.600 C 367.876 281.600,367.600 281.420,367.600 281.200 C 367.600 280.935,345.333 280.800,301.600 280.800 C 257.867 280.800,235.600 280.935,235.600 281.200 M138.000 320.400 C 138.000 320.620,137.724 320.800,137.387 320.800 C 136.591 320.800,134.000 323.391,134.000 324.187 C 134.000 324.524,133.820 324.800,133.600 324.800 C 132.764 324.800,133.117 331.945,134.000 332.892 C 134.440 333.364,134.800 333.972,134.800 334.242 C 134.800 334.512,135.340 334.972,136.000 335.264 C 136.660 335.556,137.200 335.931,137.200 336.098 C 137.200 336.264,137.740 336.400,138.400 336.400 C 139.060 336.400,139.600 336.580,139.600 336.800 C 139.600 337.065,160.000 337.200,200.000 337.200 C 240.000 337.200,260.400 337.065,260.400 336.800 C 260.400 336.580,260.940 336.400,261.600 336.400 C 262.260 336.400,262.800 336.264,262.800 336.098 C 262.800 335.931,263.340 335.556,264.000 335.264 C 264.660 334.972,265.200 334.478,265.200 334.166 C 265.200 333.855,265.380 333.600,265.600 333.600 C 265.820 333.600,266.000 333.330,266.000 333.000 C 266.000 332.670,266.180 332.400,266.400 332.400 C 266.993 332.400,266.906 325.374,266.300 324.320 C 265.491 322.914,263.277 320.800,262.613 320.800 C 262.276 320.800,262.000 320.620,262.000 320.400 C 262.000 320.135,241.067 320.000,200.000 320.000 C 158.933 320.000,138.000 320.135,138.000 320.400 " stroke="none" fill="#040404" fill-rule="evenodd"></path><path id="path2" d="M193.900 138.282 C 194.395 138.378,195.205 138.378,195.700 138.282 C 196.195 138.187,195.790 138.109,194.800 138.109 C 193.810 138.109,193.405 138.187,193.900 138.282 M204.300 138.282 C 204.795 138.378,205.605 138.378,206.100 138.282 C 206.595 138.187,206.190 138.109,205.200 138.109 C 204.210 138.109,203.805 138.187,204.300 138.282 M151.375 156.500 L 150.200 157.800 151.500 156.625 C 152.215 155.979,152.800 155.394,152.800 155.325 C 152.800 155.016,152.470 155.288,151.375 156.500 M207.786 181.800 C 207.786 192.800,207.837 197.242,207.900 191.672 C 207.963 186.102,207.962 177.102,207.900 171.672 C 207.837 166.242,207.785 170.800,207.786 181.800 M167.900 185.482 C 168.395 185.578,169.205 185.578,169.700 185.482 C 170.195 185.387,169.790 185.309,168.800 185.309 C 167.810 185.309,167.405 185.387,167.900 185.482 M230.300 185.482 C 230.795 185.578,231.605 185.578,232.100 185.482 C 232.595 185.387,232.190 185.309,231.200 185.309 C 230.210 185.309,229.805 185.387,230.300 185.482 M272.920 208.800 C 272.920 210.010,272.995 210.505,273.087 209.900 C 273.178 209.295,273.178 208.305,273.087 207.700 C 272.995 207.095,272.920 207.590,272.920 208.800 M126.946 211.000 C 126.947 213.200,127.014 214.049,127.095 212.887 C 127.176 211.724,127.176 209.924,127.093 208.887 C 127.011 207.849,126.945 208.800,126.946 211.000 M272.914 213.400 C 272.917 214.500,272.995 214.903,273.087 214.295 C 273.179 213.686,273.177 212.786,273.082 212.295 C 272.987 211.803,272.911 212.300,272.914 213.400 " stroke="none" fill="#594825" fill-rule="evenodd"></path><path id="path3" d="M198.100 138.294 C 199.145 138.376,200.855 138.376,201.900 138.294 C 202.945 138.212,202.090 138.144,200.000 138.144 C 197.910 138.144,197.055 138.212,198.100 138.294 M190.000 138.800 L 188.600 139.095 190.200 139.100 C 191.080 139.103,192.340 138.968,193.000 138.800 L 194.200 138.495 192.800 138.500 C 192.030 138.503,190.770 138.638,190.000 138.800 M207.000 138.800 C 207.660 138.968,208.920 139.106,209.800 139.107 L 211.400 139.108 209.800 138.777 C 208.920 138.595,207.660 138.457,207.000 138.470 L 205.800 138.495 207.000 138.800 M185.200 139.600 L 184.200 139.920 185.200 139.932 C 185.750 139.938,186.560 139.789,187.000 139.600 L 187.800 139.256 187.000 139.268 C 186.560 139.274,185.750 139.424,185.200 139.600 M213.000 139.600 C 213.440 139.789,214.340 139.935,215.000 139.925 L 216.200 139.905 215.000 139.600 C 214.340 139.432,213.440 139.286,213.000 139.275 L 212.200 139.256 213.000 139.600 M181.800 140.400 L 181.000 140.744 181.800 140.766 C 182.240 140.778,182.870 140.613,183.200 140.400 C 183.995 139.886,182.996 139.886,181.800 140.400 M216.800 140.400 C 217.130 140.613,217.760 140.778,218.200 140.766 L 219.000 140.744 218.200 140.400 C 217.004 139.886,216.005 139.886,216.800 140.400 M179.000 141.200 L 178.200 141.544 179.000 141.566 C 179.440 141.578,180.070 141.413,180.400 141.200 C 181.195 140.686,180.196 140.686,179.000 141.200 M176.800 141.863 C 174.704 142.563,169.994 144.528,170.118 144.651 C 170.241 144.775,174.265 143.304,177.400 141.990 C 178.259 141.629,177.794 141.532,176.800 141.863 M222.507 141.824 C 222.855 142.191,225.589 143.193,226.200 143.178 C 226.653 143.167,224.650 142.256,223.174 141.801 C 222.638 141.636,222.338 141.646,222.507 141.824 M228.869 144.203 C 229.004 144.337,230.837 145.322,232.942 146.391 C 235.048 147.460,238.416 149.442,240.427 150.797 C 242.438 152.151,243.963 153.063,243.814 152.823 C 243.333 152.044,237.825 148.513,233.967 146.511 C 230.189 144.550,228.412 143.745,228.869 144.203 M166.617 146.204 C 165.086 146.975,163.646 147.803,163.417 148.044 C 163.188 148.284,164.485 147.720,166.300 146.790 C 169.102 145.354,170.002 144.795,169.500 144.801 C 169.445 144.802,168.148 145.433,166.617 146.204 M158.728 150.908 C 155.307 153.363,149.711 158.000,150.169 158.000 C 150.298 158.000,151.798 156.825,153.502 155.388 C 155.206 153.951,157.995 151.852,159.700 150.723 C 161.405 149.593,162.800 148.609,162.800 148.535 C 162.800 148.115,161.843 148.672,158.728 150.908 M244.403 153.477 C 244.404 153.655,244.989 154.202,245.703 154.693 C 246.416 155.184,247.575 156.129,248.278 156.793 C 248.981 157.457,249.698 158.000,249.871 158.000 C 250.045 158.000,249.214 157.145,248.025 156.100 C 245.352 153.750,244.399 153.060,244.403 153.477 M199.100 153.882 C 199.595 153.978,200.405 153.978,200.900 153.882 C 201.395 153.787,200.990 153.709,200.000 153.709 C 199.010 153.709,198.605 153.787,199.100 153.882 M196.800 154.294 C 192.042 156.123,191.986 156.438,192.093 180.538 L 192.186 201.400 192.393 180.400 C 192.537 165.836,192.741 159.094,193.060 158.400 C 193.645 157.127,195.698 155.175,197.109 154.549 C 198.196 154.067,197.940 153.855,196.800 154.294 M202.821 154.504 C 204.234 155.191,205.701 156.416,206.514 157.589 C 206.891 158.133,207.200 158.431,207.200 158.251 C 207.200 157.058,204.626 154.725,202.800 154.262 L 201.800 154.008 202.821 154.504 M146.714 161.300 C 142.490 165.981,139.679 169.600,140.266 169.600 C 140.465 169.600,140.925 169.105,141.289 168.500 C 142.381 166.684,145.665 162.838,149.118 159.332 C 149.623 158.820,149.877 158.400,149.683 158.400 C 149.489 158.400,148.153 159.705,146.714 161.300 M251.373 159.800 C 252.143 160.570,252.905 161.200,253.065 161.200 C 253.226 161.200,252.746 160.570,252.000 159.800 C 251.254 159.030,250.492 158.400,250.308 158.400 C 250.124 158.400,250.603 159.030,251.373 159.800 M207.480 160.291 C 207.790 162.300,208.000 162.461,208.000 160.690 C 208.000 159.897,207.831 159.143,207.624 159.015 C 207.399 158.876,207.341 159.391,207.480 160.291 M254.476 163.100 C 255.268 163.925,257.124 166.220,258.601 168.200 C 261.515 172.104,262.175 172.872,261.012 171.000 C 259.157 168.015,253.943 161.600,253.372 161.600 C 253.188 161.600,253.685 162.275,254.476 163.100 M137.552 173.300 C 137.290 173.795,136.815 174.650,136.496 175.200 C 135.939 176.159,135.943 176.167,136.588 175.400 C 137.386 174.452,138.505 172.400,138.224 172.400 C 138.116 172.400,137.814 172.805,137.552 173.300 M262.409 173.900 C 262.414 174.065,262.785 174.650,263.233 175.200 L 264.048 176.200 263.414 174.900 C 262.811 173.665,262.389 173.245,262.409 173.900 M135.080 177.680 C 134.692 178.356,134.457 178.991,134.558 179.091 C 134.659 179.192,135.038 178.701,135.400 178.000 C 136.257 176.343,135.997 176.083,135.080 177.680 M133.657 180.445 C 133.456 180.970,132.821 182.556,132.246 183.969 C 131.671 185.382,131.206 186.732,131.212 186.969 C 131.219 187.206,131.933 185.699,132.798 183.620 C 133.664 181.540,134.294 179.760,134.197 179.664 C 134.101 179.568,133.858 179.919,133.657 180.445 M171.855 186.043 C 172.766 186.485,174.206 187.435,175.055 188.155 C 177.437 190.172,190.521 200.856,191.222 201.356 C 193.251 202.803,186.912 197.317,182.262 193.600 C 181.849 193.270,181.306 192.819,181.055 192.597 C 176.421 188.496,171.824 185.190,170.800 185.221 C 170.470 185.232,170.945 185.601,171.855 186.043 M226.970 186.302 C 224.723 187.816,223.200 189.063,223.200 189.389 C 223.200 189.539,223.940 189.029,224.845 188.255 C 225.749 187.480,227.234 186.485,228.145 186.043 C 229.055 185.601,229.530 185.232,229.200 185.222 C 228.870 185.212,227.867 185.698,226.970 186.302 M163.040 187.440 C 162.248 188.232,161.600 189.078,161.600 189.320 C 161.600 189.587,161.718 189.610,161.901 189.380 C 162.067 189.171,162.822 188.325,163.580 187.500 C 165.337 185.586,164.938 185.542,163.040 187.440 M236.600 187.660 C 237.480 188.645,238.259 189.410,238.332 189.360 C 238.636 189.151,237.062 187.202,236.072 186.562 C 235.216 186.008,235.322 186.229,236.600 187.660 M130.044 190.245 C 129.580 191.724,129.215 193.129,129.232 193.367 C 129.250 193.605,129.700 192.465,130.233 190.834 C 130.765 189.202,131.130 187.797,131.045 187.711 C 130.959 187.625,130.509 188.766,130.044 190.245 M268.909 188.049 C 270.756 193.337,272.354 201.542,272.477 206.373 L 272.554 209.400 272.707 206.800 C 272.857 204.251,272.386 199.975,271.562 196.400 C 270.536 191.948,269.444 188.167,269.080 187.800 C 268.816 187.534,268.758 187.618,268.909 188.049 M221.775 190.300 C 221.349 190.685,220.010 191.808,218.800 192.795 C 217.590 193.781,216.510 194.688,216.400 194.809 C 216.290 194.930,214.355 196.528,212.100 198.360 C 208.393 201.371,207.097 202.589,208.526 201.720 C 209.362 201.211,222.800 189.963,222.800 189.772 C 222.800 189.466,222.566 189.586,221.775 190.300 M161.067 190.267 C 160.699 190.634,160.729 195.509,161.100 195.738 C 161.265 195.840,161.400 194.591,161.400 192.962 C 161.400 191.333,161.385 190.000,161.367 190.000 C 161.348 190.000,161.213 190.120,161.067 190.267 M238.640 191.066 C 239.008 192.599,239.200 192.744,239.200 191.490 C 239.200 190.917,239.013 190.332,238.784 190.190 C 238.511 190.021,238.462 190.323,238.640 191.066 M238.854 194.067 C 238.825 194.434,238.684 195.064,238.541 195.467 C 238.341 196.033,238.395 196.096,238.775 195.746 C 239.046 195.497,239.187 194.867,239.088 194.346 C 238.990 193.826,238.884 193.700,238.854 194.067 M128.849 194.600 C 128.816 195.040,128.696 195.850,128.583 196.400 L 128.377 197.400 128.806 196.419 C 129.042 195.879,129.161 195.069,129.072 194.619 C 128.913 193.821,128.907 193.821,128.849 194.600 M161.600 196.786 C 161.600 196.999,162.195 197.764,162.922 198.487 C 164.649 200.202,172.647 206.723,172.264 206.103 C 172.102 205.841,170.581 204.510,168.884 203.147 C 167.188 201.783,164.855 199.707,163.700 198.533 C 162.545 197.360,161.600 196.573,161.600 196.786 M236.000 198.807 C 234.790 200.022,232.810 201.879,231.600 202.935 C 228.636 205.523,230.279 204.417,234.094 201.258 C 236.747 199.061,238.761 196.878,238.332 196.665 C 238.259 196.629,237.210 197.593,236.000 198.807 M127.870 199.757 C 127.711 201.053,127.661 202.194,127.760 202.293 C 128.026 202.559,128.503 199.018,128.319 198.147 C 128.232 197.736,128.030 198.460,127.870 199.757 M127.277 210.633 C 127.205 218.152,127.353 219.993,128.478 225.600 C 129.307 229.732,130.768 234.965,131.022 234.711 C 131.112 234.621,130.822 233.299,130.378 231.774 C 129.571 229.006,129.050 226.781,128.320 223.000 C 128.108 221.900,127.804 216.860,127.644 211.800 L 127.353 202.600 127.277 210.633 M223.000 209.876 C 219.700 212.605,216.639 215.144,216.198 215.519 C 215.757 215.893,213.462 217.785,211.098 219.723 C 208.734 221.660,206.800 223.336,206.800 223.448 C 206.800 223.560,208.195 222.518,209.900 221.133 C 213.350 218.331,222.047 211.171,223.604 209.851 C 224.587 209.018,228.838 205.555,229.167 205.319 C 229.258 205.254,229.258 205.136,229.167 205.057 C 229.075 204.979,226.300 207.147,223.000 209.876 M176.244 209.635 C 177.099 210.315,178.609 211.555,179.599 212.392 C 185.337 217.240,188.206 219.527,188.360 219.374 C 188.455 219.278,188.458 219.144,188.367 219.076 C 188.275 219.008,185.292 216.578,181.737 213.676 C 178.182 210.774,175.142 208.400,174.982 208.400 C 174.821 208.400,175.389 208.956,176.244 209.635 M272.471 215.800 C 272.390 218.828,271.792 222.989,270.812 227.353 C 270.570 228.427,270.449 229.382,270.541 229.475 C 270.734 229.667,271.731 225.144,272.408 221.000 C 272.660 219.460,272.797 216.940,272.712 215.400 L 272.557 212.600 272.471 215.800 M188.800 219.829 C 188.800 220.111,189.217 220.479,191.300 222.033 C 193.063 223.349,192.568 222.634,190.600 221.021 C 189.610 220.210,188.800 219.674,188.800 219.829 M192.800 222.954 C 192.800 223.515,195.941 226.000,196.651 226.000 C 196.831 226.000,196.533 225.702,195.989 225.339 C 195.445 224.975,194.505 224.221,193.900 223.664 C 193.295 223.106,192.800 222.787,192.800 222.954 M204.641 224.827 C 203.783 225.472,203.200 226.000,203.346 226.000 C 203.800 226.000,206.390 224.216,206.395 223.900 C 206.402 223.499,206.422 223.488,204.641 224.827 M197.462 226.500 C 197.564 226.665,198.706 226.800,200.000 226.800 C 201.294 226.800,202.436 226.665,202.538 226.500 C 202.640 226.335,201.498 226.200,200.000 226.200 C 198.502 226.200,197.360 226.335,197.462 226.500 M270.046 230.467 C 270.021 230.834,269.896 231.464,269.770 231.867 C 269.552 232.562,269.563 232.563,269.997 231.887 C 270.248 231.496,270.373 230.866,270.273 230.487 C 270.111 229.868,270.088 229.866,270.046 230.467 M131.200 235.484 C 131.200 235.714,131.491 236.599,131.848 237.451 C 132.204 238.303,132.659 239.430,132.859 239.955 C 133.059 240.481,133.301 240.832,133.397 240.736 C 133.555 240.578,131.717 235.633,131.352 235.233 C 131.268 235.142,131.200 235.255,131.200 235.484 M266.363 240.735 L 265.922 242.000 199.994 242.000 C 155.369 242.000,134.001 241.868,133.863 241.590 C 133.751 241.365,133.706 241.410,133.763 241.690 C 133.846 242.100,146.771 242.220,199.922 242.301 L 265.978 242.402 266.619 241.164 C 266.971 240.483,267.157 239.823,267.031 239.698 C 266.906 239.573,266.605 240.039,266.363 240.735 " stroke="none" fill="#866c39" fill-rule="evenodd"></path><path id="path4" d="M199.100 137.882 C 199.595 137.978,200.405 137.978,200.900 137.882 C 201.395 137.787,200.990 137.709,200.000 137.709 C 199.010 137.709,198.605 137.787,199.100 137.882 M189.646 138.363 C 189.307 138.578,189.851 138.632,191.046 138.504 C 192.121 138.388,193.075 138.228,193.167 138.147 C 193.529 137.828,190.165 138.035,189.646 138.363 M206.833 138.147 C 206.925 138.228,207.879 138.388,208.954 138.504 C 210.149 138.632,210.693 138.578,210.354 138.363 C 209.835 138.035,206.471 137.828,206.833 138.147 M185.200 139.218 C 184.762 139.515,184.924 139.552,185.800 139.356 C 187.271 139.027,187.590 138.798,186.567 138.806 C 186.145 138.809,185.530 138.995,185.200 139.218 M212.833 138.944 C 212.925 139.023,213.540 139.208,214.200 139.356 C 215.076 139.552,215.238 139.515,214.800 139.218 C 214.260 138.853,212.432 138.598,212.833 138.944 M161.200 148.800 C 160.210 149.458,159.539 149.997,159.709 149.998 C 160.057 150.000,163.200 147.974,163.200 147.747 C 163.200 147.492,163.042 147.575,161.200 148.800 M237.600 148.364 C 238.150 148.814,238.780 149.183,239.000 149.185 C 239.428 149.188,238.705 148.634,237.400 147.960 C 236.869 147.685,236.936 147.821,237.600 148.364 M156.700 151.814 C 155.655 152.580,154.800 153.296,154.800 153.403 C 154.800 153.511,155.700 152.952,156.800 152.162 C 158.509 150.934,159.123 150.368,158.700 150.410 C 158.645 150.415,157.745 151.047,156.700 151.814 M198.200 154.410 C 197.666 154.647,197.998 154.686,199.200 154.527 C 200.190 154.396,201.075 154.224,201.167 154.144 C 201.514 153.843,198.964 154.072,198.200 154.410 M205.194 156.603 C 206.787 158.521,206.921 158.645,206.486 157.796 C 206.259 157.353,205.652 156.634,205.137 156.198 C 204.233 155.434,204.235 155.448,205.194 156.603 M148.191 159.300 L 145.000 162.600 148.300 159.409 C 150.115 157.655,151.600 156.170,151.600 156.109 C 151.600 155.818,151.154 156.235,148.191 159.300 M251.800 159.600 C 253.771 161.580,255.473 163.200,255.583 163.200 C 255.693 163.200,254.171 161.580,252.200 159.600 C 250.229 157.620,248.527 156.000,248.417 156.000 C 248.307 156.000,249.829 157.620,251.800 159.600 M136.214 174.635 C 135.841 175.204,135.605 175.738,135.689 175.822 C 135.773 175.907,136.158 175.441,136.544 174.788 C 137.406 173.328,137.148 173.209,136.214 174.635 M173.318 187.400 C 174.327 188.170,175.279 188.800,175.434 188.800 C 175.588 188.800,174.890 188.170,173.882 187.400 C 172.873 186.630,171.921 186.000,171.766 186.000 C 171.612 186.000,172.310 186.630,173.318 187.400 M236.394 187.803 C 237.987 189.721,238.121 189.845,237.686 188.996 C 237.459 188.553,236.852 187.834,236.337 187.398 C 235.433 186.634,235.435 186.648,236.394 187.803 M236.226 198.313 C 234.815 200.003,234.788 200.075,235.960 199.000 C 237.071 197.982,238.288 196.370,237.914 196.413 C 237.851 196.420,237.092 197.275,236.226 198.313 M127.449 199.415 C 127.312 199.773,127.215 200.366,127.234 200.733 C 127.253 201.100,127.427 200.869,127.621 200.220 C 127.998 198.958,127.865 198.333,127.449 199.415 M167.382 201.688 C 168.272 202.506,169.149 203.181,169.331 203.188 C 169.513 203.195,169.063 202.716,168.331 202.124 C 166.087 200.311,165.683 200.125,167.382 201.688 M209.185 201.418 C 208.903 201.758,208.386 201.928,208.036 201.795 C 207.523 201.600,207.498 201.651,207.904 202.061 C 208.312 202.471,208.579 202.399,209.293 201.684 C 209.780 201.198,210.070 200.800,209.938 200.800 C 209.806 200.800,209.467 201.078,209.185 201.418 M226.678 206.213 C 226.060 206.756,225.714 207.200,225.908 207.200 C 226.102 207.200,226.683 206.750,227.200 206.200 C 228.395 204.928,228.131 204.934,226.678 206.213 M273.000 211.205 C 273.000 214.530,273.117 216.834,273.260 216.325 C 273.403 215.816,273.520 213.510,273.520 211.200 C 273.520 208.890,273.403 206.586,273.260 206.080 C 273.117 205.573,273.000 207.880,273.000 211.205 M126.652 206.500 C 126.328 207.710,126.387 214.825,126.728 215.685 C 126.878 216.062,127.000 213.947,127.000 210.985 C 127.000 205.133,127.004 205.186,126.652 206.500 M209.200 220.834 L 207.400 222.465 209.300 220.984 C 210.966 219.686,211.459 219.197,211.100 219.201 C 211.045 219.202,210.190 219.936,209.200 220.834 M190.888 221.013 C 191.486 221.643,192.047 222.077,192.135 221.979 C 192.223 221.880,191.733 221.365,191.047 220.834 L 189.800 219.869 190.888 221.013 M127.206 221.833 C 127.209 222.255,127.395 222.870,127.618 223.200 C 127.915 223.638,127.952 223.476,127.756 222.600 C 127.427 221.129,127.198 220.810,127.206 221.833 M272.250 222.450 C 272.109 223.153,272.069 223.802,272.159 223.892 C 272.250 223.983,272.448 223.491,272.600 222.800 C 272.752 222.109,272.793 221.459,272.691 221.358 C 272.589 221.256,272.391 221.747,272.250 222.450 M268.067 237.980 C 267.833 238.651,267.727 239.200,267.831 239.200 C 268.101 239.200,268.856 237.122,268.657 236.924 C 268.567 236.833,268.301 237.308,268.067 237.980 M167.068 242.700 C 185.146 242.758,214.846 242.758,233.068 242.700 C 251.291 242.642,236.500 242.595,200.200 242.595 C 163.900 242.595,148.991 242.642,167.068 242.700 " stroke="none" fill="#3c2e1c" fill-rule="evenodd"></path></g></svg>