<svg id="svg" version="1.1" xmlns="http://www.w3.org/2000/svg" xmlns:xlink="http://www.w3.org/1999/xlink" width="400" height="400" viewBox="0, 0, 400,400"><g id="svgg"><path id="path0" d="M192.017 16.603 C 188.881 17.088,187.294 17.471,184.200 18.487 C 180.791 19.606,174.489 22.706,172.427 24.278 C 172.082 24.540,170.720 25.559,169.400 26.542 C 165.797 29.224,158.000 37.721,158.000 38.965 C 158.000 39.125,157.498 40.008,156.884 40.928 C 154.948 43.830,152.947 48.570,151.788 53.000 C 149.956 60.001,150.000 57.580,150.000 152.539 C 150.000 255.273,150.510 243.441,145.891 247.890 C 143.485 250.207,140.996 252.845,138.696 255.518 C 135.058 259.747,128.968 270.157,126.831 275.800 C 126.331 277.120,125.778 278.560,125.601 279.000 C 124.895 280.762,124.457 282.260,123.263 287.000 C 122.797 288.848,122.124 292.289,121.777 294.600 C 121.645 295.480,121.441 299.530,121.324 303.600 C 121.121 310.671,121.338 313.771,122.443 319.600 C 123.220 323.703,124.636 328.992,125.601 331.400 C 125.778 331.840,126.335 333.280,126.840 334.600 C 134.017 353.366,151.748 371.094,170.700 378.451 C 171.195 378.643,172.005 378.968,172.500 379.174 C 172.995 379.379,174.120 379.764,175.000 380.029 C 175.880 380.294,176.960 380.652,177.400 380.825 C 177.840 380.998,178.740 381.251,179.400 381.388 C 180.060 381.524,181.320 381.818,182.200 382.041 C 195.313 385.361,211.214 384.586,225.400 379.935 C 238.864 375.522,252.618 365.840,261.806 354.309 C 267.247 347.480,272.442 337.865,274.832 330.200 C 275.312 328.660,275.848 327.040,276.022 326.600 C 276.197 326.160,276.453 325.260,276.591 324.600 C 276.730 323.940,277.017 322.590,277.229 321.600 C 278.186 317.134,278.481 314.067,278.672 306.600 C 278.803 301.476,278.711 297.593,278.416 295.800 C 277.732 291.638,277.189 288.792,276.737 287.000 C 276.515 286.120,276.151 284.680,275.928 283.800 C 275.705 282.920,275.360 281.887,275.161 281.505 C 274.962 281.123,274.800 280.536,274.800 280.200 C 274.800 279.864,274.634 279.277,274.432 278.895 C 274.230 278.513,273.653 277.120,273.150 275.800 C 269.316 265.736,262.748 256.101,254.135 247.905 C 249.995 243.967,250.000 243.989,250.000 230.200 C 250.000 218.986,250.043 218.300,250.852 216.579 C 251.758 214.651,254.506 212.400,255.953 212.400 C 256.398 212.400,257.221 212.191,257.781 211.936 L 258.800 211.472 258.800 204.401 L 258.800 197.331 256.443 196.676 C 247.431 194.170,247.882 183.311,257.100 180.826 L 258.800 180.368 258.800 173.192 L 258.800 166.015 257.700 165.780 C 255.171 165.239,253.160 164.268,252.197 163.123 C 249.876 160.366,250.000 163.326,250.000 110.497 C 250.000 57.496,250.063 59.040,247.552 50.800 C 244.345 40.281,237.368 31.044,227.380 24.093 C 218.143 17.664,204.215 14.714,192.017 16.603 M207.283 39.375 C 212.406 40.943,217.903 44.450,220.703 47.936 C 221.526 48.961,222.290 49.890,222.400 50.000 C 223.590 51.190,226.153 57.079,226.927 60.400 C 227.209 61.614,227.420 93.773,227.573 159.156 C 227.798 255.309,227.807 256.117,228.593 256.556 C 229.758 257.207,232.968 259.311,233.200 259.575 C 233.310 259.700,234.455 260.604,235.744 261.583 C 241.908 266.269,252.400 280.700,252.400 284.494 C 252.400 284.794,252.543 285.211,252.718 285.420 C 253.133 285.915,254.197 289.418,255.203 293.600 C 258.423 306.994,255.416 323.265,247.443 335.578 C 238.697 349.087,225.944 357.610,209.600 360.871 C 206.218 361.545,193.373 361.539,190.400 360.861 C 185.618 359.771,184.511 359.479,182.200 358.701 C 167.545 353.767,155.352 342.861,148.992 329.000 C 148.184 327.240,147.360 325.487,147.162 325.105 C 146.963 324.723,146.800 324.136,146.800 323.800 C 146.800 323.464,146.638 322.877,146.439 322.495 C 146.106 321.853,145.849 320.967,144.821 316.900 C 143.377 311.194,143.394 299.062,144.854 293.400 C 145.080 292.520,145.452 291.080,145.679 290.200 C 148.638 278.751,156.942 266.650,166.400 260.005 C 167.170 259.464,168.149 258.702,168.575 258.311 C 169.002 257.920,169.514 257.600,169.714 257.600 C 169.913 257.600,170.599 257.228,171.238 256.773 L 172.400 255.946 172.400 161.036 C 172.400 54.709,172.223 61.161,175.343 54.000 C 178.270 47.281,186.274 40.826,193.600 39.275 C 194.810 39.019,196.160 38.726,196.600 38.623 C 198.080 38.279,205.382 38.793,207.283 39.375 M196.400 55.177 C 196.070 55.359,195.293 55.745,194.674 56.035 C 193.064 56.790,191.441 58.447,190.134 60.671 L 189.000 62.600 189.000 108.600 L 189.000 154.600 200.000 154.600 L 211.000 154.600 211.000 108.600 L 211.000 62.600 210.000 60.800 C 207.376 56.076,200.176 53.099,196.400 55.177 " stroke="none" fill="#fad3d9" fill-rule="evenodd"></path><path id="path1" d="M187.800 0.274 C 186.700 0.370,185.629 0.617,185.420 0.824 C 185.211 1.031,184.356 1.200,183.520 1.200 C 182.684 1.200,182.000 1.380,182.000 1.600 C 182.000 1.820,181.370 2.000,180.600 2.000 C 179.830 2.000,179.200 2.180,179.200 2.400 C 179.200 2.620,178.838 2.800,178.395 2.800 C 177.952 2.800,177.187 3.008,176.695 3.262 C 174.818 4.233,174.393 4.400,173.805 4.400 C 173.472 4.400,173.200 4.580,173.200 4.800 C 173.200 5.020,172.840 5.200,172.400 5.200 C 171.960 5.200,171.600 5.380,171.600 5.600 C 171.600 5.820,171.240 6.000,170.800 6.000 C 170.360 6.000,170.000 6.180,170.000 6.400 C 170.000 6.620,169.640 6.800,169.200 6.800 C 168.760 6.800,168.400 6.980,168.400 7.200 C 168.400 7.420,168.055 7.600,167.633 7.600 C 167.212 7.600,166.807 7.735,166.733 7.900 C 166.660 8.065,165.610 8.726,164.400 9.368 C 163.190 10.011,162.110 10.641,162.000 10.769 C 161.890 10.897,160.725 11.812,159.412 12.801 C 156.614 14.909,148.000 23.389,148.000 24.035 C 148.000 24.279,147.460 24.983,146.800 25.600 C 146.140 26.217,145.600 26.919,145.600 27.160 C 145.600 27.402,145.450 27.600,145.268 27.600 C 145.085 27.600,144.680 28.095,144.368 28.700 C 144.056 29.305,143.687 29.890,143.547 30.000 C 143.132 30.326,141.200 34.505,141.200 35.075 C 141.200 35.364,141.065 35.601,140.900 35.603 C 140.541 35.607,139.600 37.544,139.600 38.280 C 139.600 38.566,139.420 38.800,139.200 38.800 C 138.980 38.800,138.800 39.160,138.800 39.600 C 138.800 40.040,138.620 40.400,138.400 40.400 C 138.180 40.400,138.000 40.850,138.000 41.400 C 138.000 41.950,137.820 42.400,137.600 42.400 C 137.380 42.400,137.200 42.940,137.200 43.600 C 137.200 44.260,137.020 44.800,136.800 44.800 C 136.580 44.800,136.400 45.340,136.400 46.000 C 136.400 46.660,136.220 47.200,136.000 47.200 C 135.780 47.200,135.600 47.920,135.600 48.800 C 135.600 49.680,135.420 50.400,135.200 50.400 C 134.980 50.400,134.800 51.199,134.800 52.176 C 134.800 53.153,134.620 54.064,134.400 54.200 C 134.180 54.336,134.000 55.776,134.000 57.400 C 134.000 59.024,133.820 60.464,133.600 60.600 C 133.335 60.764,133.200 90.610,133.200 148.841 L 133.200 236.834 130.100 239.921 C 128.395 241.619,126.465 243.726,125.812 244.604 C 125.159 245.482,124.304 246.549,123.912 246.975 C 123.520 247.402,123.200 247.947,123.200 248.187 C 123.200 248.427,122.840 248.883,122.400 249.200 C 121.960 249.517,121.600 250.057,121.600 250.400 C 121.600 250.743,121.240 251.283,120.800 251.600 C 120.360 251.917,120.000 252.457,120.000 252.800 C 120.000 253.143,119.640 253.683,119.200 254.000 C 118.760 254.317,118.400 254.897,118.400 255.288 C 118.400 255.680,118.242 256.000,118.049 256.000 C 117.855 256.000,117.473 256.540,117.200 257.200 C 116.927 257.860,116.578 258.400,116.426 258.400 C 116.274 258.400,115.902 259.030,115.600 259.800 C 115.298 260.570,114.904 261.200,114.725 261.200 C 114.546 261.200,114.400 261.560,114.400 262.000 C 114.400 262.440,114.220 262.800,114.000 262.800 C 113.780 262.800,113.600 263.160,113.600 263.600 C 113.600 264.040,113.420 264.400,113.200 264.400 C 112.980 264.400,112.800 264.749,112.800 265.176 C 112.800 265.603,112.620 266.064,112.400 266.200 C 112.180 266.336,112.000 266.887,112.000 267.424 C 112.000 267.961,111.820 268.400,111.600 268.400 C 111.380 268.400,111.200 268.749,111.200 269.176 C 111.200 269.603,111.020 270.064,110.800 270.200 C 110.580 270.336,110.400 270.887,110.400 271.424 C 110.400 271.961,110.220 272.400,110.000 272.400 C 109.780 272.400,109.600 272.940,109.600 273.600 C 109.600 274.260,109.433 274.800,109.229 274.800 C 109.025 274.800,108.734 275.790,108.583 277.000 C 108.432 278.210,108.149 279.200,107.954 279.200 C 107.759 279.200,107.600 279.920,107.600 280.800 C 107.600 281.680,107.420 282.400,107.200 282.400 C 106.980 282.400,106.800 283.300,106.800 284.400 C 106.800 285.500,106.620 286.400,106.400 286.400 C 106.180 286.400,106.000 287.300,106.000 288.400 C 106.000 289.500,105.820 290.400,105.600 290.400 C 105.365 290.400,105.200 291.800,105.200 293.800 C 105.200 295.800,105.035 297.200,104.800 297.200 C 104.257 297.200,104.257 312.664,104.800 313.000 C 105.020 313.136,105.200 314.767,105.200 316.624 C 105.200 318.608,105.365 320.000,105.600 320.000 C 105.820 320.000,106.000 320.990,106.000 322.200 C 106.000 323.410,106.180 324.400,106.400 324.400 C 106.620 324.400,106.800 325.120,106.800 326.000 C 106.800 326.880,106.980 327.600,107.200 327.600 C 107.420 327.600,107.600 328.320,107.600 329.200 C 107.600 330.080,107.780 330.800,108.000 330.800 C 108.220 330.800,108.400 331.334,108.400 331.986 C 108.400 333.200,109.318 336.449,110.013 337.695 C 110.226 338.077,110.400 338.628,110.400 338.919 C 110.400 339.211,110.760 340.195,111.200 341.106 C 111.640 342.016,112.000 343.040,112.000 343.381 C 112.000 343.721,112.180 344.000,112.400 344.000 C 112.620 344.000,112.800 344.360,112.800 344.800 C 112.800 345.240,112.980 345.600,113.200 345.600 C 113.420 345.600,113.600 345.960,113.600 346.400 C 113.600 346.840,113.780 347.200,114.000 347.200 C 114.220 347.200,114.400 347.560,114.400 348.000 C 114.400 348.440,114.580 348.800,114.800 348.800 C 115.020 348.800,115.200 349.160,115.200 349.600 C 115.200 350.040,115.380 350.400,115.600 350.400 C 115.820 350.400,116.000 350.760,116.000 351.200 C 116.000 351.640,116.180 352.000,116.400 352.000 C 116.620 352.000,116.800 352.236,116.800 352.525 C 116.800 352.813,117.160 353.436,117.600 353.908 C 118.040 354.380,118.400 355.044,118.400 355.383 C 118.400 355.722,118.580 356.000,118.800 356.000 C 119.020 356.000,119.200 356.270,119.200 356.600 C 119.200 356.930,119.350 357.200,119.532 357.200 C 119.715 357.200,120.120 357.695,120.432 358.300 C 120.745 358.905,121.495 359.877,122.100 360.460 C 122.705 361.044,123.200 361.743,123.200 362.014 C 123.200 362.284,123.532 362.797,123.937 363.153 C 124.343 363.509,124.897 364.220,125.170 364.734 C 125.895 366.104,126.981 367.320,131.088 371.367 C 137.078 377.269,139.163 379.200,139.544 379.200 C 139.742 379.200,140.645 379.920,141.552 380.800 C 142.459 381.680,143.341 382.400,143.512 382.400 C 143.683 382.400,144.083 382.760,144.400 383.200 C 144.717 383.640,145.257 384.000,145.600 384.000 C 145.943 384.000,146.483 384.360,146.800 384.800 C 147.117 385.240,147.614 385.600,147.905 385.600 C 148.196 385.600,148.820 385.960,149.292 386.400 C 149.764 386.840,150.387 387.200,150.675 387.200 C 150.964 387.200,151.200 387.380,151.200 387.600 C 151.200 387.820,151.545 388.000,151.967 388.000 C 152.388 388.000,152.793 388.158,152.867 388.351 C 153.046 388.823,158.621 391.600,159.390 391.600 C 159.726 391.600,160.000 391.780,160.000 392.000 C 160.000 392.220,160.450 392.400,161.000 392.400 C 161.550 392.400,162.000 392.580,162.000 392.800 C 162.000 393.020,162.360 393.200,162.800 393.200 C 163.240 393.200,163.600 393.380,163.600 393.600 C 163.600 393.820,164.050 394.000,164.600 394.000 C 165.150 394.000,165.600 394.180,165.600 394.400 C 165.600 394.620,166.050 394.800,166.600 394.800 C 167.150 394.800,167.600 394.980,167.600 395.200 C 167.600 395.420,168.140 395.600,168.800 395.600 C 169.460 395.600,170.000 395.780,170.000 396.000 C 170.000 396.220,170.540 396.400,171.200 396.400 C 171.860 396.400,172.400 396.580,172.400 396.800 C 172.400 397.020,173.120 397.200,174.000 397.200 C 174.880 397.200,175.600 397.380,175.600 397.600 C 175.600 397.820,176.219 398.000,176.976 398.000 C 177.733 398.000,178.464 398.180,178.600 398.400 C 178.736 398.620,179.632 398.800,180.590 398.800 C 181.629 398.800,182.401 399.002,182.500 399.300 C 182.630 399.690,186.489 399.800,200.000 399.800 C 213.511 399.800,217.370 399.690,217.500 399.300 C 217.603 398.990,218.416 398.800,219.633 398.800 C 220.715 398.800,221.600 398.620,221.600 398.400 C 221.600 398.180,222.219 398.000,222.976 398.000 C 223.733 398.000,224.464 397.820,224.600 397.600 C 224.736 397.380,225.467 397.200,226.224 397.200 C 226.981 397.200,227.600 397.020,227.600 396.800 C 227.600 396.580,228.140 396.400,228.800 396.400 C 229.460 396.400,230.000 396.220,230.000 396.000 C 230.000 395.780,230.540 395.600,231.200 395.600 C 231.860 395.600,232.400 395.420,232.400 395.200 C 232.400 394.980,232.940 394.800,233.600 394.800 C 234.260 394.800,234.800 394.620,234.800 394.400 C 234.800 394.180,235.160 394.000,235.600 394.000 C 236.040 394.000,236.400 393.820,236.400 393.600 C 236.400 393.380,236.850 393.200,237.400 393.200 C 237.950 393.200,238.400 393.020,238.400 392.800 C 238.400 392.580,238.672 392.400,239.005 392.400 C 239.338 392.400,239.923 392.236,240.305 392.035 C 240.687 391.834,242.755 390.809,244.900 389.757 C 247.045 388.705,248.800 387.700,248.800 387.522 C 248.800 387.345,249.160 387.200,249.600 387.200 C 250.040 387.200,250.400 387.050,250.400 386.868 C 250.400 386.685,250.895 386.280,251.500 385.968 C 252.105 385.655,252.949 385.085,253.375 384.700 C 253.802 384.315,254.347 384.000,254.587 384.000 C 254.827 384.000,255.283 383.640,255.600 383.200 C 255.917 382.760,256.342 382.400,256.545 382.400 C 256.748 382.400,257.429 381.860,258.060 381.200 C 258.691 380.540,259.388 380.000,259.610 380.000 C 260.469 380.000,273.736 366.870,274.636 365.130 C 274.975 364.474,275.781 363.385,276.426 362.709 C 277.072 362.034,277.600 361.278,277.600 361.029 C 277.600 360.780,277.960 360.317,278.400 360.000 C 278.840 359.683,279.200 359.193,279.200 358.912 C 279.200 358.630,279.380 358.400,279.600 358.400 C 279.820 358.400,280.000 358.130,280.000 357.800 C 280.000 357.470,280.180 357.200,280.400 357.200 C 280.620 357.200,280.800 356.930,280.800 356.600 C 280.800 356.270,280.980 356.000,281.200 356.000 C 281.420 356.000,281.600 355.764,281.600 355.475 C 281.600 355.187,281.960 354.564,282.400 354.092 C 282.840 353.620,283.200 352.956,283.200 352.617 C 283.200 352.278,283.380 352.000,283.600 352.000 C 283.820 352.000,284.000 351.640,284.000 351.200 C 284.000 350.760,284.180 350.400,284.400 350.400 C 284.620 350.400,284.800 350.040,284.800 349.600 C 284.800 349.160,284.980 348.800,285.200 348.800 C 285.420 348.800,285.600 348.440,285.600 348.000 C 285.600 347.560,285.780 347.200,286.000 347.200 C 286.220 347.200,286.400 346.840,286.400 346.400 C 286.400 345.960,286.580 345.600,286.800 345.600 C 287.020 345.600,287.200 345.240,287.200 344.800 C 287.200 344.360,287.380 344.000,287.600 344.000 C 287.820 344.000,288.000 343.640,288.000 343.200 C 288.000 342.760,288.180 342.400,288.400 342.400 C 288.620 342.400,288.800 342.038,288.800 341.595 C 288.800 341.152,288.959 340.477,289.153 340.095 C 290.494 337.460,291.600 333.884,291.600 332.186 C 291.600 331.424,291.780 330.800,292.000 330.800 C 292.220 330.800,292.400 330.080,292.400 329.200 C 292.400 328.320,292.580 327.600,292.800 327.600 C 293.020 327.600,293.200 326.880,293.200 326.000 C 293.200 325.120,293.380 324.400,293.600 324.400 C 293.820 324.400,294.000 323.410,294.000 322.200 C 294.000 320.990,294.180 320.000,294.400 320.000 C 294.637 320.000,294.800 318.533,294.800 316.400 C 294.800 314.267,294.963 312.800,295.200 312.800 C 295.452 312.800,295.600 310.075,295.600 305.424 C 295.600 300.937,295.443 297.950,295.200 297.800 C 294.980 297.664,294.800 295.943,294.800 293.976 C 294.800 291.859,294.637 290.400,294.400 290.400 C 294.180 290.400,294.000 289.500,294.000 288.400 C 294.000 287.300,293.820 286.400,293.600 286.400 C 293.380 286.400,293.200 285.500,293.200 284.400 C 293.200 283.300,293.020 282.400,292.800 282.400 C 292.580 282.400,292.400 281.781,292.400 281.024 C 292.400 280.267,292.241 279.549,292.047 279.429 C 291.852 279.309,291.570 278.218,291.418 277.005 C 291.266 275.792,290.975 274.800,290.771 274.800 C 290.567 274.800,290.400 274.260,290.400 273.600 C 290.400 272.940,290.220 272.400,290.000 272.400 C 289.780 272.400,289.600 271.961,289.600 271.424 C 289.600 270.887,289.420 270.336,289.200 270.200 C 288.980 270.064,288.800 269.603,288.800 269.176 C 288.800 268.749,288.620 268.400,288.400 268.400 C 288.180 268.400,288.000 268.121,288.000 267.781 C 288.000 267.440,287.640 266.416,287.200 265.506 C 286.760 264.595,286.400 263.614,286.400 263.325 C 286.400 263.036,286.254 262.800,286.075 262.800 C 285.896 262.800,285.502 262.170,285.200 261.400 C 284.898 260.630,284.504 260.000,284.325 260.000 C 284.146 260.000,284.000 259.722,284.000 259.383 C 284.000 259.044,283.640 258.380,283.200 257.908 C 282.760 257.436,282.400 256.813,282.400 256.525 C 282.400 256.236,282.220 256.000,282.000 256.000 C 281.780 256.000,281.600 255.680,281.600 255.288 C 281.600 254.897,281.240 254.317,280.800 254.000 C 280.360 253.683,280.000 253.143,280.000 252.800 C 280.000 252.457,279.640 251.917,279.200 251.600 C 278.760 251.283,278.400 250.743,278.400 250.400 C 278.400 250.057,278.040 249.517,277.600 249.200 C 277.160 248.883,276.800 248.427,276.800 248.187 C 276.800 247.947,276.480 247.402,276.088 246.975 C 275.696 246.549,274.841 245.482,274.188 244.604 C 273.535 243.726,271.605 241.619,269.900 239.921 L 266.800 236.834 266.800 227.441 C 266.800 221.610,266.648 217.953,266.400 217.800 C 266.180 217.664,266.000 217.203,266.000 216.776 C 266.000 216.349,265.820 216.000,265.600 216.000 C 265.380 216.000,265.200 215.722,265.200 215.382 C 265.200 214.305,262.342 212.000,261.005 212.000 C 260.672 212.000,260.400 211.820,260.400 211.600 C 260.400 211.380,260.040 211.200,259.600 211.200 C 259.160 211.200,258.800 211.451,258.800 211.757 C 258.800 212.377,257.957 212.800,256.722 212.800 C 255.338 212.800,252.980 214.397,251.897 216.069 C 250.526 218.183,250.285 221.002,250.469 232.810 C 250.640 243.843,250.529 243.481,255.138 248.005 C 262.349 255.083,267.655 262.381,271.566 270.600 C 272.828 273.254,273.176 274.049,274.100 276.400 C 274.316 276.950,274.652 277.713,274.847 278.095 C 275.041 278.477,275.200 279.141,275.200 279.571 C 275.200 280.001,275.380 280.464,275.600 280.600 C 275.820 280.736,276.000 281.276,276.000 281.800 C 276.000 282.324,276.160 282.852,276.356 282.973 C 276.551 283.094,276.812 283.779,276.934 284.496 C 277.056 285.213,277.354 286.700,277.596 287.800 C 278.561 292.181,278.821 294.024,279.235 299.431 C 279.806 306.884,279.124 316.832,277.646 322.600 C 277.420 323.480,277.124 324.740,276.988 325.400 C 276.851 326.060,276.597 326.960,276.422 327.400 C 276.248 327.840,275.706 329.460,275.219 331.000 C 273.268 337.167,266.347 350.407,264.032 352.400 C 263.905 352.510,263.175 353.410,262.412 354.400 C 261.048 356.167,259.582 357.840,256.800 360.804 C 253.084 364.762,245.314 370.913,240.600 373.628 C 237.674 375.314,229.808 379.185,229.295 379.193 C 229.017 379.197,228.477 379.371,228.095 379.581 C 216.295 386.056,188.971 386.165,172.400 379.803 C 168.965 378.485,163.581 376.036,163.200 375.619 C 163.006 375.407,160.326 373.935,158.503 373.040 C 158.010 372.798,157.605 372.465,157.603 372.300 C 157.601 372.135,157.401 372.000,157.158 372.000 C 156.089 372.000,147.409 364.894,143.312 360.666 C 135.155 352.247,130.297 344.803,125.913 334.000 C 125.689 333.450,125.348 332.687,125.153 332.305 C 124.959 331.923,124.800 331.259,124.800 330.829 C 124.800 330.399,124.620 329.936,124.400 329.800 C 124.180 329.664,124.000 329.124,124.000 328.600 C 124.000 328.076,123.840 327.548,123.644 327.427 C 123.449 327.306,123.188 326.621,123.066 325.904 C 122.944 325.187,122.646 323.700,122.404 322.600 C 121.435 318.201,121.179 316.370,120.776 310.928 C 120.127 302.192,121.070 291.970,123.203 284.600 C 123.457 283.720,123.762 282.503,123.879 281.895 C 123.996 281.287,124.251 280.692,124.446 280.571 C 124.641 280.451,124.800 280.001,124.800 279.571 C 124.800 279.141,124.959 278.477,125.153 278.095 C 125.348 277.713,125.689 276.950,125.913 276.400 C 130.448 265.225,136.833 255.658,144.722 248.217 C 146.131 246.888,147.760 245.080,148.342 244.200 L 149.400 242.600 149.604 150.200 L 149.809 57.800 150.943 53.640 C 152.216 48.972,154.276 43.831,155.791 41.541 C 156.346 40.703,156.800 39.911,156.800 39.781 C 156.800 39.548,158.766 36.600,159.982 35.009 C 162.326 31.941,171.936 23.200,172.965 23.200 C 173.125 23.200,174.008 22.690,174.928 22.066 C 178.231 19.825,185.083 17.327,191.600 15.987 C 203.133 13.615,221.610 18.117,230.343 25.426 C 233.926 28.425,235.241 29.662,237.712 32.353 C 243.186 38.315,247.384 46.410,249.494 55.065 C 250.091 57.518,250.183 63.032,250.380 108.600 L 250.600 159.400 251.499 161.083 C 252.487 162.931,255.195 164.800,256.886 164.800 C 257.445 164.800,258.126 165.070,258.400 165.400 C 258.954 166.067,261.200 166.228,261.200 165.600 C 261.200 165.380,261.475 165.200,261.811 165.200 C 262.842 165.200,266.000 161.740,266.000 160.611 C 266.000 160.055,266.180 159.600,266.400 159.600 C 266.665 159.600,266.800 142.867,266.800 110.200 C 266.800 77.533,266.665 60.800,266.400 60.800 C 266.167 60.800,266.000 59.467,266.000 57.600 C 266.000 55.733,265.833 54.400,265.600 54.400 C 265.380 54.400,265.200 53.500,265.200 52.400 C 265.200 51.300,265.020 50.400,264.800 50.400 C 264.580 50.400,264.400 49.680,264.400 48.800 C 264.400 47.920,264.220 47.200,264.000 47.200 C 263.780 47.200,263.600 46.660,263.600 46.000 C 263.600 45.340,263.420 44.800,263.200 44.800 C 262.980 44.800,262.800 44.260,262.800 43.600 C 262.800 42.940,262.620 42.400,262.400 42.400 C 262.180 42.400,262.000 41.950,262.000 41.400 C 262.000 40.850,261.820 40.400,261.600 40.400 C 261.380 40.400,261.200 40.040,261.200 39.600 C 261.200 39.160,261.020 38.800,260.800 38.800 C 260.580 38.800,260.400 38.440,260.400 38.000 C 260.400 37.560,260.220 37.200,260.000 37.200 C 259.780 37.200,259.600 36.840,259.600 36.400 C 259.600 35.960,259.420 35.600,259.200 35.600 C 258.980 35.600,258.800 35.284,258.800 34.897 C 258.800 34.234,256.970 30.432,256.443 30.000 C 256.309 29.890,255.944 29.305,255.632 28.700 C 255.320 28.095,254.915 27.600,254.732 27.600 C 254.550 27.600,254.400 27.402,254.400 27.160 C 254.400 26.919,253.860 26.217,253.200 25.600 C 252.540 24.983,252.000 24.279,252.000 24.035 C 252.000 23.493,243.640 15.136,241.176 13.215 C 240.199 12.453,239.340 11.688,239.267 11.515 C 239.193 11.342,238.961 11.200,238.750 11.200 C 238.539 11.200,238.149 11.017,237.883 10.794 C 236.678 9.782,234.310 8.400,233.782 8.400 C 233.462 8.400,233.200 8.220,233.200 8.000 C 233.200 7.780,232.840 7.600,232.400 7.600 C 231.960 7.600,231.600 7.420,231.600 7.200 C 231.600 6.980,231.240 6.800,230.800 6.800 C 230.360 6.800,230.000 6.620,230.000 6.400 C 230.000 6.180,229.640 6.000,229.200 6.000 C 228.760 6.000,228.400 5.820,228.400 5.600 C 228.400 5.380,228.040 5.200,227.600 5.200 C 227.160 5.200,226.800 5.020,226.800 4.800 C 226.800 4.580,226.350 4.400,225.800 4.400 C 225.250 4.400,224.800 4.220,224.800 4.000 C 224.800 3.780,224.451 3.600,224.024 3.600 C 223.597 3.600,223.136 3.420,223.000 3.200 C 222.864 2.980,222.313 2.800,221.776 2.800 C 221.239 2.800,220.800 2.620,220.800 2.400 C 220.800 2.180,220.181 2.000,219.424 2.000 C 218.667 2.000,217.936 1.820,217.800 1.600 C 217.664 1.380,216.969 1.200,216.256 1.200 C 215.543 1.200,214.739 0.979,214.468 0.708 C 213.974 0.214,192.490 -0.135,187.800 0.274 M193.800 39.696 C 190.309 40.559,185.607 42.938,183.149 45.087 C 180.645 47.276,177.757 50.622,177.097 52.100 C 176.826 52.705,176.469 53.200,176.302 53.200 C 176.136 53.200,176.000 53.560,176.000 54.000 C 176.000 54.440,175.859 54.800,175.687 54.800 C 175.515 54.800,175.142 55.655,174.857 56.700 C 174.573 57.745,174.129 59.050,173.870 59.600 C 173.515 60.355,173.373 84.485,173.291 158.286 L 173.183 255.972 171.854 256.986 C 171.123 257.544,170.331 258.000,170.096 258.000 C 169.860 258.000,169.607 258.145,169.533 258.323 C 169.460 258.501,168.500 259.258,167.400 260.006 C 164.120 262.236,158.814 267.275,156.456 270.400 C 155.875 271.169,155.124 272.106,154.787 272.482 C 153.132 274.324,149.688 280.894,147.597 286.200 C 145.122 292.476,143.625 303.335,144.379 309.543 C 145.200 316.307,146.717 323.028,147.682 324.180 C 147.857 324.389,148.000 324.834,148.000 325.168 C 148.000 328.286,155.622 339.698,161.600 345.529 C 167.028 350.825,175.650 356.056,182.200 358.029 C 183.080 358.294,184.160 358.652,184.600 358.825 C 185.432 359.153,186.192 359.328,190.200 360.117 C 193.306 360.729,206.694 360.729,209.800 360.117 C 213.808 359.328,214.568 359.153,215.400 358.825 C 215.840 358.652,216.920 358.294,217.800 358.029 C 226.183 355.504,236.220 348.716,242.357 341.421 C 248.215 334.457,254.400 322.134,254.400 317.427 C 254.400 316.928,254.563 315.998,254.762 315.360 C 258.206 304.324,252.267 278.405,244.828 272.000 C 244.700 271.890,244.072 271.080,243.433 270.200 C 241.982 268.203,235.399 261.763,233.908 260.882 C 233.299 260.522,232.800 260.086,232.800 259.914 C 232.800 259.741,232.530 259.600,232.200 259.600 C 231.870 259.600,231.600 259.448,231.600 259.263 C 231.600 259.077,230.794 258.511,229.810 258.005 C 228.825 257.498,227.748 256.785,227.417 256.419 C 226.886 255.832,226.803 244.347,226.708 157.977 C 226.627 85.067,226.483 59.997,226.139 59.400 C 225.885 58.960,225.444 57.790,225.158 56.800 C 222.909 49.022,214.751 41.761,205.894 39.653 C 203.621 39.113,196.055 39.139,193.800 39.696 M205.064 55.140 C 207.073 56.177,209.332 58.290,210.279 60.018 C 212.070 63.285,212.037 62.267,211.916 110.000 L 211.800 155.400 200.227 155.506 C 191.236 155.589,188.583 155.500,188.334 155.106 C 187.815 154.289,187.918 64.772,188.440 63.160 C 190.870 55.642,198.710 51.860,205.064 55.140 M90.400 58.000 C 90.400 58.220,89.708 58.400,88.861 58.400 C 87.897 58.400,86.978 58.698,86.400 59.200 C 85.893 59.640,85.325 60.000,85.139 60.000 C 84.952 60.000,84.800 60.188,84.800 60.417 C 84.800 60.646,84.440 61.220,84.000 61.692 C 83.041 62.722,82.828 68.964,83.700 70.480 C 84.509 71.886,86.723 74.000,87.387 74.000 C 87.724 74.000,88.000 74.180,88.000 74.400 C 88.000 74.658,92.529 74.800,100.788 74.800 C 115.797 74.800,116.078 74.733,118.379 70.637 C 119.271 69.049,119.607 62.800,118.800 62.800 C 118.580 62.800,118.400 62.522,118.400 62.182 C 118.400 60.812,115.155 58.400,113.311 58.400 C 112.590 58.400,112.000 58.220,112.000 58.000 C 112.000 57.743,108.133 57.600,101.200 57.600 C 94.267 57.600,90.400 57.743,90.400 58.000 M288.000 58.000 C 288.000 58.220,287.410 58.400,286.689 58.400 C 284.845 58.400,281.600 60.812,281.600 62.182 C 281.600 62.522,281.420 62.800,281.200 62.800 C 280.393 62.800,280.729 69.049,281.621 70.637 C 283.922 74.733,284.203 74.800,299.212 74.800 C 307.471 74.800,312.000 74.658,312.000 74.400 C 312.000 74.180,312.276 74.000,312.613 74.000 C 313.277 74.000,315.491 71.886,316.300 70.480 C 317.172 68.964,316.959 62.722,316.000 61.692 C 315.560 61.220,315.200 60.646,315.200 60.417 C 315.200 60.188,315.048 60.000,314.861 60.000 C 314.675 60.000,314.107 59.640,313.600 59.200 C 313.022 58.698,312.103 58.400,311.139 58.400 C 310.292 58.400,309.600 58.220,309.600 58.000 C 309.600 57.743,305.733 57.600,298.800 57.600 C 291.867 57.600,288.000 57.743,288.000 58.000 M70.000 106.400 C 70.000 106.620,69.542 106.800,68.982 106.800 C 68.422 106.800,67.477 107.254,66.882 107.809 C 66.287 108.364,65.485 109.116,65.100 109.479 C 64.715 109.843,64.400 110.378,64.400 110.670 C 64.400 110.961,64.220 111.200,64.000 111.200 C 63.193 111.200,63.529 117.449,64.421 119.037 C 66.859 123.377,65.709 123.200,91.400 123.200 C 117.091 123.200,115.941 123.377,118.379 119.037 C 119.271 117.449,119.607 111.200,118.800 111.200 C 118.580 111.200,118.400 110.964,118.400 110.676 C 118.400 109.774,114.862 106.800,113.789 106.800 C 113.245 106.800,112.800 106.620,112.800 106.400 C 112.800 106.138,105.400 106.000,91.400 106.000 C 77.400 106.000,70.000 106.138,70.000 106.400 M287.200 106.400 C 287.200 106.620,286.755 106.800,286.211 106.800 C 285.138 106.800,281.600 109.774,281.600 110.676 C 281.600 110.964,281.420 111.200,281.200 111.200 C 280.393 111.200,280.729 117.449,281.621 119.037 C 284.059 123.377,282.909 123.200,308.600 123.200 C 334.291 123.200,333.141 123.377,335.579 119.037 C 336.471 117.449,336.807 111.200,336.000 111.200 C 335.780 111.200,335.600 110.964,335.600 110.676 C 335.600 109.774,332.062 106.800,330.989 106.800 C 330.445 106.800,330.000 106.620,330.000 106.400 C 330.000 106.138,322.600 106.000,308.600 106.000 C 294.600 106.000,287.200 106.138,287.200 106.400 M88.800 154.800 C 88.800 155.020,88.440 155.200,88.000 155.200 C 87.560 155.200,87.200 155.380,87.200 155.600 C 87.200 155.820,86.922 156.000,86.582 156.000 C 85.782 156.000,84.000 157.782,84.000 158.582 C 84.000 158.922,83.820 159.200,83.600 159.200 C 83.361 159.200,83.200 160.733,83.200 163.000 C 83.200 165.267,83.361 166.800,83.600 166.800 C 83.820 166.800,84.000 167.076,84.000 167.413 C 84.000 168.197,86.585 170.800,87.363 170.800 C 87.687 170.800,88.064 170.980,88.200 171.200 C 88.356 171.453,93.009 171.600,100.840 171.600 C 115.538 171.600,116.118 171.462,118.379 167.437 C 119.682 165.118,119.326 158.418,117.900 158.403 C 117.735 158.401,117.600 158.140,117.600 157.823 C 117.600 157.505,117.060 156.926,116.400 156.536 C 115.740 156.146,115.200 155.686,115.200 155.514 C 115.200 155.341,114.761 155.200,114.224 155.200 C 113.687 155.200,113.136 155.020,113.000 154.800 C 112.844 154.548,108.329 154.400,100.776 154.400 C 93.059 154.400,88.800 154.542,88.800 154.800 M287.000 154.800 C 286.864 155.020,286.313 155.200,285.776 155.200 C 285.239 155.200,284.800 155.341,284.800 155.514 C 284.800 155.686,284.260 156.146,283.600 156.536 C 282.940 156.926,282.400 157.505,282.400 157.823 C 282.400 158.140,282.265 158.401,282.100 158.403 C 280.674 158.418,280.318 165.118,281.621 167.437 C 283.882 171.462,284.462 171.600,299.160 171.600 C 306.991 171.600,311.644 171.453,311.800 171.200 C 311.936 170.980,312.313 170.800,312.637 170.800 C 313.415 170.800,316.000 168.197,316.000 167.413 C 316.000 167.076,316.180 166.800,316.400 166.800 C 316.639 166.800,316.800 165.267,316.800 163.000 C 316.800 160.733,316.639 159.200,316.400 159.200 C 316.180 159.200,316.000 158.922,316.000 158.582 C 316.000 157.782,314.218 156.000,313.418 156.000 C 313.078 156.000,312.800 155.820,312.800 155.600 C 312.800 155.380,312.440 155.200,312.000 155.200 C 311.560 155.200,311.200 155.020,311.200 154.800 C 311.200 154.542,306.941 154.400,299.224 154.400 C 291.671 154.400,287.156 154.548,287.000 154.800 M211.226 170.814 C 211.984 171.220,212.000 172.158,212.000 217.136 L 212.000 263.043 213.140 264.840 C 214.025 266.236,214.941 266.982,217.240 268.179 C 229.175 274.395,237.207 284.243,239.605 295.600 C 239.860 296.810,240.234 298.451,240.435 299.246 C 240.915 301.150,240.903 308.729,240.416 310.894 C 240.205 311.832,239.816 313.680,239.552 315.000 C 239.288 316.320,238.920 317.571,238.736 317.780 C 238.551 317.989,238.400 318.455,238.400 318.816 C 238.400 321.892,231.020 332.456,225.948 336.641 C 222.386 339.581,215.504 343.303,212.000 344.185 C 211.450 344.323,210.010 344.726,208.800 345.079 C 205.895 345.926,194.704 346.041,191.800 345.252 C 177.030 341.242,166.833 332.515,161.943 319.700 C 161.755 319.205,161.434 318.395,161.230 317.900 C 160.864 317.009,160.782 316.672,159.901 312.400 C 159.277 309.378,159.292 300.717,159.926 297.800 C 160.213 296.480,160.547 294.813,160.668 294.096 C 160.789 293.379,161.049 292.694,161.244 292.573 C 161.440 292.452,161.600 292.038,161.600 291.654 C 161.600 290.511,165.432 283.358,167.447 280.738 C 171.566 275.386,176.490 271.349,182.673 268.255 C 184.485 267.348,185.963 266.271,186.673 265.340 L 187.800 263.862 187.902 217.631 C 187.996 174.799,188.053 171.363,188.678 170.900 C 189.543 170.259,210.043 170.181,211.226 170.814 M258.300 180.833 C 257.915 181.255,257.220 181.600,256.754 181.600 C 255.274 181.600,252.758 183.329,251.761 185.031 C 249.252 189.312,252.113 195.951,256.495 196.013 C 256.993 196.020,257.749 196.290,258.176 196.613 C 259.054 197.277,261.200 197.410,261.200 196.800 C 261.200 196.580,261.475 196.400,261.811 196.400 C 262.842 196.400,266.000 192.940,266.000 191.811 C 266.000 191.255,266.180 190.800,266.400 190.800 C 266.620 190.800,266.800 189.810,266.800 188.600 C 266.800 187.390,266.620 186.400,266.400 186.400 C 266.180 186.400,266.000 186.040,266.000 185.600 C 266.000 185.160,265.820 184.800,265.600 184.800 C 265.380 184.800,265.200 184.522,265.200 184.182 C 265.200 183.105,262.342 180.800,261.005 180.800 C 260.672 180.800,260.400 180.620,260.400 180.400 C 260.400 179.736,259.047 180.015,258.300 180.833 M69.200 203.200 C 69.200 203.420,68.840 203.600,68.400 203.600 C 67.960 203.600,67.600 203.780,67.600 204.000 C 67.600 204.220,67.317 204.400,66.971 204.400 C 66.172 204.400,65.623 204.989,64.500 207.054 C 62.455 210.814,64.107 218.400,66.971 218.400 C 67.317 218.400,67.600 218.580,67.600 218.800 C 67.600 219.020,67.960 219.200,68.400 219.200 C 68.840 219.200,69.200 219.380,69.200 219.600 C 69.200 219.862,76.867 220.000,91.400 220.000 C 105.933 220.000,113.600 219.862,113.600 219.600 C 113.600 219.380,113.960 219.200,114.400 219.200 C 114.840 219.200,115.200 219.020,115.200 218.800 C 115.200 218.580,115.483 218.400,115.829 218.400 C 116.490 218.400,117.594 217.488,117.609 216.929 C 117.614 216.748,117.970 216.150,118.400 215.600 C 120.467 212.958,118.502 204.400,115.829 204.400 C 115.483 204.400,115.200 204.220,115.200 204.000 C 115.200 203.780,114.840 203.600,114.400 203.600 C 113.960 203.600,113.600 203.420,113.600 203.200 C 113.600 202.938,105.933 202.800,91.400 202.800 C 76.867 202.800,69.200 202.938,69.200 203.200 M286.400 203.200 C 286.400 203.420,286.040 203.600,285.600 203.600 C 285.160 203.600,284.800 203.780,284.800 204.000 C 284.800 204.220,284.517 204.400,284.171 204.400 C 281.498 204.400,279.533 212.958,281.600 215.600 C 282.030 216.150,282.386 216.748,282.391 216.929 C 282.406 217.488,283.510 218.400,284.171 218.400 C 284.517 218.400,284.800 218.580,284.800 218.800 C 284.800 219.020,285.160 219.200,285.600 219.200 C 286.040 219.200,286.400 219.380,286.400 219.600 C 286.400 219.862,294.067 220.000,308.600 220.000 C 323.133 220.000,330.800 219.862,330.800 219.600 C 330.800 219.380,331.160 219.200,331.600 219.200 C 332.040 219.200,332.400 219.020,332.400 218.800 C 332.400 218.580,332.683 218.400,333.029 218.400 C 337.081 218.400,337.490 206.526,333.500 204.706 C 332.895 204.431,332.400 204.069,332.400 203.902 C 332.400 203.736,332.040 203.600,331.600 203.600 C 331.160 203.600,330.800 203.420,330.800 203.200 C 330.800 202.938,323.133 202.800,308.600 202.800 C 294.067 202.800,286.400 202.938,286.400 203.200 " stroke="none" fill="#040404" fill-rule="evenodd"></path><path id="path2" d="M188.400 217.139 C 188.400 267.275,188.543 264.193,186.115 266.464 C 185.502 267.038,183.384 268.360,181.408 269.401 C 144.176 289.027,157.961 345.348,200.000 345.359 C 241.374 345.370,255.931 289.326,219.582 269.968 C 210.669 265.221,211.600 271.408,211.600 216.951 L 211.600 171.200 200.000 171.200 L 188.400 171.200 188.400 217.139 " stroke="none" fill="#c05e74" fill-rule="evenodd"></path><path id="path3" d="M191.800 16.000 L 191.000 16.344 191.800 16.325 C 192.240 16.314,193.140 16.168,193.800 16.000 L 195.000 15.695 193.800 15.675 C 193.140 15.665,192.240 15.811,191.800 16.000 M206.200 16.000 C 206.860 16.168,207.760 16.314,208.200 16.325 L 209.000 16.344 208.200 16.000 C 207.760 15.811,206.860 15.665,206.200 15.675 L 205.000 15.695 206.200 16.000 M187.600 16.800 C 186.796 17.057,186.757 17.123,187.400 17.132 C 187.840 17.138,188.560 16.989,189.000 16.800 C 190.019 16.362,188.968 16.362,187.600 16.800 M211.000 16.800 C 211.440 16.989,212.160 17.138,212.600 17.132 C 213.243 17.123,213.204 17.057,212.400 16.800 C 211.032 16.362,209.981 16.362,211.000 16.800 M179.800 19.578 C 178.920 19.995,178.313 20.350,178.451 20.368 C 178.840 20.418,181.600 19.214,181.600 18.995 C 181.600 18.727,181.599 18.727,179.800 19.578 M175.281 21.772 C 173.525 23.014,173.097 23.545,174.600 22.618 C 176.678 21.335,177.391 20.799,176.989 20.820 C 176.775 20.830,176.007 21.259,175.281 21.772 M224.086 21.800 C 224.895 22.350,225.699 22.800,225.872 22.800 C 226.044 22.800,225.523 22.350,224.714 21.800 C 223.905 21.250,223.101 20.800,222.928 20.800 C 222.756 20.800,223.277 21.250,224.086 21.800 M226.600 23.049 C 227.528 23.966,230.000 25.615,230.000 25.317 C 230.000 25.138,229.595 24.742,229.100 24.435 C 226.627 22.904,226.231 22.684,226.600 23.049 M171.185 24.429 L 169.800 25.658 171.400 24.545 C 172.280 23.933,173.075 23.380,173.167 23.316 C 173.258 23.252,173.162 23.200,172.952 23.200 C 172.742 23.200,171.947 23.753,171.185 24.429 M163.991 30.700 L 160.600 34.200 164.100 30.809 C 166.025 28.944,167.600 27.369,167.600 27.309 C 167.600 27.018,167.141 27.449,163.991 30.700 M232.400 27.325 C 232.400 27.394,232.985 27.979,233.700 28.625 L 235.000 29.800 233.825 28.500 C 232.730 27.288,232.400 27.016,232.400 27.325 M237.400 32.400 C 238.259 33.280,239.052 34.000,239.162 34.000 C 239.272 34.000,238.659 33.280,237.800 32.400 C 236.941 31.520,236.148 30.800,236.038 30.800 C 235.928 30.800,236.541 31.520,237.400 32.400 M158.072 37.645 C 156.285 40.378,156.617 40.467,158.483 37.755 C 159.298 36.570,159.838 35.603,159.683 35.607 C 159.527 35.611,158.802 36.528,158.072 37.645 M198.500 39.091 C 199.325 39.178,200.675 39.178,201.500 39.091 C 202.325 39.005,201.650 38.934,200.000 38.934 C 198.350 38.934,197.675 39.005,198.500 39.091 M193.400 39.600 C 192.896 39.817,192.822 39.944,193.200 39.944 C 193.530 39.944,194.160 39.789,194.600 39.600 C 195.104 39.383,195.178 39.256,194.800 39.256 C 194.470 39.256,193.840 39.411,193.400 39.600 M205.400 39.600 C 205.840 39.789,206.470 39.944,206.800 39.944 C 207.178 39.944,207.104 39.817,206.600 39.600 C 206.160 39.411,205.530 39.256,205.200 39.256 C 204.822 39.256,204.896 39.383,205.400 39.600 M155.431 42.112 C 154.305 44.033,151.993 49.471,152.012 50.155 C 152.019 50.400,152.705 48.967,153.536 46.970 C 154.368 44.974,155.457 42.679,155.957 41.870 C 156.456 41.062,156.768 40.400,156.649 40.400 C 156.531 40.400,155.982 41.170,155.431 42.112 M186.700 42.229 C 186.095 42.557,185.600 42.910,185.600 43.013 C 185.600 43.399,186.232 43.157,187.200 42.400 C 188.389 41.470,188.211 41.409,186.700 42.229 M245.082 43.789 C 245.673 44.993,246.223 45.911,246.305 45.829 C 246.484 45.649,244.467 41.600,244.198 41.600 C 244.094 41.600,244.492 42.585,245.082 43.789 M182.493 45.233 C 181.775 45.875,181.325 46.394,181.494 46.387 C 181.907 46.370,184.131 44.398,183.946 44.213 C 183.865 44.132,183.212 44.591,182.493 45.233 M179.600 48.200 C 178.854 48.970,178.413 49.587,178.622 49.571 C 178.982 49.544,181.454 46.800,181.118 46.800 C 181.029 46.800,180.346 47.430,179.600 48.200 M220.618 48.809 C 221.268 49.585,222.123 50.665,222.517 51.209 C 223.208 52.163,223.208 52.151,222.521 50.882 C 222.128 50.157,221.273 49.077,220.621 48.482 L 219.436 47.400 220.618 48.809 M248.254 51.800 C 248.674 53.703,249.248 54.846,248.956 53.200 C 248.820 52.430,248.546 51.530,248.349 51.200 C 248.114 50.808,248.081 51.016,248.254 51.800 M151.246 52.467 C 151.221 52.834,151.096 53.464,150.970 53.867 C 150.752 54.562,150.763 54.563,151.197 53.887 C 151.448 53.496,151.573 52.866,151.473 52.487 C 151.311 51.868,151.288 51.866,151.246 52.467 M198.900 54.287 C 199.505 54.378,200.495 54.378,201.100 54.287 C 201.705 54.195,201.210 54.120,200.000 54.120 C 198.790 54.120,198.295 54.195,198.900 54.287 M193.981 55.790 C 192.782 56.554,191.952 57.184,192.138 57.190 C 192.324 57.195,193.024 56.810,193.692 56.334 C 194.361 55.858,195.559 55.236,196.354 54.952 C 197.283 54.620,197.507 54.429,196.981 54.418 C 196.531 54.408,195.181 55.025,193.981 55.790 M203.771 54.995 C 204.635 55.303,205.843 55.925,206.455 56.377 C 207.841 57.402,208.457 57.472,207.154 56.457 C 205.754 55.366,203.744 54.397,202.920 54.418 C 202.524 54.427,202.907 54.687,203.771 54.995 M150.240 56.840 C 150.093 57.757,150.052 58.585,150.147 58.680 C 150.242 58.776,150.446 58.110,150.600 57.200 C 150.754 56.290,150.796 55.462,150.693 55.360 C 150.590 55.257,150.387 55.923,150.240 56.840 M190.453 58.873 C 189.932 59.514,189.585 60.119,189.682 60.215 C 189.778 60.311,190.265 59.838,190.764 59.164 C 191.936 57.578,191.690 57.348,190.453 58.873 M225.628 58.276 C 225.613 58.758,225.780 59.264,226.000 59.400 C 226.473 59.692,226.473 59.301,226.000 58.200 C 225.669 57.429,225.655 57.431,225.628 58.276 M173.800 58.800 C 173.650 59.273,173.617 59.750,173.727 59.860 C 173.837 59.970,174.050 59.673,174.200 59.200 C 174.350 58.727,174.383 58.250,174.273 58.140 C 174.163 58.030,173.950 58.327,173.800 58.800 M209.481 59.361 C 209.877 59.889,210.257 60.267,210.328 60.200 C 210.538 59.999,209.434 58.400,209.085 58.400 C 208.908 58.400,209.086 58.832,209.481 59.361 M250.139 108.600 C 250.115 135.440,250.208 157.931,250.347 158.579 C 250.580 159.667,250.534 87.426,250.290 68.200 C 250.231 63.580,250.163 81.760,250.139 108.600 M189.023 61.300 C 188.939 61.575,188.675 62.412,188.435 63.160 C 187.918 64.776,187.819 154.295,188.334 155.106 C 188.583 155.500,191.236 155.589,200.227 155.506 L 211.800 155.400 211.902 109.668 C 211.958 84.515,211.868 63.692,211.702 63.396 C 211.536 63.099,211.448 83.637,211.507 109.034 L 211.613 155.212 200.107 155.106 L 188.600 155.000 188.498 109.854 C 188.412 71.363,188.482 64.419,188.977 62.754 C 189.296 61.679,189.471 60.800,189.366 60.800 C 189.261 60.800,189.106 61.025,189.023 61.300 M226.609 62.800 C 226.710 64.010,226.795 107.966,226.797 160.480 L 226.800 255.959 228.211 257.035 C 228.987 257.627,229.715 258.019,229.828 257.905 C 229.941 257.792,229.396 257.323,228.617 256.863 L 227.200 256.027 227.177 159.913 C 227.163 103.587,227.003 63.138,226.789 62.200 C 226.453 60.723,226.439 60.769,226.609 62.800 M173.059 62.688 C 172.921 63.519,172.850 107.400,172.900 160.200 L 172.992 256.200 173.196 158.800 C 173.308 105.230,173.379 61.349,173.354 61.288 C 173.329 61.226,173.196 61.856,173.059 62.688 M149.695 150.400 C 149.638 199.350,149.504 240.120,149.397 241.000 C 149.210 242.543,149.217 242.555,149.602 241.341 C 149.865 240.514,149.967 209.370,149.900 150.741 L 149.798 61.400 149.695 150.400 M250.828 160.200 C 250.828 160.420,251.086 161.050,251.400 161.600 C 251.714 162.150,251.972 162.420,251.972 162.200 C 251.972 161.980,251.714 161.350,251.400 160.800 C 251.086 160.250,250.828 159.980,250.828 160.200 M253.200 163.554 C 253.200 163.883,255.209 164.924,255.426 164.707 C 255.493 164.640,255.020 164.282,254.374 163.911 C 253.728 163.540,253.200 163.380,253.200 163.554 M256.800 165.086 C 257.130 165.208,257.760 165.493,258.200 165.720 C 258.915 166.087,258.942 166.060,258.451 165.465 C 258.149 165.099,257.519 164.814,257.051 164.832 C 256.467 164.853,256.388 164.933,256.800 165.086 M188.678 170.900 C 187.961 171.432,187.383 264.181,188.100 263.738 C 188.265 263.636,188.400 242.773,188.400 217.376 L 188.400 171.200 200.000 171.200 L 211.600 171.200 211.600 216.951 C 211.600 271.408,210.669 265.221,219.582 269.968 C 226.305 273.548,232.081 279.510,236.083 287.000 C 237.898 290.397,238.097 290.162,236.345 286.689 C 232.394 278.851,226.190 272.841,217.240 268.179 C 214.941 266.982,214.025 266.236,213.140 264.840 L 212.000 263.043 212.000 217.136 C 212.000 172.158,211.984 171.220,211.226 170.814 C 210.043 170.181,189.543 170.259,188.678 170.900 M254.129 182.209 C 252.626 183.110,250.794 185.335,250.804 186.247 C 250.806 186.441,251.241 185.880,251.770 185.000 C 252.787 183.310,254.536 182.063,256.572 181.576 C 257.670 181.313,257.694 181.278,256.800 181.245 C 256.250 181.224,255.048 181.658,254.129 182.209 M250.520 188.800 C 250.520 190.010,250.595 190.505,250.687 189.900 C 250.778 189.295,250.778 188.305,250.687 187.700 C 250.595 187.095,250.520 187.590,250.520 188.800 M250.818 191.320 C 250.785 191.913,251.912 193.796,252.759 194.563 C 253.222 194.982,253.600 195.135,253.600 194.905 C 253.600 194.674,253.339 194.385,253.020 194.263 C 252.701 194.141,252.079 193.356,251.638 192.520 C 251.196 191.684,250.827 191.144,250.818 191.320 M258.173 211.973 C 257.968 212.171,257.350 212.413,256.800 212.512 L 255.800 212.691 256.800 212.739 C 257.850 212.790,259.130 212.196,258.762 211.828 C 258.643 211.710,258.379 211.775,258.173 211.973 M253.944 213.624 L 253.000 214.447 254.200 213.745 C 255.779 212.820,255.803 212.800,255.311 212.800 C 255.079 212.800,254.464 213.171,253.944 213.624 M250.254 219.856 C 249.933 222.201,250.009 239.801,250.347 241.375 C 250.486 242.021,250.600 237.026,250.600 230.275 C 250.600 223.523,250.579 218.000,250.554 218.000 C 250.529 218.000,250.394 218.835,250.254 219.856 M250.818 242.920 C 250.756 244.029,255.241 249.200,256.264 249.200 C 256.441 249.200,255.639 248.372,254.482 247.359 C 253.324 246.346,252.030 244.861,251.606 244.059 C 251.182 243.257,250.827 242.744,250.818 242.920 M148.236 244.330 C 147.915 244.952,146.920 246.122,146.025 246.930 C 145.130 247.739,144.541 248.400,144.716 248.400 C 145.173 248.400,148.223 245.164,148.767 244.100 C 149.021 243.605,149.136 243.200,149.024 243.200 C 148.912 243.200,148.558 243.709,148.236 244.330 M142.800 250.129 C 142.470 250.406,141.571 251.346,140.803 252.217 C 139.690 253.478,139.832 253.397,141.503 251.815 C 143.399 250.020,143.804 249.574,143.500 249.613 C 143.445 249.620,143.130 249.852,142.800 250.129 M258.000 251.325 C 258.000 251.394,258.585 251.979,259.300 252.625 L 260.600 253.800 259.425 252.500 C 258.330 251.288,258.000 251.016,258.000 251.325 M260.800 254.114 C 260.800 254.237,261.925 255.837,263.300 257.670 C 264.675 259.503,266.123 261.452,266.519 262.002 C 266.914 262.551,267.111 262.730,266.957 262.400 C 266.314 261.026,260.800 253.604,260.800 254.114 M136.744 257.100 C 135.475 258.632,135.019 259.342,135.481 259.065 C 135.993 258.758,137.769 256.400,137.489 256.400 C 137.398 256.400,137.063 256.715,136.744 257.100 M167.800 259.279 C 165.384 261.048,165.135 261.494,167.400 259.994 C 169.836 258.382,169.771 258.434,169.567 258.254 C 169.475 258.173,168.680 258.635,167.800 259.279 M161.924 264.133 C 160.232 265.710,158.269 267.720,157.562 268.600 C 156.855 269.480,157.609 268.844,159.238 267.187 C 160.867 265.529,162.894 263.583,163.742 262.862 C 164.590 262.141,165.220 261.487,165.142 261.408 C 165.063 261.330,163.615 262.556,161.924 264.133 M235.887 262.409 C 236.595 263.151,237.242 263.678,237.325 263.579 C 237.408 263.481,236.829 262.873,236.038 262.229 L 234.600 261.058 235.887 262.409 M131.814 264.235 C 131.441 264.804,131.205 265.338,131.289 265.422 C 131.373 265.507,131.758 265.041,132.144 264.388 C 133.006 262.928,132.748 262.809,131.814 264.235 M239.552 265.900 C 240.568 266.945,241.479 267.751,241.575 267.692 C 241.797 267.554,238.325 264.000,237.968 264.000 C 237.822 264.000,238.535 264.855,239.552 265.900 M186.458 265.607 C 185.972 266.265,184.275 267.453,182.687 268.248 C 175.521 271.834,168.105 278.490,165.247 283.900 C 164.401 285.503,165.050 284.855,166.540 282.611 C 170.007 277.390,175.498 272.513,181.408 269.406 C 184.756 267.646,188.029 265.096,187.552 264.618 C 187.437 264.504,186.945 264.948,186.458 265.607 M268.600 265.600 C 268.941 266.260,269.311 266.800,269.421 266.800 C 269.531 266.800,269.341 266.260,269.000 265.600 C 268.659 264.940,268.289 264.400,268.179 264.400 C 268.069 264.400,268.259 264.940,268.600 265.600 M243.266 270.000 C 243.995 270.990,244.639 271.875,244.696 271.967 C 244.753 272.058,244.893 272.040,245.007 271.926 C 245.121 271.812,244.478 270.927,243.577 269.960 L 241.941 268.200 243.266 270.000 M151.400 277.200 C 151.059 277.860,150.869 278.400,150.979 278.400 C 151.089 278.400,151.459 277.860,151.800 277.200 C 152.141 276.540,152.331 276.000,152.221 276.000 C 152.111 276.000,151.741 276.540,151.400 277.200 M149.000 281.861 C 148.664 282.665,148.482 283.415,148.595 283.528 C 148.708 283.641,148.800 283.635,148.800 283.516 C 148.800 283.396,149.072 282.646,149.405 281.849 C 149.738 281.052,149.921 280.400,149.811 280.400 C 149.701 280.400,149.336 281.058,149.000 281.861 M123.449 283.415 C 123.312 283.773,123.215 284.366,123.234 284.733 C 123.253 285.100,123.427 284.869,123.621 284.220 C 123.998 282.958,123.865 282.333,123.449 283.415 M276.028 283.076 C 276.118 284.115,276.744 284.996,276.772 284.124 C 276.787 283.642,276.620 283.136,276.400 283.000 C 276.180 282.864,276.013 282.898,276.028 283.076 M122.649 286.215 C 122.512 286.573,122.421 287.346,122.446 287.933 C 122.480 288.732,122.570 288.598,122.804 287.400 C 123.135 285.700,123.062 285.140,122.649 286.215 M277.058 286.800 C 277.375 288.525,277.602 288.851,277.594 287.567 C 277.591 287.035,277.411 286.330,277.194 286.000 C 276.918 285.578,276.877 285.815,277.058 286.800 M146.499 288.390 C 145.796 290.642,145.913 291.358,146.643 289.273 C 146.976 288.323,147.192 287.376,147.123 287.169 C 147.054 286.961,146.773 287.511,146.499 288.390 M162.561 289.049 C 162.014 290.287,161.619 291.450,161.683 291.635 C 161.747 291.820,162.284 290.808,162.876 289.386 C 164.196 286.212,163.938 285.937,162.561 289.049 M121.849 289.815 C 121.712 290.173,121.623 291.036,121.650 291.733 C 121.692 292.787,121.750 292.698,121.999 291.200 C 122.317 289.286,122.259 288.748,121.849 289.815 M277.868 290.600 C 278.171 292.577,278.402 292.914,278.394 291.367 C 278.391 290.725,278.216 289.930,278.005 289.600 C 277.745 289.191,277.701 289.510,277.868 290.600 M237.858 290.800 C 238.369 292.795,239.144 294.604,239.142 293.800 C 239.141 293.360,238.794 292.280,238.371 291.400 C 237.948 290.520,237.717 290.250,237.858 290.800 M254.274 292.400 C 254.408 293.390,254.665 294.560,254.844 295.000 C 255.039 295.478,255.072 295.075,254.926 294.000 C 254.792 293.010,254.535 291.840,254.356 291.400 C 254.161 290.922,254.128 291.325,254.274 292.400 M145.249 293.000 C 145.216 293.440,145.096 294.250,144.983 294.800 L 144.777 295.800 145.206 294.819 C 145.442 294.279,145.561 293.469,145.472 293.019 C 145.313 292.221,145.307 292.221,145.249 293.000 M161.067 292.667 C 160.920 292.813,160.815 293.398,160.834 293.967 C 160.868 294.981,160.875 294.979,161.221 293.820 C 161.585 292.603,161.531 292.202,161.067 292.667 M278.699 295.800 C 278.816 297.340,278.977 298.675,279.056 298.767 C 279.334 299.088,279.117 294.989,278.803 294.000 C 278.619 293.419,278.575 294.173,278.699 295.800 M121.056 294.484 C 120.921 294.988,120.835 296.390,120.864 297.600 C 120.915 299.685,120.932 299.643,121.203 296.800 C 121.504 293.637,121.462 292.971,121.056 294.484 M239.462 296.200 C 239.596 297.080,239.772 297.875,239.853 297.967 C 240.156 298.310,239.929 296.168,239.581 295.400 C 239.329 294.842,239.293 295.085,239.462 296.200 M160.249 295.815 C 160.112 296.173,160.021 296.946,160.046 297.533 C 160.080 298.332,160.170 298.198,160.404 297.000 C 160.735 295.300,160.662 294.740,160.249 295.815 M255.291 297.400 C 255.280 298.280,255.410 299.900,255.582 301.000 C 255.831 302.603,255.896 302.722,255.907 301.600 C 255.915 300.830,255.784 299.210,255.617 298.000 C 255.352 296.084,255.310 296.007,255.291 297.400 M144.222 299.622 C 144.066 301.410,144.023 302.956,144.126 303.059 C 144.229 303.162,144.442 301.785,144.600 300.000 C 144.758 298.215,144.801 296.668,144.697 296.563 C 144.592 296.458,144.378 297.835,144.222 299.622 M159.450 300.050 C 159.121 301.695,159.180 309.609,159.528 310.484 C 159.678 310.860,159.800 308.385,159.800 304.984 C 159.800 298.185,159.806 298.270,159.450 300.050 M240.200 304.998 C 240.200 308.391,240.322 310.859,240.472 310.484 C 240.621 310.108,240.744 307.640,240.744 305.000 C 240.744 302.360,240.621 299.891,240.472 299.514 C 240.322 299.137,240.200 301.604,240.200 304.998 M279.348 305.200 C 279.348 307.510,279.414 308.455,279.495 307.300 C 279.576 306.145,279.576 304.255,279.495 303.100 C 279.414 301.945,279.348 302.890,279.348 305.200 M120.544 305.200 C 120.544 307.290,120.612 308.145,120.694 307.100 C 120.776 306.055,120.776 304.345,120.694 303.300 C 120.612 302.255,120.544 303.110,120.544 305.200 M144.081 309.000 C 144.075 309.660,144.210 311.100,144.382 312.200 C 144.687 314.159,144.694 314.167,144.724 312.600 C 144.740 311.720,144.605 310.280,144.423 309.400 C 144.140 308.030,144.090 307.973,144.081 309.000 M255.388 310.988 C 255.231 312.664,255.189 314.123,255.295 314.229 C 255.401 314.334,255.612 313.046,255.765 311.365 C 255.917 309.684,255.959 308.226,255.858 308.124 C 255.757 308.023,255.545 309.312,255.388 310.988 M120.840 313.033 C 120.862 314.335,121.018 315.850,121.188 316.400 C 121.357 316.950,121.405 315.960,121.293 314.200 C 121.052 310.390,120.784 309.700,120.840 313.033 M160.006 312.833 C 160.009 313.585,160.192 314.470,160.412 314.800 C 160.691 315.219,160.733 314.858,160.550 313.600 C 160.225 311.359,159.998 311.040,160.006 312.833 M278.874 313.050 C 278.833 313.957,278.705 315.308,278.589 316.050 C 278.397 317.284,278.416 317.315,278.807 316.416 C 279.043 315.876,279.171 314.526,279.092 313.416 C 278.958 311.540,278.943 311.515,278.874 313.050 M239.654 312.800 C 239.619 313.350,239.496 314.250,239.383 314.800 L 239.177 315.800 239.607 314.815 C 239.843 314.274,239.965 313.374,239.878 312.815 L 239.720 311.800 239.654 312.800 M145.062 316.200 C 145.196 317.080,145.372 317.875,145.453 317.967 C 145.756 318.310,145.529 316.168,145.181 315.400 C 144.929 314.842,144.893 315.085,145.062 316.200 M254.656 315.684 C 254.521 316.188,254.428 317.050,254.449 317.600 C 254.472 318.189,254.631 317.871,254.836 316.825 C 255.203 314.952,255.073 314.127,254.656 315.684 M160.800 316.510 C 160.800 317.083,160.987 317.668,161.216 317.810 C 161.489 317.979,161.538 317.677,161.360 316.934 C 160.992 315.401,160.800 315.256,160.800 316.510 M238.846 316.267 C 238.821 316.524,238.684 317.064,238.541 317.467 C 238.340 318.036,238.394 318.097,238.779 317.742 C 239.052 317.491,239.189 316.951,239.084 316.542 C 238.979 316.134,238.872 316.010,238.846 316.267 M121.606 318.833 C 121.609 319.585,121.777 320.461,121.979 320.779 C 122.216 321.154,122.265 320.730,122.118 319.579 C 121.835 317.370,121.598 317.025,121.606 318.833 M278.059 318.800 C 278.020 319.350,277.889 320.250,277.767 320.800 C 277.576 321.662,277.608 321.702,277.997 321.091 C 278.246 320.702,278.377 319.802,278.289 319.091 C 278.164 318.087,278.113 318.022,278.059 318.800 M237.800 319.200 C 237.650 319.673,237.617 320.150,237.727 320.260 C 237.837 320.370,238.050 320.073,238.200 319.600 C 238.350 319.127,238.383 318.650,238.273 318.540 C 238.163 318.430,237.950 318.727,237.800 319.200 M145.844 319.800 C 146.173 321.271,146.402 321.590,146.394 320.567 C 146.391 320.145,146.205 319.530,145.982 319.200 C 145.685 318.762,145.648 318.924,145.844 319.800 M236.282 323.011 C 235.692 324.215,235.294 325.200,235.398 325.200 C 235.667 325.200,237.684 321.151,237.505 320.971 C 237.423 320.889,236.873 321.807,236.282 323.011 M122.406 322.633 C 122.409 323.275,122.584 324.070,122.795 324.400 C 123.055 324.809,123.099 324.490,122.932 323.400 C 122.629 321.423,122.398 321.086,122.406 322.633 M277.246 322.867 C 277.221 323.234,277.096 323.864,276.970 324.267 C 276.752 324.962,276.763 324.963,277.197 324.287 C 277.448 323.896,277.573 323.266,277.473 322.887 C 277.311 322.268,277.288 322.266,277.246 322.867 M123.200 326.110 C 123.200 326.683,123.387 327.268,123.616 327.410 C 123.889 327.579,123.938 327.277,123.760 326.534 C 123.392 325.001,123.200 324.856,123.200 326.110 M165.244 326.500 C 166.351 328.611,170.497 333.486,173.000 335.619 C 173.880 336.369,173.130 335.431,171.333 333.536 C 169.537 331.640,167.396 329.079,166.577 327.844 C 165.053 325.549,164.400 324.890,165.244 326.500 M233.423 327.844 C 232.604 329.079,230.463 331.644,228.667 333.544 C 225.473 336.923,225.774 337.068,229.058 333.733 C 230.883 331.879,234.008 327.910,234.753 326.500 C 235.607 324.883,234.945 325.553,233.423 327.844 M150.006 330.450 C 149.997 330.805,152.033 334.400,152.242 334.400 C 152.338 334.400,152.060 333.725,151.624 332.900 C 150.678 331.111,150.015 330.106,150.006 330.450 M248.186 333.300 L 247.552 334.600 248.367 333.600 C 249.152 332.637,249.408 332.000,249.010 332.000 C 248.906 332.000,248.535 332.585,248.186 333.300 M174.808 337.113 C 174.819 337.476,180.021 340.912,180.236 340.697 C 180.324 340.610,179.136 339.703,177.598 338.682 C 176.059 337.661,174.804 336.955,174.808 337.113 M223.585 338.018 L 222.200 339.235 223.695 338.318 C 224.517 337.813,225.192 337.265,225.195 337.100 C 225.203 336.637,225.069 336.713,223.585 338.018 M154.740 338.316 C 155.233 339.009,155.844 339.704,156.097 339.860 C 156.350 340.017,156.154 339.577,155.660 338.884 C 155.167 338.191,154.556 337.496,154.303 337.340 C 154.050 337.183,154.246 337.623,154.740 338.316 M219.800 340.417 C 218.700 341.064,217.964 341.595,218.165 341.597 C 218.606 341.601,222.000 339.642,222.000 339.383 C 222.000 339.122,222.004 339.120,219.800 340.417 M157.654 341.966 C 158.394 342.828,159.156 343.548,159.346 343.566 C 159.537 343.585,159.087 342.895,158.346 342.034 C 157.606 341.172,156.844 340.452,156.654 340.434 C 156.463 340.415,156.913 341.105,157.654 341.966 M240.504 343.500 C 237.571 346.641,236.742 347.740,238.640 345.970 C 239.822 344.869,243.752 340.400,243.540 340.400 C 243.463 340.400,242.097 341.795,240.504 343.500 M182.400 341.781 C 182.400 342.216,187.351 344.044,191.800 345.252 C 194.841 346.078,205.902 345.926,209.000 345.015 C 210.320 344.627,211.897 344.220,212.505 344.109 C 213.113 343.998,213.720 343.729,213.855 343.511 C 214.000 343.277,213.792 343.208,213.350 343.342 C 203.008 346.475,193.226 346.199,184.850 342.539 C 182.582 341.548,182.400 341.492,182.400 341.781 M215.800 342.378 C 214.920 342.795,214.397 343.150,214.639 343.168 C 215.128 343.204,217.600 342.038,217.600 341.771 C 217.600 341.530,217.576 341.538,215.800 342.378 M160.400 345.000 C 160.917 345.550,161.406 346.000,161.488 346.000 C 161.821 346.000,160.172 344.024,159.830 344.013 C 159.627 344.006,159.883 344.450,160.400 345.000 M131.209 345.100 C 131.214 345.265,131.585 345.850,132.033 346.400 L 132.848 347.400 132.214 346.100 C 131.611 344.865,131.189 344.445,131.209 345.100 M266.260 348.596 C 265.017 350.464,264.000 352.127,264.000 352.292 C 264.000 352.457,264.780 351.423,265.733 349.996 C 268.491 345.866,268.904 345.200,268.706 345.200 C 268.604 345.200,267.503 346.728,266.260 348.596 M162.000 346.189 C 162.000 346.440,164.428 348.650,165.661 349.523 C 167.067 350.517,166.391 349.745,164.200 347.853 C 162.990 346.809,162.000 346.060,162.000 346.189 M235.200 348.468 C 234.152 349.420,233.901 349.765,234.600 349.295 C 235.704 348.551,237.538 346.777,237.162 346.817 C 237.073 346.826,236.190 347.570,235.200 348.468 M135.584 351.619 C 137.041 353.765,140.000 357.395,140.000 357.038 C 140.000 356.814,139.086 355.633,135.474 351.186 C 134.459 349.936,134.469 349.978,135.584 351.619 M167.167 350.537 C 167.740 351.250,169.200 352.187,169.200 351.841 C 169.200 351.739,168.615 351.244,167.900 350.743 C 166.978 350.096,166.765 350.036,167.167 350.537 M230.561 351.745 C 229.219 352.655,227.779 353.631,227.361 353.914 C 226.942 354.197,227.534 353.949,228.675 353.364 C 230.417 352.471,233.843 349.970,233.200 350.061 C 233.090 350.076,231.902 350.834,230.561 351.745 M262.067 354.377 C 261.370 355.244,260.800 356.067,260.800 356.207 C 260.800 356.436,261.633 355.480,263.158 353.500 C 264.252 352.082,263.292 352.852,262.067 354.377 M173.600 354.502 C 173.881 354.800,176.459 356.202,177.300 356.515 C 178.722 357.043,177.941 356.392,176.100 355.514 C 173.772 354.404,173.343 354.230,173.600 354.502 M224.085 355.391 C 222.165 356.405,221.414 356.995,222.612 356.548 C 223.411 356.250,226.061 354.845,226.367 354.557 C 226.803 354.146,225.628 354.575,224.085 355.391 M258.607 358.393 C 257.752 359.269,257.130 360.061,257.226 360.155 C 257.322 360.248,258.088 359.531,258.928 358.562 C 260.831 356.368,260.668 356.282,258.607 358.393 M144.000 361.314 C 146.090 363.467,148.880 366.049,150.200 367.052 C 152.421 368.740,151.838 368.084,149.000 365.703 C 148.340 365.149,146.090 363.054,144.000 361.048 L 140.200 357.400 144.000 361.314 M215.400 358.800 C 215.108 359.273,215.499 359.273,216.600 358.800 C 217.371 358.469,217.369 358.455,216.524 358.428 C 216.042 358.413,215.536 358.580,215.400 358.800 M185.633 359.344 C 185.725 359.423,186.340 359.608,187.000 359.756 C 187.876 359.952,188.038 359.915,187.600 359.618 C 187.060 359.253,185.232 358.998,185.633 359.344 M212.400 359.618 C 211.962 359.915,212.124 359.952,213.000 359.756 C 214.471 359.427,214.790 359.198,213.767 359.206 C 213.345 359.209,212.730 359.395,212.400 359.618 M190.200 360.400 C 191.892 360.831,193.344 360.831,192.000 360.400 C 191.450 360.224,190.550 360.083,190.000 360.087 C 189.102 360.094,189.122 360.126,190.200 360.400 M208.000 360.400 C 206.656 360.831,208.108 360.831,209.800 360.400 C 210.878 360.126,210.898 360.094,210.000 360.087 C 209.450 360.083,208.550 360.224,208.000 360.400 M197.500 361.096 C 198.875 361.174,201.125 361.174,202.500 361.096 C 203.875 361.018,202.750 360.954,200.000 360.954 C 197.250 360.954,196.125 361.018,197.500 361.096 M253.532 363.500 C 252.131 364.765,250.178 366.500,249.192 367.355 C 248.206 368.211,247.760 368.667,248.200 368.369 C 248.901 367.894,250.663 366.404,255.356 362.316 C 256.040 361.720,256.483 361.225,256.340 361.216 C 256.198 361.207,254.934 362.235,253.532 363.500 M152.800 368.958 C 152.800 369.252,156.872 372.062,157.045 371.888 C 157.137 371.796,156.219 371.062,155.006 370.257 C 153.793 369.451,152.800 368.867,152.800 368.958 M245.400 370.053 C 243.034 371.824,242.722 372.306,244.880 370.854 C 245.913 370.159,246.869 369.412,247.003 369.195 C 247.355 368.626,247.183 368.718,245.400 370.053 M241.500 372.629 C 240.895 372.957,240.400 373.310,240.400 373.413 C 240.400 373.799,241.032 373.557,242.000 372.800 C 243.189 371.870,243.011 371.809,241.500 372.629 M166.000 376.989 C 166.000 377.306,168.900 378.433,169.128 378.205 C 169.241 378.092,169.235 378.000,169.116 378.000 C 168.996 378.000,168.246 377.728,167.449 377.395 C 166.652 377.062,166.000 376.879,166.000 376.989 M230.600 378.378 C 229.720 378.795,229.113 379.150,229.251 379.168 C 229.640 379.218,232.400 378.014,232.400 377.795 C 232.400 377.527,232.399 377.527,230.600 378.378 M173.000 379.971 C 173.880 380.394,174.870 380.747,175.200 380.755 C 175.886 380.771,173.839 379.827,172.374 379.451 C 171.838 379.314,172.120 379.548,173.000 379.971 M222.056 381.259 C 221.317 381.472,220.787 381.720,220.879 381.812 C 221.081 382.014,224.000 381.237,224.000 380.981 C 224.000 380.746,223.682 380.791,222.056 381.259 M180.800 382.400 C 182.168 382.838,183.219 382.838,182.200 382.400 C 181.760 382.211,181.040 382.062,180.600 382.068 C 179.957 382.077,179.996 382.143,180.800 382.400 M217.400 382.423 C 216.740 382.611,215.480 382.946,214.600 383.167 L 213.000 383.569 214.800 383.341 C 217.141 383.045,220.897 382.048,219.600 382.067 C 219.050 382.075,218.060 382.235,217.400 382.423 M189.600 384.020 C 192.014 384.450,193.906 384.413,191.800 383.977 C 190.920 383.795,189.660 383.658,189.000 383.673 C 188.100 383.693,188.250 383.780,189.600 384.020 M208.200 384.000 C 206.853 384.241,206.790 384.291,207.800 384.314 C 208.460 384.329,209.810 384.197,210.800 384.020 C 212.415 383.733,212.456 383.701,211.200 383.707 C 210.430 383.711,209.080 383.842,208.200 384.000 M197.717 384.697 C 199.211 384.774,201.551 384.774,202.917 384.696 C 204.282 384.618,203.060 384.555,200.200 384.555 C 197.340 384.556,196.222 384.620,197.717 384.697 " stroke="none" fill="#655055" fill-rule="evenodd"></path><path id="path4" d="M193.820 15.947 C 193.172 16.086,195.950 16.200,199.994 16.200 C 204.038 16.200,206.819 16.086,206.173 15.947 C 205.528 15.808,202.750 15.695,200.000 15.695 C 197.250 15.695,194.469 15.808,193.820 15.947 M189.000 16.810 C 188.466 17.047,188.798 17.086,190.000 16.927 C 190.990 16.796,191.875 16.624,191.967 16.544 C 192.314 16.243,189.764 16.472,189.000 16.810 M208.033 16.544 C 208.125 16.624,209.010 16.796,210.000 16.927 C 211.202 17.086,211.534 17.047,211.000 16.810 C 210.236 16.472,207.686 16.243,208.033 16.544 M186.000 17.600 C 185.467 17.945,185.467 17.988,186.000 17.988 C 186.330 17.988,186.870 17.813,187.200 17.600 C 187.733 17.255,187.733 17.212,187.200 17.212 C 186.870 17.212,186.330 17.387,186.000 17.600 M177.065 21.047 C 176.440 21.386,176.015 21.748,176.120 21.853 C 176.224 21.957,176.915 21.674,177.655 21.223 C 179.213 20.273,178.748 20.135,177.065 21.047 M222.345 21.223 C 223.085 21.674,223.777 21.957,223.882 21.851 C 224.084 21.650,221.873 20.399,221.320 20.401 C 221.144 20.402,221.605 20.772,222.345 21.223 M170.182 25.465 C 166.836 28.043,161.809 33.031,160.166 35.400 C 159.332 36.604,159.222 36.859,159.890 36.040 C 163.576 31.522,169.452 26.042,172.348 24.421 C 172.703 24.222,172.897 23.963,172.778 23.845 C 172.660 23.727,171.492 24.456,170.182 25.465 M227.211 23.875 C 227.217 24.054,227.977 24.650,228.901 25.200 C 231.422 26.700,239.592 35.024,241.563 38.100 C 243.291 40.796,244.281 41.876,242.934 39.596 C 240.961 36.256,236.732 31.343,232.951 28.000 C 230.410 25.753,227.196 23.444,227.211 23.875 M195.800 38.729 C 194.832 38.893,196.412 39.015,199.800 39.039 C 204.749 39.074,205.744 39.199,208.361 40.120 C 209.989 40.693,211.159 41.006,210.961 40.815 C 209.389 39.306,200.015 38.017,195.800 38.729 M156.986 40.100 L 156.352 41.400 157.167 40.400 C 157.952 39.437,158.208 38.800,157.810 38.800 C 157.706 38.800,157.335 39.385,156.986 40.100 M190.100 40.234 C 188.307 41.018,188.460 41.321,190.300 40.629 C 191.125 40.319,192.070 39.974,192.400 39.864 C 192.800 39.730,192.734 39.664,192.200 39.664 C 191.760 39.665,190.815 39.921,190.100 40.234 M185.362 42.739 C 184.063 43.585,182.643 44.710,182.206 45.239 C 181.515 46.076,181.566 46.062,182.606 45.127 C 183.263 44.537,184.869 43.412,186.176 42.627 C 187.484 41.842,188.366 41.200,188.138 41.200 C 187.911 41.200,186.661 41.892,185.362 42.739 M213.983 42.729 C 215.374 43.570,217.781 45.505,219.332 47.029 C 221.301 48.964,221.771 49.305,220.889 48.159 C 219.037 45.752,213.124 41.200,211.849 41.200 C 211.632 41.200,212.593 41.888,213.983 42.729 M179.574 47.710 C 176.578 51.384,176.587 51.630,179.597 48.292 C 180.543 47.242,181.235 46.302,181.135 46.202 C 181.035 46.102,180.333 46.780,179.574 47.710 M151.829 51.429 C 151.681 52.015,151.638 52.572,151.732 52.666 C 151.827 52.760,152.024 52.358,152.171 51.771 C 152.319 51.185,152.362 50.628,152.268 50.534 C 152.173 50.440,151.976 50.842,151.829 51.429 M176.336 52.100 C 175.359 53.683,174.660 55.194,174.833 55.352 C 174.925 55.436,175.487 54.536,176.082 53.352 C 177.193 51.143,177.324 50.501,176.336 52.100 M223.160 51.800 C 223.834 53.105,224.388 53.828,224.385 53.400 C 224.383 53.180,224.014 52.550,223.564 52.000 C 223.021 51.336,222.885 51.269,223.160 51.800 M248.434 53.800 C 248.422 54.240,248.587 54.870,248.800 55.200 C 249.314 55.995,249.314 54.996,248.800 53.800 L 248.456 53.000 248.434 53.800 M151.073 54.153 C 150.923 54.545,150.811 55.166,150.825 55.533 C 150.842 55.975,150.981 55.874,151.237 55.234 C 151.449 54.703,151.561 54.082,151.485 53.854 C 151.409 53.627,151.224 53.761,151.073 54.153 M198.700 54.689 C 199.415 54.778,200.585 54.778,201.300 54.689 C 202.015 54.601,201.430 54.528,200.000 54.528 C 198.570 54.528,197.985 54.601,198.700 54.689 M174.155 56.700 C 174.034 57.085,173.770 57.813,173.567 58.319 C 173.365 58.824,173.221 59.724,173.246 60.319 C 173.287 61.275,173.328 61.238,173.605 60.000 C 173.777 59.230,174.104 58.015,174.331 57.300 C 174.558 56.585,174.661 56.000,174.560 56.000 C 174.458 56.000,174.276 56.315,174.155 56.700 M249.287 57.600 C 249.291 58.150,249.432 59.140,249.600 59.800 L 249.905 61.000 249.913 59.800 C 249.917 59.140,249.776 58.150,249.600 57.600 L 249.280 56.600 249.287 57.600 M150.282 58.350 C 150.127 59.093,150.020 60.173,150.044 60.750 C 150.073 61.442,150.210 61.187,150.447 60.000 C 150.645 59.010,150.752 57.930,150.685 57.600 C 150.619 57.270,150.438 57.608,150.282 58.350 M226.258 59.200 C 226.575 60.925,226.802 61.251,226.794 59.967 C 226.791 59.435,226.611 58.730,226.394 58.400 C 226.118 57.978,226.077 58.215,226.258 59.200 M190.147 60.008 C 189.562 60.893,189.154 61.684,189.241 61.766 C 189.329 61.848,189.888 61.125,190.485 60.158 C 191.843 57.956,191.582 57.840,190.147 60.008 M209.200 59.390 C 209.200 59.495,209.559 60.170,209.999 60.890 C 210.938 62.431,211.069 62.081,210.190 60.380 C 209.641 59.319,209.200 58.878,209.200 59.390 M211.000 108.476 L 211.000 154.600 200.000 154.600 L 189.000 154.600 189.000 108.724 C 189.000 83.492,188.864 63.214,188.698 63.663 C 188.532 64.112,188.442 84.846,188.498 109.739 L 188.600 155.000 200.100 155.106 L 211.600 155.212 211.560 109.706 C 211.538 84.678,211.403 63.784,211.260 63.276 C 211.117 62.767,211.000 83.107,211.000 108.476 M227.299 159.651 C 227.205 250.911,227.236 255.931,227.900 256.451 C 228.520 256.937,228.543 256.927,228.101 256.360 C 227.706 255.853,227.580 235.670,227.500 159.560 L 227.398 63.400 227.299 159.651 M172.400 160.367 L 172.400 255.933 171.300 256.795 L 170.200 257.657 171.500 256.942 L 172.800 256.228 172.800 160.514 C 172.800 107.871,172.710 64.800,172.600 64.800 C 172.490 64.800,172.400 107.805,172.400 160.367 M250.006 158.433 C 250.009 158.965,250.189 159.670,250.406 160.000 C 250.682 160.422,250.723 160.185,250.542 159.200 C 250.225 157.475,249.998 157.149,250.006 158.433 M252.238 163.256 C 253.139 164.270,255.866 165.590,257.000 165.563 C 257.440 165.553,256.852 165.221,255.694 164.826 C 254.536 164.432,253.255 163.724,252.847 163.254 C 252.440 162.784,251.964 162.400,251.791 162.400 C 251.618 162.400,251.819 162.785,252.238 163.256 M252.175 183.300 C 250.227 185.610,249.320 189.507,250.351 191.134 C 250.549 191.446,250.610 190.843,250.498 189.680 C 250.251 187.108,250.942 185.084,252.653 183.374 C 253.409 182.618,253.857 182.000,253.649 182.000 C 253.441 182.000,252.778 182.585,252.175 183.300 M252.198 194.337 C 252.634 194.852,253.353 195.459,253.796 195.686 C 254.645 196.121,254.521 195.987,252.603 194.394 C 251.448 193.435,251.434 193.433,252.198 194.337 M255.400 196.339 C 256.637 196.868,258.710 197.277,258.000 196.851 C 257.670 196.654,256.770 196.380,256.000 196.244 C 255.056 196.077,254.860 196.108,255.400 196.339 M252.213 214.613 C 251.436 215.391,250.811 216.246,250.824 216.513 C 250.836 216.781,251.061 216.651,251.324 216.224 C 251.586 215.797,252.335 214.942,252.989 214.324 C 253.643 213.706,254.054 213.200,253.902 213.200 C 253.751 213.200,252.991 213.836,252.213 214.613 M250.249 217.815 C 250.112 218.173,250.021 218.946,250.046 219.533 C 250.080 220.332,250.170 220.198,250.404 219.000 C 250.735 217.300,250.662 216.740,250.249 217.815 M250.006 241.233 C 250.009 241.765,250.189 242.470,250.406 242.800 C 250.682 243.222,250.723 242.985,250.542 242.000 C 250.225 240.275,249.998 239.949,250.006 241.233 M149.177 242.806 C 148.835 243.876,148.687 244.670,148.848 244.570 C 149.243 244.326,150.098 241.687,149.932 241.226 C 149.859 241.025,149.520 241.736,149.177 242.806 M145.861 247.439 C 144.575 248.658,143.595 249.728,143.684 249.817 C 143.773 249.906,144.910 248.904,146.210 247.590 C 149.179 244.590,148.965 244.498,145.861 247.439 M253.376 247.091 C 254.463 248.241,255.438 249.096,255.543 248.991 C 255.647 248.886,255.655 248.755,255.559 248.700 C 255.463 248.645,254.488 247.790,253.393 246.800 L 251.400 245.000 253.376 247.091 M256.800 250.208 C 256.800 250.356,257.880 251.656,259.200 253.097 C 260.520 254.537,261.600 255.870,261.600 256.058 C 261.600 256.246,261.796 256.400,262.036 256.400 C 262.487 256.400,261.546 255.178,258.549 251.869 C 257.587 250.807,256.800 250.059,256.800 250.208 M140.256 253.289 C 138.820 254.878,137.722 256.255,137.817 256.350 C 137.911 256.445,138.393 256.000,138.888 255.361 C 139.383 254.722,140.580 253.345,141.548 252.300 C 142.517 251.255,143.210 250.400,143.088 250.400 C 142.966 250.400,141.691 251.700,140.256 253.289 M228.833 256.923 C 231.022 258.544,233.198 259.930,233.193 259.699 C 233.185 259.381,229.397 256.800,228.938 256.800 C 228.789 256.800,228.742 256.856,228.833 256.923 M263.999 259.152 C 264.960 260.522,265.927 261.755,266.147 261.891 C 266.368 262.027,265.762 261.018,264.801 259.648 C 263.840 258.278,262.873 257.045,262.653 256.909 C 262.432 256.773,263.038 257.782,263.999 259.152 M168.629 258.209 C 168.205 258.529,167.935 258.868,168.029 258.961 C 168.123 259.055,168.625 258.787,169.144 258.366 C 170.238 257.479,169.779 257.339,168.629 258.209 M135.456 259.300 C 132.954 262.604,127.736 271.959,127.013 274.436 C 126.858 274.966,127.890 273.113,129.306 270.317 C 130.721 267.521,132.980 263.606,134.324 261.617 C 136.748 258.029,137.348 256.802,135.456 259.300 M235.200 261.433 C 238.891 264.544,243.786 269.913,246.109 273.400 C 248.340 276.750,249.786 278.657,248.989 277.200 C 246.282 272.248,238.399 263.149,234.800 260.821 C 233.698 260.108,233.783 260.239,235.200 261.433 M160.264 265.300 C 156.924 268.672,154.558 271.601,152.344 275.100 C 151.892 275.815,151.610 276.400,151.719 276.400 C 151.828 276.400,152.520 275.457,153.258 274.304 C 155.369 271.007,158.208 267.646,161.534 264.505 C 163.220 262.913,164.449 261.608,164.264 261.605 C 164.079 261.602,162.279 263.265,160.264 265.300 M266.950 263.400 C 267.274 264.060,267.831 264.960,268.189 265.400 C 268.797 266.148,268.801 266.122,268.250 265.000 C 267.926 264.340,267.369 263.440,267.011 263.000 C 266.403 262.252,266.399 262.278,266.950 263.400 M270.278 269.395 C 270.644 270.162,271.014 270.719,271.101 270.632 C 271.284 270.449,270.070 268.000,269.796 268.000 C 269.695 268.000,269.912 268.628,270.278 269.395 M271.310 271.500 C 271.901 272.626,273.180 275.661,273.628 277.000 C 274.258 278.884,274.946 279.883,274.436 278.173 C 273.713 275.754,271.709 271.200,271.366 271.200 C 271.249 271.200,271.224 271.335,271.310 271.500 M125.833 277.233 C 125.467 278.150,125.260 278.993,125.374 279.107 C 125.488 279.221,125.690 278.974,125.823 278.557 C 125.956 278.141,126.237 277.372,126.448 276.848 C 126.658 276.325,126.756 275.822,126.665 275.732 C 126.574 275.641,126.200 276.317,125.833 277.233 M150.600 278.000 C 150.259 278.660,150.069 279.200,150.179 279.200 C 150.289 279.200,150.659 278.660,151.000 278.000 C 151.341 277.340,151.531 276.800,151.421 276.800 C 151.311 276.800,150.941 277.340,150.600 278.000 M274.828 280.276 C 274.813 280.758,274.980 281.264,275.200 281.400 C 275.673 281.692,275.673 281.301,275.200 280.200 C 274.869 279.429,274.855 279.431,274.828 280.276 M275.606 282.633 C 275.609 283.055,275.795 283.670,276.018 284.000 C 276.315 284.438,276.352 284.276,276.156 283.400 C 275.827 281.929,275.598 281.610,275.606 282.633 M276.446 285.600 C 276.427 286.150,276.587 286.870,276.800 287.200 C 277.294 287.964,277.294 287.142,276.800 285.600 L 276.480 284.600 276.446 285.600 M123.029 286.229 C 122.881 286.815,122.851 287.384,122.961 287.494 C 123.071 287.604,123.281 287.215,123.429 286.629 C 123.576 286.042,123.606 285.473,123.496 285.363 C 123.386 285.253,123.176 285.642,123.029 286.229 M146.200 288.000 C 146.050 288.473,146.017 288.950,146.127 289.060 C 146.237 289.170,146.450 288.873,146.600 288.400 C 146.750 287.927,146.783 287.450,146.673 287.340 C 146.563 287.230,146.350 287.527,146.200 288.000 M277.268 289.200 C 277.262 289.750,277.411 290.560,277.600 291.000 L 277.944 291.800 277.932 291.000 C 277.926 290.560,277.776 289.750,277.600 289.200 L 277.280 288.200 277.268 289.200 M122.200 290.000 C 122.048 290.691,122.014 291.347,122.124 291.457 C 122.234 291.567,122.448 291.091,122.600 290.400 C 122.752 289.709,122.786 289.053,122.676 288.943 C 122.566 288.833,122.352 289.309,122.200 290.000 M145.473 290.553 C 145.323 290.945,145.211 291.566,145.225 291.933 C 145.242 292.375,145.381 292.274,145.637 291.634 C 145.849 291.103,145.961 290.482,145.885 290.254 C 145.809 290.027,145.624 290.161,145.473 290.553 M278.086 293.600 C 278.083 294.370,278.224 295.450,278.400 296.000 C 278.850 297.404,278.865 295.937,278.423 293.800 L 278.092 292.200 278.086 293.600 M121.418 294.726 C 121.253 295.895,121.213 296.946,121.329 297.062 C 121.614 297.347,122.131 293.787,121.900 293.125 C 121.800 292.836,121.582 293.557,121.418 294.726 M144.649 293.815 C 144.512 294.173,144.418 294.946,144.440 295.533 C 144.473 296.391,144.552 296.295,144.846 295.040 C 145.222 293.439,145.095 292.653,144.649 293.815 M254.846 293.600 C 254.865 293.930,255.024 294.650,255.200 295.200 L 255.520 296.200 255.554 295.200 C 255.573 294.650,255.413 293.930,255.200 293.600 C 254.855 293.067,254.816 293.067,254.846 293.600 M255.800 305.146 C 255.800 309.602,255.917 312.832,256.060 312.324 C 256.393 311.143,256.387 299.779,256.053 298.223 C 255.914 297.575,255.800 300.691,255.800 305.146 M143.850 298.850 C 143.528 300.459,143.599 310.713,143.940 311.921 C 144.083 312.428,144.200 309.413,144.200 305.221 C 144.200 301.030,144.178 297.600,144.150 297.600 C 144.123 297.600,143.988 298.163,143.850 298.850 M278.963 305.200 C 278.963 308.830,279.023 310.315,279.098 308.500 C 279.172 306.685,279.172 303.715,279.098 301.900 C 279.023 300.085,278.963 301.570,278.963 305.200 M120.959 305.200 C 120.959 308.390,121.021 309.695,121.097 308.100 C 121.173 306.505,121.173 303.895,121.097 302.300 C 121.021 300.705,120.959 302.010,120.959 305.200 M121.295 314.200 C 121.295 314.860,121.432 315.940,121.600 316.600 L 121.905 317.800 121.905 316.600 C 121.905 315.940,121.768 314.860,121.600 314.200 L 121.295 313.000 121.295 314.200 M278.282 314.750 C 278.127 315.493,278.020 316.572,278.044 317.150 C 278.073 317.842,278.210 317.587,278.447 316.400 C 278.645 315.410,278.752 314.330,278.685 314.000 C 278.619 313.670,278.438 314.007,278.282 314.750 M144.406 315.033 C 144.409 315.675,144.596 316.470,144.821 316.800 C 145.114 317.230,145.154 316.946,144.962 315.800 C 144.630 313.816,144.398 313.496,144.406 315.033 M255.249 314.800 C 255.216 315.130,255.089 315.850,254.967 316.400 C 254.775 317.264,254.807 317.303,255.199 316.688 C 255.448 316.297,255.575 315.577,255.481 315.088 C 255.386 314.600,255.282 314.470,255.249 314.800 M145.206 318.633 C 145.209 319.055,145.395 319.670,145.618 320.000 C 145.915 320.438,145.952 320.276,145.756 319.400 C 145.427 317.929,145.198 317.610,145.206 318.633 M122.056 319.400 C 122.056 319.840,122.211 320.560,122.400 321.000 L 122.744 321.800 122.744 321.000 C 122.744 320.560,122.589 319.840,122.400 319.400 L 122.056 318.600 122.056 319.400 M277.456 320.084 C 277.321 320.588,277.227 321.360,277.246 321.800 C 277.265 322.240,277.445 321.898,277.646 321.040 C 278.036 319.378,277.870 318.540,277.456 320.084 M122.834 323.200 C 122.846 323.530,123.011 324.160,123.200 324.600 L 123.544 325.400 123.566 324.600 C 123.578 324.160,123.413 323.530,123.200 323.200 C 122.855 322.667,122.815 322.667,122.834 323.200 M276.649 323.815 C 276.512 324.173,276.418 324.856,276.441 325.333 C 276.467 325.881,276.603 325.686,276.810 324.803 C 277.160 323.316,277.065 322.733,276.649 323.815 M275.867 326.667 C 275.720 326.813,275.611 327.308,275.625 327.767 C 275.649 328.533,275.682 328.523,276.034 327.642 C 276.426 326.663,276.344 326.189,275.867 326.667 M125.200 331.325 C 125.200 331.784,126.496 334.838,126.632 334.701 C 126.805 334.528,125.829 331.695,125.474 331.341 C 125.323 331.190,125.200 331.183,125.200 331.325 M150.600 332.400 C 150.941 333.060,151.311 333.600,151.421 333.600 C 151.531 333.600,151.341 333.060,151.000 332.400 C 150.659 331.740,150.289 331.200,150.179 331.200 C 150.069 331.200,150.259 331.740,150.600 332.400 M247.147 335.495 C 244.429 339.689,240.028 344.771,236.837 347.403 C 232.353 351.101,231.629 351.788,233.749 350.336 C 238.132 347.331,243.287 341.857,247.060 336.200 C 249.033 333.242,249.294 332.800,249.071 332.800 C 248.973 332.800,248.108 334.013,247.147 335.495 M152.266 335.204 C 154.097 338.304,161.448 347.086,161.863 346.670 C 161.958 346.575,161.339 345.800,160.487 344.949 C 158.170 342.632,154.769 338.470,153.257 336.100 C 151.832 333.867,151.069 333.177,152.266 335.204 M126.827 335.366 C 126.790 335.871,130.600 343.613,131.371 344.600 C 131.715 345.040,131.047 343.510,129.887 341.200 C 128.726 338.890,127.569 336.550,127.315 336.000 C 127.062 335.450,126.842 335.165,126.827 335.366 M270.685 340.216 C 269.651 342.297,268.892 344.000,268.999 344.000 C 269.265 344.000,272.885 336.751,272.707 336.574 C 272.629 336.496,271.719 338.134,270.685 340.216 M267.970 345.266 C 267.698 345.780,267.213 346.605,266.892 347.100 C 266.571 347.595,266.395 348.000,266.501 348.000 C 266.836 348.000,268.869 344.736,268.662 344.529 C 268.554 344.420,268.242 344.752,267.970 345.266 M132.399 346.400 C 133.024 347.632,136.375 352.400,136.615 352.400 C 136.786 352.400,132.544 346.000,132.109 345.600 C 131.990 345.490,132.120 345.850,132.399 346.400 M162.400 346.925 C 162.400 346.994,162.985 347.579,163.700 348.225 L 165.000 349.400 163.825 348.100 C 162.730 346.888,162.400 346.616,162.400 346.925 M165.340 349.503 C 165.496 349.756,166.191 350.367,166.884 350.860 C 167.577 351.354,168.017 351.550,167.860 351.297 C 167.704 351.044,167.009 350.433,166.316 349.940 C 165.623 349.446,165.183 349.250,165.340 349.503 M264.915 350.100 C 263.091 352.484,262.280 353.711,262.695 353.459 C 263.215 353.144,265.762 349.600,265.468 349.600 C 265.375 349.600,265.126 349.825,264.915 350.100 M168.400 351.737 C 168.400 351.977,171.541 354.002,171.891 353.987 C 172.061 353.980,171.840 353.697,171.400 353.357 C 170.444 352.618,168.400 351.515,168.400 351.737 M137.996 354.394 C 138.690 355.271,139.467 356.118,139.723 356.276 C 139.978 356.434,139.493 355.716,138.645 354.681 C 137.797 353.647,137.020 352.800,136.918 352.800 C 136.816 352.800,137.301 353.518,137.996 354.394 M172.400 354.179 C 172.400 354.289,172.940 354.659,173.600 355.000 C 174.260 355.341,174.800 355.531,174.800 355.421 C 174.800 355.311,174.260 354.941,173.600 354.600 C 172.940 354.259,172.400 354.069,172.400 354.179 M226.300 354.629 C 225.695 354.957,225.200 355.310,225.200 355.413 C 225.200 355.799,225.832 355.557,226.800 354.800 C 227.989 353.870,227.811 353.809,226.300 354.629 M255.799 360.887 C 253.160 363.575,252.080 364.800,253.400 363.610 C 254.720 362.419,256.143 361.075,256.562 360.623 C 256.982 360.170,258.145 358.945,259.147 357.900 C 260.150 356.855,260.886 356.000,260.784 356.000 C 260.682 356.000,258.439 358.199,255.799 360.887 M143.800 360.800 C 145.992 363.000,147.868 364.800,147.970 364.800 C 148.314 364.800,140.604 356.908,140.208 356.854 C 139.992 356.824,141.608 358.600,143.800 360.800 M180.800 358.146 C 180.800 358.373,184.636 359.604,185.275 359.582 C 185.564 359.573,185.107 359.318,184.259 359.016 C 182.293 358.315,180.800 357.939,180.800 358.146 M215.200 359.200 C 214.376 359.464,214.341 359.526,215.000 359.554 C 215.440 359.573,216.070 359.413,216.400 359.200 C 217.101 358.747,216.614 358.747,215.200 359.200 M186.600 359.981 C 187.368 360.329,189.510 360.556,189.167 360.253 C 189.075 360.172,188.280 359.996,187.400 359.862 C 186.285 359.693,186.042 359.729,186.600 359.981 M211.800 360.000 L 210.600 360.305 211.800 360.347 C 212.460 360.369,213.270 360.213,213.600 360.000 C 214.343 359.520,213.687 359.520,211.800 360.000 M190.400 360.803 C 191.389 361.117,195.488 361.334,195.167 361.056 C 195.075 360.977,193.740 360.816,192.200 360.699 C 190.573 360.575,189.819 360.619,190.400 360.803 M206.800 360.800 L 204.600 361.070 206.600 361.095 C 207.700 361.109,209.050 360.976,209.600 360.800 C 210.828 360.407,210.009 360.407,206.800 360.800 M197.900 361.495 C 199.055 361.576,200.945 361.576,202.100 361.495 C 203.255 361.414,202.310 361.348,200.000 361.348 C 197.690 361.348,196.745 361.414,197.900 361.495 M148.417 365.065 C 148.436 365.435,151.745 368.086,153.974 369.515 L 155.400 370.430 154.241 369.515 C 153.604 369.012,152.029 367.729,150.741 366.665 C 149.453 365.601,148.408 364.881,148.417 365.065 M248.800 367.254 L 247.000 368.885 248.694 367.613 C 250.168 366.507,251.114 365.574,250.724 365.612 C 250.656 365.619,249.790 366.358,248.800 367.254 M245.400 369.835 L 244.200 370.866 245.500 370.006 C 246.215 369.533,246.800 369.068,246.800 368.973 C 246.800 368.673,246.631 368.778,245.400 369.835 M155.600 370.501 C 155.600 370.676,156.405 371.241,159.700 373.378 C 160.305 373.771,160.800 374.005,160.800 373.899 C 160.800 373.724,159.995 373.159,156.700 371.022 C 156.095 370.629,155.600 370.395,155.600 370.501 M238.696 373.958 C 236.260 375.387,235.719 375.944,237.800 374.880 C 239.345 374.091,241.210 372.818,240.800 372.833 C 240.690 372.837,239.743 373.343,238.696 373.958 M163.200 375.185 C 164.321 376.018,166.877 377.257,167.072 377.061 C 167.179 376.954,166.397 376.456,165.333 375.954 C 162.833 374.773,162.469 374.642,163.200 375.185 M176.200 380.800 C 177.301 381.273,177.692 381.273,177.400 380.800 C 177.264 380.580,176.758 380.413,176.276 380.428 C 175.431 380.455,175.429 380.469,176.200 380.800 M179.000 381.600 C 180.196 382.114,181.195 382.114,180.400 381.600 C 180.070 381.387,179.440 381.222,179.000 381.234 L 178.200 381.256 179.000 381.600 M219.800 381.600 L 219.000 381.944 219.800 381.966 C 220.240 381.978,220.870 381.813,221.200 381.600 C 221.995 381.086,220.996 381.086,219.800 381.600 M182.200 382.400 C 183.396 382.914,184.395 382.914,183.600 382.400 C 183.270 382.187,182.640 382.022,182.200 382.034 L 181.400 382.056 182.200 382.400 M216.600 382.400 C 216.096 382.617,216.022 382.744,216.400 382.744 C 216.730 382.744,217.360 382.589,217.800 382.400 C 218.304 382.183,218.378 382.056,218.000 382.056 C 217.670 382.056,217.040 382.211,216.600 382.400 M186.200 383.200 C 186.860 383.368,187.850 383.505,188.400 383.505 C 189.292 383.505,189.270 383.472,188.200 383.200 C 187.540 383.032,186.550 382.895,186.000 382.895 C 185.108 382.895,185.130 382.928,186.200 383.200 M212.000 383.200 C 210.643 383.486,210.637 383.495,211.800 383.507 C 212.460 383.515,213.450 383.376,214.000 383.200 C 215.312 382.780,213.996 382.780,212.000 383.200 M192.200 384.025 C 193.765 384.347,200.296 384.541,199.967 384.256 C 199.875 384.176,197.730 384.018,195.200 383.904 C 192.308 383.773,191.194 383.818,192.200 384.025 M203.800 384.000 L 201.000 384.259 203.600 384.300 C 205.030 384.322,207.010 384.197,208.000 384.020 L 209.800 383.700 208.200 383.721 C 207.320 383.732,205.340 383.858,203.800 384.000 " stroke="none" fill="#868684" fill-rule="evenodd"></path></g></svg>