<svg id="svg" version="1.1" xmlns="http://www.w3.org/2000/svg" xmlns:xlink="http://www.w3.org/1999/xlink" width="400" height="400" viewBox="0, 0, 400,400"><g id="svgg"><path id="path0" d="M105.400 65.410 C 91.270 67.642,81.872 77.226,79.417 91.908 C 78.411 97.927,75.445 100.768,70.142 100.794 C 66.220 100.813,59.990 103.957,56.735 107.561 C 46.096 119.337,51.737 138.193,67.090 142.171 C 71.095 143.209,137.075 143.110,141.074 142.060 C 154.276 138.594,160.563 123.745,154.041 111.436 C 152.976 109.427,148.554 104.604,147.298 104.083 C 141.775 101.790,140.181 99.576,139.403 93.120 C 138.872 88.719,138.057 85.231,137.085 83.200 C 132.127 72.841,123.755 66.772,112.284 65.221 C 110.570 64.990,109.040 64.824,108.884 64.853 C 108.728 64.881,107.160 65.132,105.400 65.410 M15.867 208.267 C 15.398 208.735,15.553 360.926,16.025 364.123 C 17.431 373.637,22.624 380.059,31.400 383.136 C 34.795 384.327,39.637 384.400,115.177 384.400 L 192.000 384.400 192.000 296.200 L 192.000 208.000 104.067 208.000 C 55.703 208.000,16.013 208.120,15.867 208.267 M208.099 296.100 L 208.200 384.200 284.000 384.322 C 361.533 384.447,364.373 384.400,368.799 382.937 C 375.499 380.722,380.109 376.153,383.060 368.800 C 383.747 367.089,383.789 363.078,383.899 287.500 L 384.015 208.000 296.007 208.000 L 207.998 208.000 208.099 296.100 M91.347 237.130 C 92.198 237.705,95.258 240.819,98.147 244.051 C 101.036 247.283,103.596 249.944,103.835 249.964 C 104.074 249.984,105.690 248.425,107.424 246.500 C 116.345 236.601,117.282 235.862,120.870 235.895 C 128.750 235.967,131.126 244.117,125.157 250.600 C 124.347 251.480,121.061 255.080,117.856 258.600 L 112.027 265.000 112.014 276.492 L 112.000 287.985 112.905 288.212 C 113.403 288.337,118.503 288.385,124.239 288.319 L 134.668 288.200 136.234 286.842 C 137.095 286.095,139.420 284.009,141.400 282.206 C 149.967 274.404,151.476 273.110,152.800 272.428 C 158.336 269.580,164.150 273.178,164.150 279.452 C 164.150 282.988,163.881 283.331,154.654 291.541 C 149.191 296.401,149.297 295.959,152.869 299.000 C 164.082 308.547,166.074 312.039,163.144 317.006 C 161.095 320.478,155.554 321.816,152.377 319.607 C 151.330 318.878,144.943 313.343,143.600 312.000 C 143.490 311.890,141.484 310.045,139.143 307.900 L 134.886 304.000 123.443 304.000 L 112.000 304.000 112.000 315.539 C 112.000 325.958,112.068 327.155,112.700 327.873 C 113.085 328.311,116.460 332.046,120.200 336.173 C 123.940 340.300,127.254 344.154,127.565 344.738 C 130.440 350.138,126.808 356.400,120.800 356.400 C 117.275 356.400,115.793 355.184,106.600 344.742 C 103.959 341.742,103.914 341.754,99.705 346.500 C 91.615 355.621,90.626 356.396,87.072 356.399 C 79.611 356.403,76.848 348.240,82.253 342.159 C 82.884 341.449,88.543 335.211,89.802 333.838 C 90.023 333.597,91.508 331.943,93.102 330.163 L 96.000 326.926 96.000 315.463 L 96.000 304.000 84.553 304.000 L 73.105 304.000 69.453 307.285 C 67.444 309.091,64.714 311.566,63.388 312.785 C 57.790 317.925,56.942 318.671,55.800 319.460 C 49.487 323.823,40.873 316.458,44.365 309.684 C 45.288 307.894,45.587 307.575,50.617 303.000 C 56.636 297.525,57.563 296.634,57.685 296.200 C 57.747 295.980,55.728 293.912,53.199 291.604 C 50.670 289.296,47.838 286.705,46.908 285.846 C 39.679 279.176,46.361 267.815,54.900 272.258 C 55.996 272.828,68.664 283.922,71.795 287.053 C 72.095 287.352,72.815 287.778,73.396 287.998 C 74.526 288.428,93.565 288.559,95.100 288.148 L 96.000 287.907 96.000 276.510 L 96.000 265.114 92.100 260.857 C 89.955 258.516,88.110 256.510,88.000 256.400 C 86.657 255.057,81.122 248.670,80.393 247.623 C 75.826 241.056,84.644 232.609,91.347 237.130 M299.425 242.854 C 301.555 243.855,302.491 244.996,304.961 249.600 C 309.121 257.356,321.200 282.211,321.200 283.016 C 321.200 283.122,321.581 284.062,322.047 285.104 C 323.502 288.363,323.914 289.345,324.604 291.200 C 324.973 292.190,325.462 293.450,325.691 294.000 C 325.920 294.550,326.255 295.360,326.437 295.800 C 333.886 313.875,331.962 328.505,320.600 340.192 C 309.465 351.646,286.680 353.204,275.360 343.287 C 274.677 342.689,273.625 341.840,273.021 341.400 C 268.222 337.905,261.624 325.869,261.590 320.547 C 261.585 319.696,261.392 318.190,261.161 317.200 C 260.748 315.424,261.192 310.457,261.985 308.000 C 262.162 307.450,262.532 306.190,262.807 305.200 C 263.489 302.748,265.546 296.384,265.975 295.400 C 266.167 294.960,266.912 293.070,267.630 291.200 C 273.059 277.070,288.498 245.804,290.939 244.000 C 293.906 241.806,296.461 241.461,299.425 242.854 M369.516 253.487 C 377.480 259.933,369.103 271.921,360.459 266.450 C 356.655 264.042,356.351 257.118,359.904 253.802 C 362.235 251.626,367.023 251.469,369.516 253.487 M86.948 268.408 C 92.901 272.183,90.795 281.913,83.855 282.695 C 79.065 283.235,75.467 279.923,75.456 274.963 C 75.441 268.624,81.678 265.066,86.948 268.408 M126.793 267.996 C 132.393 270.853,132.328 279.227,126.685 281.959 C 119.220 285.573,112.370 276.271,117.718 269.783 C 119.845 267.202,123.735 266.436,126.793 267.996 M369.323 275.933 C 370.161 276.485,371.286 277.687,371.823 278.604 L 372.800 280.270 372.800 306.657 L 372.800 333.043 371.667 334.822 C 367.806 340.878,358.983 339.114,357.196 331.928 C 356.274 328.220,356.860 281.303,357.855 279.150 C 359.849 274.838,365.330 273.301,369.323 275.933 M84.996 310.448 C 92.297 312.474,92.139 323.646,84.784 325.513 C 79.767 326.786,75.447 323.233,75.453 317.837 C 75.459 312.496,79.923 309.039,84.996 310.448 M125.400 310.448 C 132.926 312.532,132.801 323.470,125.229 325.482 C 119.447 327.019,114.488 321.631,116.215 315.690 C 117.456 311.420,121.199 309.284,125.400 310.448 " stroke="none" fill="#dddddd" fill-rule="evenodd"></path><path id="path1" d="M208.000 103.994 L 208.000 192.002 296.100 191.901 L 384.200 191.800 384.329 116.200 C 384.461 38.590,384.415 35.757,382.929 31.201 C 380.865 24.873,375.521 19.485,368.882 17.040 L 366.600 16.200 287.300 16.093 L 208.000 15.986 208.000 103.994 M299.637 41.331 C 300.607 41.843,301.940 43.027,302.600 43.964 L 303.800 45.666 304.000 53.933 L 304.200 62.200 305.200 62.323 C 307.464 62.601,312.050 64.295,315.966 66.299 L 320.133 68.431 325.366 63.266 C 331.313 57.397,332.244 56.800,335.445 56.800 C 339.978 56.800,343.200 60.022,343.200 64.555 C 343.200 67.756,342.603 68.687,336.729 74.639 L 331.559 79.878 333.717 84.039 C 335.648 87.762,337.141 91.745,337.789 94.900 L 338.015 96.000 345.745 96.000 C 356.354 96.000,359.600 97.874,359.600 104.000 C 359.600 110.020,356.652 111.729,345.800 112.000 L 337.800 112.200 337.680 113.200 C 337.345 115.983,334.712 122.564,332.515 126.108 C 331.336 128.010,331.299 127.946,336.620 133.200 C 344.682 141.160,345.586 145.722,339.905 149.778 C 335.670 152.802,332.264 151.523,324.868 144.133 L 319.936 139.205 318.268 140.328 C 315.159 142.420,311.121 144.121,306.392 145.330 L 304.200 145.890 304.000 154.045 C 303.735 164.871,302.310 167.300,296.229 167.300 C 289.803 167.300,288.025 164.182,288.010 152.887 C 288.002 147.702,287.875 145.942,287.500 145.842 C 282.400 144.484,277.613 142.537,273.756 140.250 L 272.112 139.275 267.356 144.074 C 259.029 152.477,254.134 153.449,250.166 147.487 C 247.289 143.164,248.564 139.949,256.131 132.444 L 260.725 127.888 259.767 126.244 C 257.756 122.791,256.206 119.270,255.171 115.800 L 254.096 112.200 246.081 112.000 L 238.066 111.800 236.339 110.585 C 231.068 106.878,231.531 99.407,237.200 96.683 C 237.823 96.384,241.194 96.127,246.145 96.002 L 254.090 95.800 255.058 92.400 C 256.041 88.946,258.565 83.215,259.975 81.235 L 260.751 80.145 255.872 75.172 C 249.316 68.492,249.090 68.149,249.059 64.835 C 249.016 60.122,252.196 56.798,256.745 56.802 C 259.779 56.805,260.938 57.566,266.962 63.514 C 272.218 68.705,272.196 68.690,273.411 67.863 C 276.436 65.802,283.947 62.698,286.800 62.329 L 287.800 62.200 288.003 54.200 C 288.203 46.273,288.216 46.183,289.350 44.283 C 291.499 40.687,295.981 39.401,299.637 41.331 " stroke="none" fill="#fac343" fill-rule="evenodd"></path><path id="path2" d="M28.700 0.290 C 27.875 0.377,27.200 0.617,27.200 0.824 C 27.200 1.031,26.660 1.200,26.000 1.200 C 25.340 1.200,24.800 1.380,24.800 1.600 C 24.800 1.820,24.260 2.000,23.600 2.000 C 22.940 2.000,22.400 2.180,22.400 2.400 C 22.400 2.620,22.040 2.800,21.600 2.800 C 21.160 2.800,20.800 2.980,20.800 3.200 C 20.800 3.420,20.564 3.600,20.275 3.600 C 19.987 3.600,19.364 3.960,18.892 4.400 C 18.420 4.840,17.756 5.200,17.417 5.200 C 17.078 5.200,16.800 5.380,16.800 5.600 C 16.800 5.820,16.525 6.000,16.189 6.000 C 14.950 6.000,6.000 14.950,6.000 16.189 C 6.000 16.525,5.820 16.800,5.600 16.800 C 5.380 16.800,5.200 17.078,5.200 17.417 C 5.200 17.756,4.840 18.420,4.400 18.892 C 3.960 19.364,3.600 19.987,3.600 20.275 C 3.600 20.564,3.420 20.800,3.200 20.800 C 2.980 20.800,2.800 21.160,2.800 21.600 C 2.800 22.040,2.620 22.400,2.400 22.400 C 2.180 22.400,2.000 22.940,2.000 23.600 C 2.000 24.260,1.820 24.800,1.600 24.800 C 1.380 24.800,1.200 25.325,1.200 25.967 C 1.200 26.608,0.975 27.208,0.700 27.300 C 0.301 27.433,0.200 62.329,0.200 200.000 C 0.200 337.671,0.301 372.567,0.700 372.700 C 0.975 372.792,1.200 373.392,1.200 374.033 C 1.200 374.675,1.380 375.200,1.600 375.200 C 1.820 375.200,2.000 375.740,2.000 376.400 C 2.000 377.060,2.180 377.600,2.400 377.600 C 2.620 377.600,2.800 377.960,2.800 378.400 C 2.800 378.840,2.980 379.200,3.200 379.200 C 3.420 379.200,3.600 379.436,3.600 379.725 C 3.600 380.013,3.960 380.636,4.400 381.108 C 4.840 381.580,5.200 382.244,5.200 382.583 C 5.200 382.922,5.380 383.200,5.600 383.200 C 5.820 383.200,6.000 383.475,6.000 383.811 C 6.000 385.050,14.950 394.000,16.189 394.000 C 16.525 394.000,16.800 394.180,16.800 394.400 C 16.800 394.620,17.078 394.800,17.417 394.800 C 17.756 394.800,18.420 395.160,18.892 395.600 C 19.364 396.040,19.987 396.400,20.275 396.400 C 20.564 396.400,20.800 396.580,20.800 396.800 C 20.800 397.020,21.160 397.200,21.600 397.200 C 22.040 397.200,22.400 397.380,22.400 397.600 C 22.400 397.820,22.940 398.000,23.600 398.000 C 24.260 398.000,24.800 398.180,24.800 398.400 C 24.800 398.620,25.325 398.800,25.967 398.800 C 26.608 398.800,27.208 399.025,27.300 399.300 C 27.433 399.699,62.329 399.800,200.000 399.800 C 337.671 399.800,372.567 399.699,372.700 399.300 C 372.792 399.025,373.392 398.800,374.033 398.800 C 374.675 398.800,375.200 398.620,375.200 398.400 C 375.200 398.180,375.740 398.000,376.400 398.000 C 377.060 398.000,377.600 397.820,377.600 397.600 C 377.600 397.380,377.960 397.200,378.400 397.200 C 378.840 397.200,379.200 397.020,379.200 396.800 C 379.200 396.580,379.436 396.400,379.725 396.400 C 380.013 396.400,380.636 396.040,381.108 395.600 C 381.580 395.160,382.244 394.800,382.583 394.800 C 382.922 394.800,383.200 394.620,383.200 394.400 C 383.200 394.180,383.488 394.000,383.840 394.000 C 384.191 394.000,384.956 393.505,385.540 392.900 C 386.123 392.294,387.320 391.307,388.200 390.706 C 389.080 390.105,390.249 388.935,390.798 388.106 C 391.346 387.278,392.291 386.123,392.898 385.540 C 393.504 384.956,394.000 384.191,394.000 383.840 C 394.000 383.488,394.180 383.200,394.400 383.200 C 394.620 383.200,394.800 382.922,394.800 382.583 C 394.800 382.244,395.160 381.580,395.600 381.108 C 396.040 380.636,396.400 380.013,396.400 379.725 C 396.400 379.436,396.580 379.200,396.800 379.200 C 397.020 379.200,397.200 378.840,397.200 378.400 C 397.200 377.960,397.380 377.600,397.600 377.600 C 397.820 377.600,398.000 377.060,398.000 376.400 C 398.000 375.740,398.180 375.200,398.400 375.200 C 398.620 375.200,398.800 374.675,398.800 374.033 C 398.800 373.392,399.025 372.792,399.300 372.700 C 400.036 372.455,400.036 27.545,399.300 27.300 C 399.025 27.208,398.800 26.608,398.800 25.967 C 398.800 25.325,398.620 24.800,398.400 24.800 C 398.180 24.800,398.000 24.260,398.000 23.600 C 398.000 22.940,397.820 22.400,397.600 22.400 C 397.380 22.400,397.200 22.040,397.200 21.600 C 397.200 21.160,397.020 20.800,396.800 20.800 C 396.580 20.800,396.400 20.564,396.400 20.275 C 396.400 19.987,396.040 19.364,395.600 18.892 C 395.160 18.420,394.800 17.756,394.800 17.417 C 394.800 17.078,394.620 16.800,394.400 16.800 C 394.180 16.800,394.000 16.525,394.000 16.189 C 394.000 14.950,385.050 6.000,383.811 6.000 C 383.475 6.000,383.200 5.820,383.200 5.600 C 383.200 5.380,382.922 5.200,382.583 5.200 C 382.244 5.200,381.580 4.840,381.108 4.400 C 380.636 3.960,380.013 3.600,379.725 3.600 C 379.436 3.600,379.200 3.420,379.200 3.200 C 379.200 2.980,378.840 2.800,378.400 2.800 C 377.960 2.800,377.600 2.620,377.600 2.400 C 377.600 2.180,377.060 2.000,376.400 2.000 C 375.740 2.000,375.200 1.820,375.200 1.600 C 375.200 1.380,374.675 1.200,374.033 1.200 C 373.392 1.200,372.792 0.975,372.700 0.700 C 372.542 0.227,33.126 -0.178,28.700 0.290 M192.000 103.800 L 192.000 192.000 103.800 192.000 L 15.600 192.000 15.600 114.673 C 15.600 36.704,15.627 35.092,17.019 30.916 C 19.032 24.874,24.842 18.963,30.600 17.099 C 34.991 15.678,34.932 15.679,114.300 15.639 L 192.000 15.600 192.000 103.800 M368.200 16.613 C 375.368 19.017,380.748 24.198,383.142 31.000 C 384.391 34.549,384.432 37.467,384.316 114.600 L 384.200 192.200 296.200 192.200 L 208.200 192.200 208.099 103.894 L 207.998 15.588 286.899 15.698 C 364.754 15.806,365.832 15.818,368.200 16.613 M291.949 41.946 C 288.938 43.856,288.633 44.905,288.400 54.148 L 288.200 62.096 284.566 63.172 C 280.818 64.282,275.591 66.583,273.607 67.995 C 272.092 69.074,272.587 69.382,267.258 64.042 C 259.354 56.121,255.887 55.047,251.467 59.149 C 247.175 63.132,248.285 67.197,255.711 74.697 L 260.995 80.034 260.229 81.317 C 257.751 85.462,255.094 91.978,254.729 94.800 L 254.600 95.800 246.800 96.000 C 236.407 96.266,233.602 97.634,232.913 102.770 C 232.036 109.307,235.513 111.600,246.304 111.600 C 254.001 111.600,254.800 111.749,254.800 113.185 C 254.800 114.646,256.944 120.375,258.866 124.052 L 260.942 128.020 255.721 133.310 C 249.879 139.230,249.200 140.265,249.200 143.245 C 249.200 147.472,252.464 150.800,256.611 150.800 C 259.754 150.800,260.708 150.182,266.717 144.252 L 272.034 139.005 273.317 139.758 C 276.308 141.514,280.805 143.530,283.600 144.368 C 288.985 145.984,288.399 144.872,288.409 153.491 C 288.422 164.423,290.359 167.597,296.714 167.098 C 302.345 166.655,303.757 163.994,303.930 153.500 L 304.060 145.600 305.130 145.370 C 309.227 144.488,315.422 141.946,318.893 139.723 L 319.985 139.024 325.293 144.261 C 332.377 151.253,335.110 152.336,339.369 149.839 C 345.289 146.370,344.391 141.210,336.485 133.269 C 330.557 127.314,330.922 127.954,332.293 125.920 C 334.399 122.791,337.600 114.856,337.600 112.762 C 337.600 111.724,338.333 111.624,346.831 111.504 C 356.721 111.365,359.339 109.728,359.285 103.715 C 359.232 97.839,355.765 96.006,344.700 96.002 C 338.035 96.000,337.600 95.954,337.600 95.253 C 337.600 93.093,334.722 86.004,332.005 81.473 L 331.090 79.947 336.491 74.473 C 342.721 68.161,342.947 67.815,342.934 64.600 C 342.917 60.064,339.925 57.100,335.365 57.100 C 332.203 57.100,331.702 57.434,325.134 63.918 L 320.069 68.920 318.534 68.000 C 314.124 65.355,306.855 62.400,304.761 62.400 C 304.042 62.400,304.000 62.012,303.998 55.300 C 303.997 51.395,303.799 47.480,303.558 46.600 C 302.158 41.474,296.359 39.150,291.949 41.946 M103.200 49.787 C 85.521 52.317,70.555 64.996,65.650 81.600 C 64.436 85.710,64.531 85.602,61.183 86.654 C 23.289 98.559,29.129 154.151,68.716 158.362 C 74.233 158.949,133.257 158.957,138.884 158.372 C 172.658 154.858,184.824 110.987,157.306 91.942 C 155.408 90.628,154.800 89.729,154.800 88.232 C 154.800 86.519,153.972 83.618,152.107 78.800 C 144.334 58.714,124.216 46.780,103.200 49.787 M114.000 65.221 C 128.034 67.458,137.988 78.295,139.641 93.137 C 140.301 99.059,141.042 100.302,145.432 102.855 C 163.197 113.183,159.512 138.475,139.638 142.619 C 134.727 143.643,69.544 143.281,66.200 142.211 C 50.832 137.294,45.921 118.223,57.103 106.885 C 60.299 103.645,65.800 100.830,69.027 100.783 C 75.512 100.689,79.504 96.547,79.586 89.827 C 79.712 79.437,91.827 67.811,105.400 65.055 C 107.001 64.730,111.462 64.816,114.000 65.221 M303.687 78.343 C 317.326 82.369,325.594 96.851,321.989 110.400 C 315.685 134.094,284.151 137.921,272.544 116.400 C 261.472 95.872,281.239 71.716,303.687 78.343 M192.200 296.000 L 192.200 384.200 113.831 384.301 C 35.831 384.402,35.448 384.398,32.431 383.579 C 24.721 381.487,19.488 376.428,16.521 368.200 C 15.829 366.281,15.108 209.859,15.783 208.100 C 15.937 207.699,33.688 207.618,104.088 207.699 L 192.200 207.800 192.200 296.000 M384.400 285.780 C 384.400 362.589,384.356 365.463,383.134 369.000 C 380.487 376.663,373.885 382.328,365.680 383.975 C 364.226 384.266,339.145 384.400,285.780 384.400 L 208.000 384.400 208.000 296.200 L 208.000 208.000 296.200 208.000 L 384.400 208.000 384.400 285.780 M83.400 236.968 C 80.909 238.463,79.853 240.182,79.671 243.037 C 79.447 246.534,80.463 248.070,89.034 257.200 C 90.170 258.410,92.202 260.653,93.550 262.185 L 96.000 264.969 96.000 276.685 L 96.000 288.400 84.500 288.391 L 73.000 288.381 71.400 286.941 C 66.523 282.551,62.776 279.147,60.625 277.150 C 55.496 272.391,54.404 271.789,50.970 271.829 C 47.229 271.872,44.875 273.943,43.956 278.000 C 43.142 281.594,44.539 283.528,54.306 292.329 C 58.691 296.280,58.645 296.033,55.521 298.802 C 43.469 309.486,42.175 311.576,44.621 316.400 C 47.377 321.833,53.320 321.878,59.033 316.510 C 60.152 315.460,62.664 313.160,64.617 311.400 C 66.569 309.640,69.208 307.255,70.480 306.100 L 72.793 304.000 84.397 304.000 L 96.000 304.000 95.984 315.700 L 95.968 327.400 90.340 333.600 C 87.245 337.010,83.961 340.610,83.042 341.600 C 76.645 348.492,80.481 358.216,88.738 356.041 C 91.505 355.312,92.047 354.812,101.200 344.544 C 104.006 341.396,103.759 341.352,107.671 345.694 C 114.409 353.171,116.855 355.417,118.860 355.969 C 123.606 357.276,128.092 353.955,128.163 349.079 C 128.221 345.180,128.362 345.387,117.778 333.800 C 115.969 331.820,113.843 329.480,113.054 328.600 L 111.619 327.000 111.609 315.500 L 111.600 304.000 123.326 304.000 L 135.053 304.000 138.026 306.664 C 139.662 308.129,142.620 310.800,144.600 312.600 C 153.054 320.282,153.290 320.438,156.423 320.453 C 161.895 320.479,165.599 314.910,163.449 309.887 C 162.897 308.597,159.474 305.138,153.300 299.630 C 151.485 298.011,150.000 296.429,150.000 296.114 C 150.000 295.447,149.520 295.923,156.520 289.635 C 165.329 281.719,166.526 276.853,160.630 272.929 C 156.127 269.931,153.894 270.977,142.600 281.374 L 135.000 288.371 123.400 288.285 L 111.800 288.200 111.694 276.767 L 111.588 265.335 114.294 262.308 C 115.782 260.643,119.078 256.968,121.617 254.141 C 128.072 246.954,128.202 246.745,128.192 243.600 C 128.169 236.075,119.587 233.284,114.380 239.108 C 113.646 239.929,111.580 242.220,109.787 244.200 C 107.994 246.180,106.107 248.295,105.592 248.900 C 104.185 250.553,103.579 250.297,100.370 246.700 C 90.558 235.701,87.977 234.221,83.400 236.968 M292.151 243.396 C 290.212 244.558,290.051 244.787,286.773 251.019 C 281.740 260.587,270.400 284.122,270.400 285.000 C 270.400 285.115,270.022 286.062,269.560 287.104 C 269.098 288.147,268.575 289.360,268.397 289.800 C 264.605 299.171,262.480 306.064,261.592 311.879 C 260.496 319.046,264.282 332.467,268.394 336.000 C 268.522 336.110,269.311 337.047,270.147 338.082 C 284.870 356.313,316.072 352.447,326.938 331.045 C 333.436 318.246,331.873 307.626,319.308 279.200 C 317.097 274.199,303.443 247.091,302.439 245.711 C 300.025 242.391,295.519 241.377,292.151 243.396 M363.634 252.330 C 357.117 252.952,355.416 263.567,361.335 266.681 C 366.607 269.455,372.181 265.917,372.177 259.800 C 372.173 254.582,369.011 251.817,363.634 252.330 M80.438 267.717 C 77.293 268.720,75.288 272.284,75.735 276.073 C 76.835 285.394,90.139 284.403,90.139 275.000 C 90.139 269.588,85.495 266.102,80.438 267.717 M121.114 267.678 C 120.230 267.913,119.065 268.696,118.240 269.608 C 111.516 277.051,121.661 287.358,128.640 280.175 C 134.028 274.629,128.638 265.678,121.114 267.678 M298.277 271.500 C 305.019 285.579,308.673 293.825,310.993 300.200 C 311.794 302.400,312.781 305.100,313.186 306.200 C 318.210 319.837,311.971 331.843,298.720 334.039 C 286.721 336.027,275.484 324.941,277.199 312.806 C 277.646 309.644,281.941 297.396,284.576 291.770 C 285.359 290.097,286.000 288.660,286.000 288.576 C 286.000 288.264,289.010 281.739,292.954 273.500 C 296.063 267.008,296.116 266.988,298.277 271.500 M362.485 275.229 C 360.670 275.783,358.280 278.289,357.690 280.256 C 357.012 282.521,356.987 330.002,357.663 332.686 C 359.493 339.950,370.363 339.966,372.362 332.707 C 373.314 329.250,372.777 280.938,371.764 279.000 C 370.113 275.837,365.986 274.160,362.485 275.229 M79.628 311.101 C 73.378 314.288,74.783 324.248,81.647 325.408 C 87.870 326.459,92.357 319.692,89.191 314.028 C 87.392 310.811,82.896 309.434,79.628 311.101 M121.000 310.664 C 115.518 312.156,114.404 321.073,119.294 324.310 C 122.807 326.635,128.157 325.319,129.870 321.710 C 132.815 315.506,127.505 308.893,121.000 310.664 " stroke="none" fill="#040404" fill-rule="evenodd"></path><path id="path3" d="M34.200 16.195 C 24.243 18.337,17.839 24.955,16.029 34.973 C 15.733 36.609,15.600 61.401,15.600 114.673 L 15.600 192.000 103.800 192.000 L 192.000 192.000 192.000 103.800 L 192.000 15.600 114.300 15.639 C 52.458 15.670,36.110 15.784,34.200 16.195 M115.433 49.613 C 124.227 51.149,130.608 53.802,136.900 58.538 C 145.905 65.315,154.800 80.071,154.800 88.232 C 154.800 89.729,155.408 90.628,157.306 91.942 C 184.824 110.987,172.658 154.858,138.884 158.372 C 133.257 158.957,74.233 158.949,68.716 158.362 C 29.129 154.151,23.289 98.559,61.183 86.654 C 64.531 85.602,64.436 85.710,65.650 81.600 C 71.752 60.945,94.955 46.036,115.433 49.613 M292.954 273.500 C 289.010 281.739,286.000 288.264,286.000 288.576 C 286.000 288.660,285.359 290.097,284.576 291.770 C 281.941 297.396,277.646 309.644,277.199 312.806 C 275.484 324.941,286.721 336.027,298.720 334.039 C 311.971 331.843,318.210 319.837,313.186 306.200 C 312.781 305.100,311.794 302.400,310.993 300.200 C 308.673 293.825,305.019 285.579,298.277 271.500 C 296.116 266.988,296.063 267.008,292.954 273.500 " stroke="none" fill="#8be3fb" fill-rule="evenodd"></path><path id="path4" d="M246.900 15.900 C 268.405 15.957,303.595 15.957,325.100 15.900 C 346.605 15.843,329.010 15.796,286.000 15.796 C 242.990 15.796,225.395 15.843,246.900 15.900 M377.400 22.400 C 378.483 23.500,379.460 24.400,379.570 24.400 C 379.680 24.400,378.883 23.500,377.800 22.400 C 376.717 21.300,375.740 20.400,375.630 20.400 C 375.520 20.400,376.317 21.300,377.400 22.400 M383.670 34.200 C 383.657 34.640,383.795 35.720,383.977 36.600 C 384.255 37.945,384.308 38.009,384.307 37.000 C 384.305 35.599,383.708 32.970,383.670 34.200 M294.900 40.687 C 295.505 40.778,296.495 40.778,297.100 40.687 C 297.705 40.595,297.210 40.520,296.000 40.520 C 294.790 40.520,294.295 40.595,294.900 40.687 M303.444 46.200 C 303.773 47.671,304.002 47.990,303.994 46.967 C 303.991 46.545,303.805 45.930,303.582 45.600 C 303.285 45.162,303.248 45.324,303.444 46.200 M287.999 54.881 C 287.890 58.995,287.939 62.222,288.110 62.051 C 288.280 61.881,288.369 58.514,288.309 54.570 L 288.198 47.400 287.999 54.881 M331.189 57.855 C 330.645 58.216,327.930 60.753,325.155 63.494 L 320.111 68.478 318.855 67.829 C 318.165 67.472,317.600 67.269,317.600 67.379 C 317.600 67.489,318.161 67.870,318.847 68.224 L 320.094 68.869 325.347 63.715 C 328.236 60.880,331.050 58.264,331.600 57.901 C 332.150 57.539,332.505 57.233,332.389 57.221 C 332.273 57.209,331.733 57.495,331.189 57.855 M338.400 57.324 C 338.400 57.417,339.165 57.998,340.100 58.615 C 341.035 59.232,341.589 59.480,341.331 59.168 C 340.834 58.567,338.400 57.036,338.400 57.324 M106.500 65.076 C 106.885 65.176,107.515 65.176,107.900 65.076 C 108.285 64.975,107.970 64.893,107.200 64.893 C 106.430 64.893,106.115 64.975,106.500 65.076 M271.376 68.178 C 272.303 68.921,272.657 68.955,273.038 68.338 C 273.213 68.055,273.148 67.985,272.870 68.157 C 272.621 68.311,272.008 68.239,271.508 67.996 C 270.638 67.574,270.632 67.582,271.376 68.178 M336.235 74.765 L 331.082 79.929 332.158 81.765 C 332.750 82.774,333.324 83.600,333.434 83.600 C 333.544 83.600,333.150 82.774,332.558 81.765 L 331.482 79.929 336.635 74.765 C 339.470 71.924,341.698 69.600,341.588 69.600 C 341.478 69.600,339.070 71.924,336.235 74.765 M86.975 74.900 L 85.800 76.200 87.100 75.025 C 88.312 73.930,88.584 73.600,88.275 73.600 C 88.206 73.600,87.621 74.185,86.975 74.900 M291.272 77.601 C 273.451 81.381,264.103 100.749,272.544 116.400 C 284.151 137.921,315.685 134.094,321.989 110.400 C 326.853 92.119,309.613 73.711,291.272 77.601 M258.400 77.725 C 258.400 77.794,258.985 78.379,259.700 79.025 L 261.000 80.200 259.825 78.900 C 258.730 77.688,258.400 77.416,258.400 77.725 M260.153 80.900 C 258.776 83.236,258.686 83.435,259.387 82.600 C 260.200 81.632,260.900 80.400,260.638 80.400 C 260.533 80.400,260.315 80.625,260.153 80.900 M238.000 96.418 C 237.562 96.715,237.724 96.752,238.600 96.556 C 240.071 96.227,240.390 95.998,239.367 96.006 C 238.945 96.009,238.330 96.195,238.000 96.418 M359.254 105.120 C 359.225 105.626,358.925 106.571,358.590 107.220 C 358.254 107.869,358.069 108.400,358.179 108.400 C 358.647 108.400,359.634 105.873,359.479 105.073 C 359.313 104.219,359.308 104.220,359.254 105.120 M57.178 106.700 L 55.800 108.200 57.300 106.822 C 58.696 105.538,58.984 105.200,58.678 105.200 C 58.612 105.200,57.937 105.875,57.178 106.700 M356.241 110.027 C 355.383 110.672,354.850 111.200,355.056 111.200 C 355.262 111.200,356.053 110.667,356.815 110.016 C 358.587 108.502,358.261 108.508,356.241 110.027 M246.583 111.987 L 254.165 112.200 254.443 113.200 C 254.675 114.037,254.727 114.067,254.760 113.380 C 254.841 111.722,254.220 111.596,246.420 111.687 L 239.000 111.773 246.583 111.987 M342.121 111.898 C 344.277 111.971,347.697 111.970,349.721 111.898 C 351.744 111.825,349.980 111.766,345.800 111.767 C 341.620 111.767,339.964 111.826,342.121 111.898 M50.914 121.800 C 50.917 122.900,50.995 123.303,51.087 122.695 C 51.179 122.086,51.177 121.186,51.082 120.695 C 50.987 120.203,50.911 120.700,50.914 121.800 M331.809 126.643 C 331.268 127.467,331.229 127.781,331.621 128.143 C 331.996 128.489,332.050 128.481,331.842 128.111 C 331.691 127.843,331.865 127.168,332.229 126.611 C 332.594 126.055,332.802 125.600,332.692 125.600 C 332.582 125.600,332.185 126.069,331.809 126.643 M255.594 133.100 L 250.600 138.200 255.700 133.206 C 260.437 128.567,260.981 128.000,260.694 128.000 C 260.636 128.000,258.341 130.295,255.594 133.100 M266.367 144.586 C 263.379 147.540,261.219 149.798,261.567 149.605 C 262.256 149.222,272.311 139.195,271.994 139.208 C 271.887 139.212,269.355 141.632,266.367 144.586 M87.100 143.100 C 96.395 143.160,111.605 143.160,120.900 143.100 C 130.195 143.040,122.590 142.991,104.000 142.991 C 85.410 142.991,77.805 143.040,87.100 143.100 M342.845 145.000 C 342.819 145.440,342.428 146.405,341.977 147.145 C 341.526 147.885,341.225 148.558,341.307 148.641 C 341.633 148.966,343.246 145.548,343.075 144.895 C 342.923 144.315,342.885 144.333,342.845 145.000 M285.000 145.200 C 285.440 145.389,286.160 145.538,286.600 145.532 C 287.243 145.523,287.204 145.457,286.400 145.200 C 285.032 144.762,283.981 144.762,285.000 145.200 M287.999 153.119 L 288.198 160.600 288.309 153.430 C 288.369 149.486,288.280 146.119,288.110 145.949 C 287.939 145.778,287.890 149.005,287.999 153.119 M256.100 151.076 C 256.485 151.176,257.115 151.176,257.500 151.076 C 257.885 150.975,257.570 150.893,256.800 150.893 C 256.030 150.893,255.715 150.975,256.100 151.076 M334.705 151.083 C 335.202 151.179,335.922 151.175,336.305 151.075 C 336.687 150.975,336.280 150.896,335.400 150.901 C 334.520 150.905,334.207 150.987,334.705 151.083 M288.432 161.624 C 288.414 161.966,288.680 162.596,289.022 163.024 C 289.634 163.788,289.638 163.787,289.276 163.000 C 289.074 162.560,288.808 161.930,288.686 161.600 C 288.493 161.082,288.459 161.085,288.432 161.624 M299.200 166.448 C 298.430 166.861,298.095 167.199,298.456 167.199 C 298.816 167.200,299.536 166.846,300.056 166.413 C 301.200 165.460,301.031 165.467,299.200 166.448 M296.200 192.000 L 208.200 192.203 296.076 192.301 C 354.336 192.367,384.036 192.265,384.200 192.000 C 384.336 191.780,384.392 191.644,384.324 191.699 C 384.256 191.753,344.600 191.889,296.200 192.000 M15.862 207.899 C 15.760 208.065,55.349 208.154,103.837 208.098 L 191.998 207.996 192.100 295.998 L 192.203 384.000 192.201 295.900 L 192.200 207.800 104.124 207.699 C 55.682 207.644,15.965 207.734,15.862 207.899 M384.095 285.600 C 384.038 328.390,383.906 364.120,383.802 365.000 L 383.612 366.600 384.007 365.065 C 384.262 364.074,384.366 335.937,384.300 285.665 L 384.198 207.800 384.095 285.600 M93.800 239.600 C 94.883 240.700,95.860 241.600,95.970 241.600 C 96.080 241.600,95.283 240.700,94.200 239.600 C 93.117 238.500,92.140 237.600,92.030 237.600 C 91.920 237.600,92.717 238.500,93.800 239.600 M111.775 241.700 L 110.600 243.000 111.900 241.825 C 113.112 240.730,113.384 240.400,113.075 240.400 C 113.006 240.400,112.421 240.985,111.775 241.700 M294.900 242.287 C 295.505 242.378,296.495 242.378,297.100 242.287 C 297.705 242.195,297.210 242.120,296.000 242.120 C 294.790 242.120,294.295 242.195,294.900 242.287 M79.293 243.600 C 79.293 244.370,79.375 244.685,79.476 244.300 C 79.576 243.915,79.576 243.285,79.476 242.900 C 79.375 242.515,79.293 242.830,79.293 243.600 M97.600 243.725 C 97.600 243.794,98.185 244.379,98.900 245.025 L 100.200 246.200 99.025 244.900 C 97.930 243.688,97.600 243.416,97.600 243.725 M107.978 245.900 L 106.600 247.400 108.100 246.022 C 109.496 244.738,109.784 244.400,109.478 244.400 C 109.412 244.400,108.737 245.075,107.978 245.900 M100.800 247.325 C 100.800 247.394,101.385 247.979,102.100 248.625 L 103.400 249.800 102.225 248.500 C 101.130 247.288,100.800 247.016,100.800 247.325 M81.200 248.925 C 81.200 248.994,81.785 249.579,82.500 250.225 L 83.800 251.400 82.625 250.100 C 81.530 248.888,81.200 248.616,81.200 248.925 M124.378 251.100 L 123.000 252.600 124.500 251.222 C 125.896 249.938,126.184 249.600,125.878 249.600 C 125.812 249.600,125.137 250.275,124.378 251.100 M84.400 252.525 C 84.400 252.594,84.985 253.179,85.700 253.825 L 87.000 255.000 85.825 253.700 C 84.730 252.488,84.400 252.216,84.400 252.525 M121.375 254.500 L 120.200 255.800 121.500 254.625 C 122.712 253.530,122.984 253.200,122.675 253.200 C 122.606 253.200,122.021 253.785,121.375 254.500 M89.800 258.400 C 90.659 259.280,91.452 260.000,91.562 260.000 C 91.672 260.000,91.059 259.280,90.200 258.400 C 89.341 257.520,88.548 256.800,88.438 256.800 C 88.328 256.800,88.941 257.520,89.800 258.400 M116.981 259.300 L 115.400 261.000 117.100 259.419 C 118.681 257.948,118.984 257.600,118.681 257.600 C 118.616 257.600,117.851 258.365,116.981 259.300 M372.462 259.600 C 372.422 260.370,372.296 261.450,372.183 262.000 L 371.977 263.000 372.408 262.014 C 372.644 261.471,372.770 260.391,372.686 259.614 L 372.534 258.200 372.462 259.600 M93.200 262.200 C 93.946 262.970,94.647 263.600,94.757 263.600 C 94.867 263.600,94.346 262.970,93.600 262.200 C 92.854 261.430,92.153 260.800,92.043 260.800 C 91.933 260.800,92.454 261.430,93.200 262.200 M113.375 263.300 L 112.200 264.600 113.500 263.425 C 114.712 262.330,114.984 262.000,114.675 262.000 C 114.606 262.000,114.021 262.585,113.375 263.300 M111.790 276.567 C 111.799 286.504,111.885 288.157,112.400 288.297 C 112.838 288.417,112.866 288.366,112.506 288.111 C 112.139 287.851,111.983 284.839,111.897 276.380 L 111.781 265.000 111.790 276.567 M363.863 267.732 C 364.610 267.947,365.560 267.947,366.203 267.732 C 367.093 267.436,366.869 267.371,364.945 267.371 C 362.891 267.371,362.759 267.416,363.863 267.732 M118.175 269.300 L 117.000 270.600 118.300 269.425 C 119.512 268.330,119.784 268.000,119.475 268.000 C 119.406 268.000,118.821 268.585,118.175 269.300 M156.800 271.600 C 158.168 272.038,159.219 272.038,158.200 271.600 C 157.760 271.411,157.040 271.262,156.600 271.268 C 155.957 271.277,155.996 271.343,156.800 271.600 M44.210 275.980 C 43.875 276.629,43.618 277.574,43.641 278.080 C 43.674 278.832,43.735 278.781,43.971 277.800 C 44.131 277.140,44.479 276.195,44.745 275.700 C 45.011 275.205,45.136 274.800,45.024 274.800 C 44.912 274.800,44.546 275.331,44.210 275.980 M148.175 276.100 L 147.000 277.400 148.300 276.225 C 149.015 275.579,149.600 274.994,149.600 274.925 C 149.600 274.616,149.270 274.888,148.175 276.100 M60.400 277.000 C 61.146 277.770,61.847 278.400,61.957 278.400 C 62.067 278.400,61.546 277.770,60.800 277.000 C 60.054 276.230,59.353 275.600,59.243 275.600 C 59.133 275.600,59.654 276.230,60.400 277.000 M359.123 277.100 C 358.418 277.921,357.890 278.800,358.101 278.800 C 358.183 278.800,358.649 278.260,359.137 277.600 C 360.101 276.296,360.092 275.972,359.123 277.100 M143.978 279.900 L 142.600 281.400 144.100 280.022 C 145.496 278.738,145.784 278.400,145.478 278.400 C 145.412 278.400,144.737 279.075,143.978 279.900 M63.600 279.725 C 63.600 279.794,64.185 280.379,64.900 281.025 L 66.200 282.200 65.025 280.900 C 63.930 279.688,63.600 279.416,63.600 279.725 M84.200 282.400 C 83.696 282.617,83.622 282.744,84.000 282.744 C 84.330 282.744,84.960 282.589,85.400 282.400 C 85.904 282.183,85.978 282.056,85.600 282.056 C 85.270 282.056,84.640 282.211,84.200 282.400 M356.988 306.600 C 356.988 320.240,357.038 325.878,357.100 319.129 C 357.161 312.380,357.161 301.220,357.100 294.329 C 357.038 287.438,356.988 292.960,356.988 306.600 M139.375 284.100 L 138.200 285.400 139.500 284.225 C 140.712 283.130,140.984 282.800,140.675 282.800 C 140.606 282.800,140.021 283.385,139.375 284.100 M68.800 284.600 C 69.546 285.370,70.247 286.000,70.357 286.000 C 70.467 286.000,69.946 285.370,69.200 284.600 C 68.454 283.830,67.753 283.200,67.643 283.200 C 67.533 283.200,68.054 283.830,68.800 284.600 M46.400 285.400 C 47.146 286.170,47.847 286.800,47.957 286.800 C 48.067 286.800,47.546 286.170,46.800 285.400 C 46.054 284.630,45.353 284.000,45.243 284.000 C 45.133 284.000,45.654 284.630,46.400 285.400 M136.162 286.847 C 135.743 287.313,135.040 287.842,134.600 288.022 C 134.034 288.254,133.983 288.357,134.425 288.375 C 134.769 288.389,135.568 287.860,136.200 287.200 C 136.832 286.540,137.254 286.000,137.137 286.000 C 137.020 286.000,136.581 286.381,136.162 286.847 M157.178 289.100 L 155.800 290.600 157.300 289.222 C 158.696 287.938,158.984 287.600,158.678 287.600 C 158.612 287.600,157.937 288.275,157.178 289.100 M51.600 290.200 C 52.346 290.970,53.047 291.600,53.157 291.600 C 53.267 291.600,52.746 290.970,52.000 290.200 C 51.254 289.430,50.553 288.800,50.443 288.800 C 50.333 288.800,50.854 289.430,51.600 290.200 M55.183 293.300 C 56.164 294.345,57.019 295.200,57.083 295.200 C 57.384 295.200,57.066 294.841,55.300 293.183 L 53.400 291.400 55.183 293.300 M150.400 296.925 C 150.400 296.994,150.985 297.579,151.700 298.225 L 153.000 299.400 151.825 298.100 C 150.730 296.888,150.400 296.616,150.400 296.925 M53.375 300.500 L 52.200 301.800 53.500 300.625 C 54.712 299.530,54.984 299.200,54.675 299.200 C 54.606 299.200,54.021 299.785,53.375 300.500 M154.000 300.125 C 154.000 300.194,154.585 300.779,155.300 301.425 L 156.600 302.600 155.425 301.300 C 154.330 300.088,154.000 299.816,154.000 300.125 M48.581 304.900 L 47.000 306.600 48.700 305.019 C 49.635 304.149,50.400 303.384,50.400 303.319 C 50.400 303.016,50.052 303.319,48.581 304.900 M111.685 315.476 C 111.638 321.898,111.735 327.236,111.900 327.339 C 112.065 327.441,112.154 324.077,112.098 319.862 C 111.902 305.266,111.770 303.854,111.685 315.476 M160.200 306.000 C 161.283 307.100,162.260 308.000,162.370 308.000 C 162.480 308.000,161.683 307.100,160.600 306.000 C 159.517 304.900,158.540 304.000,158.430 304.000 C 158.320 304.000,159.117 304.900,160.200 306.000 M70.778 305.900 L 69.400 307.400 70.900 306.022 C 72.296 304.738,72.584 304.400,72.278 304.400 C 72.212 304.400,71.537 305.075,70.778 305.900 M137.600 306.600 C 138.346 307.370,139.047 308.000,139.157 308.000 C 139.267 308.000,138.746 307.370,138.000 306.600 C 137.254 305.830,136.553 305.200,136.443 305.200 C 136.333 305.200,136.854 305.830,137.600 306.600 M261.849 308.215 C 261.712 308.573,261.618 309.256,261.641 309.733 C 261.667 310.281,261.803 310.086,262.010 309.203 C 262.360 307.716,262.265 307.133,261.849 308.215 M66.975 309.300 L 65.800 310.600 67.100 309.425 C 68.312 308.330,68.584 308.000,68.275 308.000 C 68.206 308.000,67.621 308.585,66.975 309.300 M141.600 310.200 C 142.346 310.970,143.047 311.600,143.157 311.600 C 143.267 311.600,142.746 310.970,142.000 310.200 C 141.254 309.430,140.553 308.800,140.443 308.800 C 140.333 308.800,140.854 309.430,141.600 310.200 M164.093 312.800 C 164.093 313.570,164.175 313.885,164.276 313.500 C 164.376 313.115,164.376 312.485,164.276 312.100 C 164.175 311.715,164.093 312.030,164.093 312.800 M330.934 314.800 C 330.934 316.450,331.005 317.125,331.091 316.300 C 331.178 315.475,331.178 314.125,331.091 313.300 C 331.005 312.475,330.934 313.150,330.934 314.800 M62.175 313.700 L 61.000 315.000 62.300 313.825 C 63.512 312.730,63.784 312.400,63.475 312.400 C 63.406 312.400,62.821 312.985,62.175 313.700 M145.200 313.325 C 145.200 313.394,145.785 313.979,146.500 314.625 L 147.800 315.800 146.625 314.500 C 145.530 313.288,145.200 313.016,145.200 313.325 M260.901 315.000 C 260.905 315.880,260.987 316.193,261.083 315.695 C 261.179 315.198,261.175 314.478,261.075 314.095 C 260.975 313.713,260.896 314.120,260.901 315.000 M58.575 316.900 L 57.400 318.200 58.700 317.025 C 59.415 316.379,60.000 315.794,60.000 315.725 C 60.000 315.416,59.670 315.688,58.575 316.900 M148.800 316.525 C 148.800 316.594,149.385 317.179,150.100 317.825 L 151.400 319.000 150.225 317.700 C 149.130 316.488,148.800 316.216,148.800 316.525 M330.514 319.800 C 330.517 320.900,330.595 321.303,330.687 320.695 C 330.779 320.086,330.777 319.186,330.682 318.695 C 330.587 318.203,330.511 318.700,330.514 319.800 M261.606 321.633 C 261.609 322.165,261.789 322.870,262.006 323.200 C 262.282 323.622,262.323 323.385,262.142 322.400 C 261.825 320.675,261.598 320.349,261.606 321.633 M94.575 328.500 L 93.400 329.800 94.700 328.625 C 95.912 327.530,96.184 327.200,95.875 327.200 C 95.806 327.200,95.221 327.785,94.575 328.500 M115.200 331.000 C 115.946 331.770,116.647 332.400,116.757 332.400 C 116.867 332.400,116.346 331.770,115.600 331.000 C 114.854 330.230,114.153 329.600,114.043 329.600 C 113.933 329.600,114.454 330.230,115.200 331.000 M91.578 331.900 L 90.200 333.400 91.700 332.022 C 93.096 330.738,93.384 330.400,93.078 330.400 C 93.012 330.400,92.337 331.075,91.578 331.900 M118.000 334.125 C 118.000 334.194,118.585 334.779,119.300 335.425 L 120.600 336.600 119.425 335.300 C 118.330 334.088,118.000 333.816,118.000 334.125 M324.026 335.707 C 322.887 337.111,322.842 337.229,323.763 336.400 C 324.720 335.538,325.856 333.986,325.514 334.007 C 325.451 334.011,324.782 334.776,324.026 335.707 M370.800 335.600 C 370.330 336.260,370.036 336.800,370.146 336.800 C 370.256 336.800,370.730 336.260,371.200 335.600 C 371.670 334.940,371.964 334.400,371.854 334.400 C 371.744 334.400,371.270 334.940,370.800 335.600 M87.775 336.100 L 86.600 337.400 87.900 336.225 C 89.112 335.130,89.384 334.800,89.075 334.800 C 89.006 334.800,88.421 335.385,87.775 336.100 M268.400 336.264 C 268.400 336.482,268.895 337.097,269.500 337.630 L 270.600 338.600 269.600 337.400 C 269.050 336.740,268.555 336.125,268.500 336.033 C 268.445 335.942,268.400 336.045,268.400 336.264 M362.000 337.982 C 362.330 338.205,362.945 338.391,363.367 338.394 C 364.390 338.402,364.071 338.173,362.600 337.844 C 361.724 337.648,361.562 337.685,362.000 337.982 M122.800 339.400 C 123.546 340.170,124.247 340.800,124.357 340.800 C 124.467 340.800,123.946 340.170,123.200 339.400 C 122.454 338.630,121.753 338.000,121.643 338.000 C 121.533 338.000,122.054 338.630,122.800 339.400 M83.978 340.300 L 82.600 341.800 84.100 340.422 C 85.496 339.138,85.784 338.800,85.478 338.800 C 85.412 338.800,84.737 339.475,83.978 340.300 M317.784 342.121 C 316.674 343.044,315.324 344.120,314.784 344.512 C 314.147 344.972,314.082 345.092,314.600 344.851 C 315.630 344.372,320.615 340.393,320.151 340.421 C 319.958 340.432,318.893 341.197,317.784 342.121 M106.383 344.500 C 108.041 346.266,108.400 346.584,108.400 346.283 C 108.400 346.219,107.545 345.364,106.500 344.383 L 104.600 342.600 106.383 344.500 M100.175 345.700 L 99.000 347.000 100.300 345.825 C 101.512 344.730,101.784 344.400,101.475 344.400 C 101.406 344.400,100.821 344.985,100.175 345.700 M109.600 348.200 C 110.346 348.970,111.047 349.600,111.157 349.600 C 111.267 349.600,110.746 348.970,110.000 348.200 C 109.254 347.430,108.553 346.800,108.443 346.800 C 108.333 346.800,108.854 347.430,109.600 348.200 M79.293 348.800 C 79.293 349.570,79.375 349.885,79.476 349.500 C 79.576 349.115,79.576 348.485,79.476 348.100 C 79.375 347.715,79.293 348.030,79.293 348.800 M96.975 349.300 L 95.800 350.600 97.100 349.425 C 98.312 348.330,98.584 348.000,98.275 348.000 C 98.206 348.000,97.621 348.585,96.975 349.300 M301.700 349.476 C 302.085 349.576,302.715 349.576,303.100 349.476 C 303.485 349.375,303.170 349.293,302.400 349.293 C 301.630 349.293,301.315 349.375,301.700 349.476 M291.700 349.876 C 292.085 349.976,292.715 349.976,293.100 349.876 C 293.485 349.775,293.170 349.693,292.400 349.693 C 291.630 349.693,291.315 349.775,291.700 349.876 M114.400 353.400 C 115.146 354.170,115.847 354.800,115.957 354.800 C 116.067 354.800,115.546 354.170,114.800 353.400 C 114.054 352.630,113.353 352.000,113.243 352.000 C 113.133 352.000,113.654 352.630,114.400 353.400 M15.693 363.600 C 15.693 364.370,15.775 364.685,15.876 364.300 C 15.976 363.915,15.976 363.285,15.876 362.900 C 15.775 362.515,15.693 362.830,15.693 363.600 M35.300 384.276 C 35.685 384.376,36.315 384.376,36.700 384.276 C 37.085 384.175,36.770 384.093,36.000 384.093 C 35.230 384.093,34.915 384.175,35.300 384.276 M362.500 384.276 C 362.885 384.376,363.515 384.376,363.900 384.276 C 364.285 384.175,363.970 384.093,363.200 384.093 C 362.430 384.093,362.115 384.175,362.500 384.276 " stroke="none" fill="#f74b4a" fill-rule="evenodd"></path></g></svg>