<svg id="svg" version="1.1" xmlns="http://www.w3.org/2000/svg" xmlns:xlink="http://www.w3.org/1999/xlink" width="400" height="400" viewBox="0, 0, 400,400"><g id="svgg"><path id="path0" d="M293.400 51.087 C 280.010 65.522,278.278 66.584,272.577 63.851 C 271.929 63.541,270.680 62.981,269.800 62.606 C 268.920 62.232,267.508 61.582,266.662 61.163 C 264.385 60.034,264.359 60.102,265.603 63.900 C 266.234 65.825,267.763 70.640,269.002 74.600 C 270.241 78.560,271.422 82.213,271.627 82.719 C 273.180 86.546,271.062 91.677,267.194 93.458 C 263.626 95.102,261.368 96.145,258.200 97.614 C 256.220 98.532,254.195 99.440,253.700 99.632 C 252.107 100.249,252.637 100.598,263.100 105.829 C 268.765 108.661,273.490 111.073,273.600 111.189 C 273.710 111.306,274.340 111.647,275.000 111.947 C 278.288 113.443,280.759 114.914,281.763 115.970 C 282.542 116.791,291.900 134.688,295.739 142.700 C 296.716 144.739,297.219 144.829,297.967 143.100 C 304.902 127.064,307.696 123.647,312.643 125.154 C 313.279 125.348,314.610 125.728,315.600 125.999 C 316.590 126.270,317.760 126.629,318.200 126.798 C 318.640 126.967,320.350 127.511,322.000 128.008 C 323.650 128.505,325.990 129.222,327.200 129.602 C 328.410 129.982,330.210 130.523,331.200 130.804 C 332.190 131.086,333.720 131.544,334.600 131.822 C 336.719 132.491,336.718 132.420,334.559 127.365 C 331.293 119.716,331.745 117.340,337.447 112.198 C 340.524 109.424,341.400 108.597,347.402 102.801 L 350.509 99.801 348.754 99.347 C 347.789 99.098,345.920 98.675,344.600 98.408 C 343.280 98.141,341.300 97.738,340.200 97.512 C 332.277 95.883,330.588 92.140,333.251 82.111 C 333.939 79.520,335.120 75.060,335.877 72.200 C 336.633 69.340,337.510 66.055,337.826 64.900 C 340.009 56.916,340.001 57.619,337.900 58.083 C 336.965 58.289,335.613 58.555,334.896 58.673 C 334.179 58.792,333.494 59.049,333.373 59.244 C 333.252 59.440,332.634 59.600,332.000 59.600 C 331.366 59.600,330.748 59.760,330.627 59.956 C 330.506 60.151,329.821 60.409,329.104 60.527 C 326.941 60.885,325.444 61.242,324.600 61.600 C 324.160 61.787,323.350 62.028,322.800 62.137 C 322.250 62.245,320.405 62.709,318.700 63.167 C 308.420 65.929,307.587 66.031,304.972 64.843 C 301.951 63.471,300.803 61.501,299.585 55.600 C 299.335 54.390,298.966 52.749,298.765 51.954 C 298.564 51.158,298.392 50.168,298.382 49.754 C 298.372 49.339,298.147 48.499,297.882 47.888 L 297.400 46.775 293.400 51.087 M115.000 166.860 C 106.420 169.041,98.680 170.989,97.800 171.187 C 96.920 171.386,95.480 171.743,94.600 171.980 C 93.720 172.217,92.280 172.577,91.400 172.780 C 90.520 172.983,89.080 173.343,88.200 173.580 C 87.320 173.817,85.880 174.174,85.000 174.373 C 79.936 175.515,70.690 178.034,68.800 178.786 C 45.106 188.215,38.676 219.295,56.662 237.461 C 59.079 239.901,63.871 243.600,64.616 243.600 C 64.759 243.600,65.354 243.929,65.938 244.330 C 66.522 244.732,67.630 245.290,68.400 245.571 C 69.170 245.851,70.160 246.228,70.600 246.407 C 72.964 247.371,78.909 248.384,82.200 248.384 C 95.148 248.384,107.511 241.170,113.703 230.000 C 116.025 225.811,116.705 223.690,120.048 210.200 C 121.792 203.160,123.681 195.600,124.246 193.400 C 125.293 189.320,125.629 187.979,126.400 184.800 C 126.640 183.810,127.000 182.370,127.200 181.600 C 127.400 180.830,127.760 179.390,128.000 178.400 C 128.240 177.410,128.600 175.970,128.800 175.200 C 129.000 174.430,129.352 173.035,129.582 172.100 C 129.812 171.165,130.180 169.680,130.400 168.800 C 130.620 167.920,130.957 166.525,131.150 165.700 C 131.342 164.875,131.632 163.885,131.793 163.500 C 132.219 162.480,132.251 162.474,115.000 166.860 " stroke="none" fill="#fad690" fill-rule="evenodd"></path><path id="path1" d="M116.800 0.273 C 115.810 0.371,114.829 0.619,114.620 0.825 C 114.411 1.031,113.736 1.200,113.120 1.200 C 112.504 1.200,112.000 1.380,112.000 1.600 C 112.000 1.820,111.561 2.000,111.024 2.000 C 110.487 2.000,109.936 2.180,109.800 2.400 C 109.664 2.620,109.113 2.800,108.576 2.800 C 108.039 2.800,107.600 2.980,107.600 3.200 C 107.600 3.420,107.240 3.600,106.800 3.600 C 106.360 3.600,106.000 3.780,106.000 4.000 C 106.000 4.220,105.640 4.400,105.200 4.400 C 104.760 4.400,104.400 4.580,104.400 4.800 C 104.400 5.020,104.040 5.200,103.600 5.200 C 103.160 5.200,102.800 5.380,102.800 5.600 C 102.800 5.820,102.440 6.000,102.000 6.000 C 101.560 6.000,101.200 6.180,101.200 6.400 C 101.200 6.620,100.880 6.800,100.488 6.800 C 100.097 6.800,99.517 7.160,99.200 7.600 C 98.883 8.040,98.381 8.400,98.085 8.400 C 96.847 8.400,85.600 18.917,85.600 20.075 C 85.600 20.312,85.284 20.797,84.897 21.153 C 84.511 21.509,83.940 22.295,83.630 22.900 C 83.319 23.505,82.915 24.000,82.732 24.000 C 82.550 24.000,82.400 24.360,82.400 24.800 C 82.400 25.240,82.250 25.600,82.067 25.600 C 81.664 25.600,79.200 30.289,79.200 31.056 C 79.200 31.355,79.064 31.600,78.897 31.600 C 77.783 31.600,77.125 39.585,78.100 41.280 C 78.909 42.686,81.123 44.800,81.787 44.800 C 82.124 44.800,82.400 44.980,82.400 45.200 C 82.400 46.584,90.360 45.438,91.528 43.885 C 91.824 43.492,92.501 42.735,93.033 42.203 C 93.565 41.671,94.000 40.868,94.000 40.418 C 94.000 39.968,94.180 39.600,94.400 39.600 C 94.620 39.600,94.800 39.240,94.800 38.800 C 94.800 38.360,94.980 38.000,95.200 38.000 C 95.420 38.000,95.600 37.640,95.600 37.200 C 95.600 36.760,95.780 36.400,96.000 36.400 C 96.220 36.400,96.400 36.040,96.400 35.600 C 96.400 35.160,96.580 34.800,96.800 34.800 C 97.020 34.800,97.200 34.480,97.200 34.088 C 97.200 33.697,97.560 33.117,98.000 32.800 C 98.440 32.483,98.800 31.977,98.800 31.676 C 98.800 31.097,106.712 23.200,107.293 23.200 C 107.709 23.200,110.149 21.515,110.333 21.100 C 110.407 20.935,110.812 20.800,111.233 20.800 C 111.655 20.800,112.000 20.620,112.000 20.400 C 112.000 20.180,112.360 20.000,112.800 20.000 C 113.240 20.000,113.600 19.820,113.600 19.600 C 113.600 19.380,113.962 19.200,114.405 19.200 C 114.848 19.200,115.568 19.020,116.005 18.800 C 116.442 18.580,117.158 18.220,117.595 18.000 C 118.032 17.780,118.917 17.600,119.561 17.600 C 120.206 17.600,120.795 17.415,120.870 17.189 C 120.957 16.929,123.505 16.778,127.800 16.778 C 132.095 16.778,134.643 16.929,134.730 17.189 C 134.805 17.415,135.572 17.600,136.433 17.600 C 137.295 17.600,138.000 17.780,138.000 18.000 C 138.000 18.220,138.540 18.400,139.200 18.400 C 139.860 18.400,140.400 18.580,140.400 18.800 C 140.400 19.020,140.760 19.200,141.200 19.200 C 141.640 19.200,142.000 19.380,142.000 19.600 C 142.000 19.820,142.287 20.000,142.638 20.000 C 142.989 20.000,143.754 20.321,144.338 20.714 C 144.922 21.107,145.940 21.692,146.600 22.014 C 147.260 22.336,148.038 22.826,148.330 23.101 C 148.621 23.377,149.701 24.177,150.730 24.878 C 152.697 26.219,155.200 28.705,155.200 29.318 C 155.200 29.516,155.740 30.183,156.400 30.800 C 157.060 31.417,157.600 32.209,157.600 32.560 C 157.600 32.912,157.743 33.200,157.918 33.200 C 158.331 33.200,161.200 39.256,161.200 40.130 C 161.200 40.498,161.380 40.800,161.600 40.800 C 161.820 40.800,162.000 41.340,162.000 42.000 C 162.000 42.660,162.180 43.200,162.400 43.200 C 162.620 43.200,162.800 44.100,162.800 45.200 C 162.800 46.300,162.980 47.200,163.200 47.200 C 163.446 47.200,163.600 49.200,163.600 52.400 C 163.600 55.600,163.446 57.600,163.200 57.600 C 162.980 57.600,162.800 58.410,162.800 59.400 C 162.800 60.390,162.620 61.200,162.400 61.200 C 162.180 61.200,162.000 61.729,162.000 62.376 C 162.000 63.023,161.820 63.664,161.600 63.800 C 161.380 63.936,161.200 64.487,161.200 65.024 C 161.200 65.561,161.020 66.000,160.800 66.000 C 160.580 66.000,160.400 66.360,160.400 66.800 C 160.400 67.240,160.220 67.600,160.000 67.600 C 159.780 67.600,159.600 67.938,159.600 68.351 C 159.600 68.764,159.330 69.326,159.000 69.600 C 158.670 69.874,158.400 70.436,158.400 70.849 C 158.400 71.262,158.250 71.600,158.068 71.600 C 157.885 71.600,157.480 72.093,157.168 72.697 C 156.339 74.297,148.793 81.600,147.968 81.600 C 147.747 81.600,147.180 81.960,146.708 82.400 C 146.236 82.840,145.613 83.200,145.325 83.200 C 145.036 83.200,144.800 83.380,144.800 83.600 C 144.800 83.820,144.440 84.000,144.000 84.000 C 143.560 84.000,143.200 84.180,143.200 84.400 C 143.200 84.620,142.930 84.800,142.600 84.800 C 142.270 84.800,142.000 84.980,142.000 85.200 C 142.000 85.420,141.460 85.600,140.800 85.600 C 140.140 85.600,139.600 85.780,139.600 86.000 C 139.600 86.220,139.060 86.400,138.400 86.400 C 137.740 86.400,137.200 86.580,137.200 86.800 C 137.200 87.020,136.480 87.200,135.600 87.200 C 134.720 87.200,134.000 87.380,134.000 87.600 C 134.000 87.865,116.075 88.000,81.024 88.000 C 46.137 88.000,27.963 88.137,27.800 88.400 C 27.664 88.620,27.199 88.800,26.766 88.800 C 25.959 88.800,22.400 92.052,22.400 92.789 C 22.400 93.015,22.220 93.200,22.000 93.200 C 21.763 93.200,21.600 94.667,21.600 96.800 C 21.600 98.933,21.763 100.400,22.000 100.400 C 22.220 100.400,22.400 100.676,22.400 101.013 C 22.400 101.809,24.991 104.400,25.787 104.400 C 26.124 104.400,26.400 104.580,26.400 104.800 C 26.400 105.354,135.858 105.354,136.200 104.800 C 136.336 104.580,137.236 104.400,138.200 104.400 C 139.164 104.400,140.064 104.220,140.200 104.000 C 140.336 103.780,141.067 103.600,141.824 103.600 C 142.581 103.600,143.200 103.420,143.200 103.200 C 143.200 102.980,143.740 102.800,144.400 102.800 C 145.060 102.800,145.600 102.620,145.600 102.400 C 145.600 102.180,146.140 102.000,146.800 102.000 C 147.460 102.000,148.000 101.820,148.000 101.600 C 148.000 101.380,148.360 101.200,148.800 101.200 C 149.240 101.200,149.600 101.020,149.600 100.800 C 149.600 100.580,149.960 100.400,150.400 100.400 C 150.840 100.400,151.200 100.220,151.200 100.000 C 151.200 99.780,151.560 99.600,152.000 99.600 C 152.440 99.600,152.800 99.420,152.800 99.200 C 152.800 98.980,153.160 98.800,153.600 98.800 C 154.040 98.800,154.400 98.620,154.400 98.400 C 154.400 98.180,154.636 98.000,154.925 98.000 C 155.213 98.000,155.836 97.640,156.308 97.200 C 156.780 96.760,157.353 96.400,157.580 96.400 C 157.807 96.400,158.218 96.040,158.493 95.600 C 158.768 95.160,159.223 94.800,159.506 94.800 C 160.057 94.800,161.599 93.415,167.221 87.871 C 169.189 85.929,170.800 84.084,170.800 83.771 C 170.800 83.457,170.950 83.200,171.132 83.200 C 171.315 83.200,171.720 82.705,172.032 82.100 C 172.344 81.495,172.709 80.910,172.843 80.800 C 173.370 80.368,175.200 76.566,175.200 75.903 C 175.200 75.516,175.336 75.200,175.502 75.200 C 175.669 75.200,176.040 74.615,176.329 73.900 C 176.617 73.185,177.021 72.287,177.226 71.905 C 177.432 71.523,177.600 70.938,177.600 70.605 C 177.600 70.272,177.780 70.000,178.000 70.000 C 178.220 70.000,178.400 69.471,178.400 68.824 C 178.400 68.177,178.580 67.536,178.800 67.400 C 179.020 67.264,179.200 66.544,179.200 65.800 C 179.200 65.056,179.380 64.336,179.600 64.200 C 179.820 64.064,180.000 62.973,180.000 61.776 C 180.000 60.579,180.180 59.600,180.400 59.600 C 180.652 59.600,180.800 56.941,180.800 52.424 C 180.800 48.071,180.643 45.150,180.400 45.000 C 180.180 44.864,180.000 43.773,180.000 42.576 C 180.000 41.379,179.820 40.400,179.600 40.400 C 179.380 40.400,179.200 39.680,179.200 38.800 C 179.200 37.920,179.020 37.200,178.800 37.200 C 178.580 37.200,178.400 36.660,178.400 36.000 C 178.400 35.340,178.220 34.800,178.000 34.800 C 177.780 34.800,177.600 34.260,177.600 33.600 C 177.600 32.940,177.420 32.400,177.200 32.400 C 176.980 32.400,176.800 32.040,176.800 31.600 C 176.800 31.160,176.620 30.800,176.400 30.800 C 176.180 30.800,176.000 30.440,176.000 30.000 C 176.000 29.560,175.843 29.200,175.650 29.200 C 175.458 29.200,175.190 28.652,175.056 27.981 C 174.922 27.311,174.270 25.973,173.606 25.009 C 172.943 24.045,172.400 23.103,172.400 22.916 C 172.400 22.729,172.040 22.317,171.600 22.000 C 171.160 21.683,170.800 21.175,170.800 20.872 C 170.800 20.569,170.298 19.844,169.685 19.260 C 169.071 18.677,168.134 17.570,167.602 16.800 C 166.602 15.352,163.604 12.400,163.133 12.400 C 162.986 12.400,162.132 11.696,161.237 10.835 C 160.341 9.975,159.066 9.031,158.404 8.738 C 157.742 8.445,157.200 8.069,157.200 7.902 C 157.200 7.736,156.930 7.600,156.600 7.600 C 156.270 7.600,156.000 7.420,156.000 7.200 C 156.000 6.980,155.764 6.800,155.475 6.800 C 155.187 6.800,154.564 6.440,154.092 6.000 C 153.620 5.560,152.956 5.200,152.617 5.200 C 152.278 5.200,152.000 5.020,152.000 4.800 C 152.000 4.580,151.640 4.400,151.200 4.400 C 150.760 4.400,150.400 4.220,150.400 4.000 C 150.400 3.780,149.860 3.600,149.200 3.600 C 148.540 3.600,148.000 3.420,148.000 3.200 C 148.000 2.980,147.640 2.800,147.200 2.800 C 146.760 2.800,146.400 2.620,146.400 2.400 C 146.400 2.180,145.860 2.000,145.200 2.000 C 144.540 2.000,144.000 1.820,144.000 1.600 C 144.000 1.380,143.406 1.200,142.680 1.200 C 141.954 1.200,141.138 0.978,140.867 0.707 C 140.371 0.211,120.969 -0.138,116.800 0.273 M300.400 21.200 C 300.400 21.420,299.860 21.600,299.200 21.600 C 298.540 21.600,298.000 21.736,298.000 21.902 C 298.000 22.069,297.505 22.427,296.900 22.698 C 296.295 22.969,295.381 23.809,294.870 24.564 C 294.358 25.320,291.606 28.313,288.754 31.217 C 285.901 34.120,283.080 37.141,282.484 37.929 C 280.384 40.706,274.499 46.221,273.939 45.937 C 273.643 45.786,272.140 45.102,270.600 44.415 C 269.060 43.729,267.524 43.018,267.187 42.835 C 266.850 42.652,265.997 42.375,265.291 42.220 C 264.586 42.065,263.906 41.772,263.781 41.569 C 263.655 41.366,263.203 41.200,262.776 41.200 C 262.349 41.200,262.000 41.020,262.000 40.800 C 262.000 40.580,261.475 40.400,260.833 40.400 C 260.192 40.400,259.607 40.265,259.533 40.100 C 259.312 39.601,255.978 38.000,255.162 38.000 C 254.743 38.000,254.400 37.820,254.400 37.600 C 254.400 37.365,253.000 37.200,251.000 37.200 C 249.000 37.200,247.600 37.365,247.600 37.600 C 247.600 37.820,247.240 38.000,246.800 38.000 C 246.360 38.000,246.000 38.180,246.000 38.400 C 246.000 38.620,245.807 38.800,245.571 38.800 C 244.934 38.800,244.000 39.853,244.000 40.571 C 244.000 40.917,243.865 41.201,243.700 41.203 C 242.063 41.220,242.029 47.688,243.649 50.895 C 243.842 51.277,244.000 51.941,244.000 52.371 C 244.000 52.801,244.180 53.264,244.400 53.400 C 244.620 53.536,244.800 54.076,244.800 54.600 C 244.800 55.124,244.980 55.664,245.200 55.800 C 245.420 55.936,245.600 56.476,245.600 57.000 C 245.600 57.524,245.780 58.064,246.000 58.200 C 246.220 58.336,246.400 58.876,246.400 59.400 C 246.400 59.924,246.580 60.464,246.800 60.600 C 247.020 60.736,247.200 61.366,247.200 62.000 C 247.200 62.634,247.380 63.264,247.600 63.400 C 247.820 63.536,248.000 64.076,248.000 64.600 C 248.000 65.124,248.180 65.664,248.400 65.800 C 248.620 65.936,248.800 66.476,248.800 67.000 C 248.800 67.524,248.980 68.064,249.200 68.200 C 249.420 68.336,249.600 68.977,249.600 69.624 C 249.600 70.271,249.780 70.800,250.000 70.800 C 250.220 70.800,250.400 71.239,250.400 71.776 C 250.400 72.313,250.580 72.864,250.800 73.000 C 251.020 73.136,251.200 73.687,251.200 74.224 C 251.200 74.761,251.380 75.200,251.600 75.200 C 251.820 75.200,252.000 75.740,252.000 76.400 C 252.000 77.060,252.180 77.600,252.400 77.600 C 252.620 77.600,252.800 78.104,252.800 78.720 C 252.800 79.336,253.000 80.040,253.245 80.285 C 253.826 80.866,253.355 81.600,252.400 81.600 C 251.986 81.600,251.536 81.780,251.400 82.000 C 251.264 82.220,250.803 82.400,250.376 82.400 C 249.949 82.400,249.600 82.580,249.600 82.800 C 249.600 83.020,249.240 83.200,248.800 83.200 C 248.360 83.200,248.000 83.380,248.000 83.600 C 248.000 83.820,247.640 84.000,247.200 84.000 C 246.760 84.000,246.400 84.180,246.400 84.400 C 246.400 84.620,246.040 84.800,245.600 84.800 C 245.160 84.800,244.800 84.980,244.800 85.200 C 244.800 85.420,244.350 85.600,243.800 85.600 C 243.250 85.600,242.800 85.780,242.800 86.000 C 242.800 86.220,242.440 86.400,242.000 86.400 C 241.560 86.400,241.200 86.580,241.200 86.800 C 241.200 87.020,240.840 87.200,240.400 87.200 C 239.960 87.200,239.600 87.380,239.600 87.600 C 239.600 87.820,239.240 88.000,238.800 88.000 C 238.360 88.000,238.000 88.180,238.000 88.400 C 238.000 88.620,237.640 88.800,237.200 88.800 C 236.760 88.800,236.400 88.980,236.400 89.200 C 236.400 89.420,235.950 89.600,235.400 89.600 C 234.850 89.600,234.400 89.780,234.400 90.000 C 234.400 90.220,233.950 90.400,233.400 90.400 C 232.850 90.400,232.400 90.580,232.400 90.800 C 232.400 91.020,232.085 91.212,231.700 91.227 C 223.075 91.554,222.723 106.901,231.300 108.673 C 231.905 108.798,232.400 109.058,232.400 109.250 C 232.400 109.442,232.760 109.600,233.200 109.600 C 233.640 109.600,234.000 109.780,234.000 110.000 C 234.000 110.220,234.360 110.400,234.800 110.400 C 235.240 110.400,235.600 110.580,235.600 110.800 C 235.600 111.020,235.960 111.200,236.400 111.200 C 236.840 111.200,237.200 111.380,237.200 111.600 C 237.200 111.820,237.560 112.000,238.000 112.000 C 238.440 112.000,238.800 112.180,238.800 112.400 C 238.800 112.620,239.160 112.800,239.600 112.800 C 240.040 112.800,240.400 112.980,240.400 113.200 C 240.400 113.420,240.760 113.600,241.200 113.600 C 241.640 113.600,242.000 113.780,242.000 114.000 C 242.000 114.220,242.270 114.400,242.600 114.400 C 242.930 114.400,243.200 114.580,243.200 114.800 C 243.200 115.020,243.560 115.200,244.000 115.200 C 244.440 115.200,244.800 115.380,244.800 115.600 C 244.800 115.820,245.160 116.000,245.600 116.000 C 246.040 116.000,246.400 116.180,246.400 116.400 C 246.400 116.620,246.760 116.800,247.200 116.800 C 247.640 116.800,248.000 116.980,248.000 117.200 C 248.000 117.420,248.360 117.600,248.800 117.600 C 249.240 117.600,249.600 117.780,249.600 118.000 C 249.600 118.220,249.960 118.400,250.400 118.400 C 250.840 118.400,251.200 118.580,251.200 118.800 C 251.200 119.020,251.560 119.200,252.000 119.200 C 252.440 119.200,252.800 119.380,252.800 119.600 C 252.800 119.820,253.160 120.000,253.600 120.000 C 254.040 120.000,254.400 120.180,254.400 120.400 C 254.400 120.620,254.760 120.800,255.200 120.800 C 255.640 120.800,256.000 120.980,256.000 121.200 C 256.000 121.420,256.360 121.600,256.800 121.600 C 257.240 121.600,257.600 121.738,257.600 121.906 C 257.600 122.074,258.320 122.523,259.200 122.904 C 261.258 123.796,262.127 122.625,251.400 133.404 C 245.820 139.011,242.000 143.155,242.000 143.601 C 242.000 144.015,241.820 144.464,241.600 144.600 C 241.380 144.736,241.200 146.176,241.200 147.800 C 241.200 149.424,241.380 150.864,241.600 151.000 C 241.820 151.136,242.000 151.553,242.000 151.928 C 242.000 153.825,246.588 156.542,249.600 156.429 C 251.338 156.364,253.600 155.871,253.600 155.558 C 253.600 155.361,253.819 155.200,254.087 155.200 C 254.354 155.200,257.660 152.095,261.433 148.300 C 273.201 136.463,274.000 135.757,274.000 137.200 C 274.000 137.640,274.180 138.000,274.400 138.000 C 274.620 138.000,274.800 138.180,274.800 138.399 C 274.800 138.830,280.217 149.817,283.478 156.000 C 287.116 162.897,287.397 163.399,287.700 163.533 C 287.865 163.607,288.000 164.012,288.000 164.433 C 288.000 164.855,288.180 165.200,288.400 165.200 C 288.620 165.200,288.800 165.560,288.800 166.000 C 288.800 166.440,288.980 166.800,289.200 166.800 C 289.420 166.800,289.600 167.160,289.600 167.600 C 289.600 168.040,289.780 168.400,290.000 168.400 C 290.220 168.400,290.400 168.683,290.400 169.029 C 290.400 172.674,301.428 173.692,303.701 170.256 C 304.849 168.520,306.000 166.285,306.000 165.789 C 306.000 165.465,306.180 165.200,306.400 165.200 C 306.620 165.200,306.800 164.840,306.800 164.400 C 306.800 163.960,306.980 163.600,307.200 163.600 C 307.420 163.600,307.600 163.351,307.600 163.046 C 307.600 162.741,307.869 161.976,308.198 161.346 C 308.526 160.716,308.796 159.885,308.798 159.500 C 308.799 159.115,308.980 158.800,309.200 158.800 C 309.420 158.800,309.600 158.451,309.600 158.024 C 309.600 157.597,309.780 157.136,310.000 157.000 C 310.220 156.864,310.400 156.403,310.400 155.976 C 310.400 155.549,310.580 155.200,310.800 155.200 C 311.020 155.200,311.200 154.840,311.200 154.400 C 311.200 153.960,311.380 153.600,311.600 153.600 C 311.820 153.600,312.000 153.240,312.000 152.800 C 312.000 152.360,312.180 152.000,312.400 152.000 C 312.620 152.000,312.800 151.640,312.800 151.200 C 312.800 150.760,312.980 150.400,313.200 150.400 C 313.420 150.400,313.600 150.051,313.600 149.624 C 313.600 149.197,313.780 148.736,314.000 148.600 C 314.220 148.464,314.400 147.913,314.400 147.376 C 314.400 146.839,314.580 146.400,314.800 146.400 C 315.020 146.400,315.200 146.117,315.200 145.771 C 315.200 145.426,315.457 144.886,315.771 144.571 C 316.421 143.922,318.400 143.793,318.400 144.400 C 318.400 144.620,318.940 144.800,319.600 144.800 C 320.260 144.800,320.800 144.980,320.800 145.200 C 320.800 145.420,321.329 145.600,321.976 145.600 C 322.623 145.600,323.264 145.780,323.400 146.000 C 323.536 146.220,324.166 146.400,324.800 146.400 C 325.434 146.400,326.064 146.580,326.200 146.800 C 326.336 147.020,326.887 147.200,327.424 147.200 C 327.961 147.200,328.400 147.380,328.400 147.600 C 328.400 147.820,328.929 148.000,329.576 148.000 C 330.223 148.000,330.864 148.180,331.000 148.400 C 331.136 148.620,331.766 148.800,332.400 148.800 C 333.034 148.800,333.664 148.980,333.800 149.200 C 333.936 149.420,334.577 149.600,335.224 149.600 C 335.871 149.600,336.400 149.780,336.400 150.000 C 336.400 150.220,336.940 150.400,337.600 150.400 C 338.260 150.400,338.800 150.580,338.800 150.800 C 338.800 151.020,339.340 151.200,340.000 151.200 C 340.660 151.200,341.200 151.380,341.200 151.600 C 341.200 151.820,341.729 152.000,342.376 152.000 C 343.023 152.000,343.664 152.180,343.800 152.400 C 343.936 152.620,344.577 152.800,345.224 152.800 C 345.871 152.800,346.400 152.960,346.400 153.156 C 346.400 153.490,347.283 153.707,350.853 154.253 C 351.711 154.384,352.417 154.296,352.577 154.038 C 352.726 153.797,353.377 153.600,354.024 153.600 C 354.671 153.600,355.200 153.420,355.200 153.200 C 355.200 152.980,355.436 152.800,355.725 152.800 C 356.592 152.800,358.368 150.661,358.643 149.286 C 358.784 148.578,359.058 148.000,359.250 148.000 C 359.443 148.000,359.600 146.830,359.600 145.400 C 359.600 143.970,359.440 142.800,359.245 142.800 C 359.049 142.800,358.765 142.138,358.613 141.329 C 358.461 140.519,357.973 139.034,357.529 138.029 C 357.084 137.023,356.537 135.750,356.313 135.200 C 356.090 134.650,355.748 133.887,355.553 133.505 C 355.359 133.123,355.200 132.538,355.200 132.205 C 355.200 131.872,355.020 131.600,354.800 131.600 C 354.580 131.600,354.400 131.328,354.400 130.995 C 354.400 130.662,354.243 130.077,354.050 129.695 C 352.486 126.589,352.000 125.421,352.000 124.762 C 352.000 124.343,351.820 124.000,351.600 124.000 C 350.021 124.000,351.879 121.927,362.089 112.301 C 369.836 104.996,370.736 104.157,372.516 102.579 C 373.522 101.688,374.566 100.473,374.837 99.879 C 375.107 99.286,375.480 98.800,375.664 98.800 C 375.849 98.800,376.000 97.090,376.000 95.000 C 376.000 92.733,375.839 91.200,375.600 91.200 C 375.380 91.200,375.200 90.853,375.200 90.429 C 375.200 89.527,372.540 87.200,371.509 87.200 C 371.119 87.200,370.800 87.020,370.800 86.800 C 370.800 86.580,370.080 86.400,369.200 86.400 C 368.320 86.400,367.600 86.220,367.600 86.000 C 367.600 85.780,366.700 85.600,365.600 85.600 C 364.500 85.600,363.600 85.438,363.600 85.240 C 363.600 85.042,362.790 84.772,361.800 84.640 C 360.810 84.508,359.190 84.292,358.200 84.160 C 357.210 84.028,356.400 83.758,356.400 83.560 C 356.400 83.362,355.601 83.200,354.624 83.200 C 353.647 83.200,352.736 83.020,352.600 82.800 C 352.464 82.580,351.913 82.400,351.376 82.400 C 350.839 82.400,350.400 82.220,350.400 82.000 C 350.400 81.780,350.580 81.600,350.800 81.600 C 351.020 81.600,351.200 80.981,351.200 80.224 C 351.200 79.467,351.380 78.736,351.600 78.600 C 351.820 78.464,352.000 77.823,352.000 77.176 C 352.000 76.529,352.180 76.000,352.400 76.000 C 352.620 76.000,352.800 75.381,352.800 74.624 C 352.800 73.867,352.980 73.136,353.200 73.000 C 353.420 72.864,353.600 72.133,353.600 71.376 C 353.600 70.619,353.780 70.000,354.000 70.000 C 354.220 70.000,354.400 69.381,354.400 68.624 C 354.400 67.867,354.560 67.148,354.756 67.027 C 354.951 66.906,355.227 66.131,355.367 65.304 C 355.985 61.676,356.108 61.181,356.444 60.973 C 356.640 60.852,356.800 60.234,356.800 59.600 C 356.800 58.966,356.980 58.336,357.200 58.200 C 357.420 58.064,357.600 57.502,357.600 56.950 C 357.600 56.399,357.782 55.608,358.004 55.192 C 358.227 54.777,358.522 53.349,358.661 52.018 C 358.800 50.688,359.068 49.600,359.257 49.600 C 359.909 49.600,359.642 43.409,358.928 41.961 C 358.031 40.143,355.660 38.000,354.545 38.000 C 354.051 38.000,353.536 37.820,353.400 37.600 C 353.264 37.380,352.353 37.200,351.376 37.200 C 350.399 37.200,349.600 37.380,349.600 37.600 C 349.600 37.820,348.880 38.000,348.000 38.000 C 347.120 38.000,346.400 38.180,346.400 38.400 C 346.400 38.620,345.781 38.800,345.024 38.800 C 344.267 38.800,343.536 38.980,343.400 39.200 C 343.264 39.420,342.533 39.600,341.776 39.600 C 341.019 39.600,340.400 39.780,340.400 40.000 C 340.400 40.220,339.858 40.400,339.195 40.400 C 338.532 40.400,337.677 40.565,337.295 40.767 C 336.913 40.969,335.160 41.432,333.400 41.796 C 331.640 42.160,329.787 42.625,329.281 42.829 C 328.776 43.033,327.931 43.200,327.405 43.200 C 326.878 43.200,326.336 43.380,326.200 43.600 C 326.064 43.820,325.333 44.000,324.576 44.000 C 323.819 44.000,323.200 44.180,323.200 44.400 C 323.200 44.620,322.581 44.800,321.824 44.800 C 321.067 44.800,320.348 44.960,320.227 45.156 C 320.106 45.351,319.331 45.627,318.504 45.767 C 317.677 45.908,316.415 46.128,315.700 46.255 L 314.400 46.488 314.400 44.644 C 314.400 43.630,314.220 42.800,314.000 42.800 C 313.780 42.800,313.600 41.900,313.600 40.800 C 313.600 39.700,313.420 38.800,313.200 38.800 C 312.980 38.800,312.800 37.990,312.800 37.000 C 312.800 36.010,312.620 35.200,312.400 35.200 C 312.180 35.200,312.000 34.390,312.000 33.400 C 312.000 32.410,311.820 31.600,311.600 31.600 C 311.380 31.600,311.200 30.700,311.200 29.600 C 311.200 28.500,311.020 27.600,310.800 27.600 C 310.580 27.600,310.400 27.150,310.400 26.600 C 310.400 26.050,310.220 25.600,310.000 25.600 C 309.780 25.600,309.600 25.331,309.600 25.003 C 309.600 24.225,308.007 22.400,307.328 22.400 C 307.038 22.400,306.800 22.220,306.800 22.000 C 306.800 21.780,306.350 21.600,305.800 21.600 C 305.250 21.600,304.800 21.420,304.800 21.200 C 304.800 20.980,303.810 20.800,302.600 20.800 C 301.390 20.800,300.400 20.980,300.400 21.200 M298.557 46.900 C 300.895 59.082,301.582 61.378,303.359 62.938 C 306.009 65.264,308.338 65.313,315.800 63.200 C 316.680 62.951,318.030 62.591,318.800 62.400 C 319.570 62.209,320.920 61.849,321.800 61.600 C 322.680 61.351,324.030 60.991,324.800 60.800 C 325.570 60.609,326.920 60.249,327.800 59.999 C 328.680 59.749,329.850 59.453,330.400 59.342 C 330.950 59.231,331.760 58.987,332.200 58.800 C 332.640 58.613,333.495 58.357,334.100 58.230 C 334.705 58.104,335.695 57.896,336.300 57.770 C 336.905 57.643,337.781 57.356,338.247 57.130 C 339.351 56.597,340.643 56.887,340.447 57.624 C 340.362 57.941,340.149 58.830,339.973 59.600 C 339.797 60.370,339.449 61.720,339.200 62.600 C 338.951 63.480,338.596 64.830,338.412 65.600 C 338.228 66.370,337.779 68.080,337.415 69.400 C 334.693 79.255,332.400 88.383,332.400 89.361 C 332.400 91.819,335.315 95.692,337.494 96.129 C 340.482 96.729,341.101 96.864,342.400 97.195 C 343.170 97.391,344.970 97.761,346.400 98.016 C 352.421 99.091,352.425 99.098,349.085 102.237 C 330.747 119.467,331.503 118.080,335.407 127.322 C 338.252 134.058,338.405 133.947,330.000 131.221 C 329.450 131.043,327.650 130.493,326.000 130.001 C 324.350 129.508,322.640 128.967,322.200 128.798 C 321.760 128.629,320.590 128.270,319.600 128.000 C 318.610 127.730,317.440 127.374,317.000 127.210 C 311.810 125.270,308.343 125.611,305.962 128.293 C 305.008 129.369,304.667 130.004,302.790 134.200 C 302.298 135.300,301.231 137.640,300.420 139.400 C 299.609 141.160,298.612 143.355,298.205 144.278 C 297.330 146.263,296.511 146.123,295.613 143.833 C 295.304 143.045,294.904 142.400,294.725 142.400 C 294.546 142.400,294.400 142.040,294.400 141.600 C 294.400 141.160,294.220 140.800,294.000 140.800 C 293.780 140.800,293.600 140.440,293.600 140.000 C 293.600 139.560,293.420 139.200,293.200 139.200 C 292.980 139.200,292.800 138.855,292.800 138.433 C 292.800 138.012,292.665 137.607,292.500 137.533 C 292.335 137.460,289.908 132.850,287.106 127.288 C 280.839 114.847,282.764 116.593,265.932 108.078 C 257.769 103.949,251.800 100.699,251.800 100.384 C 251.800 99.817,252.708 99.297,257.400 97.181 C 258.940 96.486,261.280 95.416,262.600 94.802 C 263.920 94.188,265.699 93.376,266.552 92.999 C 270.193 91.389,272.309 87.212,271.196 83.828 C 270.974 83.153,269.815 79.540,268.621 75.800 C 267.426 72.060,265.898 67.290,265.225 65.200 C 263.320 59.291,263.437 59.024,267.200 60.679 C 267.970 61.018,269.140 61.523,269.800 61.801 C 270.460 62.079,271.853 62.688,272.896 63.153 C 276.953 64.965,279.684 64.334,283.200 60.771 C 286.185 57.747,295.656 47.696,296.400 46.763 C 297.226 45.727,298.346 45.798,298.557 46.900 M138.800 143.600 C 138.800 143.820,138.080 144.000,137.200 144.000 C 136.320 144.000,135.600 144.180,135.600 144.400 C 135.600 144.620,134.880 144.800,134.000 144.800 C 133.120 144.800,132.400 144.980,132.400 145.200 C 132.400 145.420,131.680 145.600,130.800 145.600 C 129.920 145.600,129.200 145.780,129.200 146.000 C 129.200 146.220,128.581 146.400,127.824 146.400 C 127.067 146.400,126.336 146.580,126.200 146.800 C 126.064 147.020,125.333 147.200,124.576 147.200 C 123.819 147.200,123.200 147.380,123.200 147.600 C 123.200 147.820,122.480 148.000,121.600 148.000 C 120.720 148.000,120.000 148.180,120.000 148.400 C 120.000 148.620,119.280 148.800,118.400 148.800 C 117.520 148.800,116.800 148.980,116.800 149.200 C 116.800 149.420,116.080 149.600,115.200 149.600 C 114.320 149.600,113.600 149.780,113.600 150.000 C 113.600 150.220,112.880 150.400,112.000 150.400 C 111.120 150.400,110.400 150.580,110.400 150.800 C 110.400 151.020,109.770 151.200,109.000 151.200 C 108.230 151.200,107.600 151.380,107.600 151.600 C 107.600 151.820,106.880 152.000,106.000 152.000 C 105.120 152.000,104.400 152.180,104.400 152.400 C 104.400 152.620,103.680 152.800,102.800 152.800 C 101.920 152.800,101.200 152.980,101.200 153.200 C 101.200 153.420,100.480 153.600,99.600 153.600 C 98.720 153.600,98.000 153.780,98.000 154.000 C 98.000 154.220,97.280 154.400,96.400 154.400 C 95.520 154.400,94.800 154.580,94.800 154.800 C 94.800 155.020,94.170 155.200,93.400 155.200 C 92.630 155.200,92.000 155.380,92.000 155.600 C 92.000 155.820,91.280 156.000,90.400 156.000 C 89.520 156.000,88.800 156.180,88.800 156.400 C 88.800 156.620,88.080 156.800,87.200 156.800 C 86.320 156.800,85.600 156.980,85.600 157.200 C 85.600 157.420,84.880 157.600,84.000 157.600 C 83.120 157.600,82.400 157.744,82.400 157.921 C 82.400 158.097,81.005 158.461,79.300 158.729 C 77.595 158.997,75.525 159.321,74.700 159.450 C 73.875 159.579,73.200 159.845,73.200 160.042 C 73.200 160.239,72.480 160.400,71.600 160.400 C 70.720 160.400,70.000 160.580,70.000 160.800 C 70.000 161.020,69.381 161.200,68.624 161.200 C 67.867 161.200,67.136 161.380,67.000 161.600 C 66.864 161.820,66.223 162.000,65.576 162.000 C 64.929 162.000,64.400 162.180,64.400 162.400 C 64.400 162.620,64.065 162.800,63.656 162.800 C 62.854 162.800,57.887 165.205,57.667 165.700 C 57.593 165.865,57.188 166.000,56.767 166.000 C 56.345 166.000,56.000 166.180,56.000 166.400 C 56.000 166.620,55.640 166.800,55.200 166.800 C 54.760 166.800,54.400 166.980,54.400 167.200 C 54.400 167.420,54.157 167.600,53.859 167.600 C 53.562 167.600,52.754 168.140,52.063 168.800 C 51.372 169.460,50.621 170.000,50.393 170.000 C 50.165 170.000,49.189 170.765,48.224 171.700 C 47.259 172.635,45.959 173.865,45.335 174.432 C 43.651 175.964,40.400 179.570,40.399 179.907 C 40.399 180.068,39.859 180.830,39.200 181.600 C 38.541 182.370,38.001 183.225,38.001 183.500 C 38.000 183.775,37.820 184.000,37.600 184.000 C 37.380 184.000,37.200 184.278,37.200 184.617 C 37.200 184.956,36.840 185.620,36.400 186.092 C 35.960 186.564,35.600 187.187,35.600 187.475 C 35.600 187.764,35.453 188.000,35.272 188.000 C 35.092 188.000,34.700 188.900,34.400 190.000 C 34.100 191.100,33.708 192.000,33.528 192.000 C 33.347 192.000,33.200 192.349,33.200 192.776 C 33.200 193.203,33.020 193.664,32.800 193.800 C 32.580 193.936,32.400 194.476,32.400 195.000 C 32.400 195.524,32.220 196.064,32.000 196.200 C 31.780 196.336,31.600 196.977,31.600 197.624 C 31.600 198.271,31.438 198.800,31.240 198.800 C 31.042 198.800,30.768 199.655,30.629 200.700 C 29.274 210.954,28.960 215.520,29.569 216.129 C 29.806 216.366,30.000 217.773,30.000 219.256 C 30.000 220.739,30.180 222.064,30.400 222.200 C 30.620 222.336,30.800 223.247,30.800 224.224 C 30.800 225.201,30.980 226.000,31.200 226.000 C 31.420 226.000,31.600 226.540,31.600 227.200 C 31.600 227.860,31.780 228.400,32.000 228.400 C 32.220 228.400,32.400 228.940,32.400 229.600 C 32.400 230.260,32.580 230.800,32.800 230.800 C 33.020 230.800,33.200 231.239,33.200 231.776 C 33.200 232.313,33.380 232.864,33.600 233.000 C 33.820 233.136,34.000 233.597,34.000 234.024 C 34.000 234.451,34.180 234.800,34.400 234.800 C 34.620 234.800,34.800 235.160,34.800 235.600 C 34.800 236.040,34.980 236.400,35.200 236.400 C 35.420 236.400,35.600 236.760,35.600 237.200 C 35.600 237.640,35.780 238.000,36.000 238.000 C 36.220 238.000,36.400 238.270,36.400 238.600 C 36.400 238.930,36.580 239.200,36.800 239.200 C 37.020 239.200,37.200 239.470,37.200 239.800 C 37.200 240.130,37.380 240.400,37.600 240.400 C 37.820 240.400,38.000 240.630,38.000 240.912 C 38.000 241.193,38.343 241.671,38.763 241.973 C 39.473 242.485,38.768 243.279,28.563 253.455 C 22.533 259.468,17.600 264.530,17.600 264.705 C 17.600 264.880,17.240 265.283,16.800 265.600 C 16.360 265.917,16.000 266.497,16.000 266.888 C 16.000 267.280,15.820 267.600,15.600 267.600 C 15.365 267.600,15.200 269.000,15.200 271.000 C 15.200 273.000,15.365 274.400,15.600 274.400 C 15.820 274.400,16.000 274.676,16.000 275.013 C 16.000 275.809,18.591 278.400,19.387 278.400 C 19.724 278.400,20.000 278.580,20.000 278.800 C 20.000 279.035,21.400 279.200,23.400 279.200 C 25.400 279.200,26.800 279.035,26.800 278.800 C 26.800 278.580,27.160 278.400,27.600 278.400 C 28.040 278.400,28.400 278.220,28.400 278.000 C 28.400 277.780,28.624 277.600,28.897 277.600 C 29.171 277.600,34.481 272.516,40.697 266.303 C 46.914 260.089,52.000 255.217,52.000 255.476 C 52.000 255.734,52.359 256.060,52.798 256.199 C 53.236 256.338,53.825 256.666,54.105 256.926 C 54.927 257.690,57.073 258.800,57.728 258.800 C 58.061 258.800,58.393 258.935,58.467 259.100 C 58.688 259.599,62.022 261.200,62.838 261.200 C 63.257 261.200,63.600 261.380,63.600 261.600 C 63.600 261.820,64.140 262.000,64.800 262.000 C 65.460 262.000,66.000 262.180,66.000 262.400 C 66.000 262.620,66.540 262.800,67.200 262.800 C 67.860 262.800,68.400 262.980,68.400 263.200 C 68.400 263.420,69.300 263.600,70.400 263.600 C 71.500 263.600,72.400 263.780,72.400 264.000 C 72.400 264.235,73.800 264.400,75.800 264.400 C 77.800 264.400,79.200 264.565,79.200 264.800 C 79.200 265.031,80.459 265.200,82.176 265.200 C 83.813 265.200,85.264 265.020,85.400 264.800 C 85.536 264.580,86.987 264.400,88.624 264.400 C 90.341 264.400,91.600 264.231,91.600 264.000 C 91.600 263.780,92.500 263.600,93.600 263.600 C 94.700 263.600,95.600 263.420,95.600 263.200 C 95.600 262.980,96.219 262.800,96.976 262.800 C 97.733 262.800,98.464 262.620,98.600 262.400 C 98.736 262.180,99.276 262.000,99.800 262.000 C 100.324 262.000,100.864 261.820,101.000 261.600 C 101.136 261.380,101.597 261.200,102.024 261.200 C 102.451 261.200,102.800 261.020,102.800 260.800 C 102.800 260.580,103.149 260.400,103.576 260.400 C 104.003 260.400,104.464 260.220,104.600 260.000 C 104.736 259.780,105.197 259.600,105.624 259.600 C 106.051 259.600,106.400 259.434,106.400 259.232 C 106.400 259.029,106.940 258.745,107.600 258.600 C 108.260 258.455,108.800 258.171,108.800 257.968 C 108.800 257.766,109.160 257.600,109.600 257.600 C 110.040 257.600,110.400 257.432,110.400 257.227 C 110.400 257.022,110.766 256.738,111.213 256.596 C 111.660 256.454,112.462 255.902,112.995 255.369 C 113.528 254.836,114.169 254.400,114.420 254.400 C 115.165 254.400,124.220 245.001,124.781 243.646 C 125.065 242.961,125.455 242.400,125.649 242.400 C 125.842 242.400,126.000 242.212,126.000 241.983 C 126.000 241.754,126.360 241.180,126.800 240.708 C 127.240 240.236,127.600 239.613,127.600 239.325 C 127.600 239.036,127.780 238.800,128.000 238.800 C 128.220 238.800,128.400 238.440,128.400 238.000 C 128.400 237.560,128.580 237.200,128.800 237.200 C 129.020 237.200,129.200 236.840,129.200 236.400 C 129.200 235.960,129.380 235.600,129.600 235.600 C 129.820 235.600,130.000 235.240,130.000 234.800 C 130.000 234.360,130.180 234.000,130.400 234.000 C 130.620 234.000,130.800 233.640,130.800 233.200 C 130.800 232.760,130.980 232.400,131.200 232.400 C 131.420 232.400,131.600 231.860,131.600 231.200 C 131.600 230.540,131.780 230.000,132.000 230.000 C 132.220 230.000,132.400 229.460,132.400 228.800 C 132.400 228.140,132.580 227.600,132.800 227.600 C 133.020 227.600,133.200 226.981,133.200 226.224 C 133.200 225.467,133.380 224.736,133.600 224.600 C 133.820 224.464,134.000 223.733,134.000 222.976 C 134.000 222.219,134.180 221.600,134.400 221.600 C 134.620 221.600,134.800 220.880,134.800 220.000 C 134.800 219.120,134.980 218.400,135.200 218.400 C 135.420 218.400,135.600 217.680,135.600 216.800 C 135.600 215.920,135.780 215.200,136.000 215.200 C 136.220 215.200,136.400 214.581,136.400 213.824 C 136.400 213.067,136.580 212.336,136.800 212.200 C 137.020 212.064,137.200 211.344,137.200 210.600 C 137.200 209.856,137.380 209.136,137.600 209.000 C 137.820 208.864,138.000 208.144,138.000 207.400 C 138.000 206.656,138.180 205.936,138.400 205.800 C 138.620 205.664,138.800 204.933,138.800 204.176 C 138.800 203.419,138.980 202.800,139.200 202.800 C 139.420 202.800,139.600 202.091,139.600 201.224 C 139.600 200.357,139.780 199.536,140.000 199.400 C 140.220 199.264,140.400 198.544,140.400 197.800 C 140.400 197.056,140.562 196.347,140.759 196.225 C 140.957 196.103,141.245 194.742,141.400 193.202 C 141.555 191.661,141.843 190.400,142.041 190.400 C 142.238 190.400,142.400 189.680,142.400 188.800 C 142.400 187.920,142.580 187.200,142.800 187.200 C 143.020 187.200,143.200 186.480,143.200 185.600 C 143.200 184.720,143.380 184.000,143.600 184.000 C 143.820 184.000,144.000 183.280,144.000 182.400 C 144.000 181.520,144.180 180.800,144.400 180.800 C 144.620 180.800,144.800 180.080,144.800 179.200 C 144.800 178.320,144.980 177.600,145.200 177.600 C 145.420 177.600,145.600 176.981,145.600 176.224 C 145.600 175.467,145.780 174.736,146.000 174.600 C 146.220 174.464,146.400 173.733,146.400 172.976 C 146.400 172.219,146.580 171.600,146.800 171.600 C 147.020 171.600,147.200 170.880,147.200 170.000 C 147.200 169.120,147.380 168.400,147.600 168.400 C 147.820 168.400,148.000 167.680,148.000 166.800 C 148.000 165.920,148.180 165.200,148.400 165.200 C 148.620 165.200,148.800 164.480,148.800 163.600 C 148.800 162.720,148.980 162.000,149.200 162.000 C 149.420 162.000,149.600 161.280,149.600 160.400 C 149.600 159.520,149.780 158.800,150.000 158.800 C 150.220 158.800,150.400 158.170,150.400 157.400 C 150.400 156.630,150.580 156.000,150.800 156.000 C 151.040 156.000,151.200 154.400,151.200 152.000 C 151.200 149.600,151.040 148.000,150.800 148.000 C 150.580 148.000,150.400 147.724,150.400 147.387 C 150.400 146.591,147.809 144.000,147.013 144.000 C 146.676 144.000,146.400 143.820,146.400 143.600 C 146.400 143.361,144.867 143.200,142.600 143.200 C 140.333 143.200,138.800 143.361,138.800 143.600 M132.400 162.990 C 132.400 163.621,131.021 169.397,130.385 171.428 C 130.173 172.104,130.000 173.038,130.000 173.505 C 130.000 173.971,129.820 174.464,129.600 174.600 C 129.380 174.736,129.200 175.456,129.200 176.200 C 129.200 176.944,129.020 177.664,128.800 177.800 C 128.580 177.936,128.400 178.656,128.400 179.400 C 128.400 180.144,128.240 180.852,128.044 180.973 C 127.708 181.180,127.472 182.193,126.942 185.703 C 126.818 186.529,126.555 187.305,126.358 187.426 C 126.161 187.548,126.000 188.029,126.000 188.495 C 126.000 188.962,125.832 189.896,125.627 190.572 C 125.256 191.795,124.666 194.044,123.967 196.900 C 123.765 197.725,123.435 199.075,123.233 199.900 C 122.622 202.397,122.088 204.515,121.645 206.200 C 121.414 207.080,120.576 210.500,119.782 213.800 C 116.461 227.610,114.415 231.975,108.434 238.006 C 104.763 241.708,97.493 246.400,95.428 246.400 C 95.109 246.400,94.736 246.580,94.600 246.800 C 94.464 247.020,93.924 247.200,93.400 247.200 C 92.876 247.200,92.351 247.356,92.233 247.547 C 91.838 248.185,88.253 248.540,82.200 248.540 C 76.147 248.540,72.562 248.185,72.167 247.547 C 72.049 247.356,71.601 247.200,71.171 247.200 C 70.741 247.200,70.077 247.040,69.695 246.844 C 69.313 246.648,68.100 246.069,67.000 245.558 C 65.161 244.703,61.467 242.400,59.438 240.843 C 54.628 237.152,49.155 229.443,47.624 224.200 C 46.018 218.704,45.931 218.073,45.933 211.935 C 45.933 208.208,46.109 205.343,46.367 204.862 C 46.605 204.417,46.800 203.601,46.800 203.050 C 46.800 202.498,46.980 201.936,47.200 201.800 C 47.420 201.664,47.600 201.192,47.600 200.750 C 47.600 196.436,55.797 185.670,62.200 181.573 C 64.877 179.861,65.841 179.352,68.300 178.353 C 68.905 178.108,69.713 177.748,70.095 177.553 C 70.477 177.359,71.231 177.200,71.771 177.200 C 72.311 177.200,72.852 177.040,72.973 176.844 C 73.094 176.649,73.779 176.392,74.496 176.273 C 75.707 176.073,77.099 175.749,80.900 174.782 C 81.725 174.572,83.075 174.228,83.900 174.018 C 84.725 173.808,86.165 173.448,87.100 173.218 C 88.035 172.988,89.565 172.612,90.500 172.382 C 91.435 172.152,92.830 171.809,93.600 171.620 C 107.270 168.268,126.999 163.276,128.400 162.815 C 130.160 162.235,132.400 162.333,132.400 162.990 M176.800 209.318 C 174.861 210.217,172.400 213.206,172.400 214.664 C 172.400 215.399,172.220 216.000,172.000 216.000 C 171.780 216.000,171.600 216.529,171.600 217.176 C 171.600 217.823,171.780 218.464,172.000 218.600 C 172.220 218.736,172.400 219.467,172.400 220.224 C 172.400 220.981,172.580 221.600,172.800 221.600 C 173.020 221.600,173.200 221.812,173.200 222.072 C 173.200 222.872,176.048 225.200,177.027 225.200 C 177.536 225.200,178.064 225.380,178.200 225.600 C 178.359 225.857,184.737 226.000,196.024 226.000 C 207.475 226.000,213.600 225.861,213.600 225.600 C 213.600 225.380,214.112 225.200,214.739 225.200 C 215.365 225.200,216.293 224.840,216.800 224.400 C 217.307 223.960,217.875 223.600,218.061 223.600 C 218.248 223.600,218.400 223.330,218.400 223.000 C 218.400 222.670,218.580 222.400,218.800 222.400 C 219.020 222.400,219.200 222.130,219.200 221.800 C 219.200 221.470,219.380 221.200,219.600 221.200 C 219.839 221.200,220.000 219.667,220.000 217.400 C 220.000 215.133,219.839 213.600,219.600 213.600 C 219.380 213.600,219.200 213.312,219.200 212.960 C 219.200 212.106,217.003 210.096,215.285 209.378 C 213.472 208.620,178.423 208.565,176.800 209.318 M239.800 209.200 C 239.664 209.420,239.276 209.600,238.937 209.600 C 237.742 209.600,234.800 213.201,234.800 214.664 C 234.800 215.399,234.620 216.000,234.400 216.000 C 234.180 216.000,234.000 216.540,234.000 217.200 C 234.000 217.860,234.180 218.400,234.400 218.400 C 234.620 218.400,234.800 219.120,234.800 220.000 C 234.800 220.880,234.980 221.600,235.200 221.600 C 235.420 221.600,235.600 221.806,235.600 222.057 C 235.600 222.816,237.893 224.761,239.084 225.013 C 239.698 225.142,240.513 225.417,240.895 225.624 C 241.820 226.125,244.800 226.106,244.800 225.600 C 244.800 225.380,245.312 225.200,245.939 225.200 C 246.565 225.200,247.493 224.840,248.000 224.400 C 248.507 223.960,249.075 223.600,249.261 223.600 C 249.448 223.600,249.600 223.330,249.600 223.000 C 249.600 222.670,249.780 222.400,250.000 222.400 C 250.220 222.400,250.400 222.130,250.400 221.800 C 250.400 221.470,250.580 221.200,250.800 221.200 C 251.039 221.200,251.200 219.667,251.200 217.400 C 251.200 215.133,251.039 213.600,250.800 213.600 C 250.580 213.600,250.400 213.312,250.400 212.960 C 250.400 210.414,241.091 207.112,239.800 209.200 M271.003 209.196 C 270.865 209.418,270.487 209.600,270.163 209.600 C 269.495 209.600,266.800 212.154,266.800 212.787 C 266.800 213.014,266.620 213.200,266.400 213.200 C 266.180 213.200,266.000 213.819,266.000 214.576 C 266.000 215.333,265.820 216.064,265.600 216.200 C 265.380 216.336,265.200 216.876,265.200 217.400 C 265.200 217.924,265.380 218.464,265.600 218.600 C 265.820 218.736,266.000 219.467,266.000 220.224 C 266.000 220.981,266.180 221.600,266.400 221.600 C 266.620 221.600,266.800 221.806,266.800 222.057 C 266.800 222.816,269.093 224.761,270.284 225.013 C 270.898 225.142,271.713 225.417,272.095 225.624 C 272.512 225.850,285.814 226.000,305.395 226.000 C 326.865 226.000,338.000 226.137,338.000 226.400 C 338.000 226.620,338.720 226.800,339.600 226.800 C 340.480 226.800,341.200 226.980,341.200 227.200 C 341.200 227.420,341.740 227.600,342.400 227.600 C 343.060 227.600,343.600 227.780,343.600 228.000 C 343.600 228.220,344.050 228.400,344.600 228.400 C 345.150 228.400,345.600 228.580,345.600 228.800 C 345.600 229.020,345.960 229.200,346.400 229.200 C 346.840 229.200,347.200 229.380,347.200 229.600 C 347.200 229.820,347.560 230.000,348.000 230.000 C 348.440 230.000,348.800 230.180,348.800 230.400 C 348.800 230.620,349.120 230.800,349.512 230.800 C 349.903 230.800,350.483 231.160,350.800 231.600 C 351.117 232.040,351.625 232.400,351.928 232.400 C 352.231 232.400,352.956 232.902,353.540 233.515 C 354.123 234.129,355.230 235.065,356.000 235.596 C 356.770 236.127,357.490 236.683,357.600 236.831 C 357.710 236.979,358.160 237.589,358.600 238.186 C 361.109 241.589,362.233 243.015,362.500 243.133 C 362.665 243.207,362.800 243.612,362.800 244.033 C 362.800 244.455,362.980 244.800,363.200 244.800 C 363.420 244.800,363.600 245.160,363.600 245.600 C 363.600 246.040,363.780 246.400,364.000 246.400 C 364.220 246.400,364.400 246.760,364.400 247.200 C 364.400 247.640,364.580 248.000,364.800 248.000 C 365.020 248.000,365.200 248.439,365.200 248.976 C 365.200 249.513,365.380 250.064,365.600 250.200 C 365.820 250.336,366.000 250.876,366.000 251.400 C 366.000 251.924,366.180 252.464,366.400 252.600 C 366.620 252.736,366.800 253.456,366.800 254.200 C 366.800 254.944,366.980 255.664,367.200 255.800 C 367.437 255.946,367.600 258.404,367.600 261.824 C 367.600 265.408,367.448 267.600,367.200 267.600 C 366.980 267.600,366.800 268.232,366.800 269.005 C 366.800 269.778,366.632 270.723,366.427 271.105 C 366.221 271.487,365.822 272.655,365.539 273.700 C 365.257 274.745,364.885 275.600,364.713 275.600 C 364.541 275.600,364.400 275.960,364.400 276.400 C 364.400 276.840,364.254 277.200,364.075 277.200 C 363.896 277.200,363.502 277.830,363.200 278.600 C 362.898 279.370,362.504 280.000,362.325 280.000 C 362.146 280.000,362.000 280.294,362.000 280.653 C 362.000 281.012,361.668 281.597,361.263 281.953 C 360.857 282.309,360.293 283.039,360.009 283.575 C 359.382 284.757,359.114 285.086,356.726 287.615 C 355.695 288.707,354.636 289.600,354.373 289.600 C 354.109 289.600,353.592 289.948,353.223 290.373 C 352.854 290.799,350.853 291.986,348.776 293.012 C 346.699 294.037,344.687 295.039,344.305 295.238 C 343.923 295.437,343.248 295.600,342.805 295.600 C 342.362 295.600,342.000 295.780,342.000 296.000 C 342.000 296.220,341.295 296.400,340.433 296.400 C 339.572 296.400,338.805 296.585,338.730 296.810 C 338.546 297.361,325.852 297.363,324.823 296.812 C 324.399 296.586,323.678 296.400,323.221 296.400 C 322.763 296.400,322.032 296.220,321.595 296.000 C 321.158 295.780,320.442 295.420,320.005 295.200 C 319.568 294.980,318.848 294.800,318.405 294.800 C 317.962 294.800,317.600 294.620,317.600 294.400 C 317.600 294.180,317.240 294.000,316.800 294.000 C 316.360 294.000,316.000 293.820,316.000 293.600 C 316.000 293.380,315.662 293.200,315.249 293.200 C 314.836 293.200,314.274 292.930,314.000 292.600 C 313.726 292.270,313.204 292.000,312.839 292.000 C 312.475 292.000,311.917 291.640,311.600 291.200 C 311.283 290.760,310.773 290.400,310.466 290.400 C 310.159 290.400,309.254 289.646,308.454 288.725 C 307.654 287.803,306.235 286.278,305.300 285.335 C 304.365 284.392,303.600 283.481,303.599 283.311 C 303.599 283.140,303.059 282.370,302.400 281.600 C 301.741 280.830,301.201 279.975,301.201 279.700 C 301.200 279.425,301.020 279.200,300.800 279.200 C 300.580 279.200,300.400 278.840,300.400 278.400 C 300.400 277.960,300.265 277.599,300.100 277.597 C 299.694 277.593,298.800 275.614,298.800 274.720 C 298.800 274.324,298.620 274.000,298.400 274.000 C 298.180 274.000,298.000 273.722,298.000 273.383 C 298.000 273.044,297.640 272.380,297.200 271.908 C 296.760 271.436,296.400 270.813,296.400 270.525 C 296.400 270.236,296.164 270.000,295.875 270.000 C 295.587 270.000,294.964 269.640,294.492 269.200 C 293.545 268.317,286.400 267.964,286.400 268.800 C 286.400 269.020,286.124 269.200,285.787 269.200 C 284.991 269.200,282.400 271.791,282.400 272.587 C 282.400 272.924,282.220 273.200,282.000 273.200 C 281.765 273.200,281.600 274.600,281.600 276.600 C 281.600 278.600,281.765 280.000,282.000 280.000 C 282.220 280.000,282.400 280.540,282.400 281.200 C 282.400 281.860,282.580 282.400,282.800 282.400 C 283.020 282.400,283.200 282.760,283.200 283.200 C 283.200 283.640,283.380 284.000,283.600 284.000 C 283.820 284.000,284.000 284.360,284.000 284.800 C 284.000 285.240,284.180 285.600,284.400 285.600 C 284.620 285.600,284.800 285.960,284.800 286.400 C 284.800 286.840,284.980 287.200,285.200 287.200 C 285.420 287.200,285.600 287.560,285.600 288.000 C 285.600 288.440,285.780 288.800,286.000 288.800 C 286.220 288.800,286.400 289.070,286.400 289.400 C 286.400 289.730,286.580 290.000,286.800 290.000 C 287.020 290.000,287.200 290.270,287.200 290.600 C 287.200 290.930,287.380 291.200,287.600 291.200 C 287.820 291.200,288.000 291.382,288.000 291.604 C 288.000 291.826,288.540 292.572,289.200 293.263 C 289.860 293.954,290.400 294.666,290.400 294.846 C 290.400 295.547,298.173 303.600,298.849 303.600 C 299.062 303.600,299.686 304.050,300.236 304.600 C 300.786 305.150,301.395 305.600,301.590 305.600 C 301.784 305.600,302.189 305.846,302.489 306.147 C 303.301 306.958,306.892 308.800,307.663 308.800 C 308.032 308.800,308.393 308.935,308.467 309.100 C 308.688 309.599,312.022 311.200,312.838 311.200 C 313.257 311.200,313.600 311.380,313.600 311.600 C 313.600 311.820,314.140 312.000,314.800 312.000 C 315.460 312.000,316.000 312.180,316.000 312.400 C 316.000 312.620,316.529 312.800,317.176 312.800 C 317.823 312.800,318.464 312.980,318.600 313.200 C 318.736 313.420,319.647 313.600,320.624 313.600 C 321.601 313.600,322.400 313.780,322.400 314.000 C 322.400 314.255,325.792 314.400,331.776 314.400 C 337.596 314.400,341.247 314.248,341.400 314.000 C 341.536 313.780,342.357 313.600,343.224 313.600 C 344.091 313.600,344.800 313.420,344.800 313.200 C 344.800 312.980,345.520 312.800,346.400 312.800 C 347.280 312.800,348.000 312.620,348.000 312.400 C 348.000 312.180,348.540 312.000,349.200 312.000 C 349.860 312.000,350.400 311.820,350.400 311.600 C 350.400 311.380,350.850 311.200,351.400 311.200 C 351.950 311.200,352.400 311.020,352.400 310.800 C 352.400 310.580,352.850 310.400,353.400 310.400 C 353.950 310.400,354.400 310.220,354.400 310.000 C 354.400 309.780,354.760 309.600,355.200 309.600 C 355.640 309.600,356.001 309.465,356.001 309.300 C 356.002 309.135,356.812 308.667,357.801 308.260 C 358.791 307.854,359.600 307.359,359.600 307.160 C 359.600 306.962,359.836 306.800,360.125 306.800 C 360.413 306.800,361.036 306.440,361.508 306.000 C 361.980 305.560,362.560 305.200,362.797 305.200 C 363.033 305.200,363.857 304.570,364.627 303.800 C 365.397 303.030,366.205 302.400,366.423 302.400 C 366.882 302.400,372.800 296.455,372.800 295.993 C 372.800 295.824,373.340 295.107,374.000 294.400 C 374.660 293.693,375.200 292.814,375.200 292.446 C 375.200 292.078,375.560 291.517,376.000 291.200 C 376.440 290.883,376.800 290.393,376.800 290.112 C 376.800 289.830,376.980 289.600,377.200 289.600 C 377.420 289.600,377.600 289.240,377.600 288.800 C 377.600 288.360,377.752 288.000,377.937 288.000 C 378.123 288.000,378.682 287.145,379.181 286.100 C 379.680 285.055,380.248 283.887,380.444 283.505 C 380.640 283.123,380.800 282.538,380.800 282.205 C 380.800 281.872,380.980 281.600,381.200 281.600 C 381.420 281.600,381.600 281.161,381.600 280.624 C 381.600 280.087,381.780 279.536,382.000 279.400 C 382.220 279.264,382.400 278.623,382.400 277.976 C 382.400 277.329,382.580 276.800,382.800 276.800 C 383.020 276.800,383.200 276.271,383.200 275.624 C 383.200 274.977,383.380 274.336,383.600 274.200 C 383.820 274.064,384.000 273.063,384.000 271.976 C 384.000 270.889,384.180 270.000,384.400 270.000 C 384.654 270.000,384.800 267.000,384.800 261.800 C 384.800 256.600,384.654 253.600,384.400 253.600 C 384.180 253.600,384.000 252.700,384.000 251.600 C 384.000 250.500,383.820 249.600,383.600 249.600 C 383.380 249.600,383.200 248.880,383.200 248.000 C 383.200 247.120,383.020 246.400,382.800 246.400 C 382.580 246.400,382.400 245.860,382.400 245.200 C 382.400 244.540,382.220 244.000,382.000 244.000 C 381.780 244.000,381.600 243.550,381.600 243.000 C 381.600 242.450,381.420 242.000,381.200 242.000 C 380.980 242.000,380.800 241.640,380.800 241.200 C 380.800 240.760,380.620 240.400,380.400 240.400 C 380.180 240.400,380.000 240.166,380.000 239.880 C 380.000 239.144,379.059 237.207,378.700 237.203 C 378.535 237.201,378.400 236.840,378.400 236.400 C 378.400 235.960,378.220 235.600,378.000 235.600 C 377.780 235.600,377.600 235.240,377.600 234.800 C 377.600 234.360,377.420 234.000,377.200 234.000 C 376.980 234.000,376.800 233.730,376.800 233.400 C 376.800 233.070,376.620 232.800,376.400 232.800 C 376.180 232.800,376.000 232.530,376.000 232.200 C 376.000 231.870,375.842 231.600,375.649 231.600 C 375.455 231.600,375.088 231.105,374.832 230.500 C 374.577 229.895,373.700 228.665,372.884 227.767 C 372.068 226.869,370.860 225.510,370.200 224.748 C 369.540 223.985,368.370 222.927,367.600 222.396 C 366.830 221.865,365.723 220.929,365.140 220.315 C 364.556 219.702,363.926 219.200,363.740 219.199 C 363.553 219.199,362.770 218.659,362.000 218.000 C 361.230 217.341,360.375 216.801,360.100 216.801 C 359.825 216.800,359.600 216.654,359.600 216.475 C 359.600 216.296,358.970 215.902,358.200 215.600 C 357.430 215.298,356.800 214.904,356.800 214.725 C 356.800 214.546,356.440 214.400,356.000 214.400 C 355.560 214.400,355.200 214.220,355.200 214.000 C 355.200 213.780,354.840 213.600,354.400 213.600 C 353.960 213.600,353.600 213.420,353.600 213.200 C 353.600 212.980,353.251 212.800,352.824 212.800 C 352.397 212.800,351.936 212.620,351.800 212.400 C 351.664 212.180,351.113 212.000,350.576 212.000 C 350.039 212.000,349.600 211.820,349.600 211.600 C 349.600 211.380,349.060 211.200,348.400 211.200 C 347.740 211.200,347.200 211.020,347.200 210.800 C 347.200 210.580,346.480 210.400,345.600 210.400 C 344.720 210.400,344.000 210.237,344.000 210.037 C 344.000 209.076,271.593 208.241,271.003 209.196 M26.400 295.200 C 26.400 295.420,26.124 295.600,25.787 295.600 C 24.991 295.600,22.400 298.191,22.400 298.987 C 22.400 299.324,22.220 299.600,22.000 299.600 C 21.765 299.600,21.600 300.992,21.600 302.976 C 21.600 304.833,21.780 306.464,22.000 306.600 C 22.220 306.736,22.400 307.197,22.400 307.624 C 22.400 308.051,22.574 308.400,22.787 308.400 C 22.999 308.400,23.803 309.030,24.573 309.800 C 25.343 310.570,26.329 311.200,26.763 311.200 C 27.197 311.200,27.664 311.380,27.800 311.600 C 27.963 311.863,46.137 312.000,81.024 312.000 C 116.075 312.000,134.000 312.135,134.000 312.400 C 134.000 312.620,134.720 312.800,135.600 312.800 C 136.480 312.800,137.200 312.980,137.200 313.200 C 137.200 313.420,137.740 313.600,138.400 313.600 C 139.060 313.600,139.600 313.780,139.600 314.000 C 139.600 314.220,140.140 314.400,140.800 314.400 C 141.460 314.400,142.000 314.580,142.000 314.800 C 142.000 315.020,142.270 315.200,142.600 315.200 C 142.930 315.200,143.200 315.380,143.200 315.600 C 143.200 315.820,143.560 316.000,144.000 316.000 C 144.440 316.000,144.800 316.180,144.800 316.400 C 144.800 316.620,145.120 316.800,145.512 316.800 C 145.903 316.800,146.483 317.160,146.800 317.600 C 147.117 318.040,147.600 318.400,147.873 318.400 C 148.778 318.400,156.278 325.585,157.168 327.303 C 157.480 327.907,157.885 328.400,158.068 328.400 C 158.250 328.400,158.400 328.738,158.400 329.151 C 158.400 329.564,158.670 330.126,159.000 330.400 C 159.330 330.674,159.600 331.236,159.600 331.649 C 159.600 332.062,159.780 332.400,160.000 332.400 C 160.220 332.400,160.400 332.760,160.400 333.200 C 160.400 333.640,160.580 334.000,160.800 334.000 C 161.020 334.000,161.200 334.439,161.200 334.976 C 161.200 335.513,161.380 336.064,161.600 336.200 C 161.820 336.336,162.000 336.977,162.000 337.624 C 162.000 338.271,162.180 338.800,162.400 338.800 C 162.620 338.800,162.800 339.610,162.800 340.600 C 162.800 341.590,162.980 342.400,163.200 342.400 C 163.446 342.400,163.600 344.400,163.600 347.600 C 163.600 350.800,163.446 352.800,163.200 352.800 C 162.980 352.800,162.800 353.700,162.800 354.800 C 162.800 355.900,162.620 356.800,162.400 356.800 C 162.180 356.800,162.000 357.340,162.000 358.000 C 162.000 358.660,161.820 359.200,161.600 359.200 C 161.380 359.200,161.200 359.502,161.200 359.870 C 161.200 360.744,158.331 366.800,157.918 366.800 C 157.743 366.800,157.600 367.088,157.600 367.440 C 157.600 367.791,157.060 368.583,156.400 369.200 C 155.740 369.817,155.200 370.484,155.200 370.682 C 155.200 371.295,152.697 373.781,150.730 375.122 C 149.701 375.823,148.621 376.624,148.330 376.901 C 148.038 377.178,146.900 377.854,145.800 378.402 C 144.700 378.951,143.740 379.535,143.667 379.700 C 143.593 379.865,143.188 380.000,142.767 380.000 C 142.345 380.000,142.000 380.180,142.000 380.400 C 142.000 380.620,141.640 380.800,141.200 380.800 C 140.760 380.800,140.400 380.980,140.400 381.200 C 140.400 381.420,139.860 381.600,139.200 381.600 C 138.540 381.600,138.000 381.780,138.000 382.000 C 138.000 382.220,137.295 382.400,136.433 382.400 C 135.572 382.400,134.805 382.585,134.730 382.810 C 134.544 383.367,121.609 383.369,121.052 382.812 C 120.826 382.586,120.134 382.400,119.515 382.400 C 118.432 382.400,118.076 382.281,116.105 381.262 C 115.613 381.008,114.848 380.800,114.405 380.800 C 113.962 380.800,113.600 380.620,113.600 380.400 C 113.600 380.180,113.240 380.000,112.800 380.000 C 112.360 380.000,112.000 379.820,112.000 379.600 C 112.000 379.380,111.655 379.200,111.233 379.200 C 110.812 379.200,110.407 379.061,110.333 378.892 C 110.260 378.723,109.129 377.879,107.819 377.017 C 105.185 375.283,98.800 369.108,98.800 368.294 C 98.800 368.009,98.440 367.517,98.000 367.200 C 97.560 366.883,97.200 366.303,97.200 365.912 C 97.200 365.520,97.020 365.200,96.800 365.200 C 96.580 365.200,96.400 364.840,96.400 364.400 C 96.400 363.960,96.220 363.600,96.000 363.600 C 95.780 363.600,95.600 363.240,95.600 362.800 C 95.600 362.360,95.420 362.000,95.200 362.000 C 94.980 362.000,94.800 361.640,94.800 361.200 C 94.800 360.760,94.620 360.400,94.400 360.400 C 94.180 360.400,94.000 360.032,94.000 359.582 C 94.000 359.132,93.565 358.329,93.033 357.797 C 92.501 357.265,91.824 356.508,91.528 356.115 C 90.360 354.562,82.400 353.416,82.400 354.800 C 82.400 355.020,82.124 355.200,81.787 355.200 C 81.123 355.200,78.909 357.314,78.100 358.720 C 77.125 360.415,77.783 368.400,78.897 368.400 C 79.064 368.400,79.200 368.652,79.200 368.959 C 79.200 369.835,82.076 375.164,83.300 376.555 C 83.685 376.993,84.000 377.547,84.000 377.787 C 84.000 378.027,84.360 378.483,84.800 378.800 C 85.240 379.117,85.600 379.597,85.600 379.867 C 85.600 381.068,96.807 391.600,98.085 391.600 C 98.381 391.600,98.883 391.960,99.200 392.400 C 99.517 392.840,100.097 393.200,100.488 393.200 C 100.880 393.200,101.200 393.380,101.200 393.600 C 101.200 393.820,101.560 394.000,102.000 394.000 C 102.440 394.000,102.800 394.180,102.800 394.400 C 102.800 394.620,103.160 394.800,103.600 394.800 C 104.040 394.800,104.400 394.980,104.400 395.200 C 104.400 395.420,104.760 395.600,105.200 395.600 C 105.640 395.600,106.000 395.780,106.000 396.000 C 106.000 396.220,106.360 396.400,106.800 396.400 C 107.240 396.400,107.600 396.580,107.600 396.800 C 107.600 397.020,108.039 397.200,108.576 397.200 C 109.113 397.200,109.664 397.380,109.800 397.600 C 109.936 397.820,110.487 398.000,111.024 398.000 C 111.561 398.000,112.000 398.180,112.000 398.400 C 112.000 398.620,112.504 398.800,113.120 398.800 C 113.736 398.800,114.465 399.025,114.740 399.300 C 115.119 399.679,118.285 399.800,127.800 399.800 C 137.315 399.800,140.481 399.679,140.860 399.300 C 141.135 399.025,141.954 398.800,142.680 398.800 C 143.406 398.800,144.000 398.620,144.000 398.400 C 144.000 398.180,144.540 398.000,145.200 398.000 C 145.860 398.000,146.400 397.820,146.400 397.600 C 146.400 397.380,146.760 397.200,147.200 397.200 C 147.640 397.200,148.000 397.020,148.000 396.800 C 148.000 396.580,148.439 396.400,148.976 396.400 C 149.513 396.400,150.064 396.220,150.200 396.000 C 150.336 395.780,150.797 395.600,151.224 395.600 C 151.651 395.600,152.000 395.420,152.000 395.200 C 152.000 394.980,152.278 394.800,152.617 394.800 C 152.956 394.800,153.620 394.440,154.092 394.000 C 154.564 393.560,155.187 393.200,155.475 393.200 C 155.764 393.200,156.000 393.020,156.000 392.800 C 156.000 392.580,156.270 392.400,156.600 392.400 C 156.930 392.400,157.200 392.264,157.200 392.098 C 157.200 391.931,157.742 391.555,158.404 391.262 C 159.066 390.969,160.341 390.025,161.237 389.165 C 162.132 388.304,162.986 387.600,163.133 387.600 C 163.604 387.600,166.602 384.648,167.602 383.200 C 168.134 382.430,169.071 381.323,169.685 380.740 C 170.298 380.156,170.800 379.431,170.800 379.128 C 170.800 378.825,171.160 378.317,171.600 378.000 C 172.040 377.683,172.400 377.271,172.400 377.084 C 172.400 376.897,172.943 375.955,173.606 374.991 C 174.270 374.027,174.922 372.689,175.056 372.019 C 175.190 371.348,175.457 370.800,175.650 370.800 C 175.843 370.800,176.000 370.440,176.000 370.000 C 176.000 369.560,176.180 369.200,176.400 369.200 C 176.620 369.200,176.800 368.840,176.800 368.400 C 176.800 367.960,176.980 367.600,177.200 367.600 C 177.420 367.600,177.600 367.060,177.600 366.400 C 177.600 365.740,177.780 365.200,178.000 365.200 C 178.220 365.200,178.400 364.660,178.400 364.000 C 178.400 363.340,178.580 362.800,178.800 362.800 C 179.020 362.800,179.200 362.080,179.200 361.200 C 179.200 360.320,179.380 359.600,179.600 359.600 C 179.820 359.600,180.000 358.621,180.000 357.424 C 180.000 356.227,180.180 355.136,180.400 355.000 C 180.942 354.665,180.942 340.400,180.400 340.400 C 180.180 340.400,180.000 339.421,180.000 338.224 C 180.000 337.027,179.820 335.936,179.600 335.800 C 179.380 335.664,179.200 334.944,179.200 334.200 C 179.200 333.456,179.020 332.736,178.800 332.600 C 178.580 332.464,178.400 331.823,178.400 331.176 C 178.400 330.529,178.220 330.000,178.000 330.000 C 177.780 330.000,177.600 329.550,177.600 329.000 C 177.600 328.450,177.420 328.000,177.200 328.000 C 176.980 328.000,176.800 327.766,176.800 327.480 C 176.800 326.744,175.859 324.807,175.500 324.803 C 175.335 324.801,175.200 324.484,175.200 324.097 C 175.200 323.434,173.370 319.632,172.843 319.200 C 172.709 319.090,172.344 318.505,172.032 317.900 C 171.720 317.295,171.315 316.800,171.132 316.800 C 170.950 316.800,170.800 316.543,170.800 316.229 C 170.800 315.916,169.189 314.071,167.221 312.129 C 161.599 306.585,160.057 305.200,159.506 305.200 C 159.223 305.200,158.768 304.840,158.493 304.400 C 158.218 303.960,157.807 303.600,157.580 303.600 C 157.353 303.600,156.780 303.240,156.308 302.800 C 155.836 302.360,155.213 302.000,154.925 302.000 C 154.636 302.000,154.400 301.820,154.400 301.600 C 154.400 301.380,154.040 301.200,153.600 301.200 C 153.160 301.200,152.800 301.020,152.800 300.800 C 152.800 300.580,152.440 300.400,152.000 300.400 C 151.560 300.400,151.200 300.220,151.200 300.000 C 151.200 299.780,150.840 299.600,150.400 299.600 C 149.960 299.600,149.600 299.420,149.600 299.200 C 149.600 298.980,149.240 298.800,148.800 298.800 C 148.360 298.800,148.000 298.620,148.000 298.400 C 148.000 298.180,147.460 298.000,146.800 298.000 C 146.140 298.000,145.600 297.820,145.600 297.600 C 145.600 297.380,145.060 297.200,144.400 297.200 C 143.740 297.200,143.200 297.020,143.200 296.800 C 143.200 296.580,142.581 296.400,141.824 296.400 C 141.067 296.400,140.336 296.220,140.200 296.000 C 140.064 295.780,139.164 295.600,138.200 295.600 C 137.236 295.600,136.336 295.420,136.200 295.200 C 135.858 294.646,26.400 294.646,26.400 295.200 " stroke="none" fill="#040404" fill-rule="evenodd"></path><path id="path2" d="M292.175 51.700 L 291.000 53.000 292.300 51.825 C 293.015 51.179,293.600 50.594,293.600 50.525 C 293.600 50.216,293.270 50.488,292.175 51.700 M340.778 109.500 L 339.400 111.000 340.900 109.622 C 342.296 108.338,342.584 108.000,342.278 108.000 C 342.212 108.000,341.537 108.675,340.778 109.500 M54.975 188.100 L 53.800 189.400 55.100 188.225 C 56.312 187.130,56.584 186.800,56.275 186.800 C 56.206 186.800,55.621 187.385,54.975 188.100 M56.400 237.800 C 57.595 239.010,58.663 240.000,58.773 240.000 C 58.883 240.000,57.995 239.010,56.800 237.800 C 55.605 236.590,54.537 235.600,54.427 235.600 C 54.317 235.600,55.205 236.590,56.400 237.800 " stroke="none" fill="#7b6438" fill-rule="evenodd"></path><path id="path3" d="M295.881 47.917 C 295.067 48.751,294.400 49.585,294.400 49.769 C 294.400 49.953,295.071 49.339,295.891 48.403 L 297.382 46.702 297.873 47.851 C 298.365 49.003,298.626 48.253,298.157 47.033 C 297.807 46.119,297.533 46.226,295.881 47.917 M298.456 50.200 C 298.456 50.640,298.611 51.360,298.800 51.800 L 299.144 52.600 299.144 51.800 C 299.144 51.360,298.989 50.640,298.800 50.200 L 298.456 49.400 298.456 50.200 M287.247 57.150 C 284.141 60.423,281.015 63.388,280.300 63.741 C 279.421 64.174,279.241 64.385,279.745 64.391 C 280.166 64.396,282.252 62.620,284.548 60.300 C 290.423 54.365,293.409 51.200,293.135 51.200 C 293.003 51.200,290.353 53.878,287.247 57.150 M299.256 54.200 C 299.256 54.640,299.411 55.360,299.600 55.800 L 299.944 56.600 299.944 55.800 C 299.944 55.360,299.789 54.640,299.600 54.200 L 299.256 53.400 299.256 54.200 M338.200 57.634 C 337.509 57.960,337.548 57.991,338.482 57.864 C 339.223 57.764,339.618 57.920,339.736 58.359 C 339.846 58.771,339.924 58.679,339.954 58.100 C 340.003 57.147,339.509 57.016,338.200 57.634 M300.056 58.000 C 300.056 58.330,300.211 58.960,300.400 59.400 C 300.617 59.904,300.744 59.978,300.744 59.600 C 300.744 59.270,300.589 58.640,300.400 58.200 C 300.183 57.696,300.056 57.622,300.056 58.000 M335.200 58.400 C 334.376 58.664,334.341 58.726,335.000 58.754 C 335.440 58.773,336.070 58.613,336.400 58.400 C 337.101 57.947,336.614 57.947,335.200 58.400 M332.200 59.200 C 331.429 59.531,331.431 59.545,332.276 59.572 C 332.758 59.587,333.264 59.420,333.400 59.200 C 333.692 58.727,333.301 58.727,332.200 59.200 M339.000 60.400 C 338.848 61.091,338.807 61.741,338.909 61.842 C 339.011 61.944,339.209 61.453,339.350 60.750 C 339.683 59.083,339.360 58.760,339.000 60.400 M329.200 60.000 L 328.200 60.320 329.276 60.360 C 329.868 60.382,330.464 60.220,330.600 60.000 C 330.881 59.545,330.620 59.545,329.200 60.000 M264.286 60.300 C 264.087 60.669,266.827 69.306,267.067 69.066 C 267.161 68.972,266.621 66.991,265.867 64.665 C 264.938 61.800,264.641 60.375,264.948 60.249 C 265.268 60.118,265.261 60.054,264.924 60.032 C 264.662 60.014,264.375 60.135,264.286 60.300 M265.600 60.565 C 265.600 60.809,268.031 62.000,268.528 62.000 C 268.751 62.000,268.849 61.916,268.746 61.813 C 268.433 61.500,265.600 60.377,265.600 60.565 M326.000 60.800 L 325.000 61.120 326.000 61.154 C 326.550 61.173,327.270 61.013,327.600 60.800 C 328.364 60.306,327.542 60.306,326.000 60.800 M323.200 61.600 L 322.200 61.920 323.276 61.960 C 323.868 61.982,324.464 61.820,324.600 61.600 C 324.881 61.145,324.620 61.145,323.200 61.600 M269.395 62.392 C 269.534 62.616,269.825 62.800,270.043 62.800 C 270.261 62.800,271.184 63.160,272.094 63.600 C 273.903 64.474,275.220 64.716,273.600 63.877 C 271.677 62.882,269.145 61.987,269.395 62.392 M302.401 62.953 C 303.653 64.397,306.169 65.581,308.000 65.586 C 309.477 65.591,315.505 64.228,315.942 63.791 C 316.202 63.531,315.520 63.666,311.616 64.650 C 307.681 65.641,305.109 65.136,302.601 62.879 L 301.403 61.800 302.401 62.953 M318.834 62.711 C 317.422 63.066,316.448 63.416,316.669 63.490 C 317.107 63.636,321.593 62.541,321.927 62.206 C 322.228 61.906,321.697 61.992,318.834 62.711 M338.264 63.100 C 337.769 64.925,337.608 66.168,337.939 65.600 C 338.334 64.925,338.868 62.400,338.617 62.400 C 338.527 62.400,338.369 62.715,338.264 63.100 M275.700 64.687 C 276.305 64.778,277.295 64.778,277.900 64.687 C 278.505 64.595,278.010 64.520,276.800 64.520 C 275.590 64.520,275.095 64.595,275.700 64.687 M336.708 68.982 C 336.336 70.512,336.105 71.839,336.196 71.929 C 336.287 72.020,336.474 71.578,336.613 70.947 C 336.752 70.316,337.046 69.319,337.268 68.732 C 337.490 68.144,337.607 67.334,337.528 66.932 C 337.450 66.529,337.081 67.452,336.708 68.982 M335.450 73.650 C 335.117 75.317,335.440 75.640,335.800 74.000 C 335.952 73.309,335.993 72.659,335.891 72.558 C 335.789 72.456,335.591 72.947,335.450 73.650 M268.812 75.200 C 268.812 75.530,268.987 76.070,269.200 76.400 C 269.545 76.933,269.588 76.933,269.588 76.400 C 269.588 76.070,269.413 75.530,269.200 75.200 C 268.855 74.667,268.812 74.667,268.812 75.200 M334.846 76.067 C 334.821 76.434,334.696 77.064,334.570 77.467 C 334.352 78.162,334.363 78.163,334.797 77.487 C 335.048 77.096,335.173 76.466,335.073 76.087 C 334.911 75.468,334.888 75.466,334.846 76.067 M269.612 77.600 C 269.612 77.930,269.787 78.470,270.000 78.800 C 270.345 79.333,270.388 79.333,270.388 78.800 C 270.388 78.470,270.213 77.930,270.000 77.600 C 269.655 77.067,269.612 77.067,269.612 77.600 M333.850 79.650 C 333.517 81.317,333.840 81.640,334.200 80.000 C 334.352 79.309,334.393 78.659,334.291 78.558 C 334.189 78.456,333.991 78.947,333.850 79.650 M333.029 82.629 C 332.881 83.215,332.851 83.784,332.961 83.894 C 333.071 84.004,333.281 83.615,333.429 83.029 C 333.576 82.442,333.606 81.873,333.496 81.763 C 333.386 81.653,333.176 82.042,333.029 82.629 M332.229 85.829 C 332.081 86.415,332.038 86.972,332.132 87.066 C 332.227 87.160,332.424 86.758,332.571 86.171 C 332.719 85.585,332.762 85.028,332.668 84.934 C 332.573 84.840,332.376 85.242,332.229 85.829 M271.646 87.467 C 271.621 87.724,271.484 88.264,271.341 88.667 C 271.140 89.236,271.194 89.297,271.579 88.942 C 271.852 88.691,271.989 88.151,271.884 87.742 C 271.779 87.334,271.672 87.210,271.646 87.467 M269.826 91.100 C 268.962 92.205,268.893 92.390,269.563 91.804 C 270.365 91.104,271.423 89.600,271.114 89.600 C 271.051 89.600,270.472 90.275,269.826 91.100 M266.800 93.200 C 266.030 93.622,265.589 93.974,265.820 93.983 C 266.454 94.009,268.393 93.043,268.397 92.700 C 268.401 92.314,268.441 92.302,266.800 93.200 M332.804 93.053 C 332.798 93.728,335.629 96.158,337.003 96.657 C 338.866 97.334,341.919 98.005,342.906 97.954 C 343.758 97.910,342.384 97.536,339.200 96.946 C 337.079 96.552,334.992 95.370,333.842 93.911 C 333.274 93.190,332.807 92.804,332.804 93.053 M262.800 95.097 C 262.281 95.299,257.433 97.536,253.300 99.480 C 251.714 100.225,251.682 100.506,253.100 101.214 C 254.802 102.063,255.067 102.113,254.224 101.430 C 253.796 101.083,253.301 100.800,253.124 100.800 C 252.432 100.800,252.846 99.962,253.700 99.634 C 254.195 99.444,256.372 98.458,258.537 97.444 C 260.702 96.430,262.627 95.600,262.813 95.600 C 263.000 95.600,263.264 95.420,263.400 95.200 C 263.671 94.761,263.665 94.760,262.800 95.097 M344.600 98.356 C 345.040 98.535,346.210 98.792,347.200 98.926 C 348.275 99.072,348.678 99.039,348.200 98.844 C 347.760 98.665,346.590 98.408,345.600 98.274 C 344.525 98.128,344.122 98.161,344.600 98.356 M349.736 99.546 C 350.467 99.834,349.048 101.414,343.258 106.761 C 342.519 107.442,342.039 108.000,342.190 108.000 C 342.703 108.000,351.136 99.821,350.944 99.510 C 350.839 99.339,350.358 99.213,349.876 99.228 C 349.097 99.253,349.082 99.288,349.736 99.546 M255.241 102.153 C 255.783 102.743,267.600 108.547,267.600 108.223 C 267.600 108.088,256.433 102.427,255.414 102.045 C 255.186 101.960,255.109 102.009,255.241 102.153 M268.400 108.785 C 269.536 109.629,272.078 110.855,272.278 110.656 C 272.388 110.546,271.605 110.040,270.539 109.532 C 268.144 108.390,267.626 108.210,268.400 108.785 M337.488 112.125 C 334.263 115.121,332.796 116.968,332.819 118.000 C 332.826 118.330,333.177 117.908,333.599 117.063 C 334.021 116.217,335.859 114.110,337.683 112.381 C 339.508 110.652,340.910 109.236,340.800 109.235 C 340.690 109.234,339.200 110.535,337.488 112.125 M280.400 114.925 C 280.400 114.994,280.985 115.579,281.700 116.225 L 283.000 117.400 281.825 116.100 C 280.730 114.888,280.400 114.616,280.400 114.925 M332.493 120.400 C 332.493 121.170,332.575 121.485,332.676 121.100 C 332.776 120.715,332.776 120.085,332.676 119.700 C 332.575 119.315,332.493 119.630,332.493 120.400 M310.200 125.200 C 309.612 125.453,309.931 125.544,311.400 125.544 C 312.869 125.544,313.188 125.453,312.600 125.200 C 312.160 125.011,311.620 124.856,311.400 124.856 C 311.180 124.856,310.640 125.011,310.200 125.200 M306.150 127.109 C 305.683 127.489,304.974 128.340,304.577 129.000 C 304.179 129.660,304.022 130.020,304.228 129.800 C 307.361 126.453,307.922 125.668,306.150 127.109 M317.000 126.800 C 318.101 127.273,318.492 127.273,318.200 126.800 C 318.064 126.580,317.558 126.413,317.076 126.428 C 316.231 126.455,316.229 126.469,317.000 126.800 M335.221 128.800 C 336.605 132.270,336.615 132.376,335.540 132.138 C 334.792 131.973,334.722 132.018,335.200 132.359 C 336.035 132.955,336.800 132.905,336.800 132.253 C 336.800 131.570,335.192 127.540,334.704 127.000 C 334.505 126.780,334.738 127.590,335.221 128.800 M303.215 131.498 C 302.159 133.758,301.595 135.200,301.765 135.200 C 302.014 135.200,304.042 130.709,303.871 130.537 C 303.793 130.460,303.498 130.892,303.215 131.498 M330.000 130.800 C 330.330 131.013,330.870 131.188,331.200 131.188 C 331.733 131.188,331.733 131.145,331.200 130.800 C 330.870 130.587,330.330 130.412,330.000 130.412 C 329.467 130.412,329.467 130.455,330.000 130.800 M332.800 131.600 C 333.130 131.813,333.670 131.988,334.000 131.988 C 334.533 131.988,334.533 131.945,334.000 131.600 C 333.670 131.387,333.130 131.212,332.800 131.212 C 332.267 131.212,332.267 131.255,332.800 131.600 M300.672 137.019 C 299.732 138.989,299.864 139.324,300.847 137.462 C 301.293 136.616,301.587 135.854,301.501 135.767 C 301.414 135.681,301.041 136.244,300.672 137.019 M294.876 141.769 C 296.346 144.731,297.600 146.127,297.600 144.800 C 297.600 144.580,297.373 144.400,297.095 144.400 C 296.817 144.400,295.971 143.129,295.216 141.575 C 294.461 140.021,293.693 138.657,293.509 138.544 C 293.325 138.430,293.940 139.881,294.876 141.769 M46.151 212.400 C 46.151 214.930,46.216 215.965,46.296 214.700 C 46.375 213.435,46.375 211.365,46.296 210.100 C 46.216 208.835,46.151 209.870,46.151 212.400 " stroke="none" fill="#886c38" fill-rule="evenodd"></path><path id="path4" d="M297.500 46.412 C 298.160 46.678,298.412 47.124,298.446 48.087 C 298.472 48.824,298.576 49.079,298.682 48.668 C 299.036 47.299,298.450 45.998,297.492 46.025 L 296.600 46.051 297.500 46.412 M294.012 49.345 L 291.824 51.800 294.312 49.413 C 295.680 48.099,296.800 46.974,296.800 46.913 C 296.800 46.446,295.884 47.245,294.012 49.345 M290.038 53.515 C 289.729 53.892,288.470 55.280,287.239 56.600 C 285.414 58.558,285.573 58.449,288.101 56.010 C 289.805 54.366,291.200 52.971,291.200 52.910 C 291.200 52.572,290.523 52.924,290.038 53.515 M338.190 57.216 C 338.023 57.486,338.296 57.541,338.966 57.373 C 339.799 57.164,340.001 57.258,340.006 57.857 C 340.011 58.464,340.080 58.494,340.380 58.019 C 340.582 57.700,340.658 57.295,340.550 57.119 C 340.263 56.655,338.492 56.728,338.190 57.216 M335.200 58.018 C 334.762 58.315,334.924 58.352,335.800 58.156 C 337.271 57.827,337.590 57.598,336.567 57.606 C 336.145 57.609,335.530 57.795,335.200 58.018 M300.832 59.120 C 300.796 59.698,301.907 62.000,302.221 62.000 C 302.331 62.000,302.171 61.505,301.865 60.900 C 301.560 60.295,301.209 59.530,301.086 59.200 C 300.936 58.797,300.853 58.771,300.832 59.120 M282.956 61.036 C 280.799 63.350,281.323 63.320,283.600 61.000 C 284.572 60.010,285.194 59.216,284.983 59.236 C 284.772 59.256,283.860 60.066,282.956 61.036 M276.105 64.287 C 276.714 64.379,277.614 64.377,278.105 64.282 C 278.597 64.187,278.100 64.111,277.000 64.114 C 275.900 64.117,275.497 64.195,276.105 64.287 M337.800 66.400 C 337.650 66.873,337.617 67.350,337.727 67.460 C 337.837 67.570,338.050 67.273,338.200 66.800 C 338.350 66.327,338.383 65.850,338.273 65.740 C 338.163 65.630,337.950 65.927,337.800 66.400 M335.400 75.600 C 335.248 76.291,335.207 76.941,335.309 77.042 C 335.411 77.144,335.609 76.653,335.750 75.950 C 336.083 74.283,335.760 73.960,335.400 75.600 M334.649 78.215 C 334.512 78.573,334.415 79.166,334.434 79.533 C 334.453 79.900,334.627 79.669,334.821 79.020 C 335.198 77.758,335.065 77.133,334.649 78.215 M270.806 82.633 C 270.809 83.055,270.995 83.670,271.218 84.000 C 271.515 84.438,271.552 84.276,271.356 83.400 C 271.027 81.929,270.798 81.610,270.806 82.633 M332.831 85.231 C 332.585 86.378,332.460 87.393,332.553 87.486 C 332.646 87.579,332.923 86.717,333.169 85.569 C 333.415 84.422,333.540 83.407,333.447 83.314 C 333.354 83.221,333.077 84.083,332.831 85.231 M332.093 89.200 C 332.093 89.970,332.175 90.285,332.276 89.900 C 332.376 89.515,332.376 88.885,332.276 88.500 C 332.175 88.115,332.093 88.430,332.093 89.200 M269.675 90.600 C 269.197 91.150,268.963 91.600,269.157 91.600 C 269.350 91.600,269.803 91.150,270.163 90.600 C 270.524 90.050,270.757 89.600,270.681 89.600 C 270.606 89.600,270.153 90.050,269.675 90.600 M332.662 91.600 C 332.935 92.680,334.800 95.333,335.085 95.048 C 335.181 94.952,334.847 94.400,334.343 93.820 C 333.839 93.240,333.197 92.279,332.917 91.683 C 332.434 90.656,332.421 90.652,332.662 91.600 M337.600 96.400 C 337.930 96.613,338.470 96.788,338.800 96.788 C 339.333 96.788,339.333 96.745,338.800 96.400 C 338.470 96.187,337.930 96.012,337.600 96.012 C 337.067 96.012,337.067 96.055,337.600 96.400 M341.000 97.200 C 342.196 97.714,343.195 97.714,342.400 97.200 C 342.070 96.987,341.440 96.822,341.000 96.834 L 340.200 96.856 341.000 97.200 M345.000 98.000 C 345.440 98.189,346.160 98.338,346.600 98.332 C 347.243 98.323,347.204 98.257,346.400 98.000 C 345.032 97.562,343.981 97.562,345.000 98.000 M349.000 98.800 C 349.440 98.989,350.070 99.144,350.400 99.144 C 350.778 99.144,350.704 99.017,350.200 98.800 C 349.760 98.611,349.130 98.456,348.800 98.456 C 348.422 98.456,348.496 98.583,349.000 98.800 M251.986 99.817 C 251.569 100.319,251.571 100.524,251.996 100.917 C 252.410 101.300,252.451 101.284,252.198 100.839 C 251.992 100.479,252.141 100.086,252.615 99.739 C 253.021 99.443,253.161 99.200,252.925 99.200 C 252.690 99.200,252.268 99.478,251.986 99.817 M347.000 103.758 L 342.600 108.116 346.647 104.463 C 350.746 100.763,351.841 99.654,351.557 99.490 C 351.471 99.441,349.420 101.361,347.000 103.758 M272.800 111.391 C 272.800 111.501,274.240 112.315,276.000 113.200 C 277.760 114.085,279.200 114.719,279.200 114.609 C 279.200 114.499,277.760 113.685,276.000 112.800 C 274.240 111.915,272.800 111.281,272.800 111.391 M336.386 113.900 L 334.200 116.200 336.591 114.000 C 337.906 112.790,339.061 111.755,339.157 111.700 C 339.254 111.645,339.162 111.600,338.953 111.600 C 338.744 111.600,337.589 112.635,336.386 113.900 M283.200 119.600 C 283.866 120.920,284.502 122.000,284.612 122.000 C 284.722 122.000,284.266 120.920,283.600 119.600 C 282.934 118.280,282.298 117.200,282.188 117.200 C 282.078 117.200,282.534 118.280,283.200 119.600 M332.909 120.400 C 332.909 121.390,332.987 121.795,333.082 121.300 C 333.178 120.805,333.178 119.995,333.082 119.500 C 332.987 119.005,332.909 119.410,332.909 120.400 M310.505 125.887 C 311.114 125.979,312.014 125.977,312.505 125.882 C 312.997 125.787,312.500 125.711,311.400 125.714 C 310.300 125.717,309.897 125.795,310.505 125.887 M334.400 125.684 C 334.400 126.116,335.615 128.800,335.811 128.800 C 335.921 128.800,335.733 128.134,335.393 127.321 C 334.793 125.886,334.400 125.238,334.400 125.684 M305.800 128.000 C 305.168 128.660,304.819 129.190,305.025 129.178 C 305.378 129.157,307.439 126.800,307.105 126.800 C 307.020 126.800,306.432 127.340,305.800 128.000 M327.200 130.382 C 327.530 130.605,328.145 130.791,328.567 130.794 C 329.590 130.802,329.271 130.573,327.800 130.244 C 326.924 130.048,326.762 130.085,327.200 130.382 M330.000 131.141 C 330.330 131.334,331.140 131.609,331.800 131.752 C 332.568 131.918,332.784 131.884,332.400 131.659 C 332.070 131.466,331.260 131.191,330.600 131.048 C 329.832 130.882,329.616 130.916,330.000 131.141 M337.027 131.959 C 337.277 132.865,337.217 132.904,335.946 132.660 C 334.996 132.477,334.777 132.517,335.200 132.794 C 336.623 133.727,338.000 132.976,337.203 131.703 C 336.830 131.108,336.802 131.147,337.027 131.959 M299.872 139.819 C 298.932 141.789,299.064 142.124,300.047 140.262 C 300.493 139.416,300.787 138.654,300.701 138.567 C 300.614 138.481,300.241 139.044,299.872 139.819 M297.600 144.780 C 297.600 145.113,297.284 145.214,296.700 145.067 C 295.828 144.847,295.824 144.858,296.582 145.424 C 297.361 146.006,298.502 145.169,297.837 144.503 C 297.706 144.373,297.600 144.498,297.600 144.780 M122.200 164.400 C 121.696 164.617,121.622 164.744,122.000 164.744 C 122.330 164.744,122.960 164.589,123.400 164.400 C 123.904 164.183,123.978 164.056,123.600 164.056 C 123.270 164.056,122.640 164.211,122.200 164.400 M119.000 165.200 C 118.496 165.417,118.422 165.544,118.800 165.544 C 119.130 165.544,119.760 165.389,120.200 165.200 C 120.704 164.983,120.778 164.856,120.400 164.856 C 120.070 164.856,119.440 165.011,119.000 165.200 M116.000 166.000 C 115.176 166.264,115.141 166.326,115.800 166.354 C 116.240 166.373,116.870 166.213,117.200 166.000 C 117.901 165.547,117.414 165.547,116.000 166.000 M109.400 167.600 C 108.293 167.882,108.277 167.909,109.200 167.947 C 109.750 167.969,110.470 167.813,110.800 167.600 C 111.481 167.160,111.129 167.160,109.400 167.600 M106.400 168.400 C 105.576 168.664,105.541 168.726,106.200 168.754 C 106.640 168.773,107.270 168.613,107.600 168.400 C 108.301 167.947,107.814 167.947,106.400 168.400 M130.454 169.867 C 130.425 170.344,130.296 171.064,130.170 171.467 C 129.952 172.161,129.964 172.162,130.396 171.488 C 130.647 171.097,130.775 170.377,130.681 169.888 C 130.509 169.001,130.509 169.001,130.454 169.867 M95.200 171.218 C 94.762 171.515,94.924 171.552,95.800 171.356 C 97.271 171.027,97.590 170.798,96.567 170.806 C 96.145 170.809,95.530 170.995,95.200 171.218 M92.000 172.018 C 91.562 172.315,91.724 172.352,92.600 172.156 C 94.071 171.827,94.390 171.598,93.367 171.606 C 92.945 171.609,92.330 171.795,92.000 172.018 M88.800 172.818 C 88.362 173.115,88.524 173.152,89.400 172.956 C 90.871 172.627,91.190 172.398,90.167 172.406 C 89.745 172.409,89.130 172.595,88.800 172.818 M129.654 172.867 C 129.625 173.234,129.484 173.864,129.341 174.267 C 129.141 174.833,129.195 174.896,129.575 174.546 C 129.846 174.297,129.987 173.667,129.888 173.146 C 129.790 172.626,129.684 172.500,129.654 172.867 M128.846 176.267 C 128.821 176.524,128.684 177.064,128.541 177.467 C 128.340 178.036,128.394 178.097,128.779 177.742 C 129.052 177.491,129.189 176.951,129.084 176.542 C 128.979 176.134,128.872 176.010,128.846 176.267 M128.046 179.467 C 128.021 179.724,127.884 180.264,127.741 180.667 C 127.540 181.236,127.594 181.297,127.979 180.942 C 128.252 180.691,128.389 180.151,128.284 179.742 C 128.179 179.334,128.072 179.210,128.046 179.467 M57.300 185.500 C 54.750 187.982,54.723 188.025,56.963 186.030 C 60.600 182.791,60.591 182.800,60.323 182.800 C 60.187 182.800,58.826 184.015,57.300 185.500 M126.446 185.867 C 126.421 186.124,126.284 186.664,126.141 187.067 C 125.940 187.636,125.994 187.697,126.379 187.342 C 126.652 187.091,126.789 186.551,126.684 186.142 C 126.579 185.734,126.472 185.610,126.446 185.867 M51.353 192.500 C 49.976 194.836,49.886 195.035,50.587 194.200 C 51.400 193.232,52.100 192.000,51.838 192.000 C 51.733 192.000,51.515 192.225,51.353 192.500 M46.273 204.953 C 46.123 205.345,46.011 205.966,46.025 206.333 C 46.042 206.775,46.181 206.674,46.437 206.034 C 46.649 205.503,46.761 204.882,46.685 204.654 C 46.609 204.427,46.424 204.561,46.273 204.953 M120.629 209.029 C 120.481 209.615,120.438 210.172,120.532 210.266 C 120.627 210.360,120.824 209.958,120.971 209.371 C 121.119 208.785,121.162 208.228,121.068 208.134 C 120.973 208.040,120.776 208.442,120.629 209.029 M45.693 212.400 C 45.693 213.170,45.775 213.485,45.876 213.100 C 45.976 212.715,45.976 212.085,45.876 211.700 C 45.775 211.315,45.693 211.630,45.693 212.400 M119.829 212.229 C 119.681 212.815,119.638 213.372,119.732 213.466 C 119.827 213.560,120.024 213.158,120.171 212.571 C 120.319 211.985,120.362 211.428,120.268 211.334 C 120.173 211.240,119.976 211.642,119.829 212.229 M119.029 215.429 C 118.881 216.015,118.838 216.572,118.932 216.666 C 119.027 216.760,119.224 216.358,119.371 215.771 C 119.519 215.185,119.562 214.628,119.468 214.534 C 119.373 214.440,119.176 214.842,119.029 215.429 M118.200 218.800 C 118.048 219.491,118.007 220.141,118.109 220.242 C 118.211 220.344,118.409 219.853,118.550 219.150 C 118.883 217.483,118.560 217.160,118.200 218.800 M46.056 218.400 C 46.056 218.730,46.211 219.360,46.400 219.800 C 46.617 220.304,46.744 220.378,46.744 220.000 C 46.744 219.670,46.589 219.040,46.400 218.600 C 46.183 218.096,46.056 218.022,46.056 218.400 M50.349 230.200 C 50.565 230.640,51.034 231.360,51.393 231.800 L 52.044 232.600 51.651 231.800 C 51.435 231.360,50.966 230.640,50.607 230.200 L 49.956 229.400 50.349 230.200 M112.317 232.857 C 111.282 234.380,110.608 235.519,110.819 235.388 C 111.318 235.080,114.514 230.377,114.336 230.214 C 114.261 230.145,113.353 231.335,112.317 232.857 M52.791 233.988 C 53.257 234.641,53.842 235.302,54.091 235.456 C 54.341 235.611,54.041 235.076,53.425 234.268 C 52.088 232.515,51.584 232.292,52.791 233.988 M56.200 238.000 C 57.283 239.100,58.260 240.000,58.370 240.000 C 58.480 240.000,57.683 239.100,56.600 238.000 C 55.517 236.900,54.540 236.000,54.430 236.000 C 54.320 236.000,55.117 236.900,56.200 238.000 M107.868 238.246 C 107.025 239.029,106.407 239.740,106.494 239.827 C 106.581 239.914,107.352 239.269,108.207 238.393 C 110.134 236.419,109.929 236.330,107.868 238.246 M100.200 244.000 C 99.540 244.437,99.180 244.792,99.400 244.788 C 99.801 244.782,101.976 243.223,101.600 243.212 C 101.490 243.208,100.860 243.563,100.200 244.000 M72.341 247.701 C 72.543 247.903,73.133 248.001,73.654 247.919 C 74.455 247.793,74.398 247.737,73.287 247.552 C 72.493 247.421,72.119 247.479,72.341 247.701 M91.000 247.600 L 89.800 247.905 90.876 247.953 C 91.468 247.979,92.064 247.820,92.200 247.600 C 92.336 247.380,92.392 247.221,92.324 247.247 C 92.256 247.273,91.660 247.432,91.000 247.600 M77.500 248.689 C 78.215 248.778,79.385 248.778,80.100 248.689 C 80.815 248.601,80.230 248.528,78.800 248.528 C 77.370 248.528,76.785 248.601,77.500 248.689 M84.300 248.689 C 85.015 248.778,86.185 248.778,86.900 248.689 C 87.615 248.601,87.030 248.528,85.600 248.528 C 84.170 248.528,83.585 248.601,84.300 248.689 " stroke="none" fill="#504428" fill-rule="evenodd"></path></g></svg>